G04 EAGLE Gerber RS-274X export*
G75*
%MOMM*%
%FSLAX34Y34*%
%LPD*%
%INSolderpaste Bottom*%
%IPPOS*%
%AMOC8*
5,1,8,0,0,1.08239X$1,22.5*%
G01*
%ADD10R,1.300000X1.500000*%
%ADD11R,1.500000X1.300000*%
%ADD12R,3.600000X1.300000*%
%ADD13R,1.300000X3.600000*%


D10*
G36*
X227815Y-101172D02*
X234315Y-89914D01*
X247305Y-97414D01*
X240805Y-108672D01*
X227815Y-101172D01*
G37*
G36*
X218315Y-117626D02*
X224815Y-106368D01*
X237805Y-113868D01*
X231305Y-125126D01*
X218315Y-117626D01*
G37*
D11*
X264091Y-79787D03*
X264091Y-60787D03*
D10*
G36*
X229903Y71377D02*
X219945Y63021D01*
X210303Y74511D01*
X220261Y82867D01*
X229903Y71377D01*
G37*
G36*
X244457Y83589D02*
X234499Y75233D01*
X224857Y86723D01*
X234815Y95079D01*
X244457Y83589D01*
G37*
G36*
X116044Y195588D02*
X109544Y184330D01*
X96554Y191830D01*
X103054Y203088D01*
X116044Y195588D01*
G37*
G36*
X125544Y212042D02*
X119044Y200784D01*
X106054Y208284D01*
X112554Y219542D01*
X125544Y212042D01*
G37*
G36*
X86942Y209103D02*
X84685Y196302D01*
X69914Y198907D01*
X72171Y211708D01*
X86942Y209103D01*
G37*
G36*
X90242Y227815D02*
X87985Y215014D01*
X73214Y217619D01*
X75471Y230420D01*
X90242Y227815D01*
G37*
G36*
X-98131Y218109D02*
X-95874Y205308D01*
X-110645Y202703D01*
X-112902Y215504D01*
X-98131Y218109D01*
G37*
G36*
X-101431Y236821D02*
X-99174Y224020D01*
X-113945Y221415D01*
X-116202Y234216D01*
X-101431Y236821D01*
G37*
X-51219Y-151933D03*
X-34219Y-151933D03*
D12*
X-57081Y-306663D03*
X-135831Y-306663D03*
X59662Y-375558D03*
X-19089Y-375558D03*
D13*
X146320Y-350740D03*
X146320Y-271990D03*
D10*
G36*
X-228362Y112675D02*
X-217104Y106175D01*
X-224604Y93185D01*
X-235862Y99685D01*
X-228362Y112675D01*
G37*
G36*
X-244816Y122175D02*
X-233558Y115675D01*
X-241058Y102685D01*
X-252316Y109185D01*
X-244816Y122175D01*
G37*
X-200811Y-2469D03*
X-219811Y-2469D03*
X-227116Y-50491D03*
X-246116Y-50491D03*
M02*
