G04 EAGLE Gerber RS-274X export*
G75*
%MOMM*%
%FSLAX34Y34*%
%LPD*%
%INSoldermask Bottom*%
%IPPOS*%
%AMOC8*
5,1,8,0,0,1.08239X$1,22.5*%
G01*
%ADD10C,3.301600*%
%ADD11R,1.422400X1.422400*%
%ADD12P,1.539592X8X292.500000*%
%ADD13P,1.539592X8X22.500000*%
%ADD14R,2.201600X2.201600*%
%ADD15C,3.101600*%
%ADD16C,2.032000*%
%ADD17C,1.625600*%
%ADD18R,1.401600X1.601600*%
%ADD19R,1.601600X1.401600*%
%ADD20R,2.201600X2.201600*%
%ADD21P,1.539592X8X112.500000*%
%ADD22R,1.459600X1.459600*%
%ADD23C,1.459600*%
%ADD24R,1.459600X1.459600*%
%ADD25R,1.451600X1.451600*%
%ADD26C,1.451600*%
%ADD27R,1.451600X1.451600*%
%ADD28R,3.701600X1.401600*%
%ADD29R,1.401600X3.701600*%
%ADD30C,1.574800*%


D10*
X268600Y-268700D03*
X-268700Y268700D03*
X-268700Y-268700D03*
X268700Y268700D03*
D11*
X21857Y-402531D03*
D12*
X1857Y-402531D03*
X-18144Y-402531D03*
D11*
X177778Y-230499D03*
D13*
X177778Y-250499D03*
X177778Y-270499D03*
X177778Y-290499D03*
D11*
X178503Y-109984D03*
D13*
X178503Y-129984D03*
X178503Y-149984D03*
X178503Y-169984D03*
D14*
X1488Y267246D03*
X1488Y212246D03*
D15*
X48488Y216846D03*
X-45513Y216846D03*
D16*
X293210Y-208737D03*
X350110Y-110183D03*
D17*
X261622Y-135109D02*
X248423Y-127489D01*
X235723Y-149487D02*
X248922Y-157107D01*
X236222Y-179104D02*
X223023Y-171484D01*
D18*
G36*
X227121Y-101358D02*
X234129Y-89220D01*
X247999Y-97228D01*
X240991Y-109366D01*
X227121Y-101358D01*
G37*
G36*
X217621Y-117812D02*
X224629Y-105674D01*
X238499Y-113682D01*
X231491Y-125820D01*
X217621Y-117812D01*
G37*
D16*
X325979Y-110376D03*
X345741Y1696D03*
D17*
X295930Y10870D02*
X280690Y10870D01*
X280690Y-14530D02*
X295930Y-14530D01*
X295930Y-39930D02*
X280690Y-39930D01*
D19*
X264091Y-79787D03*
X264091Y-60787D03*
D16*
X360101Y19014D03*
X340339Y131086D03*
D17*
X251262Y141874D02*
X238063Y134254D01*
X250763Y112257D02*
X263962Y119876D01*
X276662Y97879D02*
X263463Y90259D01*
D18*
G36*
X230618Y71315D02*
X219883Y62305D01*
X209588Y74573D01*
X220323Y83583D01*
X230618Y71315D01*
G37*
G36*
X245172Y83527D02*
X234437Y74517D01*
X224142Y86785D01*
X234877Y95795D01*
X245172Y83527D01*
G37*
D16*
X205758Y274229D03*
X107204Y331129D03*
D17*
X149013Y234752D02*
X141393Y221554D01*
X163390Y208854D02*
X171010Y222052D01*
X193007Y209352D02*
X185387Y196154D01*
D18*
G36*
X116738Y195774D02*
X109730Y183636D01*
X95860Y191644D01*
X102868Y203782D01*
X116738Y195774D01*
G37*
G36*
X126238Y212228D02*
X119230Y200090D01*
X105360Y208098D01*
X112368Y220236D01*
X126238Y212228D01*
G37*
D20*
G36*
X409953Y-208861D02*
X398945Y-227927D01*
X379879Y-216919D01*
X390887Y-197853D01*
X409953Y-208861D01*
G37*
G36*
X362321Y-181361D02*
X351313Y-200427D01*
X332247Y-189419D01*
X343255Y-170353D01*
X362321Y-181361D01*
G37*
D15*
X374768Y-146987D03*
X327768Y-228393D03*
D20*
G36*
X452374Y-57976D02*
X448551Y-79657D01*
X426870Y-75834D01*
X430693Y-54153D01*
X452374Y-57976D01*
G37*
G36*
X398210Y-48426D02*
X394387Y-70107D01*
X372706Y-66284D01*
X376529Y-44603D01*
X398210Y-48426D01*
G37*
D15*
X398149Y-11867D03*
X381826Y-104439D03*
D20*
G36*
X446961Y104747D02*
X450784Y83066D01*
X429103Y79243D01*
X425280Y100924D01*
X446961Y104747D01*
G37*
G36*
X392797Y95197D02*
X396620Y73516D01*
X374939Y69693D01*
X371116Y91374D01*
X392797Y95197D01*
G37*
D15*
X380236Y129529D03*
X396559Y36957D03*
D20*
G36*
X199651Y404553D02*
X218717Y393545D01*
X207709Y374479D01*
X188643Y385487D01*
X199651Y404553D01*
G37*
G36*
X172151Y356921D02*
X191217Y345913D01*
X180209Y326847D01*
X161143Y337855D01*
X172151Y356921D01*
G37*
D15*
X137777Y369368D03*
X219183Y322368D03*
D11*
X-112121Y-260628D03*
D21*
X-92121Y-260628D03*
X-72121Y-260628D03*
D11*
X125430Y-110450D03*
D13*
X125430Y-130450D03*
D20*
G36*
X-172634Y323255D02*
X-191700Y312247D01*
X-202708Y331313D01*
X-183642Y342321D01*
X-172634Y323255D01*
G37*
G36*
X-200134Y370887D02*
X-219200Y359879D01*
X-230208Y378945D01*
X-211142Y389953D01*
X-200134Y370887D01*
G37*
D15*
X-172168Y394432D03*
X-253574Y347432D03*
D22*
X240560Y20100D03*
D23*
X240560Y45500D03*
X240560Y-5300D03*
X240560Y-30700D03*
D24*
G36*
X-146690Y141185D02*
X-136370Y130865D01*
X-146690Y120545D01*
X-157010Y130865D01*
X-146690Y141185D01*
G37*
G36*
X-236493Y230987D02*
X-226173Y220667D01*
X-236493Y210347D01*
X-246813Y220667D01*
X-236493Y230987D01*
G37*
D23*
X-128730Y148825D03*
X-110769Y166786D03*
X-92809Y184746D03*
X-74848Y202707D03*
X-164651Y292509D03*
X-182611Y274549D03*
X-200572Y256588D03*
X-218532Y238628D03*
D16*
X88732Y343669D03*
X-23339Y363431D03*
D17*
X30438Y272481D02*
X27792Y257472D01*
X52806Y253062D02*
X55453Y268070D01*
X80467Y263659D02*
X77820Y248651D01*
D18*
G36*
X87531Y209515D02*
X85097Y195713D01*
X69325Y198495D01*
X71759Y212297D01*
X87531Y209515D01*
G37*
G36*
X90831Y228227D02*
X88397Y214425D01*
X72625Y217207D01*
X75059Y231009D01*
X90831Y228227D01*
G37*
D20*
G36*
X49406Y452624D02*
X71087Y448801D01*
X67264Y427120D01*
X45583Y430943D01*
X49406Y452624D01*
G37*
G36*
X39856Y398460D02*
X61537Y394637D01*
X57714Y372956D01*
X36033Y376779D01*
X39856Y398460D01*
G37*
D15*
X3297Y398399D03*
X95869Y382076D03*
D16*
X-30247Y342790D03*
X-142318Y323029D03*
D17*
X-120467Y264739D02*
X-117820Y249731D01*
X-92806Y254142D02*
X-95453Y269150D01*
X-70438Y273561D02*
X-67792Y258552D01*
D18*
G36*
X-97719Y218698D02*
X-95285Y204896D01*
X-111057Y202114D01*
X-113491Y215916D01*
X-97719Y218698D01*
G37*
G36*
X-101019Y237410D02*
X-98585Y223608D01*
X-114357Y220826D01*
X-116791Y234628D01*
X-101019Y237410D01*
G37*
D20*
G36*
X-106717Y444991D02*
X-85036Y448814D01*
X-81213Y427133D01*
X-102894Y423310D01*
X-106717Y444991D01*
G37*
G36*
X-97167Y390827D02*
X-75486Y394650D01*
X-71663Y372969D01*
X-93344Y369146D01*
X-97167Y390827D01*
G37*
D15*
X-131499Y378266D03*
X-38927Y394589D03*
D11*
X21592Y-336690D03*
D12*
X1592Y-336690D03*
X-18408Y-336690D03*
D11*
X20848Y-271746D03*
D12*
X848Y-271746D03*
X-19153Y-271746D03*
D25*
X5240Y-125583D03*
D26*
X5240Y-145583D03*
D18*
X-51219Y-151933D03*
X-34219Y-151933D03*
D27*
G36*
X-178136Y228860D02*
X-189255Y238191D01*
X-179924Y249310D01*
X-168805Y239979D01*
X-178136Y228860D01*
G37*
D26*
X-163709Y226229D03*
D11*
X74675Y-391305D03*
D21*
X94675Y-391305D03*
X114675Y-391305D03*
D11*
X74522Y-325194D03*
D21*
X94522Y-325194D03*
X114522Y-325194D03*
D11*
X74389Y-260169D03*
D21*
X94389Y-260169D03*
X114389Y-260169D03*
D28*
X-57081Y-306663D03*
X-135831Y-306663D03*
X59662Y-375558D03*
X-19089Y-375558D03*
D29*
X146320Y-350740D03*
X146320Y-271990D03*
D11*
X-112055Y-325751D03*
D21*
X-92055Y-325751D03*
X-72055Y-325751D03*
D11*
X178308Y-352737D03*
D13*
X178308Y-372737D03*
X178308Y-392737D03*
X178308Y-412737D03*
D30*
X78590Y-151100D03*
X78590Y-125700D03*
X78590Y-100300D03*
X78590Y-74900D03*
X78590Y-49500D03*
X78590Y-24100D03*
X78590Y1300D03*
X78590Y26700D03*
X78590Y52100D03*
X78590Y77500D03*
X78590Y102900D03*
X78590Y128300D03*
X78590Y153700D03*
X78590Y179100D03*
X53190Y179100D03*
X27790Y179100D03*
X2390Y179100D03*
X-23010Y179100D03*
X-48410Y179100D03*
X-73810Y179100D03*
X-73810Y153700D03*
X-73810Y128300D03*
X-73810Y102900D03*
X-73810Y77500D03*
X-73810Y52100D03*
X-73810Y26700D03*
X-73810Y1300D03*
X-73810Y-24100D03*
X-73810Y-49500D03*
X-73810Y-74900D03*
X-73810Y-100300D03*
X-73810Y-125700D03*
X-73810Y-151100D03*
X-48410Y-125700D03*
X-48410Y-74900D03*
X-48410Y-49500D03*
X-48410Y-24100D03*
X2390Y153700D03*
X-23010Y153700D03*
X2390Y128300D03*
X2390Y102900D03*
X2390Y77500D03*
X2390Y52100D03*
X-23010Y128300D03*
X-23010Y102900D03*
X-23010Y77500D03*
X-23010Y52100D03*
X-23010Y26700D03*
X-23010Y1300D03*
X2390Y26700D03*
X2390Y1300D03*
D20*
G36*
X308081Y170642D02*
X298777Y190594D01*
X318729Y199898D01*
X328033Y179946D01*
X308081Y170642D01*
G37*
G36*
X357927Y193887D02*
X348623Y213839D01*
X368575Y223143D01*
X377879Y203191D01*
X357927Y193887D01*
G37*
D15*
X378946Y163974D03*
X339219Y249167D03*
D24*
G36*
X124136Y160896D02*
X112956Y151514D01*
X103574Y162694D01*
X114754Y172076D01*
X124136Y160896D01*
G37*
G36*
X221423Y242530D02*
X210243Y233148D01*
X200861Y244328D01*
X212041Y253710D01*
X221423Y242530D01*
G37*
D23*
X130181Y142338D03*
X146508Y122880D03*
X162835Y103422D03*
X179162Y83965D03*
X276449Y165599D03*
X260123Y185056D03*
X243796Y204514D03*
X227469Y223972D03*
D20*
G36*
X-344935Y-139793D02*
X-333927Y-158859D01*
X-352993Y-169867D01*
X-364001Y-150801D01*
X-344935Y-139793D01*
G37*
G36*
X-392567Y-167293D02*
X-381559Y-186359D01*
X-400625Y-197367D01*
X-411633Y-178301D01*
X-392567Y-167293D01*
G37*
D15*
X-416112Y-139327D03*
X-369112Y-220733D03*
D24*
G36*
X-144128Y-142851D02*
X-133808Y-132531D01*
X-123488Y-142851D01*
X-133808Y-153171D01*
X-144128Y-142851D01*
G37*
G36*
X-233931Y-232653D02*
X-223611Y-222333D01*
X-213291Y-232653D01*
X-223611Y-242973D01*
X-233931Y-232653D01*
G37*
D23*
X-151769Y-124890D03*
X-169729Y-106930D03*
X-187690Y-88969D03*
X-205650Y-71009D03*
X-295453Y-160811D03*
X-277492Y-178772D03*
X-259532Y-196732D03*
X-241571Y-214693D03*
D16*
X-271177Y208990D03*
X-328077Y110437D03*
D17*
X-231202Y149013D02*
X-218004Y141393D01*
X-205304Y163390D02*
X-218502Y171010D01*
X-205802Y193007D02*
X-192604Y185387D01*
D18*
G36*
X-228548Y113369D02*
X-216410Y106361D01*
X-224418Y92491D01*
X-236556Y99499D01*
X-228548Y113369D01*
G37*
G36*
X-245002Y122869D02*
X-232864Y115861D01*
X-240872Y101991D01*
X-253010Y108999D01*
X-245002Y122869D01*
G37*
D20*
G36*
X-404493Y207721D02*
X-393485Y226787D01*
X-374419Y215779D01*
X-385427Y196713D01*
X-404493Y207721D01*
G37*
G36*
X-356861Y180221D02*
X-345853Y199287D01*
X-326787Y188279D01*
X-337795Y169213D01*
X-356861Y180221D01*
G37*
D15*
X-369308Y145847D03*
X-322308Y227253D03*
D16*
X-331878Y89174D03*
X-355538Y-22140D03*
D17*
X-258530Y-2300D02*
X-243290Y-2300D01*
X-243290Y23100D02*
X-258530Y23100D01*
X-258530Y48500D02*
X-243290Y48500D01*
D18*
X-200811Y-2469D03*
X-219811Y-2469D03*
D20*
G36*
X-451045Y62425D02*
X-447222Y84106D01*
X-425541Y80283D01*
X-429364Y58602D01*
X-451045Y62425D01*
G37*
G36*
X-396880Y52874D02*
X-393057Y74555D01*
X-371376Y70732D01*
X-375199Y49051D01*
X-396880Y52874D01*
G37*
D15*
X-396820Y16316D03*
X-380497Y108888D03*
D16*
X-336306Y-33547D03*
X-316545Y-145618D03*
D17*
X-212057Y-135758D02*
X-199573Y-127017D01*
X-214142Y-106211D02*
X-226625Y-114952D01*
X-241194Y-94145D02*
X-228710Y-85404D01*
D18*
X-227116Y-50491D03*
X-246116Y-50491D03*
D20*
G36*
X-449631Y-90457D02*
X-453454Y-68776D01*
X-431773Y-64953D01*
X-427950Y-86634D01*
X-449631Y-90457D01*
G37*
G36*
X-395467Y-80907D02*
X-399290Y-59226D01*
X-377609Y-55403D01*
X-373786Y-77084D01*
X-395467Y-80907D01*
G37*
D15*
X-382906Y-115239D03*
X-399229Y-22667D03*
D11*
X-187632Y-204126D03*
D21*
X-167632Y-204126D03*
D11*
X-187502Y-260602D03*
D21*
X-167502Y-260602D03*
D11*
X-187885Y-317038D03*
D21*
X-167885Y-317038D03*
D11*
X-187370Y-375060D03*
D21*
X-167370Y-375060D03*
D11*
X-111760Y91270D03*
D13*
X-111760Y71270D03*
X-111760Y51270D03*
X-111760Y31270D03*
X-111760Y11270D03*
X-111760Y-8730D03*
X-111760Y-28730D03*
X-111760Y-48730D03*
X-111760Y-68730D03*
X-111760Y-88730D03*
M02*
