G04 EAGLE Gerber RS-274X export*
G75*
%MOMM*%
%FSLAX34Y34*%
%LPD*%
%INTop Copper*%
%IPPOS*%
%AMOC8*
5,1,8,0,0,1.08239X$1,22.5*%
G01*
%ADD10R,1.500000X0.900000*%
%ADD11R,0.900000X1.500000*%
%ADD12R,1.500000X1.300000*%
%ADD13R,1.300000X1.500000*%
%ADD14R,1.600000X0.700000*%
%ADD15C,1.625600*%
%ADD16R,1.320800X1.320800*%
%ADD17P,1.429621X8X202.500000*%
%ADD18R,0.550000X0.300000*%
%ADD19R,0.635000X1.270000*%
%ADD20C,0.254000*%
%ADD21C,1.006400*%
%ADD22C,0.756400*%
%ADD23C,0.856400*%
%ADD24C,0.508000*%
%ADD25C,0.906400*%
%ADD26C,1.016000*%
%ADD27C,0.812800*%
%ADD28C,0.203200*%
%ADD29C,0.711200*%
%ADD30C,0.762000*%
%ADD31C,1.106400*%
%ADD32C,1.206400*%
%ADD33P,0.769796X8X22.500000*%

G36*
X-7208Y-175511D02*
X-7208Y-175511D01*
X-6935Y-175508D01*
X-6930Y-175507D01*
X-6926Y-175507D01*
X-6644Y-175463D01*
X-6372Y-175421D01*
X-6367Y-175419D01*
X-6363Y-175419D01*
X-6096Y-175337D01*
X-5826Y-175256D01*
X-5822Y-175254D01*
X-5818Y-175253D01*
X-5568Y-175137D01*
X-5309Y-175017D01*
X-5305Y-175014D01*
X-5301Y-175012D01*
X-5065Y-174859D01*
X-4831Y-174707D01*
X-4827Y-174704D01*
X-4823Y-174702D01*
X-4608Y-174514D01*
X-4400Y-174334D01*
X-4397Y-174331D01*
X-4394Y-174328D01*
X-4207Y-174112D01*
X-4026Y-173904D01*
X-4024Y-173901D01*
X-4021Y-173897D01*
X-3868Y-173661D01*
X-3716Y-173426D01*
X-3714Y-173422D01*
X-3711Y-173418D01*
X-3597Y-173171D01*
X-3475Y-172910D01*
X-3474Y-172905D01*
X-3472Y-172901D01*
X-3392Y-172636D01*
X-3310Y-172365D01*
X-3309Y-172360D01*
X-3308Y-172356D01*
X-3267Y-172088D01*
X-3222Y-171802D01*
X-3222Y-171797D01*
X-3221Y-171792D01*
X-3218Y-171522D01*
X-3214Y-171232D01*
X-3214Y-171227D01*
X-3214Y-171223D01*
X-3250Y-170943D01*
X-3285Y-170667D01*
X-3286Y-170662D01*
X-3287Y-170658D01*
X-3293Y-170636D01*
X-3383Y-170310D01*
X-3383Y-167907D01*
X-2495Y-165763D01*
X-2289Y-165558D01*
X-2184Y-165437D01*
X-2072Y-165323D01*
X-1998Y-165222D01*
X-1916Y-165127D01*
X-1829Y-164993D01*
X-1733Y-164865D01*
X-1674Y-164754D01*
X-1606Y-164649D01*
X-1539Y-164504D01*
X-1462Y-164363D01*
X-1419Y-164246D01*
X-1366Y-164132D01*
X-1320Y-163979D01*
X-1264Y-163829D01*
X-1237Y-163707D01*
X-1201Y-163587D01*
X-1176Y-163429D01*
X-1142Y-163273D01*
X-1137Y-163179D01*
X-1113Y-163024D01*
X-1107Y-162545D01*
X-1104Y-162485D01*
X-1112Y-162320D01*
X-1180Y-161755D01*
X-1184Y-161739D01*
X-1185Y-161727D01*
X-3671Y-149233D01*
X-3672Y-149229D01*
X-3672Y-149225D01*
X-3678Y-149206D01*
X-3821Y-148683D01*
X-3877Y-148553D01*
X-3902Y-148470D01*
X-8777Y-136701D01*
X-8779Y-136698D01*
X-8780Y-136694D01*
X-8790Y-136676D01*
X-9031Y-136191D01*
X-9112Y-136075D01*
X-9152Y-135999D01*
X-16230Y-125407D01*
X-16579Y-124956D01*
X-16590Y-124945D01*
X-16597Y-124935D01*
X-20880Y-120210D01*
X-20969Y-120125D01*
X-21018Y-120065D01*
X-21188Y-119895D01*
X-40759Y-100324D01*
X-40821Y-100240D01*
X-40948Y-100055D01*
X-40990Y-100010D01*
X-41025Y-99961D01*
X-41182Y-99801D01*
X-41334Y-99635D01*
X-41381Y-99597D01*
X-41423Y-99554D01*
X-41601Y-99417D01*
X-41775Y-99274D01*
X-41827Y-99242D01*
X-41875Y-99205D01*
X-41979Y-99150D01*
X-42104Y-99074D01*
X-42760Y-98418D01*
X-43072Y-97665D01*
X-43072Y-84149D01*
X-42760Y-83395D01*
X-42183Y-82818D01*
X-41429Y-82506D01*
X-34155Y-82506D01*
X-34102Y-82516D01*
X-34044Y-82533D01*
X-33822Y-82567D01*
X-33602Y-82608D01*
X-33541Y-82610D01*
X-33481Y-82620D01*
X-33256Y-82622D01*
X-33032Y-82632D01*
X-32972Y-82626D01*
X-32911Y-82627D01*
X-32688Y-82598D01*
X-32465Y-82576D01*
X-32406Y-82561D01*
X-32346Y-82554D01*
X-32233Y-82519D01*
X-32178Y-82506D01*
X-24865Y-82506D01*
X-24111Y-82818D01*
X-23535Y-83395D01*
X-23197Y-84209D01*
X-23196Y-84236D01*
X-23186Y-84290D01*
X-23182Y-84345D01*
X-23134Y-84570D01*
X-23092Y-84796D01*
X-23075Y-84849D01*
X-23063Y-84902D01*
X-22984Y-85118D01*
X-22911Y-85337D01*
X-22886Y-85386D01*
X-22867Y-85437D01*
X-22759Y-85640D01*
X-22656Y-85846D01*
X-22625Y-85891D01*
X-22599Y-85940D01*
X-22463Y-86125D01*
X-22332Y-86315D01*
X-22295Y-86355D01*
X-22262Y-86400D01*
X-22102Y-86564D01*
X-21946Y-86734D01*
X-21903Y-86768D01*
X-21865Y-86808D01*
X-21683Y-86949D01*
X-21505Y-87094D01*
X-21458Y-87123D01*
X-21414Y-87157D01*
X-21214Y-87271D01*
X-21017Y-87390D01*
X-20967Y-87412D01*
X-20919Y-87439D01*
X-20705Y-87524D01*
X-20494Y-87614D01*
X-20441Y-87629D01*
X-20390Y-87649D01*
X-20165Y-87703D01*
X-19944Y-87763D01*
X-19900Y-87768D01*
X-19836Y-87783D01*
X-19269Y-87838D01*
X-19203Y-87836D01*
X-19159Y-87840D01*
X-16126Y-87840D01*
X-16123Y-87840D01*
X-16121Y-87840D01*
X-15843Y-87820D01*
X-15558Y-87800D01*
X-15555Y-87799D01*
X-15552Y-87799D01*
X-15275Y-87740D01*
X-15000Y-87681D01*
X-14998Y-87680D01*
X-14995Y-87679D01*
X-14731Y-87582D01*
X-14465Y-87485D01*
X-14463Y-87484D01*
X-14460Y-87483D01*
X-14216Y-87352D01*
X-13963Y-87216D01*
X-13961Y-87215D01*
X-13958Y-87213D01*
X-13735Y-87050D01*
X-13503Y-86880D01*
X-13501Y-86878D01*
X-13499Y-86876D01*
X-13309Y-86691D01*
X-13095Y-86482D01*
X-13093Y-86480D01*
X-13091Y-86478D01*
X-12927Y-86266D01*
X-12746Y-86032D01*
X-12745Y-86029D01*
X-12743Y-86027D01*
X-12737Y-86015D01*
X-12464Y-85537D01*
X-12412Y-85407D01*
X-12372Y-85332D01*
X-11822Y-84005D01*
X-11245Y-83428D01*
X-10492Y-83115D01*
X-10472Y-83115D01*
X-10428Y-83112D01*
X-10384Y-83115D01*
X-10144Y-83092D01*
X-9903Y-83076D01*
X-9860Y-83066D01*
X-9816Y-83062D01*
X-9581Y-83007D01*
X-9346Y-82956D01*
X-9305Y-82941D01*
X-9262Y-82931D01*
X-9037Y-82844D01*
X-8811Y-82761D01*
X-8772Y-82740D01*
X-8731Y-82724D01*
X-8521Y-82606D01*
X-8309Y-82492D01*
X-8273Y-82466D01*
X-8235Y-82444D01*
X-8043Y-82298D01*
X-7849Y-82155D01*
X-7817Y-82125D01*
X-7782Y-82098D01*
X-7614Y-81927D01*
X-7440Y-81758D01*
X-7413Y-81723D01*
X-7382Y-81692D01*
X-7321Y-81604D01*
X-7092Y-81307D01*
X-6993Y-81134D01*
X-6931Y-81045D01*
X-6779Y-80776D01*
X-6074Y-80070D01*
X-6073Y-80070D01*
X-5939Y-79935D01*
X-4100Y-78096D01*
X405Y-75496D01*
X5429Y-74149D01*
X11877Y-74149D01*
X17030Y-75530D01*
X21650Y-78197D01*
X22168Y-78715D01*
X22170Y-78717D01*
X22172Y-78719D01*
X22381Y-78901D01*
X22598Y-79089D01*
X22600Y-79091D01*
X22602Y-79092D01*
X22838Y-79244D01*
X23076Y-79399D01*
X23079Y-79400D01*
X23081Y-79402D01*
X23339Y-79521D01*
X23593Y-79639D01*
X23596Y-79640D01*
X23598Y-79641D01*
X23870Y-79723D01*
X24138Y-79804D01*
X24141Y-79805D01*
X24144Y-79805D01*
X24426Y-79849D01*
X24701Y-79891D01*
X24704Y-79891D01*
X24707Y-79892D01*
X24995Y-79895D01*
X25271Y-79899D01*
X25274Y-79899D01*
X25277Y-79899D01*
X25555Y-79863D01*
X25836Y-79827D01*
X25839Y-79826D01*
X25842Y-79826D01*
X25855Y-79822D01*
X26386Y-79677D01*
X26514Y-79621D01*
X26596Y-79596D01*
X27237Y-79331D01*
X29557Y-79331D01*
X31701Y-80219D01*
X33342Y-81860D01*
X34230Y-84003D01*
X34230Y-86772D01*
X34234Y-86837D01*
X34232Y-86902D01*
X34254Y-87121D01*
X34270Y-87340D01*
X34284Y-87404D01*
X34290Y-87469D01*
X34343Y-87682D01*
X34389Y-87897D01*
X34411Y-87958D01*
X34427Y-88022D01*
X34509Y-88225D01*
X34585Y-88432D01*
X34616Y-88490D01*
X34640Y-88550D01*
X34750Y-88740D01*
X34854Y-88935D01*
X34892Y-88987D01*
X34925Y-89044D01*
X35060Y-89217D01*
X35190Y-89395D01*
X35235Y-89441D01*
X35276Y-89493D01*
X35434Y-89645D01*
X35587Y-89803D01*
X35639Y-89843D01*
X35686Y-89888D01*
X35864Y-90017D01*
X36038Y-90152D01*
X36095Y-90184D01*
X36148Y-90222D01*
X36342Y-90325D01*
X36533Y-90434D01*
X36594Y-90458D01*
X36651Y-90488D01*
X36858Y-90563D01*
X37063Y-90644D01*
X37126Y-90659D01*
X37187Y-90681D01*
X37305Y-90703D01*
X37616Y-90778D01*
X37849Y-90801D01*
X37963Y-90821D01*
X41472Y-91107D01*
X41559Y-91108D01*
X41646Y-91118D01*
X41761Y-91114D01*
X42820Y-91216D01*
X42857Y-91217D01*
X42882Y-91222D01*
X43932Y-91307D01*
X44112Y-91330D01*
X44231Y-91353D01*
X47486Y-91668D01*
X56037Y-95233D01*
X63161Y-101155D01*
X68230Y-108909D01*
X70674Y-117394D01*
X70699Y-117461D01*
X70716Y-117530D01*
X70796Y-117728D01*
X70870Y-117929D01*
X70904Y-117992D01*
X70930Y-118058D01*
X71037Y-118242D01*
X71139Y-118431D01*
X71181Y-118489D01*
X71216Y-118551D01*
X71349Y-118719D01*
X71475Y-118891D01*
X71524Y-118942D01*
X71569Y-118999D01*
X71723Y-119147D01*
X71872Y-119300D01*
X71929Y-119344D01*
X71980Y-119393D01*
X72153Y-119518D01*
X72323Y-119649D01*
X72385Y-119684D01*
X72443Y-119726D01*
X72632Y-119825D01*
X72818Y-119931D01*
X72884Y-119957D01*
X72947Y-119990D01*
X73149Y-120062D01*
X73347Y-120141D01*
X73416Y-120158D01*
X73484Y-120182D01*
X73603Y-120203D01*
X73901Y-120275D01*
X73925Y-120278D01*
X74042Y-120327D01*
X74187Y-120399D01*
X74303Y-120438D01*
X74416Y-120486D01*
X74573Y-120528D01*
X74727Y-120579D01*
X74848Y-120601D01*
X74967Y-120633D01*
X75128Y-120653D01*
X75288Y-120682D01*
X75411Y-120687D01*
X75533Y-120701D01*
X75695Y-120698D01*
X75857Y-120705D01*
X75980Y-120693D01*
X76102Y-120690D01*
X76262Y-120664D01*
X76424Y-120648D01*
X76544Y-120619D01*
X76665Y-120599D01*
X76820Y-120551D01*
X76978Y-120512D01*
X77092Y-120467D01*
X77209Y-120430D01*
X77356Y-120361D01*
X77507Y-120301D01*
X77613Y-120240D01*
X77724Y-120187D01*
X77860Y-120098D01*
X78001Y-120017D01*
X78072Y-119959D01*
X78201Y-119874D01*
X78569Y-119550D01*
X78610Y-119517D01*
X90320Y-107806D01*
X90358Y-107762D01*
X90401Y-107723D01*
X90545Y-107548D01*
X90694Y-107376D01*
X90726Y-107327D01*
X90762Y-107283D01*
X90880Y-107088D01*
X91004Y-106898D01*
X91028Y-106845D01*
X91058Y-106796D01*
X91148Y-106587D01*
X91244Y-106381D01*
X91261Y-106326D01*
X91283Y-106272D01*
X91343Y-106053D01*
X91409Y-105835D01*
X91418Y-105778D01*
X91433Y-105723D01*
X91461Y-105497D01*
X91496Y-105272D01*
X91497Y-105215D01*
X91504Y-105157D01*
X91501Y-104930D01*
X91504Y-104703D01*
X91497Y-104645D01*
X91496Y-104588D01*
X91461Y-104363D01*
X91432Y-104137D01*
X91417Y-104082D01*
X91408Y-104025D01*
X91342Y-103808D01*
X91282Y-103588D01*
X91259Y-103535D01*
X91242Y-103480D01*
X91146Y-103274D01*
X91056Y-103065D01*
X91026Y-103016D01*
X91001Y-102963D01*
X90877Y-102773D01*
X90759Y-102578D01*
X90722Y-102534D01*
X90691Y-102485D01*
X90541Y-102314D01*
X90397Y-102138D01*
X90354Y-102099D01*
X90317Y-102056D01*
X90145Y-101907D01*
X89977Y-101753D01*
X89929Y-101720D01*
X89886Y-101683D01*
X89695Y-101559D01*
X89507Y-101430D01*
X89456Y-101405D01*
X89407Y-101373D01*
X89201Y-101278D01*
X88997Y-101177D01*
X88943Y-101159D01*
X88890Y-101134D01*
X88672Y-101069D01*
X88457Y-100997D01*
X88400Y-100986D01*
X88345Y-100970D01*
X88120Y-100935D01*
X87896Y-100894D01*
X87838Y-100892D01*
X87781Y-100883D01*
X87554Y-100880D01*
X87327Y-100871D01*
X87269Y-100877D01*
X87212Y-100876D01*
X86986Y-100905D01*
X86760Y-100928D01*
X86704Y-100942D01*
X86647Y-100949D01*
X86535Y-100983D01*
X86206Y-101064D01*
X86002Y-101146D01*
X85892Y-101179D01*
X85082Y-101515D01*
X82761Y-101515D01*
X80618Y-100627D01*
X78977Y-98986D01*
X77799Y-96143D01*
X77777Y-96078D01*
X77753Y-96029D01*
X77734Y-95977D01*
X77625Y-95774D01*
X77522Y-95569D01*
X77491Y-95523D01*
X77465Y-95475D01*
X77330Y-95289D01*
X77199Y-95100D01*
X77161Y-95059D01*
X77129Y-95015D01*
X76968Y-94850D01*
X76812Y-94681D01*
X76770Y-94646D01*
X76731Y-94607D01*
X76550Y-94466D01*
X76371Y-94320D01*
X76324Y-94292D01*
X76281Y-94258D01*
X76081Y-94144D01*
X75884Y-94025D01*
X75834Y-94003D01*
X75786Y-93976D01*
X75571Y-93891D01*
X75360Y-93800D01*
X75307Y-93786D01*
X75256Y-93766D01*
X75032Y-93711D01*
X74810Y-93651D01*
X74766Y-93647D01*
X74702Y-93631D01*
X74135Y-93576D01*
X74070Y-93579D01*
X74026Y-93575D01*
X68805Y-93575D01*
X63735Y-88505D01*
X63735Y-81335D01*
X67277Y-77793D01*
X67428Y-77619D01*
X67584Y-77450D01*
X67615Y-77404D01*
X67651Y-77363D01*
X67776Y-77170D01*
X67906Y-76980D01*
X67931Y-76931D01*
X67961Y-76885D01*
X68058Y-76676D01*
X68160Y-76470D01*
X68177Y-76418D01*
X68201Y-76368D01*
X68267Y-76147D01*
X68340Y-75929D01*
X68350Y-75875D01*
X68366Y-75823D01*
X68401Y-75595D01*
X68442Y-75369D01*
X68445Y-75314D01*
X68453Y-75260D01*
X68456Y-75030D01*
X68466Y-74799D01*
X68460Y-74745D01*
X68461Y-74690D01*
X68432Y-74461D01*
X68409Y-74232D01*
X68396Y-74179D01*
X68389Y-74125D01*
X68328Y-73902D01*
X68273Y-73679D01*
X68253Y-73628D01*
X68238Y-73575D01*
X68147Y-73363D01*
X68062Y-73150D01*
X68034Y-73103D01*
X68012Y-73052D01*
X67892Y-72855D01*
X67778Y-72656D01*
X67750Y-72622D01*
X67716Y-72566D01*
X67354Y-72125D01*
X67306Y-72081D01*
X67277Y-72047D01*
X63735Y-68505D01*
X63735Y-61335D01*
X67277Y-57793D01*
X67428Y-57619D01*
X67584Y-57450D01*
X67615Y-57404D01*
X67651Y-57363D01*
X67776Y-57170D01*
X67906Y-56980D01*
X67931Y-56931D01*
X67961Y-56885D01*
X68058Y-56676D01*
X68160Y-56470D01*
X68177Y-56418D01*
X68201Y-56368D01*
X68267Y-56147D01*
X68340Y-55929D01*
X68350Y-55875D01*
X68366Y-55823D01*
X68401Y-55595D01*
X68442Y-55369D01*
X68445Y-55314D01*
X68453Y-55260D01*
X68456Y-55030D01*
X68466Y-54799D01*
X68460Y-54745D01*
X68461Y-54690D01*
X68432Y-54461D01*
X68409Y-54232D01*
X68396Y-54179D01*
X68389Y-54125D01*
X68328Y-53902D01*
X68273Y-53679D01*
X68253Y-53628D01*
X68238Y-53575D01*
X68147Y-53363D01*
X68062Y-53150D01*
X68034Y-53103D01*
X68012Y-53052D01*
X67892Y-52855D01*
X67778Y-52656D01*
X67750Y-52622D01*
X67716Y-52566D01*
X67354Y-52125D01*
X67306Y-52081D01*
X67277Y-52047D01*
X63735Y-48505D01*
X63735Y-41335D01*
X63963Y-41107D01*
X64039Y-41020D01*
X64121Y-40940D01*
X64225Y-40805D01*
X64337Y-40677D01*
X64400Y-40580D01*
X64470Y-40489D01*
X64554Y-40341D01*
X64647Y-40199D01*
X64695Y-40094D01*
X64752Y-39994D01*
X64815Y-39836D01*
X64887Y-39682D01*
X64920Y-39572D01*
X64963Y-39465D01*
X65003Y-39299D01*
X65052Y-39137D01*
X65069Y-39023D01*
X65097Y-38911D01*
X65113Y-38741D01*
X65139Y-38574D01*
X65141Y-38459D01*
X65152Y-38344D01*
X65145Y-38174D01*
X65147Y-38004D01*
X65132Y-37890D01*
X65127Y-37774D01*
X65096Y-37607D01*
X65075Y-37439D01*
X65044Y-37327D01*
X65023Y-37214D01*
X64969Y-37053D01*
X64924Y-36889D01*
X64879Y-36783D01*
X64842Y-36674D01*
X64766Y-36522D01*
X64699Y-36366D01*
X64638Y-36268D01*
X64587Y-36165D01*
X64490Y-36025D01*
X64402Y-35880D01*
X64329Y-35791D01*
X64263Y-35696D01*
X64148Y-35571D01*
X64040Y-35439D01*
X63955Y-35362D01*
X63877Y-35277D01*
X63745Y-35169D01*
X63620Y-35054D01*
X63525Y-34989D01*
X63436Y-34916D01*
X63290Y-34828D01*
X63150Y-34732D01*
X63047Y-34680D01*
X62949Y-34621D01*
X62792Y-34554D01*
X62640Y-34478D01*
X62531Y-34442D01*
X62425Y-34396D01*
X62261Y-34352D01*
X62099Y-34298D01*
X61986Y-34277D01*
X61875Y-34247D01*
X61760Y-34236D01*
X61539Y-34196D01*
X61207Y-34182D01*
X61090Y-34171D01*
X48068Y-34171D01*
X47471Y-33923D01*
X47307Y-33869D01*
X47146Y-33805D01*
X47037Y-33778D01*
X46930Y-33743D01*
X46761Y-33711D01*
X46593Y-33671D01*
X46480Y-33660D01*
X46370Y-33639D01*
X46198Y-33632D01*
X46025Y-33615D01*
X45913Y-33620D01*
X45801Y-33616D01*
X45629Y-33633D01*
X45456Y-33640D01*
X45346Y-33661D01*
X45234Y-33672D01*
X45066Y-33713D01*
X44896Y-33744D01*
X44789Y-33780D01*
X44680Y-33806D01*
X44520Y-33870D01*
X44356Y-33925D01*
X44255Y-33976D01*
X44151Y-34017D01*
X44001Y-34103D01*
X43846Y-34180D01*
X43754Y-34245D01*
X43656Y-34300D01*
X43520Y-34406D01*
X43378Y-34504D01*
X43295Y-34581D01*
X43206Y-34650D01*
X43086Y-34773D01*
X42959Y-34891D01*
X42887Y-34978D01*
X42809Y-35058D01*
X42707Y-35198D01*
X42598Y-35332D01*
X42539Y-35428D01*
X42473Y-35519D01*
X42392Y-35671D01*
X42302Y-35819D01*
X42258Y-35922D01*
X42205Y-36022D01*
X42146Y-36184D01*
X42078Y-36343D01*
X42049Y-36451D01*
X42010Y-36557D01*
X41974Y-36726D01*
X41929Y-36893D01*
X41921Y-36978D01*
X41892Y-37114D01*
X41854Y-37664D01*
X41853Y-37677D01*
X41853Y-49869D01*
X39678Y-55118D01*
X35661Y-59135D01*
X30412Y-61309D01*
X20668Y-61309D01*
X20607Y-61313D01*
X20546Y-61311D01*
X20323Y-61333D01*
X20100Y-61349D01*
X20040Y-61362D01*
X19979Y-61368D01*
X19761Y-61421D01*
X19542Y-61468D01*
X19485Y-61489D01*
X19425Y-61504D01*
X19218Y-61587D01*
X19007Y-61664D01*
X18953Y-61693D01*
X18896Y-61716D01*
X18817Y-61761D01*
X17578Y-62274D01*
X10403Y-62274D01*
X10358Y-62254D01*
X10143Y-62189D01*
X9930Y-62118D01*
X9871Y-62107D01*
X9813Y-62089D01*
X9590Y-62055D01*
X9370Y-62014D01*
X9309Y-62012D01*
X9249Y-62003D01*
X9025Y-62000D01*
X8800Y-61990D01*
X8740Y-61996D01*
X8680Y-61996D01*
X8457Y-62024D01*
X8233Y-62046D01*
X8175Y-62061D01*
X8115Y-62068D01*
X8002Y-62103D01*
X7680Y-62181D01*
X7471Y-62265D01*
X7439Y-62274D01*
X-229Y-62274D01*
X-270Y-62268D01*
X-494Y-62265D01*
X-718Y-62256D01*
X-779Y-62262D01*
X-840Y-62261D01*
X-1062Y-62289D01*
X-1285Y-62311D01*
X-1344Y-62326D01*
X-1405Y-62334D01*
X-1518Y-62368D01*
X-1838Y-62446D01*
X-2049Y-62530D01*
X-2159Y-62563D01*
X-2261Y-62605D01*
X-2261Y-53874D01*
X-2277Y-53644D01*
X-2287Y-53414D01*
X-2297Y-53360D01*
X-2301Y-53305D01*
X-2349Y-53080D01*
X-2391Y-52854D01*
X-2409Y-52802D01*
X-2420Y-52748D01*
X-2499Y-52532D01*
X-2573Y-52314D01*
X-2597Y-52265D01*
X-2616Y-52213D01*
X-2725Y-52010D01*
X-2828Y-51804D01*
X-2859Y-51759D01*
X-2885Y-51711D01*
X-3021Y-51525D01*
X-3152Y-51335D01*
X-3189Y-51295D01*
X-3221Y-51251D01*
X-3382Y-51086D01*
X-3538Y-50917D01*
X-3538Y-50916D01*
X-3581Y-50881D01*
X-3603Y-50859D01*
X-3619Y-50842D01*
X-3801Y-50701D01*
X-3979Y-50555D01*
X-4027Y-50527D01*
X-4070Y-50493D01*
X-4270Y-50379D01*
X-4467Y-50260D01*
X-4517Y-50238D01*
X-4565Y-50211D01*
X-4779Y-50126D01*
X-4990Y-50035D01*
X-5043Y-50021D01*
X-5094Y-50001D01*
X-5319Y-49946D01*
X-5540Y-49886D01*
X-5584Y-49882D01*
X-5648Y-49867D01*
X-6215Y-49811D01*
X-6281Y-49814D01*
X-6325Y-49810D01*
X-12040Y-49810D01*
X-12040Y-47414D01*
X-12057Y-47185D01*
X-12066Y-46955D01*
X-12076Y-46901D01*
X-12080Y-46846D01*
X-12128Y-46622D01*
X-12170Y-46395D01*
X-12188Y-46342D01*
X-12199Y-46289D01*
X-12278Y-46073D01*
X-12352Y-45854D01*
X-12376Y-45805D01*
X-12395Y-45754D01*
X-12504Y-45551D01*
X-12607Y-45345D01*
X-12638Y-45300D01*
X-12664Y-45251D01*
X-12800Y-45066D01*
X-12931Y-44876D01*
X-12968Y-44836D01*
X-13000Y-44791D01*
X-13161Y-44627D01*
X-13317Y-44457D01*
X-13359Y-44422D01*
X-13398Y-44383D01*
X-13580Y-44242D01*
X-13758Y-44096D01*
X-13805Y-44068D01*
X-13848Y-44034D01*
X-14048Y-43920D01*
X-14245Y-43801D01*
X-14296Y-43779D01*
X-14343Y-43752D01*
X-14558Y-43667D01*
X-14769Y-43577D01*
X-14822Y-43562D01*
X-14873Y-43542D01*
X-15097Y-43488D01*
X-15319Y-43428D01*
X-15363Y-43423D01*
X-15427Y-43408D01*
X-15994Y-43353D01*
X-16060Y-43355D01*
X-16104Y-43351D01*
X-16363Y-43351D01*
X-20111Y-41799D01*
X-22979Y-38931D01*
X-24531Y-35184D01*
X-24531Y-26302D01*
X-24547Y-26073D01*
X-24557Y-25842D01*
X-24567Y-25788D01*
X-24571Y-25734D01*
X-24619Y-25509D01*
X-24661Y-25282D01*
X-24678Y-25230D01*
X-24690Y-25176D01*
X-24769Y-24960D01*
X-24842Y-24742D01*
X-24867Y-24693D01*
X-24886Y-24641D01*
X-24994Y-24439D01*
X-25097Y-24233D01*
X-25128Y-24187D01*
X-25154Y-24139D01*
X-25290Y-23953D01*
X-25421Y-23764D01*
X-25458Y-23723D01*
X-25491Y-23679D01*
X-25651Y-23514D01*
X-25807Y-23345D01*
X-25850Y-23310D01*
X-25888Y-23271D01*
X-26070Y-23130D01*
X-26248Y-22984D01*
X-26296Y-22956D01*
X-26339Y-22922D01*
X-26539Y-22808D01*
X-26736Y-22689D01*
X-26786Y-22667D01*
X-26834Y-22640D01*
X-27048Y-22555D01*
X-27259Y-22464D01*
X-27312Y-22450D01*
X-27363Y-22430D01*
X-27588Y-22375D01*
X-27809Y-22315D01*
X-27853Y-22311D01*
X-27917Y-22295D01*
X-28484Y-22240D01*
X-28550Y-22243D01*
X-28594Y-22239D01*
X-34786Y-22239D01*
X-34846Y-22243D01*
X-34907Y-22241D01*
X-35130Y-22263D01*
X-35354Y-22279D01*
X-35414Y-22291D01*
X-35474Y-22297D01*
X-35692Y-22351D01*
X-35912Y-22398D01*
X-35968Y-22418D01*
X-36027Y-22433D01*
X-36236Y-22516D01*
X-36447Y-22594D01*
X-36500Y-22622D01*
X-36556Y-22644D01*
X-36751Y-22756D01*
X-36949Y-22862D01*
X-36998Y-22898D01*
X-37050Y-22928D01*
X-37141Y-23003D01*
X-37409Y-23199D01*
X-37570Y-23356D01*
X-37659Y-23429D01*
X-38669Y-24439D01*
X-38709Y-24484D01*
X-38753Y-24525D01*
X-38895Y-24699D01*
X-39043Y-24869D01*
X-39076Y-24920D01*
X-39114Y-24966D01*
X-39231Y-25159D01*
X-39353Y-25347D01*
X-39378Y-25402D01*
X-39409Y-25454D01*
X-39498Y-25660D01*
X-39593Y-25864D01*
X-39610Y-25922D01*
X-39634Y-25977D01*
X-39692Y-26194D01*
X-39758Y-26409D01*
X-39767Y-26469D01*
X-39783Y-26527D01*
X-39794Y-26644D01*
X-39845Y-26972D01*
X-39848Y-27197D01*
X-39859Y-27312D01*
X-39859Y-27531D01*
X-40713Y-29592D01*
X-42290Y-31169D01*
X-44351Y-32023D01*
X-46581Y-32023D01*
X-48642Y-31169D01*
X-50219Y-29592D01*
X-51073Y-27531D01*
X-51073Y-25885D01*
X-51081Y-25770D01*
X-51079Y-25654D01*
X-51101Y-25486D01*
X-51113Y-25317D01*
X-51137Y-25203D01*
X-51152Y-25089D01*
X-51196Y-24925D01*
X-51232Y-24760D01*
X-51272Y-24651D01*
X-51302Y-24539D01*
X-51369Y-24384D01*
X-51428Y-24225D01*
X-51482Y-24122D01*
X-51528Y-24016D01*
X-51617Y-23871D01*
X-51696Y-23722D01*
X-51765Y-23629D01*
X-51825Y-23530D01*
X-51933Y-23399D01*
X-52033Y-23262D01*
X-52114Y-23179D01*
X-52187Y-23090D01*
X-52312Y-22976D01*
X-52430Y-22854D01*
X-52522Y-22783D01*
X-52607Y-22705D01*
X-52747Y-22609D01*
X-52881Y-22505D01*
X-52981Y-22448D01*
X-53077Y-22382D01*
X-53229Y-22307D01*
X-53376Y-22223D01*
X-53484Y-22180D01*
X-53587Y-22129D01*
X-53748Y-22076D01*
X-53905Y-22013D01*
X-54018Y-21986D01*
X-54128Y-21949D01*
X-54295Y-21919D01*
X-54459Y-21879D01*
X-54575Y-21868D01*
X-54689Y-21847D01*
X-54858Y-21840D01*
X-55026Y-21824D01*
X-55142Y-21829D01*
X-55258Y-21824D01*
X-55426Y-21841D01*
X-55596Y-21848D01*
X-55710Y-21869D01*
X-55825Y-21881D01*
X-55989Y-21921D01*
X-56156Y-21952D01*
X-56266Y-21989D01*
X-56378Y-22017D01*
X-56535Y-22080D01*
X-56696Y-22134D01*
X-56800Y-22185D01*
X-56907Y-22229D01*
X-57014Y-22290D01*
X-59540Y-23336D01*
X-61771Y-23336D01*
X-63831Y-22483D01*
X-65409Y-20905D01*
X-66262Y-18845D01*
X-66262Y-17949D01*
X-66271Y-17831D01*
X-66269Y-17713D01*
X-66290Y-17548D01*
X-66302Y-17381D01*
X-66327Y-17265D01*
X-66342Y-17148D01*
X-66375Y-17039D01*
X-66421Y-16823D01*
X-66538Y-16506D01*
X-66572Y-16394D01*
X-68160Y-12559D01*
X-68161Y-12557D01*
X-68162Y-12554D01*
X-68289Y-12301D01*
X-68414Y-12049D01*
X-68416Y-12047D01*
X-68417Y-12045D01*
X-68578Y-11811D01*
X-68738Y-11580D01*
X-68740Y-11578D01*
X-68741Y-11576D01*
X-68931Y-11369D01*
X-69123Y-11161D01*
X-69125Y-11159D01*
X-69127Y-11157D01*
X-69349Y-10975D01*
X-69564Y-10799D01*
X-69566Y-10798D01*
X-69568Y-10796D01*
X-69805Y-10653D01*
X-70051Y-10503D01*
X-70053Y-10502D01*
X-70056Y-10501D01*
X-70305Y-10394D01*
X-70574Y-10278D01*
X-70577Y-10277D01*
X-70579Y-10276D01*
X-70853Y-10202D01*
X-71124Y-10128D01*
X-71127Y-10128D01*
X-71129Y-10127D01*
X-71143Y-10126D01*
X-71689Y-10057D01*
X-71829Y-10059D01*
X-71914Y-10051D01*
X-77948Y-10051D01*
X-78702Y-9739D01*
X-79279Y-9162D01*
X-79591Y-8408D01*
X-79591Y-4548D01*
X-79569Y-4478D01*
X-79498Y-4265D01*
X-79487Y-4205D01*
X-79470Y-4147D01*
X-79436Y-3925D01*
X-79395Y-3704D01*
X-79393Y-3644D01*
X-79383Y-3584D01*
X-79381Y-3359D01*
X-79371Y-3135D01*
X-79377Y-3075D01*
X-79376Y-3014D01*
X-79405Y-2792D01*
X-79427Y-2568D01*
X-79442Y-2509D01*
X-79449Y-2449D01*
X-79484Y-2337D01*
X-79562Y-2014D01*
X-79591Y-1942D01*
X-79591Y2503D01*
X-79599Y2621D01*
X-79598Y2739D01*
X-79600Y2760D01*
X-79593Y2762D01*
X-79560Y2779D01*
X-79526Y2791D01*
X-79306Y2909D01*
X-79086Y3022D01*
X-79062Y3040D01*
X-79024Y3060D01*
X-78564Y3397D01*
X-78563Y3397D01*
X-78500Y3458D01*
X-78453Y3493D01*
X-78453Y3494D01*
X-78307Y3647D01*
X-78155Y3794D01*
X-78110Y3852D01*
X-78059Y3905D01*
X-77936Y4078D01*
X-77806Y4245D01*
X-77770Y4309D01*
X-77727Y4368D01*
X-77629Y4556D01*
X-77573Y4654D01*
X-77534Y4622D01*
X-77496Y4583D01*
X-77314Y4442D01*
X-77136Y4296D01*
X-77089Y4268D01*
X-77045Y4234D01*
X-76845Y4120D01*
X-76649Y4001D01*
X-76598Y3979D01*
X-76550Y3952D01*
X-76336Y3867D01*
X-76125Y3776D01*
X-76072Y3762D01*
X-76021Y3742D01*
X-75796Y3687D01*
X-75575Y3627D01*
X-75531Y3623D01*
X-75467Y3607D01*
X-74900Y3552D01*
X-74834Y3555D01*
X-74790Y3551D01*
X-74560Y3567D01*
X-74330Y3577D01*
X-74276Y3587D01*
X-74221Y3591D01*
X-73996Y3639D01*
X-73770Y3681D01*
X-73718Y3698D01*
X-73664Y3710D01*
X-73448Y3789D01*
X-73230Y3862D01*
X-73181Y3887D01*
X-73129Y3906D01*
X-72926Y4014D01*
X-72720Y4117D01*
X-72675Y4148D01*
X-72627Y4174D01*
X-72441Y4310D01*
X-72252Y4441D01*
X-72211Y4478D01*
X-72167Y4511D01*
X-72002Y4671D01*
X-71833Y4827D01*
X-71798Y4870D01*
X-71759Y4908D01*
X-71618Y5090D01*
X-71472Y5268D01*
X-71443Y5316D01*
X-71410Y5359D01*
X-71296Y5559D01*
X-71176Y5756D01*
X-71155Y5806D01*
X-71128Y5854D01*
X-71042Y6068D01*
X-70952Y6279D01*
X-70938Y6332D01*
X-70917Y6383D01*
X-70863Y6608D01*
X-70803Y6829D01*
X-70799Y6873D01*
X-70783Y6937D01*
X-70728Y7504D01*
X-70731Y7570D01*
X-70727Y7614D01*
X-70727Y10952D01*
X-70629Y11004D01*
X-70423Y11107D01*
X-70378Y11138D01*
X-70329Y11164D01*
X-70144Y11300D01*
X-69954Y11431D01*
X-69914Y11468D01*
X-69869Y11501D01*
X-69705Y11661D01*
X-69535Y11817D01*
X-69500Y11860D01*
X-69461Y11898D01*
X-69320Y12080D01*
X-69174Y12258D01*
X-69146Y12306D01*
X-69112Y12349D01*
X-68998Y12549D01*
X-68879Y12746D01*
X-68857Y12796D01*
X-68830Y12844D01*
X-68745Y13058D01*
X-68655Y13269D01*
X-68640Y13322D01*
X-68620Y13373D01*
X-68566Y13598D01*
X-68506Y13819D01*
X-68501Y13863D01*
X-68486Y13927D01*
X-68431Y14494D01*
X-68432Y14535D01*
X-68431Y14553D01*
X-68432Y14578D01*
X-68429Y14604D01*
X-68429Y16271D01*
X-68433Y16331D01*
X-68431Y16391D01*
X-68453Y16615D01*
X-68469Y16839D01*
X-68482Y16898D01*
X-68488Y16958D01*
X-68541Y17177D01*
X-68588Y17396D01*
X-68609Y17453D01*
X-68623Y17512D01*
X-68707Y17721D01*
X-68784Y17932D01*
X-68812Y17985D01*
X-68835Y18041D01*
X-68947Y18236D01*
X-69053Y18434D01*
X-69088Y18483D01*
X-69118Y18535D01*
X-69193Y18626D01*
X-69389Y18894D01*
X-69546Y19055D01*
X-69619Y19144D01*
X-70459Y19984D01*
X-71347Y22128D01*
X-71347Y24449D01*
X-70459Y26592D01*
X-68819Y28233D01*
X-66675Y29121D01*
X-65296Y29121D01*
X-65067Y29137D01*
X-64836Y29147D01*
X-64782Y29157D01*
X-64728Y29161D01*
X-64502Y29209D01*
X-64276Y29251D01*
X-64224Y29269D01*
X-64170Y29280D01*
X-63954Y29359D01*
X-63736Y29432D01*
X-63687Y29457D01*
X-63635Y29476D01*
X-63432Y29585D01*
X-63227Y29688D01*
X-63181Y29719D01*
X-63133Y29745D01*
X-62947Y29880D01*
X-62758Y30011D01*
X-62717Y30049D01*
X-62673Y30081D01*
X-62508Y30241D01*
X-62339Y30398D01*
X-62304Y30440D01*
X-62265Y30478D01*
X-62124Y30660D01*
X-61978Y30839D01*
X-61950Y30886D01*
X-61916Y30929D01*
X-61802Y31129D01*
X-61683Y31326D01*
X-61661Y31376D01*
X-61634Y31424D01*
X-61549Y31639D01*
X-61458Y31850D01*
X-61444Y31902D01*
X-61424Y31954D01*
X-61369Y32178D01*
X-61309Y32400D01*
X-61305Y32444D01*
X-61289Y32508D01*
X-61238Y33039D01*
X-60379Y35112D01*
X-58802Y36689D01*
X-56741Y37543D01*
X-54511Y37543D01*
X-52450Y36689D01*
X-51954Y36193D01*
X-51908Y36153D01*
X-51867Y36109D01*
X-51693Y35966D01*
X-51524Y35819D01*
X-51473Y35786D01*
X-51426Y35748D01*
X-51234Y35631D01*
X-51045Y35509D01*
X-50991Y35484D01*
X-50939Y35453D01*
X-50732Y35364D01*
X-50529Y35269D01*
X-50471Y35252D01*
X-50415Y35228D01*
X-50199Y35169D01*
X-49983Y35104D01*
X-49923Y35095D01*
X-49865Y35079D01*
X-49748Y35068D01*
X-49420Y35017D01*
X-49195Y35014D01*
X-49081Y35003D01*
X-30976Y35003D01*
X-25016Y33406D01*
X-24448Y33078D01*
X-24310Y33010D01*
X-24176Y32934D01*
X-24054Y32885D01*
X-23935Y32828D01*
X-23790Y32781D01*
X-23647Y32724D01*
X-23518Y32693D01*
X-23393Y32652D01*
X-23242Y32626D01*
X-23093Y32590D01*
X-22962Y32577D01*
X-22832Y32554D01*
X-22679Y32550D01*
X-22526Y32535D01*
X-22394Y32540D01*
X-22263Y32536D01*
X-22110Y32553D01*
X-21956Y32559D01*
X-21827Y32583D01*
X-21696Y32597D01*
X-21547Y32635D01*
X-21396Y32663D01*
X-21271Y32705D01*
X-21144Y32737D01*
X-21002Y32796D01*
X-20856Y32845D01*
X-20738Y32904D01*
X-20616Y32953D01*
X-20484Y33031D01*
X-20347Y33100D01*
X-20238Y33175D01*
X-20125Y33241D01*
X-20004Y33336D01*
X-19878Y33423D01*
X-19781Y33513D01*
X-19678Y33594D01*
X-19572Y33706D01*
X-19459Y33810D01*
X-19375Y33912D01*
X-19285Y34007D01*
X-19195Y34132D01*
X-19098Y34251D01*
X-19030Y34363D01*
X-18953Y34470D01*
X-18882Y34607D01*
X-18803Y34738D01*
X-18751Y34859D01*
X-18690Y34976D01*
X-18639Y35121D01*
X-18578Y35262D01*
X-18544Y35389D01*
X-18500Y35513D01*
X-18469Y35664D01*
X-18429Y35812D01*
X-18420Y35908D01*
X-18387Y36071D01*
X-18360Y36521D01*
X-18353Y36596D01*
X-18353Y42304D01*
X-18255Y42795D01*
X-18064Y43257D01*
X-17785Y43674D01*
X-17432Y44027D01*
X-17015Y44306D01*
X-16553Y44497D01*
X-16062Y44595D01*
X-12375Y44595D01*
X-12375Y35554D01*
X-12359Y35325D01*
X-12349Y35095D01*
X-12339Y35041D01*
X-12335Y34986D01*
X-12287Y34761D01*
X-12245Y34535D01*
X-12228Y34482D01*
X-12216Y34429D01*
X-12137Y34213D01*
X-12064Y33994D01*
X-12039Y33945D01*
X-12021Y33894D01*
X-11912Y33691D01*
X-11809Y33485D01*
X-11778Y33440D01*
X-11752Y33391D01*
X-11616Y33206D01*
X-11485Y33016D01*
X-11448Y32976D01*
X-11415Y32931D01*
X-11255Y32766D01*
X-11099Y32597D01*
X-11098Y32597D01*
X-11056Y32562D01*
X-11017Y32523D01*
X-10836Y32382D01*
X-10657Y32236D01*
X-10610Y32207D01*
X-10567Y32174D01*
X-10367Y32060D01*
X-10170Y31940D01*
X-10120Y31919D01*
X-10072Y31892D01*
X-9857Y31806D01*
X-9646Y31716D01*
X-9594Y31702D01*
X-9542Y31681D01*
X-9318Y31627D01*
X-9096Y31567D01*
X-9052Y31563D01*
X-8988Y31547D01*
X-8421Y31492D01*
X-8356Y31495D01*
X-8312Y31491D01*
X1729Y31491D01*
X1729Y28804D01*
X1631Y28313D01*
X1440Y27851D01*
X1400Y27791D01*
X1314Y27640D01*
X1219Y27494D01*
X1173Y27393D01*
X1118Y27297D01*
X1053Y27135D01*
X980Y26977D01*
X948Y26870D01*
X907Y26767D01*
X866Y26598D01*
X816Y26431D01*
X799Y26322D01*
X772Y26213D01*
X755Y26040D01*
X729Y25868D01*
X728Y25757D01*
X717Y25646D01*
X724Y25472D01*
X722Y25298D01*
X736Y25188D01*
X741Y25077D01*
X773Y24906D01*
X795Y24733D01*
X820Y24652D01*
X845Y24517D01*
X1023Y23986D01*
X1025Y23979D01*
X1420Y23025D01*
X1531Y22801D01*
X1638Y22577D01*
X1658Y22547D01*
X1674Y22515D01*
X1816Y22310D01*
X1953Y22102D01*
X1977Y22075D01*
X1997Y22046D01*
X2166Y21863D01*
X2332Y21676D01*
X2359Y21653D01*
X2383Y21627D01*
X2576Y21468D01*
X2766Y21307D01*
X2796Y21288D01*
X2824Y21265D01*
X3036Y21136D01*
X3247Y21002D01*
X3280Y20988D01*
X3310Y20969D01*
X3539Y20871D01*
X3767Y20768D01*
X3801Y20758D01*
X3834Y20744D01*
X4074Y20679D01*
X4314Y20609D01*
X4349Y20604D01*
X4384Y20594D01*
X4630Y20563D01*
X4878Y20528D01*
X4913Y20527D01*
X4949Y20523D01*
X5199Y20527D01*
X5448Y20526D01*
X5476Y20531D01*
X5519Y20531D01*
X6082Y20619D01*
X6167Y20646D01*
X6225Y20655D01*
X10064Y21684D01*
X10193Y21728D01*
X10326Y21764D01*
X10422Y21807D01*
X10603Y21869D01*
X10952Y22048D01*
X11044Y22090D01*
X16760Y25390D01*
X16873Y25466D01*
X16992Y25535D01*
X17074Y25602D01*
X17232Y25709D01*
X17523Y25971D01*
X17601Y26036D01*
X22268Y30703D01*
X22358Y30806D01*
X22456Y30903D01*
X22517Y30989D01*
X22642Y31133D01*
X22855Y31461D01*
X22914Y31544D01*
X26214Y37260D01*
X26274Y37383D01*
X26343Y37502D01*
X26380Y37601D01*
X26464Y37772D01*
X26585Y38145D01*
X26620Y38240D01*
X27555Y41730D01*
X27603Y41975D01*
X27655Y42220D01*
X27657Y42255D01*
X27664Y42290D01*
X27677Y42537D01*
X27694Y42789D01*
X27691Y42824D01*
X27693Y42859D01*
X27671Y43108D01*
X27653Y43357D01*
X27646Y43391D01*
X27642Y43426D01*
X27586Y43668D01*
X27533Y43914D01*
X27521Y43947D01*
X27513Y43981D01*
X27423Y44214D01*
X27336Y44449D01*
X27320Y44479D01*
X27307Y44512D01*
X27185Y44731D01*
X27067Y44951D01*
X27046Y44979D01*
X27029Y45010D01*
X26878Y45208D01*
X26730Y45410D01*
X26705Y45435D01*
X26684Y45463D01*
X26506Y45639D01*
X26331Y45818D01*
X26313Y45832D01*
X25331Y46813D01*
X25019Y47567D01*
X25019Y63383D01*
X25331Y64137D01*
X25908Y64714D01*
X26662Y65026D01*
X40478Y65026D01*
X41515Y64596D01*
X41572Y64577D01*
X41627Y64552D01*
X41842Y64487D01*
X42055Y64416D01*
X42115Y64405D01*
X42173Y64387D01*
X42395Y64353D01*
X42616Y64312D01*
X42676Y64310D01*
X42736Y64301D01*
X42961Y64298D01*
X43185Y64288D01*
X43245Y64294D01*
X43306Y64294D01*
X43528Y64322D01*
X43752Y64344D01*
X43811Y64359D01*
X43871Y64367D01*
X43983Y64401D01*
X44306Y64479D01*
X44515Y64563D01*
X44625Y64596D01*
X45662Y65026D01*
X49857Y65026D01*
X50005Y65036D01*
X50155Y65037D01*
X50289Y65056D01*
X50425Y65066D01*
X50571Y65097D01*
X50718Y65118D01*
X50849Y65156D01*
X50982Y65185D01*
X51122Y65236D01*
X51265Y65278D01*
X51389Y65334D01*
X51517Y65381D01*
X51649Y65451D01*
X51785Y65512D01*
X51900Y65585D01*
X52020Y65649D01*
X52140Y65737D01*
X52266Y65817D01*
X52370Y65905D01*
X52480Y65986D01*
X52586Y66090D01*
X52700Y66187D01*
X52790Y66288D01*
X52888Y66383D01*
X52979Y66501D01*
X53078Y66613D01*
X53153Y66726D01*
X53237Y66834D01*
X53310Y66963D01*
X53393Y67088D01*
X53451Y67211D01*
X53519Y67329D01*
X53574Y67468D01*
X53638Y67602D01*
X53679Y67732D01*
X53729Y67858D01*
X53764Y68004D01*
X53809Y68146D01*
X53831Y68280D01*
X53863Y68412D01*
X53878Y68561D01*
X53902Y68708D01*
X53905Y68844D01*
X53918Y68979D01*
X53912Y69128D01*
X53915Y69277D01*
X53900Y69412D01*
X53894Y69549D01*
X53866Y69695D01*
X53849Y69843D01*
X53815Y69975D01*
X53790Y70109D01*
X53742Y70250D01*
X53704Y70395D01*
X53652Y70520D01*
X53608Y70649D01*
X53542Y70782D01*
X53484Y70920D01*
X53414Y71037D01*
X53353Y71158D01*
X53268Y71281D01*
X53192Y71409D01*
X53107Y71515D01*
X53029Y71627D01*
X52928Y71737D01*
X52835Y71853D01*
X52760Y71919D01*
X52643Y72046D01*
X52307Y72321D01*
X52245Y72376D01*
X47405Y75893D01*
X43031Y81912D01*
X42340Y84042D01*
X42279Y84192D01*
X42227Y84346D01*
X42172Y84456D01*
X42126Y84570D01*
X42045Y84710D01*
X41972Y84855D01*
X41902Y84957D01*
X41840Y85063D01*
X41740Y85191D01*
X41648Y85324D01*
X41565Y85415D01*
X41489Y85511D01*
X41372Y85624D01*
X41262Y85743D01*
X41167Y85821D01*
X41078Y85906D01*
X40947Y86001D01*
X40821Y86104D01*
X40716Y86168D01*
X40616Y86240D01*
X40472Y86315D01*
X40334Y86399D01*
X40221Y86448D01*
X40112Y86505D01*
X39959Y86560D01*
X39810Y86624D01*
X39691Y86656D01*
X39575Y86697D01*
X39416Y86730D01*
X39260Y86773D01*
X39168Y86782D01*
X39017Y86813D01*
X38528Y86844D01*
X38475Y86849D01*
X-63556Y86849D01*
X-63724Y86837D01*
X-63822Y86841D01*
X-66800Y86645D01*
X-66804Y86645D01*
X-66808Y86645D01*
X-66827Y86642D01*
X-67365Y86568D01*
X-67501Y86530D01*
X-67586Y86516D01*
X-73340Y84974D01*
X-73470Y84929D01*
X-73602Y84894D01*
X-73699Y84850D01*
X-73879Y84788D01*
X-74227Y84610D01*
X-74320Y84568D01*
X-77476Y82746D01*
X-77522Y82714D01*
X-77572Y82689D01*
X-77759Y82555D01*
X-77948Y82427D01*
X-77990Y82390D01*
X-78035Y82357D01*
X-78202Y82198D01*
X-78371Y82045D01*
X-78407Y82002D01*
X-78448Y81964D01*
X-78590Y81784D01*
X-78737Y81608D01*
X-78766Y81561D01*
X-78801Y81517D01*
X-78917Y81319D01*
X-79038Y81124D01*
X-79060Y81073D01*
X-79088Y81025D01*
X-79175Y80812D01*
X-79268Y80603D01*
X-79283Y80549D01*
X-79304Y80497D01*
X-79360Y80275D01*
X-79423Y80055D01*
X-79430Y79999D01*
X-79444Y79945D01*
X-79468Y79717D01*
X-79499Y79490D01*
X-79499Y79434D01*
X-79505Y79378D01*
X-79498Y79263D01*
X-79497Y79086D01*
X-79711Y78195D01*
X-83099Y73531D01*
X-83172Y73414D01*
X-83254Y73302D01*
X-83323Y73172D01*
X-83401Y73048D01*
X-83457Y72921D01*
X-83522Y72799D01*
X-83572Y72661D01*
X-83632Y72527D01*
X-83670Y72394D01*
X-83717Y72264D01*
X-83748Y72120D01*
X-83788Y71979D01*
X-83807Y71842D01*
X-83836Y71706D01*
X-83846Y71560D01*
X-83866Y71415D01*
X-83865Y71276D01*
X-83875Y71138D01*
X-83864Y70992D01*
X-83864Y70845D01*
X-83844Y70708D01*
X-83834Y70569D01*
X-83803Y70426D01*
X-83782Y70281D01*
X-83744Y70148D01*
X-83714Y70012D01*
X-83664Y69875D01*
X-83623Y69734D01*
X-83566Y69608D01*
X-83518Y69478D01*
X-83448Y69348D01*
X-83388Y69215D01*
X-83314Y69098D01*
X-83248Y68975D01*
X-83162Y68857D01*
X-83083Y68734D01*
X-82993Y68628D01*
X-82911Y68516D01*
X-82809Y68411D01*
X-82714Y68300D01*
X-82610Y68208D01*
X-82513Y68108D01*
X-82397Y68019D01*
X-82288Y67922D01*
X-82172Y67845D01*
X-82062Y67760D01*
X-81970Y67711D01*
X-81813Y67607D01*
X-81454Y67436D01*
X-81367Y67389D01*
X-79525Y66626D01*
X-77392Y64493D01*
X-76237Y61706D01*
X-76237Y58690D01*
X-77650Y55279D01*
X-77687Y55167D01*
X-77734Y55059D01*
X-77778Y54898D01*
X-77831Y54739D01*
X-77852Y54623D01*
X-77883Y54509D01*
X-77894Y54395D01*
X-77934Y54178D01*
X-77948Y53840D01*
X-77959Y53724D01*
X-77959Y53444D01*
X-78851Y51290D01*
X-87691Y42451D01*
X-87731Y42405D01*
X-87775Y42364D01*
X-87917Y42190D01*
X-88065Y42020D01*
X-88098Y41970D01*
X-88136Y41923D01*
X-88253Y41731D01*
X-88375Y41542D01*
X-88400Y41487D01*
X-88431Y41436D01*
X-88520Y41229D01*
X-88615Y41025D01*
X-88632Y40967D01*
X-88656Y40912D01*
X-88714Y40695D01*
X-88780Y40480D01*
X-88789Y40420D01*
X-88805Y40362D01*
X-88816Y40245D01*
X-88867Y39917D01*
X-88870Y39692D01*
X-88881Y39577D01*
X-88881Y-42400D01*
X-91124Y-50772D01*
X-93573Y-55013D01*
X-93676Y-55224D01*
X-93784Y-55433D01*
X-93801Y-55480D01*
X-93823Y-55526D01*
X-93895Y-55749D01*
X-93973Y-55970D01*
X-93983Y-56019D01*
X-93998Y-56068D01*
X-94039Y-56299D01*
X-94085Y-56529D01*
X-94088Y-56579D01*
X-94096Y-56629D01*
X-94104Y-56864D01*
X-94117Y-57098D01*
X-94113Y-57148D01*
X-94115Y-57199D01*
X-94090Y-57432D01*
X-94070Y-57665D01*
X-94059Y-57715D01*
X-94053Y-57765D01*
X-93996Y-57993D01*
X-93944Y-58221D01*
X-93926Y-58268D01*
X-93913Y-58317D01*
X-93825Y-58534D01*
X-93741Y-58754D01*
X-93720Y-58789D01*
X-93698Y-58845D01*
X-93410Y-59337D01*
X-93366Y-59392D01*
X-93342Y-59433D01*
X-90879Y-62823D01*
X-90748Y-63367D01*
X-90696Y-63534D01*
X-90652Y-63702D01*
X-90610Y-63805D01*
X-90577Y-63911D01*
X-90501Y-64068D01*
X-90435Y-64229D01*
X-90379Y-64325D01*
X-90331Y-64425D01*
X-90234Y-64570D01*
X-90146Y-64720D01*
X-90077Y-64807D01*
X-90016Y-64899D01*
X-89900Y-65030D01*
X-89791Y-65166D01*
X-89711Y-65242D01*
X-89637Y-65325D01*
X-89504Y-65438D01*
X-89378Y-65558D01*
X-89287Y-65622D01*
X-89202Y-65694D01*
X-89055Y-65787D01*
X-88913Y-65888D01*
X-88837Y-65925D01*
X-88721Y-65998D01*
X-88209Y-66228D01*
X-88203Y-66231D01*
X-88137Y-66256D01*
X-87710Y-66517D01*
X-87343Y-66857D01*
X-85763Y-69031D01*
X-93886Y-74932D01*
X-93887Y-74932D01*
X-102027Y-80847D01*
X-102160Y-80685D01*
X-102175Y-80671D01*
X-102189Y-80655D01*
X-102385Y-80479D01*
X-102580Y-80300D01*
X-102597Y-80288D01*
X-102613Y-80274D01*
X-102832Y-80127D01*
X-103050Y-79977D01*
X-103068Y-79968D01*
X-103086Y-79956D01*
X-103324Y-79841D01*
X-103560Y-79724D01*
X-103580Y-79717D01*
X-103599Y-79708D01*
X-103850Y-79627D01*
X-104101Y-79544D01*
X-104121Y-79540D01*
X-104141Y-79534D01*
X-104400Y-79489D01*
X-104661Y-79441D01*
X-104682Y-79440D01*
X-104702Y-79437D01*
X-104965Y-79429D01*
X-105230Y-79418D01*
X-105251Y-79420D01*
X-105272Y-79420D01*
X-105534Y-79449D01*
X-105797Y-79475D01*
X-105817Y-79480D01*
X-105838Y-79482D01*
X-106095Y-79548D01*
X-106351Y-79611D01*
X-106370Y-79618D01*
X-106390Y-79624D01*
X-106634Y-79724D01*
X-106880Y-79822D01*
X-106898Y-79833D01*
X-106917Y-79841D01*
X-107144Y-79974D01*
X-107374Y-80106D01*
X-107387Y-80117D01*
X-107408Y-80129D01*
X-107855Y-80484D01*
X-107929Y-80562D01*
X-107983Y-80607D01*
X-109497Y-82120D01*
X-109984Y-82322D01*
X-110191Y-82425D01*
X-110401Y-82523D01*
X-110446Y-82553D01*
X-110494Y-82577D01*
X-110685Y-82708D01*
X-110879Y-82834D01*
X-110919Y-82869D01*
X-110963Y-82900D01*
X-111133Y-83056D01*
X-111308Y-83209D01*
X-111336Y-83242D01*
X-111382Y-83285D01*
X-111744Y-83726D01*
X-111779Y-83783D01*
X-111807Y-83819D01*
X-112843Y-85369D01*
X-112845Y-85372D01*
X-112848Y-85375D01*
X-112857Y-85392D01*
X-113126Y-85863D01*
X-113178Y-85995D01*
X-113219Y-86071D01*
X-116395Y-93740D01*
X-116402Y-93762D01*
X-116413Y-93783D01*
X-116493Y-94032D01*
X-116576Y-94280D01*
X-116580Y-94303D01*
X-116587Y-94326D01*
X-116631Y-94583D01*
X-116679Y-94840D01*
X-116680Y-94864D01*
X-116684Y-94887D01*
X-116692Y-95148D01*
X-116703Y-95410D01*
X-116700Y-95433D01*
X-116701Y-95457D01*
X-116672Y-95716D01*
X-116647Y-95977D01*
X-116641Y-96000D01*
X-116638Y-96023D01*
X-116574Y-96277D01*
X-116512Y-96530D01*
X-116503Y-96552D01*
X-116497Y-96575D01*
X-116398Y-96816D01*
X-116301Y-97060D01*
X-116289Y-97080D01*
X-116280Y-97102D01*
X-116148Y-97327D01*
X-116018Y-97554D01*
X-116004Y-97573D01*
X-115992Y-97593D01*
X-115828Y-97799D01*
X-115669Y-98004D01*
X-115652Y-98021D01*
X-115637Y-98039D01*
X-115448Y-98219D01*
X-115260Y-98401D01*
X-115241Y-98415D01*
X-115224Y-98431D01*
X-115011Y-98583D01*
X-114800Y-98737D01*
X-114779Y-98748D01*
X-114759Y-98762D01*
X-114528Y-98882D01*
X-114297Y-99005D01*
X-114275Y-99013D01*
X-114254Y-99024D01*
X-114007Y-99111D01*
X-113761Y-99200D01*
X-113738Y-99205D01*
X-113716Y-99213D01*
X-113460Y-99264D01*
X-113204Y-99319D01*
X-113180Y-99320D01*
X-113157Y-99325D01*
X-112897Y-99340D01*
X-112636Y-99358D01*
X-112612Y-99356D01*
X-112589Y-99357D01*
X-112329Y-99336D01*
X-112067Y-99317D01*
X-112044Y-99312D01*
X-112021Y-99310D01*
X-111765Y-99252D01*
X-111510Y-99197D01*
X-111488Y-99189D01*
X-111465Y-99184D01*
X-111220Y-99091D01*
X-110975Y-99001D01*
X-110955Y-98990D01*
X-110933Y-98981D01*
X-110865Y-98941D01*
X-110473Y-98731D01*
X-110337Y-98632D01*
X-110253Y-98582D01*
X-103337Y-93557D01*
X-102543Y-93366D01*
X-101340Y-93557D01*
X-101225Y-93567D01*
X-101111Y-93587D01*
X-100941Y-93592D01*
X-100772Y-93607D01*
X-100657Y-93600D01*
X-100542Y-93604D01*
X-100373Y-93585D01*
X-100203Y-93576D01*
X-100090Y-93554D01*
X-99975Y-93541D01*
X-99861Y-93512D01*
X-99885Y-93631D01*
X-99888Y-93687D01*
X-99898Y-93743D01*
X-99904Y-93971D01*
X-99918Y-94200D01*
X-99913Y-94256D01*
X-99915Y-94312D01*
X-99889Y-94540D01*
X-99870Y-94768D01*
X-99858Y-94822D01*
X-99852Y-94878D01*
X-99795Y-95100D01*
X-99744Y-95323D01*
X-99724Y-95376D01*
X-99710Y-95430D01*
X-99623Y-95642D01*
X-99541Y-95856D01*
X-99518Y-95895D01*
X-99493Y-95957D01*
X-99204Y-96448D01*
X-99164Y-96498D01*
X-99142Y-96536D01*
X-91746Y-106716D01*
X-91555Y-107509D01*
X-91690Y-108360D01*
X-91717Y-108415D01*
X-91826Y-108624D01*
X-91842Y-108671D01*
X-91864Y-108715D01*
X-91937Y-108939D01*
X-92015Y-109161D01*
X-92025Y-109210D01*
X-92040Y-109257D01*
X-92081Y-109489D01*
X-92128Y-109720D01*
X-92131Y-109769D01*
X-92139Y-109818D01*
X-92147Y-110054D01*
X-92161Y-110289D01*
X-92157Y-110338D01*
X-92159Y-110388D01*
X-92134Y-110622D01*
X-92115Y-110856D01*
X-92104Y-110905D01*
X-92098Y-110954D01*
X-92041Y-111182D01*
X-91989Y-111412D01*
X-91972Y-111459D01*
X-91959Y-111507D01*
X-91871Y-111725D01*
X-91787Y-111945D01*
X-91763Y-111989D01*
X-91744Y-112035D01*
X-91686Y-112130D01*
X-91513Y-112444D01*
X-91388Y-112611D01*
X-91330Y-112705D01*
X-71903Y-138188D01*
X-71043Y-139316D01*
X-70973Y-139396D01*
X-70934Y-139453D01*
X-65973Y-145409D01*
X-65662Y-145733D01*
X-65612Y-145790D01*
X-54248Y-156315D01*
X-53803Y-156672D01*
X-53736Y-156712D01*
X-53695Y-156745D01*
X-40694Y-165164D01*
X-40196Y-165440D01*
X-40123Y-165468D01*
X-40077Y-165493D01*
X-25824Y-171558D01*
X-25286Y-171744D01*
X-25209Y-171759D01*
X-25159Y-171775D01*
X-10078Y-175306D01*
X-9515Y-175397D01*
X-9437Y-175398D01*
X-9386Y-175406D01*
X-7505Y-175515D01*
X-7500Y-175515D01*
X-7495Y-175515D01*
X-7208Y-175511D01*
G37*
G36*
X-90451Y89150D02*
X-90451Y89150D01*
X-90363Y89150D01*
X-90168Y89179D01*
X-89973Y89198D01*
X-89887Y89219D01*
X-89799Y89232D01*
X-89610Y89287D01*
X-89419Y89334D01*
X-89337Y89367D01*
X-89252Y89392D01*
X-89073Y89472D01*
X-88890Y89545D01*
X-88813Y89590D01*
X-88732Y89626D01*
X-88567Y89731D01*
X-88396Y89829D01*
X-88342Y89873D01*
X-88251Y89931D01*
X-87817Y90300D01*
X-87801Y90319D01*
X-87787Y90330D01*
X-87259Y90858D01*
X-78456Y95940D01*
X-68638Y98571D01*
X26812Y98571D01*
X27029Y98586D01*
X27246Y98594D01*
X27313Y98606D01*
X27381Y98611D01*
X27593Y98656D01*
X27807Y98694D01*
X27871Y98716D01*
X27938Y98730D01*
X28142Y98804D01*
X28348Y98872D01*
X28409Y98902D01*
X28473Y98926D01*
X28665Y99028D01*
X28859Y99124D01*
X28915Y99162D01*
X28976Y99194D01*
X29151Y99322D01*
X29330Y99445D01*
X29381Y99491D01*
X29435Y99531D01*
X29591Y99682D01*
X29751Y99828D01*
X29795Y99881D01*
X29844Y99928D01*
X29977Y100100D01*
X30115Y100267D01*
X30151Y100325D01*
X30192Y100379D01*
X30300Y100567D01*
X30414Y100752D01*
X30441Y100815D01*
X30475Y100874D01*
X30555Y101076D01*
X30642Y101275D01*
X30660Y101340D01*
X30685Y101403D01*
X30736Y101615D01*
X30794Y101824D01*
X30803Y101891D01*
X30819Y101957D01*
X30840Y102174D01*
X30868Y102388D01*
X30868Y102456D01*
X30874Y102524D01*
X30865Y102742D01*
X30863Y102958D01*
X30853Y103025D01*
X30850Y103094D01*
X30810Y103307D01*
X30778Y103522D01*
X30758Y103587D01*
X30746Y103654D01*
X30677Y103859D01*
X30614Y104068D01*
X30586Y104129D01*
X30564Y104194D01*
X30467Y104388D01*
X30376Y104585D01*
X30340Y104642D01*
X30309Y104703D01*
X30186Y104882D01*
X30068Y105065D01*
X30024Y105116D01*
X29985Y105172D01*
X29838Y105332D01*
X29696Y105496D01*
X29645Y105541D01*
X29599Y105591D01*
X29431Y105729D01*
X29268Y105872D01*
X29211Y105909D01*
X29158Y105952D01*
X28972Y106065D01*
X28791Y106183D01*
X28785Y106186D01*
X31911Y115807D01*
X31912Y115807D01*
X35014Y125356D01*
X35250Y125280D01*
X35504Y125216D01*
X35759Y125150D01*
X35781Y125147D01*
X35803Y125142D01*
X36065Y125115D01*
X36325Y125085D01*
X36347Y125085D01*
X36370Y125083D01*
X36632Y125093D01*
X36895Y125099D01*
X36917Y125103D01*
X36939Y125104D01*
X37198Y125150D01*
X37456Y125194D01*
X37478Y125200D01*
X37500Y125204D01*
X37749Y125286D01*
X38000Y125365D01*
X38020Y125375D01*
X38041Y125382D01*
X38277Y125498D01*
X38514Y125612D01*
X38532Y125624D01*
X38552Y125634D01*
X38770Y125782D01*
X38988Y125927D01*
X39005Y125942D01*
X39023Y125955D01*
X39217Y126131D01*
X39414Y126306D01*
X39428Y126323D01*
X39445Y126338D01*
X39612Y126540D01*
X39782Y126741D01*
X39794Y126760D01*
X39808Y126777D01*
X39946Y127001D01*
X40086Y127223D01*
X40095Y127243D01*
X40107Y127262D01*
X40212Y127503D01*
X40320Y127742D01*
X40326Y127764D01*
X40335Y127785D01*
X40405Y128037D01*
X40478Y128290D01*
X40480Y128308D01*
X40487Y128334D01*
X40561Y128898D01*
X40560Y129005D01*
X40568Y129073D01*
X40636Y132968D01*
X40628Y133121D01*
X40630Y133275D01*
X40613Y133405D01*
X40606Y133537D01*
X40577Y133688D01*
X40557Y133840D01*
X40529Y133933D01*
X40497Y134096D01*
X40350Y134522D01*
X40328Y134594D01*
X39153Y137430D01*
X39153Y140446D01*
X39944Y142356D01*
X40017Y142575D01*
X40097Y142793D01*
X40108Y142845D01*
X40125Y142896D01*
X40167Y143124D01*
X40215Y143350D01*
X40218Y143404D01*
X40228Y143457D01*
X40238Y143688D01*
X40253Y143919D01*
X40249Y143962D01*
X40252Y144026D01*
X40196Y144593D01*
X40180Y144658D01*
X40175Y144703D01*
X39637Y147410D01*
X39625Y147454D01*
X39618Y147500D01*
X39550Y147730D01*
X39487Y147960D01*
X39469Y148002D01*
X39456Y148046D01*
X39356Y148264D01*
X39262Y148483D01*
X39238Y148522D01*
X39219Y148564D01*
X39089Y148766D01*
X38965Y148970D01*
X38936Y149005D01*
X38911Y149044D01*
X38756Y149225D01*
X38603Y149410D01*
X38570Y149441D01*
X38540Y149476D01*
X38360Y149633D01*
X38184Y149795D01*
X38146Y149821D01*
X38112Y149852D01*
X37912Y149983D01*
X37714Y150118D01*
X37673Y150139D01*
X37635Y150164D01*
X37419Y150265D01*
X37204Y150372D01*
X37161Y150387D01*
X37119Y150407D01*
X36891Y150477D01*
X36664Y150553D01*
X36619Y150561D01*
X36575Y150575D01*
X36339Y150612D01*
X36103Y150656D01*
X36058Y150657D01*
X36012Y150665D01*
X35773Y150669D01*
X35534Y150679D01*
X35488Y150675D01*
X35443Y150675D01*
X35205Y150646D01*
X34967Y150623D01*
X34923Y150612D01*
X34877Y150606D01*
X34646Y150544D01*
X34414Y150487D01*
X34371Y150470D01*
X34327Y150459D01*
X34106Y150365D01*
X33884Y150276D01*
X33845Y150253D01*
X33802Y150235D01*
X33597Y150111D01*
X33390Y149993D01*
X33354Y149965D01*
X33314Y149941D01*
X33129Y149790D01*
X32940Y149643D01*
X32908Y149610D01*
X32873Y149582D01*
X32710Y149406D01*
X32543Y149234D01*
X32516Y149197D01*
X32485Y149164D01*
X32349Y148968D01*
X32208Y148774D01*
X32186Y148733D01*
X32160Y148696D01*
X32053Y148482D01*
X31940Y148271D01*
X31924Y148228D01*
X31904Y148187D01*
X31827Y147961D01*
X31745Y147735D01*
X31736Y147690D01*
X31721Y147647D01*
X31677Y147412D01*
X31627Y147178D01*
X31624Y147132D01*
X31616Y147087D01*
X31614Y146978D01*
X31589Y146609D01*
X31604Y146454D01*
X31601Y146299D01*
X31643Y145764D01*
X28610Y136428D01*
X28080Y135808D01*
X26995Y135255D01*
X26897Y135196D01*
X26793Y135145D01*
X26652Y135049D01*
X26507Y134962D01*
X26417Y134889D01*
X26322Y134824D01*
X26196Y134710D01*
X26064Y134603D01*
X25986Y134518D01*
X25901Y134441D01*
X25824Y134348D01*
X25772Y134460D01*
X25742Y134508D01*
X25717Y134558D01*
X25588Y134747D01*
X25464Y134940D01*
X25427Y134982D01*
X25396Y135029D01*
X25241Y135198D01*
X25092Y135371D01*
X25050Y135408D01*
X25012Y135450D01*
X24836Y135596D01*
X24663Y135746D01*
X24616Y135777D01*
X24573Y135813D01*
X24378Y135933D01*
X24186Y136058D01*
X24145Y136076D01*
X24087Y136111D01*
X23565Y136339D01*
X23503Y136356D01*
X23464Y136373D01*
X11498Y140261D01*
X10878Y140791D01*
X10507Y141518D01*
X10501Y141597D01*
X10501Y141601D01*
X10500Y141606D01*
X10461Y141867D01*
X10417Y142160D01*
X10415Y142165D01*
X10415Y142170D01*
X10336Y142432D01*
X10254Y142706D01*
X10252Y142711D01*
X10251Y142715D01*
X10135Y142967D01*
X10017Y143224D01*
X10014Y143229D01*
X10013Y143233D01*
X9865Y143461D01*
X9710Y143704D01*
X9707Y143708D01*
X9704Y143712D01*
X9522Y143923D01*
X9338Y144136D01*
X9335Y144139D01*
X9332Y144143D01*
X9119Y144328D01*
X8910Y144512D01*
X8906Y144515D01*
X8902Y144518D01*
X8669Y144670D01*
X8434Y144824D01*
X8429Y144826D01*
X8425Y144829D01*
X8404Y144838D01*
X7918Y145067D01*
X7782Y145109D01*
X7702Y145144D01*
X-25585Y155921D01*
X-25696Y155949D01*
X-25764Y155975D01*
X-33223Y158018D01*
X-33743Y158122D01*
X-33770Y158128D01*
X-49092Y160132D01*
X-49661Y160166D01*
X-49766Y160157D01*
X-49834Y160160D01*
X-65265Y159340D01*
X-65831Y159270D01*
X-65933Y159243D01*
X-66001Y159233D01*
X-81024Y155618D01*
X-81568Y155446D01*
X-81663Y155400D01*
X-81728Y155379D01*
X-88280Y152458D01*
X-95842Y149088D01*
X-96345Y148820D01*
X-96431Y148757D01*
X-96490Y148724D01*
X-109223Y139969D01*
X-109669Y139614D01*
X-109742Y139537D01*
X-109794Y139494D01*
X-117354Y131933D01*
X-117415Y131862D01*
X-117484Y131797D01*
X-117602Y131647D01*
X-117727Y131503D01*
X-117778Y131424D01*
X-117837Y131350D01*
X-117933Y131185D01*
X-118037Y131025D01*
X-118077Y130940D01*
X-118124Y130858D01*
X-118196Y130681D01*
X-118277Y130508D01*
X-118304Y130418D01*
X-118340Y130331D01*
X-118387Y130145D01*
X-118442Y129963D01*
X-118456Y129870D01*
X-118480Y129778D01*
X-118500Y129588D01*
X-118529Y129400D01*
X-118531Y129306D01*
X-118541Y129212D01*
X-118533Y129091D01*
X-118537Y128830D01*
X-118501Y128546D01*
X-118493Y128425D01*
X-118253Y126906D01*
X-118443Y126113D01*
X-127740Y113317D01*
X-128435Y112891D01*
X-129241Y112763D01*
X-130034Y112954D01*
X-137975Y118723D01*
X-138402Y119419D01*
X-138456Y119764D01*
X-138464Y119797D01*
X-138467Y119830D01*
X-138528Y120074D01*
X-138585Y120319D01*
X-138597Y120350D01*
X-138605Y120383D01*
X-138699Y120615D01*
X-138789Y120851D01*
X-138806Y120880D01*
X-138818Y120911D01*
X-138944Y121128D01*
X-139066Y121348D01*
X-139087Y121375D01*
X-139104Y121404D01*
X-139258Y121602D01*
X-139410Y121803D01*
X-139434Y121826D01*
X-139455Y121853D01*
X-139636Y122027D01*
X-139815Y122204D01*
X-139842Y122224D01*
X-139866Y122248D01*
X-140070Y122395D01*
X-140271Y122545D01*
X-140301Y122561D01*
X-140328Y122581D01*
X-140551Y122699D01*
X-140771Y122819D01*
X-140802Y122831D01*
X-140832Y122847D01*
X-141069Y122932D01*
X-141304Y123021D01*
X-141337Y123028D01*
X-141368Y123039D01*
X-141615Y123090D01*
X-141860Y123145D01*
X-141893Y123148D01*
X-141926Y123155D01*
X-142177Y123171D01*
X-142428Y123191D01*
X-142461Y123189D01*
X-142495Y123191D01*
X-142745Y123172D01*
X-142996Y123157D01*
X-143030Y123150D01*
X-143063Y123148D01*
X-143308Y123094D01*
X-143555Y123044D01*
X-143587Y123032D01*
X-143620Y123025D01*
X-143855Y122937D01*
X-144092Y122853D01*
X-144122Y122838D01*
X-144153Y122826D01*
X-144374Y122706D01*
X-144597Y122590D01*
X-144624Y122570D01*
X-144654Y122554D01*
X-144856Y122404D01*
X-145060Y122258D01*
X-145085Y122235D01*
X-145112Y122215D01*
X-145178Y122146D01*
X-145473Y121865D01*
X-145587Y121721D01*
X-145658Y121646D01*
X-156580Y107815D01*
X-156856Y107411D01*
X-156888Y107368D01*
X-160803Y100757D01*
X-160897Y100569D01*
X-160998Y100385D01*
X-161025Y100315D01*
X-161058Y100248D01*
X-161125Y100049D01*
X-161200Y99852D01*
X-161216Y99779D01*
X-161240Y99708D01*
X-161278Y99501D01*
X-161324Y99296D01*
X-161330Y99221D01*
X-161344Y99148D01*
X-161353Y98938D01*
X-161370Y98728D01*
X-161366Y98653D01*
X-161369Y98578D01*
X-161349Y98369D01*
X-161336Y98159D01*
X-161321Y98086D01*
X-161314Y98011D01*
X-161264Y97807D01*
X-161223Y97601D01*
X-161198Y97530D01*
X-161180Y97457D01*
X-161102Y97262D01*
X-161032Y97064D01*
X-160998Y96998D01*
X-160970Y96928D01*
X-160866Y96745D01*
X-160769Y96559D01*
X-160725Y96498D01*
X-160688Y96433D01*
X-160559Y96266D01*
X-160437Y96096D01*
X-160385Y96041D01*
X-160339Y95982D01*
X-160188Y95835D01*
X-160044Y95683D01*
X-159985Y95637D01*
X-159931Y95584D01*
X-159761Y95460D01*
X-159597Y95330D01*
X-159532Y95292D01*
X-159471Y95248D01*
X-159286Y95149D01*
X-159105Y95043D01*
X-159035Y95014D01*
X-158969Y94979D01*
X-158772Y94907D01*
X-158577Y94827D01*
X-158504Y94809D01*
X-158434Y94783D01*
X-158229Y94739D01*
X-158025Y94687D01*
X-157950Y94679D01*
X-157877Y94664D01*
X-157667Y94649D01*
X-157458Y94626D01*
X-157399Y94630D01*
X-157308Y94623D01*
X-156740Y94663D01*
X-156700Y94672D01*
X-156671Y94673D01*
X-156343Y94725D01*
X-155549Y94535D01*
X-150078Y90560D01*
X-150056Y90546D01*
X-150036Y90530D01*
X-149814Y90395D01*
X-149595Y90258D01*
X-149571Y90248D01*
X-149549Y90234D01*
X-149310Y90132D01*
X-149074Y90027D01*
X-149049Y90020D01*
X-149025Y90010D01*
X-148775Y89942D01*
X-148526Y89871D01*
X-148500Y89868D01*
X-148475Y89861D01*
X-148392Y89853D01*
X-147962Y89793D01*
X-147789Y89794D01*
X-147690Y89784D01*
X-114901Y89784D01*
X-114841Y89788D01*
X-114780Y89786D01*
X-114557Y89808D01*
X-114332Y89824D01*
X-114273Y89837D01*
X-114213Y89843D01*
X-113995Y89896D01*
X-113775Y89943D01*
X-113718Y89964D01*
X-113660Y89978D01*
X-113451Y90062D01*
X-113240Y90139D01*
X-113187Y90167D01*
X-113131Y90190D01*
X-112936Y90302D01*
X-112770Y90390D01*
X-111220Y91032D01*
X-111035Y91125D01*
X-110847Y91210D01*
X-110780Y91252D01*
X-110710Y91287D01*
X-110540Y91404D01*
X-110365Y91514D01*
X-110305Y91565D01*
X-110241Y91610D01*
X-110089Y91750D01*
X-109931Y91884D01*
X-109879Y91942D01*
X-109822Y91996D01*
X-109691Y92155D01*
X-109553Y92310D01*
X-109510Y92376D01*
X-109460Y92436D01*
X-109353Y92612D01*
X-109239Y92785D01*
X-109205Y92856D01*
X-109164Y92923D01*
X-109082Y93113D01*
X-108993Y93299D01*
X-108970Y93374D01*
X-108939Y93446D01*
X-108885Y93646D01*
X-108823Y93843D01*
X-108810Y93920D01*
X-108789Y93996D01*
X-108763Y94202D01*
X-108730Y94405D01*
X-108728Y94484D01*
X-108718Y94561D01*
X-108721Y94768D01*
X-108716Y94975D01*
X-108725Y95053D01*
X-108726Y95131D01*
X-108758Y95335D01*
X-108782Y95541D01*
X-108802Y95617D01*
X-108814Y95694D01*
X-108875Y95892D01*
X-108927Y96092D01*
X-108958Y96164D01*
X-108980Y96239D01*
X-109068Y96427D01*
X-109148Y96617D01*
X-109188Y96684D01*
X-109221Y96756D01*
X-109334Y96929D01*
X-109439Y97107D01*
X-109489Y97168D01*
X-109531Y97234D01*
X-109667Y97389D01*
X-109797Y97550D01*
X-109843Y97591D01*
X-109906Y97663D01*
X-110336Y98036D01*
X-110367Y98056D01*
X-110387Y98073D01*
X-111438Y98837D01*
X-111778Y99205D01*
X-112039Y99632D01*
X-112213Y100101D01*
X-112291Y100595D01*
X-112271Y101096D01*
X-112155Y101582D01*
X-111945Y102037D01*
X-109778Y105019D01*
X-104082Y100881D01*
X-98386Y96743D01*
X-98790Y96187D01*
X-98851Y96089D01*
X-98920Y95997D01*
X-99001Y95848D01*
X-99091Y95703D01*
X-99138Y95598D01*
X-99194Y95497D01*
X-99254Y95338D01*
X-99323Y95183D01*
X-99354Y95072D01*
X-99395Y94964D01*
X-99432Y94798D01*
X-99479Y94635D01*
X-99494Y94520D01*
X-99520Y94408D01*
X-99533Y94239D01*
X-99557Y94070D01*
X-99556Y93955D01*
X-99565Y93840D01*
X-99555Y93671D01*
X-99555Y93500D01*
X-99538Y93386D01*
X-99531Y93271D01*
X-99498Y93105D01*
X-99473Y92937D01*
X-99441Y92826D01*
X-99418Y92713D01*
X-99361Y92553D01*
X-99314Y92390D01*
X-99266Y92284D01*
X-99228Y92176D01*
X-99149Y92025D01*
X-99079Y91870D01*
X-99017Y91773D01*
X-98964Y91671D01*
X-98865Y91533D01*
X-98774Y91389D01*
X-98699Y91301D01*
X-98632Y91207D01*
X-98515Y91084D01*
X-98405Y90955D01*
X-98319Y90879D01*
X-98239Y90795D01*
X-98106Y90690D01*
X-97979Y90577D01*
X-97883Y90513D01*
X-97792Y90442D01*
X-97645Y90356D01*
X-97504Y90262D01*
X-97400Y90213D01*
X-97300Y90154D01*
X-97143Y90090D01*
X-96989Y90017D01*
X-96879Y89982D01*
X-96773Y89939D01*
X-96608Y89897D01*
X-96446Y89846D01*
X-96332Y89827D01*
X-96220Y89799D01*
X-96051Y89781D01*
X-95884Y89753D01*
X-95768Y89750D01*
X-95654Y89738D01*
X-95539Y89745D01*
X-95314Y89740D01*
X-94984Y89778D01*
X-94867Y89785D01*
X-93663Y89976D01*
X-92831Y89776D01*
X-92720Y89700D01*
X-92641Y89661D01*
X-92566Y89614D01*
X-92386Y89534D01*
X-92210Y89447D01*
X-92126Y89419D01*
X-92045Y89383D01*
X-91856Y89329D01*
X-91670Y89267D01*
X-91582Y89251D01*
X-91497Y89227D01*
X-91302Y89200D01*
X-91109Y89164D01*
X-91020Y89161D01*
X-90932Y89149D01*
X-90736Y89149D01*
X-90540Y89141D01*
X-90451Y89150D01*
G37*
G36*
X-142397Y-123181D02*
X-142397Y-123181D01*
X-142145Y-123178D01*
X-142111Y-123173D01*
X-142077Y-123172D01*
X-141830Y-123131D01*
X-141581Y-123093D01*
X-141549Y-123083D01*
X-141516Y-123078D01*
X-141276Y-123002D01*
X-141035Y-122930D01*
X-141005Y-122916D01*
X-140972Y-122905D01*
X-140745Y-122796D01*
X-140518Y-122692D01*
X-140489Y-122674D01*
X-140459Y-122659D01*
X-140249Y-122519D01*
X-140038Y-122384D01*
X-140013Y-122362D01*
X-139985Y-122343D01*
X-139798Y-122176D01*
X-139607Y-122012D01*
X-139584Y-121986D01*
X-139559Y-121964D01*
X-139397Y-121773D01*
X-139231Y-121583D01*
X-139213Y-121555D01*
X-139191Y-121529D01*
X-139058Y-121317D01*
X-138920Y-121106D01*
X-138906Y-121075D01*
X-138888Y-121047D01*
X-138785Y-120818D01*
X-138678Y-120590D01*
X-138668Y-120557D01*
X-138654Y-120527D01*
X-138631Y-120434D01*
X-138511Y-120045D01*
X-138482Y-119864D01*
X-138456Y-119764D01*
X-138402Y-119419D01*
X-137975Y-118723D01*
X-135891Y-117209D01*
X-135687Y-117038D01*
X-135483Y-116870D01*
X-135470Y-116855D01*
X-135455Y-116843D01*
X-135277Y-116645D01*
X-135098Y-116449D01*
X-135087Y-116433D01*
X-135074Y-116419D01*
X-134925Y-116197D01*
X-134776Y-115980D01*
X-134767Y-115962D01*
X-134756Y-115946D01*
X-134640Y-115706D01*
X-134522Y-115469D01*
X-134517Y-115454D01*
X-134508Y-115433D01*
X-134333Y-114891D01*
X-134314Y-114782D01*
X-134294Y-114714D01*
X-130715Y-96723D01*
X-124277Y-81179D01*
X-124251Y-81102D01*
X-124217Y-81027D01*
X-124161Y-80831D01*
X-124096Y-80638D01*
X-124081Y-80558D01*
X-124059Y-80480D01*
X-124030Y-80278D01*
X-123993Y-80078D01*
X-123989Y-79997D01*
X-123978Y-79916D01*
X-123977Y-79712D01*
X-123969Y-79509D01*
X-123977Y-79428D01*
X-123977Y-79346D01*
X-124005Y-79145D01*
X-124025Y-78941D01*
X-124044Y-78863D01*
X-124055Y-78782D01*
X-124112Y-78586D01*
X-124160Y-78388D01*
X-124190Y-78312D01*
X-124212Y-78234D01*
X-124295Y-78048D01*
X-124371Y-77859D01*
X-124411Y-77788D01*
X-124444Y-77714D01*
X-124552Y-77541D01*
X-124654Y-77364D01*
X-124703Y-77300D01*
X-124747Y-77231D01*
X-124878Y-77075D01*
X-125003Y-76914D01*
X-125061Y-76857D01*
X-125114Y-76795D01*
X-125265Y-76659D01*
X-125412Y-76517D01*
X-125477Y-76469D01*
X-125538Y-76415D01*
X-125707Y-76301D01*
X-125872Y-76181D01*
X-125944Y-76143D01*
X-126011Y-76098D01*
X-126195Y-76009D01*
X-126375Y-75913D01*
X-126451Y-75885D01*
X-126524Y-75850D01*
X-126719Y-75788D01*
X-126910Y-75718D01*
X-126989Y-75701D01*
X-127067Y-75676D01*
X-127268Y-75642D01*
X-127468Y-75600D01*
X-127549Y-75594D01*
X-127629Y-75580D01*
X-127833Y-75574D01*
X-128036Y-75560D01*
X-128117Y-75566D01*
X-128198Y-75564D01*
X-128319Y-75581D01*
X-128604Y-75601D01*
X-128860Y-75656D01*
X-128979Y-75673D01*
X-129377Y-75768D01*
X-129877Y-75788D01*
X-130372Y-75710D01*
X-130841Y-75536D01*
X-131268Y-75275D01*
X-131636Y-74935D01*
X-133803Y-71952D01*
X-128107Y-67814D01*
X-128106Y-67814D01*
X-122410Y-63676D01*
X-122007Y-64231D01*
X-121933Y-64319D01*
X-121866Y-64413D01*
X-121750Y-64537D01*
X-121641Y-64667D01*
X-121555Y-64744D01*
X-121476Y-64828D01*
X-121343Y-64934D01*
X-121217Y-65048D01*
X-121121Y-65112D01*
X-121031Y-65184D01*
X-120885Y-65271D01*
X-120744Y-65366D01*
X-120640Y-65416D01*
X-120541Y-65475D01*
X-120384Y-65540D01*
X-120231Y-65614D01*
X-120121Y-65650D01*
X-120015Y-65694D01*
X-119850Y-65737D01*
X-119689Y-65789D01*
X-119575Y-65808D01*
X-119463Y-65837D01*
X-119295Y-65857D01*
X-119127Y-65885D01*
X-119012Y-65889D01*
X-118897Y-65902D01*
X-118727Y-65898D01*
X-118557Y-65903D01*
X-118443Y-65890D01*
X-118328Y-65887D01*
X-118160Y-65859D01*
X-117991Y-65840D01*
X-117880Y-65812D01*
X-117766Y-65792D01*
X-117604Y-65741D01*
X-117439Y-65699D01*
X-117333Y-65655D01*
X-117223Y-65620D01*
X-117069Y-65546D01*
X-116912Y-65482D01*
X-116813Y-65424D01*
X-116709Y-65374D01*
X-116568Y-65279D01*
X-116421Y-65193D01*
X-116331Y-65121D01*
X-116235Y-65058D01*
X-116108Y-64945D01*
X-115975Y-64839D01*
X-115896Y-64755D01*
X-115810Y-64678D01*
X-115700Y-64549D01*
X-115583Y-64425D01*
X-115516Y-64331D01*
X-115442Y-64243D01*
X-115351Y-64100D01*
X-115252Y-63961D01*
X-115199Y-63859D01*
X-115138Y-63761D01*
X-115068Y-63606D01*
X-114990Y-63455D01*
X-114952Y-63346D01*
X-114905Y-63241D01*
X-114876Y-63130D01*
X-114801Y-62918D01*
X-114736Y-62592D01*
X-114706Y-62478D01*
X-114516Y-61274D01*
X-114090Y-60579D01*
X-109753Y-57428D01*
X-109637Y-57331D01*
X-109515Y-57241D01*
X-109419Y-57148D01*
X-109317Y-57062D01*
X-109215Y-56949D01*
X-109107Y-56843D01*
X-109025Y-56737D01*
X-108936Y-56638D01*
X-108851Y-56512D01*
X-108759Y-56392D01*
X-108713Y-56305D01*
X-108619Y-56165D01*
X-108425Y-55765D01*
X-108388Y-55696D01*
X-107634Y-53877D01*
X-106810Y-53053D01*
X-106700Y-52926D01*
X-106628Y-52859D01*
X-105151Y-51174D01*
X-105149Y-51171D01*
X-105146Y-51168D01*
X-105134Y-51152D01*
X-104806Y-50721D01*
X-104737Y-50597D01*
X-104687Y-50527D01*
X-102451Y-46654D01*
X-102391Y-46531D01*
X-102322Y-46412D01*
X-102285Y-46313D01*
X-102201Y-46142D01*
X-102081Y-45769D01*
X-102045Y-45674D01*
X-100888Y-41355D01*
X-100887Y-41351D01*
X-100886Y-41347D01*
X-100882Y-41327D01*
X-100779Y-40795D01*
X-100772Y-40654D01*
X-100758Y-40569D01*
X-100611Y-38333D01*
X-100612Y-38284D01*
X-100610Y-38269D01*
X-100612Y-38231D01*
X-100612Y-38164D01*
X-100603Y-38067D01*
X-100603Y44854D01*
X-100135Y45984D01*
X-100123Y46019D01*
X-100107Y46052D01*
X-100032Y46290D01*
X-99954Y46525D01*
X-99947Y46561D01*
X-99936Y46596D01*
X-99896Y46841D01*
X-99851Y47085D01*
X-99849Y47122D01*
X-99843Y47158D01*
X-99837Y47406D01*
X-99827Y47654D01*
X-99830Y47691D01*
X-99830Y47728D01*
X-99858Y47974D01*
X-99883Y48221D01*
X-99892Y48257D01*
X-99896Y48294D01*
X-99959Y48533D01*
X-100018Y48775D01*
X-100031Y48809D01*
X-100041Y48845D01*
X-100137Y49073D01*
X-100229Y49304D01*
X-100247Y49336D01*
X-100261Y49370D01*
X-100388Y49583D01*
X-100511Y49799D01*
X-100534Y49828D01*
X-100553Y49859D01*
X-100709Y50053D01*
X-100861Y50249D01*
X-100887Y50275D01*
X-100910Y50303D01*
X-100985Y50369D01*
X-101270Y50646D01*
X-101421Y50757D01*
X-101500Y50826D01*
X-104693Y53146D01*
X-99379Y60460D01*
X-99367Y60478D01*
X-99360Y60487D01*
X-99248Y60669D01*
X-99130Y60847D01*
X-99124Y60859D01*
X-99114Y60875D01*
X-99097Y60910D01*
X-99077Y60943D01*
X-99069Y60961D01*
X-99062Y60973D01*
X-98977Y61168D01*
X-98885Y61362D01*
X-98881Y61375D01*
X-98873Y61392D01*
X-98861Y61428D01*
X-98846Y61464D01*
X-98841Y61482D01*
X-98835Y61495D01*
X-98778Y61701D01*
X-98714Y61905D01*
X-98712Y61919D01*
X-98706Y61937D01*
X-98700Y61975D01*
X-98690Y62012D01*
X-98687Y62030D01*
X-98683Y62044D01*
X-98656Y62256D01*
X-98621Y62467D01*
X-98620Y62482D01*
X-98618Y62500D01*
X-98617Y62538D01*
X-98612Y62576D01*
X-98612Y62594D01*
X-98610Y62610D01*
X-98612Y62823D01*
X-98607Y63037D01*
X-98609Y63052D01*
X-98609Y63069D01*
X-98614Y63107D01*
X-98614Y63146D01*
X-98616Y63163D01*
X-98616Y63179D01*
X-98649Y63391D01*
X-98674Y63603D01*
X-98678Y63618D01*
X-98680Y63635D01*
X-98690Y63672D01*
X-98695Y63710D01*
X-98700Y63726D01*
X-98702Y63743D01*
X-98764Y63947D01*
X-98818Y64154D01*
X-98825Y64169D01*
X-98829Y64184D01*
X-98844Y64220D01*
X-98855Y64257D01*
X-98861Y64271D01*
X-98866Y64288D01*
X-98956Y64483D01*
X-99039Y64679D01*
X-99048Y64694D01*
X-99054Y64708D01*
X-99074Y64741D01*
X-99089Y64776D01*
X-99098Y64789D01*
X-99105Y64806D01*
X-99221Y64985D01*
X-99331Y65169D01*
X-99342Y65183D01*
X-99349Y65195D01*
X-99374Y65225D01*
X-99394Y65258D01*
X-99404Y65269D01*
X-99414Y65284D01*
X-99554Y65446D01*
X-99688Y65613D01*
X-99699Y65623D01*
X-99710Y65636D01*
X-99734Y65657D01*
X-99763Y65691D01*
X-99774Y65701D01*
X-99787Y65715D01*
X-100024Y65922D01*
X-100190Y66070D01*
X-100201Y66077D01*
X-100216Y66090D01*
X-100254Y66115D01*
X-100278Y66136D01*
X-108617Y72194D01*
X-108597Y72285D01*
X-108557Y72426D01*
X-108538Y72563D01*
X-108509Y72699D01*
X-108499Y72845D01*
X-108479Y72990D01*
X-108480Y73129D01*
X-108470Y73267D01*
X-108481Y73413D01*
X-108481Y73560D01*
X-108501Y73697D01*
X-108511Y73836D01*
X-108542Y73979D01*
X-108563Y74124D01*
X-108602Y74257D01*
X-108631Y74393D01*
X-108681Y74530D01*
X-108722Y74671D01*
X-108779Y74797D01*
X-108827Y74927D01*
X-108897Y75057D01*
X-108957Y75190D01*
X-109031Y75307D01*
X-109097Y75430D01*
X-109183Y75548D01*
X-109262Y75671D01*
X-109352Y75777D01*
X-109434Y75889D01*
X-109536Y75994D01*
X-109631Y76105D01*
X-109735Y76198D01*
X-109832Y76297D01*
X-109948Y76386D01*
X-110057Y76483D01*
X-110173Y76560D01*
X-110283Y76645D01*
X-110376Y76694D01*
X-110532Y76798D01*
X-110891Y76969D01*
X-110979Y77016D01*
X-112759Y77753D01*
X-112871Y77791D01*
X-112979Y77837D01*
X-113141Y77881D01*
X-113299Y77934D01*
X-113415Y77955D01*
X-113529Y77986D01*
X-113643Y77997D01*
X-113860Y78037D01*
X-114198Y78051D01*
X-114314Y78062D01*
X-120371Y78063D01*
X-120520Y78052D01*
X-120669Y78052D01*
X-120804Y78032D01*
X-120940Y78023D01*
X-121086Y77991D01*
X-121233Y77970D01*
X-121364Y77932D01*
X-121497Y77904D01*
X-121637Y77852D01*
X-121780Y77810D01*
X-121904Y77754D01*
X-122032Y77708D01*
X-122164Y77637D01*
X-122300Y77576D01*
X-122414Y77503D01*
X-122535Y77439D01*
X-122655Y77351D01*
X-122781Y77271D01*
X-122885Y77183D01*
X-122994Y77103D01*
X-123101Y76998D01*
X-123215Y76902D01*
X-123305Y76800D01*
X-123403Y76705D01*
X-123494Y76587D01*
X-123593Y76475D01*
X-123668Y76362D01*
X-123751Y76254D01*
X-123825Y76125D01*
X-123908Y76000D01*
X-123966Y75878D01*
X-124034Y75760D01*
X-124089Y75621D01*
X-124153Y75486D01*
X-124194Y75356D01*
X-124244Y75230D01*
X-124279Y75085D01*
X-124324Y74943D01*
X-124346Y74808D01*
X-124378Y74676D01*
X-124392Y74528D01*
X-124417Y74380D01*
X-124420Y74244D01*
X-124433Y74109D01*
X-124427Y73960D01*
X-124430Y73811D01*
X-124415Y73676D01*
X-124409Y73540D01*
X-124381Y73393D01*
X-124364Y73245D01*
X-124330Y73113D01*
X-124305Y72980D01*
X-124257Y72838D01*
X-124219Y72694D01*
X-124167Y72568D01*
X-124123Y72439D01*
X-124057Y72306D01*
X-123999Y72168D01*
X-123929Y72051D01*
X-123868Y71930D01*
X-123783Y71807D01*
X-123707Y71679D01*
X-123622Y71573D01*
X-123544Y71461D01*
X-123443Y71351D01*
X-123350Y71235D01*
X-123275Y71169D01*
X-123158Y71042D01*
X-122822Y70768D01*
X-122760Y70712D01*
X-120911Y69369D01*
X-120484Y68673D01*
X-120294Y67469D01*
X-120268Y67357D01*
X-120251Y67243D01*
X-120204Y67080D01*
X-120165Y66914D01*
X-120124Y66806D01*
X-120092Y66696D01*
X-120022Y66541D01*
X-119961Y66382D01*
X-119905Y66282D01*
X-119857Y66176D01*
X-119794Y66077D01*
X-119915Y66062D01*
X-119969Y66048D01*
X-120025Y66040D01*
X-120244Y65976D01*
X-120466Y65918D01*
X-120518Y65896D01*
X-120572Y65880D01*
X-120780Y65786D01*
X-120991Y65697D01*
X-121040Y65668D01*
X-121091Y65645D01*
X-121284Y65522D01*
X-121481Y65405D01*
X-121525Y65370D01*
X-121572Y65340D01*
X-121746Y65191D01*
X-121925Y65048D01*
X-121955Y65014D01*
X-122006Y64970D01*
X-122384Y64544D01*
X-122419Y64491D01*
X-122448Y64458D01*
X-127806Y57082D01*
X-127840Y57029D01*
X-127879Y56979D01*
X-127991Y56787D01*
X-128108Y56599D01*
X-128134Y56541D01*
X-128166Y56487D01*
X-128249Y56281D01*
X-128339Y56078D01*
X-128357Y56017D01*
X-128380Y55959D01*
X-128406Y55843D01*
X-128495Y55530D01*
X-128527Y55303D01*
X-128552Y55189D01*
X-130674Y37917D01*
X-130674Y37916D01*
X-130847Y36509D01*
X-130945Y35705D01*
X-131019Y35102D01*
X-131020Y35101D01*
X-132877Y19982D01*
X-140515Y-12432D01*
X-146078Y-28126D01*
X-146551Y-29463D01*
X-146552Y-29464D01*
X-146585Y-29557D01*
X-146585Y-29558D01*
X-147058Y-30894D01*
X-147081Y-30975D01*
X-147103Y-31027D01*
X-148968Y-36929D01*
X-149712Y-39285D01*
X-149783Y-39577D01*
X-149818Y-39692D01*
X-153297Y-56650D01*
X-153369Y-57186D01*
X-153372Y-57206D01*
X-154480Y-74481D01*
X-154480Y-74552D01*
X-154486Y-74619D01*
X-154479Y-74790D01*
X-154485Y-74902D01*
X-154467Y-75367D01*
X-154442Y-75596D01*
X-154422Y-75826D01*
X-154410Y-75879D01*
X-154404Y-75933D01*
X-154347Y-76157D01*
X-154296Y-76382D01*
X-154277Y-76432D01*
X-154263Y-76485D01*
X-154175Y-76699D01*
X-154093Y-76914D01*
X-154071Y-76952D01*
X-154047Y-77012D01*
X-153758Y-77503D01*
X-153717Y-77555D01*
X-153694Y-77594D01*
X-147245Y-86471D01*
X-147054Y-87264D01*
X-147182Y-88070D01*
X-147608Y-88765D01*
X-155549Y-94535D01*
X-156343Y-94725D01*
X-156671Y-94673D01*
X-156881Y-94655D01*
X-157089Y-94629D01*
X-157164Y-94630D01*
X-157239Y-94624D01*
X-157449Y-94635D01*
X-157659Y-94639D01*
X-157733Y-94650D01*
X-157808Y-94654D01*
X-158014Y-94695D01*
X-158222Y-94728D01*
X-158293Y-94750D01*
X-158367Y-94764D01*
X-158566Y-94833D01*
X-158766Y-94895D01*
X-158834Y-94926D01*
X-158905Y-94951D01*
X-159092Y-95047D01*
X-159283Y-95136D01*
X-159345Y-95177D01*
X-159412Y-95211D01*
X-159584Y-95333D01*
X-159760Y-95447D01*
X-159816Y-95497D01*
X-159878Y-95540D01*
X-160031Y-95684D01*
X-160189Y-95822D01*
X-160238Y-95879D01*
X-160293Y-95930D01*
X-160424Y-96094D01*
X-160561Y-96253D01*
X-160602Y-96317D01*
X-160649Y-96375D01*
X-160756Y-96556D01*
X-160870Y-96733D01*
X-160901Y-96801D01*
X-160939Y-96865D01*
X-161020Y-97060D01*
X-161108Y-97250D01*
X-161129Y-97322D01*
X-161158Y-97391D01*
X-161211Y-97595D01*
X-161271Y-97796D01*
X-161283Y-97870D01*
X-161302Y-97943D01*
X-161326Y-98152D01*
X-161357Y-98359D01*
X-161358Y-98434D01*
X-161366Y-98509D01*
X-161361Y-98720D01*
X-161363Y-98929D01*
X-161353Y-99003D01*
X-161351Y-99078D01*
X-161316Y-99286D01*
X-161289Y-99494D01*
X-161269Y-99567D01*
X-161257Y-99640D01*
X-161193Y-99840D01*
X-161137Y-100043D01*
X-161112Y-100097D01*
X-161084Y-100184D01*
X-160838Y-100697D01*
X-160815Y-100731D01*
X-160803Y-100757D01*
X-156888Y-107368D01*
X-156609Y-107770D01*
X-156580Y-107815D01*
X-145658Y-121646D01*
X-145636Y-121671D01*
X-145616Y-121699D01*
X-145443Y-121882D01*
X-145275Y-122068D01*
X-145249Y-122089D01*
X-145226Y-122114D01*
X-145029Y-122271D01*
X-144836Y-122431D01*
X-144807Y-122449D01*
X-144781Y-122470D01*
X-144564Y-122598D01*
X-144351Y-122730D01*
X-144320Y-122743D01*
X-144291Y-122760D01*
X-144058Y-122857D01*
X-143828Y-122957D01*
X-143796Y-122966D01*
X-143765Y-122979D01*
X-143521Y-123043D01*
X-143279Y-123110D01*
X-143246Y-123114D01*
X-143213Y-123123D01*
X-142963Y-123151D01*
X-142714Y-123184D01*
X-142681Y-123184D01*
X-142647Y-123187D01*
X-142397Y-123181D01*
G37*
G36*
X90169Y-91871D02*
X90169Y-91871D01*
X90281Y-91873D01*
X90452Y-91851D01*
X90625Y-91839D01*
X90735Y-91815D01*
X90846Y-91801D01*
X91013Y-91755D01*
X91182Y-91719D01*
X91287Y-91680D01*
X91396Y-91650D01*
X91554Y-91582D01*
X91717Y-91522D01*
X91816Y-91469D01*
X91919Y-91425D01*
X92066Y-91335D01*
X92219Y-91253D01*
X92309Y-91186D01*
X92405Y-91128D01*
X92539Y-91018D01*
X92678Y-90916D01*
X92758Y-90837D01*
X92845Y-90766D01*
X92962Y-90639D01*
X93086Y-90518D01*
X93155Y-90429D01*
X93231Y-90346D01*
X93328Y-90204D01*
X93434Y-90067D01*
X93474Y-89991D01*
X93553Y-89876D01*
X93666Y-89649D01*
X95347Y-87968D01*
X97491Y-87080D01*
X99811Y-87080D01*
X101955Y-87968D01*
X103985Y-89999D01*
X104159Y-90150D01*
X104329Y-90305D01*
X104374Y-90336D01*
X104415Y-90372D01*
X104609Y-90498D01*
X104798Y-90628D01*
X104847Y-90652D01*
X104894Y-90682D01*
X105103Y-90779D01*
X105309Y-90882D01*
X105361Y-90899D01*
X105410Y-90922D01*
X105631Y-90989D01*
X105849Y-91061D01*
X105903Y-91071D01*
X105956Y-91087D01*
X106183Y-91123D01*
X106410Y-91164D01*
X106465Y-91166D01*
X106519Y-91175D01*
X106748Y-91178D01*
X106979Y-91187D01*
X107034Y-91182D01*
X107089Y-91182D01*
X107317Y-91153D01*
X107546Y-91130D01*
X107599Y-91117D01*
X107654Y-91110D01*
X107876Y-91049D01*
X108099Y-90995D01*
X108150Y-90974D01*
X108203Y-90960D01*
X108414Y-90869D01*
X108628Y-90783D01*
X108676Y-90756D01*
X108726Y-90734D01*
X108923Y-90614D01*
X109123Y-90500D01*
X109157Y-90471D01*
X109213Y-90437D01*
X109653Y-90075D01*
X109697Y-90027D01*
X109732Y-89999D01*
X111031Y-88699D01*
X111032Y-88699D01*
X112034Y-87696D01*
X113037Y-86694D01*
X113037Y-86693D01*
X119345Y-80385D01*
X119346Y-80385D01*
X120348Y-79382D01*
X120412Y-79318D01*
X120413Y-79318D01*
X121351Y-78379D01*
X122569Y-77161D01*
X128373Y-74757D01*
X131513Y-74757D01*
X131790Y-74738D01*
X131912Y-74738D01*
X132092Y-74720D01*
X132265Y-74690D01*
X132288Y-74689D01*
X132317Y-74683D01*
X132495Y-74660D01*
X132556Y-74641D01*
X132654Y-74624D01*
X132785Y-74583D01*
X132845Y-74570D01*
X132981Y-74520D01*
X133197Y-74451D01*
X133227Y-74437D01*
X133249Y-74430D01*
X133583Y-74292D01*
X133765Y-74201D01*
X133950Y-74118D01*
X134003Y-74082D01*
X134092Y-74037D01*
X134562Y-73714D01*
X134586Y-73692D01*
X134605Y-73679D01*
X134745Y-73564D01*
X134947Y-73374D01*
X135041Y-73296D01*
X158498Y-49839D01*
X159501Y-48836D01*
X159576Y-48749D01*
X159659Y-48669D01*
X159722Y-48588D01*
X159769Y-48541D01*
X160857Y-47214D01*
X160975Y-47048D01*
X161099Y-46887D01*
X161130Y-46830D01*
X161187Y-46749D01*
X161449Y-46243D01*
X161460Y-46212D01*
X161470Y-46191D01*
X162778Y-43035D01*
X162842Y-42842D01*
X162914Y-42652D01*
X162927Y-42589D01*
X162958Y-42495D01*
X163062Y-41934D01*
X163063Y-41901D01*
X163067Y-41879D01*
X163236Y-40170D01*
X163243Y-39893D01*
X163255Y-39772D01*
X163255Y-36716D01*
X165594Y-31069D01*
X166753Y-29910D01*
X168759Y-27904D01*
X168799Y-27858D01*
X168843Y-27817D01*
X168985Y-27643D01*
X169133Y-27474D01*
X169166Y-27423D01*
X169204Y-27376D01*
X169320Y-27184D01*
X169443Y-26995D01*
X169468Y-26941D01*
X169499Y-26889D01*
X169588Y-26683D01*
X169683Y-26479D01*
X169700Y-26421D01*
X169724Y-26365D01*
X169782Y-26149D01*
X169848Y-25933D01*
X169857Y-25874D01*
X169873Y-25815D01*
X169884Y-25698D01*
X169935Y-25370D01*
X169938Y-25145D01*
X169949Y-25031D01*
X169949Y-16592D01*
X170261Y-15838D01*
X170838Y-15261D01*
X171592Y-14949D01*
X181408Y-14949D01*
X182162Y-15261D01*
X182341Y-15440D01*
X182540Y-15614D01*
X182738Y-15789D01*
X182755Y-15801D01*
X182771Y-15814D01*
X182992Y-15957D01*
X183213Y-16104D01*
X183232Y-16113D01*
X183249Y-16124D01*
X183488Y-16235D01*
X183727Y-16349D01*
X183747Y-16355D01*
X183766Y-16364D01*
X184017Y-16440D01*
X184271Y-16520D01*
X184291Y-16523D01*
X184311Y-16529D01*
X184571Y-16569D01*
X184833Y-16613D01*
X184854Y-16613D01*
X184874Y-16616D01*
X185139Y-16620D01*
X185403Y-16626D01*
X185423Y-16624D01*
X185444Y-16624D01*
X185705Y-16591D01*
X185969Y-16560D01*
X185989Y-16555D01*
X186009Y-16552D01*
X186264Y-16482D01*
X186520Y-16415D01*
X186539Y-16407D01*
X186559Y-16402D01*
X186801Y-16297D01*
X187045Y-16194D01*
X187063Y-16184D01*
X187082Y-16176D01*
X187307Y-16038D01*
X187534Y-15903D01*
X187550Y-15890D01*
X187568Y-15879D01*
X187771Y-15712D01*
X187978Y-15545D01*
X187992Y-15530D01*
X188008Y-15517D01*
X188186Y-15323D01*
X188368Y-15129D01*
X188379Y-15112D01*
X188393Y-15097D01*
X188543Y-14879D01*
X188695Y-14663D01*
X188704Y-14644D01*
X188716Y-14627D01*
X188834Y-14390D01*
X188954Y-14155D01*
X188960Y-14136D01*
X188970Y-14117D01*
X189053Y-13866D01*
X189139Y-13617D01*
X189142Y-13600D01*
X189150Y-13577D01*
X189252Y-13016D01*
X189257Y-12908D01*
X189268Y-12839D01*
X190109Y-271D01*
X190108Y218D01*
X190109Y271D01*
X189268Y12839D01*
X189232Y13101D01*
X189198Y13363D01*
X189193Y13383D01*
X189190Y13403D01*
X189118Y13657D01*
X189048Y13912D01*
X189040Y13931D01*
X189034Y13951D01*
X188927Y14193D01*
X188822Y14435D01*
X188811Y14453D01*
X188803Y14472D01*
X188664Y14695D01*
X188525Y14922D01*
X188512Y14938D01*
X188501Y14955D01*
X188332Y15157D01*
X188163Y15362D01*
X188148Y15376D01*
X188135Y15392D01*
X187938Y15569D01*
X187743Y15747D01*
X187726Y15759D01*
X187711Y15773D01*
X187492Y15920D01*
X187274Y16070D01*
X187255Y16079D01*
X187238Y16090D01*
X187001Y16205D01*
X186764Y16323D01*
X186744Y16330D01*
X186725Y16339D01*
X186474Y16420D01*
X186223Y16503D01*
X186203Y16507D01*
X186183Y16513D01*
X185923Y16558D01*
X185662Y16606D01*
X185642Y16607D01*
X185621Y16610D01*
X185358Y16618D01*
X185093Y16629D01*
X185073Y16627D01*
X185052Y16627D01*
X184790Y16598D01*
X184526Y16572D01*
X184506Y16567D01*
X184486Y16565D01*
X184229Y16499D01*
X183973Y16436D01*
X183954Y16429D01*
X183934Y16424D01*
X183687Y16322D01*
X183444Y16225D01*
X183426Y16215D01*
X183407Y16207D01*
X183177Y16071D01*
X182949Y15941D01*
X182936Y15930D01*
X182915Y15918D01*
X182469Y15564D01*
X182394Y15485D01*
X182341Y15440D01*
X182162Y15261D01*
X181408Y14949D01*
X176269Y14949D01*
X176038Y14933D01*
X175806Y14923D01*
X175754Y14913D01*
X175700Y14909D01*
X175473Y14861D01*
X175246Y14819D01*
X175195Y14801D01*
X175143Y14790D01*
X174925Y14710D01*
X174706Y14637D01*
X174668Y14616D01*
X174608Y14594D01*
X174105Y14326D01*
X174051Y14286D01*
X174011Y14264D01*
X166483Y9235D01*
X156305Y5019D01*
X145342Y2838D01*
X145219Y2829D01*
X145104Y2805D01*
X144987Y2790D01*
X144878Y2756D01*
X144662Y2710D01*
X144344Y2594D01*
X144233Y2560D01*
X141208Y1307D01*
X138192Y1307D01*
X135517Y2415D01*
X135360Y2468D01*
X135206Y2529D01*
X135090Y2558D01*
X134976Y2596D01*
X134813Y2626D01*
X134653Y2665D01*
X134563Y2672D01*
X134416Y2699D01*
X133907Y2720D01*
X133866Y2723D01*
X132115Y2682D01*
X131991Y2670D01*
X131866Y2669D01*
X131708Y2644D01*
X131548Y2629D01*
X131427Y2600D01*
X131303Y2581D01*
X131150Y2534D01*
X130994Y2497D01*
X130878Y2451D01*
X130758Y2415D01*
X130613Y2347D01*
X130463Y2288D01*
X130355Y2227D01*
X130241Y2174D01*
X130107Y2087D01*
X129968Y2008D01*
X129868Y1932D01*
X129764Y1864D01*
X129643Y1758D01*
X129516Y1661D01*
X129428Y1571D01*
X129334Y1489D01*
X129229Y1368D01*
X129117Y1254D01*
X129043Y1153D01*
X128961Y1059D01*
X128874Y924D01*
X128779Y795D01*
X128720Y685D01*
X128652Y580D01*
X128585Y435D01*
X128508Y294D01*
X128465Y176D01*
X128413Y63D01*
X128366Y-91D01*
X128311Y-241D01*
X128284Y-363D01*
X128248Y-483D01*
X128224Y-641D01*
X128190Y-798D01*
X128181Y-922D01*
X128162Y-1046D01*
X128160Y-1206D01*
X128148Y-1366D01*
X128156Y-1491D01*
X128155Y-1616D01*
X128175Y-1775D01*
X128186Y-1934D01*
X128211Y-2057D01*
X128227Y-2181D01*
X128260Y-2287D01*
X128303Y-2492D01*
X128424Y-2828D01*
X128457Y-2935D01*
X128703Y-3529D01*
X128801Y-4020D01*
X128801Y-6707D01*
X118760Y-6707D01*
X118531Y-6723D01*
X118301Y-6733D01*
X118247Y-6743D01*
X118192Y-6747D01*
X117967Y-6795D01*
X117741Y-6837D01*
X117688Y-6854D01*
X117635Y-6866D01*
X117419Y-6945D01*
X117200Y-7018D01*
X117151Y-7043D01*
X117100Y-7061D01*
X116897Y-7170D01*
X116691Y-7273D01*
X116646Y-7304D01*
X116597Y-7330D01*
X116412Y-7466D01*
X116222Y-7597D01*
X116182Y-7634D01*
X116137Y-7667D01*
X115973Y-7827D01*
X115803Y-7983D01*
X115803Y-7984D01*
X115768Y-8026D01*
X115729Y-8064D01*
X115729Y-8065D01*
X115588Y-8246D01*
X115442Y-8425D01*
X115413Y-8472D01*
X115380Y-8515D01*
X115266Y-8715D01*
X115146Y-8912D01*
X115125Y-8962D01*
X115098Y-9010D01*
X115012Y-9225D01*
X114922Y-9436D01*
X114908Y-9488D01*
X114887Y-9540D01*
X114833Y-9764D01*
X114773Y-9986D01*
X114769Y-10030D01*
X114753Y-10094D01*
X114698Y-10661D01*
X114701Y-10726D01*
X114697Y-10770D01*
X114697Y-19811D01*
X111010Y-19811D01*
X110519Y-19713D01*
X110057Y-19522D01*
X109640Y-19243D01*
X109286Y-18890D01*
X109000Y-18460D01*
X108999Y-18459D01*
X108998Y-18458D01*
X108824Y-18234D01*
X108651Y-18010D01*
X108650Y-18009D01*
X108649Y-18008D01*
X108438Y-17804D01*
X108242Y-17613D01*
X108241Y-17612D01*
X108240Y-17611D01*
X107995Y-17432D01*
X107782Y-17277D01*
X107781Y-17276D01*
X107780Y-17275D01*
X107532Y-17143D01*
X107279Y-17008D01*
X107278Y-17008D01*
X107277Y-17007D01*
X107028Y-16917D01*
X106744Y-16813D01*
X106743Y-16812D01*
X106741Y-16812D01*
X106472Y-16755D01*
X106187Y-16694D01*
X106185Y-16694D01*
X106184Y-16694D01*
X105903Y-16674D01*
X105618Y-16655D01*
X105617Y-16655D01*
X105616Y-16655D01*
X105323Y-16675D01*
X105050Y-16695D01*
X105049Y-16695D01*
X105047Y-16695D01*
X104754Y-16758D01*
X104493Y-16814D01*
X104492Y-16815D01*
X104490Y-16815D01*
X104220Y-16914D01*
X103958Y-17011D01*
X103957Y-17011D01*
X103955Y-17012D01*
X103712Y-17142D01*
X103456Y-17280D01*
X103455Y-17280D01*
X103453Y-17281D01*
X103233Y-17443D01*
X102996Y-17616D01*
X102995Y-17617D01*
X102994Y-17618D01*
X102777Y-17830D01*
X102588Y-18014D01*
X102587Y-18015D01*
X102586Y-18016D01*
X102392Y-18267D01*
X102240Y-18465D01*
X102239Y-18466D01*
X102238Y-18467D01*
X102235Y-18474D01*
X101958Y-18960D01*
X101907Y-19088D01*
X101867Y-19163D01*
X101758Y-19428D01*
X101181Y-20005D01*
X100427Y-20317D01*
X90061Y-20317D01*
X89832Y-20333D01*
X89601Y-20343D01*
X89547Y-20353D01*
X89493Y-20357D01*
X89267Y-20405D01*
X89041Y-20447D01*
X88989Y-20464D01*
X88935Y-20476D01*
X88719Y-20555D01*
X88501Y-20628D01*
X88452Y-20653D01*
X88400Y-20672D01*
X88197Y-20780D01*
X87992Y-20883D01*
X87946Y-20914D01*
X87898Y-20940D01*
X87712Y-21076D01*
X87523Y-21207D01*
X87482Y-21244D01*
X87438Y-21277D01*
X87273Y-21437D01*
X87104Y-21593D01*
X87069Y-21636D01*
X87030Y-21674D01*
X86889Y-21856D01*
X86743Y-22034D01*
X86715Y-22082D01*
X86681Y-22125D01*
X86567Y-22325D01*
X86448Y-22522D01*
X86426Y-22572D01*
X86399Y-22620D01*
X86314Y-22834D01*
X86223Y-23045D01*
X86209Y-23098D01*
X86189Y-23149D01*
X86134Y-23374D01*
X86074Y-23595D01*
X86070Y-23639D01*
X86054Y-23703D01*
X85999Y-24270D01*
X86002Y-24336D01*
X85998Y-24380D01*
X85998Y-68607D01*
X84299Y-74946D01*
X81589Y-79640D01*
X81546Y-79729D01*
X81495Y-79813D01*
X81421Y-79984D01*
X81340Y-80152D01*
X81309Y-80246D01*
X81270Y-80337D01*
X81222Y-80517D01*
X81164Y-80694D01*
X81147Y-80792D01*
X81121Y-80887D01*
X81110Y-81006D01*
X81066Y-81256D01*
X81057Y-81551D01*
X81045Y-81672D01*
X81045Y-85786D01*
X81061Y-86015D01*
X81071Y-86245D01*
X81081Y-86299D01*
X81085Y-86354D01*
X81133Y-86580D01*
X81175Y-86806D01*
X81192Y-86858D01*
X81204Y-86911D01*
X81283Y-87128D01*
X81356Y-87346D01*
X81381Y-87395D01*
X81400Y-87447D01*
X81508Y-87650D01*
X81611Y-87855D01*
X81642Y-87901D01*
X81668Y-87949D01*
X81804Y-88134D01*
X81935Y-88324D01*
X81972Y-88365D01*
X82005Y-88409D01*
X82165Y-88574D01*
X82321Y-88743D01*
X82364Y-88778D01*
X82402Y-88817D01*
X82584Y-88958D01*
X82762Y-89104D01*
X82810Y-89132D01*
X82853Y-89166D01*
X83053Y-89280D01*
X83250Y-89399D01*
X83300Y-89421D01*
X83348Y-89448D01*
X83562Y-89533D01*
X83773Y-89624D01*
X83826Y-89638D01*
X83877Y-89658D01*
X84102Y-89713D01*
X84323Y-89773D01*
X84367Y-89777D01*
X84431Y-89792D01*
X84998Y-89848D01*
X85064Y-89845D01*
X85074Y-89846D01*
X87239Y-90743D01*
X87308Y-90802D01*
X87432Y-90923D01*
X87523Y-90989D01*
X87608Y-91063D01*
X87753Y-91157D01*
X87892Y-91259D01*
X87992Y-91311D01*
X88086Y-91373D01*
X88243Y-91446D01*
X88395Y-91527D01*
X88501Y-91565D01*
X88603Y-91613D01*
X88768Y-91663D01*
X88931Y-91722D01*
X89041Y-91745D01*
X89148Y-91778D01*
X89319Y-91804D01*
X89488Y-91840D01*
X89600Y-91848D01*
X89711Y-91865D01*
X89884Y-91867D01*
X90056Y-91879D01*
X90169Y-91871D01*
G37*
G36*
X133014Y14543D02*
X133014Y14543D01*
X133179Y14560D01*
X133346Y14567D01*
X133463Y14589D01*
X133581Y14601D01*
X133742Y14641D01*
X133906Y14671D01*
X134019Y14709D01*
X134134Y14737D01*
X134288Y14799D01*
X134446Y14852D01*
X134552Y14906D01*
X134663Y14950D01*
X134807Y15033D01*
X134955Y15107D01*
X135053Y15175D01*
X135156Y15234D01*
X135287Y15337D01*
X135424Y15431D01*
X135512Y15512D01*
X135605Y15585D01*
X135721Y15705D01*
X135843Y15817D01*
X135919Y15910D01*
X136001Y15995D01*
X136099Y16130D01*
X136204Y16259D01*
X136266Y16360D01*
X136335Y16457D01*
X136413Y16604D01*
X136499Y16746D01*
X136546Y16855D01*
X136602Y16960D01*
X136658Y17117D01*
X136724Y17269D01*
X136755Y17384D01*
X136795Y17496D01*
X136829Y17659D01*
X136873Y17819D01*
X136881Y17909D01*
X136912Y18054D01*
X136945Y18565D01*
X136949Y18604D01*
X136949Y32408D01*
X137261Y33162D01*
X138404Y34304D01*
X138518Y34435D01*
X138639Y34560D01*
X138704Y34650D01*
X138777Y34734D01*
X138872Y34880D01*
X138975Y35021D01*
X139027Y35119D01*
X139087Y35212D01*
X139160Y35370D01*
X139242Y35524D01*
X139280Y35628D01*
X139327Y35729D01*
X139378Y35896D01*
X139437Y36059D01*
X139460Y36168D01*
X139492Y36274D01*
X139519Y36447D01*
X139555Y36617D01*
X139563Y36728D01*
X139580Y36837D01*
X139582Y37011D01*
X139594Y37185D01*
X139585Y37270D01*
X139587Y37407D01*
X139517Y37963D01*
X139516Y37970D01*
X137828Y46456D01*
X137827Y46459D01*
X137826Y46463D01*
X137821Y46482D01*
X137678Y47005D01*
X137622Y47135D01*
X137597Y47218D01*
X133193Y57848D01*
X133192Y57852D01*
X133190Y57855D01*
X133181Y57872D01*
X132939Y58358D01*
X132859Y58474D01*
X132818Y58550D01*
X126426Y68117D01*
X126077Y68568D01*
X126065Y68579D01*
X126058Y68589D01*
X122190Y72856D01*
X122101Y72941D01*
X122052Y73001D01*
X121677Y73376D01*
X121049Y74004D01*
X114750Y80303D01*
X102030Y96574D01*
X91384Y114272D01*
X85314Y127878D01*
X85210Y128072D01*
X85113Y128269D01*
X85076Y128323D01*
X85045Y128380D01*
X84916Y128558D01*
X84792Y128740D01*
X84748Y128788D01*
X84710Y128841D01*
X84557Y128998D01*
X84409Y129161D01*
X84358Y129203D01*
X84313Y129250D01*
X84139Y129385D01*
X83970Y129525D01*
X83914Y129559D01*
X83863Y129599D01*
X83671Y129708D01*
X83485Y129823D01*
X83425Y129849D01*
X83368Y129882D01*
X83163Y129963D01*
X82962Y130051D01*
X82900Y130068D01*
X82839Y130093D01*
X82625Y130145D01*
X82413Y130204D01*
X82349Y130212D01*
X82285Y130227D01*
X82066Y130249D01*
X81848Y130278D01*
X81783Y130277D01*
X81718Y130284D01*
X81498Y130274D01*
X81279Y130272D01*
X81214Y130262D01*
X81149Y130260D01*
X80932Y130220D01*
X80715Y130187D01*
X80653Y130168D01*
X80588Y130157D01*
X80380Y130087D01*
X80169Y130024D01*
X80110Y129997D01*
X80048Y129976D01*
X79852Y129878D01*
X79652Y129786D01*
X79597Y129751D01*
X79538Y129722D01*
X79357Y129597D01*
X79172Y129478D01*
X79134Y129445D01*
X72765Y131514D01*
X73685Y134346D01*
X76150Y133545D01*
X76197Y133534D01*
X76242Y133517D01*
X76474Y133465D01*
X76703Y133407D01*
X76751Y133403D01*
X76798Y133392D01*
X77035Y133373D01*
X77270Y133349D01*
X77318Y133350D01*
X77366Y133346D01*
X77603Y133361D01*
X77839Y133369D01*
X77887Y133378D01*
X77934Y133381D01*
X78167Y133428D01*
X78400Y133470D01*
X78446Y133485D01*
X78493Y133494D01*
X78716Y133574D01*
X78942Y133648D01*
X78985Y133669D01*
X79030Y133685D01*
X79240Y133794D01*
X79453Y133899D01*
X79492Y133926D01*
X79535Y133949D01*
X79728Y134087D01*
X79924Y134220D01*
X79959Y134252D01*
X79998Y134280D01*
X80170Y134444D01*
X80345Y134604D01*
X80376Y134641D01*
X80410Y134674D01*
X80557Y134860D01*
X80709Y135043D01*
X80734Y135083D01*
X80763Y135121D01*
X80883Y135326D01*
X81007Y135528D01*
X81026Y135572D01*
X81051Y135613D01*
X81140Y135833D01*
X81235Y136050D01*
X81248Y136096D01*
X81266Y136141D01*
X81324Y136371D01*
X81388Y136599D01*
X81394Y136647D01*
X81406Y136693D01*
X81431Y136929D01*
X81462Y137164D01*
X81461Y137212D01*
X81466Y137259D01*
X81459Y137497D01*
X81456Y137734D01*
X81449Y137781D01*
X81448Y137829D01*
X81426Y137937D01*
X81371Y138297D01*
X81312Y138494D01*
X81290Y138602D01*
X80355Y141650D01*
X80029Y142711D01*
X80029Y142712D01*
X79939Y143005D01*
X79939Y143006D01*
X79523Y144361D01*
X77247Y151778D01*
X77201Y151897D01*
X77164Y152020D01*
X77099Y152163D01*
X77042Y152310D01*
X76980Y152421D01*
X76927Y152537D01*
X76841Y152670D01*
X76765Y152807D01*
X76688Y152909D01*
X76619Y153017D01*
X76516Y153136D01*
X76421Y153262D01*
X76330Y153351D01*
X76247Y153448D01*
X76128Y153552D01*
X76016Y153663D01*
X75914Y153739D01*
X75818Y153824D01*
X75686Y153910D01*
X75560Y154004D01*
X75448Y154065D01*
X75341Y154135D01*
X75240Y154179D01*
X75060Y154278D01*
X74719Y154406D01*
X74618Y154450D01*
X68298Y156504D01*
X67677Y157034D01*
X67307Y157761D01*
X67243Y158574D01*
X70276Y167910D01*
X70806Y168530D01*
X71322Y168793D01*
X71455Y168873D01*
X71594Y168945D01*
X71699Y169020D01*
X71810Y169086D01*
X71931Y169184D01*
X72058Y169275D01*
X72152Y169364D01*
X72252Y169445D01*
X72358Y169559D01*
X72472Y169667D01*
X72552Y169768D01*
X72640Y169863D01*
X72729Y169991D01*
X72826Y170113D01*
X72892Y170224D01*
X72966Y170330D01*
X73036Y170469D01*
X73115Y170604D01*
X73164Y170723D01*
X73223Y170839D01*
X73273Y170986D01*
X73332Y171131D01*
X73365Y171256D01*
X73406Y171378D01*
X73435Y171531D01*
X73474Y171682D01*
X73488Y171811D01*
X73512Y171938D01*
X73520Y172094D01*
X73537Y172249D01*
X73533Y172378D01*
X73539Y172507D01*
X73524Y172662D01*
X73520Y172818D01*
X73498Y172946D01*
X73486Y173075D01*
X73450Y173226D01*
X73423Y173380D01*
X73384Y173503D01*
X73354Y173629D01*
X73297Y173774D01*
X73249Y173922D01*
X73193Y174039D01*
X73146Y174159D01*
X73069Y174295D01*
X73001Y174435D01*
X72929Y174543D01*
X72865Y174655D01*
X72770Y174779D01*
X72684Y174908D01*
X72597Y175005D01*
X72518Y175107D01*
X72407Y175216D01*
X72303Y175332D01*
X72204Y175416D01*
X72112Y175506D01*
X71986Y175599D01*
X71867Y175699D01*
X71784Y175748D01*
X71653Y175844D01*
X71247Y176063D01*
X71187Y176099D01*
X68580Y177309D01*
X68123Y177483D01*
X68073Y177504D01*
X46312Y184254D01*
X46227Y184274D01*
X46143Y184303D01*
X45950Y184339D01*
X45758Y184384D01*
X45670Y184392D01*
X45583Y184409D01*
X45387Y184418D01*
X45190Y184436D01*
X45102Y184431D01*
X45014Y184435D01*
X44818Y184417D01*
X44621Y184407D01*
X44535Y184391D01*
X44447Y184382D01*
X44255Y184337D01*
X44062Y184299D01*
X43978Y184271D01*
X43893Y184250D01*
X43709Y184178D01*
X43523Y184114D01*
X43444Y184074D01*
X43362Y184042D01*
X43191Y183945D01*
X43015Y183856D01*
X42943Y183805D01*
X42866Y183762D01*
X42710Y183642D01*
X42548Y183529D01*
X42484Y183469D01*
X42414Y183415D01*
X42276Y183274D01*
X42132Y183140D01*
X42077Y183071D01*
X42015Y183008D01*
X41898Y182849D01*
X41774Y182696D01*
X41729Y182620D01*
X41677Y182549D01*
X41583Y182376D01*
X41482Y182207D01*
X41448Y182126D01*
X41406Y182048D01*
X41338Y181863D01*
X41262Y181682D01*
X41239Y181596D01*
X41209Y181514D01*
X41167Y181321D01*
X41116Y181131D01*
X41106Y181043D01*
X41087Y180957D01*
X41073Y180760D01*
X41050Y180565D01*
X41052Y180477D01*
X41045Y180389D01*
X41058Y180192D01*
X41063Y179995D01*
X41077Y179908D01*
X41083Y179820D01*
X41123Y179628D01*
X41156Y179433D01*
X41182Y179349D01*
X41200Y179263D01*
X41244Y179149D01*
X41326Y178889D01*
X41444Y178642D01*
X41488Y178529D01*
X41777Y177962D01*
X41841Y177149D01*
X41309Y175512D01*
X41305Y175498D01*
X41300Y175484D01*
X41237Y175222D01*
X41171Y174959D01*
X41170Y174945D01*
X41166Y174930D01*
X41140Y174661D01*
X41112Y174392D01*
X41113Y174378D01*
X41111Y174363D01*
X41123Y174089D01*
X41133Y173823D01*
X41136Y173809D01*
X41136Y173794D01*
X41186Y173526D01*
X41234Y173262D01*
X41238Y173248D01*
X41241Y173234D01*
X41327Y172977D01*
X41411Y172721D01*
X41418Y172708D01*
X41422Y172694D01*
X41449Y172644D01*
X41663Y172210D01*
X41751Y172081D01*
X41795Y171999D01*
X45821Y165973D01*
X50214Y155368D01*
X52254Y145112D01*
X52315Y144889D01*
X52370Y144664D01*
X52390Y144614D01*
X52404Y144563D01*
X52495Y144350D01*
X52581Y144135D01*
X52608Y144088D01*
X52629Y144039D01*
X52750Y143842D01*
X52865Y143641D01*
X52893Y143607D01*
X52926Y143553D01*
X53140Y143292D01*
X54448Y140134D01*
X54478Y139995D01*
X54494Y139951D01*
X54505Y139905D01*
X54592Y139683D01*
X54674Y139460D01*
X54696Y139418D01*
X54713Y139375D01*
X54830Y139168D01*
X54942Y138958D01*
X54970Y138920D01*
X54993Y138879D01*
X55139Y138690D01*
X55279Y138498D01*
X55312Y138464D01*
X55340Y138427D01*
X55510Y138260D01*
X55676Y138090D01*
X55714Y138061D01*
X55747Y138028D01*
X55939Y137887D01*
X56127Y137741D01*
X56168Y137718D01*
X56206Y137689D01*
X56415Y137577D01*
X56622Y137459D01*
X56666Y137441D01*
X56707Y137419D01*
X56930Y137336D01*
X57151Y137248D01*
X57197Y137237D01*
X57242Y137221D01*
X57473Y137170D01*
X57705Y137114D01*
X57752Y137110D01*
X57798Y137100D01*
X58035Y137082D01*
X58272Y137059D01*
X58320Y137061D01*
X58367Y137058D01*
X58603Y137073D01*
X58842Y137084D01*
X58888Y137092D01*
X58935Y137095D01*
X59168Y137144D01*
X59402Y137188D01*
X59446Y137203D01*
X59493Y137212D01*
X59595Y137253D01*
X59942Y137369D01*
X60124Y137460D01*
X60227Y137501D01*
X60972Y137880D01*
X61454Y138016D01*
X61953Y138056D01*
X62450Y137997D01*
X65956Y136857D01*
X63781Y130162D01*
X63781Y130161D01*
X63780Y130161D01*
X61605Y123465D01*
X60952Y123677D01*
X60840Y123705D01*
X60731Y123742D01*
X60564Y123774D01*
X60399Y123815D01*
X60284Y123827D01*
X60171Y123848D01*
X60001Y123856D01*
X59832Y123874D01*
X59717Y123870D01*
X59602Y123875D01*
X59433Y123859D01*
X59263Y123853D01*
X59150Y123833D01*
X59035Y123822D01*
X58869Y123783D01*
X58702Y123753D01*
X58592Y123717D01*
X58480Y123690D01*
X58322Y123628D01*
X58161Y123575D01*
X58058Y123524D01*
X57950Y123482D01*
X57802Y123398D01*
X57650Y123323D01*
X57554Y123258D01*
X57454Y123201D01*
X57320Y123098D01*
X57179Y123002D01*
X57093Y122924D01*
X57002Y122854D01*
X56883Y122733D01*
X56757Y122619D01*
X56684Y122530D01*
X56603Y122448D01*
X56502Y122311D01*
X56394Y122180D01*
X56333Y122082D01*
X56265Y121989D01*
X56184Y121839D01*
X56095Y121695D01*
X56049Y121589D01*
X55994Y121488D01*
X55935Y121328D01*
X55867Y121172D01*
X55836Y121061D01*
X55796Y120953D01*
X55760Y120787D01*
X55715Y120623D01*
X55700Y120509D01*
X55675Y120396D01*
X55663Y120227D01*
X55641Y120058D01*
X55642Y119943D01*
X55633Y119828D01*
X55644Y119658D01*
X55646Y119489D01*
X55663Y119375D01*
X55671Y119260D01*
X55706Y119093D01*
X55731Y118925D01*
X55764Y118815D01*
X55788Y118702D01*
X55830Y118595D01*
X55894Y118379D01*
X56033Y118078D01*
X56076Y117968D01*
X56629Y116883D01*
X56693Y116070D01*
X52425Y102934D01*
X52422Y102923D01*
X52418Y102914D01*
X52354Y102649D01*
X52287Y102381D01*
X52286Y102370D01*
X52283Y102360D01*
X52280Y102316D01*
X52228Y101814D01*
X52234Y101664D01*
X52227Y101574D01*
X52404Y94702D01*
X52410Y94636D01*
X52410Y94570D01*
X52438Y94353D01*
X52453Y94189D01*
X52453Y92838D01*
X52458Y92776D01*
X52455Y92734D01*
X52460Y92544D01*
X52472Y92411D01*
X52471Y92329D01*
X52561Y91186D01*
X52573Y91103D01*
X52577Y91019D01*
X52604Y90900D01*
X52645Y90622D01*
X52721Y90367D01*
X52747Y90249D01*
X53492Y87956D01*
X53583Y87730D01*
X53670Y87503D01*
X53687Y87474D01*
X53706Y87428D01*
X53991Y86935D01*
X54042Y86870D01*
X54069Y86823D01*
X55486Y84873D01*
X55643Y84686D01*
X55795Y84497D01*
X55821Y84474D01*
X55853Y84436D01*
X56277Y84056D01*
X56344Y84010D01*
X56385Y83974D01*
X56994Y83532D01*
X57160Y83428D01*
X57320Y83318D01*
X57401Y83278D01*
X57477Y83230D01*
X57655Y83151D01*
X57830Y83064D01*
X57916Y83035D01*
X57998Y82999D01*
X58186Y82945D01*
X58370Y82884D01*
X58459Y82867D01*
X58546Y82843D01*
X58739Y82816D01*
X58931Y82781D01*
X59021Y82777D01*
X59110Y82765D01*
X59306Y82765D01*
X59500Y82757D01*
X59590Y82766D01*
X59680Y82766D01*
X59873Y82794D01*
X60067Y82814D01*
X60155Y82835D01*
X60244Y82848D01*
X60431Y82902D01*
X60621Y82949D01*
X60705Y82982D01*
X60791Y83008D01*
X60969Y83088D01*
X61150Y83160D01*
X61228Y83205D01*
X61310Y83242D01*
X61475Y83346D01*
X61644Y83443D01*
X61716Y83499D01*
X61792Y83547D01*
X61940Y83673D01*
X62094Y83793D01*
X62157Y83858D01*
X62226Y83916D01*
X62355Y84062D01*
X62491Y84202D01*
X62544Y84275D01*
X62604Y84343D01*
X62712Y84505D01*
X62826Y84663D01*
X62869Y84742D01*
X62919Y84818D01*
X63002Y84994D01*
X63094Y85166D01*
X63125Y85250D01*
X63164Y85332D01*
X63222Y85518D01*
X63289Y85701D01*
X63307Y85789D01*
X63335Y85875D01*
X63366Y86068D01*
X63407Y86259D01*
X63413Y86348D01*
X63428Y86438D01*
X63432Y86633D01*
X63446Y86827D01*
X63439Y86897D01*
X63441Y87007D01*
X63375Y87573D01*
X63369Y87595D01*
X63367Y87612D01*
X63245Y88226D01*
X63245Y91017D01*
X72390Y91017D01*
X81535Y91017D01*
X81535Y88226D01*
X81437Y87735D01*
X81246Y87273D01*
X80967Y86856D01*
X80849Y86738D01*
X80699Y86565D01*
X80544Y86396D01*
X80512Y86350D01*
X80476Y86308D01*
X80351Y86115D01*
X80221Y85927D01*
X80196Y85877D01*
X80166Y85830D01*
X80069Y85622D01*
X79967Y85416D01*
X79949Y85364D01*
X79926Y85313D01*
X79860Y85094D01*
X79787Y84876D01*
X79777Y84821D01*
X79761Y84768D01*
X79726Y84541D01*
X79684Y84315D01*
X79682Y84260D01*
X79673Y84205D01*
X79670Y83975D01*
X79661Y83746D01*
X79667Y83691D01*
X79666Y83635D01*
X79695Y83407D01*
X79718Y83179D01*
X79731Y83125D01*
X79738Y83070D01*
X79798Y82849D01*
X79853Y82626D01*
X79874Y82574D01*
X79888Y82520D01*
X79979Y82310D01*
X80064Y82097D01*
X80092Y82048D01*
X80114Y81997D01*
X80234Y81801D01*
X80348Y81602D01*
X80382Y81558D01*
X80411Y81511D01*
X80557Y81333D01*
X80697Y81152D01*
X80737Y81114D01*
X80773Y81071D01*
X80942Y80915D01*
X81107Y80756D01*
X81152Y80723D01*
X81193Y80686D01*
X81382Y80556D01*
X81567Y80421D01*
X81616Y80394D01*
X81662Y80363D01*
X81868Y80261D01*
X82070Y80153D01*
X82113Y80139D01*
X82172Y80109D01*
X82713Y79929D01*
X82777Y79918D01*
X82818Y79904D01*
X89750Y78322D01*
X100354Y73215D01*
X109556Y65876D01*
X116895Y56674D01*
X122002Y46070D01*
X124621Y34595D01*
X124621Y20344D01*
X124621Y20341D01*
X124621Y20338D01*
X124641Y20051D01*
X124661Y19775D01*
X124661Y19773D01*
X124661Y19770D01*
X124721Y19494D01*
X124780Y19218D01*
X124781Y19216D01*
X124781Y19213D01*
X124877Y18951D01*
X124976Y18683D01*
X124977Y18680D01*
X124978Y18678D01*
X125109Y18433D01*
X125244Y18181D01*
X125246Y18178D01*
X125247Y18176D01*
X125420Y17940D01*
X125581Y17721D01*
X125583Y17719D01*
X125584Y17716D01*
X125785Y17511D01*
X125978Y17312D01*
X125980Y17311D01*
X125982Y17309D01*
X126209Y17134D01*
X126429Y16964D01*
X126431Y16962D01*
X126433Y16961D01*
X126445Y16954D01*
X126924Y16681D01*
X127054Y16630D01*
X127129Y16590D01*
X127422Y16469D01*
X128216Y15674D01*
X128310Y15593D01*
X128397Y15504D01*
X128524Y15406D01*
X128646Y15301D01*
X128750Y15233D01*
X128849Y15157D01*
X128989Y15078D01*
X129124Y14991D01*
X129237Y14939D01*
X129345Y14877D01*
X129495Y14819D01*
X129641Y14751D01*
X129760Y14715D01*
X129876Y14670D01*
X130032Y14632D01*
X130186Y14586D01*
X130309Y14567D01*
X130430Y14538D01*
X130542Y14531D01*
X130749Y14498D01*
X131105Y14494D01*
X131217Y14486D01*
X133014Y14543D01*
G37*
G36*
X45167Y-184427D02*
X45167Y-184427D01*
X45365Y-184428D01*
X45452Y-184417D01*
X45540Y-184414D01*
X45659Y-184389D01*
X45930Y-184353D01*
X46193Y-184279D01*
X46312Y-184254D01*
X68073Y-177504D01*
X68529Y-177327D01*
X68580Y-177309D01*
X71187Y-176099D01*
X71324Y-176023D01*
X71465Y-175957D01*
X71573Y-175886D01*
X71686Y-175823D01*
X71810Y-175730D01*
X71941Y-175644D01*
X72038Y-175558D01*
X72141Y-175481D01*
X72251Y-175371D01*
X72369Y-175268D01*
X72453Y-175169D01*
X72544Y-175078D01*
X72638Y-174953D01*
X72739Y-174835D01*
X72809Y-174726D01*
X72887Y-174623D01*
X72962Y-174486D01*
X73046Y-174355D01*
X73100Y-174237D01*
X73162Y-174124D01*
X73218Y-173978D01*
X73283Y-173836D01*
X73319Y-173713D01*
X73365Y-173591D01*
X73400Y-173439D01*
X73444Y-173290D01*
X73463Y-173162D01*
X73492Y-173036D01*
X73505Y-172881D01*
X73528Y-172726D01*
X73529Y-172597D01*
X73540Y-172468D01*
X73531Y-172313D01*
X73532Y-172157D01*
X73515Y-172028D01*
X73507Y-171899D01*
X73477Y-171746D01*
X73456Y-171592D01*
X73421Y-171467D01*
X73396Y-171340D01*
X73344Y-171193D01*
X73302Y-171043D01*
X73250Y-170925D01*
X73207Y-170803D01*
X73136Y-170665D01*
X73073Y-170522D01*
X73005Y-170412D01*
X72946Y-170297D01*
X72855Y-170170D01*
X72773Y-170037D01*
X72690Y-169938D01*
X72615Y-169832D01*
X72508Y-169719D01*
X72408Y-169599D01*
X72312Y-169513D01*
X72224Y-169419D01*
X72102Y-169322D01*
X71986Y-169217D01*
X71905Y-169165D01*
X71778Y-169064D01*
X71380Y-168830D01*
X71322Y-168793D01*
X70806Y-168530D01*
X70276Y-167910D01*
X69745Y-166276D01*
X69656Y-166055D01*
X69571Y-165831D01*
X69549Y-165791D01*
X69532Y-165748D01*
X69412Y-165541D01*
X69297Y-165332D01*
X69269Y-165295D01*
X69246Y-165255D01*
X69099Y-165067D01*
X68956Y-164876D01*
X68923Y-164843D01*
X68895Y-164807D01*
X68723Y-164641D01*
X68554Y-164472D01*
X68523Y-164450D01*
X68484Y-164412D01*
X68022Y-164078D01*
X67954Y-164043D01*
X67913Y-164013D01*
X63575Y-161509D01*
X62807Y-160741D01*
X61822Y-159756D01*
X61412Y-159346D01*
X61412Y-159345D01*
X60016Y-157950D01*
X54536Y-152470D01*
X54490Y-152430D01*
X54449Y-152386D01*
X54275Y-152243D01*
X54106Y-152096D01*
X54055Y-152063D01*
X54008Y-152025D01*
X53816Y-151908D01*
X53628Y-151786D01*
X53573Y-151761D01*
X53521Y-151730D01*
X53315Y-151641D01*
X53111Y-151546D01*
X53053Y-151529D01*
X52998Y-151505D01*
X52781Y-151446D01*
X52565Y-151381D01*
X52506Y-151372D01*
X52448Y-151356D01*
X52330Y-151345D01*
X52002Y-151294D01*
X51977Y-151294D01*
X48973Y-150049D01*
X46699Y-147775D01*
X45445Y-144748D01*
X45445Y-144742D01*
X45429Y-144517D01*
X45416Y-144458D01*
X45410Y-144398D01*
X45357Y-144180D01*
X45310Y-143960D01*
X45289Y-143903D01*
X45275Y-143845D01*
X45191Y-143636D01*
X45114Y-143425D01*
X45085Y-143372D01*
X45063Y-143316D01*
X44951Y-143121D01*
X44845Y-142922D01*
X44809Y-142874D01*
X44779Y-142821D01*
X44705Y-142730D01*
X44509Y-142463D01*
X44352Y-142301D01*
X44279Y-142212D01*
X40594Y-138528D01*
X40505Y-138450D01*
X40422Y-138366D01*
X40290Y-138264D01*
X40164Y-138154D01*
X40064Y-138090D01*
X39971Y-138018D01*
X39870Y-137964D01*
X39685Y-137844D01*
X39378Y-137702D01*
X39276Y-137647D01*
X36147Y-136351D01*
X35919Y-136275D01*
X35692Y-136193D01*
X35649Y-136184D01*
X35607Y-136170D01*
X35370Y-136127D01*
X35134Y-136078D01*
X35090Y-136075D01*
X35046Y-136067D01*
X34806Y-136057D01*
X34566Y-136042D01*
X34521Y-136045D01*
X34477Y-136043D01*
X34237Y-136067D01*
X33998Y-136085D01*
X33954Y-136095D01*
X33910Y-136099D01*
X33676Y-136156D01*
X33441Y-136208D01*
X33399Y-136223D01*
X33356Y-136234D01*
X33133Y-136323D01*
X32907Y-136407D01*
X32868Y-136428D01*
X32827Y-136445D01*
X32618Y-136564D01*
X32407Y-136679D01*
X32371Y-136706D01*
X32332Y-136728D01*
X32143Y-136875D01*
X31949Y-137019D01*
X31917Y-137050D01*
X31882Y-137077D01*
X31715Y-137250D01*
X31543Y-137419D01*
X31516Y-137454D01*
X31485Y-137486D01*
X31343Y-137681D01*
X31198Y-137872D01*
X31176Y-137910D01*
X31150Y-137946D01*
X31036Y-138159D01*
X30919Y-138368D01*
X30902Y-138410D01*
X30881Y-138449D01*
X30799Y-138675D01*
X30712Y-138899D01*
X30702Y-138943D01*
X30686Y-138984D01*
X30636Y-139220D01*
X30581Y-139454D01*
X30577Y-139498D01*
X30568Y-139542D01*
X30551Y-139782D01*
X30530Y-140021D01*
X30532Y-140066D01*
X30529Y-140110D01*
X30546Y-140350D01*
X30558Y-140590D01*
X30566Y-140626D01*
X30570Y-140679D01*
X30689Y-141236D01*
X30716Y-141309D01*
X30728Y-141360D01*
X32061Y-145462D01*
X32119Y-145960D01*
X32080Y-146458D01*
X31944Y-146940D01*
X31717Y-147386D01*
X31407Y-147779D01*
X31027Y-148104D01*
X30590Y-148349D01*
X27084Y-149488D01*
X24908Y-142792D01*
X22675Y-135919D01*
X22765Y-135848D01*
X22922Y-135737D01*
X22989Y-135673D01*
X23062Y-135615D01*
X23196Y-135477D01*
X23335Y-135344D01*
X23393Y-135271D01*
X23457Y-135204D01*
X23570Y-135049D01*
X23689Y-134898D01*
X23736Y-134818D01*
X23791Y-134742D01*
X23880Y-134572D01*
X23977Y-134406D01*
X24013Y-134321D01*
X24056Y-134238D01*
X24121Y-134057D01*
X24194Y-133880D01*
X24217Y-133790D01*
X24248Y-133702D01*
X24287Y-133513D01*
X24335Y-133327D01*
X24345Y-133235D01*
X24364Y-133144D01*
X24376Y-132952D01*
X24397Y-132761D01*
X24394Y-132668D01*
X24400Y-132575D01*
X24385Y-132384D01*
X24380Y-132192D01*
X24364Y-132100D01*
X24357Y-132007D01*
X24315Y-131819D01*
X24282Y-131630D01*
X24254Y-131542D01*
X24234Y-131451D01*
X24167Y-131271D01*
X24108Y-131088D01*
X24067Y-131004D01*
X24035Y-130917D01*
X23943Y-130748D01*
X23859Y-130575D01*
X23807Y-130498D01*
X23763Y-130416D01*
X23648Y-130262D01*
X23541Y-130102D01*
X23479Y-130033D01*
X23423Y-129959D01*
X23288Y-129822D01*
X23160Y-129679D01*
X23089Y-129619D01*
X23023Y-129553D01*
X22870Y-129436D01*
X22723Y-129313D01*
X22644Y-129263D01*
X22570Y-129207D01*
X22403Y-129113D01*
X22240Y-129011D01*
X22155Y-128974D01*
X22074Y-128928D01*
X21894Y-128858D01*
X21719Y-128780D01*
X21629Y-128755D01*
X21543Y-128721D01*
X21355Y-128677D01*
X21171Y-128625D01*
X21099Y-128617D01*
X20988Y-128591D01*
X20420Y-128539D01*
X20401Y-128540D01*
X20387Y-128539D01*
X11254Y-128427D01*
X11111Y-128435D01*
X10968Y-128433D01*
X10827Y-128451D01*
X10685Y-128459D01*
X10545Y-128488D01*
X10403Y-128506D01*
X10305Y-128536D01*
X10126Y-128572D01*
X9739Y-128708D01*
X9649Y-128736D01*
X9636Y-128741D01*
X6620Y-128741D01*
X3833Y-127586D01*
X1700Y-125453D01*
X545Y-122666D01*
X545Y-119650D01*
X1700Y-116863D01*
X2507Y-116055D01*
X2620Y-115925D01*
X2741Y-115801D01*
X2807Y-115710D01*
X2881Y-115625D01*
X2975Y-115480D01*
X3077Y-115341D01*
X3129Y-115241D01*
X3191Y-115147D01*
X3263Y-114990D01*
X3345Y-114838D01*
X3383Y-114732D01*
X3430Y-114630D01*
X3481Y-114465D01*
X3540Y-114302D01*
X3563Y-114192D01*
X3596Y-114085D01*
X3622Y-113914D01*
X3658Y-113745D01*
X3666Y-113633D01*
X3683Y-113522D01*
X3685Y-113349D01*
X3697Y-113177D01*
X3689Y-113064D01*
X3691Y-112952D01*
X3669Y-112781D01*
X3657Y-112608D01*
X3633Y-112498D01*
X3619Y-112387D01*
X3573Y-112220D01*
X3537Y-112051D01*
X3498Y-111946D01*
X3468Y-111837D01*
X3400Y-111678D01*
X3340Y-111516D01*
X3287Y-111417D01*
X3242Y-111314D01*
X3152Y-111167D01*
X3071Y-111014D01*
X3004Y-110924D01*
X2946Y-110828D01*
X2836Y-110694D01*
X2734Y-110555D01*
X2655Y-110474D01*
X2584Y-110388D01*
X2456Y-110271D01*
X2336Y-110147D01*
X2247Y-110079D01*
X2164Y-110002D01*
X2021Y-109905D01*
X1885Y-109799D01*
X1809Y-109759D01*
X1694Y-109680D01*
X1201Y-109434D01*
X1189Y-109428D01*
X176Y-109009D01*
X-1465Y-107368D01*
X-2353Y-105224D01*
X-2353Y-103980D01*
X-2369Y-103751D01*
X-2379Y-103521D01*
X-2389Y-103467D01*
X-2393Y-103412D01*
X-2441Y-103187D01*
X-2483Y-102960D01*
X-2500Y-102908D01*
X-2512Y-102855D01*
X-2591Y-102639D01*
X-2664Y-102420D01*
X-2689Y-102371D01*
X-2708Y-102320D01*
X-2816Y-102117D01*
X-2919Y-101911D01*
X-2951Y-101866D01*
X-2977Y-101817D01*
X-3112Y-101632D01*
X-3243Y-101442D01*
X-3281Y-101401D01*
X-3313Y-101357D01*
X-3473Y-101192D01*
X-3630Y-101023D01*
X-3672Y-100988D01*
X-3710Y-100949D01*
X-3892Y-100808D01*
X-4071Y-100662D01*
X-4118Y-100634D01*
X-4161Y-100600D01*
X-4361Y-100486D01*
X-4558Y-100367D01*
X-4608Y-100345D01*
X-4656Y-100318D01*
X-4871Y-100233D01*
X-5081Y-100142D01*
X-5134Y-100128D01*
X-5186Y-100108D01*
X-5410Y-100053D01*
X-5631Y-99993D01*
X-5676Y-99989D01*
X-5739Y-99974D01*
X-6306Y-99918D01*
X-6372Y-99921D01*
X-6416Y-99917D01*
X-10492Y-99917D01*
X-11245Y-99605D01*
X-11822Y-99028D01*
X-12135Y-98274D01*
X-12135Y-98037D01*
X-12151Y-97807D01*
X-12161Y-97577D01*
X-12171Y-97523D01*
X-12174Y-97468D01*
X-12223Y-97243D01*
X-12265Y-97017D01*
X-12282Y-96965D01*
X-12294Y-96911D01*
X-12373Y-96695D01*
X-12446Y-96477D01*
X-12470Y-96428D01*
X-12489Y-96376D01*
X-12598Y-96173D01*
X-12701Y-95967D01*
X-12732Y-95922D01*
X-12758Y-95873D01*
X-12894Y-95688D01*
X-13025Y-95498D01*
X-13062Y-95458D01*
X-13095Y-95414D01*
X-13255Y-95249D01*
X-13411Y-95079D01*
X-13454Y-95045D01*
X-13492Y-95005D01*
X-13674Y-94865D01*
X-13852Y-94719D01*
X-13899Y-94690D01*
X-13943Y-94657D01*
X-14143Y-94543D01*
X-14339Y-94423D01*
X-14390Y-94402D01*
X-14438Y-94374D01*
X-14652Y-94289D01*
X-14863Y-94199D01*
X-14916Y-94184D01*
X-14967Y-94164D01*
X-15192Y-94110D01*
X-15413Y-94050D01*
X-15457Y-94046D01*
X-15521Y-94030D01*
X-16088Y-93975D01*
X-16154Y-93978D01*
X-16198Y-93973D01*
X-19159Y-93973D01*
X-19388Y-93989D01*
X-19619Y-93999D01*
X-19673Y-94009D01*
X-19727Y-94013D01*
X-19953Y-94061D01*
X-20179Y-94103D01*
X-20231Y-94121D01*
X-20285Y-94132D01*
X-20501Y-94211D01*
X-20719Y-94285D01*
X-20768Y-94309D01*
X-20820Y-94328D01*
X-21023Y-94437D01*
X-21228Y-94540D01*
X-21274Y-94571D01*
X-21322Y-94597D01*
X-21508Y-94733D01*
X-21697Y-94864D01*
X-21738Y-94901D01*
X-21782Y-94933D01*
X-21947Y-95094D01*
X-22116Y-95250D01*
X-22151Y-95293D01*
X-22190Y-95331D01*
X-22331Y-95513D01*
X-22477Y-95691D01*
X-22505Y-95738D01*
X-22539Y-95781D01*
X-22653Y-95981D01*
X-22772Y-96178D01*
X-22794Y-96229D01*
X-22821Y-96276D01*
X-22906Y-96491D01*
X-22997Y-96702D01*
X-23011Y-96755D01*
X-23031Y-96806D01*
X-23086Y-97030D01*
X-23146Y-97252D01*
X-23150Y-97296D01*
X-23166Y-97360D01*
X-23187Y-97579D01*
X-23535Y-98418D01*
X-24111Y-98995D01*
X-25071Y-99393D01*
X-25226Y-99470D01*
X-25384Y-99538D01*
X-25480Y-99597D01*
X-25581Y-99647D01*
X-25724Y-99745D01*
X-25871Y-99835D01*
X-25958Y-99907D01*
X-26050Y-99970D01*
X-26178Y-100087D01*
X-26311Y-100197D01*
X-26387Y-100280D01*
X-26470Y-100356D01*
X-26579Y-100490D01*
X-26696Y-100617D01*
X-26760Y-100710D01*
X-26831Y-100797D01*
X-26921Y-100944D01*
X-27019Y-101087D01*
X-27069Y-101187D01*
X-27127Y-101283D01*
X-27195Y-101442D01*
X-27272Y-101597D01*
X-27308Y-101703D01*
X-27352Y-101807D01*
X-27398Y-101974D01*
X-27452Y-102137D01*
X-27473Y-102248D01*
X-27502Y-102357D01*
X-27524Y-102528D01*
X-27555Y-102698D01*
X-27559Y-102810D01*
X-27573Y-102922D01*
X-27571Y-103095D01*
X-27578Y-103267D01*
X-27567Y-103379D01*
X-27565Y-103492D01*
X-27538Y-103663D01*
X-27521Y-103834D01*
X-27494Y-103943D01*
X-27477Y-104055D01*
X-27427Y-104220D01*
X-27385Y-104388D01*
X-27344Y-104492D01*
X-27311Y-104600D01*
X-27238Y-104756D01*
X-27174Y-104917D01*
X-27118Y-105014D01*
X-27070Y-105116D01*
X-26976Y-105261D01*
X-26890Y-105411D01*
X-26836Y-105477D01*
X-26760Y-105594D01*
X-26685Y-105680D01*
X-26664Y-105710D01*
X-26568Y-105814D01*
X-26398Y-106010D01*
X-26389Y-106020D01*
X-17683Y-114726D01*
X-16859Y-115551D01*
X-16858Y-115551D01*
X-15678Y-116731D01*
X-15678Y-116732D01*
X-11445Y-120965D01*
X-3217Y-133278D01*
X2450Y-146960D01*
X5339Y-161485D01*
X5339Y-162024D01*
X5343Y-162084D01*
X5341Y-162145D01*
X5363Y-162368D01*
X5379Y-162592D01*
X5392Y-162652D01*
X5398Y-162712D01*
X5451Y-162930D01*
X5498Y-163150D01*
X5519Y-163206D01*
X5533Y-163265D01*
X5617Y-163474D01*
X5694Y-163685D01*
X5722Y-163738D01*
X5745Y-163794D01*
X5857Y-163989D01*
X5963Y-164187D01*
X5998Y-164236D01*
X6028Y-164288D01*
X6103Y-164379D01*
X6299Y-164647D01*
X6456Y-164808D01*
X6529Y-164897D01*
X7395Y-165763D01*
X8283Y-167907D01*
X8283Y-170248D01*
X8242Y-170401D01*
X8190Y-170557D01*
X8168Y-170676D01*
X8136Y-170792D01*
X8116Y-170956D01*
X8086Y-171117D01*
X8081Y-171238D01*
X8067Y-171358D01*
X8069Y-171522D01*
X8063Y-171686D01*
X8074Y-171807D01*
X8077Y-171928D01*
X8102Y-172090D01*
X8119Y-172254D01*
X8147Y-172371D01*
X8166Y-172490D01*
X8215Y-172648D01*
X8253Y-172807D01*
X8298Y-172919D01*
X8334Y-173035D01*
X8404Y-173184D01*
X8464Y-173336D01*
X8524Y-173441D01*
X8576Y-173551D01*
X8666Y-173688D01*
X8747Y-173831D01*
X8821Y-173927D01*
X8887Y-174028D01*
X8996Y-174151D01*
X9097Y-174281D01*
X9183Y-174365D01*
X9263Y-174456D01*
X9387Y-174563D01*
X9505Y-174678D01*
X9603Y-174749D01*
X9695Y-174828D01*
X9833Y-174917D01*
X9966Y-175014D01*
X10072Y-175071D01*
X10174Y-175136D01*
X10323Y-175205D01*
X10469Y-175282D01*
X10582Y-175323D01*
X10692Y-175374D01*
X10849Y-175421D01*
X11004Y-175477D01*
X11122Y-175502D01*
X11238Y-175537D01*
X11401Y-175561D01*
X11561Y-175595D01*
X11682Y-175604D01*
X11801Y-175622D01*
X11914Y-175620D01*
X12130Y-175635D01*
X12475Y-175610D01*
X12590Y-175608D01*
X17582Y-175032D01*
X17758Y-174999D01*
X17937Y-174975D01*
X18039Y-174947D01*
X18142Y-174928D01*
X18312Y-174870D01*
X18486Y-174821D01*
X18582Y-174779D01*
X18682Y-174745D01*
X18843Y-174665D01*
X19008Y-174592D01*
X19097Y-174537D01*
X19191Y-174490D01*
X19339Y-174387D01*
X19492Y-174292D01*
X19573Y-174225D01*
X19659Y-174165D01*
X19791Y-174043D01*
X19930Y-173927D01*
X20000Y-173850D01*
X20077Y-173778D01*
X20191Y-173638D01*
X20312Y-173505D01*
X20356Y-173437D01*
X20437Y-173337D01*
X20732Y-172849D01*
X20734Y-172844D01*
X20737Y-172840D01*
X21075Y-172176D01*
X21696Y-171646D01*
X36737Y-166759D01*
X37551Y-166823D01*
X38278Y-167193D01*
X38808Y-167813D01*
X41841Y-177149D01*
X41777Y-177962D01*
X41488Y-178529D01*
X41454Y-178610D01*
X41412Y-178687D01*
X41343Y-178872D01*
X41266Y-179053D01*
X41243Y-179138D01*
X41212Y-179221D01*
X41170Y-179413D01*
X41119Y-179604D01*
X41108Y-179691D01*
X41089Y-179777D01*
X41074Y-179974D01*
X41050Y-180169D01*
X41052Y-180257D01*
X41045Y-180345D01*
X41058Y-180542D01*
X41062Y-180739D01*
X41076Y-180826D01*
X41081Y-180914D01*
X41121Y-181107D01*
X41153Y-181302D01*
X41179Y-181386D01*
X41197Y-181472D01*
X41263Y-181658D01*
X41321Y-181846D01*
X41359Y-181925D01*
X41389Y-182008D01*
X41480Y-182183D01*
X41565Y-182361D01*
X41613Y-182435D01*
X41654Y-182513D01*
X41769Y-182672D01*
X41877Y-182837D01*
X41936Y-182903D01*
X41987Y-182975D01*
X42124Y-183117D01*
X42254Y-183265D01*
X42321Y-183322D01*
X42382Y-183386D01*
X42537Y-183508D01*
X42686Y-183636D01*
X42761Y-183683D01*
X42830Y-183738D01*
X43001Y-183837D01*
X43167Y-183943D01*
X43247Y-183979D01*
X43323Y-184023D01*
X43506Y-184097D01*
X43685Y-184179D01*
X43770Y-184204D01*
X43851Y-184237D01*
X44042Y-184285D01*
X44231Y-184341D01*
X44319Y-184354D01*
X44404Y-184375D01*
X44600Y-184395D01*
X44795Y-184424D01*
X44883Y-184425D01*
X44971Y-184434D01*
X45167Y-184427D01*
G37*
G36*
X92660Y-165267D02*
X92660Y-165267D01*
X92836Y-165263D01*
X92944Y-165246D01*
X93053Y-165237D01*
X93225Y-165199D01*
X93399Y-165171D01*
X93503Y-165138D01*
X93609Y-165115D01*
X93774Y-165053D01*
X93942Y-165000D01*
X94017Y-164963D01*
X94143Y-164915D01*
X94644Y-164643D01*
X94645Y-164643D01*
X112550Y-153212D01*
X112944Y-152920D01*
X112987Y-152890D01*
X131640Y-137120D01*
X131668Y-137093D01*
X131698Y-137070D01*
X131872Y-136895D01*
X132049Y-136723D01*
X132072Y-136692D01*
X132099Y-136665D01*
X132246Y-136467D01*
X132397Y-136272D01*
X132416Y-136239D01*
X132439Y-136208D01*
X132557Y-135992D01*
X132680Y-135777D01*
X132694Y-135741D01*
X132712Y-135708D01*
X132799Y-135477D01*
X132890Y-135247D01*
X132899Y-135210D01*
X132912Y-135174D01*
X132966Y-134933D01*
X133024Y-134693D01*
X133027Y-134656D01*
X133036Y-134618D01*
X133055Y-134372D01*
X133079Y-134126D01*
X133077Y-134088D01*
X133080Y-134050D01*
X133065Y-133803D01*
X133054Y-133557D01*
X133047Y-133520D01*
X133045Y-133481D01*
X132995Y-133239D01*
X132950Y-132997D01*
X132938Y-132961D01*
X132930Y-132923D01*
X132847Y-132691D01*
X132769Y-132457D01*
X132752Y-132422D01*
X132739Y-132387D01*
X132625Y-132169D01*
X132514Y-131947D01*
X132492Y-131916D01*
X132474Y-131882D01*
X132330Y-131682D01*
X132190Y-131479D01*
X132164Y-131450D01*
X132141Y-131419D01*
X131971Y-131241D01*
X131803Y-131060D01*
X131774Y-131036D01*
X131747Y-131008D01*
X131554Y-130855D01*
X131362Y-130699D01*
X131330Y-130679D01*
X131300Y-130656D01*
X131086Y-130532D01*
X130875Y-130404D01*
X130840Y-130389D01*
X130807Y-130369D01*
X130712Y-130334D01*
X130351Y-130179D01*
X130168Y-130130D01*
X130069Y-130092D01*
X127402Y-129378D01*
X121437Y-125934D01*
X116566Y-121063D01*
X113122Y-115098D01*
X112575Y-113056D01*
X112525Y-112911D01*
X112484Y-112762D01*
X112432Y-112641D01*
X112389Y-112517D01*
X112319Y-112380D01*
X112259Y-112239D01*
X112190Y-112127D01*
X112130Y-112010D01*
X112042Y-111884D01*
X111962Y-111753D01*
X111878Y-111651D01*
X111802Y-111543D01*
X111697Y-111431D01*
X111600Y-111313D01*
X111503Y-111224D01*
X111413Y-111128D01*
X111293Y-111031D01*
X111180Y-110928D01*
X111071Y-110853D01*
X110969Y-110771D01*
X110837Y-110692D01*
X110710Y-110605D01*
X110592Y-110546D01*
X110479Y-110479D01*
X110338Y-110420D01*
X110200Y-110351D01*
X110075Y-110310D01*
X109954Y-110259D01*
X109805Y-110220D01*
X109659Y-110171D01*
X109530Y-110148D01*
X109403Y-110114D01*
X109250Y-110097D01*
X109099Y-110069D01*
X108967Y-110064D01*
X108837Y-110048D01*
X108683Y-110052D01*
X108530Y-110046D01*
X108399Y-110059D01*
X108267Y-110062D01*
X108115Y-110087D01*
X107963Y-110103D01*
X107835Y-110134D01*
X107705Y-110155D01*
X107558Y-110202D01*
X107409Y-110238D01*
X107287Y-110287D01*
X107161Y-110327D01*
X107023Y-110393D01*
X106880Y-110450D01*
X106766Y-110515D01*
X106647Y-110572D01*
X106519Y-110657D01*
X106386Y-110733D01*
X106311Y-110795D01*
X106172Y-110887D01*
X105835Y-111186D01*
X105777Y-111234D01*
X91837Y-125174D01*
X91798Y-125219D01*
X91753Y-125260D01*
X91611Y-125434D01*
X91464Y-125604D01*
X91431Y-125655D01*
X91393Y-125701D01*
X91276Y-125894D01*
X91154Y-126082D01*
X91128Y-126137D01*
X91097Y-126188D01*
X91009Y-126395D01*
X90914Y-126599D01*
X90896Y-126657D01*
X90873Y-126712D01*
X90814Y-126929D01*
X90749Y-127144D01*
X90740Y-127204D01*
X90724Y-127262D01*
X90712Y-127379D01*
X90661Y-127707D01*
X90658Y-127932D01*
X90647Y-128047D01*
X90647Y-129020D01*
X89759Y-131164D01*
X88119Y-132804D01*
X85975Y-133692D01*
X83654Y-133692D01*
X80813Y-132515D01*
X80691Y-132475D01*
X80572Y-132424D01*
X80421Y-132384D01*
X80273Y-132335D01*
X80146Y-132311D01*
X80021Y-132278D01*
X79866Y-132260D01*
X79712Y-132232D01*
X79583Y-132226D01*
X79455Y-132211D01*
X79299Y-132214D01*
X79143Y-132208D01*
X79014Y-132220D01*
X78886Y-132223D01*
X78732Y-132248D01*
X78576Y-132264D01*
X78450Y-132294D01*
X78323Y-132315D01*
X78174Y-132362D01*
X78022Y-132399D01*
X77903Y-132446D01*
X77779Y-132485D01*
X77673Y-132535D01*
X64412Y-136844D01*
X64314Y-136883D01*
X64213Y-136914D01*
X64050Y-136990D01*
X63884Y-137058D01*
X63792Y-137110D01*
X63697Y-137155D01*
X63546Y-137253D01*
X63390Y-137343D01*
X63308Y-137408D01*
X63219Y-137465D01*
X63084Y-137584D01*
X62942Y-137695D01*
X62869Y-137771D01*
X62790Y-137840D01*
X62672Y-137976D01*
X62547Y-138106D01*
X62486Y-138191D01*
X62417Y-138271D01*
X62319Y-138422D01*
X62214Y-138568D01*
X62165Y-138661D01*
X62108Y-138749D01*
X62032Y-138912D01*
X61948Y-139072D01*
X61913Y-139171D01*
X61869Y-139266D01*
X61817Y-139439D01*
X61756Y-139608D01*
X61735Y-139711D01*
X61704Y-139812D01*
X61677Y-139990D01*
X61640Y-140166D01*
X61634Y-140271D01*
X61618Y-140375D01*
X61616Y-140555D01*
X61604Y-140735D01*
X61612Y-140839D01*
X61611Y-140945D01*
X61634Y-141124D01*
X61634Y-141125D01*
X61634Y-141308D01*
X61638Y-141368D01*
X61636Y-141429D01*
X61658Y-141652D01*
X61674Y-141877D01*
X61687Y-141936D01*
X61693Y-141996D01*
X61746Y-142214D01*
X61793Y-142434D01*
X61814Y-142490D01*
X61828Y-142549D01*
X61912Y-142758D01*
X61989Y-142969D01*
X62018Y-143022D01*
X62040Y-143078D01*
X62152Y-143273D01*
X62258Y-143471D01*
X62293Y-143520D01*
X62323Y-143573D01*
X62398Y-143664D01*
X62594Y-143931D01*
X62751Y-144092D01*
X62824Y-144181D01*
X69161Y-150518D01*
X69700Y-151057D01*
X69827Y-151167D01*
X69894Y-151239D01*
X70627Y-151882D01*
X70630Y-151884D01*
X70633Y-151887D01*
X70648Y-151898D01*
X71081Y-152226D01*
X71204Y-152295D01*
X71274Y-152345D01*
X72959Y-153318D01*
X73082Y-153378D01*
X73201Y-153447D01*
X73214Y-153452D01*
X73231Y-153462D01*
X73353Y-153510D01*
X73471Y-153568D01*
X73617Y-153615D01*
X73760Y-153672D01*
X73871Y-153699D01*
X73939Y-153724D01*
X74374Y-153841D01*
X74575Y-153880D01*
X74774Y-153927D01*
X74855Y-153934D01*
X74933Y-153949D01*
X75138Y-153960D01*
X75342Y-153978D01*
X75422Y-153974D01*
X75502Y-153978D01*
X75706Y-153960D01*
X75911Y-153950D01*
X75973Y-153936D01*
X76070Y-153928D01*
X76625Y-153798D01*
X76657Y-153785D01*
X76681Y-153780D01*
X83339Y-151617D01*
X84153Y-151681D01*
X84879Y-152051D01*
X85409Y-152671D01*
X88594Y-162473D01*
X88660Y-162637D01*
X88717Y-162803D01*
X88767Y-162900D01*
X88808Y-163002D01*
X88896Y-163154D01*
X88976Y-163311D01*
X89039Y-163400D01*
X89093Y-163495D01*
X89202Y-163633D01*
X89303Y-163777D01*
X89377Y-163857D01*
X89445Y-163943D01*
X89572Y-164065D01*
X89692Y-164194D01*
X89777Y-164262D01*
X89856Y-164338D01*
X89999Y-164441D01*
X90135Y-164551D01*
X90229Y-164607D01*
X90318Y-164671D01*
X90473Y-164753D01*
X90625Y-164844D01*
X90725Y-164886D01*
X90822Y-164937D01*
X90988Y-164996D01*
X91150Y-165065D01*
X91255Y-165092D01*
X91358Y-165129D01*
X91531Y-165165D01*
X91701Y-165210D01*
X91809Y-165223D01*
X91916Y-165245D01*
X92092Y-165256D01*
X92267Y-165277D01*
X92376Y-165274D01*
X92485Y-165281D01*
X92660Y-165267D01*
G37*
G36*
X8152Y-32133D02*
X8152Y-32133D01*
X8382Y-32123D01*
X8436Y-32113D01*
X8491Y-32110D01*
X8716Y-32061D01*
X8942Y-32019D01*
X8994Y-32002D01*
X9048Y-31991D01*
X9264Y-31911D01*
X9482Y-31838D01*
X9531Y-31814D01*
X9583Y-31795D01*
X9786Y-31686D01*
X9992Y-31583D01*
X10037Y-31552D01*
X10085Y-31526D01*
X10271Y-31391D01*
X10461Y-31259D01*
X10501Y-31222D01*
X10545Y-31190D01*
X10710Y-31029D01*
X10879Y-30873D01*
X10914Y-30830D01*
X10954Y-30792D01*
X11094Y-30610D01*
X11240Y-30432D01*
X11269Y-30385D01*
X11302Y-30341D01*
X11416Y-30142D01*
X11536Y-29945D01*
X11557Y-29894D01*
X11585Y-29846D01*
X11670Y-29632D01*
X11760Y-29421D01*
X11774Y-29368D01*
X11795Y-29317D01*
X11849Y-29093D01*
X11909Y-28871D01*
X11913Y-28827D01*
X11929Y-28763D01*
X11984Y-28196D01*
X11981Y-28130D01*
X11986Y-28086D01*
X11986Y-17504D01*
X12034Y-17479D01*
X12079Y-17448D01*
X12127Y-17422D01*
X12313Y-17287D01*
X12502Y-17156D01*
X12543Y-17118D01*
X12587Y-17086D01*
X12752Y-16925D01*
X12921Y-16769D01*
X12956Y-16727D01*
X12996Y-16688D01*
X13136Y-16507D01*
X13282Y-16328D01*
X13311Y-16281D01*
X13344Y-16238D01*
X13405Y-16131D01*
X17312Y-12224D01*
X19235Y-12224D01*
X19465Y-12208D01*
X19695Y-12198D01*
X19749Y-12188D01*
X19804Y-12184D01*
X20029Y-12136D01*
X20255Y-12094D01*
X20307Y-12077D01*
X20361Y-12065D01*
X20577Y-11986D01*
X20795Y-11913D01*
X20844Y-11888D01*
X20896Y-11869D01*
X21099Y-11761D01*
X21305Y-11658D01*
X21350Y-11626D01*
X21398Y-11600D01*
X21584Y-11465D01*
X21773Y-11334D01*
X21814Y-11296D01*
X21858Y-11264D01*
X22023Y-11104D01*
X22192Y-10948D01*
X22227Y-10905D01*
X22266Y-10867D01*
X22407Y-10685D01*
X22553Y-10506D01*
X22582Y-10459D01*
X22615Y-10416D01*
X22729Y-10216D01*
X22849Y-10019D01*
X22870Y-9969D01*
X22897Y-9921D01*
X22983Y-9706D01*
X23073Y-9496D01*
X23087Y-9443D01*
X23108Y-9391D01*
X23162Y-9167D01*
X23222Y-8946D01*
X23226Y-8901D01*
X23242Y-8838D01*
X23297Y-8271D01*
X23294Y-8205D01*
X23298Y-8161D01*
X23298Y11539D01*
X23294Y11600D01*
X23297Y11660D01*
X23274Y11883D01*
X23259Y12108D01*
X23246Y12167D01*
X23240Y12227D01*
X23186Y12445D01*
X23139Y12665D01*
X23119Y12722D01*
X23104Y12780D01*
X23021Y12989D01*
X22944Y13200D01*
X22915Y13253D01*
X22893Y13309D01*
X22781Y13504D01*
X22675Y13702D01*
X22639Y13751D01*
X22609Y13804D01*
X22534Y13895D01*
X22338Y14162D01*
X22182Y14323D01*
X22108Y14413D01*
X21917Y14604D01*
X21540Y15513D01*
X21446Y15702D01*
X21359Y15894D01*
X21319Y15957D01*
X21286Y16023D01*
X21166Y16197D01*
X21053Y16375D01*
X21005Y16431D01*
X20963Y16492D01*
X20820Y16648D01*
X20683Y16808D01*
X20627Y16857D01*
X20577Y16912D01*
X20414Y17046D01*
X20255Y17185D01*
X20194Y17226D01*
X20136Y17273D01*
X19956Y17383D01*
X19780Y17499D01*
X19713Y17531D01*
X19650Y17569D01*
X19456Y17653D01*
X19265Y17743D01*
X19194Y17765D01*
X19126Y17794D01*
X18923Y17850D01*
X18721Y17913D01*
X18648Y17925D01*
X18576Y17944D01*
X18367Y17971D01*
X18159Y18005D01*
X18084Y18006D01*
X18011Y18015D01*
X17800Y18012D01*
X17589Y18017D01*
X17515Y18008D01*
X17441Y18007D01*
X17233Y17974D01*
X17023Y17949D01*
X16952Y17930D01*
X16878Y17919D01*
X16676Y17858D01*
X16472Y17803D01*
X16419Y17779D01*
X16333Y17753D01*
X15817Y17512D01*
X15781Y17489D01*
X15755Y17477D01*
X13032Y15905D01*
X8723Y14751D01*
X8578Y14701D01*
X8430Y14660D01*
X8309Y14608D01*
X8185Y14565D01*
X8048Y14495D01*
X7907Y14434D01*
X7795Y14366D01*
X7677Y14306D01*
X7552Y14218D01*
X7421Y14138D01*
X7319Y14054D01*
X7211Y13978D01*
X7099Y13873D01*
X6981Y13776D01*
X6892Y13679D01*
X6795Y13589D01*
X6699Y13469D01*
X6595Y13356D01*
X6521Y13247D01*
X6438Y13145D01*
X6360Y13013D01*
X6273Y12886D01*
X6214Y12768D01*
X6147Y12655D01*
X6087Y12513D01*
X6019Y12376D01*
X5978Y12251D01*
X5927Y12130D01*
X5888Y11981D01*
X5839Y11835D01*
X5816Y11706D01*
X5782Y11578D01*
X5764Y11426D01*
X5737Y11275D01*
X5731Y11143D01*
X5716Y11012D01*
X5720Y10859D01*
X5714Y10705D01*
X5727Y10574D01*
X5730Y10443D01*
X5755Y10292D01*
X5770Y10139D01*
X5802Y10011D01*
X5823Y9881D01*
X5869Y9734D01*
X5906Y9585D01*
X5955Y9463D01*
X5994Y9337D01*
X6061Y9198D01*
X6118Y9056D01*
X6183Y8942D01*
X6240Y8823D01*
X6325Y8695D01*
X6401Y8562D01*
X6463Y8487D01*
X6555Y8348D01*
X6854Y8011D01*
X6902Y7953D01*
X8064Y6791D01*
X9051Y5433D01*
X9813Y3936D01*
X9823Y3904D01*
X-74Y3904D01*
X-303Y3888D01*
X-533Y3878D01*
X-587Y3868D01*
X-642Y3865D01*
X-867Y3816D01*
X-1093Y3774D01*
X-1146Y3757D01*
X-1199Y3745D01*
X-1415Y3666D01*
X-1634Y3593D01*
X-1683Y3569D01*
X-1734Y3550D01*
X-1937Y3441D01*
X-2143Y3338D01*
X-2188Y3307D01*
X-2237Y3281D01*
X-2422Y3145D01*
X-2612Y3014D01*
X-2652Y2977D01*
X-2697Y2944D01*
X-2861Y2784D01*
X-3031Y2628D01*
X-3066Y2585D01*
X-3105Y2547D01*
X-3246Y2365D01*
X-3392Y2187D01*
X-3420Y2140D01*
X-3454Y2096D01*
X-3568Y1896D01*
X-3687Y1700D01*
X-3709Y1649D01*
X-3736Y1601D01*
X-3821Y1387D01*
X-3911Y1176D01*
X-3926Y1123D01*
X-3946Y1072D01*
X-4000Y847D01*
X-4060Y626D01*
X-4065Y582D01*
X-4080Y518D01*
X-4135Y-49D01*
X-4133Y-104D01*
X-4133Y-115D01*
X-4137Y-159D01*
X-4121Y-389D01*
X-4111Y-619D01*
X-4101Y-673D01*
X-4097Y-728D01*
X-4049Y-953D01*
X-4007Y-1179D01*
X-3989Y-1231D01*
X-3978Y-1285D01*
X-3899Y-1501D01*
X-3826Y-1719D01*
X-3801Y-1768D01*
X-3782Y-1820D01*
X-3673Y-2023D01*
X-3570Y-2229D01*
X-3539Y-2274D01*
X-3513Y-2322D01*
X-3378Y-2508D01*
X-3247Y-2697D01*
X-3209Y-2738D01*
X-3177Y-2782D01*
X-3017Y-2947D01*
X-2860Y-3116D01*
X-2818Y-3151D01*
X-2779Y-3190D01*
X-2598Y-3331D01*
X-2419Y-3477D01*
X-2372Y-3506D01*
X-2329Y-3539D01*
X-2129Y-3653D01*
X-1932Y-3772D01*
X-1882Y-3794D01*
X-1834Y-3821D01*
X-1619Y-3907D01*
X-1408Y-3997D01*
X-1356Y-4011D01*
X-1304Y-4032D01*
X-1080Y-4086D01*
X-858Y-4146D01*
X-814Y-4150D01*
X-750Y-4166D01*
X-183Y-4221D01*
X-118Y-4218D01*
X-74Y-4222D01*
X9824Y-4222D01*
X9813Y-4254D01*
X9051Y-5751D01*
X8064Y-7109D01*
X6876Y-8297D01*
X5518Y-9284D01*
X4021Y-10046D01*
X3799Y-10118D01*
X3598Y-10200D01*
X3394Y-10274D01*
X3334Y-10306D01*
X3271Y-10332D01*
X3083Y-10441D01*
X2892Y-10543D01*
X2837Y-10583D01*
X2778Y-10617D01*
X2607Y-10751D01*
X2432Y-10879D01*
X2383Y-10927D01*
X2330Y-10969D01*
X2179Y-11125D01*
X2024Y-11277D01*
X1982Y-11331D01*
X1935Y-11380D01*
X1808Y-11556D01*
X1675Y-11727D01*
X1641Y-11787D01*
X1601Y-11842D01*
X1500Y-12034D01*
X1393Y-12222D01*
X1368Y-12286D01*
X1336Y-12346D01*
X1263Y-12550D01*
X1182Y-12752D01*
X1166Y-12818D01*
X1143Y-12882D01*
X1099Y-13095D01*
X1048Y-13306D01*
X1042Y-13374D01*
X1028Y-13440D01*
X1014Y-13657D01*
X993Y-13873D01*
X996Y-13941D01*
X992Y-14009D01*
X1008Y-14225D01*
X1018Y-14442D01*
X1030Y-14509D01*
X1035Y-14577D01*
X1082Y-14789D01*
X1122Y-15002D01*
X1143Y-15067D01*
X1158Y-15133D01*
X1234Y-15337D01*
X1303Y-15543D01*
X1333Y-15603D01*
X1357Y-15667D01*
X1461Y-15858D01*
X1558Y-16052D01*
X1597Y-16108D01*
X1629Y-16168D01*
X1759Y-16342D01*
X1882Y-16521D01*
X1928Y-16571D01*
X1969Y-16625D01*
X2121Y-16780D01*
X2268Y-16940D01*
X2321Y-16983D01*
X2369Y-17031D01*
X2541Y-17163D01*
X2709Y-17301D01*
X2767Y-17336D01*
X2821Y-17377D01*
X3011Y-17483D01*
X3196Y-17596D01*
X3259Y-17623D01*
X3318Y-17656D01*
X3521Y-17735D01*
X3720Y-17820D01*
X3786Y-17838D01*
X3849Y-17863D01*
X3859Y-17865D01*
X3859Y-28086D01*
X3875Y-28316D01*
X3885Y-28546D01*
X3895Y-28600D01*
X3899Y-28655D01*
X3947Y-28880D01*
X3989Y-29106D01*
X4006Y-29158D01*
X4018Y-29212D01*
X4097Y-29428D01*
X4170Y-29646D01*
X4195Y-29695D01*
X4214Y-29747D01*
X4322Y-29950D01*
X4425Y-30156D01*
X4456Y-30201D01*
X4482Y-30249D01*
X4618Y-30435D01*
X4749Y-30625D01*
X4786Y-30665D01*
X4819Y-30709D01*
X4979Y-30874D01*
X5135Y-31043D01*
X5178Y-31078D01*
X5216Y-31118D01*
X5398Y-31258D01*
X5576Y-31404D01*
X5624Y-31433D01*
X5667Y-31466D01*
X5867Y-31580D01*
X6064Y-31700D01*
X6114Y-31721D01*
X6162Y-31749D01*
X6376Y-31834D01*
X6587Y-31924D01*
X6640Y-31938D01*
X6691Y-31959D01*
X6916Y-32013D01*
X7137Y-32073D01*
X7181Y-32077D01*
X7245Y-32093D01*
X7812Y-32148D01*
X7813Y-32148D01*
X7878Y-32145D01*
X7922Y-32150D01*
X8152Y-32133D01*
G37*
G36*
X13634Y-114840D02*
X13634Y-114840D01*
X13647Y-114841D01*
X13917Y-114812D01*
X14188Y-114786D01*
X14201Y-114782D01*
X14214Y-114781D01*
X14479Y-114715D01*
X14742Y-114651D01*
X14754Y-114646D01*
X14767Y-114643D01*
X15019Y-114540D01*
X15271Y-114440D01*
X15282Y-114433D01*
X15295Y-114428D01*
X15528Y-114293D01*
X15765Y-114157D01*
X15776Y-114149D01*
X15787Y-114142D01*
X16000Y-113975D01*
X16216Y-113808D01*
X16225Y-113798D01*
X16235Y-113790D01*
X16423Y-113594D01*
X16612Y-113399D01*
X16620Y-113388D01*
X16629Y-113379D01*
X16787Y-113159D01*
X16948Y-112938D01*
X16954Y-112927D01*
X16962Y-112916D01*
X17089Y-112675D01*
X17216Y-112436D01*
X17221Y-112423D01*
X17227Y-112412D01*
X17318Y-112156D01*
X17411Y-111900D01*
X17414Y-111887D01*
X17419Y-111875D01*
X17428Y-111824D01*
X17516Y-111408D01*
X17905Y-110644D01*
X18526Y-110114D01*
X31665Y-105845D01*
X32223Y-105889D01*
X32398Y-105890D01*
X32572Y-105901D01*
X32682Y-105892D01*
X32793Y-105893D01*
X32966Y-105870D01*
X33140Y-105857D01*
X33248Y-105833D01*
X33358Y-105818D01*
X33526Y-105771D01*
X33696Y-105734D01*
X33800Y-105695D01*
X33907Y-105665D01*
X34067Y-105595D01*
X34230Y-105534D01*
X34327Y-105481D01*
X34429Y-105437D01*
X34577Y-105345D01*
X34730Y-105262D01*
X34819Y-105196D01*
X34914Y-105137D01*
X35048Y-105026D01*
X35187Y-104922D01*
X35246Y-104861D01*
X35352Y-104773D01*
X35729Y-104358D01*
X35733Y-104353D01*
X35777Y-104297D01*
X36364Y-103797D01*
X36442Y-103720D01*
X36527Y-103650D01*
X36645Y-103520D01*
X36770Y-103397D01*
X36837Y-103310D01*
X36911Y-103229D01*
X37010Y-103084D01*
X37116Y-102945D01*
X37170Y-102849D01*
X37232Y-102758D01*
X37310Y-102601D01*
X37396Y-102448D01*
X37436Y-102346D01*
X37485Y-102248D01*
X37540Y-102081D01*
X37604Y-101918D01*
X37629Y-101811D01*
X37663Y-101706D01*
X37695Y-101534D01*
X37735Y-101363D01*
X37745Y-101254D01*
X37765Y-101146D01*
X37771Y-100970D01*
X37787Y-100796D01*
X37782Y-100686D01*
X37786Y-100576D01*
X37768Y-100402D01*
X37760Y-100227D01*
X37739Y-100119D01*
X37728Y-100010D01*
X37686Y-99839D01*
X37653Y-99667D01*
X37618Y-99563D01*
X37591Y-99456D01*
X37526Y-99294D01*
X37469Y-99128D01*
X37419Y-99029D01*
X37378Y-98928D01*
X37291Y-98776D01*
X37211Y-98619D01*
X37148Y-98530D01*
X37094Y-98434D01*
X36985Y-98296D01*
X36885Y-98152D01*
X36810Y-98072D01*
X36743Y-97986D01*
X36616Y-97864D01*
X36497Y-97735D01*
X36411Y-97666D01*
X36332Y-97590D01*
X36190Y-97487D01*
X36054Y-97377D01*
X35960Y-97321D01*
X35871Y-97256D01*
X35715Y-97174D01*
X35565Y-97084D01*
X35464Y-97041D01*
X35367Y-96990D01*
X35202Y-96931D01*
X35040Y-96862D01*
X34934Y-96834D01*
X34831Y-96797D01*
X34716Y-96776D01*
X34489Y-96716D01*
X34172Y-96678D01*
X34055Y-96657D01*
X22739Y-95735D01*
X22571Y-95734D01*
X22404Y-95722D01*
X22286Y-95730D01*
X22169Y-95729D01*
X22003Y-95751D01*
X21835Y-95763D01*
X21721Y-95787D01*
X21604Y-95802D01*
X21442Y-95847D01*
X21278Y-95882D01*
X21168Y-95923D01*
X21055Y-95954D01*
X20901Y-96021D01*
X20743Y-96079D01*
X20640Y-96135D01*
X20532Y-96181D01*
X20389Y-96269D01*
X20241Y-96348D01*
X20147Y-96418D01*
X20047Y-96479D01*
X19917Y-96586D01*
X19782Y-96686D01*
X19698Y-96768D01*
X19607Y-96842D01*
X19494Y-96966D01*
X19374Y-97083D01*
X19302Y-97177D01*
X19223Y-97263D01*
X19129Y-97402D01*
X19026Y-97535D01*
X18984Y-97613D01*
X18902Y-97734D01*
X18671Y-98200D01*
X18655Y-98230D01*
X18325Y-99028D01*
X17748Y-99605D01*
X16994Y-99917D01*
X13376Y-99917D01*
X13146Y-99933D01*
X12916Y-99943D01*
X12862Y-99953D01*
X12807Y-99957D01*
X12582Y-100005D01*
X12356Y-100047D01*
X12304Y-100065D01*
X12250Y-100076D01*
X12034Y-100155D01*
X11816Y-100228D01*
X11767Y-100253D01*
X11715Y-100272D01*
X11512Y-100380D01*
X11306Y-100483D01*
X11261Y-100515D01*
X11213Y-100541D01*
X11027Y-100676D01*
X10838Y-100807D01*
X10797Y-100845D01*
X10753Y-100877D01*
X10588Y-101037D01*
X10419Y-101194D01*
X10384Y-101236D01*
X10345Y-101274D01*
X10204Y-101456D01*
X10058Y-101635D01*
X10029Y-101682D01*
X9996Y-101725D01*
X9882Y-101925D01*
X9762Y-102122D01*
X9741Y-102172D01*
X9714Y-102220D01*
X9628Y-102435D01*
X9538Y-102646D01*
X9524Y-102698D01*
X9503Y-102750D01*
X9449Y-102974D01*
X9389Y-103195D01*
X9385Y-103240D01*
X9369Y-103303D01*
X9314Y-103871D01*
X9317Y-103936D01*
X9313Y-103980D01*
X9313Y-105224D01*
X8393Y-107443D01*
X8390Y-107447D01*
X8317Y-107532D01*
X8223Y-107677D01*
X8121Y-107817D01*
X8068Y-107916D01*
X8007Y-108010D01*
X7934Y-108167D01*
X7853Y-108320D01*
X7814Y-108425D01*
X7767Y-108527D01*
X7717Y-108693D01*
X7657Y-108855D01*
X7634Y-108965D01*
X7602Y-109073D01*
X7575Y-109244D01*
X7539Y-109412D01*
X7531Y-109524D01*
X7514Y-109636D01*
X7512Y-109809D01*
X7500Y-109981D01*
X7508Y-110093D01*
X7506Y-110205D01*
X7528Y-110377D01*
X7541Y-110549D01*
X7564Y-110659D01*
X7579Y-110771D01*
X7624Y-110937D01*
X7661Y-111106D01*
X7699Y-111212D01*
X7729Y-111320D01*
X7797Y-111479D01*
X7857Y-111641D01*
X7910Y-111740D01*
X7955Y-111843D01*
X8045Y-111991D01*
X8127Y-112143D01*
X8193Y-112234D01*
X8252Y-112330D01*
X8361Y-112463D01*
X8464Y-112603D01*
X8542Y-112683D01*
X8613Y-112770D01*
X8741Y-112887D01*
X8862Y-113010D01*
X8950Y-113079D01*
X9033Y-113155D01*
X9176Y-113253D01*
X9313Y-113358D01*
X9388Y-113399D01*
X9503Y-113478D01*
X9997Y-113723D01*
X10008Y-113729D01*
X11951Y-114534D01*
X11963Y-114538D01*
X11975Y-114544D01*
X12235Y-114629D01*
X12491Y-114715D01*
X12504Y-114717D01*
X12517Y-114721D01*
X12787Y-114769D01*
X13052Y-114818D01*
X13065Y-114818D01*
X13078Y-114821D01*
X13350Y-114830D01*
X13621Y-114842D01*
X13634Y-114840D01*
G37*
%LPC*%
G36*
X20704Y123721D02*
X20704Y123721D01*
X21844Y127227D01*
X22088Y127664D01*
X22413Y128045D01*
X22806Y128354D01*
X23252Y128582D01*
X23311Y128598D01*
X23527Y128676D01*
X23744Y128747D01*
X23794Y128772D01*
X23847Y128791D01*
X24050Y128898D01*
X24255Y128999D01*
X24301Y129030D01*
X24351Y129057D01*
X24537Y129191D01*
X24726Y129320D01*
X24767Y129357D01*
X24813Y129390D01*
X24978Y129549D01*
X25147Y129703D01*
X25183Y129746D01*
X25224Y129785D01*
X25227Y129790D01*
X25228Y129788D01*
X25276Y129684D01*
X25368Y129541D01*
X25451Y129393D01*
X25521Y129301D01*
X25584Y129204D01*
X25695Y129075D01*
X25798Y128941D01*
X25880Y128860D01*
X25956Y128773D01*
X26084Y128660D01*
X26205Y128542D01*
X26298Y128473D01*
X26384Y128397D01*
X26527Y128304D01*
X26664Y128203D01*
X26765Y128149D01*
X26861Y128086D01*
X26967Y128040D01*
X27165Y127933D01*
X27291Y127886D01*
X25438Y122183D01*
X20704Y123721D01*
G37*
%LPD*%
%LPC*%
G36*
X-114250Y60090D02*
X-114250Y60090D01*
X-114590Y60457D01*
X-114851Y60884D01*
X-115024Y61354D01*
X-115103Y61848D01*
X-115100Y61910D01*
X-115107Y62139D01*
X-115108Y62368D01*
X-115116Y62424D01*
X-115118Y62480D01*
X-115157Y62705D01*
X-115190Y62932D01*
X-115205Y62986D01*
X-115215Y63041D01*
X-115285Y63260D01*
X-115349Y63479D01*
X-115372Y63530D01*
X-115390Y63584D01*
X-115490Y63790D01*
X-115584Y63998D01*
X-115614Y64045D01*
X-115639Y64096D01*
X-115640Y64099D01*
X-115526Y64112D01*
X-115362Y64155D01*
X-115195Y64189D01*
X-115086Y64228D01*
X-114975Y64257D01*
X-114818Y64323D01*
X-114658Y64379D01*
X-114556Y64433D01*
X-114450Y64477D01*
X-114303Y64564D01*
X-114153Y64643D01*
X-114059Y64710D01*
X-113960Y64769D01*
X-113828Y64876D01*
X-113690Y64975D01*
X-113606Y65054D01*
X-113516Y65126D01*
X-113440Y65213D01*
X-113277Y65368D01*
X-113193Y65474D01*
X-108342Y61949D01*
X-111267Y57923D01*
X-114250Y60090D01*
G37*
%LPD*%
%LPC*%
G36*
X-94390Y-90357D02*
X-94390Y-90357D01*
X-94448Y-90335D01*
X-94668Y-90271D01*
X-94886Y-90201D01*
X-94941Y-90192D01*
X-94995Y-90176D01*
X-95222Y-90143D01*
X-95447Y-90105D01*
X-95503Y-90103D01*
X-95559Y-90095D01*
X-95788Y-90094D01*
X-96017Y-90087D01*
X-96073Y-90094D01*
X-96129Y-90093D01*
X-96355Y-90125D01*
X-96583Y-90150D01*
X-96638Y-90164D01*
X-96693Y-90172D01*
X-96696Y-90172D01*
X-96674Y-90060D01*
X-96664Y-89891D01*
X-96644Y-89722D01*
X-96648Y-89606D01*
X-96641Y-89491D01*
X-96655Y-89322D01*
X-96660Y-89152D01*
X-96679Y-89038D01*
X-96688Y-88924D01*
X-96726Y-88758D01*
X-96754Y-88590D01*
X-96789Y-88480D01*
X-96815Y-88368D01*
X-96875Y-88209D01*
X-96926Y-88047D01*
X-96976Y-87943D01*
X-97017Y-87835D01*
X-97076Y-87736D01*
X-97173Y-87533D01*
X-97248Y-87420D01*
X-92397Y-83895D01*
X-89471Y-87922D01*
X-92454Y-90089D01*
X-92909Y-90299D01*
X-93395Y-90416D01*
X-93895Y-90435D01*
X-94390Y-90357D01*
G37*
%LPD*%
%LPC*%
G36*
X122823Y-19811D02*
X122823Y-19811D01*
X122823Y-14833D01*
X128818Y-14833D01*
X128825Y-14898D01*
X128841Y-15125D01*
X128853Y-15181D01*
X128858Y-15239D01*
X128912Y-15460D01*
X128960Y-15682D01*
X128980Y-15736D01*
X128993Y-15792D01*
X129077Y-16004D01*
X129156Y-16217D01*
X129183Y-16268D01*
X129204Y-16322D01*
X129317Y-16519D01*
X129424Y-16720D01*
X129458Y-16766D01*
X129487Y-16816D01*
X129517Y-16855D01*
X129439Y-16927D01*
X129402Y-16971D01*
X129361Y-17012D01*
X129222Y-17191D01*
X129078Y-17368D01*
X129048Y-17417D01*
X129013Y-17463D01*
X128958Y-17566D01*
X128783Y-17855D01*
X128696Y-18058D01*
X128642Y-18159D01*
X128512Y-18473D01*
X128233Y-18890D01*
X127880Y-19243D01*
X127463Y-19522D01*
X127001Y-19713D01*
X126510Y-19811D01*
X122823Y-19811D01*
G37*
%LPD*%
%LPC*%
G36*
X18524Y109599D02*
X18524Y109599D01*
X18088Y109844D01*
X17707Y110169D01*
X17397Y110562D01*
X17170Y111008D01*
X17034Y111490D01*
X16995Y111988D01*
X17054Y112486D01*
X18193Y115992D01*
X22927Y114454D01*
X21080Y108769D01*
X18524Y109599D01*
G37*
%LPD*%
%LPC*%
G36*
X-4249Y39617D02*
X-4249Y39617D01*
X-4249Y44595D01*
X-562Y44595D01*
X-71Y44497D01*
X391Y44306D01*
X808Y44027D01*
X1161Y43674D01*
X1440Y43257D01*
X1631Y42795D01*
X1729Y42304D01*
X1729Y39617D01*
X-4249Y39617D01*
G37*
%LPD*%
%LPC*%
G36*
X-85822Y-79119D02*
X-85822Y-79119D01*
X-80987Y-75605D01*
X-79407Y-77779D01*
X-79198Y-78233D01*
X-79081Y-78720D01*
X-79061Y-79220D01*
X-79139Y-79714D01*
X-79313Y-80184D01*
X-79574Y-80611D01*
X-79914Y-80978D01*
X-82897Y-83145D01*
X-85822Y-79119D01*
G37*
%LPD*%
%LPC*%
G36*
X76453Y99143D02*
X76453Y99143D01*
X76453Y104225D01*
X79244Y104225D01*
X79735Y104127D01*
X80197Y103936D01*
X80614Y103657D01*
X80967Y103304D01*
X81246Y102887D01*
X81437Y102425D01*
X81535Y101934D01*
X81535Y99143D01*
X76453Y99143D01*
G37*
%LPD*%
%LPC*%
G36*
X63245Y99143D02*
X63245Y99143D01*
X63245Y101934D01*
X63343Y102425D01*
X63534Y102887D01*
X63813Y103304D01*
X64166Y103657D01*
X64583Y103936D01*
X65045Y104127D01*
X65536Y104225D01*
X68327Y104225D01*
X68327Y99143D01*
X63245Y99143D01*
G37*
%LPD*%
%LPC*%
G36*
X136459Y-20437D02*
X136459Y-20437D01*
X136459Y-19713D01*
X136455Y-19656D01*
X136458Y-19598D01*
X136435Y-19372D01*
X136419Y-19145D01*
X136407Y-19088D01*
X136402Y-19031D01*
X136348Y-18811D01*
X136300Y-18588D01*
X136280Y-18534D01*
X136267Y-18478D01*
X136183Y-18267D01*
X136104Y-18053D01*
X136077Y-18002D01*
X136056Y-17948D01*
X135943Y-17750D01*
X135836Y-17550D01*
X135802Y-17504D01*
X135773Y-17454D01*
X135743Y-17415D01*
X135821Y-17343D01*
X135858Y-17299D01*
X135899Y-17258D01*
X136038Y-17079D01*
X136182Y-16902D01*
X136212Y-16853D01*
X136247Y-16807D01*
X136302Y-16705D01*
X136477Y-16415D01*
X136564Y-16212D01*
X136618Y-16111D01*
X136748Y-15797D01*
X137027Y-15380D01*
X137380Y-15027D01*
X137797Y-14748D01*
X138259Y-14557D01*
X138750Y-14459D01*
X139437Y-14459D01*
X139437Y-20437D01*
X136459Y-20437D01*
G37*
%LPD*%
%LPC*%
G36*
X-105001Y111594D02*
X-105001Y111594D01*
X-102834Y114577D01*
X-102467Y114917D01*
X-102040Y115178D01*
X-101570Y115351D01*
X-101076Y115430D01*
X-100576Y115410D01*
X-100089Y115293D01*
X-99635Y115084D01*
X-99079Y114680D01*
X-102592Y109844D01*
X-105001Y111594D01*
G37*
%LPD*%
%LPC*%
G36*
X14852Y-153158D02*
X14852Y-153158D01*
X14370Y-153022D01*
X13925Y-152795D01*
X13531Y-152485D01*
X13206Y-152105D01*
X12962Y-151668D01*
X12750Y-151015D01*
X18434Y-149168D01*
X19354Y-151999D01*
X15848Y-153139D01*
X15351Y-153197D01*
X14852Y-153158D01*
G37*
%LPD*%
%LPC*%
G36*
X147563Y-34541D02*
X147563Y-34541D01*
X147563Y-28563D01*
X150541Y-28563D01*
X150541Y-32250D01*
X150443Y-32741D01*
X150252Y-33203D01*
X149973Y-33620D01*
X149620Y-33973D01*
X149203Y-34252D01*
X148741Y-34443D01*
X148250Y-34541D01*
X147563Y-34541D01*
G37*
%LPD*%
%LPC*%
G36*
X10026Y-142633D02*
X10026Y-142633D01*
X9967Y-142135D01*
X10007Y-141637D01*
X10142Y-141155D01*
X10370Y-140709D01*
X10679Y-140316D01*
X11060Y-139991D01*
X11497Y-139746D01*
X15003Y-138607D01*
X15923Y-141439D01*
X10238Y-143286D01*
X10026Y-142633D01*
G37*
%LPD*%
%LPC*%
G36*
X-133109Y-54015D02*
X-133109Y-54015D01*
X-132554Y-53611D01*
X-132099Y-53402D01*
X-131613Y-53285D01*
X-131112Y-53265D01*
X-130618Y-53344D01*
X-130149Y-53517D01*
X-129722Y-53778D01*
X-129354Y-54118D01*
X-127187Y-57101D01*
X-129596Y-58851D01*
X-133109Y-54015D01*
G37*
%LPD*%
%LPC*%
G36*
X72840Y119815D02*
X72840Y119815D01*
X69334Y120954D01*
X70254Y123785D01*
X75939Y121938D01*
X75727Y121285D01*
X75482Y120848D01*
X75157Y120468D01*
X74764Y120158D01*
X74318Y119931D01*
X73836Y119795D01*
X73337Y119756D01*
X72840Y119815D01*
G37*
%LPD*%
%LPC*%
G36*
X147563Y-20437D02*
X147563Y-20437D01*
X147563Y-14459D01*
X148250Y-14459D01*
X148741Y-14557D01*
X149203Y-14748D01*
X149620Y-15027D01*
X149973Y-15380D01*
X150252Y-15797D01*
X150443Y-16259D01*
X150541Y-16750D01*
X150541Y-20437D01*
X147563Y-20437D01*
G37*
%LPD*%
%LPC*%
G36*
X138750Y-34541D02*
X138750Y-34541D01*
X138259Y-34443D01*
X137797Y-34252D01*
X137380Y-33973D01*
X137027Y-33620D01*
X136748Y-33203D01*
X136557Y-32741D01*
X136459Y-32250D01*
X136459Y-28563D01*
X139437Y-28563D01*
X139437Y-34541D01*
X138750Y-34541D01*
G37*
%LPD*%
%LPC*%
G36*
X-140746Y-62395D02*
X-140746Y-62395D01*
X-140956Y-61940D01*
X-141073Y-61454D01*
X-141092Y-60954D01*
X-141014Y-60460D01*
X-140841Y-59990D01*
X-140579Y-59563D01*
X-140240Y-59196D01*
X-139684Y-58792D01*
X-136171Y-63628D01*
X-138579Y-65378D01*
X-140746Y-62395D01*
G37*
%LPD*%
%LPC*%
G36*
X-96018Y105067D02*
X-96018Y105067D01*
X-92504Y109903D01*
X-91949Y109499D01*
X-91609Y109132D01*
X-91347Y108705D01*
X-91174Y108236D01*
X-91096Y107741D01*
X-91116Y107241D01*
X-91232Y106755D01*
X-91442Y106300D01*
X-93609Y103317D01*
X-96018Y105067D01*
G37*
%LPD*%
%LPC*%
G36*
X-10703Y-62475D02*
X-10703Y-62475D01*
X-11119Y-62197D01*
X-11473Y-61843D01*
X-11751Y-61427D01*
X-11943Y-60965D01*
X-12040Y-60474D01*
X-12040Y-57937D01*
X-10388Y-57937D01*
X-10388Y-62606D01*
X-10703Y-62475D01*
G37*
%LPD*%
%LPC*%
G36*
X-78904Y9856D02*
X-78904Y9856D01*
X-78962Y9900D01*
X-79129Y9994D01*
X-78853Y10178D01*
X-78853Y9826D01*
X-78904Y9856D01*
G37*
%LPD*%
D10*
G36*
X-129158Y-114853D02*
X-120343Y-126987D01*
X-127624Y-132277D01*
X-136439Y-120143D01*
X-129158Y-114853D01*
G37*
G36*
X-102460Y-95456D02*
X-93645Y-107590D01*
X-100926Y-112880D01*
X-109741Y-100746D01*
X-102460Y-95456D01*
G37*
G36*
X-157960Y-75212D02*
X-149145Y-87346D01*
X-156426Y-92636D01*
X-165241Y-80502D01*
X-157960Y-75212D01*
G37*
G36*
X-131262Y-55815D02*
X-122447Y-67949D01*
X-129728Y-73239D01*
X-138543Y-61105D01*
X-131262Y-55815D01*
G37*
G36*
X69320Y-158329D02*
X83585Y-153694D01*
X86366Y-162253D01*
X72101Y-166888D01*
X69320Y-158329D01*
G37*
G36*
X59122Y-126944D02*
X73387Y-122309D01*
X76168Y-130868D01*
X61903Y-135503D01*
X59122Y-126944D01*
G37*
G36*
X22718Y-173470D02*
X36983Y-168835D01*
X39764Y-177394D01*
X25499Y-182029D01*
X22718Y-173470D01*
G37*
G36*
X12520Y-142085D02*
X26785Y-137450D01*
X29566Y-146009D01*
X15301Y-150644D01*
X12520Y-142085D01*
G37*
D11*
X176500Y24500D03*
X143500Y24500D03*
X176500Y-24500D03*
X143500Y-24500D03*
D10*
G36*
X36983Y168835D02*
X22718Y173470D01*
X25499Y182029D01*
X39764Y177394D01*
X36983Y168835D01*
G37*
G36*
X26785Y137450D02*
X12520Y142085D01*
X15301Y150644D01*
X29566Y146009D01*
X26785Y137450D01*
G37*
G36*
X83585Y153694D02*
X69320Y158329D01*
X72101Y166888D01*
X86366Y162253D01*
X83585Y153694D01*
G37*
G36*
X73387Y122309D02*
X59122Y126944D01*
X61903Y135503D01*
X76168Y130868D01*
X73387Y122309D01*
G37*
G36*
X-149145Y87346D02*
X-157960Y75212D01*
X-165241Y80502D01*
X-156426Y92636D01*
X-149145Y87346D01*
G37*
G36*
X-122447Y67949D02*
X-131262Y55815D01*
X-138543Y61105D01*
X-129728Y73239D01*
X-122447Y67949D01*
G37*
G36*
X-120343Y126987D02*
X-129158Y114853D01*
X-136439Y120143D01*
X-127624Y132277D01*
X-120343Y126987D01*
G37*
G36*
X-93645Y107590D02*
X-102460Y95456D01*
X-109741Y100746D01*
X-100926Y112880D01*
X-93645Y107590D01*
G37*
D12*
X118760Y8230D03*
X118760Y-10770D03*
D13*
G36*
X42253Y120332D02*
X54616Y116315D01*
X49981Y102050D01*
X37618Y106067D01*
X42253Y120332D01*
G37*
G36*
X24183Y126204D02*
X36546Y122187D01*
X31911Y107922D01*
X19548Y111939D01*
X24183Y126204D01*
G37*
G36*
X-101386Y77370D02*
X-93745Y87886D01*
X-81610Y79070D01*
X-89251Y68554D01*
X-101386Y77370D01*
G37*
G36*
X-112554Y61998D02*
X-104913Y72514D01*
X-92778Y63698D01*
X-100419Y53182D01*
X-112554Y61998D01*
G37*
G36*
X-104913Y-72514D02*
X-112554Y-61998D01*
X-100419Y-53182D01*
X-92778Y-63698D01*
X-104913Y-72514D01*
G37*
G36*
X-93745Y-87886D02*
X-101386Y-77370D01*
X-89251Y-68554D01*
X-81610Y-79070D01*
X-93745Y-87886D01*
G37*
G36*
X36546Y-122187D02*
X24183Y-126204D01*
X19548Y-111939D01*
X31911Y-107922D01*
X36546Y-122187D01*
G37*
G36*
X54616Y-116315D02*
X42253Y-120332D01*
X37618Y-106067D01*
X49981Y-102050D01*
X54616Y-116315D01*
G37*
D14*
X-35255Y-16688D03*
X-35255Y-3988D03*
X-35255Y8712D03*
X-35255Y21412D03*
D13*
X33570Y55475D03*
X52570Y55475D03*
X-11078Y-28087D03*
X7922Y-28087D03*
D12*
X-8312Y16554D03*
X-8312Y35554D03*
X92519Y-11766D03*
X92519Y7234D03*
D13*
X54976Y-24620D03*
X35976Y-24620D03*
D15*
X-74Y-159D03*
D16*
X72390Y95080D03*
D17*
X72390Y75080D03*
X72390Y55080D03*
X72390Y35080D03*
X72390Y15080D03*
X72390Y-4920D03*
X72390Y-24920D03*
X72390Y-44920D03*
X72390Y-64920D03*
X72390Y-84920D03*
D18*
X-57290Y-6500D03*
X-57290Y0D03*
X-57290Y6500D03*
X-74790Y-6500D03*
X-74790Y0D03*
X-74790Y6500D03*
D19*
X13411Y-91516D03*
X3251Y-91516D03*
X-6909Y-91516D03*
D20*
X3251Y-91516D01*
D19*
X-6325Y-53873D03*
X3835Y-53873D03*
X13995Y-53873D03*
D20*
X3835Y-53873D01*
D19*
X-37846Y-90907D03*
X-28448Y-90907D03*
D21*
X15240Y-163830D03*
X30480Y-160020D03*
X44450Y-156210D03*
X-120650Y55880D03*
X-111760Y49530D03*
X-121920Y44450D03*
X64770Y115570D03*
X116078Y69850D03*
X123190Y59436D03*
X158750Y-15240D03*
X158750Y-27940D03*
X156896Y-40386D03*
X8585Y68580D03*
X35738Y70282D03*
X21285Y69164D03*
X-71120Y54610D03*
X-71120Y66040D03*
X-71120Y78740D03*
D22*
X23495Y43180D03*
D21*
X7620Y45720D03*
D23*
X-29870Y-48692D03*
D21*
X-2540Y104140D03*
X-2540Y116840D03*
X-2794Y129286D03*
D24*
X4288Y-24453D02*
X7922Y-28087D01*
X4288Y-24453D02*
X4398Y-4631D01*
X-74Y-159D01*
X-74790Y6500D02*
X-74790Y41427D01*
X-14185Y41427D01*
X-8312Y35554D01*
D21*
X69418Y-141326D03*
X80340Y-138049D03*
X110211Y-43104D03*
X109931Y-29743D03*
X123038Y-29464D03*
D25*
X-37414Y41199D03*
D26*
X46117Y-106836D02*
X46117Y-111191D01*
D27*
X46117Y-106836D02*
X40752Y-101471D01*
D25*
X22780Y-100349D03*
D27*
X22813Y-100010D02*
X40752Y-101471D01*
D28*
X-55982Y-7808D02*
X-57290Y-6500D01*
X-55982Y-7808D02*
X-55801Y-7994D01*
X-55625Y-8183D01*
X-55453Y-8377D01*
X-55286Y-8575D01*
X-55124Y-8777D01*
X-54967Y-8983D01*
X-54815Y-9192D01*
X-54668Y-9405D01*
X-54526Y-9622D01*
X-54389Y-9842D01*
X-54258Y-10065D01*
X-54132Y-10291D01*
X-54012Y-10520D01*
X-53897Y-10753D01*
X-53788Y-10987D01*
X-53685Y-11225D01*
X-53587Y-11465D01*
X-53495Y-11707D01*
X-53409Y-11951D01*
X-53329Y-12197D01*
X-53255Y-12445D01*
X-53187Y-12695D01*
X-53125Y-12947D01*
X-53069Y-13199D01*
X-53020Y-13454D01*
X-52976Y-13709D01*
X-52939Y-13965D01*
X-52907Y-14222D01*
X-52882Y-14480D01*
X-52864Y-14738D01*
X-52851Y-14997D01*
X-52845Y-15256D01*
X-52845Y-15514D01*
X-52851Y-15773D01*
X-52864Y-16032D01*
X-52882Y-16290D01*
X-52907Y-16548D01*
X-52939Y-16805D01*
X-52976Y-17061D01*
X-53020Y-17316D01*
X-53069Y-17571D01*
X-53125Y-17823D01*
X-53187Y-18075D01*
X-53255Y-18325D01*
X-53329Y-18573D01*
X-53409Y-18819D01*
X-53495Y-19063D01*
X-53587Y-19305D01*
X-53685Y-19545D01*
X-53788Y-19783D01*
X-53897Y-20017D01*
X-54012Y-20250D01*
X-54132Y-20479D01*
X-54258Y-20705D01*
X-54389Y-20928D01*
X-54526Y-21148D01*
X-54668Y-21365D01*
X-54815Y-21578D01*
X-54967Y-21787D01*
X-55124Y-21993D01*
X-55286Y-22195D01*
X-55453Y-22393D01*
X-55625Y-22587D01*
X-55801Y-22776D01*
X-55982Y-22962D01*
X-56146Y-23121D01*
X-56313Y-23277D01*
X-56484Y-23428D01*
X-56659Y-23575D01*
X-56837Y-23718D01*
X-57018Y-23857D01*
X-57203Y-23991D01*
X-57391Y-24121D01*
X-57582Y-24246D01*
X-57776Y-24367D01*
X-57973Y-24483D01*
X-58173Y-24594D01*
X-58375Y-24700D01*
X-58580Y-24801D01*
X-58787Y-24897D01*
X-58996Y-24988D01*
X-59208Y-25075D01*
X-59421Y-25156D01*
X-59637Y-25231D01*
X-59854Y-25302D01*
X-60073Y-25367D01*
X-60293Y-25427D01*
X-60515Y-25482D01*
X-60738Y-25531D01*
X-60962Y-25575D01*
X-61187Y-25614D01*
X-61413Y-25647D01*
X-61640Y-25674D01*
X-61867Y-25696D01*
X-62095Y-25713D01*
X-62323Y-25724D01*
X-62552Y-25729D01*
X-62780Y-25729D01*
X-63009Y-25724D01*
X-63237Y-25713D01*
X-63465Y-25696D01*
X-63692Y-25674D01*
X-63919Y-25647D01*
X-64145Y-25614D01*
X-64370Y-25575D01*
X-64594Y-25531D01*
X-64817Y-25482D01*
X-65039Y-25427D01*
X-65259Y-25367D01*
X-65478Y-25302D01*
X-65695Y-25231D01*
X-65911Y-25156D01*
X-66124Y-25075D01*
X-66336Y-24988D01*
X-66545Y-24897D01*
X-66752Y-24801D01*
X-66957Y-24700D01*
X-67159Y-24594D01*
X-67359Y-24483D01*
X-67556Y-24367D01*
X-67750Y-24246D01*
X-67941Y-24121D01*
X-68129Y-23991D01*
X-68314Y-23857D01*
X-68495Y-23718D01*
X-68673Y-23575D01*
X-68848Y-23428D01*
X-69019Y-23277D01*
X-69186Y-23121D01*
X-69350Y-22962D01*
X-69349Y-22962D02*
X-77580Y-14732D01*
X-77796Y-14510D01*
X-78007Y-14282D01*
X-78213Y-14050D01*
X-78412Y-13813D01*
X-78606Y-13571D01*
X-78794Y-13324D01*
X-78975Y-13073D01*
X-79151Y-12817D01*
X-79320Y-12557D01*
X-79483Y-12293D01*
X-79639Y-12025D01*
X-79788Y-11754D01*
X-79931Y-11478D01*
X-80067Y-11200D01*
X-80196Y-10918D01*
X-80318Y-10633D01*
X-80433Y-10345D01*
X-80541Y-10054D01*
X-80642Y-9761D01*
X-80736Y-9465D01*
X-80822Y-9168D01*
X-80901Y-8868D01*
X-80973Y-8566D01*
X-81037Y-8263D01*
X-81094Y-7958D01*
X-81143Y-7652D01*
X-81185Y-7345D01*
X-81219Y-7036D01*
X-81246Y-6727D01*
X-81265Y-6418D01*
X-81276Y-6108D01*
X-81280Y-5798D01*
X-81280Y0D01*
X-81278Y155D01*
X-81272Y311D01*
X-81262Y466D01*
X-81249Y620D01*
X-81231Y775D01*
X-81209Y929D01*
X-81184Y1082D01*
X-81154Y1234D01*
X-81121Y1386D01*
X-81084Y1537D01*
X-81043Y1687D01*
X-80999Y1836D01*
X-80950Y1983D01*
X-80898Y2130D01*
X-80842Y2275D01*
X-80783Y2418D01*
X-80720Y2560D01*
X-80653Y2701D01*
X-80583Y2839D01*
X-80509Y2976D01*
X-80432Y3111D01*
X-80352Y3244D01*
X-80268Y3374D01*
X-80181Y3503D01*
X-80091Y3629D01*
X-79997Y3753D01*
X-79900Y3875D01*
X-79801Y3994D01*
X-79698Y4111D01*
X-79592Y4225D01*
X-79484Y4336D01*
X-77320Y6500D01*
X-74790Y6500D01*
X-35814Y8153D02*
X-35255Y8712D01*
X-35814Y8153D02*
X-41758Y8153D01*
X-46961Y2950D01*
X-47051Y2857D01*
X-47138Y2762D01*
X-47222Y2665D01*
X-47304Y2565D01*
X-47382Y2462D01*
X-47458Y2358D01*
X-47530Y2251D01*
X-47600Y2142D01*
X-47666Y2032D01*
X-47729Y1919D01*
X-47788Y1804D01*
X-47844Y1688D01*
X-47897Y1571D01*
X-47947Y1451D01*
X-47993Y1331D01*
X-48035Y1209D01*
X-48074Y1086D01*
X-48109Y962D01*
X-48140Y837D01*
X-48168Y711D01*
X-48193Y584D01*
X-48213Y457D01*
X-48230Y329D01*
X-48243Y201D01*
X-48252Y72D01*
X-48258Y-57D01*
X-48260Y-186D01*
X-48262Y-343D01*
X-48268Y-501D01*
X-48278Y-658D01*
X-48291Y-815D01*
X-48309Y-971D01*
X-48331Y-1127D01*
X-48356Y-1282D01*
X-48385Y-1437D01*
X-48418Y-1591D01*
X-48455Y-1744D01*
X-48496Y-1896D01*
X-48541Y-2047D01*
X-48589Y-2197D01*
X-48641Y-2346D01*
X-48696Y-2493D01*
X-48756Y-2639D01*
X-48819Y-2783D01*
X-48885Y-2926D01*
X-48955Y-3067D01*
X-49029Y-3206D01*
X-49106Y-3343D01*
X-49186Y-3478D01*
X-49270Y-3612D01*
X-49357Y-3743D01*
X-49447Y-3872D01*
X-49541Y-3998D01*
X-49638Y-4123D01*
X-49737Y-4245D01*
X-49840Y-4364D01*
X-49946Y-4481D01*
X-50054Y-4595D01*
X-50165Y-4706D01*
X-50279Y-4814D01*
X-50396Y-4920D01*
X-50515Y-5023D01*
X-50637Y-5122D01*
X-50762Y-5219D01*
X-50888Y-5313D01*
X-51017Y-5403D01*
X-51148Y-5490D01*
X-51282Y-5574D01*
X-51417Y-5654D01*
X-51554Y-5731D01*
X-51693Y-5805D01*
X-51834Y-5875D01*
X-51977Y-5941D01*
X-52121Y-6004D01*
X-52267Y-6064D01*
X-52414Y-6119D01*
X-52563Y-6171D01*
X-52713Y-6219D01*
X-52864Y-6264D01*
X-53016Y-6305D01*
X-53169Y-6342D01*
X-53323Y-6375D01*
X-53478Y-6404D01*
X-53633Y-6429D01*
X-53789Y-6451D01*
X-53945Y-6469D01*
X-54102Y-6482D01*
X-54259Y-6492D01*
X-54417Y-6498D01*
X-54574Y-6500D01*
X-57290Y-6500D01*
X52570Y55475D02*
X71995Y55475D01*
X72390Y55080D01*
X38786Y-21310D02*
X38786Y-47028D01*
X38783Y-47299D01*
X38773Y-47570D01*
X38757Y-47840D01*
X38734Y-48110D01*
X38704Y-48380D01*
X38668Y-48648D01*
X38626Y-48916D01*
X38577Y-49183D01*
X38522Y-49448D01*
X38460Y-49712D01*
X38392Y-49974D01*
X38318Y-50235D01*
X38237Y-50493D01*
X38150Y-50750D01*
X38057Y-51005D01*
X37958Y-51257D01*
X37853Y-51506D01*
X37742Y-51754D01*
X37625Y-51998D01*
X37502Y-52239D01*
X37373Y-52478D01*
X37238Y-52713D01*
X37098Y-52945D01*
X36952Y-53173D01*
X36801Y-53398D01*
X36644Y-53619D01*
X36482Y-53837D01*
X36315Y-54050D01*
X36143Y-54259D01*
X35966Y-54464D01*
X35784Y-54665D01*
X35597Y-54861D01*
X35405Y-55053D01*
X35209Y-55240D01*
X35008Y-55422D01*
X34803Y-55599D01*
X34594Y-55771D01*
X34381Y-55938D01*
X34163Y-56100D01*
X33942Y-56257D01*
X33717Y-56408D01*
X33489Y-56554D01*
X33257Y-56694D01*
X33022Y-56829D01*
X32783Y-56958D01*
X32542Y-57081D01*
X32298Y-57198D01*
X32050Y-57309D01*
X31801Y-57414D01*
X31549Y-57513D01*
X31294Y-57606D01*
X31037Y-57693D01*
X30779Y-57774D01*
X30518Y-57848D01*
X30256Y-57916D01*
X29992Y-57978D01*
X29727Y-58033D01*
X29460Y-58082D01*
X29192Y-58124D01*
X28924Y-58160D01*
X28654Y-58190D01*
X28384Y-58213D01*
X28114Y-58229D01*
X27843Y-58239D01*
X27572Y-58242D01*
X16332Y-58242D01*
X33020Y-27076D02*
X33274Y-26822D01*
X38786Y-21310D01*
X35976Y-24620D02*
X33274Y-26822D01*
X53070Y25670D02*
X52570Y55475D01*
X53070Y25670D02*
X53340Y25400D01*
X75235Y25400D01*
X75657Y25395D01*
X76079Y25380D01*
X76501Y25354D01*
X76922Y25318D01*
X77341Y25273D01*
X77760Y25217D01*
X78177Y25151D01*
X78592Y25074D01*
X79006Y24988D01*
X79417Y24892D01*
X79826Y24786D01*
X80232Y24670D01*
X80635Y24545D01*
X81035Y24409D01*
X81432Y24264D01*
X81825Y24110D01*
X82214Y23946D01*
X82599Y23773D01*
X82980Y23590D01*
X83356Y23398D01*
X83728Y23198D01*
X84094Y22988D01*
X84456Y22769D01*
X84812Y22542D01*
X85162Y22307D01*
X85507Y22063D01*
X85845Y21810D01*
X86178Y21550D01*
X86504Y21281D01*
X86823Y21005D01*
X87136Y20721D01*
X87441Y20430D01*
X87740Y20131D01*
X88031Y19826D01*
X88315Y19513D01*
X88591Y19194D01*
X88860Y18868D01*
X89120Y18535D01*
X89373Y18197D01*
X89617Y17852D01*
X89852Y17502D01*
X90079Y17146D01*
X90298Y16784D01*
X90508Y16418D01*
X90708Y16046D01*
X90900Y15670D01*
X91083Y15289D01*
X91256Y14904D01*
X91420Y14515D01*
X91574Y14122D01*
X91719Y13725D01*
X91855Y13325D01*
X91980Y12922D01*
X92096Y12516D01*
X92202Y12107D01*
X92298Y11696D01*
X92384Y11282D01*
X92461Y10867D01*
X92527Y10450D01*
X92583Y10031D01*
X92628Y9612D01*
X92664Y9191D01*
X92690Y8769D01*
X92705Y8347D01*
X92710Y7925D01*
X92519Y7234D01*
X53340Y25400D02*
X52849Y25394D01*
X52358Y25376D01*
X51868Y25347D01*
X51379Y25305D01*
X50891Y25252D01*
X50404Y25187D01*
X49919Y25110D01*
X49436Y25021D01*
X48955Y24921D01*
X48477Y24810D01*
X48002Y24686D01*
X47530Y24552D01*
X47061Y24405D01*
X46596Y24248D01*
X46134Y24080D01*
X45677Y23900D01*
X45225Y23709D01*
X44777Y23508D01*
X44334Y23295D01*
X43897Y23072D01*
X43465Y22839D01*
X43039Y22595D01*
X42618Y22341D01*
X42204Y22077D01*
X41797Y21803D01*
X41396Y21519D01*
X41002Y21226D01*
X40616Y20923D01*
X40237Y20611D01*
X39865Y20290D01*
X39502Y19960D01*
X39146Y19621D01*
X38799Y19274D01*
X38460Y18918D01*
X38130Y18555D01*
X37809Y18183D01*
X37497Y17804D01*
X37194Y17418D01*
X36901Y17024D01*
X36617Y16623D01*
X36343Y16216D01*
X36079Y15802D01*
X35825Y15381D01*
X35581Y14955D01*
X35348Y14523D01*
X35125Y14086D01*
X34912Y13643D01*
X34711Y13195D01*
X34520Y12743D01*
X34340Y12286D01*
X34172Y11824D01*
X34015Y11359D01*
X33868Y10890D01*
X33734Y10418D01*
X33610Y9943D01*
X33499Y9465D01*
X33399Y8984D01*
X33310Y8501D01*
X33233Y8016D01*
X33168Y7529D01*
X33115Y7041D01*
X33073Y6552D01*
X33044Y6062D01*
X33026Y5571D01*
X33020Y5080D01*
X33020Y-27076D01*
X13995Y-53873D02*
X16332Y-58242D01*
X-73482Y-141175D02*
X-101693Y-104168D01*
X-73482Y-141175D02*
X-72039Y-143021D01*
X-70551Y-144832D01*
X-69021Y-146606D01*
X-67448Y-148343D01*
X-65834Y-150042D01*
X-64180Y-151701D01*
X-62485Y-153320D01*
X-60753Y-154897D01*
X-58982Y-156432D01*
X-57175Y-157924D01*
X-55333Y-159372D01*
X-53456Y-160775D01*
X-51546Y-162132D01*
X-49604Y-163443D01*
X-47631Y-164706D01*
X-45627Y-165922D01*
X-43595Y-167089D01*
X-41536Y-168206D01*
X-39450Y-169274D01*
X-37339Y-170291D01*
X-35204Y-171256D01*
X-33046Y-172170D01*
X-30867Y-173032D01*
X-28668Y-173840D01*
X-26450Y-174596D01*
X-24214Y-175297D01*
X-21962Y-175945D01*
X-19695Y-176538D01*
X-17415Y-177076D01*
X-15122Y-177558D01*
X-12818Y-177986D01*
X-10504Y-178358D01*
X-8183Y-178673D01*
X-5854Y-178933D01*
X-3519Y-179136D01*
X-1181Y-179283D01*
X1161Y-179374D01*
X3504Y-179408D01*
X5847Y-179385D01*
X8188Y-179306D01*
X10528Y-179170D01*
X12863Y-178978D01*
X15193Y-178730D01*
X17516Y-178426D01*
X19832Y-178065D01*
X22138Y-177649D01*
X24433Y-177178D01*
X26716Y-176651D01*
X28986Y-176069D01*
X31241Y-175432D01*
X21043Y144047D02*
X-24640Y158839D01*
X-24640Y158840D02*
X-26757Y159497D01*
X-28889Y160103D01*
X-31034Y160657D01*
X-33193Y161159D01*
X-35363Y161608D01*
X-37543Y162005D01*
X-39733Y162349D01*
X-41930Y162641D01*
X-44133Y162879D01*
X-46341Y163063D01*
X-48554Y163194D01*
X-50769Y163272D01*
X-52985Y163296D01*
X-55201Y163266D01*
X-57415Y163183D01*
X-59627Y163047D01*
X-61835Y162856D01*
X-64038Y162613D01*
X-66234Y162316D01*
X-68423Y161967D01*
X-70602Y161564D01*
X-72771Y161109D01*
X-74928Y160602D01*
X-77073Y160042D01*
X-79203Y159431D01*
X-81318Y158769D01*
X-83416Y158055D01*
X-85496Y157292D01*
X-87557Y156478D01*
X-89598Y155614D01*
X-91618Y154701D01*
X-93615Y153740D01*
X-95588Y152731D01*
X-97536Y151674D01*
X-99458Y150571D01*
X-101353Y149421D01*
X-103219Y148226D01*
X-105056Y146986D01*
X-106862Y145702D01*
X-108637Y144375D01*
X-110379Y143005D01*
X-112088Y141594D01*
X-113762Y140141D01*
X-115400Y138649D01*
X-117002Y137117D01*
X-118566Y135547D01*
X-120092Y133940D01*
X-121578Y132296D01*
X-123024Y130617D01*
X-124430Y128904D01*
X-125793Y127157D01*
X-127114Y125377D01*
X-128391Y123566D01*
X143500Y28625D02*
X143500Y24500D01*
X143500Y28625D02*
X143481Y30191D01*
X143425Y31757D01*
X143332Y33321D01*
X143202Y34882D01*
X143034Y36440D01*
X142830Y37993D01*
X142589Y39541D01*
X142310Y41082D01*
X141996Y42617D01*
X141645Y44144D01*
X141257Y45661D01*
X140834Y47170D01*
X140374Y48668D01*
X139880Y50154D01*
X139350Y51628D01*
X138785Y53089D01*
X138185Y54537D01*
X137552Y55969D01*
X136884Y57386D01*
X136183Y58787D01*
X135448Y60171D01*
X134681Y61537D01*
X133882Y62884D01*
X133051Y64212D01*
X132188Y65520D01*
X131295Y66807D01*
X130371Y68072D01*
X129417Y69315D01*
X128434Y70534D01*
X127422Y71731D01*
X126383Y72902D01*
X125315Y74049D01*
X124221Y75170D01*
X124221Y75169D02*
X121392Y78068D01*
X118634Y81035D01*
X115949Y84068D01*
X113340Y87166D01*
X110806Y90327D01*
X108351Y93548D01*
X105974Y96829D01*
X103679Y100166D01*
X101465Y103558D01*
X99335Y107004D01*
X97289Y110500D01*
X95330Y114045D01*
X93457Y117637D01*
X91672Y121273D01*
X89977Y124952D01*
X88372Y128671D01*
X86857Y132428D01*
X85435Y136221D01*
X84106Y140047D01*
X82871Y143905D01*
X77843Y160291D01*
X72390Y-24920D02*
X55776Y-24920D01*
X54976Y-24620D01*
X-35255Y-16688D02*
X-44983Y-26416D01*
X-45466Y-26416D01*
D29*
X-45466Y-26416D03*
D28*
X-57290Y0D02*
X-59583Y0D01*
X-59712Y-2D01*
X-59841Y-7D01*
X-59969Y-17D01*
X-60097Y-30D01*
X-60225Y-47D01*
X-60352Y-67D01*
X-60479Y-92D01*
X-60604Y-119D01*
X-60729Y-151D01*
X-60853Y-186D01*
X-60976Y-225D01*
X-61098Y-267D01*
X-61218Y-313D01*
X-61337Y-362D01*
X-61455Y-415D01*
X-61571Y-471D01*
X-61685Y-531D01*
X-61798Y-593D01*
X-61908Y-659D01*
X-62017Y-729D01*
X-62123Y-801D01*
X-62228Y-876D01*
X-62330Y-955D01*
X-62430Y-1036D01*
X-62527Y-1120D01*
X-62622Y-1207D01*
X-62715Y-1297D01*
X-62887Y-1473D01*
X-63054Y-1653D01*
X-63217Y-1836D01*
X-63375Y-2024D01*
X-63529Y-2216D01*
X-63678Y-2411D01*
X-63822Y-2610D01*
X-63962Y-2812D01*
X-64097Y-3017D01*
X-64226Y-3226D01*
X-64351Y-3437D01*
X-64470Y-3652D01*
X-64584Y-3870D01*
X-64693Y-4090D01*
X-64797Y-4313D01*
X-64895Y-4538D01*
X-64987Y-4765D01*
X-65074Y-4995D01*
X-65156Y-5227D01*
X-65232Y-5460D01*
X-65302Y-5696D01*
X-65367Y-5933D01*
X-65425Y-6171D01*
X-65478Y-6411D01*
X-65526Y-6652D01*
X-65567Y-6894D01*
X-65602Y-7137D01*
X-65632Y-7381D01*
X-65656Y-7625D01*
X-65673Y-7870D01*
X-65685Y-8116D01*
X-65691Y-8361D01*
X-65691Y-8607D01*
X-65685Y-8852D01*
X-65673Y-9098D01*
X-65656Y-9343D01*
X-65632Y-9587D01*
X-65602Y-9831D01*
X-65567Y-10074D01*
X-65526Y-10316D01*
X-65478Y-10557D01*
X-65425Y-10797D01*
X-65367Y-11035D01*
X-65302Y-11272D01*
X-65232Y-11508D01*
X-65156Y-11741D01*
X-65074Y-11973D01*
X-64987Y-12203D01*
X-64895Y-12430D01*
X-64797Y-12655D01*
X-64693Y-12878D01*
X-64584Y-13098D01*
X-64470Y-13316D01*
X-64351Y-13531D01*
X-64226Y-13742D01*
X-64097Y-13951D01*
X-63962Y-14156D01*
X-63822Y-14358D01*
X-63678Y-14557D01*
X-63529Y-14752D01*
X-63375Y-14944D01*
X-63217Y-15132D01*
X-63054Y-15315D01*
X-62887Y-15495D01*
X-62715Y-15671D01*
X-62714Y-15671D02*
X-60656Y-17730D01*
D29*
X-60656Y-17730D03*
D28*
X72390Y-4920D02*
X73660Y-4920D01*
X75037Y-6297D01*
X86629Y-6297D01*
X87698Y-6945D01*
X92519Y-11766D01*
X-35255Y21412D02*
X-38938Y25095D01*
X-63708Y25095D02*
X-65515Y23288D01*
X-63708Y25095D02*
X-38938Y25095D01*
D22*
X-65515Y23288D03*
D28*
X-65362Y23136D02*
X-65362Y9428D01*
X-65365Y9200D01*
X-65373Y8973D01*
X-65387Y8745D01*
X-65406Y8518D01*
X-65431Y8292D01*
X-65461Y8066D01*
X-65497Y7841D01*
X-65538Y7617D01*
X-65584Y7394D01*
X-65636Y7172D01*
X-65693Y6951D01*
X-65756Y6732D01*
X-65823Y6515D01*
X-65896Y6299D01*
X-65975Y6085D01*
X-66058Y5873D01*
X-66146Y5663D01*
X-66240Y5455D01*
X-66338Y5250D01*
X-66442Y5047D01*
X-66550Y4846D01*
X-66663Y4648D01*
X-66781Y4453D01*
X-66904Y4261D01*
X-67031Y4072D01*
X-67163Y3886D01*
X-67299Y3704D01*
X-67439Y3524D01*
X-67584Y3348D01*
X-67733Y3176D01*
X-67886Y3007D01*
X-68043Y2842D01*
X-68204Y2681D01*
X-68369Y2524D01*
X-68538Y2371D01*
X-68710Y2222D01*
X-68886Y2077D01*
X-69066Y1937D01*
X-69248Y1801D01*
X-69434Y1669D01*
X-69623Y1542D01*
X-69815Y1419D01*
X-70010Y1301D01*
X-70208Y1188D01*
X-70409Y1080D01*
X-70612Y976D01*
X-70817Y878D01*
X-71025Y784D01*
X-71235Y696D01*
X-71447Y613D01*
X-71661Y534D01*
X-71877Y461D01*
X-72094Y394D01*
X-72313Y331D01*
X-72534Y274D01*
X-72756Y222D01*
X-72979Y176D01*
X-73203Y135D01*
X-73428Y99D01*
X-73654Y69D01*
X-73880Y44D01*
X-74107Y25D01*
X-74335Y11D01*
X-74562Y3D01*
X-74790Y0D01*
X-65362Y23136D02*
X-65515Y23288D01*
X31750Y54155D02*
X33570Y55475D01*
X31750Y54155D02*
X31750Y48967D01*
X31741Y48184D01*
X31712Y47401D01*
X31665Y46619D01*
X31599Y45839D01*
X31514Y45060D01*
X31410Y44284D01*
X31287Y43510D01*
X31146Y42740D01*
X30986Y41973D01*
X30808Y41210D01*
X30612Y40452D01*
X30397Y39699D01*
X30164Y38951D01*
X29913Y38209D01*
X29644Y37473D01*
X29357Y36744D01*
X29053Y36022D01*
X28732Y35308D01*
X28393Y34602D01*
X28037Y33904D01*
X27665Y33215D01*
X27276Y32535D01*
X26871Y31865D01*
X26450Y31204D01*
X26012Y30554D01*
X25560Y29915D01*
X25092Y29287D01*
X24609Y28670D01*
X24111Y28066D01*
X23598Y27473D01*
X23072Y26893D01*
X22532Y26326D01*
X21978Y25772D01*
X21411Y25232D01*
X20831Y24706D01*
X20238Y24193D01*
X19634Y23695D01*
X19017Y23212D01*
X18389Y22744D01*
X17750Y22292D01*
X17100Y21854D01*
X16439Y21433D01*
X15769Y21028D01*
X15089Y20639D01*
X14400Y20267D01*
X13702Y19911D01*
X12996Y19572D01*
X12282Y19251D01*
X11560Y18947D01*
X10831Y18660D01*
X10095Y18391D01*
X9353Y18140D01*
X8605Y17907D01*
X7852Y17692D01*
X7094Y17496D01*
X6331Y17318D01*
X5564Y17158D01*
X4794Y17017D01*
X4020Y16894D01*
X3244Y16790D01*
X2465Y16705D01*
X1685Y16639D01*
X903Y16592D01*
X120Y16563D01*
X-663Y16554D01*
X-8312Y16554D01*
X-11268Y-3771D02*
X-11268Y-4796D01*
X-11268Y-3771D02*
X-11268Y12098D01*
X-11078Y-13931D02*
X-11078Y-28087D01*
X-11078Y-13931D02*
X-11268Y-4796D01*
X-11268Y12098D02*
X-8312Y15054D01*
X-8312Y16554D01*
X-11268Y-3771D02*
X-35255Y-3988D01*
D29*
X-55626Y31936D03*
D28*
X-10244Y16554D02*
X-8312Y16554D01*
X-10244Y16554D02*
X-19661Y25972D01*
X-20008Y26310D01*
X-20363Y26641D01*
X-20725Y26962D01*
X-21095Y27275D01*
X-21472Y27579D01*
X-21857Y27874D01*
X-22248Y28160D01*
X-22646Y28437D01*
X-23051Y28703D01*
X-23462Y28961D01*
X-23878Y29208D01*
X-24301Y29445D01*
X-24729Y29672D01*
X-25162Y29889D01*
X-25601Y30096D01*
X-26044Y30292D01*
X-26492Y30477D01*
X-26944Y30652D01*
X-27400Y30816D01*
X-27860Y30969D01*
X-28323Y31111D01*
X-28790Y31242D01*
X-29259Y31362D01*
X-29732Y31471D01*
X-30206Y31568D01*
X-30683Y31654D01*
X-31162Y31729D01*
X-31643Y31792D01*
X-32124Y31844D01*
X-32607Y31884D01*
X-33091Y31913D01*
X-33575Y31930D01*
X-34060Y31936D01*
X-55626Y31936D01*
D29*
X-54356Y17729D03*
D28*
X-56261Y15824D01*
X-56261Y7529D01*
X-57290Y6500D01*
D29*
X26670Y17780D03*
D28*
X26365Y17475D01*
X26365Y-37897D01*
X26364Y-39014D01*
X27330Y-39980D01*
D29*
X27330Y-39980D03*
D30*
X64223Y75080D02*
X72390Y75080D01*
X64223Y75080D02*
X63797Y75085D01*
X63371Y75101D01*
X62946Y75126D01*
X62521Y75162D01*
X62098Y75209D01*
X61676Y75265D01*
X61255Y75332D01*
X60836Y75408D01*
X60419Y75495D01*
X60004Y75592D01*
X59591Y75699D01*
X59182Y75816D01*
X58775Y75943D01*
X58371Y76079D01*
X57971Y76226D01*
X57575Y76382D01*
X57182Y76547D01*
X56794Y76722D01*
X56410Y76906D01*
X56030Y77099D01*
X55655Y77302D01*
X55285Y77513D01*
X54921Y77734D01*
X54562Y77963D01*
X54208Y78201D01*
X53860Y78447D01*
X53519Y78702D01*
X53183Y78964D01*
X52854Y79235D01*
X52532Y79514D01*
X52217Y79800D01*
X51908Y80094D01*
X51607Y80395D01*
X51313Y80704D01*
X51027Y81019D01*
X50748Y81341D01*
X50477Y81670D01*
X50215Y82006D01*
X49960Y82347D01*
X49714Y82695D01*
X49476Y83049D01*
X49247Y83408D01*
X49026Y83772D01*
X48815Y84142D01*
X48612Y84517D01*
X48419Y84897D01*
X48235Y85281D01*
X48060Y85669D01*
X47895Y86062D01*
X47739Y86458D01*
X47592Y86858D01*
X47456Y87262D01*
X47329Y87669D01*
X47212Y88078D01*
X47105Y88491D01*
X47008Y88906D01*
X46921Y89323D01*
X46845Y89742D01*
X46778Y90163D01*
X46722Y90585D01*
X46675Y91008D01*
X46639Y91433D01*
X46614Y91858D01*
X46598Y92284D01*
X46593Y92710D01*
X46117Y111191D01*
X46593Y138370D02*
X46578Y139617D01*
X46534Y140864D01*
X46459Y142109D01*
X46356Y143352D01*
X46222Y144592D01*
X46060Y145829D01*
X45867Y147062D01*
X45646Y148289D01*
X45395Y149511D01*
X45116Y150727D01*
X44807Y151936D01*
X44470Y153137D01*
X44104Y154329D01*
X43710Y155513D01*
X43288Y156687D01*
X42839Y157850D01*
X42361Y159003D01*
X41856Y160144D01*
X41325Y161272D01*
X40766Y162388D01*
X40182Y163490D01*
X39571Y164577D01*
X38934Y165650D01*
X38272Y166707D01*
X37586Y167749D01*
X36874Y168773D01*
X36139Y169781D01*
X35379Y170771D01*
X34596Y171742D01*
X33791Y172694D01*
X32963Y173627D01*
X32113Y174540D01*
X31241Y175433D01*
X-86709Y83120D02*
X-91498Y78220D01*
X-86709Y83120D02*
X-86151Y83664D01*
X-85581Y84195D01*
X-84998Y84713D01*
X-84403Y85216D01*
X-83796Y85705D01*
X-83178Y86179D01*
X-82549Y86639D01*
X-81909Y87083D01*
X-81258Y87512D01*
X-80598Y87926D01*
X-79927Y88323D01*
X-79248Y88705D01*
X-78560Y89070D01*
X-77863Y89419D01*
X-77158Y89751D01*
X-76445Y90066D01*
X-75725Y90365D01*
X-74998Y90646D01*
X-74265Y90909D01*
X-73526Y91155D01*
X-72781Y91384D01*
X-72031Y91594D01*
X-71275Y91787D01*
X-70516Y91962D01*
X-69753Y92118D01*
X-68986Y92257D01*
X-68216Y92377D01*
X-67443Y92478D01*
X-66668Y92562D01*
X-65892Y92627D01*
X-65114Y92673D01*
X-64335Y92701D01*
X-63556Y92710D01*
X46593Y92710D01*
X-108458Y83923D02*
X-157193Y83924D01*
X-108458Y83923D02*
X-103997Y83923D01*
X-103570Y83903D01*
X-103144Y83872D01*
X-102718Y83832D01*
X-102294Y83781D01*
X-101871Y83720D01*
X-101450Y83650D01*
X-101031Y83569D01*
X-100613Y83478D01*
X-100198Y83378D01*
X-99785Y83267D01*
X-99375Y83147D01*
X-98968Y83017D01*
X-98565Y82877D01*
X-98164Y82728D01*
X-97768Y82570D01*
X-97375Y82402D01*
X-96986Y82224D01*
X-96602Y82038D01*
X-96222Y81842D01*
X-95847Y81637D01*
X-95477Y81424D01*
X-95112Y81202D01*
X-94753Y80971D01*
X-94399Y80731D01*
X-94051Y80484D01*
X-93709Y80228D01*
X-93373Y79964D01*
X-93043Y79692D01*
X-92721Y79412D01*
X-92404Y79125D01*
X-92095Y78830D01*
X-91793Y78528D01*
X-91498Y78219D01*
X-103154Y-62638D02*
X-104587Y-64105D01*
X-105984Y-65606D01*
X-107345Y-67139D01*
X-108670Y-68705D01*
X-109956Y-70302D01*
X-111205Y-71929D01*
X-112414Y-73585D01*
X-113584Y-75269D01*
X-114713Y-76981D01*
X-115801Y-78719D01*
X-116847Y-80483D01*
X-117851Y-82271D01*
X-118813Y-84082D01*
X-119730Y-85916D01*
X-120604Y-87771D01*
X-121434Y-89646D01*
X-122219Y-91541D01*
X-122958Y-93454D01*
X-123652Y-95383D01*
X-124300Y-97329D01*
X-124901Y-99290D01*
X-125455Y-101264D01*
X-125962Y-103251D01*
X-126422Y-105249D01*
X-126834Y-107258D01*
X-127198Y-109276D01*
X-127514Y-111302D01*
X-127782Y-113336D01*
X-128001Y-115374D01*
X-128171Y-117418D01*
X-128293Y-119465D01*
X-128367Y-121514D01*
X-128391Y-123565D01*
X-102666Y-62848D02*
X-103154Y-62638D01*
X-102666Y-57197D02*
X-102202Y-56722D01*
X-101750Y-56235D01*
X-101310Y-55738D01*
X-100883Y-55230D01*
X-100468Y-54711D01*
X-100066Y-54183D01*
X-99677Y-53645D01*
X-99301Y-53097D01*
X-98939Y-52541D01*
X-98591Y-51976D01*
X-98257Y-51402D01*
X-97937Y-50820D01*
X-97631Y-50231D01*
X-97339Y-49634D01*
X-97063Y-49030D01*
X-96801Y-48420D01*
X-96555Y-47804D01*
X-96323Y-47181D01*
X-96107Y-46553D01*
X-95907Y-45920D01*
X-95722Y-45283D01*
X-95553Y-44641D01*
X-95399Y-43995D01*
X-95262Y-43345D01*
X-95140Y-42692D01*
X-95035Y-42037D01*
X-94945Y-41379D01*
X-94872Y-40719D01*
X-94815Y-40057D01*
X-94775Y-39394D01*
X-94750Y-38731D01*
X-94742Y-38067D01*
X-102666Y-57197D02*
X-102666Y-62848D01*
X65555Y-155201D02*
X65851Y-155490D01*
X66154Y-155772D01*
X66463Y-156046D01*
X66779Y-156313D01*
X67101Y-156573D01*
X67429Y-156824D01*
X67763Y-157068D01*
X68103Y-157304D01*
X68448Y-157532D01*
X68799Y-157751D01*
X69154Y-157962D01*
X69515Y-158165D01*
X69880Y-158358D01*
X70250Y-158544D01*
X70624Y-158720D01*
X71002Y-158887D01*
X71384Y-159045D01*
X71770Y-159195D01*
X72159Y-159334D01*
X72551Y-159465D01*
X72947Y-159586D01*
X73345Y-159698D01*
X73746Y-159800D01*
X74149Y-159893D01*
X74554Y-159976D01*
X74961Y-160049D01*
X75369Y-160113D01*
X75779Y-160167D01*
X76190Y-160211D01*
X76603Y-160246D01*
X77015Y-160270D01*
X77429Y-160285D01*
X77842Y-160290D01*
X65556Y-155201D02*
X53551Y-143197D01*
X40013Y-129659D01*
X28047Y-117063D01*
X118760Y8230D02*
X139991Y8730D01*
X141183Y8744D01*
X142373Y8787D01*
X143563Y8858D01*
X144750Y8957D01*
X145935Y9084D01*
X147116Y9240D01*
X148294Y9423D01*
X149466Y9635D01*
X150634Y9874D01*
X151795Y10141D01*
X152950Y10436D01*
X154097Y10758D01*
X155236Y11107D01*
X156367Y11484D01*
X157488Y11887D01*
X158599Y12316D01*
X159700Y12772D01*
X160790Y13255D01*
X161868Y13762D01*
X162933Y14296D01*
X163986Y14854D01*
X165025Y15438D01*
X166050Y16046D01*
X167060Y16678D01*
X168054Y17334D01*
X169033Y18014D01*
X169996Y18717D01*
X170941Y19442D01*
X171869Y20190D01*
X172779Y20959D01*
X173670Y21750D01*
X174542Y22562D01*
X175394Y23395D01*
X175395Y23395D02*
X176500Y24500D01*
X118760Y28710D02*
X118746Y29830D01*
X118706Y30950D01*
X118638Y32069D01*
X118544Y33185D01*
X118422Y34299D01*
X118273Y35410D01*
X118098Y36517D01*
X117896Y37619D01*
X117668Y38716D01*
X117413Y39807D01*
X117131Y40892D01*
X116824Y41969D01*
X116490Y43039D01*
X116131Y44101D01*
X115747Y45153D01*
X115337Y46196D01*
X114902Y47229D01*
X114442Y48250D01*
X113957Y49261D01*
X113449Y50259D01*
X112916Y51245D01*
X112360Y52218D01*
X111780Y53177D01*
X111177Y54121D01*
X110552Y55051D01*
X109904Y55966D01*
X109235Y56864D01*
X108543Y57746D01*
X107831Y58611D01*
X107098Y59459D01*
X106345Y60289D01*
X105572Y61100D01*
X104780Y61892D01*
X103969Y62665D01*
X103139Y63418D01*
X102291Y64151D01*
X101426Y64863D01*
X100544Y65555D01*
X99646Y66224D01*
X98731Y66872D01*
X97801Y67497D01*
X96857Y68100D01*
X95898Y68680D01*
X94925Y69236D01*
X93939Y69769D01*
X92941Y70277D01*
X91930Y70762D01*
X90909Y71222D01*
X89876Y71657D01*
X88833Y72067D01*
X87781Y72451D01*
X86719Y72810D01*
X85649Y73144D01*
X84572Y73451D01*
X83487Y73733D01*
X82396Y73988D01*
X81299Y74216D01*
X80197Y74418D01*
X79090Y74593D01*
X77979Y74742D01*
X76865Y74864D01*
X75749Y74958D01*
X74630Y75026D01*
X73510Y75066D01*
X72390Y75080D01*
X118760Y28710D02*
X118760Y8230D01*
D31*
X-108204Y84074D03*
X-83820Y60198D03*
X139700Y8890D03*
X40132Y-129794D03*
X8128Y-121158D03*
X-113792Y-75692D03*
X46736Y138938D03*
D30*
X-108204Y84074D02*
X-108458Y83923D01*
X40013Y-129659D02*
X40132Y-129794D01*
X118760Y8230D02*
X139700Y8890D01*
X-102666Y-62848D02*
X-113792Y-75692D01*
X46117Y111191D02*
X46593Y138369D01*
X46736Y138938D02*
X46117Y111191D01*
X28047Y-117063D02*
X24100Y-121009D01*
X9514Y-122544D02*
X8128Y-121158D01*
X9514Y-122544D02*
X22407Y-122702D01*
X28047Y-117063D01*
D32*
X53551Y-143197D03*
D30*
X-94742Y-38067D02*
X-94742Y43688D01*
X-83820Y54610D01*
X-83820Y60198D01*
D28*
X-130495Y64527D02*
X-133890Y36883D01*
X-134871Y29630D01*
X-136027Y22403D01*
X-137358Y15207D01*
X-138863Y8045D01*
X-140542Y922D01*
X-142393Y-6159D01*
X-144415Y-13193D01*
X-146607Y-20175D01*
X-148968Y-27102D01*
X-149949Y-29869D01*
X-150991Y-32927D01*
X-151959Y-36010D01*
X-152850Y-39116D01*
X-153666Y-42242D01*
X-154405Y-45388D01*
X-155067Y-48550D01*
X-155652Y-51728D01*
X-156159Y-54919D01*
X-156589Y-58122D01*
X-156940Y-61334D01*
X-157212Y-64553D01*
X-157406Y-67779D01*
X-157521Y-71008D01*
X-157557Y-74239D01*
X-157514Y-77469D01*
X-157393Y-80698D01*
X-157193Y-83923D01*
D22*
X2450Y-169067D03*
D28*
X-36576Y-90627D02*
X-37846Y-90907D01*
X-36576Y-90627D02*
X-37115Y-89555D01*
X-37998Y-88672D01*
X-37998Y-98748D02*
X-18849Y-117897D01*
X-17650Y-119125D01*
X-16481Y-120381D01*
X-15342Y-121665D01*
X-14233Y-122975D01*
X-13156Y-124312D01*
X-12112Y-125673D01*
X-11099Y-127059D01*
X-10121Y-128469D01*
X-9176Y-129902D01*
X-8265Y-131357D01*
X-7389Y-132833D01*
X-6549Y-134329D01*
X-5744Y-135845D01*
X-4976Y-137380D01*
X-4245Y-138932D01*
X-3550Y-140502D01*
X-2894Y-142087D01*
X-2275Y-143688D01*
X-1694Y-145303D01*
X-1152Y-146932D01*
X-649Y-148572D01*
X-185Y-150225D01*
X239Y-151888D01*
X624Y-153560D01*
X969Y-155242D01*
X1274Y-156931D01*
X1538Y-158626D01*
X1762Y-160328D01*
X1945Y-162034D01*
X2088Y-163745D01*
X2190Y-165458D01*
X2252Y-167173D01*
X2272Y-168889D01*
X2450Y-169067D01*
X-37998Y-98748D02*
X-37998Y-88672D01*
X72390Y-84920D02*
X76530Y-80780D01*
X76893Y-80408D01*
X77248Y-80027D01*
X77593Y-79638D01*
X77929Y-79241D01*
X78255Y-78836D01*
X78572Y-78423D01*
X78879Y-78003D01*
X79175Y-77576D01*
X79462Y-77142D01*
X79738Y-76701D01*
X80003Y-76253D01*
X80258Y-75800D01*
X80501Y-75341D01*
X80734Y-74875D01*
X80956Y-74405D01*
X81166Y-73929D01*
X81365Y-73449D01*
X81553Y-72964D01*
X81729Y-72474D01*
X81893Y-71981D01*
X82046Y-71483D01*
X82186Y-70982D01*
X82315Y-70479D01*
X82432Y-69972D01*
X82536Y-69462D01*
X82628Y-68950D01*
X82709Y-68436D01*
X82776Y-67921D01*
X82832Y-67403D01*
X82875Y-66885D01*
X82906Y-66366D01*
X82925Y-65846D01*
X82931Y-65326D01*
X82931Y-24492D01*
X82928Y-24262D01*
X82920Y-24033D01*
X82906Y-23803D01*
X82887Y-23575D01*
X82862Y-23346D01*
X82831Y-23118D01*
X82795Y-22892D01*
X82754Y-22666D01*
X82707Y-22441D01*
X82655Y-22217D01*
X82597Y-21995D01*
X82534Y-21774D01*
X82466Y-21554D01*
X82392Y-21337D01*
X82313Y-21121D01*
X82229Y-20907D01*
X82140Y-20696D01*
X82046Y-20486D01*
X81946Y-20279D01*
X81842Y-20074D01*
X81733Y-19872D01*
X81619Y-19673D01*
X81500Y-19476D01*
X81376Y-19283D01*
X81248Y-19092D01*
X81116Y-18905D01*
X80978Y-18720D01*
X80837Y-18539D01*
X80691Y-18362D01*
X80540Y-18188D01*
X80386Y-18018D01*
X80227Y-17852D01*
X80065Y-17690D01*
X79899Y-17531D01*
X79729Y-17377D01*
X79555Y-17226D01*
X79378Y-17080D01*
X79197Y-16939D01*
X79012Y-16801D01*
X78825Y-16669D01*
X78634Y-16541D01*
X78441Y-16417D01*
X78244Y-16298D01*
X78045Y-16184D01*
X77843Y-16075D01*
X77638Y-15971D01*
X77431Y-15871D01*
X77221Y-15777D01*
X77010Y-15688D01*
X76796Y-15604D01*
X76580Y-15525D01*
X76363Y-15451D01*
X76143Y-15383D01*
X75922Y-15320D01*
X75700Y-15262D01*
X75476Y-15210D01*
X75251Y-15163D01*
X75025Y-15122D01*
X74799Y-15086D01*
X74571Y-15055D01*
X74342Y-15030D01*
X74114Y-15011D01*
X73884Y-14997D01*
X73655Y-14989D01*
X73425Y-14986D01*
X68921Y-14986D01*
X59251Y-10980D01*
X59251Y-10981D02*
X59206Y-10979D01*
X59161Y-10975D01*
X59116Y-10967D01*
X59073Y-10955D01*
X59030Y-10941D01*
X58988Y-10924D01*
X58948Y-10904D01*
X58909Y-10880D01*
X58872Y-10855D01*
X58836Y-10826D01*
X58803Y-10796D01*
X58803Y-10795D02*
X57785Y-10795D01*
D22*
X57785Y-10795D03*
D33*
X19634Y-17831D03*
D28*
X19533Y-17932D01*
X19533Y-34068D01*
X19532Y-34068D02*
X19539Y-34622D01*
X19558Y-35176D01*
X19591Y-35729D01*
X19637Y-36281D01*
X19697Y-36832D01*
X19769Y-37382D01*
X19854Y-37929D01*
X19953Y-38475D01*
X20064Y-39018D01*
X20188Y-39558D01*
X20325Y-40095D01*
X20475Y-40628D01*
X20638Y-41158D01*
X20813Y-41684D01*
X21000Y-42205D01*
X21200Y-42722D01*
X21412Y-43234D01*
X21636Y-43741D01*
X21872Y-44242D01*
X22120Y-44738D01*
X22380Y-45227D01*
X22652Y-45711D01*
X22934Y-46187D01*
X23228Y-46657D01*
X23534Y-47119D01*
X23850Y-47575D01*
X24176Y-48022D01*
X24514Y-48462D01*
X24861Y-48893D01*
X25219Y-49316D01*
X25587Y-49731D01*
X25965Y-50136D01*
X26352Y-50533D01*
D22*
X26353Y-50533D03*
D29*
X-18821Y-14783D03*
D28*
X-21464Y-22860D02*
X-21464Y-33156D01*
X-21464Y-22860D02*
X-21464Y-22547D01*
X-14335Y-40284D02*
X-7492Y-40284D01*
X-14335Y-40285D02*
X-14507Y-40283D01*
X-14679Y-40277D01*
X-14851Y-40266D01*
X-15023Y-40252D01*
X-15194Y-40233D01*
X-15365Y-40210D01*
X-15535Y-40183D01*
X-15705Y-40152D01*
X-15873Y-40117D01*
X-16041Y-40078D01*
X-16208Y-40035D01*
X-16374Y-39987D01*
X-16538Y-39936D01*
X-16701Y-39881D01*
X-16863Y-39822D01*
X-17023Y-39759D01*
X-17182Y-39692D01*
X-17339Y-39621D01*
X-17495Y-39547D01*
X-17648Y-39468D01*
X-17800Y-39387D01*
X-17949Y-39301D01*
X-18097Y-39212D01*
X-18242Y-39119D01*
X-18385Y-39023D01*
X-18525Y-38923D01*
X-18663Y-38821D01*
X-18799Y-38714D01*
X-18932Y-38605D01*
X-19062Y-38492D01*
X-19190Y-38376D01*
X-19315Y-38258D01*
X-19437Y-38136D01*
X-19555Y-38011D01*
X-19671Y-37883D01*
X-19784Y-37753D01*
X-19893Y-37620D01*
X-20000Y-37484D01*
X-20102Y-37346D01*
X-20202Y-37206D01*
X-20298Y-37063D01*
X-20391Y-36918D01*
X-20480Y-36770D01*
X-20566Y-36621D01*
X-20647Y-36469D01*
X-20726Y-36316D01*
X-20800Y-36160D01*
X-20871Y-36003D01*
X-20938Y-35844D01*
X-21001Y-35684D01*
X-21060Y-35522D01*
X-21115Y-35359D01*
X-21166Y-35195D01*
X-21214Y-35029D01*
X-21257Y-34862D01*
X-21296Y-34694D01*
X-21331Y-34526D01*
X-21362Y-34356D01*
X-21389Y-34186D01*
X-21412Y-34015D01*
X-21431Y-33844D01*
X-21445Y-33672D01*
X-21456Y-33500D01*
X-21462Y-33328D01*
X-21464Y-33156D01*
X355Y-43535D02*
X3835Y-47015D01*
X355Y-43534D02*
X166Y-43350D01*
X-27Y-43170D01*
X-225Y-42994D01*
X-427Y-42824D01*
X-632Y-42658D01*
X-842Y-42497D01*
X-1055Y-42342D01*
X-1272Y-42191D01*
X-1493Y-42046D01*
X-1716Y-41905D01*
X-1943Y-41771D01*
X-2174Y-41641D01*
X-2407Y-41518D01*
X-2643Y-41399D01*
X-2882Y-41287D01*
X-3124Y-41180D01*
X-3368Y-41079D01*
X-3614Y-40984D01*
X-3863Y-40894D01*
X-4113Y-40811D01*
X-4366Y-40734D01*
X-4620Y-40662D01*
X-4876Y-40597D01*
X-5133Y-40538D01*
X-5392Y-40485D01*
X-5652Y-40438D01*
X-5913Y-40397D01*
X-6175Y-40362D01*
X-6437Y-40334D01*
X-6700Y-40312D01*
X-6964Y-40297D01*
X-7228Y-40287D01*
X-7492Y-40284D01*
X3835Y-47015D02*
X3835Y-53873D01*
X-21464Y-22547D02*
X-21464Y-21163D01*
X-21461Y-20948D01*
X-21454Y-20734D01*
X-21441Y-20519D01*
X-21423Y-20305D01*
X-21400Y-20092D01*
X-21372Y-19879D01*
X-21339Y-19667D01*
X-21301Y-19456D01*
X-21258Y-19245D01*
X-21210Y-19036D01*
X-21157Y-18828D01*
X-21099Y-18621D01*
X-21036Y-18416D01*
X-20968Y-18212D01*
X-20895Y-18010D01*
X-20818Y-17810D01*
X-20736Y-17611D01*
X-20649Y-17415D01*
X-20557Y-17221D01*
X-20461Y-17029D01*
X-20360Y-16839D01*
X-20255Y-16652D01*
X-20146Y-16467D01*
X-20032Y-16285D01*
X-19914Y-16106D01*
X-19791Y-15930D01*
X-19664Y-15756D01*
X-19534Y-15586D01*
X-19399Y-15419D01*
X-19260Y-15255D01*
X-19118Y-15094D01*
X-18972Y-14937D01*
X-18822Y-14783D01*
X-5313Y-91080D02*
X-6909Y-91516D01*
X-5313Y-91080D02*
X-5243Y-90957D01*
X-5302Y-90907D02*
X-28448Y-90907D01*
X-5302Y-90907D02*
X-5243Y-90957D01*
D22*
X84815Y-127860D03*
D28*
X169924Y-31076D02*
X176500Y-24500D01*
X169924Y-31076D02*
X169720Y-31285D01*
X169520Y-31500D01*
X169326Y-31719D01*
X169137Y-31942D01*
X168953Y-32170D01*
X168775Y-32402D01*
X168602Y-32638D01*
X168435Y-32879D01*
X168274Y-33123D01*
X168119Y-33371D01*
X167970Y-33623D01*
X167826Y-33878D01*
X167689Y-34137D01*
X167558Y-34398D01*
X167433Y-34663D01*
X167315Y-34931D01*
X167203Y-35201D01*
X167097Y-35474D01*
X166998Y-35750D01*
X166906Y-36027D01*
X166820Y-36307D01*
X166741Y-36589D01*
X166669Y-36873D01*
X166603Y-37158D01*
X166544Y-37445D01*
X166492Y-37733D01*
X166447Y-38022D01*
X166409Y-38312D01*
X166378Y-38603D01*
X166353Y-38895D01*
X166336Y-39187D01*
X166325Y-39479D01*
X166322Y-39772D01*
X166317Y-40162D01*
X166303Y-40551D01*
X166279Y-40941D01*
X166246Y-41329D01*
X166203Y-41716D01*
X166150Y-42103D01*
X166088Y-42488D01*
X166017Y-42871D01*
X165936Y-43252D01*
X165846Y-43632D01*
X165747Y-44009D01*
X165638Y-44383D01*
X165520Y-44755D01*
X165393Y-45123D01*
X165258Y-45489D01*
X165113Y-45851D01*
X164959Y-46209D01*
X164797Y-46564D01*
X164626Y-46914D01*
X164446Y-47260D01*
X164258Y-47602D01*
X164062Y-47939D01*
X163858Y-48270D01*
X163645Y-48597D01*
X163424Y-48919D01*
X163196Y-49235D01*
X162960Y-49545D01*
X162716Y-49849D01*
X162465Y-50148D01*
X162207Y-50440D01*
X161942Y-50725D01*
X161669Y-51004D01*
D22*
X28397Y-85164D03*
D28*
X28397Y-85163D02*
X28160Y-85160D01*
X27924Y-85152D01*
X27688Y-85138D01*
X27452Y-85118D01*
X27217Y-85093D01*
X26982Y-85062D01*
X26748Y-85025D01*
X26515Y-84983D01*
X26284Y-84936D01*
X26053Y-84883D01*
X25824Y-84824D01*
X25596Y-84760D01*
X25370Y-84691D01*
X25145Y-84616D01*
X24923Y-84536D01*
X24702Y-84451D01*
X24483Y-84360D01*
X24267Y-84265D01*
X24053Y-84164D01*
X23841Y-84058D01*
X23632Y-83947D01*
X23426Y-83831D01*
X23223Y-83710D01*
X23022Y-83585D01*
X22824Y-83454D01*
X22630Y-83320D01*
X22439Y-83180D01*
X22251Y-83036D01*
X22067Y-82887D01*
X21886Y-82735D01*
X21709Y-82578D01*
X21536Y-82416D01*
X21367Y-82251D01*
X9210Y-77216D02*
X8030Y-77216D01*
X9210Y-77216D02*
X9619Y-77221D01*
X10028Y-77235D01*
X10436Y-77260D01*
X10844Y-77294D01*
X11251Y-77338D01*
X11657Y-77391D01*
X12061Y-77454D01*
X12464Y-77527D01*
X12864Y-77609D01*
X13263Y-77701D01*
X13660Y-77802D01*
X14054Y-77912D01*
X14445Y-78032D01*
X14833Y-78162D01*
X15218Y-78300D01*
X15600Y-78447D01*
X15978Y-78604D01*
X16352Y-78770D01*
X16722Y-78944D01*
X17088Y-79127D01*
X17449Y-79319D01*
X17806Y-79519D01*
X18158Y-79728D01*
X18505Y-79945D01*
X18846Y-80170D01*
X19182Y-80404D01*
X19513Y-80645D01*
X19837Y-80894D01*
X20156Y-81151D01*
X20468Y-81415D01*
X20774Y-81687D01*
X21074Y-81966D01*
X21367Y-82251D01*
X-5249Y-84731D02*
X-6909Y-91516D01*
X-5249Y-84731D02*
X-5212Y-84590D01*
X-5172Y-84451D01*
X-5129Y-84312D01*
X-5081Y-84175D01*
X-5031Y-84038D01*
X-4976Y-83904D01*
X-4919Y-83770D01*
X-4857Y-83638D01*
X-4793Y-83508D01*
X-4725Y-83380D01*
X-4653Y-83253D01*
X-4579Y-83128D01*
X-4501Y-83005D01*
X-4420Y-82885D01*
X-4336Y-82766D01*
X-4249Y-82650D01*
X-4159Y-82536D01*
X-4066Y-82424D01*
X-3970Y-82315D01*
X-3871Y-82208D01*
X-3770Y-82104D01*
X-3485Y-81826D01*
X-3195Y-81555D01*
X-2898Y-81292D01*
X-2594Y-81035D01*
X-2285Y-80786D01*
X-1970Y-80544D01*
X-1649Y-80310D01*
X-1323Y-80084D01*
X-992Y-79865D01*
X-655Y-79654D01*
X-314Y-79452D01*
X33Y-79257D01*
X384Y-79071D01*
X739Y-78893D01*
X1098Y-78724D01*
X1461Y-78563D01*
X1828Y-78411D01*
X2198Y-78268D01*
X2572Y-78134D01*
X2949Y-78008D01*
X3329Y-77892D01*
X3711Y-77785D01*
X4096Y-77686D01*
X4483Y-77597D01*
X4872Y-77518D01*
X5263Y-77447D01*
X5655Y-77386D01*
X6049Y-77334D01*
X6444Y-77292D01*
X6840Y-77259D01*
X7236Y-77235D01*
X7633Y-77221D01*
X8030Y-77216D01*
X84815Y-127860D02*
X108117Y-104557D01*
X108246Y-104424D01*
X108372Y-104289D01*
X108494Y-104150D01*
X108613Y-104009D01*
X108729Y-103864D01*
X108841Y-103717D01*
X108949Y-103567D01*
X109054Y-103415D01*
X109155Y-103260D01*
X109252Y-103102D01*
X109345Y-102942D01*
X109434Y-102780D01*
X109519Y-102616D01*
X109600Y-102450D01*
X109677Y-102282D01*
X109750Y-102112D01*
X109819Y-101940D01*
X109883Y-101767D01*
X109944Y-101592D01*
X110000Y-101416D01*
X110051Y-101238D01*
X110098Y-101059D01*
X110141Y-100879D01*
X110179Y-100698D01*
X110213Y-100516D01*
X110242Y-100334D01*
X110267Y-100150D01*
X110288Y-99967D01*
X110304Y-99782D01*
X110315Y-99598D01*
X110322Y-99413D01*
X110324Y-99228D01*
X110328Y-98913D01*
X110339Y-98598D01*
X110358Y-98283D01*
X110384Y-97969D01*
X110418Y-97656D01*
X110459Y-97343D01*
X110507Y-97032D01*
X110563Y-96722D01*
X110627Y-96413D01*
X110697Y-96106D01*
X110775Y-95801D01*
X110860Y-95497D01*
X110953Y-95196D01*
X111052Y-94897D01*
X111159Y-94600D01*
X111273Y-94306D01*
X111393Y-94015D01*
X111521Y-93727D01*
X111655Y-93442D01*
X111796Y-93160D01*
X111944Y-92882D01*
X112098Y-92607D01*
X112259Y-92336D01*
X112426Y-92069D01*
X112600Y-91806D01*
X112779Y-91547D01*
X112965Y-91292D01*
X113157Y-91042D01*
X113355Y-90797D01*
X113558Y-90556D01*
X113768Y-90321D01*
X113982Y-90090D01*
X114202Y-89864D01*
X114203Y-89865D02*
X122517Y-81550D01*
X122516Y-81550D02*
X122733Y-81339D01*
X122955Y-81133D01*
X123181Y-80932D01*
X123412Y-80736D01*
X123648Y-80546D01*
X123888Y-80362D01*
X124133Y-80183D01*
X124382Y-80010D01*
X124634Y-79844D01*
X124891Y-79683D01*
X125152Y-79529D01*
X125416Y-79380D01*
X125683Y-79238D01*
X125954Y-79103D01*
X126228Y-78974D01*
X126505Y-78851D01*
X126784Y-78735D01*
X127067Y-78626D01*
X127352Y-78524D01*
X127639Y-78428D01*
X127929Y-78339D01*
X128220Y-78258D01*
X128513Y-78183D01*
X128809Y-78115D01*
X129105Y-78054D01*
X129403Y-78000D01*
X129702Y-77954D01*
X130003Y-77914D01*
X130304Y-77882D01*
X130605Y-77856D01*
X130908Y-77838D01*
X131210Y-77828D01*
X131513Y-77824D01*
X131711Y-77822D01*
X131908Y-77814D01*
X132106Y-77802D01*
X132303Y-77785D01*
X132499Y-77763D01*
X132695Y-77737D01*
X132890Y-77705D01*
X133085Y-77669D01*
X133278Y-77628D01*
X133470Y-77583D01*
X133662Y-77532D01*
X133852Y-77477D01*
X134040Y-77417D01*
X134227Y-77353D01*
X134412Y-77284D01*
X134596Y-77211D01*
X134778Y-77133D01*
X134957Y-77051D01*
X135135Y-76964D01*
X135311Y-76873D01*
X135484Y-76777D01*
X135655Y-76678D01*
X135823Y-76574D01*
X135989Y-76466D01*
X136152Y-76354D01*
X136312Y-76239D01*
X136469Y-76119D01*
X136624Y-75995D01*
X136775Y-75868D01*
X136923Y-75737D01*
X137068Y-75603D01*
X137209Y-75464D01*
X137209Y-75465D02*
X161669Y-51005D01*
X67645Y-122388D02*
X67645Y-128906D01*
X67645Y-122387D02*
X67648Y-121709D01*
X67636Y-121030D01*
X67606Y-120352D01*
X67561Y-119675D01*
X67498Y-118999D01*
X67419Y-118325D01*
X67324Y-117653D01*
X67212Y-116984D01*
X67084Y-116317D01*
X66939Y-115654D01*
X66779Y-114995D01*
X66602Y-114340D01*
X66409Y-113689D01*
X66201Y-113043D01*
X65977Y-112402D01*
X65737Y-111768D01*
X65482Y-111139D01*
X65211Y-110516D01*
X64925Y-109901D01*
X64625Y-109292D01*
X64309Y-108692D01*
X63979Y-108099D01*
X63634Y-107514D01*
X63276Y-106938D01*
X62903Y-106371D01*
X62517Y-105813D01*
X62117Y-105264D01*
X61703Y-104726D01*
X61277Y-104198D01*
X60838Y-103681D01*
X60386Y-103174D01*
X59922Y-102679D01*
X59446Y-102195D01*
X58959Y-101723D01*
X58460Y-101263D01*
X57950Y-100815D01*
X57429Y-100380D01*
X56898Y-99958D01*
X56356Y-99549D01*
X55805Y-99153D01*
X55244Y-98771D01*
X54674Y-98403D01*
X54095Y-98048D01*
X53508Y-97708D01*
X52912Y-97383D01*
X52309Y-97072D01*
X51698Y-96776D01*
X51080Y-96495D01*
X50456Y-96230D01*
X49825Y-95979D01*
X49188Y-95744D01*
X48546Y-95525D01*
X47899Y-95322D01*
X47246Y-95134D01*
X46590Y-94962D01*
X45929Y-94807D01*
X45265Y-94668D01*
X44598Y-94545D01*
X43927Y-94438D01*
X43255Y-94348D01*
X42580Y-94274D01*
X15349Y-92057D01*
D22*
X98628Y-103835D03*
D28*
X73558Y-128906D01*
X67645Y-128906D01*
X15349Y-92057D02*
X14808Y-91516D01*
X13411Y-91516D01*
D22*
X98651Y-92913D03*
D28*
X98485Y-93075D01*
X98315Y-93233D01*
X98141Y-93387D01*
X97964Y-93536D01*
X97783Y-93681D01*
X97598Y-93822D01*
X97410Y-93958D01*
X97219Y-94089D01*
X97024Y-94215D01*
X96827Y-94337D01*
X96626Y-94454D01*
X96423Y-94566D01*
X96217Y-94673D01*
X96009Y-94774D01*
X95798Y-94871D01*
X95585Y-94962D01*
X95369Y-95049D01*
X95152Y-95129D01*
X94932Y-95205D01*
X94711Y-95275D01*
X94488Y-95340D01*
X94264Y-95399D01*
X94038Y-95452D01*
X93811Y-95500D01*
X93583Y-95543D01*
X93354Y-95580D01*
X93124Y-95611D01*
X92894Y-95636D01*
X92662Y-95656D01*
X92431Y-95671D01*
X92199Y-95679D01*
X91967Y-95682D01*
X83922Y-95682D01*
D22*
X83922Y-95682D03*
D28*
X3251Y-91516D02*
X3251Y-103835D01*
X3480Y-104064D01*
D22*
X3480Y-104064D03*
M02*
