G04 EAGLE Gerber RS-274X export*
G75*
%MOMM*%
%FSLAX34Y34*%
%LPD*%
%INSilkscreen Bottom*%
%IPPOS*%
%AMOC8*
5,1,8,0,0,1.08239X$1,22.5*%
G01*
%ADD10C,0.152400*%
%ADD11C,5.080000*%
%ADD12C,0.177800*%
%ADD13C,0.101600*%
%ADD14C,0.203200*%
%ADD15C,0.127000*%
%ADD16C,0.100000*%


D10*
X-94640Y-37191D02*
X-94640Y-42158D01*
X-83464Y-42158D01*
X-83464Y-37191D01*
X-88432Y-38433D02*
X-88432Y-42158D01*
X-98366Y-33184D02*
X-98366Y-31942D01*
X-87190Y-28217D01*
X-87190Y-33184D02*
X-94640Y-30700D01*
X-94640Y-21796D02*
X-94640Y-18692D01*
X-94641Y-21796D02*
X-94639Y-21880D01*
X-94634Y-21963D01*
X-94624Y-22046D01*
X-94611Y-22129D01*
X-94594Y-22211D01*
X-94574Y-22292D01*
X-94550Y-22372D01*
X-94522Y-22451D01*
X-94491Y-22528D01*
X-94457Y-22604D01*
X-94419Y-22679D01*
X-94377Y-22752D01*
X-94333Y-22822D01*
X-94285Y-22891D01*
X-94235Y-22958D01*
X-94181Y-23022D01*
X-94125Y-23083D01*
X-94065Y-23143D01*
X-94004Y-23199D01*
X-93940Y-23253D01*
X-93873Y-23303D01*
X-93804Y-23351D01*
X-93734Y-23395D01*
X-93661Y-23437D01*
X-93586Y-23475D01*
X-93510Y-23509D01*
X-93433Y-23540D01*
X-93354Y-23568D01*
X-93274Y-23592D01*
X-93193Y-23612D01*
X-93111Y-23629D01*
X-93028Y-23642D01*
X-92945Y-23652D01*
X-92862Y-23657D01*
X-92778Y-23659D01*
X-89673Y-23659D01*
X-89574Y-23657D01*
X-89476Y-23651D01*
X-89377Y-23641D01*
X-89280Y-23628D01*
X-89182Y-23610D01*
X-89086Y-23589D01*
X-88990Y-23563D01*
X-88896Y-23534D01*
X-88803Y-23502D01*
X-88711Y-23465D01*
X-88621Y-23425D01*
X-88532Y-23381D01*
X-88445Y-23334D01*
X-88360Y-23284D01*
X-88278Y-23230D01*
X-88197Y-23173D01*
X-88119Y-23113D01*
X-88043Y-23049D01*
X-87970Y-22983D01*
X-87899Y-22914D01*
X-87831Y-22842D01*
X-87767Y-22767D01*
X-87705Y-22690D01*
X-87646Y-22611D01*
X-87591Y-22529D01*
X-87538Y-22445D01*
X-87490Y-22360D01*
X-87444Y-22272D01*
X-87402Y-22182D01*
X-87364Y-22091D01*
X-87330Y-21999D01*
X-87299Y-21905D01*
X-87272Y-21810D01*
X-87248Y-21714D01*
X-87229Y-21617D01*
X-87213Y-21520D01*
X-87201Y-21422D01*
X-87193Y-21323D01*
X-87189Y-21224D01*
X-87189Y-21126D01*
X-87193Y-21027D01*
X-87201Y-20928D01*
X-87213Y-20830D01*
X-87229Y-20733D01*
X-87248Y-20636D01*
X-87272Y-20540D01*
X-87299Y-20445D01*
X-87330Y-20351D01*
X-87364Y-20259D01*
X-87402Y-20168D01*
X-87444Y-20078D01*
X-87490Y-19990D01*
X-87538Y-19905D01*
X-87591Y-19821D01*
X-87646Y-19739D01*
X-87705Y-19660D01*
X-87767Y-19583D01*
X-87831Y-19508D01*
X-87899Y-19436D01*
X-87970Y-19367D01*
X-88043Y-19301D01*
X-88119Y-19237D01*
X-88197Y-19177D01*
X-88278Y-19120D01*
X-88360Y-19066D01*
X-88445Y-19016D01*
X-88532Y-18969D01*
X-88621Y-18925D01*
X-88711Y-18885D01*
X-88803Y-18848D01*
X-88896Y-18816D01*
X-88990Y-18787D01*
X-89086Y-18761D01*
X-89182Y-18740D01*
X-89280Y-18722D01*
X-89377Y-18709D01*
X-89476Y-18699D01*
X-89574Y-18693D01*
X-89673Y-18691D01*
X-89673Y-18692D02*
X-90915Y-18692D01*
X-90915Y-23659D01*
X-90294Y-13470D02*
X-90294Y-6020D01*
X-94641Y2687D02*
X-94639Y2784D01*
X-94633Y2882D01*
X-94624Y2979D01*
X-94610Y3076D01*
X-94593Y3172D01*
X-94572Y3267D01*
X-94548Y3361D01*
X-94519Y3455D01*
X-94487Y3547D01*
X-94452Y3638D01*
X-94413Y3727D01*
X-94370Y3815D01*
X-94324Y3901D01*
X-94275Y3985D01*
X-94222Y4067D01*
X-94167Y4147D01*
X-94108Y4225D01*
X-94046Y4300D01*
X-93981Y4373D01*
X-93913Y4443D01*
X-93843Y4511D01*
X-93770Y4576D01*
X-93695Y4638D01*
X-93617Y4697D01*
X-93537Y4752D01*
X-93455Y4805D01*
X-93371Y4854D01*
X-93285Y4900D01*
X-93197Y4943D01*
X-93108Y4982D01*
X-93017Y5017D01*
X-92925Y5049D01*
X-92831Y5078D01*
X-92737Y5102D01*
X-92642Y5123D01*
X-92546Y5140D01*
X-92449Y5154D01*
X-92352Y5163D01*
X-92255Y5169D01*
X-92157Y5171D01*
X-94641Y2687D02*
X-94639Y2544D01*
X-94633Y2401D01*
X-94624Y2259D01*
X-94610Y2117D01*
X-94592Y1975D01*
X-94571Y1834D01*
X-94546Y1693D01*
X-94517Y1553D01*
X-94484Y1414D01*
X-94448Y1276D01*
X-94407Y1139D01*
X-94363Y1003D01*
X-94316Y868D01*
X-94264Y735D01*
X-94209Y603D01*
X-94151Y473D01*
X-94089Y344D01*
X-94023Y217D01*
X-93954Y92D01*
X-93882Y-31D01*
X-93806Y-152D01*
X-93728Y-271D01*
X-93645Y-388D01*
X-93560Y-503D01*
X-93472Y-615D01*
X-93380Y-725D01*
X-93286Y-832D01*
X-93189Y-937D01*
X-93089Y-1039D01*
X-85948Y-729D02*
X-85850Y-727D01*
X-85753Y-721D01*
X-85656Y-712D01*
X-85559Y-698D01*
X-85463Y-681D01*
X-85368Y-660D01*
X-85274Y-636D01*
X-85180Y-607D01*
X-85088Y-575D01*
X-84997Y-540D01*
X-84908Y-501D01*
X-84820Y-458D01*
X-84734Y-412D01*
X-84650Y-363D01*
X-84568Y-310D01*
X-84488Y-255D01*
X-84410Y-196D01*
X-84335Y-134D01*
X-84262Y-69D01*
X-84192Y-1D01*
X-84124Y69D01*
X-84059Y142D01*
X-83997Y217D01*
X-83938Y295D01*
X-83883Y375D01*
X-83830Y457D01*
X-83781Y541D01*
X-83735Y627D01*
X-83692Y715D01*
X-83653Y804D01*
X-83618Y895D01*
X-83586Y987D01*
X-83557Y1081D01*
X-83533Y1175D01*
X-83512Y1270D01*
X-83495Y1366D01*
X-83481Y1463D01*
X-83472Y1560D01*
X-83466Y1657D01*
X-83464Y1755D01*
X-83466Y1885D01*
X-83471Y2015D01*
X-83480Y2145D01*
X-83493Y2275D01*
X-83509Y2404D01*
X-83529Y2533D01*
X-83553Y2661D01*
X-83580Y2789D01*
X-83611Y2915D01*
X-83645Y3041D01*
X-83683Y3166D01*
X-83724Y3289D01*
X-83769Y3412D01*
X-83817Y3533D01*
X-83868Y3653D01*
X-83923Y3771D01*
X-83981Y3887D01*
X-84042Y4002D01*
X-84107Y4116D01*
X-84174Y4227D01*
X-84245Y4336D01*
X-84319Y4444D01*
X-84395Y4549D01*
X-88121Y514D02*
X-88070Y431D01*
X-88016Y350D01*
X-87959Y272D01*
X-87899Y196D01*
X-87836Y122D01*
X-87770Y51D01*
X-87702Y-18D01*
X-87631Y-84D01*
X-87558Y-148D01*
X-87482Y-208D01*
X-87404Y-265D01*
X-87323Y-320D01*
X-87241Y-371D01*
X-87157Y-419D01*
X-87071Y-464D01*
X-86983Y-506D01*
X-86894Y-544D01*
X-86804Y-578D01*
X-86712Y-610D01*
X-86619Y-637D01*
X-86525Y-661D01*
X-86430Y-682D01*
X-86334Y-698D01*
X-86238Y-711D01*
X-86142Y-721D01*
X-86045Y-726D01*
X-85948Y-728D01*
X-89984Y3928D02*
X-90035Y4011D01*
X-90089Y4092D01*
X-90146Y4170D01*
X-90206Y4246D01*
X-90269Y4320D01*
X-90335Y4391D01*
X-90403Y4460D01*
X-90474Y4526D01*
X-90547Y4590D01*
X-90623Y4650D01*
X-90701Y4707D01*
X-90782Y4762D01*
X-90864Y4813D01*
X-90948Y4861D01*
X-91034Y4906D01*
X-91122Y4948D01*
X-91211Y4986D01*
X-91301Y5020D01*
X-91393Y5052D01*
X-91486Y5079D01*
X-91580Y5103D01*
X-91675Y5124D01*
X-91771Y5140D01*
X-91867Y5153D01*
X-91963Y5163D01*
X-92060Y5168D01*
X-92157Y5170D01*
X-89984Y3929D02*
X-88121Y514D01*
X-87190Y8851D02*
X-87190Y12576D01*
X-83464Y10092D02*
X-92778Y10092D01*
X-92862Y10094D01*
X-92945Y10100D01*
X-93028Y10109D01*
X-93111Y10122D01*
X-93193Y10139D01*
X-93274Y10159D01*
X-93354Y10183D01*
X-93433Y10211D01*
X-93510Y10242D01*
X-93586Y10276D01*
X-93661Y10314D01*
X-93734Y10356D01*
X-93804Y10400D01*
X-93873Y10448D01*
X-93940Y10498D01*
X-94004Y10552D01*
X-94065Y10608D01*
X-94125Y10668D01*
X-94181Y10729D01*
X-94235Y10793D01*
X-94285Y10860D01*
X-94333Y10929D01*
X-94377Y10999D01*
X-94419Y11072D01*
X-94457Y11147D01*
X-94491Y11223D01*
X-94522Y11300D01*
X-94550Y11379D01*
X-94574Y11459D01*
X-94594Y11540D01*
X-94611Y11622D01*
X-94624Y11705D01*
X-94634Y11788D01*
X-94639Y11871D01*
X-94641Y11955D01*
X-94640Y11955D02*
X-94640Y12576D01*
X-92157Y17108D02*
X-89673Y17108D01*
X-89574Y17110D01*
X-89476Y17116D01*
X-89377Y17126D01*
X-89280Y17139D01*
X-89182Y17157D01*
X-89086Y17178D01*
X-88990Y17204D01*
X-88896Y17233D01*
X-88803Y17265D01*
X-88711Y17302D01*
X-88621Y17342D01*
X-88532Y17386D01*
X-88445Y17433D01*
X-88360Y17483D01*
X-88278Y17537D01*
X-88197Y17594D01*
X-88119Y17654D01*
X-88043Y17718D01*
X-87970Y17784D01*
X-87899Y17853D01*
X-87831Y17925D01*
X-87767Y18000D01*
X-87705Y18077D01*
X-87646Y18156D01*
X-87591Y18238D01*
X-87538Y18322D01*
X-87490Y18407D01*
X-87444Y18495D01*
X-87402Y18585D01*
X-87364Y18676D01*
X-87330Y18768D01*
X-87299Y18862D01*
X-87272Y18957D01*
X-87248Y19053D01*
X-87229Y19150D01*
X-87213Y19247D01*
X-87201Y19345D01*
X-87193Y19444D01*
X-87189Y19543D01*
X-87189Y19641D01*
X-87193Y19740D01*
X-87201Y19839D01*
X-87213Y19937D01*
X-87229Y20034D01*
X-87248Y20131D01*
X-87272Y20227D01*
X-87299Y20322D01*
X-87330Y20416D01*
X-87364Y20508D01*
X-87402Y20599D01*
X-87444Y20689D01*
X-87490Y20777D01*
X-87538Y20862D01*
X-87591Y20946D01*
X-87646Y21028D01*
X-87705Y21107D01*
X-87767Y21184D01*
X-87831Y21259D01*
X-87899Y21331D01*
X-87970Y21400D01*
X-88043Y21466D01*
X-88119Y21530D01*
X-88197Y21590D01*
X-88278Y21647D01*
X-88360Y21701D01*
X-88445Y21751D01*
X-88532Y21798D01*
X-88621Y21842D01*
X-88711Y21882D01*
X-88803Y21919D01*
X-88896Y21951D01*
X-88990Y21980D01*
X-89086Y22006D01*
X-89182Y22027D01*
X-89280Y22045D01*
X-89377Y22058D01*
X-89476Y22068D01*
X-89574Y22074D01*
X-89673Y22076D01*
X-89673Y22075D02*
X-92157Y22075D01*
X-92157Y22076D02*
X-92256Y22074D01*
X-92354Y22068D01*
X-92453Y22058D01*
X-92550Y22045D01*
X-92648Y22027D01*
X-92744Y22006D01*
X-92840Y21980D01*
X-92934Y21951D01*
X-93027Y21919D01*
X-93119Y21882D01*
X-93209Y21842D01*
X-93298Y21798D01*
X-93385Y21751D01*
X-93470Y21701D01*
X-93552Y21647D01*
X-93633Y21590D01*
X-93711Y21530D01*
X-93787Y21466D01*
X-93860Y21400D01*
X-93931Y21331D01*
X-93999Y21259D01*
X-94063Y21184D01*
X-94125Y21107D01*
X-94184Y21028D01*
X-94239Y20946D01*
X-94292Y20862D01*
X-94340Y20777D01*
X-94386Y20689D01*
X-94428Y20599D01*
X-94466Y20508D01*
X-94500Y20416D01*
X-94531Y20322D01*
X-94558Y20227D01*
X-94582Y20131D01*
X-94601Y20034D01*
X-94617Y19937D01*
X-94629Y19839D01*
X-94637Y19740D01*
X-94641Y19641D01*
X-94641Y19543D01*
X-94637Y19444D01*
X-94629Y19345D01*
X-94617Y19247D01*
X-94601Y19150D01*
X-94582Y19053D01*
X-94558Y18957D01*
X-94531Y18862D01*
X-94500Y18768D01*
X-94466Y18676D01*
X-94428Y18585D01*
X-94386Y18495D01*
X-94340Y18407D01*
X-94292Y18322D01*
X-94239Y18238D01*
X-94184Y18156D01*
X-94125Y18077D01*
X-94063Y18000D01*
X-93999Y17925D01*
X-93931Y17853D01*
X-93860Y17784D01*
X-93787Y17718D01*
X-93711Y17654D01*
X-93633Y17594D01*
X-93552Y17537D01*
X-93470Y17483D01*
X-93385Y17433D01*
X-93298Y17386D01*
X-93209Y17342D01*
X-93119Y17302D01*
X-93027Y17265D01*
X-92934Y17233D01*
X-92840Y17204D01*
X-92744Y17178D01*
X-92648Y17157D01*
X-92550Y17139D01*
X-92453Y17126D01*
X-92354Y17116D01*
X-92256Y17110D01*
X-92157Y17108D01*
X-94640Y28893D02*
X-94640Y31377D01*
X-94641Y28893D02*
X-94639Y28807D01*
X-94633Y28721D01*
X-94623Y28636D01*
X-94609Y28551D01*
X-94592Y28466D01*
X-94570Y28383D01*
X-94544Y28301D01*
X-94515Y28220D01*
X-94482Y28141D01*
X-94446Y28063D01*
X-94406Y27986D01*
X-94362Y27912D01*
X-94315Y27840D01*
X-94265Y27770D01*
X-94211Y27703D01*
X-94155Y27638D01*
X-94095Y27576D01*
X-94033Y27516D01*
X-93968Y27460D01*
X-93901Y27406D01*
X-93831Y27356D01*
X-93759Y27309D01*
X-93685Y27265D01*
X-93608Y27225D01*
X-93531Y27189D01*
X-93451Y27156D01*
X-93370Y27127D01*
X-93288Y27101D01*
X-93205Y27079D01*
X-93120Y27062D01*
X-93035Y27048D01*
X-92950Y27038D01*
X-92864Y27032D01*
X-92778Y27030D01*
X-92778Y27031D02*
X-89052Y27031D01*
X-89052Y27030D02*
X-88968Y27032D01*
X-88885Y27037D01*
X-88802Y27047D01*
X-88719Y27060D01*
X-88637Y27077D01*
X-88556Y27097D01*
X-88476Y27121D01*
X-88397Y27149D01*
X-88320Y27180D01*
X-88244Y27214D01*
X-88169Y27252D01*
X-88096Y27294D01*
X-88026Y27338D01*
X-87957Y27386D01*
X-87890Y27436D01*
X-87826Y27490D01*
X-87765Y27546D01*
X-87705Y27606D01*
X-87649Y27667D01*
X-87595Y27731D01*
X-87545Y27798D01*
X-87497Y27867D01*
X-87453Y27937D01*
X-87411Y28010D01*
X-87373Y28085D01*
X-87339Y28161D01*
X-87308Y28238D01*
X-87280Y28317D01*
X-87256Y28397D01*
X-87236Y28478D01*
X-87219Y28560D01*
X-87206Y28643D01*
X-87196Y28726D01*
X-87191Y28809D01*
X-87189Y28893D01*
X-87190Y28893D02*
X-87190Y31377D01*
X-83464Y36328D02*
X-94640Y36328D01*
X-90915Y36328D02*
X-87190Y41295D01*
X-89363Y38501D02*
X-94640Y41295D01*
X-102514Y-29779D02*
X-113690Y-29779D01*
X-102514Y-29779D02*
X-102514Y-26675D01*
X-102515Y-26675D02*
X-102517Y-26564D01*
X-102523Y-26454D01*
X-102533Y-26343D01*
X-102547Y-26233D01*
X-102564Y-26124D01*
X-102586Y-26015D01*
X-102611Y-25907D01*
X-102641Y-25801D01*
X-102674Y-25695D01*
X-102711Y-25590D01*
X-102751Y-25487D01*
X-102796Y-25386D01*
X-102843Y-25286D01*
X-102895Y-25187D01*
X-102950Y-25091D01*
X-103008Y-24997D01*
X-103069Y-24905D01*
X-103134Y-24815D01*
X-103202Y-24727D01*
X-103273Y-24642D01*
X-103347Y-24560D01*
X-103424Y-24480D01*
X-103504Y-24403D01*
X-103586Y-24329D01*
X-103671Y-24258D01*
X-103759Y-24190D01*
X-103849Y-24125D01*
X-103941Y-24064D01*
X-104035Y-24006D01*
X-104131Y-23951D01*
X-104230Y-23899D01*
X-104330Y-23852D01*
X-104431Y-23807D01*
X-104534Y-23767D01*
X-104639Y-23730D01*
X-104745Y-23697D01*
X-104851Y-23667D01*
X-104959Y-23642D01*
X-105068Y-23620D01*
X-105177Y-23603D01*
X-105287Y-23589D01*
X-105398Y-23579D01*
X-105508Y-23573D01*
X-105619Y-23571D01*
X-105730Y-23573D01*
X-105840Y-23579D01*
X-105951Y-23589D01*
X-106061Y-23603D01*
X-106170Y-23620D01*
X-106279Y-23642D01*
X-106387Y-23667D01*
X-106493Y-23697D01*
X-106599Y-23730D01*
X-106704Y-23767D01*
X-106807Y-23807D01*
X-106908Y-23852D01*
X-107008Y-23899D01*
X-107107Y-23951D01*
X-107203Y-24006D01*
X-107297Y-24064D01*
X-107389Y-24125D01*
X-107479Y-24190D01*
X-107567Y-24258D01*
X-107652Y-24329D01*
X-107734Y-24403D01*
X-107814Y-24480D01*
X-107891Y-24560D01*
X-107965Y-24642D01*
X-108036Y-24727D01*
X-108104Y-24815D01*
X-108169Y-24905D01*
X-108230Y-24997D01*
X-108288Y-25091D01*
X-108343Y-25187D01*
X-108395Y-25286D01*
X-108442Y-25386D01*
X-108487Y-25487D01*
X-108527Y-25590D01*
X-108564Y-25695D01*
X-108597Y-25801D01*
X-108627Y-25907D01*
X-108652Y-26015D01*
X-108674Y-26124D01*
X-108691Y-26233D01*
X-108705Y-26343D01*
X-108715Y-26454D01*
X-108721Y-26564D01*
X-108723Y-26675D01*
X-108723Y-29779D01*
X-108723Y-26054D02*
X-113690Y-23570D01*
X-113690Y-16720D02*
X-113690Y-13615D01*
X-113691Y-16720D02*
X-113689Y-16804D01*
X-113684Y-16887D01*
X-113674Y-16970D01*
X-113661Y-17053D01*
X-113644Y-17135D01*
X-113624Y-17216D01*
X-113600Y-17296D01*
X-113572Y-17375D01*
X-113541Y-17452D01*
X-113507Y-17528D01*
X-113469Y-17603D01*
X-113427Y-17676D01*
X-113383Y-17746D01*
X-113335Y-17815D01*
X-113285Y-17882D01*
X-113231Y-17946D01*
X-113175Y-18007D01*
X-113115Y-18067D01*
X-113054Y-18123D01*
X-112990Y-18177D01*
X-112923Y-18227D01*
X-112854Y-18275D01*
X-112784Y-18319D01*
X-112711Y-18361D01*
X-112636Y-18399D01*
X-112560Y-18433D01*
X-112483Y-18464D01*
X-112404Y-18492D01*
X-112324Y-18516D01*
X-112243Y-18536D01*
X-112161Y-18553D01*
X-112078Y-18566D01*
X-111995Y-18576D01*
X-111912Y-18581D01*
X-111828Y-18583D01*
X-111828Y-18582D02*
X-108723Y-18582D01*
X-108723Y-18583D02*
X-108624Y-18581D01*
X-108526Y-18575D01*
X-108427Y-18565D01*
X-108330Y-18552D01*
X-108232Y-18534D01*
X-108136Y-18513D01*
X-108040Y-18487D01*
X-107946Y-18458D01*
X-107853Y-18426D01*
X-107761Y-18389D01*
X-107671Y-18349D01*
X-107582Y-18305D01*
X-107495Y-18258D01*
X-107410Y-18208D01*
X-107328Y-18154D01*
X-107247Y-18097D01*
X-107169Y-18037D01*
X-107093Y-17973D01*
X-107020Y-17907D01*
X-106949Y-17838D01*
X-106881Y-17766D01*
X-106817Y-17691D01*
X-106755Y-17614D01*
X-106696Y-17535D01*
X-106641Y-17453D01*
X-106588Y-17369D01*
X-106540Y-17284D01*
X-106494Y-17196D01*
X-106452Y-17106D01*
X-106414Y-17015D01*
X-106380Y-16923D01*
X-106349Y-16829D01*
X-106322Y-16734D01*
X-106298Y-16638D01*
X-106279Y-16541D01*
X-106263Y-16444D01*
X-106251Y-16346D01*
X-106243Y-16247D01*
X-106239Y-16148D01*
X-106239Y-16050D01*
X-106243Y-15951D01*
X-106251Y-15852D01*
X-106263Y-15754D01*
X-106279Y-15657D01*
X-106298Y-15560D01*
X-106322Y-15464D01*
X-106349Y-15369D01*
X-106380Y-15275D01*
X-106414Y-15183D01*
X-106452Y-15092D01*
X-106494Y-15002D01*
X-106540Y-14914D01*
X-106588Y-14829D01*
X-106641Y-14745D01*
X-106696Y-14663D01*
X-106755Y-14584D01*
X-106817Y-14507D01*
X-106881Y-14432D01*
X-106949Y-14360D01*
X-107020Y-14291D01*
X-107093Y-14225D01*
X-107169Y-14161D01*
X-107247Y-14101D01*
X-107328Y-14044D01*
X-107410Y-13990D01*
X-107495Y-13940D01*
X-107582Y-13893D01*
X-107671Y-13849D01*
X-107761Y-13809D01*
X-107853Y-13772D01*
X-107946Y-13740D01*
X-108040Y-13711D01*
X-108136Y-13685D01*
X-108232Y-13664D01*
X-108330Y-13646D01*
X-108427Y-13633D01*
X-108526Y-13623D01*
X-108624Y-13617D01*
X-108723Y-13615D01*
X-109965Y-13615D01*
X-109965Y-18582D01*
X-106240Y-9057D02*
X-113690Y-6574D01*
X-106240Y-4090D01*
X-104998Y6705D02*
X-102514Y9809D01*
X-113690Y9809D01*
X-113690Y6705D02*
X-113690Y12914D01*
X-113690Y17500D02*
X-113070Y17500D01*
X-113070Y18121D01*
X-113690Y18121D01*
X-113690Y17500D01*
X-113690Y22707D02*
X-113690Y25811D01*
X-113688Y25922D01*
X-113682Y26032D01*
X-113672Y26143D01*
X-113658Y26253D01*
X-113641Y26362D01*
X-113619Y26471D01*
X-113594Y26579D01*
X-113564Y26685D01*
X-113531Y26791D01*
X-113494Y26896D01*
X-113454Y26999D01*
X-113409Y27100D01*
X-113362Y27200D01*
X-113310Y27299D01*
X-113255Y27395D01*
X-113197Y27489D01*
X-113136Y27581D01*
X-113071Y27671D01*
X-113003Y27759D01*
X-112932Y27844D01*
X-112858Y27926D01*
X-112781Y28006D01*
X-112701Y28083D01*
X-112619Y28157D01*
X-112534Y28228D01*
X-112446Y28296D01*
X-112356Y28361D01*
X-112264Y28422D01*
X-112170Y28480D01*
X-112074Y28535D01*
X-111975Y28587D01*
X-111875Y28634D01*
X-111774Y28679D01*
X-111671Y28719D01*
X-111566Y28756D01*
X-111460Y28789D01*
X-111354Y28819D01*
X-111246Y28844D01*
X-111137Y28866D01*
X-111028Y28883D01*
X-110918Y28897D01*
X-110807Y28907D01*
X-110697Y28913D01*
X-110586Y28915D01*
X-110475Y28913D01*
X-110365Y28907D01*
X-110254Y28897D01*
X-110144Y28883D01*
X-110035Y28866D01*
X-109926Y28844D01*
X-109818Y28819D01*
X-109712Y28789D01*
X-109606Y28756D01*
X-109501Y28719D01*
X-109398Y28679D01*
X-109297Y28634D01*
X-109197Y28587D01*
X-109098Y28535D01*
X-109002Y28480D01*
X-108908Y28422D01*
X-108816Y28361D01*
X-108726Y28296D01*
X-108638Y28228D01*
X-108553Y28157D01*
X-108471Y28083D01*
X-108391Y28006D01*
X-108314Y27926D01*
X-108240Y27844D01*
X-108169Y27759D01*
X-108101Y27671D01*
X-108036Y27581D01*
X-107975Y27489D01*
X-107917Y27395D01*
X-107862Y27299D01*
X-107810Y27200D01*
X-107763Y27100D01*
X-107718Y26999D01*
X-107678Y26896D01*
X-107641Y26791D01*
X-107608Y26685D01*
X-107578Y26579D01*
X-107553Y26471D01*
X-107531Y26362D01*
X-107514Y26253D01*
X-107500Y26143D01*
X-107490Y26032D01*
X-107484Y25922D01*
X-107482Y25811D01*
X-102514Y26432D02*
X-102514Y22707D01*
X-102514Y26432D02*
X-102516Y26531D01*
X-102522Y26629D01*
X-102532Y26728D01*
X-102545Y26825D01*
X-102563Y26923D01*
X-102584Y27019D01*
X-102610Y27115D01*
X-102639Y27209D01*
X-102671Y27302D01*
X-102708Y27394D01*
X-102748Y27484D01*
X-102792Y27573D01*
X-102839Y27660D01*
X-102889Y27745D01*
X-102943Y27827D01*
X-103000Y27908D01*
X-103060Y27986D01*
X-103124Y28062D01*
X-103190Y28135D01*
X-103259Y28206D01*
X-103331Y28274D01*
X-103406Y28338D01*
X-103483Y28400D01*
X-103562Y28459D01*
X-103644Y28514D01*
X-103728Y28567D01*
X-103813Y28615D01*
X-103901Y28661D01*
X-103991Y28703D01*
X-104082Y28741D01*
X-104174Y28775D01*
X-104268Y28806D01*
X-104363Y28833D01*
X-104459Y28857D01*
X-104556Y28876D01*
X-104653Y28892D01*
X-104751Y28904D01*
X-104850Y28912D01*
X-104949Y28916D01*
X-105047Y28916D01*
X-105146Y28912D01*
X-105245Y28904D01*
X-105343Y28892D01*
X-105440Y28876D01*
X-105537Y28857D01*
X-105633Y28833D01*
X-105728Y28806D01*
X-105822Y28775D01*
X-105914Y28741D01*
X-106005Y28703D01*
X-106095Y28661D01*
X-106183Y28615D01*
X-106268Y28567D01*
X-106352Y28514D01*
X-106434Y28459D01*
X-106513Y28400D01*
X-106590Y28338D01*
X-106665Y28274D01*
X-106737Y28206D01*
X-106806Y28135D01*
X-106872Y28062D01*
X-106936Y27986D01*
X-106996Y27908D01*
X-107053Y27827D01*
X-107107Y27745D01*
X-107157Y27660D01*
X-107204Y27573D01*
X-107248Y27484D01*
X-107288Y27394D01*
X-107325Y27302D01*
X-107357Y27209D01*
X-107386Y27115D01*
X-107412Y27019D01*
X-107433Y26923D01*
X-107451Y26825D01*
X-107464Y26728D01*
X-107474Y26629D01*
X-107480Y26531D01*
X-107482Y26432D01*
X-107482Y23948D01*
D11*
X-30541Y-62916D02*
X-30536Y-62486D01*
X-30520Y-62057D01*
X-30494Y-61628D01*
X-30457Y-61200D01*
X-30409Y-60772D01*
X-30351Y-60347D01*
X-30283Y-59922D01*
X-30205Y-59500D01*
X-30116Y-59079D01*
X-30016Y-58661D01*
X-29907Y-58246D01*
X-29787Y-57833D01*
X-29657Y-57423D01*
X-29517Y-57017D01*
X-29368Y-56614D01*
X-29208Y-56215D01*
X-29039Y-55820D01*
X-28860Y-55429D01*
X-28671Y-55043D01*
X-28473Y-54661D01*
X-28266Y-54285D01*
X-28050Y-53914D01*
X-27824Y-53548D01*
X-27590Y-53187D01*
X-27347Y-52833D01*
X-27095Y-52485D01*
X-26835Y-52143D01*
X-26566Y-51807D01*
X-26289Y-51478D01*
X-26005Y-51156D01*
X-25712Y-50841D01*
X-25412Y-50534D01*
X-25105Y-50234D01*
X-24790Y-49941D01*
X-24468Y-49657D01*
X-24139Y-49380D01*
X-23803Y-49111D01*
X-23461Y-48851D01*
X-23113Y-48599D01*
X-22759Y-48356D01*
X-22398Y-48122D01*
X-22032Y-47896D01*
X-21661Y-47680D01*
X-21285Y-47473D01*
X-20903Y-47275D01*
X-20517Y-47086D01*
X-20126Y-46907D01*
X-19731Y-46738D01*
X-19332Y-46578D01*
X-18929Y-46429D01*
X-18523Y-46289D01*
X-18113Y-46159D01*
X-17700Y-46039D01*
X-17285Y-45930D01*
X-16867Y-45830D01*
X-16446Y-45741D01*
X-16024Y-45663D01*
X-15599Y-45595D01*
X-15174Y-45537D01*
X-14746Y-45489D01*
X-14318Y-45452D01*
X-13889Y-45426D01*
X-13460Y-45410D01*
X-13030Y-45405D01*
X-12600Y-45410D01*
X-12171Y-45426D01*
X-11742Y-45452D01*
X-11314Y-45489D01*
X-10886Y-45537D01*
X-10461Y-45595D01*
X-10036Y-45663D01*
X-9614Y-45741D01*
X-9193Y-45830D01*
X-8775Y-45930D01*
X-8360Y-46039D01*
X-7947Y-46159D01*
X-7537Y-46289D01*
X-7131Y-46429D01*
X-6728Y-46578D01*
X-6329Y-46738D01*
X-5934Y-46907D01*
X-5543Y-47086D01*
X-5157Y-47275D01*
X-4775Y-47473D01*
X-4399Y-47680D01*
X-4028Y-47896D01*
X-3662Y-48122D01*
X-3301Y-48356D01*
X-2947Y-48599D01*
X-2599Y-48851D01*
X-2257Y-49111D01*
X-1921Y-49380D01*
X-1592Y-49657D01*
X-1270Y-49941D01*
X-955Y-50234D01*
X-648Y-50534D01*
X-348Y-50841D01*
X-55Y-51156D01*
X229Y-51478D01*
X506Y-51807D01*
X775Y-52143D01*
X1035Y-52485D01*
X1287Y-52833D01*
X1530Y-53187D01*
X1764Y-53548D01*
X1990Y-53914D01*
X2206Y-54285D01*
X2413Y-54661D01*
X2611Y-55043D01*
X2800Y-55429D01*
X2979Y-55820D01*
X3148Y-56215D01*
X3308Y-56614D01*
X3457Y-57017D01*
X3597Y-57423D01*
X3727Y-57833D01*
X3847Y-58246D01*
X3956Y-58661D01*
X4056Y-59079D01*
X4145Y-59500D01*
X4223Y-59922D01*
X4291Y-60347D01*
X4349Y-60772D01*
X4397Y-61200D01*
X4434Y-61628D01*
X4460Y-62057D01*
X4476Y-62486D01*
X4481Y-62916D01*
X4476Y-63346D01*
X4460Y-63775D01*
X4434Y-64204D01*
X4397Y-64632D01*
X4349Y-65060D01*
X4291Y-65485D01*
X4223Y-65910D01*
X4145Y-66332D01*
X4056Y-66753D01*
X3956Y-67171D01*
X3847Y-67586D01*
X3727Y-67999D01*
X3597Y-68409D01*
X3457Y-68815D01*
X3308Y-69218D01*
X3148Y-69617D01*
X2979Y-70012D01*
X2800Y-70403D01*
X2611Y-70789D01*
X2413Y-71171D01*
X2206Y-71547D01*
X1990Y-71918D01*
X1764Y-72284D01*
X1530Y-72645D01*
X1287Y-72999D01*
X1035Y-73347D01*
X775Y-73689D01*
X506Y-74025D01*
X229Y-74354D01*
X-55Y-74676D01*
X-348Y-74991D01*
X-648Y-75298D01*
X-955Y-75598D01*
X-1270Y-75891D01*
X-1592Y-76175D01*
X-1921Y-76452D01*
X-2257Y-76721D01*
X-2599Y-76981D01*
X-2947Y-77233D01*
X-3301Y-77476D01*
X-3662Y-77710D01*
X-4028Y-77936D01*
X-4399Y-78152D01*
X-4775Y-78359D01*
X-5157Y-78557D01*
X-5543Y-78746D01*
X-5934Y-78925D01*
X-6329Y-79094D01*
X-6728Y-79254D01*
X-7131Y-79403D01*
X-7537Y-79543D01*
X-7947Y-79673D01*
X-8360Y-79793D01*
X-8775Y-79902D01*
X-9193Y-80002D01*
X-9614Y-80091D01*
X-10036Y-80169D01*
X-10461Y-80237D01*
X-10886Y-80295D01*
X-11314Y-80343D01*
X-11742Y-80380D01*
X-12171Y-80406D01*
X-12600Y-80422D01*
X-13030Y-80427D01*
X-13460Y-80422D01*
X-13889Y-80406D01*
X-14318Y-80380D01*
X-14746Y-80343D01*
X-15174Y-80295D01*
X-15599Y-80237D01*
X-16024Y-80169D01*
X-16446Y-80091D01*
X-16867Y-80002D01*
X-17285Y-79902D01*
X-17700Y-79793D01*
X-18113Y-79673D01*
X-18523Y-79543D01*
X-18929Y-79403D01*
X-19332Y-79254D01*
X-19731Y-79094D01*
X-20126Y-78925D01*
X-20517Y-78746D01*
X-20903Y-78557D01*
X-21285Y-78359D01*
X-21661Y-78152D01*
X-22032Y-77936D01*
X-22398Y-77710D01*
X-22759Y-77476D01*
X-23113Y-77233D01*
X-23461Y-76981D01*
X-23803Y-76721D01*
X-24139Y-76452D01*
X-24468Y-76175D01*
X-24790Y-75891D01*
X-25105Y-75598D01*
X-25412Y-75298D01*
X-25712Y-74991D01*
X-26005Y-74676D01*
X-26289Y-74354D01*
X-26566Y-74025D01*
X-26835Y-73689D01*
X-27095Y-73347D01*
X-27347Y-72999D01*
X-27590Y-72645D01*
X-27824Y-72284D01*
X-28050Y-71918D01*
X-28266Y-71547D01*
X-28473Y-71171D01*
X-28671Y-70789D01*
X-28860Y-70403D01*
X-29039Y-70012D01*
X-29208Y-69617D01*
X-29368Y-69218D01*
X-29517Y-68815D01*
X-29657Y-68409D01*
X-29787Y-67999D01*
X-29907Y-67586D01*
X-30016Y-67171D01*
X-30116Y-66753D01*
X-30205Y-66332D01*
X-30283Y-65910D01*
X-30351Y-65485D01*
X-30409Y-65060D01*
X-30457Y-64632D01*
X-30494Y-64204D01*
X-30520Y-63775D01*
X-30536Y-63346D01*
X-30541Y-62916D01*
D12*
X45570Y-84723D02*
X49054Y-97726D01*
X50499Y-97339D02*
X47609Y-98113D01*
X44125Y-85110D02*
X47014Y-84336D01*
X38163Y-86707D02*
X41647Y-99711D01*
X38163Y-86707D02*
X34551Y-87675D01*
X34436Y-87708D01*
X34322Y-87745D01*
X34209Y-87785D01*
X34097Y-87829D01*
X33987Y-87876D01*
X33879Y-87927D01*
X33772Y-87981D01*
X33667Y-88039D01*
X33564Y-88100D01*
X33463Y-88164D01*
X33363Y-88232D01*
X33267Y-88303D01*
X33172Y-88376D01*
X33080Y-88453D01*
X32991Y-88533D01*
X32904Y-88615D01*
X32819Y-88700D01*
X32738Y-88788D01*
X32659Y-88879D01*
X32583Y-88971D01*
X32511Y-89067D01*
X32441Y-89164D01*
X32375Y-89264D01*
X32311Y-89366D01*
X32251Y-89470D01*
X32195Y-89575D01*
X32142Y-89683D01*
X32092Y-89792D01*
X32046Y-89902D01*
X32003Y-90014D01*
X31964Y-90128D01*
X31929Y-90242D01*
X31897Y-90358D01*
X31869Y-90474D01*
X31845Y-90592D01*
X31825Y-90710D01*
X31808Y-90829D01*
X31795Y-90948D01*
X31786Y-91067D01*
X31781Y-91187D01*
X31780Y-91307D01*
X31783Y-91427D01*
X31789Y-91546D01*
X31799Y-91666D01*
X31813Y-91785D01*
X31831Y-91903D01*
X31853Y-92021D01*
X31878Y-92138D01*
X31907Y-92255D01*
X33456Y-98034D01*
X33456Y-98035D02*
X33489Y-98150D01*
X33526Y-98264D01*
X33566Y-98377D01*
X33610Y-98489D01*
X33657Y-98599D01*
X33708Y-98707D01*
X33762Y-98814D01*
X33820Y-98919D01*
X33881Y-99022D01*
X33945Y-99123D01*
X34013Y-99223D01*
X34084Y-99319D01*
X34157Y-99414D01*
X34234Y-99506D01*
X34314Y-99595D01*
X34396Y-99682D01*
X34481Y-99767D01*
X34569Y-99848D01*
X34660Y-99927D01*
X34752Y-100003D01*
X34848Y-100075D01*
X34945Y-100145D01*
X35045Y-100211D01*
X35147Y-100275D01*
X35251Y-100335D01*
X35356Y-100391D01*
X35464Y-100444D01*
X35573Y-100494D01*
X35683Y-100540D01*
X35795Y-100583D01*
X35909Y-100622D01*
X36023Y-100657D01*
X36139Y-100689D01*
X36255Y-100717D01*
X36373Y-100741D01*
X36491Y-100761D01*
X36610Y-100778D01*
X36729Y-100791D01*
X36848Y-100800D01*
X36968Y-100805D01*
X37088Y-100806D01*
X37208Y-100803D01*
X37327Y-100797D01*
X37447Y-100787D01*
X37566Y-100773D01*
X37684Y-100755D01*
X37802Y-100733D01*
X37919Y-100708D01*
X38036Y-100679D01*
X38035Y-100679D02*
X41647Y-99711D01*
X27105Y-98962D02*
X18436Y-101285D01*
X17275Y-96950D02*
X25944Y-94627D01*
X22615Y-90874D02*
X26099Y-103877D01*
X21765Y-105038D02*
X18281Y-92035D01*
D13*
X121398Y94350D02*
X122583Y94350D01*
X121398Y94350D02*
X121398Y90399D01*
X123769Y90399D01*
X123847Y90401D01*
X123924Y90407D01*
X124001Y90416D01*
X124077Y90429D01*
X124153Y90446D01*
X124228Y90467D01*
X124301Y90491D01*
X124374Y90519D01*
X124445Y90551D01*
X124514Y90586D01*
X124581Y90624D01*
X124647Y90665D01*
X124710Y90710D01*
X124771Y90758D01*
X124830Y90808D01*
X124886Y90862D01*
X124940Y90918D01*
X124990Y90977D01*
X125038Y91038D01*
X125083Y91101D01*
X125124Y91167D01*
X125162Y91234D01*
X125197Y91303D01*
X125229Y91374D01*
X125257Y91447D01*
X125281Y91520D01*
X125302Y91595D01*
X125319Y91671D01*
X125332Y91747D01*
X125341Y91824D01*
X125347Y91901D01*
X125349Y91979D01*
X125349Y95930D01*
X125347Y96008D01*
X125341Y96085D01*
X125332Y96162D01*
X125319Y96238D01*
X125302Y96314D01*
X125281Y96389D01*
X125257Y96462D01*
X125229Y96535D01*
X125197Y96606D01*
X125162Y96675D01*
X125124Y96742D01*
X125083Y96808D01*
X125038Y96871D01*
X124990Y96932D01*
X124940Y96991D01*
X124886Y97047D01*
X124830Y97101D01*
X124771Y97151D01*
X124710Y97199D01*
X124647Y97244D01*
X124581Y97285D01*
X124514Y97323D01*
X124445Y97358D01*
X124374Y97390D01*
X124301Y97418D01*
X124228Y97442D01*
X124153Y97463D01*
X124077Y97480D01*
X124001Y97493D01*
X123924Y97502D01*
X123847Y97508D01*
X123769Y97510D01*
X123769Y97511D02*
X121398Y97511D01*
X117546Y97511D02*
X117546Y90399D01*
X113595Y90399D02*
X117546Y97511D01*
X113595Y97511D02*
X113595Y90399D01*
X109743Y90399D02*
X109743Y97511D01*
X107768Y97511D01*
X107682Y97509D01*
X107596Y97503D01*
X107510Y97494D01*
X107425Y97481D01*
X107340Y97464D01*
X107257Y97444D01*
X107174Y97420D01*
X107092Y97392D01*
X107012Y97361D01*
X106933Y97326D01*
X106856Y97288D01*
X106780Y97246D01*
X106706Y97202D01*
X106635Y97154D01*
X106565Y97103D01*
X106498Y97049D01*
X106433Y96992D01*
X106371Y96932D01*
X106311Y96870D01*
X106254Y96805D01*
X106200Y96738D01*
X106149Y96668D01*
X106101Y96597D01*
X106057Y96523D01*
X106015Y96447D01*
X105977Y96370D01*
X105942Y96291D01*
X105911Y96211D01*
X105883Y96129D01*
X105859Y96046D01*
X105839Y95963D01*
X105822Y95878D01*
X105809Y95793D01*
X105800Y95707D01*
X105794Y95621D01*
X105792Y95535D01*
X105792Y92374D01*
X105794Y92288D01*
X105800Y92202D01*
X105809Y92116D01*
X105822Y92031D01*
X105839Y91946D01*
X105859Y91863D01*
X105883Y91780D01*
X105911Y91698D01*
X105942Y91618D01*
X105977Y91539D01*
X106015Y91462D01*
X106057Y91386D01*
X106101Y91312D01*
X106149Y91241D01*
X106200Y91171D01*
X106254Y91104D01*
X106311Y91039D01*
X106371Y90977D01*
X106433Y90917D01*
X106498Y90860D01*
X106565Y90806D01*
X106635Y90755D01*
X106706Y90707D01*
X106780Y90663D01*
X106856Y90621D01*
X106933Y90583D01*
X107012Y90548D01*
X107092Y90517D01*
X107174Y90489D01*
X107257Y90465D01*
X107340Y90445D01*
X107425Y90428D01*
X107510Y90415D01*
X107596Y90406D01*
X107682Y90400D01*
X107768Y90398D01*
X107768Y90399D02*
X109743Y90399D01*
X114292Y73076D02*
X116662Y73076D01*
X114292Y73076D02*
X114214Y73078D01*
X114137Y73084D01*
X114060Y73093D01*
X113984Y73106D01*
X113908Y73123D01*
X113833Y73144D01*
X113760Y73168D01*
X113687Y73196D01*
X113616Y73228D01*
X113547Y73263D01*
X113480Y73301D01*
X113414Y73342D01*
X113351Y73387D01*
X113290Y73435D01*
X113231Y73485D01*
X113175Y73539D01*
X113121Y73595D01*
X113071Y73654D01*
X113023Y73715D01*
X112978Y73778D01*
X112937Y73844D01*
X112899Y73911D01*
X112864Y73980D01*
X112832Y74051D01*
X112804Y74124D01*
X112780Y74197D01*
X112759Y74272D01*
X112742Y74348D01*
X112729Y74424D01*
X112720Y74501D01*
X112714Y74578D01*
X112712Y74656D01*
X112711Y74656D02*
X112711Y75446D01*
X112712Y75446D02*
X112714Y75524D01*
X112720Y75601D01*
X112729Y75678D01*
X112742Y75754D01*
X112759Y75830D01*
X112780Y75905D01*
X112804Y75978D01*
X112832Y76051D01*
X112864Y76122D01*
X112899Y76191D01*
X112937Y76258D01*
X112978Y76324D01*
X113023Y76387D01*
X113071Y76448D01*
X113121Y76507D01*
X113175Y76563D01*
X113231Y76617D01*
X113290Y76667D01*
X113351Y76715D01*
X113414Y76760D01*
X113480Y76801D01*
X113547Y76839D01*
X113616Y76874D01*
X113687Y76906D01*
X113760Y76934D01*
X113833Y76958D01*
X113908Y76979D01*
X113984Y76996D01*
X114060Y77009D01*
X114137Y77018D01*
X114214Y77024D01*
X114292Y77026D01*
X114292Y77027D02*
X116662Y77027D01*
X116662Y80188D01*
X112711Y80188D01*
X109683Y77817D02*
X108103Y73076D01*
X106523Y77817D01*
X125532Y53188D02*
X127508Y53188D01*
X125532Y53187D02*
X125445Y53189D01*
X125357Y53195D01*
X125270Y53204D01*
X125184Y53218D01*
X125098Y53235D01*
X125014Y53256D01*
X124930Y53281D01*
X124847Y53310D01*
X124766Y53342D01*
X124686Y53377D01*
X124608Y53416D01*
X124531Y53459D01*
X124457Y53505D01*
X124385Y53554D01*
X124315Y53606D01*
X124247Y53662D01*
X124182Y53720D01*
X124119Y53781D01*
X124060Y53845D01*
X124003Y53912D01*
X123949Y53980D01*
X123898Y54052D01*
X123851Y54125D01*
X123806Y54200D01*
X123765Y54278D01*
X123728Y54357D01*
X123694Y54437D01*
X123664Y54519D01*
X123637Y54602D01*
X123614Y54687D01*
X123595Y54772D01*
X123580Y54858D01*
X123568Y54945D01*
X123560Y55032D01*
X123556Y55119D01*
X123556Y55207D01*
X123560Y55294D01*
X123568Y55381D01*
X123580Y55468D01*
X123595Y55554D01*
X123614Y55639D01*
X123637Y55724D01*
X123664Y55807D01*
X123694Y55889D01*
X123728Y55969D01*
X123765Y56048D01*
X123806Y56126D01*
X123851Y56201D01*
X123898Y56274D01*
X123949Y56346D01*
X124003Y56414D01*
X124060Y56481D01*
X124119Y56545D01*
X124182Y56606D01*
X124247Y56664D01*
X124315Y56720D01*
X124385Y56772D01*
X124457Y56821D01*
X124531Y56867D01*
X124608Y56910D01*
X124686Y56949D01*
X124766Y56984D01*
X124847Y57016D01*
X124930Y57045D01*
X125014Y57070D01*
X125098Y57091D01*
X125184Y57108D01*
X125270Y57122D01*
X125357Y57131D01*
X125445Y57137D01*
X125532Y57139D01*
X125137Y60300D02*
X127508Y60300D01*
X125137Y60299D02*
X125058Y60297D01*
X124980Y60291D01*
X124902Y60281D01*
X124824Y60268D01*
X124747Y60250D01*
X124671Y60229D01*
X124597Y60204D01*
X124523Y60175D01*
X124451Y60143D01*
X124381Y60107D01*
X124313Y60067D01*
X124247Y60024D01*
X124183Y59978D01*
X124121Y59929D01*
X124062Y59877D01*
X124006Y59822D01*
X123952Y59764D01*
X123902Y59704D01*
X123854Y59641D01*
X123810Y59576D01*
X123769Y59509D01*
X123731Y59440D01*
X123697Y59369D01*
X123666Y59296D01*
X123639Y59222D01*
X123616Y59147D01*
X123597Y59071D01*
X123581Y58993D01*
X123569Y58915D01*
X123561Y58837D01*
X123557Y58758D01*
X123557Y58680D01*
X123561Y58601D01*
X123569Y58523D01*
X123581Y58445D01*
X123597Y58367D01*
X123616Y58291D01*
X123639Y58216D01*
X123666Y58142D01*
X123697Y58069D01*
X123731Y57998D01*
X123769Y57929D01*
X123810Y57862D01*
X123854Y57797D01*
X123902Y57734D01*
X123952Y57674D01*
X124006Y57616D01*
X124062Y57561D01*
X124121Y57509D01*
X124183Y57460D01*
X124247Y57414D01*
X124313Y57371D01*
X124381Y57331D01*
X124451Y57295D01*
X124523Y57263D01*
X124597Y57234D01*
X124671Y57209D01*
X124747Y57188D01*
X124824Y57170D01*
X124902Y57157D01*
X124980Y57147D01*
X125058Y57141D01*
X125137Y57139D01*
X126718Y57139D01*
X120609Y53583D02*
X120609Y53188D01*
X120609Y53583D02*
X120214Y53583D01*
X120214Y53188D01*
X120609Y53188D01*
X117267Y53188D02*
X115291Y53188D01*
X115291Y53187D02*
X115204Y53189D01*
X115116Y53195D01*
X115029Y53204D01*
X114943Y53218D01*
X114857Y53235D01*
X114773Y53256D01*
X114689Y53281D01*
X114606Y53310D01*
X114525Y53342D01*
X114445Y53377D01*
X114367Y53416D01*
X114290Y53459D01*
X114216Y53505D01*
X114144Y53554D01*
X114074Y53606D01*
X114006Y53662D01*
X113941Y53720D01*
X113878Y53781D01*
X113819Y53845D01*
X113762Y53912D01*
X113708Y53980D01*
X113657Y54052D01*
X113610Y54125D01*
X113565Y54200D01*
X113524Y54278D01*
X113487Y54357D01*
X113453Y54437D01*
X113423Y54519D01*
X113396Y54602D01*
X113373Y54687D01*
X113354Y54772D01*
X113339Y54858D01*
X113327Y54945D01*
X113319Y55032D01*
X113315Y55119D01*
X113315Y55207D01*
X113319Y55294D01*
X113327Y55381D01*
X113339Y55468D01*
X113354Y55554D01*
X113373Y55639D01*
X113396Y55724D01*
X113423Y55807D01*
X113453Y55889D01*
X113487Y55969D01*
X113524Y56048D01*
X113565Y56126D01*
X113610Y56201D01*
X113657Y56274D01*
X113708Y56346D01*
X113762Y56414D01*
X113819Y56481D01*
X113878Y56545D01*
X113941Y56606D01*
X114006Y56664D01*
X114074Y56720D01*
X114144Y56772D01*
X114216Y56821D01*
X114290Y56867D01*
X114367Y56910D01*
X114445Y56949D01*
X114525Y56984D01*
X114606Y57016D01*
X114689Y57045D01*
X114773Y57070D01*
X114857Y57091D01*
X114943Y57108D01*
X115029Y57122D01*
X115116Y57131D01*
X115204Y57137D01*
X115291Y57139D01*
X114896Y60300D02*
X117267Y60300D01*
X114896Y60299D02*
X114817Y60297D01*
X114739Y60291D01*
X114661Y60281D01*
X114583Y60268D01*
X114506Y60250D01*
X114430Y60229D01*
X114356Y60204D01*
X114282Y60175D01*
X114210Y60143D01*
X114140Y60107D01*
X114072Y60067D01*
X114006Y60024D01*
X113942Y59978D01*
X113880Y59929D01*
X113821Y59877D01*
X113765Y59822D01*
X113711Y59764D01*
X113661Y59704D01*
X113613Y59641D01*
X113569Y59576D01*
X113528Y59509D01*
X113490Y59440D01*
X113456Y59369D01*
X113425Y59296D01*
X113398Y59222D01*
X113375Y59147D01*
X113356Y59071D01*
X113340Y58993D01*
X113328Y58915D01*
X113320Y58837D01*
X113316Y58758D01*
X113316Y58680D01*
X113320Y58601D01*
X113328Y58523D01*
X113340Y58445D01*
X113356Y58367D01*
X113375Y58291D01*
X113398Y58216D01*
X113425Y58142D01*
X113456Y58069D01*
X113490Y57998D01*
X113528Y57929D01*
X113569Y57862D01*
X113613Y57797D01*
X113661Y57734D01*
X113711Y57674D01*
X113765Y57616D01*
X113821Y57561D01*
X113880Y57509D01*
X113942Y57460D01*
X114006Y57414D01*
X114072Y57371D01*
X114140Y57331D01*
X114210Y57295D01*
X114282Y57263D01*
X114356Y57234D01*
X114430Y57209D01*
X114506Y57188D01*
X114583Y57170D01*
X114661Y57157D01*
X114739Y57147D01*
X114817Y57141D01*
X114896Y57139D01*
X116477Y57139D01*
X110288Y57929D02*
X108708Y53188D01*
X107127Y57929D01*
X134595Y45771D02*
X134595Y38659D01*
X130644Y38659D02*
X134595Y45771D01*
X130644Y45771D02*
X130644Y38659D01*
X125943Y38659D02*
X123967Y38659D01*
X125943Y38659D02*
X126009Y38661D01*
X126076Y38666D01*
X126141Y38676D01*
X126207Y38689D01*
X126271Y38705D01*
X126334Y38725D01*
X126396Y38749D01*
X126457Y38776D01*
X126516Y38807D01*
X126573Y38841D01*
X126629Y38878D01*
X126682Y38918D01*
X126733Y38960D01*
X126781Y39006D01*
X126827Y39054D01*
X126869Y39105D01*
X126909Y39158D01*
X126946Y39214D01*
X126980Y39271D01*
X127011Y39330D01*
X127038Y39391D01*
X127062Y39453D01*
X127082Y39516D01*
X127098Y39580D01*
X127111Y39646D01*
X127121Y39711D01*
X127126Y39778D01*
X127128Y39844D01*
X127128Y41820D01*
X127126Y41899D01*
X127120Y41977D01*
X127110Y42055D01*
X127097Y42133D01*
X127079Y42210D01*
X127058Y42286D01*
X127033Y42360D01*
X127004Y42434D01*
X126972Y42506D01*
X126936Y42576D01*
X126896Y42644D01*
X126853Y42710D01*
X126807Y42774D01*
X126758Y42836D01*
X126706Y42895D01*
X126651Y42951D01*
X126593Y43005D01*
X126533Y43055D01*
X126470Y43103D01*
X126405Y43147D01*
X126338Y43188D01*
X126269Y43226D01*
X126198Y43260D01*
X126125Y43291D01*
X126051Y43318D01*
X125976Y43341D01*
X125900Y43360D01*
X125822Y43376D01*
X125744Y43388D01*
X125666Y43396D01*
X125587Y43400D01*
X125509Y43400D01*
X125430Y43396D01*
X125352Y43388D01*
X125274Y43376D01*
X125196Y43360D01*
X125120Y43341D01*
X125045Y43318D01*
X124971Y43291D01*
X124898Y43260D01*
X124827Y43226D01*
X124758Y43188D01*
X124691Y43147D01*
X124626Y43103D01*
X124563Y43055D01*
X124503Y43005D01*
X124445Y42951D01*
X124390Y42895D01*
X124338Y42836D01*
X124289Y42774D01*
X124243Y42710D01*
X124200Y42644D01*
X124160Y42576D01*
X124124Y42506D01*
X124092Y42434D01*
X124063Y42360D01*
X124038Y42286D01*
X124017Y42210D01*
X123999Y42133D01*
X123986Y42055D01*
X123976Y41977D01*
X123970Y41899D01*
X123968Y41820D01*
X123967Y41820D02*
X123967Y41029D01*
X127128Y41029D01*
X120788Y40239D02*
X120788Y41820D01*
X120786Y41899D01*
X120780Y41977D01*
X120770Y42055D01*
X120757Y42133D01*
X120739Y42210D01*
X120718Y42286D01*
X120693Y42360D01*
X120664Y42434D01*
X120632Y42506D01*
X120596Y42576D01*
X120556Y42644D01*
X120513Y42710D01*
X120467Y42774D01*
X120418Y42836D01*
X120366Y42895D01*
X120311Y42951D01*
X120253Y43005D01*
X120193Y43055D01*
X120130Y43103D01*
X120065Y43147D01*
X119998Y43188D01*
X119929Y43226D01*
X119858Y43260D01*
X119785Y43291D01*
X119711Y43318D01*
X119636Y43341D01*
X119560Y43360D01*
X119482Y43376D01*
X119404Y43388D01*
X119326Y43396D01*
X119247Y43400D01*
X119169Y43400D01*
X119090Y43396D01*
X119012Y43388D01*
X118934Y43376D01*
X118856Y43360D01*
X118780Y43341D01*
X118705Y43318D01*
X118631Y43291D01*
X118558Y43260D01*
X118487Y43226D01*
X118418Y43188D01*
X118351Y43147D01*
X118286Y43103D01*
X118223Y43055D01*
X118163Y43005D01*
X118105Y42951D01*
X118050Y42895D01*
X117998Y42836D01*
X117949Y42774D01*
X117903Y42710D01*
X117860Y42644D01*
X117820Y42576D01*
X117784Y42506D01*
X117752Y42434D01*
X117723Y42360D01*
X117698Y42286D01*
X117677Y42210D01*
X117659Y42133D01*
X117646Y42055D01*
X117636Y41977D01*
X117630Y41899D01*
X117628Y41820D01*
X117627Y41820D02*
X117627Y40239D01*
X117628Y40239D02*
X117630Y40160D01*
X117636Y40082D01*
X117646Y40004D01*
X117659Y39926D01*
X117677Y39849D01*
X117698Y39773D01*
X117723Y39699D01*
X117752Y39625D01*
X117784Y39553D01*
X117820Y39483D01*
X117860Y39415D01*
X117903Y39349D01*
X117949Y39285D01*
X117998Y39223D01*
X118050Y39164D01*
X118105Y39108D01*
X118163Y39054D01*
X118223Y39004D01*
X118286Y38956D01*
X118351Y38912D01*
X118418Y38871D01*
X118487Y38833D01*
X118558Y38799D01*
X118631Y38768D01*
X118705Y38741D01*
X118780Y38718D01*
X118856Y38699D01*
X118934Y38683D01*
X119012Y38671D01*
X119090Y38663D01*
X119169Y38659D01*
X119247Y38659D01*
X119326Y38663D01*
X119404Y38671D01*
X119482Y38683D01*
X119560Y38699D01*
X119636Y38718D01*
X119711Y38741D01*
X119785Y38768D01*
X119858Y38799D01*
X119929Y38833D01*
X119998Y38871D01*
X120065Y38912D01*
X120130Y38956D01*
X120193Y39004D01*
X120253Y39054D01*
X120311Y39108D01*
X120366Y39164D01*
X120418Y39223D01*
X120467Y39285D01*
X120513Y39349D01*
X120556Y39415D01*
X120596Y39483D01*
X120632Y39553D01*
X120664Y39625D01*
X120693Y39699D01*
X120718Y39773D01*
X120739Y39849D01*
X120757Y39926D01*
X120770Y40004D01*
X120780Y40082D01*
X120786Y40160D01*
X120788Y40239D01*
X113843Y38659D02*
X113843Y45771D01*
X114634Y38659D02*
X113053Y38659D01*
X113053Y45771D02*
X114634Y45771D01*
X109816Y43400D02*
X109816Y38659D01*
X109816Y43400D02*
X107840Y43400D01*
X107774Y43398D01*
X107707Y43393D01*
X107642Y43383D01*
X107576Y43370D01*
X107512Y43354D01*
X107449Y43334D01*
X107387Y43310D01*
X107326Y43283D01*
X107267Y43252D01*
X107210Y43218D01*
X107154Y43181D01*
X107101Y43141D01*
X107050Y43099D01*
X107002Y43053D01*
X106956Y43005D01*
X106914Y42954D01*
X106874Y42901D01*
X106837Y42845D01*
X106803Y42788D01*
X106772Y42729D01*
X106745Y42669D01*
X106722Y42606D01*
X106701Y42543D01*
X106685Y42479D01*
X106672Y42414D01*
X106662Y42348D01*
X106657Y42282D01*
X106655Y42215D01*
X106655Y38659D01*
X141427Y34722D02*
X141427Y27610D01*
X137476Y27610D02*
X141427Y34722D01*
X137476Y34722D02*
X137476Y27610D01*
X132775Y27610D02*
X130800Y27610D01*
X132775Y27610D02*
X132841Y27612D01*
X132908Y27617D01*
X132973Y27627D01*
X133039Y27640D01*
X133103Y27656D01*
X133166Y27676D01*
X133228Y27700D01*
X133289Y27727D01*
X133348Y27758D01*
X133405Y27792D01*
X133461Y27829D01*
X133514Y27869D01*
X133565Y27911D01*
X133613Y27957D01*
X133659Y28005D01*
X133701Y28056D01*
X133741Y28109D01*
X133778Y28165D01*
X133812Y28222D01*
X133843Y28281D01*
X133870Y28342D01*
X133894Y28404D01*
X133914Y28467D01*
X133930Y28531D01*
X133943Y28597D01*
X133953Y28662D01*
X133958Y28729D01*
X133960Y28795D01*
X133961Y28795D02*
X133961Y30771D01*
X133960Y30771D02*
X133958Y30850D01*
X133952Y30928D01*
X133942Y31006D01*
X133929Y31084D01*
X133911Y31161D01*
X133890Y31237D01*
X133865Y31311D01*
X133836Y31385D01*
X133804Y31457D01*
X133768Y31527D01*
X133728Y31595D01*
X133685Y31661D01*
X133639Y31725D01*
X133590Y31787D01*
X133538Y31846D01*
X133483Y31902D01*
X133425Y31956D01*
X133365Y32006D01*
X133302Y32054D01*
X133237Y32098D01*
X133170Y32139D01*
X133101Y32177D01*
X133030Y32211D01*
X132957Y32242D01*
X132883Y32269D01*
X132808Y32292D01*
X132732Y32311D01*
X132654Y32327D01*
X132576Y32339D01*
X132498Y32347D01*
X132419Y32351D01*
X132341Y32351D01*
X132262Y32347D01*
X132184Y32339D01*
X132106Y32327D01*
X132028Y32311D01*
X131952Y32292D01*
X131877Y32269D01*
X131803Y32242D01*
X131730Y32211D01*
X131659Y32177D01*
X131590Y32139D01*
X131523Y32098D01*
X131458Y32054D01*
X131395Y32006D01*
X131335Y31956D01*
X131277Y31902D01*
X131222Y31846D01*
X131170Y31787D01*
X131121Y31725D01*
X131075Y31661D01*
X131032Y31595D01*
X130992Y31527D01*
X130956Y31457D01*
X130924Y31385D01*
X130895Y31311D01*
X130870Y31237D01*
X130849Y31161D01*
X130831Y31084D01*
X130818Y31006D01*
X130808Y30928D01*
X130802Y30850D01*
X130800Y30771D01*
X130800Y29980D01*
X133961Y29980D01*
X127621Y29190D02*
X127621Y30771D01*
X127619Y30850D01*
X127613Y30928D01*
X127603Y31006D01*
X127590Y31084D01*
X127572Y31161D01*
X127551Y31237D01*
X127526Y31311D01*
X127497Y31385D01*
X127465Y31457D01*
X127429Y31527D01*
X127389Y31595D01*
X127346Y31661D01*
X127300Y31725D01*
X127251Y31787D01*
X127199Y31846D01*
X127144Y31902D01*
X127086Y31956D01*
X127026Y32006D01*
X126963Y32054D01*
X126898Y32098D01*
X126831Y32139D01*
X126762Y32177D01*
X126691Y32211D01*
X126618Y32242D01*
X126544Y32269D01*
X126469Y32292D01*
X126393Y32311D01*
X126315Y32327D01*
X126237Y32339D01*
X126159Y32347D01*
X126080Y32351D01*
X126002Y32351D01*
X125923Y32347D01*
X125845Y32339D01*
X125767Y32327D01*
X125689Y32311D01*
X125613Y32292D01*
X125538Y32269D01*
X125464Y32242D01*
X125391Y32211D01*
X125320Y32177D01*
X125251Y32139D01*
X125184Y32098D01*
X125119Y32054D01*
X125056Y32006D01*
X124996Y31956D01*
X124938Y31902D01*
X124883Y31846D01*
X124831Y31787D01*
X124782Y31725D01*
X124736Y31661D01*
X124693Y31595D01*
X124653Y31527D01*
X124617Y31457D01*
X124585Y31385D01*
X124556Y31311D01*
X124531Y31237D01*
X124510Y31161D01*
X124492Y31084D01*
X124479Y31006D01*
X124469Y30928D01*
X124463Y30850D01*
X124461Y30771D01*
X124460Y30771D02*
X124460Y29190D01*
X124461Y29190D02*
X124463Y29111D01*
X124469Y29033D01*
X124479Y28955D01*
X124492Y28877D01*
X124510Y28800D01*
X124531Y28724D01*
X124556Y28650D01*
X124585Y28576D01*
X124617Y28504D01*
X124653Y28434D01*
X124693Y28366D01*
X124736Y28300D01*
X124782Y28236D01*
X124831Y28174D01*
X124883Y28115D01*
X124938Y28059D01*
X124996Y28005D01*
X125056Y27955D01*
X125119Y27907D01*
X125184Y27863D01*
X125251Y27822D01*
X125320Y27784D01*
X125391Y27750D01*
X125464Y27719D01*
X125538Y27692D01*
X125613Y27669D01*
X125689Y27650D01*
X125767Y27634D01*
X125845Y27622D01*
X125923Y27614D01*
X126002Y27610D01*
X126080Y27610D01*
X126159Y27614D01*
X126237Y27622D01*
X126315Y27634D01*
X126393Y27650D01*
X126469Y27669D01*
X126544Y27692D01*
X126618Y27719D01*
X126691Y27750D01*
X126762Y27784D01*
X126831Y27822D01*
X126898Y27863D01*
X126963Y27907D01*
X127026Y27955D01*
X127086Y28005D01*
X127144Y28059D01*
X127199Y28115D01*
X127251Y28174D01*
X127300Y28236D01*
X127346Y28300D01*
X127389Y28366D01*
X127429Y28434D01*
X127465Y28504D01*
X127497Y28576D01*
X127526Y28650D01*
X127551Y28724D01*
X127572Y28800D01*
X127590Y28877D01*
X127603Y28955D01*
X127613Y29033D01*
X127619Y29111D01*
X127621Y29190D01*
X121189Y29585D02*
X121189Y32746D01*
X121187Y32833D01*
X121181Y32921D01*
X121172Y33008D01*
X121158Y33094D01*
X121141Y33180D01*
X121120Y33264D01*
X121095Y33348D01*
X121066Y33431D01*
X121034Y33512D01*
X120999Y33592D01*
X120960Y33670D01*
X120917Y33747D01*
X120871Y33821D01*
X120822Y33893D01*
X120770Y33963D01*
X120714Y34031D01*
X120656Y34096D01*
X120595Y34159D01*
X120531Y34218D01*
X120464Y34275D01*
X120396Y34329D01*
X120324Y34380D01*
X120251Y34427D01*
X120176Y34472D01*
X120098Y34513D01*
X120019Y34550D01*
X119939Y34584D01*
X119857Y34614D01*
X119774Y34641D01*
X119689Y34664D01*
X119604Y34683D01*
X119518Y34698D01*
X119431Y34710D01*
X119344Y34718D01*
X119257Y34722D01*
X119169Y34722D01*
X119082Y34718D01*
X118995Y34710D01*
X118908Y34698D01*
X118822Y34683D01*
X118737Y34664D01*
X118652Y34641D01*
X118569Y34614D01*
X118487Y34584D01*
X118407Y34550D01*
X118328Y34513D01*
X118250Y34472D01*
X118175Y34427D01*
X118102Y34380D01*
X118030Y34329D01*
X117962Y34275D01*
X117895Y34218D01*
X117831Y34159D01*
X117770Y34096D01*
X117712Y34031D01*
X117656Y33963D01*
X117604Y33893D01*
X117555Y33821D01*
X117509Y33747D01*
X117466Y33670D01*
X117427Y33592D01*
X117392Y33512D01*
X117360Y33431D01*
X117331Y33348D01*
X117306Y33264D01*
X117285Y33180D01*
X117268Y33094D01*
X117254Y33008D01*
X117245Y32921D01*
X117239Y32833D01*
X117237Y32746D01*
X117237Y29585D01*
X117239Y29498D01*
X117245Y29410D01*
X117254Y29323D01*
X117268Y29237D01*
X117285Y29151D01*
X117306Y29067D01*
X117331Y28983D01*
X117360Y28900D01*
X117392Y28819D01*
X117427Y28739D01*
X117466Y28661D01*
X117509Y28584D01*
X117555Y28510D01*
X117604Y28438D01*
X117656Y28368D01*
X117712Y28300D01*
X117770Y28235D01*
X117831Y28172D01*
X117895Y28113D01*
X117962Y28056D01*
X118030Y28002D01*
X118102Y27951D01*
X118175Y27904D01*
X118250Y27859D01*
X118328Y27818D01*
X118407Y27781D01*
X118487Y27747D01*
X118569Y27717D01*
X118652Y27690D01*
X118737Y27667D01*
X118822Y27648D01*
X118908Y27633D01*
X118995Y27621D01*
X119082Y27613D01*
X119169Y27609D01*
X119257Y27609D01*
X119344Y27613D01*
X119431Y27621D01*
X119518Y27633D01*
X119604Y27648D01*
X119689Y27667D01*
X119774Y27690D01*
X119857Y27717D01*
X119939Y27747D01*
X120019Y27781D01*
X120098Y27818D01*
X120176Y27859D01*
X120251Y27904D01*
X120324Y27951D01*
X120396Y28002D01*
X120464Y28056D01*
X120531Y28113D01*
X120595Y28172D01*
X120656Y28235D01*
X120714Y28300D01*
X120770Y28368D01*
X120822Y28438D01*
X120871Y28510D01*
X120917Y28584D01*
X120960Y28661D01*
X120999Y28739D01*
X121034Y28819D01*
X121066Y28900D01*
X121095Y28983D01*
X121120Y29067D01*
X121141Y29151D01*
X121158Y29237D01*
X121172Y29323D01*
X121181Y29410D01*
X121187Y29498D01*
X121189Y29585D01*
X113722Y28795D02*
X113722Y32351D01*
X113722Y28795D02*
X113720Y28729D01*
X113715Y28662D01*
X113705Y28597D01*
X113692Y28531D01*
X113676Y28467D01*
X113656Y28404D01*
X113632Y28342D01*
X113605Y28281D01*
X113574Y28222D01*
X113540Y28165D01*
X113503Y28109D01*
X113463Y28056D01*
X113421Y28005D01*
X113375Y27957D01*
X113327Y27911D01*
X113276Y27869D01*
X113223Y27829D01*
X113167Y27792D01*
X113110Y27758D01*
X113051Y27727D01*
X112990Y27700D01*
X112928Y27676D01*
X112865Y27656D01*
X112801Y27640D01*
X112735Y27627D01*
X112670Y27617D01*
X112603Y27612D01*
X112537Y27610D01*
X110561Y27610D01*
X110561Y32351D01*
X107794Y32351D02*
X105424Y32351D01*
X107004Y34722D02*
X107004Y28795D01*
X107002Y28729D01*
X106997Y28662D01*
X106987Y28597D01*
X106974Y28531D01*
X106958Y28467D01*
X106938Y28404D01*
X106914Y28342D01*
X106887Y28281D01*
X106856Y28222D01*
X106822Y28165D01*
X106785Y28109D01*
X106745Y28056D01*
X106703Y28005D01*
X106657Y27957D01*
X106609Y27911D01*
X106558Y27869D01*
X106505Y27829D01*
X106449Y27792D01*
X106392Y27758D01*
X106333Y27727D01*
X106272Y27700D01*
X106210Y27676D01*
X106147Y27656D01*
X106083Y27640D01*
X106017Y27627D01*
X105952Y27617D01*
X105885Y27612D01*
X105819Y27610D01*
X105424Y27610D01*
X122541Y-28900D02*
X122543Y-28978D01*
X122549Y-29055D01*
X122558Y-29132D01*
X122571Y-29208D01*
X122588Y-29284D01*
X122609Y-29359D01*
X122633Y-29432D01*
X122661Y-29505D01*
X122693Y-29576D01*
X122728Y-29645D01*
X122766Y-29712D01*
X122807Y-29778D01*
X122852Y-29841D01*
X122900Y-29902D01*
X122950Y-29961D01*
X123004Y-30017D01*
X123060Y-30071D01*
X123119Y-30121D01*
X123180Y-30169D01*
X123243Y-30214D01*
X123309Y-30255D01*
X123376Y-30293D01*
X123445Y-30328D01*
X123516Y-30360D01*
X123589Y-30388D01*
X123662Y-30412D01*
X123737Y-30433D01*
X123813Y-30450D01*
X123889Y-30463D01*
X123966Y-30472D01*
X124043Y-30478D01*
X124121Y-30480D01*
X124236Y-30478D01*
X124350Y-30472D01*
X124464Y-30462D01*
X124578Y-30449D01*
X124691Y-30431D01*
X124804Y-30409D01*
X124916Y-30384D01*
X125027Y-30355D01*
X125136Y-30322D01*
X125245Y-30285D01*
X125352Y-30245D01*
X125458Y-30201D01*
X125562Y-30153D01*
X125665Y-30102D01*
X125765Y-30047D01*
X125864Y-29989D01*
X125961Y-29927D01*
X126055Y-29863D01*
X126148Y-29795D01*
X126238Y-29723D01*
X126325Y-29649D01*
X126410Y-29572D01*
X126492Y-29492D01*
X126295Y-24948D02*
X126293Y-24870D01*
X126287Y-24793D01*
X126278Y-24716D01*
X126265Y-24640D01*
X126248Y-24564D01*
X126227Y-24489D01*
X126203Y-24415D01*
X126175Y-24343D01*
X126143Y-24272D01*
X126108Y-24203D01*
X126070Y-24135D01*
X126029Y-24070D01*
X125984Y-24006D01*
X125936Y-23945D01*
X125885Y-23886D01*
X125832Y-23830D01*
X125776Y-23777D01*
X125717Y-23726D01*
X125656Y-23678D01*
X125592Y-23633D01*
X125527Y-23592D01*
X125459Y-23554D01*
X125390Y-23519D01*
X125319Y-23487D01*
X125247Y-23459D01*
X125173Y-23435D01*
X125098Y-23414D01*
X125022Y-23397D01*
X124946Y-23384D01*
X124869Y-23375D01*
X124792Y-23369D01*
X124714Y-23367D01*
X124714Y-23368D02*
X124608Y-23370D01*
X124502Y-23376D01*
X124397Y-23385D01*
X124292Y-23398D01*
X124187Y-23415D01*
X124083Y-23436D01*
X123980Y-23460D01*
X123878Y-23488D01*
X123777Y-23520D01*
X123677Y-23555D01*
X123579Y-23594D01*
X123481Y-23637D01*
X123386Y-23682D01*
X123292Y-23731D01*
X123200Y-23784D01*
X123110Y-23840D01*
X123022Y-23899D01*
X122936Y-23961D01*
X125504Y-26331D02*
X125571Y-26289D01*
X125636Y-26244D01*
X125699Y-26195D01*
X125760Y-26144D01*
X125817Y-26089D01*
X125872Y-26032D01*
X125925Y-25972D01*
X125974Y-25910D01*
X126020Y-25845D01*
X126062Y-25779D01*
X126102Y-25710D01*
X126138Y-25639D01*
X126170Y-25566D01*
X126199Y-25492D01*
X126224Y-25417D01*
X126245Y-25341D01*
X126263Y-25263D01*
X126276Y-25185D01*
X126286Y-25106D01*
X126292Y-25027D01*
X126294Y-24948D01*
X123331Y-27517D02*
X123264Y-27559D01*
X123199Y-27604D01*
X123136Y-27653D01*
X123075Y-27704D01*
X123018Y-27759D01*
X122963Y-27816D01*
X122910Y-27876D01*
X122861Y-27938D01*
X122815Y-28003D01*
X122773Y-28069D01*
X122733Y-28138D01*
X122697Y-28209D01*
X122665Y-28282D01*
X122636Y-28356D01*
X122611Y-28431D01*
X122590Y-28507D01*
X122572Y-28585D01*
X122559Y-28663D01*
X122549Y-28742D01*
X122543Y-28821D01*
X122541Y-28900D01*
X123331Y-27517D02*
X125504Y-26331D01*
X119177Y-23368D02*
X119177Y-30480D01*
X119177Y-23368D02*
X117201Y-23368D01*
X117115Y-23370D01*
X117029Y-23376D01*
X116943Y-23385D01*
X116858Y-23398D01*
X116773Y-23415D01*
X116690Y-23435D01*
X116607Y-23459D01*
X116525Y-23487D01*
X116445Y-23518D01*
X116366Y-23553D01*
X116289Y-23591D01*
X116213Y-23633D01*
X116139Y-23677D01*
X116068Y-23725D01*
X115998Y-23776D01*
X115931Y-23830D01*
X115866Y-23887D01*
X115804Y-23947D01*
X115744Y-24009D01*
X115687Y-24074D01*
X115633Y-24141D01*
X115582Y-24211D01*
X115534Y-24282D01*
X115490Y-24356D01*
X115448Y-24432D01*
X115410Y-24509D01*
X115375Y-24588D01*
X115344Y-24668D01*
X115316Y-24750D01*
X115292Y-24833D01*
X115272Y-24916D01*
X115255Y-25001D01*
X115242Y-25086D01*
X115233Y-25172D01*
X115227Y-25258D01*
X115225Y-25344D01*
X115226Y-25344D02*
X115226Y-28504D01*
X115225Y-28504D02*
X115227Y-28590D01*
X115233Y-28676D01*
X115242Y-28762D01*
X115255Y-28847D01*
X115272Y-28932D01*
X115292Y-29015D01*
X115316Y-29098D01*
X115344Y-29180D01*
X115375Y-29260D01*
X115410Y-29339D01*
X115448Y-29416D01*
X115490Y-29492D01*
X115534Y-29566D01*
X115582Y-29637D01*
X115633Y-29707D01*
X115687Y-29774D01*
X115744Y-29839D01*
X115804Y-29901D01*
X115866Y-29961D01*
X115931Y-30018D01*
X115998Y-30072D01*
X116068Y-30123D01*
X116139Y-30171D01*
X116213Y-30215D01*
X116289Y-30257D01*
X116366Y-30295D01*
X116445Y-30330D01*
X116525Y-30361D01*
X116607Y-30389D01*
X116690Y-30413D01*
X116773Y-30433D01*
X116858Y-30450D01*
X116943Y-30463D01*
X117029Y-30472D01*
X117115Y-30478D01*
X117201Y-30480D01*
X119177Y-30480D01*
X112013Y-30480D02*
X109642Y-23368D01*
X107272Y-30480D01*
X107864Y-28702D02*
X111420Y-28702D01*
X119951Y-40660D02*
X119953Y-40738D01*
X119959Y-40815D01*
X119968Y-40892D01*
X119981Y-40968D01*
X119998Y-41044D01*
X120019Y-41119D01*
X120043Y-41192D01*
X120071Y-41265D01*
X120103Y-41336D01*
X120138Y-41405D01*
X120176Y-41472D01*
X120217Y-41538D01*
X120262Y-41601D01*
X120310Y-41662D01*
X120360Y-41721D01*
X120414Y-41777D01*
X120470Y-41831D01*
X120529Y-41881D01*
X120590Y-41929D01*
X120653Y-41974D01*
X120719Y-42015D01*
X120786Y-42053D01*
X120855Y-42088D01*
X120926Y-42120D01*
X120999Y-42148D01*
X121072Y-42172D01*
X121147Y-42193D01*
X121223Y-42210D01*
X121299Y-42223D01*
X121376Y-42232D01*
X121453Y-42238D01*
X121531Y-42240D01*
X121531Y-42241D02*
X121646Y-42239D01*
X121760Y-42233D01*
X121874Y-42223D01*
X121988Y-42210D01*
X122101Y-42192D01*
X122214Y-42170D01*
X122326Y-42145D01*
X122437Y-42116D01*
X122546Y-42083D01*
X122655Y-42046D01*
X122762Y-42006D01*
X122868Y-41962D01*
X122972Y-41914D01*
X123075Y-41863D01*
X123175Y-41808D01*
X123274Y-41750D01*
X123371Y-41688D01*
X123465Y-41624D01*
X123558Y-41556D01*
X123648Y-41484D01*
X123735Y-41410D01*
X123820Y-41333D01*
X123902Y-41253D01*
X123704Y-36709D02*
X123702Y-36631D01*
X123696Y-36554D01*
X123687Y-36477D01*
X123674Y-36401D01*
X123657Y-36325D01*
X123636Y-36250D01*
X123612Y-36176D01*
X123584Y-36104D01*
X123552Y-36033D01*
X123517Y-35964D01*
X123479Y-35896D01*
X123438Y-35831D01*
X123393Y-35767D01*
X123345Y-35706D01*
X123294Y-35647D01*
X123241Y-35591D01*
X123185Y-35538D01*
X123126Y-35487D01*
X123065Y-35439D01*
X123001Y-35394D01*
X122936Y-35353D01*
X122868Y-35315D01*
X122799Y-35280D01*
X122728Y-35248D01*
X122656Y-35220D01*
X122582Y-35196D01*
X122507Y-35175D01*
X122431Y-35158D01*
X122355Y-35145D01*
X122278Y-35136D01*
X122201Y-35130D01*
X122123Y-35128D01*
X122017Y-35130D01*
X121911Y-35136D01*
X121806Y-35145D01*
X121701Y-35158D01*
X121596Y-35175D01*
X121492Y-35196D01*
X121389Y-35220D01*
X121287Y-35248D01*
X121186Y-35280D01*
X121086Y-35315D01*
X120988Y-35354D01*
X120890Y-35397D01*
X120795Y-35442D01*
X120701Y-35491D01*
X120609Y-35544D01*
X120519Y-35600D01*
X120431Y-35659D01*
X120345Y-35721D01*
X122914Y-38092D02*
X122981Y-38050D01*
X123046Y-38005D01*
X123109Y-37956D01*
X123170Y-37905D01*
X123227Y-37850D01*
X123282Y-37793D01*
X123335Y-37733D01*
X123384Y-37671D01*
X123430Y-37606D01*
X123472Y-37540D01*
X123512Y-37471D01*
X123548Y-37400D01*
X123580Y-37327D01*
X123609Y-37253D01*
X123634Y-37178D01*
X123655Y-37102D01*
X123673Y-37024D01*
X123686Y-36946D01*
X123696Y-36867D01*
X123702Y-36788D01*
X123704Y-36709D01*
X120740Y-39277D02*
X120673Y-39319D01*
X120608Y-39364D01*
X120545Y-39413D01*
X120484Y-39464D01*
X120427Y-39519D01*
X120372Y-39576D01*
X120319Y-39636D01*
X120270Y-39698D01*
X120224Y-39763D01*
X120182Y-39829D01*
X120142Y-39898D01*
X120106Y-39969D01*
X120074Y-40042D01*
X120045Y-40116D01*
X120020Y-40191D01*
X119999Y-40267D01*
X119981Y-40345D01*
X119968Y-40423D01*
X119958Y-40502D01*
X119952Y-40581D01*
X119950Y-40660D01*
X120740Y-39277D02*
X122913Y-38092D01*
X115277Y-42240D02*
X113696Y-42240D01*
X115277Y-42240D02*
X115355Y-42238D01*
X115432Y-42232D01*
X115509Y-42223D01*
X115585Y-42210D01*
X115661Y-42193D01*
X115736Y-42172D01*
X115809Y-42148D01*
X115882Y-42120D01*
X115953Y-42088D01*
X116022Y-42053D01*
X116089Y-42015D01*
X116155Y-41974D01*
X116218Y-41929D01*
X116279Y-41881D01*
X116338Y-41831D01*
X116394Y-41777D01*
X116448Y-41721D01*
X116498Y-41662D01*
X116546Y-41601D01*
X116591Y-41538D01*
X116632Y-41472D01*
X116670Y-41405D01*
X116705Y-41336D01*
X116737Y-41265D01*
X116765Y-41192D01*
X116789Y-41119D01*
X116810Y-41044D01*
X116827Y-40968D01*
X116840Y-40892D01*
X116849Y-40815D01*
X116855Y-40738D01*
X116857Y-40660D01*
X116857Y-36709D01*
X116858Y-36709D02*
X116856Y-36631D01*
X116850Y-36554D01*
X116841Y-36477D01*
X116828Y-36401D01*
X116811Y-36325D01*
X116790Y-36250D01*
X116766Y-36176D01*
X116738Y-36104D01*
X116706Y-36033D01*
X116671Y-35964D01*
X116633Y-35896D01*
X116592Y-35831D01*
X116547Y-35767D01*
X116499Y-35706D01*
X116448Y-35647D01*
X116395Y-35591D01*
X116339Y-35538D01*
X116280Y-35487D01*
X116219Y-35439D01*
X116155Y-35394D01*
X116090Y-35353D01*
X116022Y-35315D01*
X115953Y-35280D01*
X115882Y-35248D01*
X115810Y-35220D01*
X115736Y-35196D01*
X115661Y-35175D01*
X115585Y-35158D01*
X115509Y-35145D01*
X115432Y-35136D01*
X115355Y-35130D01*
X115277Y-35128D01*
X113696Y-35128D01*
X110472Y-35128D02*
X110472Y-42240D01*
X107311Y-42240D01*
X129876Y-52488D02*
X131851Y-52488D01*
X129876Y-52487D02*
X129789Y-52489D01*
X129701Y-52495D01*
X129614Y-52504D01*
X129528Y-52518D01*
X129442Y-52535D01*
X129358Y-52556D01*
X129274Y-52581D01*
X129191Y-52610D01*
X129110Y-52642D01*
X129030Y-52677D01*
X128952Y-52716D01*
X128875Y-52759D01*
X128801Y-52805D01*
X128729Y-52854D01*
X128659Y-52906D01*
X128591Y-52962D01*
X128526Y-53020D01*
X128463Y-53081D01*
X128404Y-53145D01*
X128347Y-53212D01*
X128293Y-53280D01*
X128242Y-53352D01*
X128195Y-53425D01*
X128150Y-53500D01*
X128109Y-53578D01*
X128072Y-53657D01*
X128038Y-53737D01*
X128008Y-53819D01*
X127981Y-53902D01*
X127958Y-53987D01*
X127939Y-54072D01*
X127924Y-54158D01*
X127912Y-54245D01*
X127904Y-54332D01*
X127900Y-54419D01*
X127900Y-54507D01*
X127904Y-54594D01*
X127912Y-54681D01*
X127924Y-54768D01*
X127939Y-54854D01*
X127958Y-54939D01*
X127981Y-55024D01*
X128008Y-55107D01*
X128038Y-55189D01*
X128072Y-55269D01*
X128109Y-55348D01*
X128150Y-55426D01*
X128195Y-55501D01*
X128242Y-55574D01*
X128293Y-55646D01*
X128347Y-55714D01*
X128404Y-55781D01*
X128463Y-55845D01*
X128526Y-55906D01*
X128591Y-55964D01*
X128659Y-56020D01*
X128729Y-56072D01*
X128801Y-56121D01*
X128875Y-56167D01*
X128952Y-56210D01*
X129030Y-56249D01*
X129110Y-56284D01*
X129191Y-56316D01*
X129274Y-56345D01*
X129358Y-56370D01*
X129442Y-56391D01*
X129528Y-56408D01*
X129614Y-56422D01*
X129701Y-56431D01*
X129789Y-56437D01*
X129876Y-56439D01*
X131851Y-56439D01*
X131851Y-49327D01*
X129876Y-49327D01*
X129797Y-49329D01*
X129719Y-49335D01*
X129641Y-49345D01*
X129563Y-49358D01*
X129486Y-49376D01*
X129410Y-49397D01*
X129336Y-49422D01*
X129262Y-49451D01*
X129190Y-49483D01*
X129120Y-49519D01*
X129052Y-49559D01*
X128986Y-49602D01*
X128922Y-49648D01*
X128860Y-49697D01*
X128801Y-49749D01*
X128745Y-49804D01*
X128691Y-49862D01*
X128641Y-49922D01*
X128593Y-49985D01*
X128549Y-50050D01*
X128508Y-50117D01*
X128470Y-50186D01*
X128436Y-50257D01*
X128405Y-50330D01*
X128378Y-50404D01*
X128355Y-50479D01*
X128336Y-50555D01*
X128320Y-50633D01*
X128308Y-50711D01*
X128300Y-50789D01*
X128296Y-50868D01*
X128296Y-50946D01*
X128300Y-51025D01*
X128308Y-51103D01*
X128320Y-51181D01*
X128336Y-51259D01*
X128355Y-51335D01*
X128378Y-51410D01*
X128405Y-51484D01*
X128436Y-51557D01*
X128470Y-51628D01*
X128508Y-51697D01*
X128549Y-51764D01*
X128593Y-51829D01*
X128641Y-51892D01*
X128691Y-51952D01*
X128745Y-52010D01*
X128801Y-52065D01*
X128860Y-52117D01*
X128922Y-52166D01*
X128986Y-52212D01*
X129052Y-52255D01*
X129120Y-52295D01*
X129190Y-52331D01*
X129262Y-52363D01*
X129336Y-52392D01*
X129410Y-52417D01*
X129486Y-52438D01*
X129563Y-52456D01*
X129641Y-52469D01*
X129719Y-52479D01*
X129797Y-52485D01*
X129876Y-52487D01*
X123366Y-56439D02*
X121785Y-56439D01*
X123366Y-56438D02*
X123444Y-56436D01*
X123521Y-56430D01*
X123598Y-56421D01*
X123674Y-56408D01*
X123750Y-56391D01*
X123825Y-56370D01*
X123898Y-56346D01*
X123971Y-56318D01*
X124042Y-56286D01*
X124111Y-56251D01*
X124178Y-56213D01*
X124244Y-56172D01*
X124307Y-56127D01*
X124368Y-56079D01*
X124427Y-56029D01*
X124483Y-55975D01*
X124537Y-55919D01*
X124587Y-55860D01*
X124635Y-55799D01*
X124680Y-55736D01*
X124721Y-55670D01*
X124759Y-55603D01*
X124794Y-55534D01*
X124826Y-55463D01*
X124854Y-55390D01*
X124878Y-55317D01*
X124899Y-55242D01*
X124916Y-55166D01*
X124929Y-55090D01*
X124938Y-55013D01*
X124944Y-54936D01*
X124946Y-54858D01*
X124946Y-50907D01*
X124947Y-50907D02*
X124945Y-50829D01*
X124939Y-50752D01*
X124930Y-50675D01*
X124917Y-50599D01*
X124900Y-50523D01*
X124879Y-50448D01*
X124855Y-50374D01*
X124827Y-50302D01*
X124795Y-50231D01*
X124760Y-50162D01*
X124722Y-50094D01*
X124681Y-50029D01*
X124636Y-49965D01*
X124588Y-49904D01*
X124537Y-49845D01*
X124484Y-49789D01*
X124428Y-49736D01*
X124369Y-49685D01*
X124308Y-49637D01*
X124244Y-49592D01*
X124179Y-49551D01*
X124111Y-49513D01*
X124042Y-49478D01*
X123971Y-49446D01*
X123899Y-49418D01*
X123825Y-49394D01*
X123750Y-49373D01*
X123674Y-49356D01*
X123598Y-49343D01*
X123521Y-49334D01*
X123444Y-49328D01*
X123366Y-49326D01*
X123366Y-49327D02*
X121785Y-49327D01*
X118561Y-49327D02*
X118561Y-56439D01*
X115400Y-56439D01*
X112100Y-56439D02*
X112100Y-49327D01*
X108149Y-49327D02*
X112100Y-53673D01*
X110520Y-52093D02*
X108149Y-56439D01*
X138506Y-62459D02*
X138506Y-69571D01*
X135345Y-69571D01*
X132125Y-69571D02*
X132125Y-62459D01*
X130149Y-62459D01*
X130149Y-62458D02*
X130062Y-62460D01*
X129974Y-62466D01*
X129887Y-62475D01*
X129801Y-62489D01*
X129715Y-62506D01*
X129631Y-62527D01*
X129547Y-62552D01*
X129464Y-62581D01*
X129383Y-62613D01*
X129303Y-62648D01*
X129225Y-62687D01*
X129148Y-62730D01*
X129074Y-62776D01*
X129002Y-62825D01*
X128932Y-62877D01*
X128864Y-62933D01*
X128799Y-62991D01*
X128736Y-63052D01*
X128677Y-63116D01*
X128620Y-63183D01*
X128566Y-63251D01*
X128515Y-63323D01*
X128468Y-63396D01*
X128423Y-63471D01*
X128382Y-63549D01*
X128345Y-63628D01*
X128311Y-63708D01*
X128281Y-63790D01*
X128254Y-63873D01*
X128231Y-63958D01*
X128212Y-64043D01*
X128197Y-64129D01*
X128185Y-64216D01*
X128177Y-64303D01*
X128173Y-64390D01*
X128173Y-64478D01*
X128177Y-64565D01*
X128185Y-64652D01*
X128197Y-64739D01*
X128212Y-64825D01*
X128231Y-64910D01*
X128254Y-64995D01*
X128281Y-65078D01*
X128311Y-65160D01*
X128345Y-65240D01*
X128382Y-65319D01*
X128423Y-65397D01*
X128468Y-65472D01*
X128515Y-65545D01*
X128566Y-65617D01*
X128620Y-65685D01*
X128677Y-65752D01*
X128736Y-65816D01*
X128799Y-65877D01*
X128864Y-65935D01*
X128932Y-65991D01*
X129002Y-66043D01*
X129074Y-66092D01*
X129148Y-66138D01*
X129225Y-66181D01*
X129303Y-66220D01*
X129383Y-66255D01*
X129464Y-66287D01*
X129547Y-66316D01*
X129631Y-66341D01*
X129715Y-66362D01*
X129801Y-66379D01*
X129887Y-66393D01*
X129974Y-66402D01*
X130062Y-66408D01*
X130149Y-66410D01*
X132125Y-66410D01*
X129754Y-66410D02*
X128173Y-69571D01*
X123317Y-69571D02*
X121736Y-69571D01*
X123317Y-69570D02*
X123395Y-69568D01*
X123472Y-69562D01*
X123549Y-69553D01*
X123625Y-69540D01*
X123701Y-69523D01*
X123776Y-69502D01*
X123849Y-69478D01*
X123922Y-69450D01*
X123993Y-69418D01*
X124062Y-69383D01*
X124129Y-69345D01*
X124195Y-69304D01*
X124258Y-69259D01*
X124319Y-69211D01*
X124378Y-69161D01*
X124434Y-69107D01*
X124488Y-69051D01*
X124538Y-68992D01*
X124586Y-68931D01*
X124631Y-68868D01*
X124672Y-68802D01*
X124710Y-68735D01*
X124745Y-68666D01*
X124777Y-68595D01*
X124805Y-68522D01*
X124829Y-68449D01*
X124850Y-68374D01*
X124867Y-68298D01*
X124880Y-68222D01*
X124889Y-68145D01*
X124895Y-68068D01*
X124897Y-67990D01*
X124897Y-64039D01*
X124895Y-63961D01*
X124889Y-63884D01*
X124880Y-63807D01*
X124867Y-63731D01*
X124850Y-63655D01*
X124829Y-63580D01*
X124805Y-63506D01*
X124777Y-63434D01*
X124745Y-63363D01*
X124710Y-63294D01*
X124672Y-63226D01*
X124631Y-63161D01*
X124586Y-63097D01*
X124538Y-63036D01*
X124487Y-62977D01*
X124434Y-62921D01*
X124378Y-62868D01*
X124319Y-62817D01*
X124258Y-62769D01*
X124194Y-62724D01*
X124129Y-62683D01*
X124061Y-62645D01*
X123992Y-62610D01*
X123921Y-62578D01*
X123849Y-62550D01*
X123775Y-62526D01*
X123700Y-62505D01*
X123624Y-62488D01*
X123548Y-62475D01*
X123471Y-62466D01*
X123394Y-62460D01*
X123316Y-62458D01*
X123317Y-62459D02*
X121736Y-62459D01*
X118511Y-62459D02*
X118511Y-69571D01*
X115351Y-69571D01*
X112051Y-69571D02*
X112051Y-62459D01*
X108100Y-62459D02*
X112051Y-66805D01*
X110471Y-65224D02*
X108100Y-69571D01*
X124689Y-76200D02*
X124689Y-83312D01*
X124689Y-76200D02*
X122713Y-76200D01*
X122627Y-76202D01*
X122541Y-76208D01*
X122455Y-76217D01*
X122370Y-76230D01*
X122285Y-76247D01*
X122202Y-76267D01*
X122119Y-76291D01*
X122037Y-76319D01*
X121957Y-76350D01*
X121878Y-76385D01*
X121801Y-76423D01*
X121725Y-76465D01*
X121651Y-76509D01*
X121580Y-76557D01*
X121510Y-76608D01*
X121443Y-76662D01*
X121378Y-76719D01*
X121316Y-76779D01*
X121256Y-76841D01*
X121199Y-76906D01*
X121145Y-76973D01*
X121094Y-77043D01*
X121046Y-77114D01*
X121002Y-77188D01*
X120960Y-77264D01*
X120922Y-77341D01*
X120887Y-77420D01*
X120856Y-77500D01*
X120828Y-77582D01*
X120804Y-77665D01*
X120784Y-77748D01*
X120767Y-77833D01*
X120754Y-77918D01*
X120745Y-78004D01*
X120739Y-78090D01*
X120737Y-78176D01*
X120738Y-78176D02*
X120738Y-81336D01*
X120737Y-81336D02*
X120739Y-81422D01*
X120745Y-81508D01*
X120754Y-81594D01*
X120767Y-81679D01*
X120784Y-81764D01*
X120804Y-81847D01*
X120828Y-81930D01*
X120856Y-82012D01*
X120887Y-82092D01*
X120922Y-82171D01*
X120960Y-82248D01*
X121002Y-82324D01*
X121046Y-82398D01*
X121094Y-82469D01*
X121145Y-82539D01*
X121199Y-82606D01*
X121256Y-82671D01*
X121316Y-82733D01*
X121378Y-82793D01*
X121443Y-82850D01*
X121510Y-82904D01*
X121580Y-82955D01*
X121651Y-83003D01*
X121725Y-83047D01*
X121801Y-83089D01*
X121878Y-83127D01*
X121957Y-83162D01*
X122037Y-83193D01*
X122119Y-83221D01*
X122202Y-83245D01*
X122285Y-83265D01*
X122370Y-83282D01*
X122455Y-83295D01*
X122541Y-83304D01*
X122627Y-83310D01*
X122713Y-83312D01*
X124689Y-83312D01*
X116617Y-83312D02*
X116617Y-76200D01*
X117407Y-83312D02*
X115827Y-83312D01*
X115827Y-76200D02*
X117407Y-76200D01*
X112497Y-76200D02*
X112497Y-83312D01*
X108546Y-83312D02*
X112497Y-76200D01*
X108546Y-76200D02*
X108546Y-83312D01*
D14*
X-86360Y7620D02*
X-86358Y7720D01*
X-86352Y7821D01*
X-86342Y7920D01*
X-86328Y8020D01*
X-86311Y8119D01*
X-86289Y8217D01*
X-86263Y8314D01*
X-86234Y8410D01*
X-86201Y8504D01*
X-86164Y8598D01*
X-86124Y8690D01*
X-86080Y8780D01*
X-86032Y8868D01*
X-85981Y8955D01*
X-85927Y9039D01*
X-85869Y9121D01*
X-85808Y9201D01*
X-85744Y9278D01*
X-85677Y9353D01*
X-85607Y9425D01*
X-85534Y9494D01*
X-85459Y9560D01*
X-85381Y9624D01*
X-85301Y9684D01*
X-85218Y9741D01*
X-85133Y9794D01*
X-85046Y9844D01*
X-84957Y9891D01*
X-84867Y9934D01*
X-84775Y9974D01*
X-84681Y10010D01*
X-84586Y10042D01*
X-84490Y10070D01*
X-84392Y10095D01*
X-84294Y10115D01*
X-84195Y10132D01*
X-84095Y10145D01*
X-83996Y10154D01*
X-83895Y10159D01*
X-83795Y10160D01*
X-83695Y10157D01*
X-83594Y10150D01*
X-83495Y10139D01*
X-83395Y10124D01*
X-83297Y10106D01*
X-83199Y10083D01*
X-83102Y10056D01*
X-83007Y10026D01*
X-82912Y9992D01*
X-82819Y9954D01*
X-82728Y9913D01*
X-82638Y9868D01*
X-82550Y9820D01*
X-82464Y9768D01*
X-82380Y9713D01*
X-82299Y9654D01*
X-82220Y9592D01*
X-82143Y9528D01*
X-82069Y9460D01*
X-81998Y9389D01*
X-81929Y9316D01*
X-81864Y9240D01*
X-81801Y9161D01*
X-81742Y9080D01*
X-81686Y8997D01*
X-81633Y8912D01*
X-81584Y8824D01*
X-81538Y8735D01*
X-81496Y8644D01*
X-81457Y8551D01*
X-81422Y8457D01*
X-81391Y8362D01*
X-81363Y8265D01*
X-81340Y8168D01*
X-81320Y8069D01*
X-81304Y7970D01*
X-81292Y7871D01*
X-81284Y7770D01*
X-81280Y7670D01*
X-81280Y7570D01*
X-81284Y7470D01*
X-81292Y7369D01*
X-81304Y7270D01*
X-81320Y7171D01*
X-81340Y7072D01*
X-81363Y6975D01*
X-81391Y6878D01*
X-81422Y6783D01*
X-81457Y6689D01*
X-81496Y6596D01*
X-81538Y6505D01*
X-81584Y6416D01*
X-81633Y6328D01*
X-81686Y6243D01*
X-81742Y6160D01*
X-81801Y6079D01*
X-81864Y6000D01*
X-81929Y5924D01*
X-81998Y5851D01*
X-82069Y5780D01*
X-82143Y5712D01*
X-82220Y5648D01*
X-82299Y5586D01*
X-82380Y5527D01*
X-82464Y5472D01*
X-82550Y5420D01*
X-82638Y5372D01*
X-82728Y5327D01*
X-82819Y5286D01*
X-82912Y5248D01*
X-83007Y5214D01*
X-83102Y5184D01*
X-83199Y5157D01*
X-83297Y5134D01*
X-83395Y5116D01*
X-83495Y5101D01*
X-83594Y5090D01*
X-83695Y5083D01*
X-83795Y5080D01*
X-83895Y5081D01*
X-83996Y5086D01*
X-84095Y5095D01*
X-84195Y5108D01*
X-84294Y5125D01*
X-84392Y5145D01*
X-84490Y5170D01*
X-84586Y5198D01*
X-84681Y5230D01*
X-84775Y5266D01*
X-84867Y5306D01*
X-84957Y5349D01*
X-85046Y5396D01*
X-85133Y5446D01*
X-85218Y5499D01*
X-85301Y5556D01*
X-85381Y5616D01*
X-85459Y5680D01*
X-85534Y5746D01*
X-85607Y5815D01*
X-85677Y5887D01*
X-85744Y5962D01*
X-85808Y6039D01*
X-85869Y6119D01*
X-85927Y6201D01*
X-85981Y6285D01*
X-86032Y6372D01*
X-86080Y6460D01*
X-86124Y6550D01*
X-86164Y6642D01*
X-86201Y6736D01*
X-86234Y6830D01*
X-86263Y6926D01*
X-86289Y7023D01*
X-86311Y7121D01*
X-86328Y7220D01*
X-86342Y7320D01*
X-86352Y7419D01*
X-86358Y7520D01*
X-86360Y7620D01*
X-33020Y-25400D02*
X-33018Y-25300D01*
X-33012Y-25199D01*
X-33002Y-25100D01*
X-32988Y-25000D01*
X-32971Y-24901D01*
X-32949Y-24803D01*
X-32923Y-24706D01*
X-32894Y-24610D01*
X-32861Y-24516D01*
X-32824Y-24422D01*
X-32784Y-24330D01*
X-32740Y-24240D01*
X-32692Y-24152D01*
X-32641Y-24065D01*
X-32587Y-23981D01*
X-32529Y-23899D01*
X-32468Y-23819D01*
X-32404Y-23742D01*
X-32337Y-23667D01*
X-32267Y-23595D01*
X-32194Y-23526D01*
X-32119Y-23460D01*
X-32041Y-23396D01*
X-31961Y-23336D01*
X-31878Y-23279D01*
X-31793Y-23226D01*
X-31706Y-23176D01*
X-31617Y-23129D01*
X-31527Y-23086D01*
X-31435Y-23046D01*
X-31341Y-23010D01*
X-31246Y-22978D01*
X-31150Y-22950D01*
X-31052Y-22925D01*
X-30954Y-22905D01*
X-30855Y-22888D01*
X-30755Y-22875D01*
X-30656Y-22866D01*
X-30555Y-22861D01*
X-30455Y-22860D01*
X-30355Y-22863D01*
X-30254Y-22870D01*
X-30155Y-22881D01*
X-30055Y-22896D01*
X-29957Y-22914D01*
X-29859Y-22937D01*
X-29762Y-22964D01*
X-29667Y-22994D01*
X-29572Y-23028D01*
X-29479Y-23066D01*
X-29388Y-23107D01*
X-29298Y-23152D01*
X-29210Y-23200D01*
X-29124Y-23252D01*
X-29040Y-23307D01*
X-28959Y-23366D01*
X-28880Y-23428D01*
X-28803Y-23492D01*
X-28729Y-23560D01*
X-28658Y-23631D01*
X-28589Y-23704D01*
X-28524Y-23780D01*
X-28461Y-23859D01*
X-28402Y-23940D01*
X-28346Y-24023D01*
X-28293Y-24108D01*
X-28244Y-24196D01*
X-28198Y-24285D01*
X-28156Y-24376D01*
X-28117Y-24469D01*
X-28082Y-24563D01*
X-28051Y-24658D01*
X-28023Y-24755D01*
X-28000Y-24852D01*
X-27980Y-24951D01*
X-27964Y-25050D01*
X-27952Y-25149D01*
X-27944Y-25250D01*
X-27940Y-25350D01*
X-27940Y-25450D01*
X-27944Y-25550D01*
X-27952Y-25651D01*
X-27964Y-25750D01*
X-27980Y-25849D01*
X-28000Y-25948D01*
X-28023Y-26045D01*
X-28051Y-26142D01*
X-28082Y-26237D01*
X-28117Y-26331D01*
X-28156Y-26424D01*
X-28198Y-26515D01*
X-28244Y-26604D01*
X-28293Y-26692D01*
X-28346Y-26777D01*
X-28402Y-26860D01*
X-28461Y-26941D01*
X-28524Y-27020D01*
X-28589Y-27096D01*
X-28658Y-27169D01*
X-28729Y-27240D01*
X-28803Y-27308D01*
X-28880Y-27372D01*
X-28959Y-27434D01*
X-29040Y-27493D01*
X-29124Y-27548D01*
X-29210Y-27600D01*
X-29298Y-27648D01*
X-29388Y-27693D01*
X-29479Y-27734D01*
X-29572Y-27772D01*
X-29667Y-27806D01*
X-29762Y-27836D01*
X-29859Y-27863D01*
X-29957Y-27886D01*
X-30055Y-27904D01*
X-30155Y-27919D01*
X-30254Y-27930D01*
X-30355Y-27937D01*
X-30455Y-27940D01*
X-30555Y-27939D01*
X-30656Y-27934D01*
X-30755Y-27925D01*
X-30855Y-27912D01*
X-30954Y-27895D01*
X-31052Y-27875D01*
X-31150Y-27850D01*
X-31246Y-27822D01*
X-31341Y-27790D01*
X-31435Y-27754D01*
X-31527Y-27714D01*
X-31617Y-27671D01*
X-31706Y-27624D01*
X-31793Y-27574D01*
X-31878Y-27521D01*
X-31961Y-27464D01*
X-32041Y-27404D01*
X-32119Y-27340D01*
X-32194Y-27274D01*
X-32267Y-27205D01*
X-32337Y-27133D01*
X-32404Y-27058D01*
X-32468Y-26981D01*
X-32529Y-26901D01*
X-32587Y-26819D01*
X-32641Y-26735D01*
X-32692Y-26648D01*
X-32740Y-26560D01*
X-32784Y-26470D01*
X-32824Y-26378D01*
X-32861Y-26284D01*
X-32894Y-26190D01*
X-32923Y-26094D01*
X-32949Y-25997D01*
X-32971Y-25899D01*
X-32988Y-25800D01*
X-33002Y-25700D01*
X-33012Y-25601D01*
X-33018Y-25500D01*
X-33020Y-25400D01*
D13*
X40569Y-47790D02*
X40569Y-50161D01*
X40569Y-47790D02*
X40567Y-47712D01*
X40561Y-47635D01*
X40552Y-47558D01*
X40539Y-47482D01*
X40522Y-47406D01*
X40501Y-47331D01*
X40477Y-47258D01*
X40449Y-47185D01*
X40417Y-47114D01*
X40382Y-47045D01*
X40344Y-46978D01*
X40303Y-46912D01*
X40258Y-46849D01*
X40210Y-46788D01*
X40160Y-46729D01*
X40106Y-46673D01*
X40050Y-46619D01*
X39991Y-46569D01*
X39930Y-46521D01*
X39867Y-46476D01*
X39801Y-46435D01*
X39734Y-46397D01*
X39665Y-46362D01*
X39594Y-46330D01*
X39521Y-46302D01*
X39448Y-46278D01*
X39373Y-46257D01*
X39297Y-46240D01*
X39221Y-46227D01*
X39144Y-46218D01*
X39067Y-46212D01*
X38989Y-46210D01*
X38594Y-46210D01*
X38594Y-46209D02*
X38507Y-46211D01*
X38419Y-46217D01*
X38332Y-46226D01*
X38246Y-46240D01*
X38160Y-46257D01*
X38076Y-46278D01*
X37992Y-46303D01*
X37909Y-46332D01*
X37828Y-46364D01*
X37748Y-46399D01*
X37670Y-46438D01*
X37593Y-46481D01*
X37519Y-46527D01*
X37447Y-46576D01*
X37377Y-46628D01*
X37309Y-46684D01*
X37244Y-46742D01*
X37181Y-46803D01*
X37122Y-46867D01*
X37065Y-46934D01*
X37011Y-47002D01*
X36960Y-47074D01*
X36913Y-47147D01*
X36868Y-47222D01*
X36827Y-47300D01*
X36790Y-47379D01*
X36756Y-47459D01*
X36726Y-47541D01*
X36699Y-47624D01*
X36676Y-47709D01*
X36657Y-47794D01*
X36642Y-47880D01*
X36630Y-47967D01*
X36622Y-48054D01*
X36618Y-48141D01*
X36618Y-48229D01*
X36622Y-48316D01*
X36630Y-48403D01*
X36642Y-48490D01*
X36657Y-48576D01*
X36676Y-48661D01*
X36699Y-48746D01*
X36726Y-48829D01*
X36756Y-48911D01*
X36790Y-48991D01*
X36827Y-49070D01*
X36868Y-49148D01*
X36913Y-49223D01*
X36960Y-49296D01*
X37011Y-49368D01*
X37065Y-49436D01*
X37122Y-49503D01*
X37181Y-49567D01*
X37244Y-49628D01*
X37309Y-49686D01*
X37377Y-49742D01*
X37447Y-49794D01*
X37519Y-49843D01*
X37593Y-49889D01*
X37670Y-49932D01*
X37748Y-49971D01*
X37828Y-50006D01*
X37909Y-50038D01*
X37992Y-50067D01*
X38076Y-50092D01*
X38160Y-50113D01*
X38246Y-50130D01*
X38332Y-50144D01*
X38419Y-50153D01*
X38507Y-50159D01*
X38594Y-50161D01*
X40569Y-50161D01*
X40679Y-50159D01*
X40790Y-50153D01*
X40899Y-50144D01*
X41009Y-50130D01*
X41118Y-50113D01*
X41226Y-50092D01*
X41334Y-50067D01*
X41440Y-50039D01*
X41546Y-50006D01*
X41650Y-49970D01*
X41753Y-49931D01*
X41855Y-49888D01*
X41955Y-49841D01*
X42053Y-49791D01*
X42149Y-49738D01*
X42244Y-49681D01*
X42337Y-49621D01*
X42427Y-49557D01*
X42515Y-49491D01*
X42601Y-49421D01*
X42684Y-49349D01*
X42765Y-49274D01*
X42843Y-49196D01*
X42918Y-49115D01*
X42990Y-49032D01*
X43060Y-48946D01*
X43126Y-48858D01*
X43190Y-48768D01*
X43250Y-48675D01*
X43307Y-48581D01*
X43360Y-48484D01*
X43410Y-48386D01*
X43457Y-48286D01*
X43500Y-48184D01*
X43539Y-48081D01*
X43575Y-47977D01*
X43608Y-47871D01*
X43636Y-47765D01*
X43661Y-47657D01*
X43682Y-47549D01*
X43699Y-47440D01*
X43713Y-47330D01*
X43722Y-47221D01*
X43728Y-47110D01*
X43730Y-47000D01*
X38594Y-42846D02*
X38681Y-42844D01*
X38769Y-42838D01*
X38856Y-42829D01*
X38942Y-42815D01*
X39028Y-42798D01*
X39112Y-42777D01*
X39196Y-42752D01*
X39279Y-42723D01*
X39360Y-42691D01*
X39440Y-42656D01*
X39518Y-42617D01*
X39595Y-42574D01*
X39669Y-42528D01*
X39741Y-42479D01*
X39811Y-42427D01*
X39879Y-42371D01*
X39944Y-42313D01*
X40007Y-42252D01*
X40066Y-42188D01*
X40123Y-42121D01*
X40177Y-42053D01*
X40228Y-41981D01*
X40275Y-41908D01*
X40320Y-41833D01*
X40361Y-41755D01*
X40398Y-41676D01*
X40432Y-41596D01*
X40462Y-41514D01*
X40489Y-41431D01*
X40512Y-41346D01*
X40531Y-41261D01*
X40546Y-41175D01*
X40558Y-41088D01*
X40566Y-41001D01*
X40570Y-40914D01*
X40570Y-40826D01*
X40566Y-40739D01*
X40558Y-40652D01*
X40546Y-40565D01*
X40531Y-40479D01*
X40512Y-40394D01*
X40489Y-40309D01*
X40462Y-40226D01*
X40432Y-40144D01*
X40398Y-40064D01*
X40361Y-39985D01*
X40320Y-39907D01*
X40275Y-39832D01*
X40228Y-39759D01*
X40177Y-39687D01*
X40123Y-39619D01*
X40066Y-39552D01*
X40007Y-39488D01*
X39944Y-39427D01*
X39879Y-39369D01*
X39811Y-39313D01*
X39741Y-39261D01*
X39669Y-39212D01*
X39595Y-39166D01*
X39518Y-39123D01*
X39440Y-39084D01*
X39360Y-39049D01*
X39279Y-39017D01*
X39196Y-38988D01*
X39112Y-38963D01*
X39028Y-38942D01*
X38942Y-38925D01*
X38856Y-38911D01*
X38769Y-38902D01*
X38681Y-38896D01*
X38594Y-38894D01*
X38507Y-38896D01*
X38419Y-38902D01*
X38332Y-38911D01*
X38246Y-38925D01*
X38160Y-38942D01*
X38076Y-38963D01*
X37992Y-38988D01*
X37909Y-39017D01*
X37828Y-39049D01*
X37748Y-39084D01*
X37670Y-39123D01*
X37593Y-39166D01*
X37519Y-39212D01*
X37447Y-39261D01*
X37377Y-39313D01*
X37309Y-39369D01*
X37244Y-39427D01*
X37181Y-39488D01*
X37122Y-39552D01*
X37065Y-39619D01*
X37011Y-39687D01*
X36960Y-39759D01*
X36913Y-39832D01*
X36868Y-39907D01*
X36827Y-39985D01*
X36790Y-40064D01*
X36756Y-40144D01*
X36726Y-40226D01*
X36699Y-40309D01*
X36676Y-40394D01*
X36657Y-40479D01*
X36642Y-40565D01*
X36630Y-40652D01*
X36622Y-40739D01*
X36618Y-40826D01*
X36618Y-40914D01*
X36622Y-41001D01*
X36630Y-41088D01*
X36642Y-41175D01*
X36657Y-41261D01*
X36676Y-41346D01*
X36699Y-41431D01*
X36726Y-41514D01*
X36756Y-41596D01*
X36790Y-41676D01*
X36827Y-41755D01*
X36868Y-41833D01*
X36913Y-41908D01*
X36960Y-41981D01*
X37011Y-42053D01*
X37065Y-42121D01*
X37122Y-42188D01*
X37181Y-42252D01*
X37244Y-42313D01*
X37309Y-42371D01*
X37377Y-42427D01*
X37447Y-42479D01*
X37519Y-42528D01*
X37593Y-42574D01*
X37670Y-42617D01*
X37748Y-42656D01*
X37828Y-42691D01*
X37909Y-42723D01*
X37992Y-42752D01*
X38076Y-42777D01*
X38160Y-42798D01*
X38246Y-42815D01*
X38332Y-42829D01*
X38419Y-42838D01*
X38507Y-42844D01*
X38594Y-42846D01*
X42150Y-42450D02*
X42229Y-42448D01*
X42307Y-42442D01*
X42385Y-42432D01*
X42463Y-42419D01*
X42540Y-42401D01*
X42616Y-42380D01*
X42690Y-42355D01*
X42764Y-42326D01*
X42836Y-42294D01*
X42906Y-42258D01*
X42974Y-42218D01*
X43040Y-42175D01*
X43104Y-42129D01*
X43166Y-42080D01*
X43225Y-42028D01*
X43281Y-41973D01*
X43335Y-41915D01*
X43385Y-41855D01*
X43433Y-41792D01*
X43477Y-41727D01*
X43518Y-41660D01*
X43556Y-41591D01*
X43590Y-41520D01*
X43621Y-41447D01*
X43648Y-41373D01*
X43671Y-41298D01*
X43690Y-41222D01*
X43706Y-41144D01*
X43718Y-41066D01*
X43726Y-40988D01*
X43730Y-40909D01*
X43730Y-40831D01*
X43726Y-40752D01*
X43718Y-40674D01*
X43706Y-40596D01*
X43690Y-40518D01*
X43671Y-40442D01*
X43648Y-40367D01*
X43621Y-40293D01*
X43590Y-40220D01*
X43556Y-40149D01*
X43518Y-40080D01*
X43477Y-40013D01*
X43433Y-39948D01*
X43385Y-39885D01*
X43335Y-39825D01*
X43281Y-39767D01*
X43225Y-39712D01*
X43166Y-39660D01*
X43104Y-39611D01*
X43040Y-39565D01*
X42974Y-39522D01*
X42906Y-39482D01*
X42836Y-39446D01*
X42764Y-39414D01*
X42690Y-39385D01*
X42616Y-39360D01*
X42540Y-39339D01*
X42463Y-39321D01*
X42385Y-39308D01*
X42307Y-39298D01*
X42229Y-39292D01*
X42150Y-39290D01*
X42071Y-39292D01*
X41993Y-39298D01*
X41915Y-39308D01*
X41837Y-39321D01*
X41760Y-39339D01*
X41684Y-39360D01*
X41610Y-39385D01*
X41536Y-39414D01*
X41464Y-39446D01*
X41394Y-39482D01*
X41326Y-39522D01*
X41260Y-39565D01*
X41196Y-39611D01*
X41134Y-39660D01*
X41075Y-39712D01*
X41019Y-39767D01*
X40965Y-39825D01*
X40915Y-39885D01*
X40867Y-39948D01*
X40823Y-40013D01*
X40782Y-40080D01*
X40744Y-40149D01*
X40710Y-40220D01*
X40679Y-40293D01*
X40652Y-40367D01*
X40629Y-40442D01*
X40610Y-40518D01*
X40594Y-40596D01*
X40582Y-40674D01*
X40574Y-40752D01*
X40570Y-40831D01*
X40570Y-40909D01*
X40574Y-40988D01*
X40582Y-41066D01*
X40594Y-41144D01*
X40610Y-41222D01*
X40629Y-41298D01*
X40652Y-41373D01*
X40679Y-41447D01*
X40710Y-41520D01*
X40744Y-41591D01*
X40782Y-41660D01*
X40823Y-41727D01*
X40867Y-41792D01*
X40915Y-41855D01*
X40965Y-41915D01*
X41019Y-41973D01*
X41075Y-42028D01*
X41134Y-42080D01*
X41196Y-42129D01*
X41260Y-42175D01*
X41326Y-42218D01*
X41394Y-42258D01*
X41464Y-42294D01*
X41536Y-42326D01*
X41610Y-42355D01*
X41684Y-42380D01*
X41760Y-42401D01*
X41837Y-42419D01*
X41915Y-42432D01*
X41993Y-42442D01*
X42071Y-42448D01*
X42150Y-42450D01*
X43730Y-35226D02*
X36618Y-35226D01*
X43730Y-35226D02*
X43730Y-33251D01*
X43728Y-33164D01*
X43722Y-33076D01*
X43713Y-32989D01*
X43699Y-32903D01*
X43682Y-32817D01*
X43661Y-32733D01*
X43636Y-32649D01*
X43607Y-32566D01*
X43575Y-32485D01*
X43540Y-32405D01*
X43501Y-32327D01*
X43458Y-32250D01*
X43412Y-32176D01*
X43363Y-32104D01*
X43311Y-32034D01*
X43255Y-31966D01*
X43197Y-31901D01*
X43136Y-31838D01*
X43072Y-31779D01*
X43005Y-31722D01*
X42937Y-31668D01*
X42865Y-31617D01*
X42792Y-31570D01*
X42717Y-31525D01*
X42639Y-31484D01*
X42560Y-31447D01*
X42480Y-31413D01*
X42398Y-31383D01*
X42315Y-31356D01*
X42230Y-31333D01*
X42145Y-31314D01*
X42059Y-31299D01*
X41972Y-31287D01*
X41885Y-31279D01*
X41798Y-31275D01*
X41710Y-31275D01*
X41623Y-31279D01*
X41536Y-31287D01*
X41449Y-31299D01*
X41363Y-31314D01*
X41278Y-31333D01*
X41193Y-31356D01*
X41110Y-31383D01*
X41028Y-31413D01*
X40948Y-31447D01*
X40869Y-31484D01*
X40791Y-31525D01*
X40716Y-31570D01*
X40643Y-31617D01*
X40571Y-31668D01*
X40503Y-31722D01*
X40436Y-31779D01*
X40372Y-31838D01*
X40311Y-31901D01*
X40253Y-31966D01*
X40197Y-32034D01*
X40145Y-32104D01*
X40096Y-32176D01*
X40050Y-32250D01*
X40007Y-32327D01*
X39968Y-32405D01*
X39933Y-32485D01*
X39901Y-32566D01*
X39872Y-32649D01*
X39847Y-32733D01*
X39826Y-32817D01*
X39809Y-32903D01*
X39795Y-32989D01*
X39786Y-33076D01*
X39780Y-33164D01*
X39778Y-33251D01*
X39779Y-33251D02*
X39779Y-35226D01*
X39779Y-32856D02*
X36618Y-31275D01*
X40909Y53165D02*
X41057Y53167D01*
X41204Y53172D01*
X41352Y53182D01*
X41499Y53195D01*
X41646Y53211D01*
X41792Y53232D01*
X41938Y53256D01*
X42083Y53284D01*
X42227Y53315D01*
X42370Y53350D01*
X42513Y53389D01*
X42654Y53431D01*
X42795Y53477D01*
X42934Y53526D01*
X43072Y53579D01*
X43209Y53635D01*
X43344Y53695D01*
X43477Y53758D01*
X43548Y53784D01*
X43617Y53814D01*
X43685Y53848D01*
X43751Y53885D01*
X43815Y53925D01*
X43877Y53969D01*
X43936Y54015D01*
X43993Y54065D01*
X44047Y54118D01*
X44099Y54173D01*
X44147Y54231D01*
X44193Y54291D01*
X44235Y54354D01*
X44274Y54419D01*
X44310Y54485D01*
X44342Y54554D01*
X44370Y54623D01*
X44395Y54695D01*
X44416Y54767D01*
X44434Y54841D01*
X44447Y54915D01*
X44457Y54990D01*
X44463Y55065D01*
X44465Y55141D01*
X44463Y55217D01*
X44457Y55292D01*
X44447Y55367D01*
X44434Y55441D01*
X44416Y55515D01*
X44395Y55587D01*
X44370Y55658D01*
X44342Y55728D01*
X44310Y55797D01*
X44274Y55863D01*
X44235Y55928D01*
X44193Y55991D01*
X44147Y56051D01*
X44099Y56109D01*
X44047Y56164D01*
X43993Y56217D01*
X43936Y56267D01*
X43877Y56313D01*
X43815Y56357D01*
X43751Y56397D01*
X43685Y56434D01*
X43617Y56468D01*
X43548Y56498D01*
X43477Y56524D01*
X43344Y56587D01*
X43209Y56647D01*
X43072Y56703D01*
X42934Y56756D01*
X42795Y56805D01*
X42654Y56851D01*
X42513Y56893D01*
X42370Y56932D01*
X42227Y56967D01*
X42083Y56998D01*
X41938Y57026D01*
X41792Y57050D01*
X41646Y57071D01*
X41499Y57087D01*
X41352Y57100D01*
X41204Y57110D01*
X41057Y57115D01*
X40909Y57117D01*
X40909Y53165D02*
X40761Y53167D01*
X40614Y53172D01*
X40466Y53182D01*
X40319Y53195D01*
X40172Y53211D01*
X40026Y53232D01*
X39881Y53256D01*
X39735Y53284D01*
X39591Y53315D01*
X39448Y53350D01*
X39305Y53389D01*
X39164Y53431D01*
X39023Y53477D01*
X38884Y53526D01*
X38746Y53579D01*
X38609Y53635D01*
X38474Y53695D01*
X38341Y53758D01*
X38270Y53784D01*
X38201Y53814D01*
X38133Y53848D01*
X38067Y53885D01*
X38003Y53925D01*
X37941Y53969D01*
X37882Y54015D01*
X37825Y54065D01*
X37771Y54118D01*
X37719Y54173D01*
X37671Y54231D01*
X37625Y54291D01*
X37583Y54354D01*
X37544Y54419D01*
X37508Y54485D01*
X37476Y54554D01*
X37448Y54624D01*
X37423Y54695D01*
X37402Y54767D01*
X37384Y54841D01*
X37371Y54915D01*
X37361Y54990D01*
X37355Y55065D01*
X37353Y55141D01*
X38341Y56523D02*
X38474Y56586D01*
X38609Y56646D01*
X38746Y56702D01*
X38884Y56755D01*
X39023Y56804D01*
X39164Y56850D01*
X39305Y56892D01*
X39448Y56931D01*
X39591Y56966D01*
X39735Y56997D01*
X39881Y57025D01*
X40026Y57049D01*
X40172Y57070D01*
X40319Y57086D01*
X40466Y57099D01*
X40614Y57109D01*
X40761Y57114D01*
X40909Y57116D01*
X38341Y56524D02*
X38270Y56498D01*
X38201Y56468D01*
X38133Y56434D01*
X38067Y56397D01*
X38003Y56357D01*
X37941Y56313D01*
X37882Y56267D01*
X37825Y56217D01*
X37771Y56164D01*
X37719Y56109D01*
X37671Y56051D01*
X37625Y55991D01*
X37583Y55928D01*
X37544Y55863D01*
X37508Y55797D01*
X37476Y55728D01*
X37448Y55658D01*
X37423Y55587D01*
X37402Y55515D01*
X37384Y55441D01*
X37371Y55367D01*
X37361Y55292D01*
X37355Y55217D01*
X37353Y55141D01*
X38933Y53561D02*
X42884Y56721D01*
X37748Y60064D02*
X37353Y60064D01*
X37748Y60064D02*
X37748Y60459D01*
X37353Y60459D01*
X37353Y60064D01*
X42884Y63407D02*
X44465Y65382D01*
X37353Y65382D01*
X37353Y63407D02*
X37353Y67358D01*
X38538Y70873D02*
X42094Y70873D01*
X38538Y70873D02*
X38472Y70875D01*
X38405Y70880D01*
X38340Y70890D01*
X38274Y70903D01*
X38210Y70919D01*
X38147Y70939D01*
X38085Y70963D01*
X38024Y70990D01*
X37965Y71021D01*
X37908Y71055D01*
X37852Y71092D01*
X37799Y71132D01*
X37748Y71174D01*
X37700Y71220D01*
X37654Y71268D01*
X37612Y71319D01*
X37572Y71372D01*
X37535Y71428D01*
X37501Y71485D01*
X37470Y71544D01*
X37443Y71605D01*
X37419Y71667D01*
X37399Y71730D01*
X37383Y71794D01*
X37370Y71860D01*
X37360Y71925D01*
X37355Y71992D01*
X37353Y72058D01*
X37353Y74034D01*
X42094Y74034D01*
X44465Y77812D02*
X37353Y77812D01*
X44465Y77812D02*
X44465Y80973D01*
X41304Y80973D02*
X41304Y77812D01*
X19471Y49829D02*
X19389Y49827D01*
X19307Y49821D01*
X19225Y49812D01*
X19144Y49799D01*
X19064Y49782D01*
X18984Y49761D01*
X18906Y49737D01*
X18829Y49709D01*
X18753Y49678D01*
X18678Y49643D01*
X18606Y49604D01*
X18535Y49563D01*
X18466Y49518D01*
X18400Y49470D01*
X18335Y49419D01*
X18273Y49365D01*
X18214Y49308D01*
X18157Y49249D01*
X18103Y49187D01*
X18052Y49122D01*
X18004Y49056D01*
X17959Y48987D01*
X17918Y48916D01*
X17879Y48844D01*
X17844Y48769D01*
X17813Y48693D01*
X17785Y48616D01*
X17761Y48538D01*
X17740Y48458D01*
X17723Y48378D01*
X17710Y48297D01*
X17701Y48215D01*
X17695Y48133D01*
X17693Y48051D01*
X19471Y49829D02*
X19564Y49827D01*
X19656Y49821D01*
X19748Y49812D01*
X19840Y49799D01*
X19931Y49782D01*
X20021Y49762D01*
X20111Y49738D01*
X20199Y49710D01*
X20287Y49678D01*
X20372Y49644D01*
X20457Y49605D01*
X20539Y49564D01*
X20620Y49519D01*
X20700Y49470D01*
X20777Y49419D01*
X20852Y49365D01*
X20924Y49307D01*
X20995Y49247D01*
X21062Y49183D01*
X21127Y49118D01*
X21190Y49049D01*
X21249Y48978D01*
X21306Y48905D01*
X21360Y48829D01*
X21410Y48752D01*
X21458Y48672D01*
X21502Y48590D01*
X21542Y48507D01*
X21580Y48422D01*
X21614Y48336D01*
X21644Y48249D01*
X18285Y46668D02*
X18224Y46729D01*
X18166Y46792D01*
X18111Y46858D01*
X18058Y46926D01*
X18009Y46997D01*
X17964Y47069D01*
X17921Y47144D01*
X17882Y47220D01*
X17846Y47299D01*
X17814Y47378D01*
X17786Y47459D01*
X17761Y47542D01*
X17740Y47625D01*
X17723Y47709D01*
X17709Y47794D01*
X17700Y47879D01*
X17694Y47965D01*
X17692Y48051D01*
X18285Y46669D02*
X21644Y42717D01*
X17693Y42717D01*
X14329Y46273D02*
X14327Y46421D01*
X14322Y46568D01*
X14312Y46716D01*
X14299Y46863D01*
X14283Y47010D01*
X14262Y47156D01*
X14238Y47302D01*
X14210Y47447D01*
X14179Y47591D01*
X14144Y47734D01*
X14105Y47877D01*
X14063Y48018D01*
X14017Y48159D01*
X13968Y48298D01*
X13915Y48436D01*
X13859Y48573D01*
X13799Y48708D01*
X13736Y48841D01*
X13736Y48842D02*
X13710Y48913D01*
X13680Y48982D01*
X13646Y49050D01*
X13609Y49116D01*
X13569Y49180D01*
X13525Y49242D01*
X13479Y49301D01*
X13429Y49358D01*
X13376Y49412D01*
X13321Y49464D01*
X13263Y49512D01*
X13203Y49558D01*
X13140Y49600D01*
X13075Y49639D01*
X13009Y49675D01*
X12940Y49707D01*
X12871Y49735D01*
X12799Y49760D01*
X12727Y49781D01*
X12653Y49799D01*
X12579Y49812D01*
X12504Y49822D01*
X12429Y49828D01*
X12353Y49830D01*
X12353Y49829D02*
X12277Y49827D01*
X12202Y49821D01*
X12127Y49811D01*
X12053Y49798D01*
X11979Y49780D01*
X11907Y49759D01*
X11836Y49734D01*
X11766Y49706D01*
X11697Y49674D01*
X11631Y49638D01*
X11566Y49599D01*
X11503Y49557D01*
X11443Y49511D01*
X11385Y49463D01*
X11330Y49411D01*
X11277Y49357D01*
X11227Y49300D01*
X11181Y49241D01*
X11137Y49179D01*
X11097Y49115D01*
X11060Y49049D01*
X11026Y48981D01*
X10996Y48912D01*
X10970Y48841D01*
X10907Y48708D01*
X10847Y48573D01*
X10791Y48436D01*
X10738Y48298D01*
X10689Y48159D01*
X10643Y48018D01*
X10601Y47877D01*
X10562Y47734D01*
X10527Y47591D01*
X10496Y47447D01*
X10468Y47302D01*
X10444Y47156D01*
X10423Y47010D01*
X10407Y46863D01*
X10394Y46716D01*
X10384Y46568D01*
X10379Y46421D01*
X10377Y46273D01*
X14328Y46273D02*
X14326Y46125D01*
X14321Y45978D01*
X14311Y45830D01*
X14298Y45683D01*
X14282Y45536D01*
X14261Y45390D01*
X14237Y45245D01*
X14209Y45099D01*
X14178Y44955D01*
X14143Y44812D01*
X14104Y44669D01*
X14062Y44528D01*
X14016Y44387D01*
X13967Y44248D01*
X13914Y44110D01*
X13858Y43973D01*
X13798Y43838D01*
X13735Y43705D01*
X13736Y43705D02*
X13710Y43634D01*
X13680Y43565D01*
X13646Y43497D01*
X13609Y43431D01*
X13569Y43367D01*
X13525Y43305D01*
X13479Y43246D01*
X13429Y43189D01*
X13376Y43135D01*
X13321Y43083D01*
X13263Y43035D01*
X13203Y42989D01*
X13140Y42947D01*
X13075Y42908D01*
X13009Y42872D01*
X12940Y42840D01*
X12870Y42812D01*
X12799Y42787D01*
X12727Y42766D01*
X12653Y42748D01*
X12579Y42735D01*
X12504Y42725D01*
X12429Y42719D01*
X12353Y42717D01*
X10970Y43705D02*
X10907Y43838D01*
X10847Y43973D01*
X10791Y44110D01*
X10738Y44248D01*
X10689Y44387D01*
X10643Y44528D01*
X10601Y44669D01*
X10562Y44812D01*
X10527Y44955D01*
X10496Y45099D01*
X10468Y45245D01*
X10444Y45390D01*
X10423Y45536D01*
X10407Y45683D01*
X10394Y45830D01*
X10384Y45978D01*
X10379Y46125D01*
X10377Y46273D01*
X10970Y43705D02*
X10996Y43634D01*
X11026Y43565D01*
X11060Y43497D01*
X11097Y43431D01*
X11137Y43367D01*
X11181Y43305D01*
X11227Y43246D01*
X11277Y43189D01*
X11330Y43135D01*
X11385Y43083D01*
X11443Y43035D01*
X11503Y42989D01*
X11566Y42947D01*
X11631Y42908D01*
X11697Y42872D01*
X11766Y42840D01*
X11836Y42812D01*
X11907Y42787D01*
X11979Y42766D01*
X12053Y42748D01*
X12127Y42735D01*
X12202Y42725D01*
X12277Y42719D01*
X12353Y42717D01*
X13933Y44298D02*
X10773Y48249D01*
X7013Y46273D02*
X7011Y46421D01*
X7006Y46568D01*
X6996Y46716D01*
X6983Y46863D01*
X6967Y47010D01*
X6946Y47156D01*
X6922Y47302D01*
X6894Y47447D01*
X6863Y47591D01*
X6828Y47734D01*
X6789Y47877D01*
X6747Y48018D01*
X6701Y48159D01*
X6652Y48298D01*
X6599Y48436D01*
X6543Y48573D01*
X6483Y48708D01*
X6420Y48841D01*
X6421Y48842D02*
X6395Y48913D01*
X6365Y48982D01*
X6331Y49050D01*
X6294Y49116D01*
X6254Y49180D01*
X6210Y49242D01*
X6164Y49301D01*
X6114Y49358D01*
X6061Y49412D01*
X6006Y49464D01*
X5948Y49512D01*
X5888Y49558D01*
X5825Y49600D01*
X5760Y49639D01*
X5694Y49675D01*
X5625Y49707D01*
X5556Y49735D01*
X5484Y49760D01*
X5412Y49781D01*
X5338Y49799D01*
X5264Y49812D01*
X5189Y49822D01*
X5114Y49828D01*
X5038Y49830D01*
X5038Y49829D02*
X4962Y49827D01*
X4887Y49821D01*
X4812Y49811D01*
X4738Y49798D01*
X4664Y49780D01*
X4592Y49759D01*
X4521Y49734D01*
X4451Y49706D01*
X4382Y49674D01*
X4316Y49638D01*
X4251Y49599D01*
X4188Y49557D01*
X4128Y49511D01*
X4070Y49463D01*
X4015Y49411D01*
X3962Y49357D01*
X3912Y49300D01*
X3866Y49241D01*
X3822Y49179D01*
X3782Y49115D01*
X3745Y49049D01*
X3711Y48981D01*
X3681Y48912D01*
X3655Y48841D01*
X3592Y48708D01*
X3532Y48573D01*
X3476Y48436D01*
X3423Y48298D01*
X3374Y48159D01*
X3328Y48018D01*
X3286Y47877D01*
X3247Y47734D01*
X3212Y47591D01*
X3181Y47447D01*
X3153Y47302D01*
X3129Y47156D01*
X3108Y47010D01*
X3092Y46863D01*
X3079Y46716D01*
X3069Y46568D01*
X3064Y46421D01*
X3062Y46273D01*
X7013Y46273D02*
X7011Y46125D01*
X7006Y45978D01*
X6996Y45830D01*
X6983Y45683D01*
X6967Y45536D01*
X6946Y45390D01*
X6922Y45245D01*
X6894Y45099D01*
X6863Y44955D01*
X6828Y44812D01*
X6789Y44669D01*
X6747Y44528D01*
X6701Y44387D01*
X6652Y44248D01*
X6599Y44110D01*
X6543Y43973D01*
X6483Y43838D01*
X6420Y43705D01*
X6421Y43705D02*
X6395Y43634D01*
X6365Y43565D01*
X6331Y43497D01*
X6294Y43431D01*
X6254Y43367D01*
X6210Y43305D01*
X6164Y43246D01*
X6114Y43189D01*
X6061Y43135D01*
X6006Y43083D01*
X5948Y43035D01*
X5888Y42989D01*
X5825Y42947D01*
X5760Y42908D01*
X5694Y42872D01*
X5625Y42840D01*
X5555Y42812D01*
X5484Y42787D01*
X5412Y42766D01*
X5338Y42748D01*
X5264Y42735D01*
X5189Y42725D01*
X5114Y42719D01*
X5038Y42717D01*
X3655Y43705D02*
X3592Y43838D01*
X3532Y43973D01*
X3476Y44110D01*
X3423Y44248D01*
X3374Y44387D01*
X3328Y44528D01*
X3286Y44669D01*
X3247Y44812D01*
X3212Y44955D01*
X3181Y45099D01*
X3153Y45245D01*
X3129Y45390D01*
X3108Y45536D01*
X3092Y45683D01*
X3079Y45830D01*
X3069Y45978D01*
X3064Y46125D01*
X3062Y46273D01*
X3655Y43705D02*
X3681Y43634D01*
X3711Y43565D01*
X3745Y43497D01*
X3782Y43431D01*
X3822Y43367D01*
X3866Y43305D01*
X3912Y43246D01*
X3962Y43189D01*
X4015Y43135D01*
X4070Y43083D01*
X4128Y43035D01*
X4188Y42989D01*
X4251Y42947D01*
X4316Y42908D01*
X4382Y42872D01*
X4451Y42840D01*
X4521Y42812D01*
X4592Y42787D01*
X4664Y42766D01*
X4738Y42748D01*
X4812Y42735D01*
X4887Y42725D01*
X4962Y42719D01*
X5038Y42717D01*
X6618Y44298D02*
X3457Y48249D01*
X-501Y47459D02*
X-501Y40347D01*
X-501Y47459D02*
X-2477Y47459D01*
X-2477Y47458D02*
X-2543Y47456D01*
X-2610Y47451D01*
X-2675Y47441D01*
X-2741Y47428D01*
X-2805Y47412D01*
X-2868Y47392D01*
X-2930Y47368D01*
X-2991Y47341D01*
X-3050Y47310D01*
X-3107Y47276D01*
X-3163Y47239D01*
X-3216Y47199D01*
X-3267Y47157D01*
X-3315Y47111D01*
X-3361Y47063D01*
X-3403Y47012D01*
X-3443Y46959D01*
X-3480Y46903D01*
X-3514Y46846D01*
X-3545Y46787D01*
X-3572Y46727D01*
X-3595Y46664D01*
X-3616Y46601D01*
X-3632Y46537D01*
X-3645Y46472D01*
X-3655Y46406D01*
X-3660Y46339D01*
X-3662Y46273D01*
X-3662Y43903D01*
X-3660Y43837D01*
X-3655Y43770D01*
X-3645Y43705D01*
X-3632Y43639D01*
X-3616Y43575D01*
X-3596Y43512D01*
X-3572Y43450D01*
X-3545Y43389D01*
X-3514Y43330D01*
X-3480Y43273D01*
X-3443Y43217D01*
X-3403Y43164D01*
X-3361Y43113D01*
X-3315Y43065D01*
X-3267Y43019D01*
X-3216Y42977D01*
X-3163Y42937D01*
X-3107Y42900D01*
X-3050Y42866D01*
X-2991Y42835D01*
X-2930Y42808D01*
X-2868Y42784D01*
X-2805Y42764D01*
X-2741Y42748D01*
X-2675Y42735D01*
X-2610Y42725D01*
X-2543Y42720D01*
X-2477Y42718D01*
X-2477Y42717D02*
X-501Y42717D01*
X-7148Y42717D02*
X-7148Y49829D01*
X-10309Y49829D01*
X-10309Y46669D02*
X-7148Y46669D01*
D15*
X-10474Y13091D02*
X6926Y13091D01*
X-10474Y13091D02*
X-10474Y-13409D01*
X6926Y-13409D01*
D16*
X21746Y-15939D02*
X21748Y-15895D01*
X21754Y-15851D01*
X21764Y-15808D01*
X21777Y-15766D01*
X21794Y-15725D01*
X21815Y-15686D01*
X21839Y-15649D01*
X21866Y-15614D01*
X21896Y-15582D01*
X21929Y-15552D01*
X21965Y-15526D01*
X22002Y-15502D01*
X22042Y-15483D01*
X22083Y-15466D01*
X22126Y-15454D01*
X22169Y-15445D01*
X22213Y-15440D01*
X22257Y-15439D01*
X22301Y-15442D01*
X22345Y-15449D01*
X22388Y-15460D01*
X22430Y-15474D01*
X22470Y-15492D01*
X22509Y-15514D01*
X22545Y-15538D01*
X22579Y-15566D01*
X22611Y-15597D01*
X22640Y-15631D01*
X22666Y-15667D01*
X22688Y-15705D01*
X22707Y-15745D01*
X22722Y-15787D01*
X22734Y-15829D01*
X22742Y-15873D01*
X22746Y-15917D01*
X22746Y-15961D01*
X22742Y-16005D01*
X22734Y-16049D01*
X22722Y-16091D01*
X22707Y-16133D01*
X22688Y-16173D01*
X22666Y-16211D01*
X22640Y-16247D01*
X22611Y-16281D01*
X22579Y-16312D01*
X22545Y-16340D01*
X22509Y-16364D01*
X22470Y-16386D01*
X22430Y-16404D01*
X22388Y-16418D01*
X22345Y-16429D01*
X22301Y-16436D01*
X22257Y-16439D01*
X22213Y-16438D01*
X22169Y-16433D01*
X22126Y-16424D01*
X22083Y-16412D01*
X22042Y-16395D01*
X22002Y-16376D01*
X21965Y-16352D01*
X21929Y-16326D01*
X21896Y-16296D01*
X21866Y-16264D01*
X21839Y-16229D01*
X21815Y-16192D01*
X21794Y-16153D01*
X21777Y-16112D01*
X21764Y-16070D01*
X21754Y-16027D01*
X21748Y-15983D01*
X21746Y-15939D01*
D14*
X-50800Y-10160D02*
X-50800Y10160D01*
X-73660Y10160D02*
X-73660Y-10160D01*
X-52960Y-13940D02*
X-52958Y-13877D01*
X-52952Y-13815D01*
X-52942Y-13753D01*
X-52929Y-13691D01*
X-52911Y-13631D01*
X-52890Y-13572D01*
X-52865Y-13514D01*
X-52836Y-13458D01*
X-52804Y-13404D01*
X-52769Y-13352D01*
X-52731Y-13303D01*
X-52689Y-13255D01*
X-52645Y-13211D01*
X-52597Y-13169D01*
X-52548Y-13131D01*
X-52496Y-13096D01*
X-52442Y-13064D01*
X-52386Y-13035D01*
X-52328Y-13010D01*
X-52269Y-12989D01*
X-52209Y-12971D01*
X-52147Y-12958D01*
X-52085Y-12948D01*
X-52023Y-12942D01*
X-51960Y-12940D01*
X-51897Y-12942D01*
X-51835Y-12948D01*
X-51773Y-12958D01*
X-51711Y-12971D01*
X-51651Y-12989D01*
X-51592Y-13010D01*
X-51534Y-13035D01*
X-51478Y-13064D01*
X-51424Y-13096D01*
X-51372Y-13131D01*
X-51323Y-13169D01*
X-51275Y-13211D01*
X-51231Y-13255D01*
X-51189Y-13303D01*
X-51151Y-13352D01*
X-51116Y-13404D01*
X-51084Y-13458D01*
X-51055Y-13514D01*
X-51030Y-13572D01*
X-51009Y-13631D01*
X-50991Y-13691D01*
X-50978Y-13753D01*
X-50968Y-13815D01*
X-50962Y-13877D01*
X-50960Y-13940D01*
X-50962Y-14003D01*
X-50968Y-14065D01*
X-50978Y-14127D01*
X-50991Y-14189D01*
X-51009Y-14249D01*
X-51030Y-14308D01*
X-51055Y-14366D01*
X-51084Y-14422D01*
X-51116Y-14476D01*
X-51151Y-14528D01*
X-51189Y-14577D01*
X-51231Y-14625D01*
X-51275Y-14669D01*
X-51323Y-14711D01*
X-51372Y-14749D01*
X-51424Y-14784D01*
X-51478Y-14816D01*
X-51534Y-14845D01*
X-51592Y-14870D01*
X-51651Y-14891D01*
X-51711Y-14909D01*
X-51773Y-14922D01*
X-51835Y-14932D01*
X-51897Y-14938D01*
X-51960Y-14940D01*
X-52023Y-14938D01*
X-52085Y-14932D01*
X-52147Y-14922D01*
X-52209Y-14909D01*
X-52269Y-14891D01*
X-52328Y-14870D01*
X-52386Y-14845D01*
X-52442Y-14816D01*
X-52496Y-14784D01*
X-52548Y-14749D01*
X-52597Y-14711D01*
X-52645Y-14669D01*
X-52689Y-14625D01*
X-52731Y-14577D01*
X-52769Y-14528D01*
X-52804Y-14476D01*
X-52836Y-14422D01*
X-52865Y-14366D01*
X-52890Y-14308D01*
X-52911Y-14249D01*
X-52929Y-14189D01*
X-52942Y-14127D01*
X-52952Y-14065D01*
X-52958Y-14003D01*
X-52960Y-13940D01*
D13*
X-22479Y-11049D02*
X-22331Y-11047D01*
X-22184Y-11042D01*
X-22036Y-11032D01*
X-21889Y-11019D01*
X-21742Y-11003D01*
X-21596Y-10982D01*
X-21451Y-10958D01*
X-21305Y-10930D01*
X-21161Y-10899D01*
X-21018Y-10864D01*
X-20875Y-10825D01*
X-20734Y-10783D01*
X-20593Y-10737D01*
X-20454Y-10688D01*
X-20316Y-10635D01*
X-20179Y-10579D01*
X-20044Y-10519D01*
X-19911Y-10456D01*
X-19840Y-10430D01*
X-19771Y-10400D01*
X-19703Y-10366D01*
X-19637Y-10329D01*
X-19573Y-10289D01*
X-19511Y-10245D01*
X-19452Y-10199D01*
X-19395Y-10149D01*
X-19341Y-10096D01*
X-19289Y-10041D01*
X-19241Y-9983D01*
X-19195Y-9923D01*
X-19153Y-9860D01*
X-19114Y-9795D01*
X-19078Y-9729D01*
X-19046Y-9660D01*
X-19018Y-9591D01*
X-18993Y-9519D01*
X-18972Y-9447D01*
X-18954Y-9373D01*
X-18941Y-9299D01*
X-18931Y-9224D01*
X-18925Y-9149D01*
X-18923Y-9073D01*
X-18925Y-8997D01*
X-18931Y-8922D01*
X-18941Y-8847D01*
X-18954Y-8773D01*
X-18972Y-8699D01*
X-18993Y-8627D01*
X-19018Y-8556D01*
X-19046Y-8486D01*
X-19078Y-8417D01*
X-19114Y-8351D01*
X-19153Y-8286D01*
X-19195Y-8223D01*
X-19241Y-8163D01*
X-19289Y-8105D01*
X-19341Y-8050D01*
X-19395Y-7997D01*
X-19452Y-7947D01*
X-19511Y-7901D01*
X-19573Y-7857D01*
X-19637Y-7817D01*
X-19703Y-7780D01*
X-19771Y-7746D01*
X-19840Y-7716D01*
X-19911Y-7690D01*
X-19911Y-7691D02*
X-20044Y-7628D01*
X-20179Y-7568D01*
X-20316Y-7512D01*
X-20454Y-7459D01*
X-20593Y-7410D01*
X-20734Y-7364D01*
X-20875Y-7322D01*
X-21018Y-7283D01*
X-21161Y-7248D01*
X-21305Y-7217D01*
X-21451Y-7189D01*
X-21596Y-7165D01*
X-21742Y-7144D01*
X-21889Y-7128D01*
X-22036Y-7115D01*
X-22184Y-7105D01*
X-22331Y-7100D01*
X-22479Y-7098D01*
X-22479Y-11049D02*
X-22627Y-11047D01*
X-22774Y-11042D01*
X-22922Y-11032D01*
X-23069Y-11019D01*
X-23216Y-11003D01*
X-23362Y-10982D01*
X-23507Y-10958D01*
X-23653Y-10930D01*
X-23797Y-10899D01*
X-23940Y-10864D01*
X-24083Y-10825D01*
X-24224Y-10783D01*
X-24365Y-10737D01*
X-24504Y-10688D01*
X-24642Y-10635D01*
X-24779Y-10579D01*
X-24914Y-10519D01*
X-25047Y-10456D01*
X-25118Y-10430D01*
X-25187Y-10400D01*
X-25255Y-10366D01*
X-25321Y-10329D01*
X-25385Y-10289D01*
X-25447Y-10245D01*
X-25506Y-10199D01*
X-25563Y-10149D01*
X-25617Y-10096D01*
X-25669Y-10041D01*
X-25717Y-9983D01*
X-25763Y-9923D01*
X-25805Y-9860D01*
X-25844Y-9795D01*
X-25880Y-9729D01*
X-25912Y-9660D01*
X-25940Y-9590D01*
X-25965Y-9519D01*
X-25986Y-9447D01*
X-26004Y-9373D01*
X-26017Y-9299D01*
X-26027Y-9224D01*
X-26033Y-9149D01*
X-26035Y-9073D01*
X-25047Y-7691D02*
X-24914Y-7628D01*
X-24779Y-7568D01*
X-24642Y-7512D01*
X-24504Y-7459D01*
X-24365Y-7410D01*
X-24224Y-7364D01*
X-24083Y-7322D01*
X-23940Y-7283D01*
X-23797Y-7248D01*
X-23653Y-7217D01*
X-23507Y-7189D01*
X-23362Y-7165D01*
X-23216Y-7144D01*
X-23069Y-7128D01*
X-22922Y-7115D01*
X-22774Y-7105D01*
X-22627Y-7100D01*
X-22479Y-7098D01*
X-25047Y-7690D02*
X-25118Y-7716D01*
X-25187Y-7746D01*
X-25255Y-7780D01*
X-25321Y-7817D01*
X-25385Y-7857D01*
X-25447Y-7901D01*
X-25506Y-7947D01*
X-25563Y-7997D01*
X-25617Y-8050D01*
X-25669Y-8105D01*
X-25717Y-8163D01*
X-25763Y-8223D01*
X-25805Y-8286D01*
X-25844Y-8351D01*
X-25880Y-8417D01*
X-25912Y-8486D01*
X-25940Y-8556D01*
X-25965Y-8627D01*
X-25986Y-8699D01*
X-26004Y-8773D01*
X-26017Y-8847D01*
X-26027Y-8922D01*
X-26033Y-8997D01*
X-26035Y-9073D01*
X-24455Y-10654D02*
X-20503Y-7493D01*
X-25640Y-4150D02*
X-26035Y-4150D01*
X-25640Y-4150D02*
X-25640Y-3755D01*
X-26035Y-3755D01*
X-26035Y-4150D01*
X-20503Y-808D02*
X-18923Y1168D01*
X-26035Y1168D01*
X-26035Y3143D02*
X-26035Y-808D01*
X-24850Y6659D02*
X-21294Y6659D01*
X-24850Y6659D02*
X-24916Y6661D01*
X-24983Y6666D01*
X-25048Y6676D01*
X-25114Y6689D01*
X-25178Y6705D01*
X-25241Y6725D01*
X-25303Y6749D01*
X-25364Y6776D01*
X-25423Y6807D01*
X-25480Y6841D01*
X-25536Y6878D01*
X-25589Y6918D01*
X-25640Y6960D01*
X-25688Y7006D01*
X-25734Y7054D01*
X-25776Y7105D01*
X-25816Y7158D01*
X-25853Y7214D01*
X-25887Y7271D01*
X-25918Y7330D01*
X-25945Y7391D01*
X-25969Y7453D01*
X-25989Y7516D01*
X-26005Y7580D01*
X-26018Y7646D01*
X-26028Y7711D01*
X-26033Y7778D01*
X-26035Y7844D01*
X-26035Y9820D01*
X-21294Y9820D01*
X-18923Y13597D02*
X-26035Y13597D01*
X-18923Y13597D02*
X-18923Y16758D01*
X-22084Y16758D02*
X-22084Y13597D01*
D14*
X26437Y99381D02*
X-13712Y185480D01*
X-47246Y169843D01*
X-74435Y157165D02*
X-107968Y141528D01*
X-67819Y55429D01*
X-55859Y51075D02*
X-30482Y62909D01*
X-3293Y75587D02*
X22083Y87421D01*
X26437Y99381D01*
X-55859Y51075D02*
X-67819Y55429D01*
X-5165Y80783D02*
X-4303Y81619D01*
X-3462Y82476D01*
X-2643Y83353D01*
X-1845Y84250D01*
X-1069Y85166D01*
X-316Y86101D01*
X413Y87054D01*
X1120Y88025D01*
X1802Y89013D01*
X2460Y90017D01*
X3093Y91037D01*
X3701Y92072D01*
X4283Y93121D01*
X4840Y94185D01*
X5370Y95262D01*
X5874Y96351D01*
X6351Y97453D01*
X6801Y98566D01*
X7223Y99689D01*
X7618Y100823D01*
X7985Y101966D01*
X8324Y103118D01*
X8634Y104277D01*
X8916Y105444D01*
X9170Y106617D01*
X9394Y107796D01*
X9590Y108981D01*
X9756Y110170D01*
X9894Y111362D01*
X10002Y112558D01*
X10081Y113755D01*
X10130Y114955D01*
X10151Y116155D01*
X10141Y117355D01*
X10103Y118555D01*
X10034Y119754D01*
X9937Y120950D01*
X9810Y122144D01*
X9655Y123334D01*
X9470Y124520D01*
X9256Y125701D01*
X9013Y126877D01*
X8741Y128046D01*
X8441Y129209D01*
X8113Y130363D01*
X7756Y131509D01*
X7372Y132646D01*
X6959Y133774D01*
X6520Y134891D01*
X6053Y135997D01*
X5559Y137091D01*
X5038Y138172D01*
X4491Y139241D01*
X3918Y140296D01*
X3320Y141336D01*
X2696Y142362D01*
X2047Y143372D01*
X1374Y144365D01*
X676Y145342D01*
X-45Y146302D01*
X-790Y147244D01*
X-1557Y148167D01*
X-2347Y149071D01*
X-3158Y149955D01*
X-3991Y150820D01*
X-4845Y151663D01*
X-5720Y152486D01*
X-6614Y153287D01*
X-7527Y154065D01*
X-8460Y154821D01*
X-9410Y155554D01*
X-10379Y156264D01*
X-11364Y156950D01*
X-12366Y157611D01*
X-13383Y158247D01*
X-14416Y158859D01*
X-15464Y159445D01*
X-16526Y160005D01*
X-17601Y160539D01*
X-18689Y161046D01*
X-19789Y161527D01*
X-20900Y161981D01*
X-22022Y162407D01*
X-23155Y162805D01*
X-24296Y163176D01*
X-25447Y163519D01*
X-26605Y163833D01*
X-27771Y164119D01*
X-28944Y164377D01*
X-30122Y164605D01*
X-31306Y164805D01*
X-32494Y164975D01*
X-33686Y165117D01*
X-34881Y165229D01*
X-36079Y165312D01*
X-37278Y165365D01*
X-38478Y165389D01*
X-39678Y165384D01*
X-40878Y165350D01*
X-42077Y165286D01*
X-43274Y165192D01*
X-44468Y165070D01*
X-72563Y151969D02*
X-73425Y151133D01*
X-74266Y150276D01*
X-75085Y149399D01*
X-75883Y148502D01*
X-76659Y147586D01*
X-77412Y146651D01*
X-78141Y145698D01*
X-78848Y144727D01*
X-79530Y143739D01*
X-80188Y142735D01*
X-80821Y141715D01*
X-81429Y140680D01*
X-82011Y139631D01*
X-82568Y138567D01*
X-83098Y137490D01*
X-83602Y136401D01*
X-84079Y135299D01*
X-84529Y134186D01*
X-84951Y133063D01*
X-85346Y131929D01*
X-85713Y130786D01*
X-86052Y129634D01*
X-86362Y128475D01*
X-86644Y127308D01*
X-86898Y126135D01*
X-87122Y124956D01*
X-87318Y123771D01*
X-87484Y122582D01*
X-87622Y121390D01*
X-87730Y120194D01*
X-87809Y118997D01*
X-87858Y117797D01*
X-87879Y116597D01*
X-87869Y115397D01*
X-87831Y114197D01*
X-87762Y112998D01*
X-87665Y111802D01*
X-87538Y110608D01*
X-87383Y109418D01*
X-87198Y108232D01*
X-86984Y107051D01*
X-86741Y105875D01*
X-86469Y104706D01*
X-86169Y103543D01*
X-85841Y102389D01*
X-85484Y101243D01*
X-85100Y100106D01*
X-84687Y98978D01*
X-84248Y97861D01*
X-83781Y96755D01*
X-83287Y95661D01*
X-82766Y94580D01*
X-82219Y93511D01*
X-81646Y92456D01*
X-81048Y91416D01*
X-80424Y90390D01*
X-79775Y89380D01*
X-79102Y88387D01*
X-78404Y87410D01*
X-77683Y86450D01*
X-76938Y85508D01*
X-76171Y84585D01*
X-75381Y83681D01*
X-74570Y82797D01*
X-73737Y81932D01*
X-72883Y81089D01*
X-72008Y80266D01*
X-71114Y79465D01*
X-70201Y78687D01*
X-69268Y77931D01*
X-68318Y77198D01*
X-67349Y76488D01*
X-66364Y75802D01*
X-65362Y75141D01*
X-64345Y74505D01*
X-63312Y73893D01*
X-62264Y73307D01*
X-61202Y72747D01*
X-60127Y72213D01*
X-59039Y71706D01*
X-57939Y71225D01*
X-56828Y70771D01*
X-55706Y70345D01*
X-54573Y69947D01*
X-53432Y69576D01*
X-52281Y69233D01*
X-51123Y68919D01*
X-49957Y68633D01*
X-48784Y68375D01*
X-47606Y68147D01*
X-46422Y67947D01*
X-45234Y67777D01*
X-44042Y67635D01*
X-42847Y67523D01*
X-41649Y67440D01*
X-40450Y67387D01*
X-39250Y67363D01*
X-38050Y67368D01*
X-36850Y67402D01*
X-35651Y67466D01*
X-34454Y67560D01*
X-33260Y67682D01*
X53390Y116580D02*
X53390Y-106420D01*
X102390Y-106420D01*
X102390Y116580D01*
X53390Y116580D01*
D15*
X-123912Y-59126D02*
X-94523Y-99577D01*
X-123912Y-59126D02*
X-157082Y-83225D01*
X-164363Y-88515D01*
X-159073Y-95796D01*
X-134974Y-128966D01*
X-94523Y-99577D01*
X-157082Y-83225D02*
X-159073Y-95796D01*
X-159737Y-99987D01*
X-165324Y-99102D01*
X-164363Y-88515D01*
X-146648Y-94046D02*
X-146643Y-93624D01*
X-146627Y-93202D01*
X-146601Y-92780D01*
X-146565Y-92360D01*
X-146519Y-91940D01*
X-146462Y-91522D01*
X-146395Y-91105D01*
X-146317Y-90689D01*
X-146230Y-90276D01*
X-146132Y-89866D01*
X-146025Y-89457D01*
X-145907Y-89052D01*
X-145780Y-88649D01*
X-145642Y-88250D01*
X-145495Y-87854D01*
X-145338Y-87462D01*
X-145172Y-87074D01*
X-144996Y-86690D01*
X-144811Y-86310D01*
X-144616Y-85936D01*
X-144413Y-85566D01*
X-144200Y-85201D01*
X-143979Y-84841D01*
X-143748Y-84487D01*
X-143510Y-84139D01*
X-143262Y-83797D01*
X-143007Y-83461D01*
X-142743Y-83131D01*
X-142471Y-82808D01*
X-142191Y-82492D01*
X-141904Y-82182D01*
X-141609Y-81880D01*
X-141307Y-81585D01*
X-140997Y-81298D01*
X-140681Y-81018D01*
X-140358Y-80746D01*
X-140028Y-80482D01*
X-139692Y-80227D01*
X-139350Y-79979D01*
X-139002Y-79741D01*
X-138648Y-79510D01*
X-138288Y-79289D01*
X-137923Y-79076D01*
X-137553Y-78873D01*
X-137179Y-78678D01*
X-136799Y-78493D01*
X-136415Y-78317D01*
X-136027Y-78151D01*
X-135635Y-77994D01*
X-135239Y-77847D01*
X-134840Y-77709D01*
X-134437Y-77582D01*
X-134032Y-77464D01*
X-133623Y-77357D01*
X-133213Y-77259D01*
X-132800Y-77172D01*
X-132384Y-77094D01*
X-131967Y-77027D01*
X-131549Y-76970D01*
X-131129Y-76924D01*
X-130709Y-76888D01*
X-130287Y-76862D01*
X-129865Y-76846D01*
X-129443Y-76841D01*
X-129021Y-76846D01*
X-128599Y-76862D01*
X-128177Y-76888D01*
X-127757Y-76924D01*
X-127337Y-76970D01*
X-126919Y-77027D01*
X-126502Y-77094D01*
X-126086Y-77172D01*
X-125673Y-77259D01*
X-125263Y-77357D01*
X-124854Y-77464D01*
X-124449Y-77582D01*
X-124046Y-77709D01*
X-123647Y-77847D01*
X-123251Y-77994D01*
X-122859Y-78151D01*
X-122471Y-78317D01*
X-122087Y-78493D01*
X-121707Y-78678D01*
X-121333Y-78873D01*
X-120963Y-79076D01*
X-120598Y-79289D01*
X-120238Y-79510D01*
X-119884Y-79741D01*
X-119536Y-79979D01*
X-119194Y-80227D01*
X-118858Y-80482D01*
X-118528Y-80746D01*
X-118205Y-81018D01*
X-117889Y-81298D01*
X-117579Y-81585D01*
X-117277Y-81880D01*
X-116982Y-82182D01*
X-116695Y-82492D01*
X-116415Y-82808D01*
X-116143Y-83131D01*
X-115879Y-83461D01*
X-115624Y-83797D01*
X-115376Y-84139D01*
X-115138Y-84487D01*
X-114907Y-84841D01*
X-114686Y-85201D01*
X-114473Y-85566D01*
X-114270Y-85936D01*
X-114075Y-86310D01*
X-113890Y-86690D01*
X-113714Y-87074D01*
X-113548Y-87462D01*
X-113391Y-87854D01*
X-113244Y-88250D01*
X-113106Y-88649D01*
X-112979Y-89052D01*
X-112861Y-89457D01*
X-112754Y-89866D01*
X-112656Y-90276D01*
X-112569Y-90689D01*
X-112491Y-91105D01*
X-112424Y-91522D01*
X-112367Y-91940D01*
X-112321Y-92360D01*
X-112285Y-92780D01*
X-112259Y-93202D01*
X-112243Y-93624D01*
X-112238Y-94046D01*
X-112243Y-94468D01*
X-112259Y-94890D01*
X-112285Y-95312D01*
X-112321Y-95732D01*
X-112367Y-96152D01*
X-112424Y-96570D01*
X-112491Y-96987D01*
X-112569Y-97403D01*
X-112656Y-97816D01*
X-112754Y-98226D01*
X-112861Y-98635D01*
X-112979Y-99040D01*
X-113106Y-99443D01*
X-113244Y-99842D01*
X-113391Y-100238D01*
X-113548Y-100630D01*
X-113714Y-101018D01*
X-113890Y-101402D01*
X-114075Y-101782D01*
X-114270Y-102156D01*
X-114473Y-102526D01*
X-114686Y-102891D01*
X-114907Y-103251D01*
X-115138Y-103605D01*
X-115376Y-103953D01*
X-115624Y-104295D01*
X-115879Y-104631D01*
X-116143Y-104961D01*
X-116415Y-105284D01*
X-116695Y-105600D01*
X-116982Y-105910D01*
X-117277Y-106212D01*
X-117579Y-106507D01*
X-117889Y-106794D01*
X-118205Y-107074D01*
X-118528Y-107346D01*
X-118858Y-107610D01*
X-119194Y-107865D01*
X-119536Y-108113D01*
X-119884Y-108351D01*
X-120238Y-108582D01*
X-120598Y-108803D01*
X-120963Y-109016D01*
X-121333Y-109219D01*
X-121707Y-109414D01*
X-122087Y-109599D01*
X-122471Y-109775D01*
X-122859Y-109941D01*
X-123251Y-110098D01*
X-123647Y-110245D01*
X-124046Y-110383D01*
X-124449Y-110510D01*
X-124854Y-110628D01*
X-125263Y-110735D01*
X-125673Y-110833D01*
X-126086Y-110920D01*
X-126502Y-110998D01*
X-126919Y-111065D01*
X-127337Y-111122D01*
X-127757Y-111168D01*
X-128177Y-111204D01*
X-128599Y-111230D01*
X-129021Y-111246D01*
X-129443Y-111251D01*
X-129865Y-111246D01*
X-130287Y-111230D01*
X-130709Y-111204D01*
X-131129Y-111168D01*
X-131549Y-111122D01*
X-131967Y-111065D01*
X-132384Y-110998D01*
X-132800Y-110920D01*
X-133213Y-110833D01*
X-133623Y-110735D01*
X-134032Y-110628D01*
X-134437Y-110510D01*
X-134840Y-110383D01*
X-135239Y-110245D01*
X-135635Y-110098D01*
X-136027Y-109941D01*
X-136415Y-109775D01*
X-136799Y-109599D01*
X-137179Y-109414D01*
X-137553Y-109219D01*
X-137923Y-109016D01*
X-138288Y-108803D01*
X-138648Y-108582D01*
X-139002Y-108351D01*
X-139350Y-108113D01*
X-139692Y-107865D01*
X-140028Y-107610D01*
X-140358Y-107346D01*
X-140681Y-107074D01*
X-140997Y-106794D01*
X-141307Y-106507D01*
X-141609Y-106212D01*
X-141904Y-105910D01*
X-142191Y-105600D01*
X-142471Y-105284D01*
X-142743Y-104961D01*
X-143007Y-104631D01*
X-143262Y-104295D01*
X-143510Y-103953D01*
X-143748Y-103605D01*
X-143979Y-103251D01*
X-144200Y-102891D01*
X-144413Y-102526D01*
X-144616Y-102156D01*
X-144811Y-101782D01*
X-144996Y-101402D01*
X-145172Y-101018D01*
X-145338Y-100630D01*
X-145495Y-100238D01*
X-145642Y-99842D01*
X-145780Y-99443D01*
X-145907Y-99040D01*
X-146025Y-98635D01*
X-146132Y-98226D01*
X-146230Y-97816D01*
X-146317Y-97403D01*
X-146395Y-96987D01*
X-146462Y-96570D01*
X-146519Y-96152D01*
X-146565Y-95732D01*
X-146601Y-95312D01*
X-146627Y-94890D01*
X-146643Y-94468D01*
X-146648Y-94046D01*
X17941Y-136118D02*
X65494Y-120667D01*
X17941Y-136118D02*
X30611Y-175111D01*
X33392Y-183671D01*
X41952Y-180890D01*
X80945Y-168220D01*
X65494Y-120667D01*
X30611Y-175111D02*
X41952Y-180890D01*
X45732Y-182816D01*
X43164Y-187856D01*
X33392Y-183671D01*
X32238Y-152169D02*
X32243Y-151747D01*
X32259Y-151325D01*
X32285Y-150903D01*
X32321Y-150483D01*
X32367Y-150063D01*
X32424Y-149645D01*
X32491Y-149228D01*
X32569Y-148812D01*
X32656Y-148399D01*
X32754Y-147989D01*
X32861Y-147580D01*
X32979Y-147175D01*
X33106Y-146772D01*
X33244Y-146373D01*
X33391Y-145977D01*
X33548Y-145585D01*
X33714Y-145197D01*
X33890Y-144813D01*
X34075Y-144433D01*
X34270Y-144059D01*
X34473Y-143689D01*
X34686Y-143324D01*
X34907Y-142964D01*
X35138Y-142610D01*
X35376Y-142262D01*
X35624Y-141920D01*
X35879Y-141584D01*
X36143Y-141254D01*
X36415Y-140931D01*
X36695Y-140615D01*
X36982Y-140305D01*
X37277Y-140003D01*
X37579Y-139708D01*
X37889Y-139421D01*
X38205Y-139141D01*
X38528Y-138869D01*
X38858Y-138605D01*
X39194Y-138350D01*
X39536Y-138102D01*
X39884Y-137864D01*
X40238Y-137633D01*
X40598Y-137412D01*
X40963Y-137199D01*
X41333Y-136996D01*
X41707Y-136801D01*
X42087Y-136616D01*
X42471Y-136440D01*
X42859Y-136274D01*
X43251Y-136117D01*
X43647Y-135970D01*
X44046Y-135832D01*
X44449Y-135705D01*
X44854Y-135587D01*
X45263Y-135480D01*
X45673Y-135382D01*
X46086Y-135295D01*
X46502Y-135217D01*
X46919Y-135150D01*
X47337Y-135093D01*
X47757Y-135047D01*
X48177Y-135011D01*
X48599Y-134985D01*
X49021Y-134969D01*
X49443Y-134964D01*
X49865Y-134969D01*
X50287Y-134985D01*
X50709Y-135011D01*
X51129Y-135047D01*
X51549Y-135093D01*
X51967Y-135150D01*
X52384Y-135217D01*
X52800Y-135295D01*
X53213Y-135382D01*
X53623Y-135480D01*
X54032Y-135587D01*
X54437Y-135705D01*
X54840Y-135832D01*
X55239Y-135970D01*
X55635Y-136117D01*
X56027Y-136274D01*
X56415Y-136440D01*
X56799Y-136616D01*
X57179Y-136801D01*
X57553Y-136996D01*
X57923Y-137199D01*
X58288Y-137412D01*
X58648Y-137633D01*
X59002Y-137864D01*
X59350Y-138102D01*
X59692Y-138350D01*
X60028Y-138605D01*
X60358Y-138869D01*
X60681Y-139141D01*
X60997Y-139421D01*
X61307Y-139708D01*
X61609Y-140003D01*
X61904Y-140305D01*
X62191Y-140615D01*
X62471Y-140931D01*
X62743Y-141254D01*
X63007Y-141584D01*
X63262Y-141920D01*
X63510Y-142262D01*
X63748Y-142610D01*
X63979Y-142964D01*
X64200Y-143324D01*
X64413Y-143689D01*
X64616Y-144059D01*
X64811Y-144433D01*
X64996Y-144813D01*
X65172Y-145197D01*
X65338Y-145585D01*
X65495Y-145977D01*
X65642Y-146373D01*
X65780Y-146772D01*
X65907Y-147175D01*
X66025Y-147580D01*
X66132Y-147989D01*
X66230Y-148399D01*
X66317Y-148812D01*
X66395Y-149228D01*
X66462Y-149645D01*
X66519Y-150063D01*
X66565Y-150483D01*
X66601Y-150903D01*
X66627Y-151325D01*
X66643Y-151747D01*
X66648Y-152169D01*
X66643Y-152591D01*
X66627Y-153013D01*
X66601Y-153435D01*
X66565Y-153855D01*
X66519Y-154275D01*
X66462Y-154693D01*
X66395Y-155110D01*
X66317Y-155526D01*
X66230Y-155939D01*
X66132Y-156349D01*
X66025Y-156758D01*
X65907Y-157163D01*
X65780Y-157566D01*
X65642Y-157965D01*
X65495Y-158361D01*
X65338Y-158753D01*
X65172Y-159141D01*
X64996Y-159525D01*
X64811Y-159905D01*
X64616Y-160279D01*
X64413Y-160649D01*
X64200Y-161014D01*
X63979Y-161374D01*
X63748Y-161728D01*
X63510Y-162076D01*
X63262Y-162418D01*
X63007Y-162754D01*
X62743Y-163084D01*
X62471Y-163407D01*
X62191Y-163723D01*
X61904Y-164033D01*
X61609Y-164335D01*
X61307Y-164630D01*
X60997Y-164917D01*
X60681Y-165197D01*
X60358Y-165469D01*
X60028Y-165733D01*
X59692Y-165988D01*
X59350Y-166236D01*
X59002Y-166474D01*
X58648Y-166705D01*
X58288Y-166926D01*
X57923Y-167139D01*
X57553Y-167342D01*
X57179Y-167537D01*
X56799Y-167722D01*
X56415Y-167898D01*
X56027Y-168064D01*
X55635Y-168221D01*
X55239Y-168368D01*
X54840Y-168506D01*
X54437Y-168633D01*
X54032Y-168751D01*
X53623Y-168858D01*
X53213Y-168956D01*
X52800Y-169043D01*
X52384Y-169121D01*
X51967Y-169188D01*
X51549Y-169245D01*
X51129Y-169291D01*
X50709Y-169327D01*
X50287Y-169353D01*
X49865Y-169369D01*
X49443Y-169374D01*
X49021Y-169369D01*
X48599Y-169353D01*
X48177Y-169327D01*
X47757Y-169291D01*
X47337Y-169245D01*
X46919Y-169188D01*
X46502Y-169121D01*
X46086Y-169043D01*
X45673Y-168956D01*
X45263Y-168858D01*
X44854Y-168751D01*
X44449Y-168633D01*
X44046Y-168506D01*
X43647Y-168368D01*
X43251Y-168221D01*
X42859Y-168064D01*
X42471Y-167898D01*
X42087Y-167722D01*
X41707Y-167537D01*
X41333Y-167342D01*
X40963Y-167139D01*
X40598Y-166926D01*
X40238Y-166705D01*
X39884Y-166474D01*
X39536Y-166236D01*
X39194Y-165988D01*
X38858Y-165733D01*
X38528Y-165469D01*
X38205Y-165197D01*
X37889Y-164917D01*
X37579Y-164630D01*
X37277Y-164335D01*
X36982Y-164033D01*
X36695Y-163723D01*
X36415Y-163407D01*
X36143Y-163084D01*
X35879Y-162754D01*
X35624Y-162418D01*
X35376Y-162076D01*
X35138Y-161728D01*
X34907Y-161374D01*
X34686Y-161014D01*
X34473Y-160649D01*
X34270Y-160279D01*
X34075Y-159905D01*
X33890Y-159525D01*
X33714Y-159141D01*
X33548Y-158753D01*
X33391Y-158361D01*
X33244Y-157965D01*
X33106Y-157566D01*
X32979Y-157163D01*
X32861Y-156758D01*
X32754Y-156349D01*
X32656Y-155939D01*
X32569Y-155526D01*
X32491Y-155110D01*
X32424Y-154693D01*
X32367Y-154275D01*
X32321Y-153855D01*
X32285Y-153435D01*
X32259Y-153013D01*
X32243Y-152591D01*
X32238Y-152169D01*
X135000Y-25000D02*
X135000Y25000D01*
X135000Y-25000D02*
X176000Y-25000D01*
X185000Y-25000D01*
X185000Y-16000D01*
X185000Y25000D01*
X135000Y25000D01*
X176000Y-25000D02*
X185000Y-16000D01*
X188000Y-13000D01*
X192000Y-17000D01*
X185000Y-25000D01*
X142795Y0D02*
X142800Y422D01*
X142816Y844D01*
X142842Y1266D01*
X142878Y1686D01*
X142924Y2106D01*
X142981Y2524D01*
X143048Y2941D01*
X143126Y3357D01*
X143213Y3770D01*
X143311Y4180D01*
X143418Y4589D01*
X143536Y4994D01*
X143663Y5397D01*
X143801Y5796D01*
X143948Y6192D01*
X144105Y6584D01*
X144271Y6972D01*
X144447Y7356D01*
X144632Y7736D01*
X144827Y8110D01*
X145030Y8480D01*
X145243Y8845D01*
X145464Y9205D01*
X145695Y9559D01*
X145933Y9907D01*
X146181Y10249D01*
X146436Y10585D01*
X146700Y10915D01*
X146972Y11238D01*
X147252Y11554D01*
X147539Y11864D01*
X147834Y12166D01*
X148136Y12461D01*
X148446Y12748D01*
X148762Y13028D01*
X149085Y13300D01*
X149415Y13564D01*
X149751Y13819D01*
X150093Y14067D01*
X150441Y14305D01*
X150795Y14536D01*
X151155Y14757D01*
X151520Y14970D01*
X151890Y15173D01*
X152264Y15368D01*
X152644Y15553D01*
X153028Y15729D01*
X153416Y15895D01*
X153808Y16052D01*
X154204Y16199D01*
X154603Y16337D01*
X155006Y16464D01*
X155411Y16582D01*
X155820Y16689D01*
X156230Y16787D01*
X156643Y16874D01*
X157059Y16952D01*
X157476Y17019D01*
X157894Y17076D01*
X158314Y17122D01*
X158734Y17158D01*
X159156Y17184D01*
X159578Y17200D01*
X160000Y17205D01*
X160422Y17200D01*
X160844Y17184D01*
X161266Y17158D01*
X161686Y17122D01*
X162106Y17076D01*
X162524Y17019D01*
X162941Y16952D01*
X163357Y16874D01*
X163770Y16787D01*
X164180Y16689D01*
X164589Y16582D01*
X164994Y16464D01*
X165397Y16337D01*
X165796Y16199D01*
X166192Y16052D01*
X166584Y15895D01*
X166972Y15729D01*
X167356Y15553D01*
X167736Y15368D01*
X168110Y15173D01*
X168480Y14970D01*
X168845Y14757D01*
X169205Y14536D01*
X169559Y14305D01*
X169907Y14067D01*
X170249Y13819D01*
X170585Y13564D01*
X170915Y13300D01*
X171238Y13028D01*
X171554Y12748D01*
X171864Y12461D01*
X172166Y12166D01*
X172461Y11864D01*
X172748Y11554D01*
X173028Y11238D01*
X173300Y10915D01*
X173564Y10585D01*
X173819Y10249D01*
X174067Y9907D01*
X174305Y9559D01*
X174536Y9205D01*
X174757Y8845D01*
X174970Y8480D01*
X175173Y8110D01*
X175368Y7736D01*
X175553Y7356D01*
X175729Y6972D01*
X175895Y6584D01*
X176052Y6192D01*
X176199Y5796D01*
X176337Y5397D01*
X176464Y4994D01*
X176582Y4589D01*
X176689Y4180D01*
X176787Y3770D01*
X176874Y3357D01*
X176952Y2941D01*
X177019Y2524D01*
X177076Y2106D01*
X177122Y1686D01*
X177158Y1266D01*
X177184Y844D01*
X177200Y422D01*
X177205Y0D01*
X177200Y-422D01*
X177184Y-844D01*
X177158Y-1266D01*
X177122Y-1686D01*
X177076Y-2106D01*
X177019Y-2524D01*
X176952Y-2941D01*
X176874Y-3357D01*
X176787Y-3770D01*
X176689Y-4180D01*
X176582Y-4589D01*
X176464Y-4994D01*
X176337Y-5397D01*
X176199Y-5796D01*
X176052Y-6192D01*
X175895Y-6584D01*
X175729Y-6972D01*
X175553Y-7356D01*
X175368Y-7736D01*
X175173Y-8110D01*
X174970Y-8480D01*
X174757Y-8845D01*
X174536Y-9205D01*
X174305Y-9559D01*
X174067Y-9907D01*
X173819Y-10249D01*
X173564Y-10585D01*
X173300Y-10915D01*
X173028Y-11238D01*
X172748Y-11554D01*
X172461Y-11864D01*
X172166Y-12166D01*
X171864Y-12461D01*
X171554Y-12748D01*
X171238Y-13028D01*
X170915Y-13300D01*
X170585Y-13564D01*
X170249Y-13819D01*
X169907Y-14067D01*
X169559Y-14305D01*
X169205Y-14536D01*
X168845Y-14757D01*
X168480Y-14970D01*
X168110Y-15173D01*
X167736Y-15368D01*
X167356Y-15553D01*
X166972Y-15729D01*
X166584Y-15895D01*
X166192Y-16052D01*
X165796Y-16199D01*
X165397Y-16337D01*
X164994Y-16464D01*
X164589Y-16582D01*
X164180Y-16689D01*
X163770Y-16787D01*
X163357Y-16874D01*
X162941Y-16952D01*
X162524Y-17019D01*
X162106Y-17076D01*
X161686Y-17122D01*
X161266Y-17158D01*
X160844Y-17184D01*
X160422Y-17200D01*
X160000Y-17205D01*
X159578Y-17200D01*
X159156Y-17184D01*
X158734Y-17158D01*
X158314Y-17122D01*
X157894Y-17076D01*
X157476Y-17019D01*
X157059Y-16952D01*
X156643Y-16874D01*
X156230Y-16787D01*
X155820Y-16689D01*
X155411Y-16582D01*
X155006Y-16464D01*
X154603Y-16337D01*
X154204Y-16199D01*
X153808Y-16052D01*
X153416Y-15895D01*
X153028Y-15729D01*
X152644Y-15553D01*
X152264Y-15368D01*
X151890Y-15173D01*
X151520Y-14970D01*
X151155Y-14757D01*
X150795Y-14536D01*
X150441Y-14305D01*
X150093Y-14067D01*
X149751Y-13819D01*
X149415Y-13564D01*
X149085Y-13300D01*
X148762Y-13028D01*
X148446Y-12748D01*
X148136Y-12461D01*
X147834Y-12166D01*
X147539Y-11864D01*
X147252Y-11554D01*
X146972Y-11238D01*
X146700Y-10915D01*
X146436Y-10585D01*
X146181Y-10249D01*
X145933Y-9907D01*
X145695Y-9559D01*
X145464Y-9205D01*
X145243Y-8845D01*
X145030Y-8480D01*
X144827Y-8110D01*
X144632Y-7736D01*
X144447Y-7356D01*
X144271Y-6972D01*
X144105Y-6584D01*
X143948Y-6192D01*
X143801Y-5796D01*
X143663Y-5397D01*
X143536Y-4994D01*
X143418Y-4589D01*
X143311Y-4180D01*
X143213Y-3770D01*
X143126Y-3357D01*
X143048Y-2941D01*
X142981Y-2524D01*
X142924Y-2106D01*
X142878Y-1686D01*
X142842Y-1266D01*
X142816Y-844D01*
X142800Y-422D01*
X142795Y0D01*
X65494Y120667D02*
X17941Y136118D01*
X65494Y120667D02*
X78164Y159660D01*
X80945Y168220D01*
X72385Y171001D01*
X33392Y183671D01*
X17941Y136118D01*
X78164Y159660D02*
X72385Y171001D01*
X70459Y174781D01*
X75500Y177350D01*
X80945Y168220D01*
X32238Y152169D02*
X32243Y152591D01*
X32259Y153013D01*
X32285Y153435D01*
X32321Y153855D01*
X32367Y154275D01*
X32424Y154693D01*
X32491Y155110D01*
X32569Y155526D01*
X32656Y155939D01*
X32754Y156349D01*
X32861Y156758D01*
X32979Y157163D01*
X33106Y157566D01*
X33244Y157965D01*
X33391Y158361D01*
X33548Y158753D01*
X33714Y159141D01*
X33890Y159525D01*
X34075Y159905D01*
X34270Y160279D01*
X34473Y160649D01*
X34686Y161014D01*
X34907Y161374D01*
X35138Y161728D01*
X35376Y162076D01*
X35624Y162418D01*
X35879Y162754D01*
X36143Y163084D01*
X36415Y163407D01*
X36695Y163723D01*
X36982Y164033D01*
X37277Y164335D01*
X37579Y164630D01*
X37889Y164917D01*
X38205Y165197D01*
X38528Y165469D01*
X38858Y165733D01*
X39194Y165988D01*
X39536Y166236D01*
X39884Y166474D01*
X40238Y166705D01*
X40598Y166926D01*
X40963Y167139D01*
X41333Y167342D01*
X41707Y167537D01*
X42087Y167722D01*
X42471Y167898D01*
X42859Y168064D01*
X43251Y168221D01*
X43647Y168368D01*
X44046Y168506D01*
X44449Y168633D01*
X44854Y168751D01*
X45263Y168858D01*
X45673Y168956D01*
X46086Y169043D01*
X46502Y169121D01*
X46919Y169188D01*
X47337Y169245D01*
X47757Y169291D01*
X48177Y169327D01*
X48599Y169353D01*
X49021Y169369D01*
X49443Y169374D01*
X49865Y169369D01*
X50287Y169353D01*
X50709Y169327D01*
X51129Y169291D01*
X51549Y169245D01*
X51967Y169188D01*
X52384Y169121D01*
X52800Y169043D01*
X53213Y168956D01*
X53623Y168858D01*
X54032Y168751D01*
X54437Y168633D01*
X54840Y168506D01*
X55239Y168368D01*
X55635Y168221D01*
X56027Y168064D01*
X56415Y167898D01*
X56799Y167722D01*
X57179Y167537D01*
X57553Y167342D01*
X57923Y167139D01*
X58288Y166926D01*
X58648Y166705D01*
X59002Y166474D01*
X59350Y166236D01*
X59692Y165988D01*
X60028Y165733D01*
X60358Y165469D01*
X60681Y165197D01*
X60997Y164917D01*
X61307Y164630D01*
X61609Y164335D01*
X61904Y164033D01*
X62191Y163723D01*
X62471Y163407D01*
X62743Y163084D01*
X63007Y162754D01*
X63262Y162418D01*
X63510Y162076D01*
X63748Y161728D01*
X63979Y161374D01*
X64200Y161014D01*
X64413Y160649D01*
X64616Y160279D01*
X64811Y159905D01*
X64996Y159525D01*
X65172Y159141D01*
X65338Y158753D01*
X65495Y158361D01*
X65642Y157965D01*
X65780Y157566D01*
X65907Y157163D01*
X66025Y156758D01*
X66132Y156349D01*
X66230Y155939D01*
X66317Y155526D01*
X66395Y155110D01*
X66462Y154693D01*
X66519Y154275D01*
X66565Y153855D01*
X66601Y153435D01*
X66627Y153013D01*
X66643Y152591D01*
X66648Y152169D01*
X66643Y151747D01*
X66627Y151325D01*
X66601Y150903D01*
X66565Y150483D01*
X66519Y150063D01*
X66462Y149645D01*
X66395Y149228D01*
X66317Y148812D01*
X66230Y148399D01*
X66132Y147989D01*
X66025Y147580D01*
X65907Y147175D01*
X65780Y146772D01*
X65642Y146373D01*
X65495Y145977D01*
X65338Y145585D01*
X65172Y145197D01*
X64996Y144813D01*
X64811Y144433D01*
X64616Y144059D01*
X64413Y143689D01*
X64200Y143324D01*
X63979Y142964D01*
X63748Y142610D01*
X63510Y142262D01*
X63262Y141920D01*
X63007Y141584D01*
X62743Y141254D01*
X62471Y140931D01*
X62191Y140615D01*
X61904Y140305D01*
X61609Y140003D01*
X61307Y139708D01*
X60997Y139421D01*
X60681Y139141D01*
X60358Y138869D01*
X60028Y138605D01*
X59692Y138350D01*
X59350Y138102D01*
X59002Y137864D01*
X58648Y137633D01*
X58288Y137412D01*
X57923Y137199D01*
X57553Y136996D01*
X57179Y136801D01*
X56799Y136616D01*
X56415Y136440D01*
X56027Y136274D01*
X55635Y136117D01*
X55239Y135970D01*
X54840Y135832D01*
X54437Y135705D01*
X54032Y135587D01*
X53623Y135480D01*
X53213Y135382D01*
X52800Y135295D01*
X52384Y135217D01*
X51967Y135150D01*
X51549Y135093D01*
X51129Y135047D01*
X50709Y135011D01*
X50287Y134985D01*
X49865Y134969D01*
X49443Y134964D01*
X49021Y134969D01*
X48599Y134985D01*
X48177Y135011D01*
X47757Y135047D01*
X47337Y135093D01*
X46919Y135150D01*
X46502Y135217D01*
X46086Y135295D01*
X45673Y135382D01*
X45263Y135480D01*
X44854Y135587D01*
X44449Y135705D01*
X44046Y135832D01*
X43647Y135970D01*
X43251Y136117D01*
X42859Y136274D01*
X42471Y136440D01*
X42087Y136616D01*
X41707Y136801D01*
X41333Y136996D01*
X40963Y137199D01*
X40598Y137412D01*
X40238Y137633D01*
X39884Y137864D01*
X39536Y138102D01*
X39194Y138350D01*
X38858Y138605D01*
X38528Y138869D01*
X38205Y139141D01*
X37889Y139421D01*
X37579Y139708D01*
X37277Y140003D01*
X36982Y140305D01*
X36695Y140615D01*
X36415Y140931D01*
X36143Y141254D01*
X35879Y141584D01*
X35624Y141920D01*
X35376Y142262D01*
X35138Y142610D01*
X34907Y142964D01*
X34686Y143324D01*
X34473Y143689D01*
X34270Y144059D01*
X34075Y144433D01*
X33890Y144813D01*
X33714Y145197D01*
X33548Y145585D01*
X33391Y145977D01*
X33244Y146373D01*
X33106Y146772D01*
X32979Y147175D01*
X32861Y147580D01*
X32754Y147989D01*
X32656Y148399D01*
X32569Y148812D01*
X32491Y149228D01*
X32424Y149645D01*
X32367Y150063D01*
X32321Y150483D01*
X32285Y150903D01*
X32259Y151325D01*
X32243Y151747D01*
X32238Y152169D01*
X-94523Y99577D02*
X-123912Y59126D01*
X-94523Y99577D02*
X-127693Y123676D01*
X-134974Y128966D01*
X-140264Y121685D01*
X-164363Y88515D01*
X-123912Y59126D01*
X-127693Y123676D02*
X-140264Y121685D01*
X-144454Y121021D01*
X-145339Y126608D01*
X-134974Y128966D01*
X-146648Y94046D02*
X-146643Y94468D01*
X-146627Y94890D01*
X-146601Y95312D01*
X-146565Y95732D01*
X-146519Y96152D01*
X-146462Y96570D01*
X-146395Y96987D01*
X-146317Y97403D01*
X-146230Y97816D01*
X-146132Y98226D01*
X-146025Y98635D01*
X-145907Y99040D01*
X-145780Y99443D01*
X-145642Y99842D01*
X-145495Y100238D01*
X-145338Y100630D01*
X-145172Y101018D01*
X-144996Y101402D01*
X-144811Y101782D01*
X-144616Y102156D01*
X-144413Y102526D01*
X-144200Y102891D01*
X-143979Y103251D01*
X-143748Y103605D01*
X-143510Y103953D01*
X-143262Y104295D01*
X-143007Y104631D01*
X-142743Y104961D01*
X-142471Y105284D01*
X-142191Y105600D01*
X-141904Y105910D01*
X-141609Y106212D01*
X-141307Y106507D01*
X-140997Y106794D01*
X-140681Y107074D01*
X-140358Y107346D01*
X-140028Y107610D01*
X-139692Y107865D01*
X-139350Y108113D01*
X-139002Y108351D01*
X-138648Y108582D01*
X-138288Y108803D01*
X-137923Y109016D01*
X-137553Y109219D01*
X-137179Y109414D01*
X-136799Y109599D01*
X-136415Y109775D01*
X-136027Y109941D01*
X-135635Y110098D01*
X-135239Y110245D01*
X-134840Y110383D01*
X-134437Y110510D01*
X-134032Y110628D01*
X-133623Y110735D01*
X-133213Y110833D01*
X-132800Y110920D01*
X-132384Y110998D01*
X-131967Y111065D01*
X-131549Y111122D01*
X-131129Y111168D01*
X-130709Y111204D01*
X-130287Y111230D01*
X-129865Y111246D01*
X-129443Y111251D01*
X-129021Y111246D01*
X-128599Y111230D01*
X-128177Y111204D01*
X-127757Y111168D01*
X-127337Y111122D01*
X-126919Y111065D01*
X-126502Y110998D01*
X-126086Y110920D01*
X-125673Y110833D01*
X-125263Y110735D01*
X-124854Y110628D01*
X-124449Y110510D01*
X-124046Y110383D01*
X-123647Y110245D01*
X-123251Y110098D01*
X-122859Y109941D01*
X-122471Y109775D01*
X-122087Y109599D01*
X-121707Y109414D01*
X-121333Y109219D01*
X-120963Y109016D01*
X-120598Y108803D01*
X-120238Y108582D01*
X-119884Y108351D01*
X-119536Y108113D01*
X-119194Y107865D01*
X-118858Y107610D01*
X-118528Y107346D01*
X-118205Y107074D01*
X-117889Y106794D01*
X-117579Y106507D01*
X-117277Y106212D01*
X-116982Y105910D01*
X-116695Y105600D01*
X-116415Y105284D01*
X-116143Y104961D01*
X-115879Y104631D01*
X-115624Y104295D01*
X-115376Y103953D01*
X-115138Y103605D01*
X-114907Y103251D01*
X-114686Y102891D01*
X-114473Y102526D01*
X-114270Y102156D01*
X-114075Y101782D01*
X-113890Y101402D01*
X-113714Y101018D01*
X-113548Y100630D01*
X-113391Y100238D01*
X-113244Y99842D01*
X-113106Y99443D01*
X-112979Y99040D01*
X-112861Y98635D01*
X-112754Y98226D01*
X-112656Y97816D01*
X-112569Y97403D01*
X-112491Y96987D01*
X-112424Y96570D01*
X-112367Y96152D01*
X-112321Y95732D01*
X-112285Y95312D01*
X-112259Y94890D01*
X-112243Y94468D01*
X-112238Y94046D01*
X-112243Y93624D01*
X-112259Y93202D01*
X-112285Y92780D01*
X-112321Y92360D01*
X-112367Y91940D01*
X-112424Y91522D01*
X-112491Y91105D01*
X-112569Y90689D01*
X-112656Y90276D01*
X-112754Y89866D01*
X-112861Y89457D01*
X-112979Y89052D01*
X-113106Y88649D01*
X-113244Y88250D01*
X-113391Y87854D01*
X-113548Y87462D01*
X-113714Y87074D01*
X-113890Y86690D01*
X-114075Y86310D01*
X-114270Y85936D01*
X-114473Y85566D01*
X-114686Y85201D01*
X-114907Y84841D01*
X-115138Y84487D01*
X-115376Y84139D01*
X-115624Y83797D01*
X-115879Y83461D01*
X-116143Y83131D01*
X-116415Y82808D01*
X-116695Y82492D01*
X-116982Y82182D01*
X-117277Y81880D01*
X-117579Y81585D01*
X-117889Y81298D01*
X-118205Y81018D01*
X-118528Y80746D01*
X-118858Y80482D01*
X-119194Y80227D01*
X-119536Y79979D01*
X-119884Y79741D01*
X-120238Y79510D01*
X-120598Y79289D01*
X-120963Y79076D01*
X-121333Y78873D01*
X-121707Y78678D01*
X-122087Y78493D01*
X-122471Y78317D01*
X-122859Y78151D01*
X-123251Y77994D01*
X-123647Y77847D01*
X-124046Y77709D01*
X-124449Y77582D01*
X-124854Y77464D01*
X-125263Y77357D01*
X-125673Y77259D01*
X-126086Y77172D01*
X-126502Y77094D01*
X-126919Y77027D01*
X-127337Y76970D01*
X-127757Y76924D01*
X-128177Y76888D01*
X-128599Y76862D01*
X-129021Y76846D01*
X-129443Y76841D01*
X-129865Y76846D01*
X-130287Y76862D01*
X-130709Y76888D01*
X-131129Y76924D01*
X-131549Y76970D01*
X-131967Y77027D01*
X-132384Y77094D01*
X-132800Y77172D01*
X-133213Y77259D01*
X-133623Y77357D01*
X-134032Y77464D01*
X-134437Y77582D01*
X-134840Y77709D01*
X-135239Y77847D01*
X-135635Y77994D01*
X-136027Y78151D01*
X-136415Y78317D01*
X-136799Y78493D01*
X-137179Y78678D01*
X-137553Y78873D01*
X-137923Y79076D01*
X-138288Y79289D01*
X-138648Y79510D01*
X-139002Y79741D01*
X-139350Y79979D01*
X-139692Y80227D01*
X-140028Y80482D01*
X-140358Y80746D01*
X-140681Y81018D01*
X-140997Y81298D01*
X-141307Y81585D01*
X-141609Y81880D01*
X-141904Y82182D01*
X-142191Y82492D01*
X-142471Y82808D01*
X-142743Y83131D01*
X-143007Y83461D01*
X-143262Y83797D01*
X-143510Y84139D01*
X-143748Y84487D01*
X-143979Y84841D01*
X-144200Y85201D01*
X-144413Y85566D01*
X-144616Y85936D01*
X-144811Y86310D01*
X-144996Y86690D01*
X-145172Y87074D01*
X-145338Y87462D01*
X-145495Y87854D01*
X-145642Y88250D01*
X-145780Y88649D01*
X-145907Y89052D01*
X-146025Y89457D01*
X-146132Y89866D01*
X-146230Y90276D01*
X-146317Y90689D01*
X-146395Y91105D01*
X-146462Y91522D01*
X-146519Y91940D01*
X-146565Y92360D01*
X-146601Y92780D01*
X-146627Y93202D01*
X-146643Y93624D01*
X-146648Y94046D01*
M02*
