G04 EAGLE Gerber RS-274X export*
G75*
%MOMM*%
%FSLAX34Y34*%
%LPD*%
%INSilkscreen Bottom*%
%IPPOS*%
%AMOC8*
5,1,8,0,0,1.08239X$1,22.5*%
G01*
%ADD10C,0.101600*%
%ADD11C,0.254000*%
%ADD12C,0.203200*%
%ADD13C,0.127000*%
%ADD14C,0.076200*%


D10*
X-171648Y50828D02*
X-170180Y52663D01*
X-176784Y52663D01*
X-176784Y54497D02*
X-176784Y50828D01*
X-170180Y59704D02*
X-170182Y59783D01*
X-170187Y59861D01*
X-170197Y59939D01*
X-170210Y60016D01*
X-170227Y60093D01*
X-170247Y60169D01*
X-170271Y60244D01*
X-170298Y60318D01*
X-170329Y60390D01*
X-170364Y60461D01*
X-170401Y60530D01*
X-170442Y60597D01*
X-170486Y60662D01*
X-170533Y60725D01*
X-170583Y60785D01*
X-170636Y60843D01*
X-170692Y60899D01*
X-170750Y60952D01*
X-170810Y61002D01*
X-170873Y61049D01*
X-170938Y61093D01*
X-171006Y61134D01*
X-171074Y61171D01*
X-171145Y61206D01*
X-171217Y61237D01*
X-171291Y61264D01*
X-171366Y61288D01*
X-171442Y61308D01*
X-171519Y61325D01*
X-171596Y61338D01*
X-171674Y61348D01*
X-171752Y61353D01*
X-171831Y61355D01*
X-170180Y59704D02*
X-170182Y59615D01*
X-170187Y59526D01*
X-170197Y59438D01*
X-170210Y59350D01*
X-170226Y59263D01*
X-170247Y59176D01*
X-170271Y59091D01*
X-170298Y59006D01*
X-170329Y58923D01*
X-170364Y58841D01*
X-170402Y58760D01*
X-170443Y58681D01*
X-170487Y58605D01*
X-170535Y58529D01*
X-170586Y58456D01*
X-170639Y58386D01*
X-170696Y58317D01*
X-170756Y58251D01*
X-170818Y58188D01*
X-170883Y58127D01*
X-170950Y58069D01*
X-171020Y58014D01*
X-171092Y57961D01*
X-171166Y57912D01*
X-171242Y57866D01*
X-171320Y57824D01*
X-171400Y57784D01*
X-171481Y57748D01*
X-171564Y57715D01*
X-171648Y57686D01*
X-173115Y60805D02*
X-173059Y60861D01*
X-173000Y60915D01*
X-172939Y60966D01*
X-172875Y61015D01*
X-172810Y61060D01*
X-172742Y61103D01*
X-172673Y61142D01*
X-172602Y61179D01*
X-172529Y61212D01*
X-172455Y61241D01*
X-172380Y61268D01*
X-172304Y61291D01*
X-172226Y61310D01*
X-172148Y61326D01*
X-172070Y61339D01*
X-171990Y61348D01*
X-171911Y61353D01*
X-171831Y61355D01*
X-173115Y60805D02*
X-176784Y57686D01*
X-176784Y61355D01*
X-176784Y66379D02*
X-170180Y64177D01*
X-170180Y68580D02*
X-176784Y66379D01*
X-204611Y53950D02*
X-204611Y52849D01*
X-204611Y53950D02*
X-208280Y53950D01*
X-208280Y51748D01*
X-208278Y51674D01*
X-208272Y51599D01*
X-208263Y51526D01*
X-208250Y51452D01*
X-208233Y51380D01*
X-208213Y51309D01*
X-208189Y51238D01*
X-208161Y51169D01*
X-208130Y51102D01*
X-208096Y51036D01*
X-208058Y50971D01*
X-208017Y50909D01*
X-207973Y50849D01*
X-207926Y50792D01*
X-207876Y50737D01*
X-207823Y50684D01*
X-207768Y50634D01*
X-207711Y50587D01*
X-207651Y50543D01*
X-207589Y50502D01*
X-207524Y50464D01*
X-207459Y50430D01*
X-207391Y50399D01*
X-207322Y50371D01*
X-207251Y50347D01*
X-207180Y50327D01*
X-207108Y50310D01*
X-207034Y50297D01*
X-206961Y50288D01*
X-206886Y50282D01*
X-206812Y50280D01*
X-206812Y50281D02*
X-203144Y50281D01*
X-203144Y50280D02*
X-203070Y50282D01*
X-202995Y50288D01*
X-202922Y50297D01*
X-202848Y50310D01*
X-202776Y50327D01*
X-202705Y50347D01*
X-202634Y50371D01*
X-202565Y50399D01*
X-202498Y50430D01*
X-202432Y50464D01*
X-202367Y50502D01*
X-202305Y50543D01*
X-202245Y50587D01*
X-202188Y50634D01*
X-202133Y50684D01*
X-202080Y50737D01*
X-202030Y50792D01*
X-201983Y50849D01*
X-201939Y50909D01*
X-201898Y50971D01*
X-201860Y51036D01*
X-201826Y51101D01*
X-201795Y51169D01*
X-201767Y51238D01*
X-201743Y51309D01*
X-201723Y51380D01*
X-201706Y51452D01*
X-201693Y51526D01*
X-201684Y51599D01*
X-201678Y51674D01*
X-201676Y51748D01*
X-201676Y53950D01*
X-201676Y57596D02*
X-208280Y57596D01*
X-208280Y61265D02*
X-201676Y57596D01*
X-201676Y61265D02*
X-208280Y61265D01*
X-208280Y64911D02*
X-201676Y64911D01*
X-201676Y66746D01*
X-201678Y66831D01*
X-201684Y66915D01*
X-201694Y66999D01*
X-201707Y67083D01*
X-201725Y67166D01*
X-201746Y67248D01*
X-201771Y67329D01*
X-201800Y67409D01*
X-201832Y67487D01*
X-201868Y67563D01*
X-201908Y67638D01*
X-201951Y67711D01*
X-201997Y67782D01*
X-202046Y67851D01*
X-202099Y67918D01*
X-202155Y67982D01*
X-202213Y68043D01*
X-202274Y68101D01*
X-202338Y68157D01*
X-202405Y68210D01*
X-202474Y68259D01*
X-202545Y68305D01*
X-202618Y68348D01*
X-202693Y68388D01*
X-202769Y68424D01*
X-202848Y68456D01*
X-202927Y68485D01*
X-203008Y68510D01*
X-203090Y68531D01*
X-203173Y68549D01*
X-203257Y68562D01*
X-203341Y68572D01*
X-203425Y68578D01*
X-203510Y68580D01*
X-206446Y68580D01*
X-206531Y68578D01*
X-206615Y68572D01*
X-206699Y68562D01*
X-206783Y68549D01*
X-206866Y68531D01*
X-206948Y68510D01*
X-207029Y68485D01*
X-207109Y68456D01*
X-207187Y68424D01*
X-207263Y68388D01*
X-207338Y68348D01*
X-207411Y68305D01*
X-207482Y68259D01*
X-207551Y68210D01*
X-207618Y68157D01*
X-207682Y68101D01*
X-207743Y68043D01*
X-207801Y67982D01*
X-207857Y67918D01*
X-207910Y67851D01*
X-207959Y67782D01*
X-208005Y67711D01*
X-208048Y67638D01*
X-208088Y67563D01*
X-208124Y67487D01*
X-208156Y67409D01*
X-208185Y67329D01*
X-208210Y67248D01*
X-208231Y67166D01*
X-208249Y67083D01*
X-208262Y66999D01*
X-208272Y66915D01*
X-208278Y66831D01*
X-208280Y66746D01*
X-208280Y64911D01*
D11*
X-260900Y45050D02*
X-260900Y-6950D01*
X-193900Y-6950D01*
X-182900Y-6950D02*
X-166900Y-6950D01*
X-166900Y45050D01*
X-260900Y45050D01*
X-247900Y52050D02*
X-248238Y52274D01*
X-248571Y52506D01*
X-248899Y52745D01*
X-249220Y52993D01*
X-249535Y53248D01*
X-249844Y53511D01*
X-250146Y53782D01*
X-250442Y54060D01*
X-250731Y54345D01*
X-251013Y54636D01*
X-251287Y54935D01*
X-251555Y55240D01*
X-251814Y55552D01*
X-252066Y55870D01*
X-252311Y56194D01*
X-252547Y56524D01*
X-252775Y56859D01*
X-252995Y57200D01*
X-253206Y57546D01*
X-253409Y57897D01*
X-253604Y58254D01*
X-253790Y58614D01*
X-253966Y58979D01*
X-254134Y59349D01*
X-254293Y59722D01*
X-254443Y60099D01*
X-254583Y60480D01*
X-254714Y60864D01*
X-254836Y61251D01*
X-254948Y61641D01*
X-255051Y62033D01*
X-255144Y62428D01*
X-255228Y62825D01*
X-255301Y63224D01*
X-255365Y63624D01*
X-255420Y64026D01*
X-255464Y64430D01*
X-255499Y64834D01*
X-255523Y65239D01*
X-255538Y65644D01*
X-255543Y66050D01*
X-255538Y66456D01*
X-255523Y66861D01*
X-255499Y67266D01*
X-255464Y67670D01*
X-255420Y68074D01*
X-255365Y68476D01*
X-255301Y68876D01*
X-255228Y69275D01*
X-255144Y69672D01*
X-255051Y70067D01*
X-254948Y70459D01*
X-254836Y70849D01*
X-254714Y71236D01*
X-254583Y71620D01*
X-254443Y72001D01*
X-254293Y72378D01*
X-254134Y72751D01*
X-253966Y73121D01*
X-253790Y73486D01*
X-253604Y73846D01*
X-253409Y74203D01*
X-253206Y74554D01*
X-252995Y74900D01*
X-252775Y75241D01*
X-252547Y75576D01*
X-252311Y75906D01*
X-252066Y76230D01*
X-251814Y76548D01*
X-251555Y76860D01*
X-251287Y77165D01*
X-251013Y77464D01*
X-250731Y77755D01*
X-250442Y78040D01*
X-250146Y78318D01*
X-249844Y78589D01*
X-249535Y78852D01*
X-249220Y79107D01*
X-248899Y79355D01*
X-248571Y79594D01*
X-248238Y79826D01*
X-247900Y80050D01*
X-229900Y80050D02*
X-229562Y79826D01*
X-229229Y79594D01*
X-228901Y79355D01*
X-228580Y79107D01*
X-228265Y78852D01*
X-227956Y78589D01*
X-227654Y78318D01*
X-227358Y78040D01*
X-227069Y77755D01*
X-226787Y77464D01*
X-226513Y77165D01*
X-226245Y76860D01*
X-225986Y76548D01*
X-225734Y76230D01*
X-225489Y75906D01*
X-225253Y75576D01*
X-225025Y75241D01*
X-224805Y74900D01*
X-224594Y74554D01*
X-224391Y74203D01*
X-224196Y73846D01*
X-224010Y73486D01*
X-223834Y73121D01*
X-223666Y72751D01*
X-223507Y72378D01*
X-223357Y72001D01*
X-223217Y71620D01*
X-223086Y71236D01*
X-222964Y70849D01*
X-222852Y70459D01*
X-222749Y70067D01*
X-222656Y69672D01*
X-222572Y69275D01*
X-222499Y68876D01*
X-222435Y68476D01*
X-222380Y68074D01*
X-222336Y67670D01*
X-222301Y67266D01*
X-222277Y66861D01*
X-222262Y66456D01*
X-222257Y66050D01*
X-222262Y65644D01*
X-222277Y65239D01*
X-222301Y64834D01*
X-222336Y64430D01*
X-222380Y64026D01*
X-222435Y63624D01*
X-222499Y63224D01*
X-222572Y62825D01*
X-222656Y62428D01*
X-222749Y62033D01*
X-222852Y61641D01*
X-222964Y61251D01*
X-223086Y60864D01*
X-223217Y60480D01*
X-223357Y60099D01*
X-223507Y59722D01*
X-223666Y59349D01*
X-223834Y58979D01*
X-224010Y58614D01*
X-224196Y58254D01*
X-224391Y57897D01*
X-224594Y57546D01*
X-224805Y57200D01*
X-225025Y56859D01*
X-225253Y56524D01*
X-225489Y56194D01*
X-225734Y55870D01*
X-225986Y55552D01*
X-226245Y55240D01*
X-226513Y54935D01*
X-226787Y54636D01*
X-227069Y54345D01*
X-227358Y54060D01*
X-227654Y53782D01*
X-227956Y53511D01*
X-228265Y53248D01*
X-228580Y52993D01*
X-228901Y52745D01*
X-229229Y52506D01*
X-229562Y52274D01*
X-229900Y52050D01*
X-229900Y80050D02*
X-247900Y80050D01*
X-248900Y53050D02*
X-248900Y46050D01*
X-228900Y46050D02*
X-228900Y53050D01*
X-229900Y-13950D02*
X-229562Y-14174D01*
X-229229Y-14406D01*
X-228901Y-14645D01*
X-228580Y-14893D01*
X-228265Y-15148D01*
X-227956Y-15411D01*
X-227654Y-15682D01*
X-227358Y-15960D01*
X-227069Y-16245D01*
X-226787Y-16536D01*
X-226513Y-16835D01*
X-226245Y-17140D01*
X-225986Y-17452D01*
X-225734Y-17770D01*
X-225489Y-18094D01*
X-225253Y-18424D01*
X-225025Y-18759D01*
X-224805Y-19100D01*
X-224594Y-19446D01*
X-224391Y-19797D01*
X-224196Y-20154D01*
X-224010Y-20514D01*
X-223834Y-20879D01*
X-223666Y-21249D01*
X-223507Y-21622D01*
X-223357Y-21999D01*
X-223217Y-22380D01*
X-223086Y-22764D01*
X-222964Y-23151D01*
X-222852Y-23541D01*
X-222749Y-23933D01*
X-222656Y-24328D01*
X-222572Y-24725D01*
X-222499Y-25124D01*
X-222435Y-25524D01*
X-222380Y-25926D01*
X-222336Y-26330D01*
X-222301Y-26734D01*
X-222277Y-27139D01*
X-222262Y-27544D01*
X-222257Y-27950D01*
X-222262Y-28356D01*
X-222277Y-28761D01*
X-222301Y-29166D01*
X-222336Y-29570D01*
X-222380Y-29974D01*
X-222435Y-30376D01*
X-222499Y-30776D01*
X-222572Y-31175D01*
X-222656Y-31572D01*
X-222749Y-31967D01*
X-222852Y-32359D01*
X-222964Y-32749D01*
X-223086Y-33136D01*
X-223217Y-33520D01*
X-223357Y-33901D01*
X-223507Y-34278D01*
X-223666Y-34651D01*
X-223834Y-35021D01*
X-224010Y-35386D01*
X-224196Y-35746D01*
X-224391Y-36103D01*
X-224594Y-36454D01*
X-224805Y-36800D01*
X-225025Y-37141D01*
X-225253Y-37476D01*
X-225489Y-37806D01*
X-225734Y-38130D01*
X-225986Y-38448D01*
X-226245Y-38760D01*
X-226513Y-39065D01*
X-226787Y-39364D01*
X-227069Y-39655D01*
X-227358Y-39940D01*
X-227654Y-40218D01*
X-227956Y-40489D01*
X-228265Y-40752D01*
X-228580Y-41007D01*
X-228901Y-41255D01*
X-229229Y-41494D01*
X-229562Y-41726D01*
X-229900Y-41950D01*
X-247900Y-41950D02*
X-248238Y-41726D01*
X-248571Y-41494D01*
X-248899Y-41255D01*
X-249220Y-41007D01*
X-249535Y-40752D01*
X-249844Y-40489D01*
X-250146Y-40218D01*
X-250442Y-39940D01*
X-250731Y-39655D01*
X-251013Y-39364D01*
X-251287Y-39065D01*
X-251555Y-38760D01*
X-251814Y-38448D01*
X-252066Y-38130D01*
X-252311Y-37806D01*
X-252547Y-37476D01*
X-252775Y-37141D01*
X-252995Y-36800D01*
X-253206Y-36454D01*
X-253409Y-36103D01*
X-253604Y-35746D01*
X-253790Y-35386D01*
X-253966Y-35021D01*
X-254134Y-34651D01*
X-254293Y-34278D01*
X-254443Y-33901D01*
X-254583Y-33520D01*
X-254714Y-33136D01*
X-254836Y-32749D01*
X-254948Y-32359D01*
X-255051Y-31967D01*
X-255144Y-31572D01*
X-255228Y-31175D01*
X-255301Y-30776D01*
X-255365Y-30376D01*
X-255420Y-29974D01*
X-255464Y-29570D01*
X-255499Y-29166D01*
X-255523Y-28761D01*
X-255538Y-28356D01*
X-255543Y-27950D01*
X-255538Y-27544D01*
X-255523Y-27139D01*
X-255499Y-26734D01*
X-255464Y-26330D01*
X-255420Y-25926D01*
X-255365Y-25524D01*
X-255301Y-25124D01*
X-255228Y-24725D01*
X-255144Y-24328D01*
X-255051Y-23933D01*
X-254948Y-23541D01*
X-254836Y-23151D01*
X-254714Y-22764D01*
X-254583Y-22380D01*
X-254443Y-21999D01*
X-254293Y-21622D01*
X-254134Y-21249D01*
X-253966Y-20879D01*
X-253790Y-20514D01*
X-253604Y-20154D01*
X-253409Y-19797D01*
X-253206Y-19446D01*
X-252995Y-19100D01*
X-252775Y-18759D01*
X-252547Y-18424D01*
X-252311Y-18094D01*
X-252066Y-17770D01*
X-251814Y-17452D01*
X-251555Y-17140D01*
X-251287Y-16835D01*
X-251013Y-16536D01*
X-250731Y-16245D01*
X-250442Y-15960D01*
X-250146Y-15682D01*
X-249844Y-15411D01*
X-249535Y-15148D01*
X-249220Y-14893D01*
X-248899Y-14645D01*
X-248571Y-14406D01*
X-248238Y-14174D01*
X-247900Y-13950D01*
X-247900Y-41950D02*
X-229900Y-41950D01*
X-228900Y-14950D02*
X-228900Y-7950D01*
X-248900Y-7950D02*
X-248900Y-14950D01*
X-193900Y-6950D02*
X-193898Y-7098D01*
X-193892Y-7245D01*
X-193882Y-7393D01*
X-193868Y-7540D01*
X-193851Y-7686D01*
X-193829Y-7832D01*
X-193803Y-7978D01*
X-193774Y-8122D01*
X-193740Y-8266D01*
X-193703Y-8409D01*
X-193662Y-8551D01*
X-193617Y-8692D01*
X-193568Y-8831D01*
X-193516Y-8969D01*
X-193460Y-9106D01*
X-193400Y-9241D01*
X-193337Y-9374D01*
X-193270Y-9506D01*
X-193200Y-9636D01*
X-193126Y-9764D01*
X-193049Y-9890D01*
X-192968Y-10013D01*
X-192884Y-10135D01*
X-192797Y-10254D01*
X-192707Y-10371D01*
X-192613Y-10485D01*
X-192517Y-10597D01*
X-192417Y-10706D01*
X-192315Y-10813D01*
X-192210Y-10917D01*
X-192102Y-11017D01*
X-191992Y-11115D01*
X-191878Y-11210D01*
X-191763Y-11302D01*
X-191645Y-11391D01*
X-191524Y-11476D01*
X-191402Y-11559D01*
X-191277Y-11638D01*
X-191150Y-11713D01*
X-191021Y-11785D01*
X-190890Y-11854D01*
X-190758Y-11919D01*
X-190624Y-11980D01*
X-190488Y-12038D01*
X-190350Y-12093D01*
X-190212Y-12143D01*
X-190071Y-12190D01*
X-189930Y-12233D01*
X-189788Y-12272D01*
X-189644Y-12307D01*
X-189500Y-12339D01*
X-189355Y-12366D01*
X-189209Y-12390D01*
X-189063Y-12410D01*
X-188916Y-12426D01*
X-188769Y-12438D01*
X-188621Y-12446D01*
X-188474Y-12450D01*
X-188326Y-12450D01*
X-188179Y-12446D01*
X-188031Y-12438D01*
X-187884Y-12426D01*
X-187737Y-12410D01*
X-187591Y-12390D01*
X-187445Y-12366D01*
X-187300Y-12339D01*
X-187156Y-12307D01*
X-187012Y-12272D01*
X-186870Y-12233D01*
X-186729Y-12190D01*
X-186588Y-12143D01*
X-186450Y-12093D01*
X-186312Y-12038D01*
X-186176Y-11980D01*
X-186042Y-11919D01*
X-185910Y-11854D01*
X-185779Y-11785D01*
X-185650Y-11713D01*
X-185523Y-11638D01*
X-185398Y-11559D01*
X-185276Y-11476D01*
X-185155Y-11391D01*
X-185037Y-11302D01*
X-184922Y-11210D01*
X-184808Y-11115D01*
X-184698Y-11017D01*
X-184590Y-10917D01*
X-184485Y-10813D01*
X-184383Y-10706D01*
X-184283Y-10597D01*
X-184187Y-10485D01*
X-184093Y-10371D01*
X-184003Y-10254D01*
X-183916Y-10135D01*
X-183832Y-10013D01*
X-183751Y-9890D01*
X-183674Y-9764D01*
X-183600Y-9636D01*
X-183530Y-9506D01*
X-183463Y-9374D01*
X-183400Y-9241D01*
X-183340Y-9106D01*
X-183284Y-8969D01*
X-183232Y-8831D01*
X-183183Y-8692D01*
X-183138Y-8551D01*
X-183097Y-8409D01*
X-183060Y-8266D01*
X-183026Y-8122D01*
X-182997Y-7978D01*
X-182971Y-7832D01*
X-182949Y-7686D01*
X-182932Y-7540D01*
X-182918Y-7393D01*
X-182908Y-7245D01*
X-182902Y-7098D01*
X-182900Y-6950D01*
X-279781Y-8410D02*
X-282039Y-11232D01*
X-279781Y-8410D02*
X-289941Y-8410D01*
X-289941Y-11232D02*
X-289941Y-5588D01*
X-279781Y3302D02*
X-279783Y3402D01*
X-279789Y3501D01*
X-279799Y3601D01*
X-279812Y3699D01*
X-279830Y3798D01*
X-279851Y3895D01*
X-279876Y3991D01*
X-279905Y4087D01*
X-279938Y4181D01*
X-279974Y4274D01*
X-280014Y4365D01*
X-280058Y4455D01*
X-280105Y4543D01*
X-280155Y4629D01*
X-280209Y4713D01*
X-280266Y4795D01*
X-280326Y4874D01*
X-280390Y4952D01*
X-280456Y5026D01*
X-280525Y5098D01*
X-280597Y5167D01*
X-280671Y5233D01*
X-280749Y5297D01*
X-280828Y5357D01*
X-280910Y5414D01*
X-280994Y5468D01*
X-281080Y5518D01*
X-281168Y5565D01*
X-281258Y5609D01*
X-281349Y5649D01*
X-281442Y5685D01*
X-281536Y5718D01*
X-281632Y5747D01*
X-281728Y5772D01*
X-281825Y5793D01*
X-281924Y5811D01*
X-282022Y5824D01*
X-282122Y5834D01*
X-282221Y5840D01*
X-282321Y5842D01*
X-279781Y3302D02*
X-279783Y3191D01*
X-279789Y3080D01*
X-279798Y2970D01*
X-279811Y2860D01*
X-279828Y2750D01*
X-279849Y2641D01*
X-279873Y2533D01*
X-279901Y2426D01*
X-279932Y2319D01*
X-279968Y2214D01*
X-280006Y2110D01*
X-280049Y2008D01*
X-280094Y1907D01*
X-280144Y1807D01*
X-280196Y1710D01*
X-280252Y1614D01*
X-280311Y1520D01*
X-280373Y1428D01*
X-280438Y1338D01*
X-280506Y1251D01*
X-280578Y1166D01*
X-280652Y1083D01*
X-280728Y1003D01*
X-280808Y926D01*
X-280890Y851D01*
X-280974Y779D01*
X-281061Y710D01*
X-281150Y645D01*
X-281242Y582D01*
X-281335Y522D01*
X-281431Y466D01*
X-281528Y412D01*
X-281627Y363D01*
X-281728Y316D01*
X-281830Y273D01*
X-281934Y234D01*
X-282039Y198D01*
X-284296Y4995D02*
X-284226Y5067D01*
X-284153Y5136D01*
X-284077Y5202D01*
X-283999Y5265D01*
X-283919Y5325D01*
X-283836Y5382D01*
X-283752Y5437D01*
X-283665Y5488D01*
X-283577Y5536D01*
X-283487Y5580D01*
X-283396Y5621D01*
X-283303Y5659D01*
X-283208Y5694D01*
X-283113Y5725D01*
X-283016Y5752D01*
X-282919Y5776D01*
X-282820Y5796D01*
X-282721Y5812D01*
X-282622Y5825D01*
X-282522Y5835D01*
X-282421Y5840D01*
X-282321Y5842D01*
X-284297Y4995D02*
X-289941Y198D01*
X-289941Y5842D01*
X-289941Y14450D02*
X-279781Y11063D01*
X-279781Y17836D02*
X-289941Y14450D01*
X-291070Y22479D02*
X-291070Y26995D01*
X-289941Y32738D02*
X-279781Y32738D01*
X-289941Y31609D02*
X-289941Y33867D01*
X-279781Y33867D02*
X-279781Y31609D01*
X-279781Y39441D02*
X-289941Y39441D01*
X-289941Y45085D02*
X-279781Y39441D01*
X-279781Y45085D02*
X-289941Y45085D01*
D10*
X29059Y-63888D02*
X29059Y-75572D01*
X29059Y-63888D02*
X25813Y-63888D01*
X25813Y-63887D02*
X25700Y-63889D01*
X25587Y-63895D01*
X25474Y-63905D01*
X25361Y-63919D01*
X25249Y-63936D01*
X25138Y-63958D01*
X25028Y-63983D01*
X24918Y-64013D01*
X24810Y-64046D01*
X24703Y-64083D01*
X24597Y-64123D01*
X24493Y-64168D01*
X24390Y-64216D01*
X24289Y-64267D01*
X24190Y-64322D01*
X24093Y-64380D01*
X23998Y-64442D01*
X23905Y-64507D01*
X23815Y-64575D01*
X23727Y-64646D01*
X23641Y-64721D01*
X23558Y-64798D01*
X23478Y-64878D01*
X23401Y-64961D01*
X23326Y-65047D01*
X23255Y-65135D01*
X23187Y-65225D01*
X23122Y-65318D01*
X23060Y-65413D01*
X23002Y-65510D01*
X22947Y-65609D01*
X22896Y-65710D01*
X22848Y-65813D01*
X22803Y-65917D01*
X22763Y-66023D01*
X22726Y-66130D01*
X22693Y-66238D01*
X22663Y-66348D01*
X22638Y-66458D01*
X22616Y-66569D01*
X22599Y-66681D01*
X22585Y-66794D01*
X22575Y-66907D01*
X22569Y-67020D01*
X22567Y-67133D01*
X22569Y-67246D01*
X22575Y-67359D01*
X22585Y-67472D01*
X22599Y-67585D01*
X22616Y-67697D01*
X22638Y-67808D01*
X22663Y-67918D01*
X22693Y-68028D01*
X22726Y-68136D01*
X22763Y-68243D01*
X22803Y-68349D01*
X22848Y-68453D01*
X22896Y-68556D01*
X22947Y-68657D01*
X23002Y-68756D01*
X23060Y-68853D01*
X23122Y-68948D01*
X23187Y-69041D01*
X23255Y-69131D01*
X23326Y-69219D01*
X23401Y-69305D01*
X23478Y-69388D01*
X23558Y-69468D01*
X23641Y-69545D01*
X23727Y-69620D01*
X23815Y-69691D01*
X23905Y-69759D01*
X23998Y-69824D01*
X24093Y-69886D01*
X24190Y-69944D01*
X24289Y-69999D01*
X24390Y-70050D01*
X24493Y-70098D01*
X24597Y-70143D01*
X24703Y-70183D01*
X24810Y-70220D01*
X24918Y-70253D01*
X25028Y-70283D01*
X25138Y-70308D01*
X25249Y-70330D01*
X25361Y-70347D01*
X25474Y-70361D01*
X25587Y-70371D01*
X25700Y-70377D01*
X25813Y-70379D01*
X29059Y-70379D01*
X25164Y-70379D02*
X22568Y-75572D01*
X17702Y-66484D02*
X14457Y-63888D01*
X14457Y-75572D01*
X17702Y-75572D02*
X11211Y-75572D01*
X6273Y-69730D02*
X6270Y-69500D01*
X6262Y-69270D01*
X6248Y-69041D01*
X6229Y-68812D01*
X6204Y-68583D01*
X6174Y-68355D01*
X6139Y-68128D01*
X6098Y-67902D01*
X6052Y-67677D01*
X6000Y-67453D01*
X5943Y-67230D01*
X5881Y-67009D01*
X5813Y-66789D01*
X5740Y-66571D01*
X5662Y-66355D01*
X5579Y-66141D01*
X5491Y-65929D01*
X5398Y-65718D01*
X5299Y-65511D01*
X5299Y-65510D02*
X5266Y-65420D01*
X5230Y-65331D01*
X5190Y-65243D01*
X5146Y-65158D01*
X5099Y-65074D01*
X5049Y-64992D01*
X4995Y-64912D01*
X4939Y-64835D01*
X4879Y-64759D01*
X4816Y-64686D01*
X4751Y-64616D01*
X4682Y-64548D01*
X4611Y-64484D01*
X4538Y-64422D01*
X4462Y-64363D01*
X4384Y-64307D01*
X4303Y-64254D01*
X4221Y-64205D01*
X4137Y-64159D01*
X4050Y-64116D01*
X3963Y-64077D01*
X3873Y-64041D01*
X3783Y-64009D01*
X3691Y-63981D01*
X3598Y-63956D01*
X3504Y-63935D01*
X3410Y-63918D01*
X3315Y-63904D01*
X3219Y-63895D01*
X3123Y-63889D01*
X3027Y-63887D01*
X2931Y-63889D01*
X2835Y-63895D01*
X2739Y-63904D01*
X2644Y-63918D01*
X2550Y-63935D01*
X2456Y-63956D01*
X2363Y-63981D01*
X2271Y-64009D01*
X2181Y-64041D01*
X2091Y-64077D01*
X2004Y-64116D01*
X1917Y-64159D01*
X1833Y-64205D01*
X1751Y-64254D01*
X1670Y-64307D01*
X1592Y-64363D01*
X1516Y-64422D01*
X1443Y-64484D01*
X1372Y-64548D01*
X1303Y-64616D01*
X1238Y-64686D01*
X1175Y-64759D01*
X1115Y-64835D01*
X1059Y-64912D01*
X1005Y-64992D01*
X955Y-65074D01*
X908Y-65158D01*
X864Y-65243D01*
X824Y-65331D01*
X788Y-65420D01*
X755Y-65510D01*
X755Y-65511D02*
X656Y-65718D01*
X563Y-65929D01*
X475Y-66141D01*
X392Y-66355D01*
X314Y-66571D01*
X241Y-66789D01*
X173Y-67009D01*
X111Y-67230D01*
X54Y-67453D01*
X2Y-67677D01*
X-44Y-67902D01*
X-85Y-68128D01*
X-120Y-68355D01*
X-150Y-68583D01*
X-175Y-68812D01*
X-194Y-69041D01*
X-208Y-69270D01*
X-216Y-69500D01*
X-219Y-69730D01*
X6273Y-69730D02*
X6270Y-69960D01*
X6262Y-70190D01*
X6248Y-70419D01*
X6229Y-70648D01*
X6204Y-70877D01*
X6174Y-71105D01*
X6139Y-71332D01*
X6098Y-71558D01*
X6052Y-71783D01*
X6000Y-72007D01*
X5943Y-72230D01*
X5881Y-72451D01*
X5813Y-72671D01*
X5740Y-72889D01*
X5662Y-73105D01*
X5579Y-73319D01*
X5491Y-73531D01*
X5398Y-73742D01*
X5299Y-73949D01*
X5266Y-74039D01*
X5230Y-74128D01*
X5189Y-74216D01*
X5146Y-74301D01*
X5099Y-74385D01*
X5049Y-74467D01*
X4995Y-74547D01*
X4939Y-74624D01*
X4879Y-74700D01*
X4816Y-74773D01*
X4751Y-74843D01*
X4682Y-74911D01*
X4611Y-74975D01*
X4538Y-75037D01*
X4462Y-75096D01*
X4384Y-75152D01*
X4303Y-75205D01*
X4221Y-75254D01*
X4137Y-75300D01*
X4050Y-75343D01*
X3963Y-75382D01*
X3873Y-75418D01*
X3783Y-75450D01*
X3691Y-75478D01*
X3598Y-75503D01*
X3504Y-75524D01*
X3410Y-75541D01*
X3315Y-75555D01*
X3219Y-75564D01*
X3123Y-75570D01*
X3027Y-75572D01*
X755Y-73949D02*
X656Y-73742D01*
X563Y-73531D01*
X475Y-73319D01*
X392Y-73105D01*
X314Y-72889D01*
X241Y-72671D01*
X173Y-72451D01*
X111Y-72230D01*
X54Y-72007D01*
X2Y-71783D01*
X-44Y-71558D01*
X-85Y-71332D01*
X-120Y-71105D01*
X-150Y-70877D01*
X-175Y-70648D01*
X-194Y-70419D01*
X-208Y-70190D01*
X-216Y-69960D01*
X-219Y-69730D01*
X755Y-73949D02*
X788Y-74039D01*
X824Y-74128D01*
X865Y-74216D01*
X908Y-74301D01*
X955Y-74385D01*
X1005Y-74467D01*
X1059Y-74547D01*
X1115Y-74625D01*
X1175Y-74700D01*
X1238Y-74773D01*
X1303Y-74843D01*
X1372Y-74911D01*
X1443Y-74975D01*
X1516Y-75037D01*
X1592Y-75096D01*
X1670Y-75152D01*
X1751Y-75205D01*
X1833Y-75254D01*
X1917Y-75300D01*
X2004Y-75343D01*
X2091Y-75382D01*
X2181Y-75418D01*
X2271Y-75450D01*
X2363Y-75478D01*
X2456Y-75503D01*
X2550Y-75524D01*
X2644Y-75541D01*
X2739Y-75555D01*
X2835Y-75564D01*
X2931Y-75570D01*
X3027Y-75572D01*
X5623Y-72975D02*
X430Y-66484D01*
X-16602Y-117976D02*
X-14005Y-127064D01*
X-20496Y-127064D01*
X-18549Y-124468D02*
X-18549Y-129660D01*
X-24927Y-129660D02*
X-24927Y-129011D01*
X-25576Y-129011D01*
X-25576Y-129660D01*
X-24927Y-129660D01*
X-30007Y-119275D02*
X-30007Y-117976D01*
X-36498Y-117976D01*
X-33253Y-129660D01*
X-41841Y-129660D02*
X-41841Y-117976D01*
X-47034Y-121871D02*
X-41841Y-125766D01*
X-44113Y-124143D02*
X-47034Y-129660D01*
X28651Y-104203D02*
X28651Y-92519D01*
X25405Y-92519D01*
X25292Y-92521D01*
X25179Y-92527D01*
X25066Y-92537D01*
X24953Y-92551D01*
X24841Y-92568D01*
X24730Y-92590D01*
X24620Y-92615D01*
X24510Y-92645D01*
X24402Y-92678D01*
X24295Y-92715D01*
X24189Y-92755D01*
X24085Y-92800D01*
X23982Y-92848D01*
X23881Y-92899D01*
X23782Y-92954D01*
X23685Y-93012D01*
X23590Y-93074D01*
X23497Y-93139D01*
X23407Y-93207D01*
X23319Y-93278D01*
X23233Y-93353D01*
X23150Y-93430D01*
X23070Y-93510D01*
X22993Y-93593D01*
X22918Y-93679D01*
X22847Y-93767D01*
X22779Y-93857D01*
X22714Y-93950D01*
X22652Y-94045D01*
X22594Y-94142D01*
X22539Y-94241D01*
X22488Y-94342D01*
X22440Y-94445D01*
X22395Y-94549D01*
X22355Y-94655D01*
X22318Y-94762D01*
X22285Y-94870D01*
X22255Y-94980D01*
X22230Y-95090D01*
X22208Y-95201D01*
X22191Y-95313D01*
X22177Y-95426D01*
X22167Y-95539D01*
X22161Y-95652D01*
X22159Y-95765D01*
X22161Y-95878D01*
X22167Y-95991D01*
X22177Y-96104D01*
X22191Y-96217D01*
X22208Y-96329D01*
X22230Y-96440D01*
X22255Y-96550D01*
X22285Y-96660D01*
X22318Y-96768D01*
X22355Y-96875D01*
X22395Y-96981D01*
X22440Y-97085D01*
X22488Y-97188D01*
X22539Y-97289D01*
X22594Y-97388D01*
X22652Y-97485D01*
X22714Y-97580D01*
X22779Y-97673D01*
X22847Y-97763D01*
X22918Y-97851D01*
X22993Y-97937D01*
X23070Y-98020D01*
X23150Y-98100D01*
X23233Y-98177D01*
X23319Y-98252D01*
X23407Y-98323D01*
X23497Y-98391D01*
X23590Y-98456D01*
X23685Y-98518D01*
X23782Y-98576D01*
X23881Y-98631D01*
X23982Y-98682D01*
X24085Y-98730D01*
X24189Y-98775D01*
X24295Y-98815D01*
X24402Y-98852D01*
X24510Y-98885D01*
X24620Y-98915D01*
X24730Y-98940D01*
X24841Y-98962D01*
X24953Y-98979D01*
X25066Y-98993D01*
X25179Y-99003D01*
X25292Y-99009D01*
X25405Y-99011D01*
X25405Y-99010D02*
X28651Y-99010D01*
X24756Y-99010D02*
X22160Y-104203D01*
X17295Y-95116D02*
X14049Y-92519D01*
X14049Y-104203D01*
X10804Y-104203D02*
X17295Y-104203D01*
X5865Y-95116D02*
X2619Y-92519D01*
X2619Y-104203D01*
X-626Y-104203D02*
X5865Y-104203D01*
D12*
X144209Y-137922D02*
X144209Y-150622D01*
X222377Y-150241D02*
X222377Y-137541D01*
D10*
X19661Y-40640D02*
X19661Y-28956D01*
X16415Y-28956D01*
X16302Y-28958D01*
X16189Y-28964D01*
X16076Y-28974D01*
X15963Y-28988D01*
X15851Y-29005D01*
X15740Y-29027D01*
X15630Y-29052D01*
X15520Y-29082D01*
X15412Y-29115D01*
X15305Y-29152D01*
X15199Y-29192D01*
X15095Y-29237D01*
X14992Y-29285D01*
X14891Y-29336D01*
X14792Y-29391D01*
X14695Y-29449D01*
X14600Y-29511D01*
X14507Y-29576D01*
X14417Y-29644D01*
X14329Y-29715D01*
X14243Y-29790D01*
X14160Y-29867D01*
X14080Y-29947D01*
X14003Y-30030D01*
X13928Y-30116D01*
X13857Y-30204D01*
X13789Y-30294D01*
X13724Y-30387D01*
X13662Y-30482D01*
X13604Y-30579D01*
X13549Y-30678D01*
X13498Y-30779D01*
X13450Y-30882D01*
X13405Y-30986D01*
X13365Y-31092D01*
X13328Y-31199D01*
X13295Y-31307D01*
X13265Y-31417D01*
X13240Y-31527D01*
X13218Y-31638D01*
X13201Y-31750D01*
X13187Y-31863D01*
X13177Y-31976D01*
X13171Y-32089D01*
X13169Y-32202D01*
X13171Y-32315D01*
X13177Y-32428D01*
X13187Y-32541D01*
X13201Y-32654D01*
X13218Y-32766D01*
X13240Y-32877D01*
X13265Y-32987D01*
X13295Y-33097D01*
X13328Y-33205D01*
X13365Y-33312D01*
X13405Y-33418D01*
X13450Y-33522D01*
X13498Y-33625D01*
X13549Y-33726D01*
X13604Y-33825D01*
X13662Y-33922D01*
X13724Y-34017D01*
X13789Y-34110D01*
X13857Y-34200D01*
X13928Y-34288D01*
X14003Y-34374D01*
X14080Y-34457D01*
X14160Y-34537D01*
X14243Y-34614D01*
X14329Y-34689D01*
X14417Y-34760D01*
X14507Y-34828D01*
X14600Y-34893D01*
X14695Y-34955D01*
X14792Y-35013D01*
X14891Y-35068D01*
X14992Y-35119D01*
X15095Y-35167D01*
X15199Y-35212D01*
X15305Y-35252D01*
X15412Y-35289D01*
X15520Y-35322D01*
X15630Y-35352D01*
X15740Y-35377D01*
X15851Y-35399D01*
X15963Y-35416D01*
X16076Y-35430D01*
X16189Y-35440D01*
X16302Y-35446D01*
X16415Y-35448D01*
X16415Y-35447D02*
X19661Y-35447D01*
X15766Y-35447D02*
X13170Y-40640D01*
X8304Y-30254D02*
X8304Y-28956D01*
X1813Y-28956D01*
X5059Y-40640D01*
X-14242Y-8001D02*
X-14240Y-7894D01*
X-14234Y-7788D01*
X-14224Y-7682D01*
X-14211Y-7576D01*
X-14193Y-7470D01*
X-14172Y-7366D01*
X-14147Y-7262D01*
X-14118Y-7159D01*
X-14086Y-7058D01*
X-14049Y-6958D01*
X-14009Y-6859D01*
X-13966Y-6761D01*
X-13919Y-6665D01*
X-13868Y-6571D01*
X-13814Y-6479D01*
X-13757Y-6389D01*
X-13697Y-6301D01*
X-13633Y-6216D01*
X-13566Y-6133D01*
X-13496Y-6052D01*
X-13424Y-5974D01*
X-13348Y-5898D01*
X-13270Y-5826D01*
X-13189Y-5756D01*
X-13106Y-5689D01*
X-13021Y-5625D01*
X-12933Y-5565D01*
X-12843Y-5508D01*
X-12751Y-5454D01*
X-12657Y-5403D01*
X-12561Y-5356D01*
X-12463Y-5313D01*
X-12364Y-5273D01*
X-12264Y-5236D01*
X-12163Y-5204D01*
X-12060Y-5175D01*
X-11956Y-5150D01*
X-11852Y-5129D01*
X-11746Y-5111D01*
X-11640Y-5098D01*
X-11534Y-5088D01*
X-11428Y-5082D01*
X-11321Y-5080D01*
X-11200Y-5082D01*
X-11079Y-5088D01*
X-10959Y-5098D01*
X-10838Y-5111D01*
X-10719Y-5129D01*
X-10599Y-5150D01*
X-10481Y-5175D01*
X-10364Y-5204D01*
X-10247Y-5237D01*
X-10132Y-5273D01*
X-10018Y-5314D01*
X-9905Y-5357D01*
X-9793Y-5405D01*
X-9684Y-5456D01*
X-9576Y-5511D01*
X-9469Y-5569D01*
X-9365Y-5630D01*
X-9263Y-5695D01*
X-9163Y-5763D01*
X-9065Y-5834D01*
X-8969Y-5908D01*
X-8876Y-5985D01*
X-8786Y-6066D01*
X-8698Y-6149D01*
X-8613Y-6235D01*
X-8530Y-6324D01*
X-8451Y-6415D01*
X-8374Y-6509D01*
X-8301Y-6605D01*
X-8231Y-6703D01*
X-8164Y-6804D01*
X-8100Y-6907D01*
X-8040Y-7012D01*
X-7982Y-7119D01*
X-7929Y-7227D01*
X-7879Y-7337D01*
X-7833Y-7449D01*
X-7790Y-7562D01*
X-7751Y-7677D01*
X-13268Y-10273D02*
X-13347Y-10195D01*
X-13423Y-10115D01*
X-13496Y-10032D01*
X-13566Y-9946D01*
X-13633Y-9859D01*
X-13697Y-9768D01*
X-13757Y-9676D01*
X-13815Y-9582D01*
X-13869Y-9485D01*
X-13919Y-9387D01*
X-13966Y-9287D01*
X-14010Y-9186D01*
X-14050Y-9083D01*
X-14086Y-8978D01*
X-14118Y-8873D01*
X-14147Y-8766D01*
X-14172Y-8659D01*
X-14194Y-8550D01*
X-14211Y-8441D01*
X-14225Y-8332D01*
X-14234Y-8222D01*
X-14240Y-8111D01*
X-14242Y-8001D01*
X-13269Y-10273D02*
X-7751Y-16764D01*
X-14242Y-16764D01*
X-25672Y-8001D02*
X-25670Y-7894D01*
X-25664Y-7788D01*
X-25654Y-7682D01*
X-25641Y-7576D01*
X-25623Y-7470D01*
X-25602Y-7366D01*
X-25577Y-7262D01*
X-25548Y-7159D01*
X-25516Y-7058D01*
X-25479Y-6958D01*
X-25439Y-6859D01*
X-25396Y-6761D01*
X-25349Y-6665D01*
X-25298Y-6571D01*
X-25244Y-6479D01*
X-25187Y-6389D01*
X-25127Y-6301D01*
X-25063Y-6216D01*
X-24996Y-6133D01*
X-24926Y-6052D01*
X-24854Y-5974D01*
X-24778Y-5898D01*
X-24700Y-5826D01*
X-24619Y-5756D01*
X-24536Y-5689D01*
X-24451Y-5625D01*
X-24363Y-5565D01*
X-24273Y-5508D01*
X-24181Y-5454D01*
X-24087Y-5403D01*
X-23991Y-5356D01*
X-23893Y-5313D01*
X-23794Y-5273D01*
X-23694Y-5236D01*
X-23593Y-5204D01*
X-23490Y-5175D01*
X-23386Y-5150D01*
X-23282Y-5129D01*
X-23176Y-5111D01*
X-23070Y-5098D01*
X-22964Y-5088D01*
X-22858Y-5082D01*
X-22751Y-5080D01*
X-22630Y-5082D01*
X-22509Y-5088D01*
X-22389Y-5098D01*
X-22268Y-5111D01*
X-22149Y-5129D01*
X-22029Y-5150D01*
X-21911Y-5175D01*
X-21794Y-5204D01*
X-21677Y-5237D01*
X-21562Y-5273D01*
X-21448Y-5314D01*
X-21335Y-5357D01*
X-21223Y-5405D01*
X-21114Y-5456D01*
X-21006Y-5511D01*
X-20899Y-5569D01*
X-20795Y-5630D01*
X-20693Y-5695D01*
X-20593Y-5763D01*
X-20495Y-5834D01*
X-20399Y-5908D01*
X-20306Y-5985D01*
X-20216Y-6066D01*
X-20128Y-6149D01*
X-20043Y-6235D01*
X-19960Y-6324D01*
X-19881Y-6415D01*
X-19804Y-6509D01*
X-19731Y-6605D01*
X-19661Y-6703D01*
X-19594Y-6804D01*
X-19530Y-6907D01*
X-19470Y-7012D01*
X-19412Y-7119D01*
X-19359Y-7227D01*
X-19309Y-7337D01*
X-19263Y-7449D01*
X-19220Y-7562D01*
X-19181Y-7677D01*
X-24698Y-10273D02*
X-24777Y-10195D01*
X-24853Y-10115D01*
X-24926Y-10032D01*
X-24996Y-9946D01*
X-25063Y-9859D01*
X-25127Y-9768D01*
X-25187Y-9676D01*
X-25245Y-9582D01*
X-25299Y-9485D01*
X-25349Y-9387D01*
X-25396Y-9287D01*
X-25440Y-9186D01*
X-25480Y-9083D01*
X-25516Y-8978D01*
X-25548Y-8873D01*
X-25577Y-8766D01*
X-25602Y-8659D01*
X-25624Y-8550D01*
X-25641Y-8441D01*
X-25655Y-8332D01*
X-25664Y-8222D01*
X-25670Y-8111D01*
X-25672Y-8001D01*
X-24699Y-10273D02*
X-19181Y-16764D01*
X-25672Y-16764D01*
X-30611Y-10922D02*
X-30614Y-10692D01*
X-30622Y-10462D01*
X-30636Y-10233D01*
X-30655Y-10004D01*
X-30680Y-9775D01*
X-30710Y-9547D01*
X-30745Y-9320D01*
X-30786Y-9094D01*
X-30832Y-8869D01*
X-30884Y-8645D01*
X-30941Y-8422D01*
X-31003Y-8201D01*
X-31071Y-7981D01*
X-31144Y-7763D01*
X-31222Y-7547D01*
X-31305Y-7333D01*
X-31393Y-7121D01*
X-31486Y-6910D01*
X-31585Y-6703D01*
X-31618Y-6613D01*
X-31654Y-6524D01*
X-31694Y-6436D01*
X-31738Y-6351D01*
X-31785Y-6267D01*
X-31835Y-6185D01*
X-31889Y-6105D01*
X-31945Y-6028D01*
X-32005Y-5952D01*
X-32068Y-5879D01*
X-32133Y-5809D01*
X-32202Y-5741D01*
X-32273Y-5677D01*
X-32346Y-5615D01*
X-32422Y-5556D01*
X-32500Y-5500D01*
X-32581Y-5447D01*
X-32663Y-5398D01*
X-32747Y-5352D01*
X-32834Y-5309D01*
X-32921Y-5270D01*
X-33011Y-5234D01*
X-33101Y-5202D01*
X-33193Y-5174D01*
X-33286Y-5149D01*
X-33380Y-5128D01*
X-33474Y-5111D01*
X-33569Y-5097D01*
X-33665Y-5088D01*
X-33761Y-5082D01*
X-33857Y-5080D01*
X-33953Y-5082D01*
X-34049Y-5088D01*
X-34145Y-5097D01*
X-34240Y-5111D01*
X-34334Y-5128D01*
X-34428Y-5149D01*
X-34521Y-5174D01*
X-34613Y-5202D01*
X-34703Y-5234D01*
X-34793Y-5270D01*
X-34881Y-5309D01*
X-34967Y-5352D01*
X-35051Y-5398D01*
X-35133Y-5447D01*
X-35214Y-5500D01*
X-35292Y-5556D01*
X-35368Y-5615D01*
X-35441Y-5677D01*
X-35512Y-5741D01*
X-35581Y-5809D01*
X-35646Y-5879D01*
X-35709Y-5952D01*
X-35769Y-6028D01*
X-35825Y-6105D01*
X-35879Y-6185D01*
X-35929Y-6267D01*
X-35976Y-6351D01*
X-36020Y-6436D01*
X-36060Y-6524D01*
X-36096Y-6613D01*
X-36129Y-6703D01*
X-36128Y-6703D02*
X-36227Y-6910D01*
X-36320Y-7121D01*
X-36408Y-7333D01*
X-36491Y-7547D01*
X-36569Y-7763D01*
X-36642Y-7981D01*
X-36710Y-8201D01*
X-36772Y-8422D01*
X-36829Y-8645D01*
X-36881Y-8869D01*
X-36927Y-9094D01*
X-36968Y-9320D01*
X-37003Y-9547D01*
X-37033Y-9775D01*
X-37058Y-10004D01*
X-37077Y-10233D01*
X-37091Y-10462D01*
X-37099Y-10692D01*
X-37102Y-10922D01*
X-30611Y-10922D02*
X-30614Y-11152D01*
X-30622Y-11382D01*
X-30636Y-11611D01*
X-30655Y-11840D01*
X-30680Y-12069D01*
X-30710Y-12297D01*
X-30745Y-12524D01*
X-30786Y-12750D01*
X-30832Y-12975D01*
X-30884Y-13199D01*
X-30941Y-13422D01*
X-31003Y-13643D01*
X-31071Y-13863D01*
X-31144Y-14081D01*
X-31222Y-14297D01*
X-31305Y-14511D01*
X-31393Y-14723D01*
X-31486Y-14934D01*
X-31585Y-15141D01*
X-31618Y-15231D01*
X-31654Y-15320D01*
X-31695Y-15408D01*
X-31738Y-15493D01*
X-31785Y-15577D01*
X-31835Y-15659D01*
X-31889Y-15739D01*
X-31945Y-15816D01*
X-32005Y-15892D01*
X-32068Y-15965D01*
X-32133Y-16035D01*
X-32202Y-16103D01*
X-32273Y-16167D01*
X-32346Y-16229D01*
X-32422Y-16288D01*
X-32500Y-16344D01*
X-32581Y-16397D01*
X-32663Y-16446D01*
X-32747Y-16492D01*
X-32834Y-16535D01*
X-32921Y-16574D01*
X-33011Y-16610D01*
X-33101Y-16642D01*
X-33193Y-16670D01*
X-33286Y-16695D01*
X-33380Y-16716D01*
X-33474Y-16733D01*
X-33569Y-16747D01*
X-33665Y-16756D01*
X-33761Y-16762D01*
X-33857Y-16764D01*
X-36128Y-15141D02*
X-36227Y-14934D01*
X-36320Y-14723D01*
X-36408Y-14511D01*
X-36491Y-14297D01*
X-36569Y-14081D01*
X-36642Y-13863D01*
X-36710Y-13643D01*
X-36772Y-13422D01*
X-36829Y-13199D01*
X-36881Y-12975D01*
X-36927Y-12750D01*
X-36968Y-12524D01*
X-37003Y-12297D01*
X-37033Y-12069D01*
X-37058Y-11840D01*
X-37077Y-11611D01*
X-37091Y-11382D01*
X-37099Y-11152D01*
X-37102Y-10922D01*
X-36129Y-15141D02*
X-36096Y-15231D01*
X-36060Y-15320D01*
X-36020Y-15408D01*
X-35976Y-15493D01*
X-35929Y-15577D01*
X-35879Y-15659D01*
X-35825Y-15739D01*
X-35769Y-15816D01*
X-35709Y-15892D01*
X-35646Y-15965D01*
X-35581Y-16035D01*
X-35512Y-16103D01*
X-35441Y-16167D01*
X-35368Y-16229D01*
X-35292Y-16288D01*
X-35214Y-16344D01*
X-35133Y-16397D01*
X-35051Y-16446D01*
X-34967Y-16492D01*
X-34880Y-16535D01*
X-34793Y-16574D01*
X-34703Y-16610D01*
X-34613Y-16642D01*
X-34521Y-16670D01*
X-34428Y-16695D01*
X-34334Y-16716D01*
X-34240Y-16733D01*
X-34145Y-16747D01*
X-34049Y-16756D01*
X-33953Y-16762D01*
X-33857Y-16764D01*
X-31260Y-14168D02*
X-36453Y-7676D01*
X-42496Y-5080D02*
X-42496Y-16764D01*
X-42496Y-5080D02*
X-45741Y-5080D01*
X-45854Y-5082D01*
X-45967Y-5088D01*
X-46080Y-5098D01*
X-46193Y-5112D01*
X-46305Y-5129D01*
X-46416Y-5151D01*
X-46526Y-5176D01*
X-46636Y-5206D01*
X-46744Y-5239D01*
X-46851Y-5276D01*
X-46957Y-5316D01*
X-47061Y-5361D01*
X-47164Y-5409D01*
X-47265Y-5460D01*
X-47364Y-5515D01*
X-47461Y-5573D01*
X-47556Y-5635D01*
X-47649Y-5700D01*
X-47739Y-5768D01*
X-47827Y-5839D01*
X-47913Y-5914D01*
X-47996Y-5991D01*
X-48076Y-6071D01*
X-48153Y-6154D01*
X-48228Y-6240D01*
X-48299Y-6328D01*
X-48367Y-6418D01*
X-48432Y-6511D01*
X-48494Y-6606D01*
X-48552Y-6703D01*
X-48607Y-6802D01*
X-48658Y-6903D01*
X-48706Y-7006D01*
X-48751Y-7110D01*
X-48791Y-7216D01*
X-48828Y-7323D01*
X-48861Y-7431D01*
X-48891Y-7541D01*
X-48916Y-7651D01*
X-48938Y-7762D01*
X-48955Y-7874D01*
X-48969Y-7987D01*
X-48979Y-8100D01*
X-48985Y-8213D01*
X-48987Y-8326D01*
X-48985Y-8439D01*
X-48979Y-8552D01*
X-48969Y-8665D01*
X-48955Y-8778D01*
X-48938Y-8890D01*
X-48916Y-9001D01*
X-48891Y-9111D01*
X-48861Y-9221D01*
X-48828Y-9329D01*
X-48791Y-9436D01*
X-48751Y-9542D01*
X-48706Y-9646D01*
X-48658Y-9749D01*
X-48607Y-9850D01*
X-48552Y-9949D01*
X-48494Y-10046D01*
X-48432Y-10141D01*
X-48367Y-10234D01*
X-48299Y-10324D01*
X-48228Y-10412D01*
X-48153Y-10498D01*
X-48076Y-10581D01*
X-47996Y-10661D01*
X-47913Y-10738D01*
X-47827Y-10813D01*
X-47739Y-10884D01*
X-47649Y-10952D01*
X-47556Y-11017D01*
X-47461Y-11079D01*
X-47364Y-11137D01*
X-47265Y-11192D01*
X-47164Y-11243D01*
X-47061Y-11291D01*
X-46957Y-11336D01*
X-46851Y-11376D01*
X-46744Y-11413D01*
X-46636Y-11446D01*
X-46526Y-11476D01*
X-46416Y-11501D01*
X-46305Y-11523D01*
X-46193Y-11540D01*
X-46080Y-11554D01*
X-45967Y-11564D01*
X-45854Y-11570D01*
X-45741Y-11572D01*
X-45741Y-11571D02*
X-42496Y-11571D01*
X-46390Y-11571D02*
X-48987Y-16764D01*
D13*
X-27770Y-276860D02*
X-27762Y-276210D01*
X-27738Y-275560D01*
X-27698Y-274911D01*
X-27642Y-274263D01*
X-27571Y-273616D01*
X-27483Y-272972D01*
X-27380Y-272330D01*
X-27261Y-271690D01*
X-27126Y-271054D01*
X-26976Y-270421D01*
X-26810Y-269792D01*
X-26629Y-269167D01*
X-26432Y-268547D01*
X-26221Y-267932D01*
X-25994Y-267323D01*
X-25753Y-266719D01*
X-25497Y-266121D01*
X-25226Y-265530D01*
X-24940Y-264945D01*
X-24641Y-264368D01*
X-24327Y-263798D01*
X-24000Y-263236D01*
X-23659Y-262683D01*
X-23304Y-262137D01*
X-22936Y-261601D01*
X-22555Y-261074D01*
X-22161Y-260556D01*
X-21755Y-260049D01*
X-21336Y-259551D01*
X-20905Y-259064D01*
X-20463Y-258587D01*
X-20008Y-258122D01*
X-19543Y-257667D01*
X-19066Y-257225D01*
X-18579Y-256794D01*
X-18081Y-256375D01*
X-17574Y-255969D01*
X-17056Y-255575D01*
X-16529Y-255194D01*
X-15993Y-254826D01*
X-15447Y-254471D01*
X-14894Y-254130D01*
X-14332Y-253803D01*
X-13762Y-253489D01*
X-13185Y-253190D01*
X-12600Y-252904D01*
X-12009Y-252633D01*
X-11411Y-252377D01*
X-10807Y-252136D01*
X-10198Y-251909D01*
X-9583Y-251698D01*
X-8963Y-251501D01*
X-8338Y-251320D01*
X-7709Y-251154D01*
X-7076Y-251004D01*
X-6440Y-250869D01*
X-5800Y-250750D01*
X-5158Y-250647D01*
X-4514Y-250559D01*
X-3867Y-250488D01*
X-3219Y-250432D01*
X-2570Y-250392D01*
X-1920Y-250368D01*
X-1270Y-250360D01*
X-620Y-250368D01*
X30Y-250392D01*
X679Y-250432D01*
X1327Y-250488D01*
X1974Y-250559D01*
X2618Y-250647D01*
X3260Y-250750D01*
X3900Y-250869D01*
X4536Y-251004D01*
X5169Y-251154D01*
X5798Y-251320D01*
X6423Y-251501D01*
X7043Y-251698D01*
X7658Y-251909D01*
X8267Y-252136D01*
X8871Y-252377D01*
X9469Y-252633D01*
X10060Y-252904D01*
X10645Y-253190D01*
X11222Y-253489D01*
X11792Y-253803D01*
X12354Y-254130D01*
X12907Y-254471D01*
X13453Y-254826D01*
X13989Y-255194D01*
X14516Y-255575D01*
X15034Y-255969D01*
X15541Y-256375D01*
X16039Y-256794D01*
X16526Y-257225D01*
X17003Y-257667D01*
X17468Y-258122D01*
X17923Y-258587D01*
X18365Y-259064D01*
X18796Y-259551D01*
X19215Y-260049D01*
X19621Y-260556D01*
X20015Y-261074D01*
X20396Y-261601D01*
X20764Y-262137D01*
X21119Y-262683D01*
X21460Y-263236D01*
X21787Y-263798D01*
X22101Y-264368D01*
X22400Y-264945D01*
X22686Y-265530D01*
X22957Y-266121D01*
X23213Y-266719D01*
X23454Y-267323D01*
X23681Y-267932D01*
X23892Y-268547D01*
X24089Y-269167D01*
X24270Y-269792D01*
X24436Y-270421D01*
X24586Y-271054D01*
X24721Y-271690D01*
X24840Y-272330D01*
X24943Y-272972D01*
X25031Y-273616D01*
X25102Y-274263D01*
X25158Y-274911D01*
X25198Y-275560D01*
X25222Y-276210D01*
X25230Y-276860D01*
X25222Y-277510D01*
X25198Y-278160D01*
X25158Y-278809D01*
X25102Y-279457D01*
X25031Y-280104D01*
X24943Y-280748D01*
X24840Y-281390D01*
X24721Y-282030D01*
X24586Y-282666D01*
X24436Y-283299D01*
X24270Y-283928D01*
X24089Y-284553D01*
X23892Y-285173D01*
X23681Y-285788D01*
X23454Y-286397D01*
X23213Y-287001D01*
X22957Y-287599D01*
X22686Y-288190D01*
X22400Y-288775D01*
X22101Y-289352D01*
X21787Y-289922D01*
X21460Y-290484D01*
X21119Y-291037D01*
X20764Y-291583D01*
X20396Y-292119D01*
X20015Y-292646D01*
X19621Y-293164D01*
X19215Y-293671D01*
X18796Y-294169D01*
X18365Y-294656D01*
X17923Y-295133D01*
X17468Y-295598D01*
X17003Y-296053D01*
X16526Y-296495D01*
X16039Y-296926D01*
X15541Y-297345D01*
X15034Y-297751D01*
X14516Y-298145D01*
X13989Y-298526D01*
X13453Y-298894D01*
X12907Y-299249D01*
X12354Y-299590D01*
X11792Y-299917D01*
X11222Y-300231D01*
X10645Y-300530D01*
X10060Y-300816D01*
X9469Y-301087D01*
X8871Y-301343D01*
X8267Y-301584D01*
X7658Y-301811D01*
X7043Y-302022D01*
X6423Y-302219D01*
X5798Y-302400D01*
X5169Y-302566D01*
X4536Y-302716D01*
X3900Y-302851D01*
X3260Y-302970D01*
X2618Y-303073D01*
X1974Y-303161D01*
X1327Y-303232D01*
X679Y-303288D01*
X30Y-303328D01*
X-620Y-303352D01*
X-1270Y-303360D01*
X-1920Y-303352D01*
X-2570Y-303328D01*
X-3219Y-303288D01*
X-3867Y-303232D01*
X-4514Y-303161D01*
X-5158Y-303073D01*
X-5800Y-302970D01*
X-6440Y-302851D01*
X-7076Y-302716D01*
X-7709Y-302566D01*
X-8338Y-302400D01*
X-8963Y-302219D01*
X-9583Y-302022D01*
X-10198Y-301811D01*
X-10807Y-301584D01*
X-11411Y-301343D01*
X-12009Y-301087D01*
X-12600Y-300816D01*
X-13185Y-300530D01*
X-13762Y-300231D01*
X-14332Y-299917D01*
X-14894Y-299590D01*
X-15447Y-299249D01*
X-15993Y-298894D01*
X-16529Y-298526D01*
X-17056Y-298145D01*
X-17574Y-297751D01*
X-18081Y-297345D01*
X-18579Y-296926D01*
X-19066Y-296495D01*
X-19543Y-296053D01*
X-20008Y-295598D01*
X-20463Y-295133D01*
X-20905Y-294656D01*
X-21336Y-294169D01*
X-21755Y-293671D01*
X-22161Y-293164D01*
X-22555Y-292646D01*
X-22936Y-292119D01*
X-23304Y-291583D01*
X-23659Y-291037D01*
X-24000Y-290484D01*
X-24327Y-289922D01*
X-24641Y-289352D01*
X-24940Y-288775D01*
X-25226Y-288190D01*
X-25497Y-287599D01*
X-25753Y-287001D01*
X-25994Y-286397D01*
X-26221Y-285788D01*
X-26432Y-285173D01*
X-26629Y-284553D01*
X-26810Y-283928D01*
X-26976Y-283299D01*
X-27126Y-282666D01*
X-27261Y-282030D01*
X-27380Y-281390D01*
X-27483Y-280748D01*
X-27571Y-280104D01*
X-27642Y-279457D01*
X-27698Y-278809D01*
X-27738Y-278160D01*
X-27762Y-277510D01*
X-27770Y-276860D01*
X-1270Y-238760D02*
X-1270Y-232410D01*
X-1270Y-238760D02*
X-1270Y-245110D01*
X-1270Y-238760D02*
X-7620Y-238760D01*
X-1270Y-238760D02*
X5080Y-238760D01*
X-17780Y-276860D02*
X-27940Y-276860D01*
X-17780Y-276860D02*
X-11430Y-276860D01*
X-5080Y-276860D01*
X13970Y-276860D01*
X21590Y-276860D01*
X25400Y-276860D01*
X21590Y-276860D02*
X11430Y-299720D01*
X2540Y-302260D02*
X13970Y-276860D01*
X-7620Y-292735D02*
X-11430Y-300990D01*
X-16510Y-298450D02*
X-5080Y-276860D01*
X-11430Y-276860D02*
X-20955Y-294640D01*
X-24765Y-289560D02*
X-17780Y-276860D01*
X-1270Y-294360D02*
X-5080Y-300990D01*
D10*
X-38862Y-267638D02*
X-38862Y-265889D01*
X-38862Y-267638D02*
X-38860Y-267719D01*
X-38855Y-267799D01*
X-38845Y-267880D01*
X-38832Y-267960D01*
X-38816Y-268039D01*
X-38795Y-268117D01*
X-38771Y-268194D01*
X-38744Y-268270D01*
X-38713Y-268345D01*
X-38679Y-268418D01*
X-38641Y-268490D01*
X-38600Y-268559D01*
X-38556Y-268627D01*
X-38509Y-268693D01*
X-38458Y-268756D01*
X-38405Y-268817D01*
X-38349Y-268875D01*
X-38291Y-268931D01*
X-38230Y-268984D01*
X-38167Y-269035D01*
X-38101Y-269082D01*
X-38033Y-269126D01*
X-37964Y-269167D01*
X-37892Y-269205D01*
X-37819Y-269239D01*
X-37744Y-269270D01*
X-37668Y-269297D01*
X-37591Y-269321D01*
X-37513Y-269342D01*
X-37434Y-269358D01*
X-37354Y-269371D01*
X-37273Y-269381D01*
X-37193Y-269386D01*
X-37112Y-269388D01*
X-32738Y-269388D01*
X-32655Y-269386D01*
X-32572Y-269380D01*
X-32489Y-269370D01*
X-32407Y-269356D01*
X-32325Y-269339D01*
X-32245Y-269317D01*
X-32166Y-269292D01*
X-32088Y-269263D01*
X-32011Y-269230D01*
X-31936Y-269193D01*
X-31863Y-269154D01*
X-31792Y-269110D01*
X-31723Y-269064D01*
X-31656Y-269014D01*
X-31592Y-268961D01*
X-31530Y-268905D01*
X-31471Y-268846D01*
X-31415Y-268784D01*
X-31362Y-268720D01*
X-31313Y-268653D01*
X-31266Y-268584D01*
X-31222Y-268513D01*
X-31183Y-268440D01*
X-31146Y-268365D01*
X-31113Y-268288D01*
X-31084Y-268210D01*
X-31059Y-268131D01*
X-31037Y-268051D01*
X-31020Y-267969D01*
X-31006Y-267887D01*
X-30996Y-267804D01*
X-30990Y-267721D01*
X-30988Y-267638D01*
X-30988Y-265889D01*
X-30988Y-260943D02*
X-37112Y-262692D01*
X-37112Y-258318D01*
X-35362Y-259630D02*
X-38862Y-259630D01*
D14*
X7408Y-308229D02*
X8961Y-309471D01*
X7408Y-308229D02*
X7408Y-313817D01*
X5856Y-313817D02*
X8961Y-313817D01*
X3246Y-311023D02*
X3244Y-310892D01*
X3239Y-310762D01*
X3229Y-310632D01*
X3216Y-310502D01*
X3200Y-310372D01*
X3180Y-310243D01*
X3156Y-310115D01*
X3128Y-309988D01*
X3097Y-309861D01*
X3062Y-309735D01*
X3024Y-309610D01*
X2982Y-309486D01*
X2937Y-309364D01*
X2888Y-309243D01*
X2836Y-309123D01*
X2780Y-309005D01*
X2757Y-308945D01*
X2731Y-308885D01*
X2702Y-308828D01*
X2669Y-308772D01*
X2633Y-308718D01*
X2595Y-308666D01*
X2553Y-308616D01*
X2509Y-308569D01*
X2462Y-308524D01*
X2412Y-308482D01*
X2361Y-308443D01*
X2307Y-308407D01*
X2251Y-308374D01*
X2194Y-308344D01*
X2135Y-308317D01*
X2074Y-308294D01*
X2013Y-308274D01*
X1950Y-308258D01*
X1886Y-308245D01*
X1822Y-308236D01*
X1758Y-308231D01*
X1693Y-308229D01*
X1628Y-308231D01*
X1564Y-308236D01*
X1500Y-308245D01*
X1436Y-308258D01*
X1373Y-308274D01*
X1312Y-308294D01*
X1251Y-308317D01*
X1192Y-308344D01*
X1135Y-308374D01*
X1079Y-308407D01*
X1025Y-308443D01*
X974Y-308482D01*
X924Y-308524D01*
X877Y-308569D01*
X833Y-308616D01*
X791Y-308666D01*
X753Y-308718D01*
X717Y-308772D01*
X684Y-308828D01*
X655Y-308885D01*
X629Y-308945D01*
X606Y-309005D01*
X607Y-309005D02*
X551Y-309123D01*
X499Y-309243D01*
X450Y-309364D01*
X405Y-309486D01*
X363Y-309610D01*
X325Y-309735D01*
X290Y-309861D01*
X259Y-309987D01*
X231Y-310115D01*
X207Y-310243D01*
X187Y-310372D01*
X171Y-310502D01*
X158Y-310632D01*
X148Y-310762D01*
X143Y-310892D01*
X141Y-311023D01*
X3245Y-311023D02*
X3243Y-311154D01*
X3238Y-311284D01*
X3228Y-311414D01*
X3215Y-311544D01*
X3199Y-311674D01*
X3179Y-311803D01*
X3155Y-311931D01*
X3127Y-312058D01*
X3096Y-312185D01*
X3061Y-312311D01*
X3023Y-312436D01*
X2981Y-312560D01*
X2936Y-312682D01*
X2887Y-312803D01*
X2835Y-312923D01*
X2779Y-313041D01*
X2780Y-313041D02*
X2757Y-313101D01*
X2731Y-313161D01*
X2702Y-313218D01*
X2669Y-313274D01*
X2633Y-313328D01*
X2595Y-313380D01*
X2553Y-313430D01*
X2509Y-313477D01*
X2462Y-313522D01*
X2412Y-313564D01*
X2361Y-313603D01*
X2307Y-313639D01*
X2251Y-313672D01*
X2194Y-313702D01*
X2135Y-313729D01*
X2074Y-313752D01*
X2013Y-313772D01*
X1950Y-313788D01*
X1886Y-313801D01*
X1822Y-313810D01*
X1758Y-313815D01*
X1693Y-313817D01*
X607Y-313041D02*
X551Y-312923D01*
X499Y-312803D01*
X450Y-312682D01*
X405Y-312560D01*
X363Y-312436D01*
X325Y-312311D01*
X290Y-312185D01*
X259Y-312059D01*
X231Y-311931D01*
X207Y-311803D01*
X187Y-311674D01*
X171Y-311544D01*
X158Y-311414D01*
X148Y-311284D01*
X143Y-311154D01*
X141Y-311023D01*
X606Y-313041D02*
X629Y-313101D01*
X655Y-313161D01*
X684Y-313218D01*
X717Y-313274D01*
X753Y-313328D01*
X791Y-313380D01*
X833Y-313430D01*
X877Y-313477D01*
X924Y-313522D01*
X974Y-313564D01*
X1025Y-313603D01*
X1079Y-313639D01*
X1135Y-313672D01*
X1192Y-313702D01*
X1251Y-313729D01*
X1312Y-313752D01*
X1373Y-313772D01*
X1436Y-313788D01*
X1500Y-313801D01*
X1564Y-313810D01*
X1628Y-313815D01*
X1693Y-313817D01*
X2935Y-312575D02*
X452Y-309471D01*
X-2589Y-310092D02*
X-2589Y-312886D01*
X-2590Y-312886D02*
X-2592Y-312944D01*
X-2597Y-313003D01*
X-2606Y-313060D01*
X-2619Y-313118D01*
X-2636Y-313174D01*
X-2655Y-313229D01*
X-2679Y-313282D01*
X-2705Y-313335D01*
X-2735Y-313385D01*
X-2768Y-313433D01*
X-2804Y-313479D01*
X-2842Y-313523D01*
X-2884Y-313565D01*
X-2928Y-313603D01*
X-2974Y-313639D01*
X-3022Y-313672D01*
X-3072Y-313702D01*
X-3125Y-313728D01*
X-3178Y-313752D01*
X-3233Y-313771D01*
X-3289Y-313788D01*
X-3347Y-313801D01*
X-3404Y-313810D01*
X-3463Y-313815D01*
X-3521Y-313817D01*
X-5073Y-313817D01*
X-5073Y-310092D01*
X-8029Y-309160D02*
X-8029Y-313817D01*
X-8030Y-309160D02*
X-8032Y-309102D01*
X-8037Y-309043D01*
X-8046Y-308986D01*
X-8059Y-308928D01*
X-8076Y-308872D01*
X-8095Y-308817D01*
X-8119Y-308764D01*
X-8145Y-308711D01*
X-8175Y-308661D01*
X-8208Y-308613D01*
X-8244Y-308567D01*
X-8282Y-308523D01*
X-8324Y-308481D01*
X-8368Y-308443D01*
X-8414Y-308407D01*
X-8462Y-308374D01*
X-8512Y-308344D01*
X-8565Y-308318D01*
X-8618Y-308294D01*
X-8673Y-308275D01*
X-8729Y-308258D01*
X-8787Y-308245D01*
X-8844Y-308236D01*
X-8903Y-308231D01*
X-8961Y-308229D01*
X-9271Y-308229D01*
X-9271Y-310092D02*
X-7408Y-310092D01*
M02*
