G04 EAGLE Gerber RS-274X export*
G75*
%MOMM*%
%FSLAX34Y34*%
%LPD*%
%INTop Copper*%
%IPPOS*%
%AMOC8*
5,1,8,0,0,1.08239X$1,22.5*%
G01*
%ADD10P,2.749271X8X292.500000*%
%ADD11R,2.540000X2.540000*%
%ADD12C,2.700000*%
%ADD13R,1.320800X1.320800*%
%ADD14P,1.429621X8X112.500000*%
%ADD15P,1.429621X8X292.500000*%
%ADD16P,2.749271X8X22.500000*%
%ADD17C,2.540000*%
%ADD18C,0.203200*%


D10*
X240370Y154582D03*
D11*
X240370Y209700D03*
D12*
X149250Y210720D03*
X174650Y134520D03*
X123850Y134520D03*
X174650Y-147290D03*
X123850Y-147290D03*
X149250Y-223490D03*
X2250Y210720D03*
X-23150Y134520D03*
X27650Y134520D03*
X-23150Y-147290D03*
X27650Y-147290D03*
X2250Y-223490D03*
X-149830Y-225652D03*
X-175230Y-149452D03*
X-124430Y-149452D03*
X-175230Y132358D03*
X-124430Y132358D03*
X-149830Y208558D03*
D13*
X79492Y-333756D03*
D14*
X99492Y-333756D03*
D13*
X102740Y318700D03*
D15*
X82740Y318700D03*
D13*
X-75020Y-333756D03*
D14*
X-55020Y-333756D03*
D13*
X-53940Y318584D03*
D15*
X-73940Y318584D03*
D13*
X1820Y-333756D03*
D14*
X21820Y-333756D03*
D13*
X24900Y318744D03*
D15*
X4900Y318744D03*
D13*
X-221484Y318528D03*
D15*
X-241484Y318528D03*
X-261484Y318528D03*
D13*
X-261108Y-333756D03*
D14*
X-241108Y-333756D03*
X-221108Y-333756D03*
D13*
X-127188Y318904D03*
D15*
X-147188Y318904D03*
X-167188Y318904D03*
D13*
X-167188Y-333756D03*
D14*
X-147188Y-333756D03*
X-127188Y-333756D03*
D16*
X192700Y330000D03*
X155890Y330270D03*
D17*
X149250Y-147290D02*
X149250Y-223490D01*
X149250Y-147290D02*
X123850Y-147290D01*
X149250Y-147290D02*
X174650Y-147290D01*
X2250Y134520D02*
X-23150Y134520D01*
X2250Y134520D02*
X27650Y134520D01*
X2250Y134520D02*
X2250Y210720D01*
X27650Y134520D02*
X27650Y75910D01*
X123850Y-20290D01*
X123850Y-147290D01*
X-149830Y-149452D02*
X-149830Y-225652D01*
X-149830Y-149452D02*
X-175230Y-149452D01*
X-149830Y-149452D02*
X-124430Y-149452D01*
X2250Y-147290D02*
X2250Y-223490D01*
X2250Y-147290D02*
X-23150Y-147290D01*
X2250Y-147290D02*
X27650Y-147290D01*
X-149830Y132358D02*
X-175230Y132358D01*
X-149830Y132358D02*
X-124430Y132358D01*
X-149830Y132358D02*
X-149830Y208558D01*
X-124430Y132358D02*
X-62230Y194558D01*
X-62230Y228600D01*
X-36830Y254000D01*
X76200Y254000D01*
X98670Y254000D01*
X152080Y307410D01*
X152080Y326460D01*
X155890Y330270D01*
X240370Y154582D02*
X240370Y77810D01*
X233680Y71120D01*
X106680Y71120D01*
X76200Y101600D02*
X76200Y254000D01*
X76200Y101600D02*
X106680Y71120D01*
X123850Y134520D02*
X149250Y134520D01*
X174650Y134520D01*
X149250Y134520D02*
X149250Y210720D01*
X192700Y216070D02*
X192700Y330000D01*
X173650Y235120D02*
X149250Y210720D01*
X235290Y204620D02*
X240370Y209700D01*
X235290Y204620D02*
X204150Y204620D01*
X192700Y216070D01*
X173650Y235120D01*
D18*
X45136Y-279400D02*
X99492Y-333756D01*
X45136Y-279400D02*
X-210820Y-279400D01*
X-228600Y-261620D01*
X-228600Y213360D01*
X-162560Y279400D01*
X43440Y279400D02*
X82740Y318700D01*
X43440Y279400D02*
X-162560Y279400D01*
X79492Y-332486D02*
X79492Y-333756D01*
X79492Y-332486D02*
X31486Y-284480D01*
X-213360Y-284480D02*
X-233680Y-264160D01*
X-213360Y-284480D02*
X31486Y-284480D01*
X-233680Y-264160D02*
X-233680Y218440D01*
X-167640Y284480D01*
X102740Y318700D02*
X102740Y329060D01*
X20320Y284480D02*
X-167640Y284480D01*
X20320Y284480D02*
X71120Y335280D01*
X96520Y335280D01*
X102740Y329060D01*
X-55020Y-328676D02*
X-55020Y-333756D01*
X-55020Y-328676D02*
X-83976Y-299720D01*
X-220980Y-299720D01*
X-248920Y-271780D01*
X-92804Y299720D02*
X-73940Y318584D01*
X-248920Y234950D02*
X-248920Y-271780D01*
X-248920Y234950D02*
X-184150Y299720D01*
X-92804Y299720D01*
X-75020Y-314706D02*
X-75020Y-333756D01*
X-75020Y-314706D02*
X-84926Y-304800D01*
X-223520Y-304800D01*
X-254000Y-274320D01*
X-53940Y318584D02*
X-53940Y328260D01*
X-254000Y238760D02*
X-254000Y-274320D01*
X-254000Y238760D02*
X-186690Y306070D01*
X-110490Y306070D01*
X-81280Y335280D01*
X-60960Y335280D01*
X-53940Y328260D01*
X21820Y-329160D02*
X21820Y-333756D01*
X-215900Y-289560D02*
X-238760Y-266700D01*
X-17780Y-289560D02*
X21820Y-329160D01*
X-17780Y-289560D02*
X-215900Y-289560D01*
X-238760Y-266700D02*
X-238760Y223520D01*
X-172720Y289560D01*
X-24284Y289560D02*
X4900Y318744D01*
X-24284Y289560D02*
X-172720Y289560D01*
X1820Y-315510D02*
X1820Y-333756D01*
X1820Y-315510D02*
X-19050Y-294640D01*
X-218440Y-294640D01*
X-243840Y-269240D01*
X-243840Y229870D01*
X-179070Y294640D01*
X-50800Y294640D01*
X-10160Y335280D01*
X16510Y335280D02*
X25400Y326390D01*
X25400Y319244D01*
X24900Y318744D01*
X16510Y335280D02*
X-10160Y335280D01*
X-261108Y-322326D02*
X-261108Y-333756D01*
X-261108Y-322326D02*
X-284480Y-298954D01*
X-221484Y318528D02*
X-221484Y330704D01*
X-284480Y330200D02*
X-284480Y-298954D01*
X-284480Y330200D02*
X-271780Y342900D01*
X-233680Y342900D01*
X-221484Y330704D01*
X-279400Y-295464D02*
X-241108Y-333756D01*
X-279400Y320040D02*
X-264160Y335280D01*
X-248920Y335280D01*
X-241484Y327844D02*
X-241484Y318528D01*
X-279400Y320040D02*
X-279400Y-295464D01*
X-241484Y327844D02*
X-248920Y335280D01*
X-226188Y-333756D02*
X-221108Y-333756D01*
X-226188Y-333756D02*
X-274320Y-285624D01*
X-274320Y305692D02*
X-261484Y318528D01*
X-274320Y305692D02*
X-274320Y-285624D01*
X-168458Y-333756D02*
X-167188Y-333756D01*
X-168458Y-333756D02*
X-180904Y-321310D01*
X-229870Y-321310D01*
X-269240Y-281940D01*
X-176530Y340360D02*
X-147320Y340360D01*
X-176530Y340360D02*
X-269240Y247650D01*
X-147320Y340360D02*
X-127188Y320228D01*
X-127188Y318904D01*
X-269240Y247650D02*
X-269240Y-281940D01*
X-147320Y-333624D02*
X-147188Y-333756D01*
X-147320Y-333624D02*
X-147320Y-325120D01*
X-156210Y-316230D01*
X-227330Y-316230D02*
X-264160Y-279400D01*
X-227330Y-316230D02*
X-156210Y-316230D01*
X-147188Y318904D02*
X-161024Y332740D01*
X-264160Y245110D02*
X-264160Y-279400D01*
X-264160Y245110D02*
X-176530Y332740D01*
X-161024Y332740D01*
X-151064Y-309880D02*
X-127188Y-333756D01*
X-226060Y-309880D02*
X-259080Y-276860D01*
X-226060Y-309880D02*
X-151064Y-309880D01*
X-167188Y318904D02*
X-182746Y318904D01*
X-259080Y242570D02*
X-259080Y-276860D01*
X-259080Y242570D02*
X-182746Y318904D01*
M02*
