G04 EAGLE Gerber RS-274X export*
G75*
%MOMM*%
%FSLAX34Y34*%
%LPD*%
%INSilkscreen Top*%
%IPPOS*%
%AMOC8*
5,1,8,0,0,1.08239X$1,22.5*%
G01*
%ADD10C,0.330200*%
%ADD11C,2.667000*%
%ADD12C,0.203200*%
%ADD13C,0.127000*%
%ADD14C,0.177800*%
%ADD15C,0.152400*%
%ADD16C,0.101600*%


D10*
X265488Y131451D02*
X265488Y133864D01*
X273531Y133864D01*
X273531Y129038D01*
X273529Y128926D01*
X273523Y128814D01*
X273513Y128702D01*
X273500Y128590D01*
X273482Y128479D01*
X273461Y128369D01*
X273435Y128260D01*
X273406Y128151D01*
X273374Y128044D01*
X273337Y127938D01*
X273297Y127833D01*
X273253Y127730D01*
X273205Y127628D01*
X273154Y127528D01*
X273100Y127429D01*
X273042Y127333D01*
X272981Y127239D01*
X272917Y127147D01*
X272849Y127057D01*
X272778Y126970D01*
X272705Y126885D01*
X272628Y126803D01*
X272549Y126724D01*
X272467Y126647D01*
X272382Y126574D01*
X272295Y126503D01*
X272205Y126435D01*
X272113Y126371D01*
X272019Y126310D01*
X271923Y126252D01*
X271824Y126198D01*
X271724Y126147D01*
X271622Y126099D01*
X271519Y126055D01*
X271414Y126015D01*
X271308Y125978D01*
X271201Y125946D01*
X271092Y125917D01*
X270983Y125891D01*
X270873Y125870D01*
X270762Y125852D01*
X270650Y125839D01*
X270538Y125829D01*
X270426Y125823D01*
X270314Y125821D01*
X262270Y125821D01*
X262158Y125823D01*
X262046Y125829D01*
X261934Y125839D01*
X261822Y125852D01*
X261711Y125870D01*
X261601Y125891D01*
X261492Y125917D01*
X261383Y125946D01*
X261276Y125978D01*
X261170Y126015D01*
X261065Y126055D01*
X260962Y126099D01*
X260860Y126147D01*
X260760Y126198D01*
X260662Y126252D01*
X260565Y126310D01*
X260471Y126371D01*
X260379Y126435D01*
X260289Y126503D01*
X260202Y126574D01*
X260117Y126647D01*
X260035Y126724D01*
X259956Y126803D01*
X259879Y126885D01*
X259806Y126970D01*
X259735Y127057D01*
X259667Y127147D01*
X259603Y127239D01*
X259542Y127333D01*
X259484Y127429D01*
X259430Y127528D01*
X259379Y127628D01*
X259331Y127729D01*
X259287Y127833D01*
X259247Y127938D01*
X259210Y128044D01*
X259178Y128151D01*
X259149Y128260D01*
X259123Y128369D01*
X259102Y128479D01*
X259084Y128590D01*
X259071Y128702D01*
X259061Y128814D01*
X259055Y128926D01*
X259053Y129038D01*
X259053Y133864D01*
X259053Y142494D02*
X273531Y142494D01*
X273531Y150538D02*
X259053Y142494D01*
X259053Y150538D02*
X273531Y150538D01*
X273531Y159168D02*
X259053Y159168D01*
X259053Y163189D01*
X259055Y163313D01*
X259061Y163437D01*
X259070Y163560D01*
X259083Y163683D01*
X259101Y163806D01*
X259121Y163928D01*
X259146Y164049D01*
X259174Y164170D01*
X259207Y164290D01*
X259242Y164408D01*
X259282Y164526D01*
X259325Y164642D01*
X259371Y164757D01*
X259421Y164870D01*
X259475Y164982D01*
X259532Y165092D01*
X259592Y165200D01*
X259655Y165306D01*
X259722Y165411D01*
X259792Y165513D01*
X259865Y165613D01*
X259942Y165710D01*
X260021Y165806D01*
X260103Y165899D01*
X260188Y165989D01*
X260275Y166076D01*
X260365Y166161D01*
X260458Y166243D01*
X260554Y166322D01*
X260651Y166399D01*
X260751Y166472D01*
X260853Y166542D01*
X260958Y166609D01*
X261064Y166672D01*
X261172Y166732D01*
X261282Y166789D01*
X261394Y166843D01*
X261507Y166893D01*
X261622Y166939D01*
X261738Y166982D01*
X261856Y167022D01*
X261974Y167057D01*
X262094Y167090D01*
X262215Y167118D01*
X262336Y167143D01*
X262458Y167163D01*
X262581Y167181D01*
X262704Y167194D01*
X262827Y167203D01*
X262951Y167209D01*
X263075Y167211D01*
X269509Y167211D01*
X269633Y167209D01*
X269757Y167203D01*
X269880Y167194D01*
X270003Y167181D01*
X270126Y167163D01*
X270248Y167143D01*
X270369Y167118D01*
X270490Y167090D01*
X270610Y167057D01*
X270728Y167022D01*
X270846Y166982D01*
X270962Y166939D01*
X271077Y166893D01*
X271190Y166843D01*
X271302Y166789D01*
X271412Y166732D01*
X271520Y166672D01*
X271626Y166609D01*
X271731Y166542D01*
X271833Y166472D01*
X271933Y166399D01*
X272030Y166322D01*
X272126Y166243D01*
X272219Y166161D01*
X272309Y166076D01*
X272396Y165989D01*
X272481Y165899D01*
X272563Y165806D01*
X272642Y165710D01*
X272719Y165613D01*
X272792Y165513D01*
X272862Y165411D01*
X272929Y165306D01*
X272992Y165200D01*
X273052Y165092D01*
X273109Y164982D01*
X273163Y164870D01*
X273213Y164757D01*
X273259Y164642D01*
X273302Y164526D01*
X273342Y164408D01*
X273377Y164290D01*
X273410Y164170D01*
X273438Y164049D01*
X273463Y163928D01*
X273483Y163806D01*
X273501Y163683D01*
X273514Y163560D01*
X273523Y163437D01*
X273529Y163313D01*
X273531Y163189D01*
X273531Y159168D01*
D11*
X-77421Y-70740D02*
X-178175Y-70740D01*
X-127798Y-121117D02*
X-127798Y-20364D01*
X78873Y57784D02*
X179627Y57784D01*
X129250Y7407D02*
X129250Y108160D01*
X-79453Y56768D02*
X-180207Y56768D01*
X75825Y-73280D02*
X176579Y-73280D01*
D12*
X-4410Y-179424D02*
X-7910Y-175050D01*
X7838Y-175050D01*
X7838Y-179424D02*
X7838Y-170675D01*
X3464Y-163792D02*
X3333Y-163790D01*
X3202Y-163784D01*
X3072Y-163774D01*
X2942Y-163761D01*
X2812Y-163743D01*
X2683Y-163722D01*
X2555Y-163696D01*
X2427Y-163667D01*
X2300Y-163634D01*
X2175Y-163598D01*
X2050Y-163557D01*
X1927Y-163513D01*
X1805Y-163465D01*
X1685Y-163414D01*
X1566Y-163359D01*
X1449Y-163300D01*
X1334Y-163238D01*
X1221Y-163173D01*
X1109Y-163104D01*
X1000Y-163032D01*
X893Y-162957D01*
X788Y-162878D01*
X686Y-162797D01*
X586Y-162712D01*
X489Y-162624D01*
X394Y-162534D01*
X302Y-162441D01*
X213Y-162345D01*
X127Y-162246D01*
X44Y-162145D01*
X-36Y-162042D01*
X-113Y-161936D01*
X-186Y-161828D01*
X-257Y-161717D01*
X-324Y-161605D01*
X-388Y-161491D01*
X-448Y-161375D01*
X-505Y-161257D01*
X-558Y-161137D01*
X-608Y-161016D01*
X-654Y-160893D01*
X-696Y-160770D01*
X-734Y-160645D01*
X-769Y-160518D01*
X-800Y-160391D01*
X-828Y-160263D01*
X-851Y-160135D01*
X-870Y-160005D01*
X-886Y-159875D01*
X-898Y-159745D01*
X-906Y-159614D01*
X-910Y-159483D01*
X-910Y-159353D01*
X-906Y-159222D01*
X-898Y-159091D01*
X-886Y-158961D01*
X-870Y-158831D01*
X-851Y-158701D01*
X-828Y-158573D01*
X-800Y-158445D01*
X-769Y-158318D01*
X-734Y-158191D01*
X-696Y-158066D01*
X-654Y-157943D01*
X-608Y-157820D01*
X-558Y-157699D01*
X-505Y-157579D01*
X-448Y-157461D01*
X-388Y-157345D01*
X-324Y-157231D01*
X-257Y-157119D01*
X-186Y-157008D01*
X-113Y-156900D01*
X-36Y-156794D01*
X44Y-156691D01*
X127Y-156590D01*
X213Y-156491D01*
X302Y-156395D01*
X394Y-156302D01*
X489Y-156212D01*
X586Y-156124D01*
X686Y-156039D01*
X788Y-155958D01*
X893Y-155879D01*
X1000Y-155804D01*
X1109Y-155732D01*
X1221Y-155663D01*
X1334Y-155598D01*
X1449Y-155536D01*
X1566Y-155477D01*
X1685Y-155422D01*
X1805Y-155371D01*
X1927Y-155323D01*
X2050Y-155279D01*
X2175Y-155238D01*
X2300Y-155202D01*
X2427Y-155169D01*
X2555Y-155140D01*
X2683Y-155114D01*
X2812Y-155093D01*
X2942Y-155075D01*
X3072Y-155062D01*
X3202Y-155052D01*
X3333Y-155046D01*
X3464Y-155044D01*
X3595Y-155046D01*
X3726Y-155052D01*
X3856Y-155062D01*
X3986Y-155075D01*
X4116Y-155093D01*
X4245Y-155114D01*
X4373Y-155140D01*
X4501Y-155169D01*
X4628Y-155202D01*
X4753Y-155238D01*
X4878Y-155279D01*
X5001Y-155323D01*
X5123Y-155371D01*
X5243Y-155422D01*
X5362Y-155477D01*
X5479Y-155536D01*
X5594Y-155598D01*
X5707Y-155663D01*
X5819Y-155732D01*
X5928Y-155804D01*
X6035Y-155879D01*
X6140Y-155958D01*
X6242Y-156039D01*
X6342Y-156124D01*
X6439Y-156212D01*
X6534Y-156302D01*
X6626Y-156395D01*
X6715Y-156491D01*
X6801Y-156590D01*
X6884Y-156691D01*
X6964Y-156794D01*
X7041Y-156900D01*
X7114Y-157008D01*
X7185Y-157119D01*
X7252Y-157231D01*
X7316Y-157345D01*
X7376Y-157461D01*
X7433Y-157579D01*
X7486Y-157699D01*
X7536Y-157820D01*
X7582Y-157943D01*
X7624Y-158066D01*
X7662Y-158191D01*
X7697Y-158318D01*
X7728Y-158445D01*
X7756Y-158573D01*
X7779Y-158701D01*
X7798Y-158831D01*
X7814Y-158961D01*
X7826Y-159091D01*
X7834Y-159222D01*
X7838Y-159353D01*
X7838Y-159483D01*
X7834Y-159614D01*
X7826Y-159745D01*
X7814Y-159875D01*
X7798Y-160005D01*
X7779Y-160135D01*
X7756Y-160263D01*
X7728Y-160391D01*
X7697Y-160518D01*
X7662Y-160645D01*
X7624Y-160770D01*
X7582Y-160893D01*
X7536Y-161016D01*
X7486Y-161137D01*
X7433Y-161257D01*
X7376Y-161375D01*
X7316Y-161491D01*
X7252Y-161605D01*
X7185Y-161717D01*
X7114Y-161828D01*
X7041Y-161936D01*
X6964Y-162042D01*
X6884Y-162145D01*
X6801Y-162246D01*
X6715Y-162345D01*
X6626Y-162441D01*
X6534Y-162534D01*
X6439Y-162624D01*
X6342Y-162712D01*
X6242Y-162797D01*
X6140Y-162878D01*
X6035Y-162957D01*
X5928Y-163032D01*
X5819Y-163104D01*
X5707Y-163173D01*
X5594Y-163238D01*
X5479Y-163300D01*
X5362Y-163359D01*
X5243Y-163414D01*
X5123Y-163465D01*
X5001Y-163513D01*
X4878Y-163557D01*
X4753Y-163598D01*
X4628Y-163634D01*
X4501Y-163667D01*
X4373Y-163696D01*
X4245Y-163722D01*
X4116Y-163743D01*
X3986Y-163761D01*
X3856Y-163774D01*
X3726Y-163784D01*
X3595Y-163790D01*
X3464Y-163792D01*
X-4410Y-162918D02*
X-4528Y-162916D01*
X-4646Y-162910D01*
X-4764Y-162900D01*
X-4881Y-162886D01*
X-4998Y-162868D01*
X-5115Y-162846D01*
X-5230Y-162821D01*
X-5344Y-162791D01*
X-5458Y-162757D01*
X-5570Y-162720D01*
X-5681Y-162679D01*
X-5790Y-162634D01*
X-5898Y-162586D01*
X-6004Y-162534D01*
X-6109Y-162478D01*
X-6211Y-162419D01*
X-6311Y-162357D01*
X-6409Y-162291D01*
X-6505Y-162222D01*
X-6599Y-162149D01*
X-6690Y-162074D01*
X-6778Y-161995D01*
X-6864Y-161914D01*
X-6947Y-161829D01*
X-7027Y-161742D01*
X-7104Y-161653D01*
X-7178Y-161560D01*
X-7248Y-161466D01*
X-7316Y-161369D01*
X-7380Y-161269D01*
X-7441Y-161168D01*
X-7498Y-161065D01*
X-7552Y-160959D01*
X-7603Y-160852D01*
X-7649Y-160744D01*
X-7692Y-160634D01*
X-7731Y-160522D01*
X-7767Y-160409D01*
X-7798Y-160295D01*
X-7826Y-160180D01*
X-7850Y-160065D01*
X-7870Y-159948D01*
X-7886Y-159831D01*
X-7898Y-159713D01*
X-7906Y-159595D01*
X-7910Y-159477D01*
X-7910Y-159359D01*
X-7906Y-159241D01*
X-7898Y-159123D01*
X-7886Y-159005D01*
X-7870Y-158888D01*
X-7850Y-158771D01*
X-7826Y-158656D01*
X-7798Y-158541D01*
X-7767Y-158427D01*
X-7731Y-158314D01*
X-7692Y-158202D01*
X-7649Y-158092D01*
X-7603Y-157984D01*
X-7552Y-157877D01*
X-7498Y-157771D01*
X-7441Y-157668D01*
X-7380Y-157567D01*
X-7316Y-157467D01*
X-7248Y-157370D01*
X-7178Y-157276D01*
X-7104Y-157183D01*
X-7027Y-157094D01*
X-6947Y-157007D01*
X-6864Y-156922D01*
X-6778Y-156841D01*
X-6690Y-156762D01*
X-6599Y-156687D01*
X-6505Y-156614D01*
X-6409Y-156545D01*
X-6311Y-156479D01*
X-6211Y-156417D01*
X-6109Y-156358D01*
X-6004Y-156302D01*
X-5898Y-156250D01*
X-5790Y-156202D01*
X-5681Y-156157D01*
X-5570Y-156116D01*
X-5458Y-156079D01*
X-5344Y-156045D01*
X-5230Y-156015D01*
X-5115Y-155990D01*
X-4998Y-155968D01*
X-4881Y-155950D01*
X-4764Y-155936D01*
X-4646Y-155926D01*
X-4528Y-155920D01*
X-4410Y-155918D01*
X-4292Y-155920D01*
X-4174Y-155926D01*
X-4056Y-155936D01*
X-3939Y-155950D01*
X-3822Y-155968D01*
X-3705Y-155990D01*
X-3590Y-156015D01*
X-3476Y-156045D01*
X-3362Y-156079D01*
X-3250Y-156116D01*
X-3139Y-156157D01*
X-3030Y-156202D01*
X-2922Y-156250D01*
X-2816Y-156302D01*
X-2711Y-156358D01*
X-2609Y-156417D01*
X-2509Y-156479D01*
X-2411Y-156545D01*
X-2315Y-156614D01*
X-2221Y-156687D01*
X-2130Y-156762D01*
X-2042Y-156841D01*
X-1956Y-156922D01*
X-1873Y-157007D01*
X-1793Y-157094D01*
X-1716Y-157183D01*
X-1642Y-157276D01*
X-1572Y-157370D01*
X-1504Y-157467D01*
X-1440Y-157567D01*
X-1379Y-157668D01*
X-1322Y-157771D01*
X-1268Y-157877D01*
X-1217Y-157984D01*
X-1171Y-158092D01*
X-1128Y-158202D01*
X-1089Y-158314D01*
X-1053Y-158427D01*
X-1022Y-158541D01*
X-994Y-158656D01*
X-970Y-158771D01*
X-950Y-158888D01*
X-934Y-159005D01*
X-922Y-159123D01*
X-914Y-159241D01*
X-910Y-159359D01*
X-910Y-159477D01*
X-914Y-159595D01*
X-922Y-159713D01*
X-934Y-159831D01*
X-950Y-159948D01*
X-970Y-160065D01*
X-994Y-160180D01*
X-1022Y-160295D01*
X-1053Y-160409D01*
X-1089Y-160522D01*
X-1128Y-160634D01*
X-1171Y-160744D01*
X-1217Y-160852D01*
X-1268Y-160959D01*
X-1322Y-161065D01*
X-1379Y-161168D01*
X-1440Y-161269D01*
X-1504Y-161369D01*
X-1572Y-161466D01*
X-1642Y-161560D01*
X-1716Y-161653D01*
X-1793Y-161742D01*
X-1873Y-161829D01*
X-1956Y-161914D01*
X-2042Y-161995D01*
X-2130Y-162074D01*
X-2221Y-162149D01*
X-2315Y-162222D01*
X-2411Y-162291D01*
X-2509Y-162357D01*
X-2609Y-162419D01*
X-2711Y-162478D01*
X-2816Y-162534D01*
X-2922Y-162586D01*
X-3030Y-162634D01*
X-3139Y-162679D01*
X-3250Y-162720D01*
X-3362Y-162757D01*
X-3476Y-162791D01*
X-3590Y-162821D01*
X-3705Y-162846D01*
X-3822Y-162868D01*
X-3939Y-162886D01*
X-4056Y-162900D01*
X-4174Y-162910D01*
X-4292Y-162916D01*
X-4410Y-162918D01*
X7838Y-148162D02*
X7838Y-142912D01*
X7836Y-142795D01*
X7830Y-142678D01*
X7820Y-142562D01*
X7807Y-142446D01*
X7789Y-142330D01*
X7768Y-142215D01*
X7743Y-142101D01*
X7714Y-141987D01*
X7681Y-141875D01*
X7644Y-141764D01*
X7604Y-141654D01*
X7560Y-141546D01*
X7513Y-141439D01*
X7462Y-141333D01*
X7407Y-141230D01*
X7349Y-141128D01*
X7288Y-141029D01*
X7224Y-140931D01*
X7156Y-140836D01*
X7085Y-140743D01*
X7011Y-140652D01*
X6934Y-140564D01*
X6854Y-140479D01*
X6771Y-140396D01*
X6686Y-140316D01*
X6598Y-140239D01*
X6507Y-140165D01*
X6414Y-140094D01*
X6319Y-140026D01*
X6221Y-139962D01*
X6122Y-139901D01*
X6020Y-139843D01*
X5917Y-139788D01*
X5811Y-139737D01*
X5704Y-139690D01*
X5596Y-139646D01*
X5486Y-139606D01*
X5375Y-139569D01*
X5263Y-139536D01*
X5149Y-139507D01*
X5035Y-139482D01*
X4920Y-139461D01*
X4805Y-139443D01*
X4688Y-139430D01*
X4572Y-139420D01*
X4455Y-139414D01*
X4338Y-139412D01*
X4338Y-139413D02*
X2589Y-139413D01*
X2589Y-139412D02*
X2472Y-139414D01*
X2355Y-139420D01*
X2239Y-139430D01*
X2122Y-139443D01*
X2007Y-139461D01*
X1892Y-139482D01*
X1778Y-139507D01*
X1664Y-139536D01*
X1552Y-139569D01*
X1441Y-139606D01*
X1331Y-139646D01*
X1223Y-139690D01*
X1116Y-139737D01*
X1010Y-139788D01*
X907Y-139843D01*
X805Y-139901D01*
X706Y-139962D01*
X608Y-140026D01*
X513Y-140094D01*
X420Y-140165D01*
X329Y-140239D01*
X241Y-140316D01*
X156Y-140396D01*
X73Y-140479D01*
X-7Y-140564D01*
X-84Y-140652D01*
X-158Y-140743D01*
X-229Y-140836D01*
X-297Y-140931D01*
X-361Y-141029D01*
X-422Y-141128D01*
X-480Y-141230D01*
X-535Y-141333D01*
X-586Y-141439D01*
X-633Y-141546D01*
X-677Y-141654D01*
X-717Y-141764D01*
X-754Y-141875D01*
X-787Y-141987D01*
X-816Y-142101D01*
X-841Y-142215D01*
X-862Y-142330D01*
X-880Y-142445D01*
X-893Y-142562D01*
X-903Y-142678D01*
X-909Y-142795D01*
X-911Y-142912D01*
X-911Y-148162D01*
X-7910Y-148162D01*
X-7910Y-139413D01*
X-5723Y-131219D02*
X-5443Y-131351D01*
X-5160Y-131477D01*
X-4874Y-131596D01*
X-4585Y-131708D01*
X-4293Y-131813D01*
X-3999Y-131911D01*
X-3703Y-132002D01*
X-3405Y-132086D01*
X-3105Y-132163D01*
X-2803Y-132233D01*
X-2500Y-132295D01*
X-2195Y-132350D01*
X-1889Y-132398D01*
X-1581Y-132439D01*
X-1273Y-132472D01*
X-965Y-132498D01*
X-655Y-132516D01*
X-346Y-132527D01*
X-36Y-132531D01*
X-5723Y-131218D02*
X-5828Y-131180D01*
X-5931Y-131138D01*
X-6033Y-131093D01*
X-6134Y-131045D01*
X-6232Y-130993D01*
X-6329Y-130937D01*
X-6424Y-130879D01*
X-6517Y-130817D01*
X-6607Y-130752D01*
X-6695Y-130683D01*
X-6781Y-130612D01*
X-6865Y-130538D01*
X-6945Y-130461D01*
X-7024Y-130382D01*
X-7099Y-130299D01*
X-7171Y-130214D01*
X-7241Y-130127D01*
X-7307Y-130037D01*
X-7370Y-129946D01*
X-7430Y-129852D01*
X-7487Y-129756D01*
X-7541Y-129658D01*
X-7591Y-129558D01*
X-7637Y-129457D01*
X-7680Y-129354D01*
X-7720Y-129249D01*
X-7756Y-129144D01*
X-7788Y-129037D01*
X-7816Y-128929D01*
X-7841Y-128820D01*
X-7862Y-128711D01*
X-7879Y-128601D01*
X-7893Y-128490D01*
X-7902Y-128379D01*
X-7908Y-128268D01*
X-7910Y-128156D01*
X-7908Y-128044D01*
X-7902Y-127933D01*
X-7893Y-127822D01*
X-7879Y-127711D01*
X-7862Y-127601D01*
X-7841Y-127492D01*
X-7816Y-127383D01*
X-7788Y-127275D01*
X-7756Y-127168D01*
X-7720Y-127063D01*
X-7680Y-126958D01*
X-7637Y-126855D01*
X-7591Y-126754D01*
X-7541Y-126654D01*
X-7487Y-126556D01*
X-7430Y-126460D01*
X-7370Y-126366D01*
X-7307Y-126275D01*
X-7241Y-126185D01*
X-7171Y-126098D01*
X-7099Y-126013D01*
X-7024Y-125930D01*
X-6945Y-125851D01*
X-6865Y-125774D01*
X-6781Y-125700D01*
X-6695Y-125629D01*
X-6607Y-125560D01*
X-6517Y-125495D01*
X-6424Y-125433D01*
X-6329Y-125375D01*
X-6232Y-125319D01*
X-6134Y-125267D01*
X-6033Y-125219D01*
X-5931Y-125174D01*
X-5828Y-125132D01*
X-5723Y-125094D01*
X-5443Y-124962D01*
X-5159Y-124836D01*
X-4873Y-124717D01*
X-4584Y-124605D01*
X-4293Y-124500D01*
X-3999Y-124402D01*
X-3703Y-124311D01*
X-3405Y-124227D01*
X-3105Y-124150D01*
X-2803Y-124080D01*
X-2499Y-124018D01*
X-2195Y-123963D01*
X-1889Y-123915D01*
X-1581Y-123874D01*
X-1273Y-123841D01*
X-965Y-123815D01*
X-655Y-123797D01*
X-346Y-123786D01*
X-36Y-123782D01*
X-36Y-132531D02*
X274Y-132527D01*
X583Y-132516D01*
X893Y-132498D01*
X1201Y-132472D01*
X1509Y-132439D01*
X1817Y-132398D01*
X2123Y-132350D01*
X2428Y-132295D01*
X2731Y-132233D01*
X3033Y-132163D01*
X3333Y-132086D01*
X3631Y-132002D01*
X3927Y-131911D01*
X4221Y-131813D01*
X4513Y-131708D01*
X4802Y-131596D01*
X5088Y-131477D01*
X5371Y-131351D01*
X5651Y-131219D01*
X5651Y-131218D02*
X5756Y-131180D01*
X5859Y-131138D01*
X5961Y-131093D01*
X6062Y-131045D01*
X6160Y-130993D01*
X6257Y-130937D01*
X6352Y-130879D01*
X6445Y-130817D01*
X6535Y-130752D01*
X6624Y-130683D01*
X6709Y-130612D01*
X6793Y-130538D01*
X6874Y-130461D01*
X6952Y-130382D01*
X7027Y-130299D01*
X7099Y-130214D01*
X7169Y-130127D01*
X7235Y-130037D01*
X7298Y-129946D01*
X7358Y-129852D01*
X7415Y-129756D01*
X7469Y-129658D01*
X7519Y-129558D01*
X7565Y-129457D01*
X7608Y-129354D01*
X7648Y-129249D01*
X7684Y-129144D01*
X7716Y-129037D01*
X7744Y-128929D01*
X7769Y-128820D01*
X7790Y-128711D01*
X7807Y-128601D01*
X7821Y-128490D01*
X7830Y-128379D01*
X7836Y-128268D01*
X7838Y-128156D01*
X5651Y-125094D02*
X5371Y-124962D01*
X5087Y-124836D01*
X4801Y-124717D01*
X4512Y-124605D01*
X4221Y-124500D01*
X3927Y-124402D01*
X3631Y-124311D01*
X3333Y-124227D01*
X3033Y-124150D01*
X2731Y-124080D01*
X2427Y-124018D01*
X2123Y-123963D01*
X1817Y-123915D01*
X1509Y-123874D01*
X1201Y-123841D01*
X893Y-123815D01*
X583Y-123797D01*
X274Y-123786D01*
X-36Y-123782D01*
X5651Y-125094D02*
X5756Y-125132D01*
X5859Y-125174D01*
X5961Y-125219D01*
X6062Y-125267D01*
X6160Y-125319D01*
X6257Y-125375D01*
X6352Y-125433D01*
X6445Y-125495D01*
X6535Y-125560D01*
X6623Y-125629D01*
X6709Y-125700D01*
X6793Y-125774D01*
X6874Y-125851D01*
X6952Y-125930D01*
X7027Y-126013D01*
X7099Y-126098D01*
X7169Y-126185D01*
X7235Y-126275D01*
X7298Y-126366D01*
X7358Y-126460D01*
X7415Y-126556D01*
X7469Y-126654D01*
X7519Y-126754D01*
X7565Y-126855D01*
X7608Y-126958D01*
X7648Y-127063D01*
X7684Y-127168D01*
X7716Y-127275D01*
X7744Y-127383D01*
X7769Y-127492D01*
X7790Y-127601D01*
X7807Y-127711D01*
X7821Y-127822D01*
X7830Y-127933D01*
X7836Y-128044D01*
X7838Y-128156D01*
X4338Y-131655D02*
X-4410Y-124656D01*
X-36Y-116899D02*
X-346Y-116895D01*
X-655Y-116884D01*
X-965Y-116866D01*
X-1273Y-116840D01*
X-1581Y-116807D01*
X-1889Y-116766D01*
X-2195Y-116718D01*
X-2500Y-116663D01*
X-2803Y-116601D01*
X-3105Y-116531D01*
X-3405Y-116454D01*
X-3703Y-116370D01*
X-3999Y-116279D01*
X-4293Y-116181D01*
X-4585Y-116076D01*
X-4874Y-115964D01*
X-5160Y-115845D01*
X-5443Y-115719D01*
X-5723Y-115587D01*
X-5828Y-115549D01*
X-5931Y-115507D01*
X-6033Y-115462D01*
X-6134Y-115414D01*
X-6232Y-115362D01*
X-6329Y-115306D01*
X-6424Y-115248D01*
X-6517Y-115186D01*
X-6607Y-115121D01*
X-6695Y-115052D01*
X-6781Y-114981D01*
X-6865Y-114907D01*
X-6945Y-114830D01*
X-7024Y-114751D01*
X-7099Y-114668D01*
X-7171Y-114583D01*
X-7241Y-114496D01*
X-7307Y-114406D01*
X-7370Y-114315D01*
X-7430Y-114221D01*
X-7487Y-114125D01*
X-7541Y-114027D01*
X-7591Y-113927D01*
X-7637Y-113826D01*
X-7680Y-113723D01*
X-7720Y-113618D01*
X-7756Y-113513D01*
X-7788Y-113406D01*
X-7816Y-113298D01*
X-7841Y-113189D01*
X-7862Y-113080D01*
X-7879Y-112970D01*
X-7893Y-112859D01*
X-7902Y-112748D01*
X-7908Y-112637D01*
X-7910Y-112525D01*
X-7908Y-112413D01*
X-7902Y-112302D01*
X-7893Y-112191D01*
X-7879Y-112080D01*
X-7862Y-111970D01*
X-7841Y-111861D01*
X-7816Y-111752D01*
X-7788Y-111644D01*
X-7756Y-111537D01*
X-7720Y-111432D01*
X-7680Y-111327D01*
X-7637Y-111224D01*
X-7591Y-111123D01*
X-7541Y-111023D01*
X-7487Y-110925D01*
X-7430Y-110829D01*
X-7370Y-110735D01*
X-7307Y-110644D01*
X-7241Y-110554D01*
X-7171Y-110467D01*
X-7099Y-110382D01*
X-7024Y-110299D01*
X-6945Y-110220D01*
X-6865Y-110143D01*
X-6781Y-110069D01*
X-6695Y-109998D01*
X-6607Y-109929D01*
X-6517Y-109864D01*
X-6424Y-109802D01*
X-6329Y-109744D01*
X-6232Y-109688D01*
X-6134Y-109636D01*
X-6033Y-109588D01*
X-5931Y-109543D01*
X-5828Y-109501D01*
X-5723Y-109463D01*
X-5723Y-109462D02*
X-5443Y-109330D01*
X-5159Y-109204D01*
X-4873Y-109085D01*
X-4584Y-108973D01*
X-4293Y-108868D01*
X-3999Y-108770D01*
X-3703Y-108679D01*
X-3405Y-108595D01*
X-3105Y-108518D01*
X-2803Y-108448D01*
X-2499Y-108386D01*
X-2195Y-108331D01*
X-1889Y-108283D01*
X-1581Y-108242D01*
X-1273Y-108209D01*
X-965Y-108183D01*
X-655Y-108165D01*
X-346Y-108154D01*
X-36Y-108150D01*
X-36Y-116899D02*
X274Y-116895D01*
X583Y-116884D01*
X893Y-116866D01*
X1201Y-116840D01*
X1509Y-116807D01*
X1817Y-116766D01*
X2123Y-116718D01*
X2428Y-116663D01*
X2731Y-116601D01*
X3033Y-116531D01*
X3333Y-116454D01*
X3631Y-116370D01*
X3927Y-116279D01*
X4221Y-116181D01*
X4513Y-116076D01*
X4802Y-115964D01*
X5088Y-115845D01*
X5371Y-115719D01*
X5651Y-115587D01*
X5756Y-115549D01*
X5859Y-115507D01*
X5961Y-115462D01*
X6062Y-115414D01*
X6160Y-115362D01*
X6257Y-115306D01*
X6352Y-115248D01*
X6445Y-115186D01*
X6535Y-115121D01*
X6624Y-115052D01*
X6709Y-114981D01*
X6793Y-114907D01*
X6874Y-114830D01*
X6952Y-114751D01*
X7027Y-114668D01*
X7099Y-114583D01*
X7169Y-114496D01*
X7235Y-114406D01*
X7298Y-114315D01*
X7358Y-114221D01*
X7415Y-114125D01*
X7469Y-114027D01*
X7519Y-113927D01*
X7565Y-113826D01*
X7608Y-113723D01*
X7648Y-113618D01*
X7684Y-113513D01*
X7716Y-113406D01*
X7744Y-113298D01*
X7769Y-113189D01*
X7790Y-113080D01*
X7807Y-112970D01*
X7821Y-112859D01*
X7830Y-112748D01*
X7836Y-112637D01*
X7838Y-112525D01*
X5651Y-109462D02*
X5371Y-109330D01*
X5087Y-109204D01*
X4801Y-109085D01*
X4512Y-108973D01*
X4221Y-108868D01*
X3927Y-108770D01*
X3631Y-108679D01*
X3333Y-108595D01*
X3033Y-108518D01*
X2731Y-108448D01*
X2427Y-108386D01*
X2123Y-108331D01*
X1817Y-108283D01*
X1509Y-108242D01*
X1201Y-108209D01*
X893Y-108183D01*
X583Y-108165D01*
X274Y-108154D01*
X-36Y-108150D01*
X5651Y-109463D02*
X5756Y-109501D01*
X5859Y-109543D01*
X5961Y-109588D01*
X6062Y-109636D01*
X6160Y-109688D01*
X6257Y-109744D01*
X6352Y-109802D01*
X6445Y-109864D01*
X6535Y-109929D01*
X6623Y-109998D01*
X6709Y-110069D01*
X6793Y-110143D01*
X6874Y-110220D01*
X6952Y-110299D01*
X7027Y-110382D01*
X7099Y-110467D01*
X7169Y-110554D01*
X7235Y-110644D01*
X7298Y-110735D01*
X7358Y-110829D01*
X7415Y-110925D01*
X7469Y-111023D01*
X7519Y-111123D01*
X7565Y-111224D01*
X7608Y-111327D01*
X7648Y-111432D01*
X7684Y-111537D01*
X7716Y-111644D01*
X7744Y-111752D01*
X7769Y-111861D01*
X7790Y-111970D01*
X7807Y-112080D01*
X7821Y-112191D01*
X7830Y-112302D01*
X7836Y-112413D01*
X7838Y-112525D01*
X4338Y-116024D02*
X-4410Y-109025D01*
X-911Y-92156D02*
X-911Y-87782D01*
X-910Y-87782D02*
X-908Y-87651D01*
X-902Y-87520D01*
X-892Y-87390D01*
X-879Y-87260D01*
X-861Y-87130D01*
X-840Y-87001D01*
X-814Y-86873D01*
X-785Y-86745D01*
X-752Y-86618D01*
X-716Y-86493D01*
X-675Y-86368D01*
X-631Y-86245D01*
X-583Y-86123D01*
X-532Y-86003D01*
X-477Y-85884D01*
X-418Y-85767D01*
X-356Y-85652D01*
X-291Y-85539D01*
X-222Y-85427D01*
X-150Y-85318D01*
X-75Y-85211D01*
X4Y-85106D01*
X85Y-85004D01*
X170Y-84904D01*
X258Y-84807D01*
X348Y-84712D01*
X441Y-84620D01*
X537Y-84531D01*
X636Y-84445D01*
X737Y-84362D01*
X840Y-84282D01*
X946Y-84205D01*
X1054Y-84132D01*
X1165Y-84061D01*
X1277Y-83994D01*
X1391Y-83930D01*
X1507Y-83870D01*
X1625Y-83813D01*
X1745Y-83760D01*
X1866Y-83710D01*
X1989Y-83664D01*
X2112Y-83622D01*
X2237Y-83584D01*
X2364Y-83549D01*
X2491Y-83518D01*
X2619Y-83490D01*
X2747Y-83467D01*
X2877Y-83448D01*
X3007Y-83432D01*
X3137Y-83420D01*
X3268Y-83412D01*
X3399Y-83408D01*
X3529Y-83408D01*
X3660Y-83412D01*
X3791Y-83420D01*
X3921Y-83432D01*
X4051Y-83448D01*
X4181Y-83467D01*
X4309Y-83490D01*
X4437Y-83518D01*
X4564Y-83549D01*
X4691Y-83584D01*
X4816Y-83622D01*
X4939Y-83664D01*
X5062Y-83710D01*
X5183Y-83760D01*
X5303Y-83813D01*
X5421Y-83870D01*
X5537Y-83930D01*
X5651Y-83994D01*
X5763Y-84061D01*
X5874Y-84132D01*
X5982Y-84205D01*
X6088Y-84282D01*
X6191Y-84362D01*
X6292Y-84445D01*
X6391Y-84531D01*
X6487Y-84620D01*
X6580Y-84712D01*
X6670Y-84807D01*
X6758Y-84904D01*
X6843Y-85004D01*
X6924Y-85106D01*
X7003Y-85211D01*
X7078Y-85318D01*
X7150Y-85427D01*
X7219Y-85539D01*
X7284Y-85652D01*
X7346Y-85767D01*
X7405Y-85884D01*
X7460Y-86003D01*
X7511Y-86123D01*
X7559Y-86245D01*
X7603Y-86368D01*
X7644Y-86493D01*
X7680Y-86618D01*
X7713Y-86745D01*
X7742Y-86873D01*
X7768Y-87001D01*
X7789Y-87130D01*
X7807Y-87260D01*
X7820Y-87390D01*
X7830Y-87520D01*
X7836Y-87651D01*
X7838Y-87782D01*
X7838Y-92156D01*
X-7910Y-92156D01*
X-7910Y-87782D01*
X-7908Y-87664D01*
X-7902Y-87546D01*
X-7892Y-87428D01*
X-7878Y-87311D01*
X-7860Y-87194D01*
X-7838Y-87077D01*
X-7813Y-86962D01*
X-7783Y-86848D01*
X-7749Y-86734D01*
X-7712Y-86622D01*
X-7671Y-86511D01*
X-7626Y-86402D01*
X-7578Y-86294D01*
X-7526Y-86188D01*
X-7470Y-86083D01*
X-7411Y-85981D01*
X-7349Y-85881D01*
X-7283Y-85783D01*
X-7214Y-85687D01*
X-7141Y-85593D01*
X-7066Y-85502D01*
X-6987Y-85414D01*
X-6906Y-85328D01*
X-6821Y-85245D01*
X-6734Y-85165D01*
X-6645Y-85088D01*
X-6552Y-85014D01*
X-6458Y-84944D01*
X-6361Y-84876D01*
X-6261Y-84812D01*
X-6160Y-84751D01*
X-6057Y-84694D01*
X-5951Y-84640D01*
X-5844Y-84589D01*
X-5736Y-84543D01*
X-5626Y-84500D01*
X-5514Y-84461D01*
X-5401Y-84425D01*
X-5287Y-84394D01*
X-5172Y-84366D01*
X-5057Y-84342D01*
X-4940Y-84322D01*
X-4823Y-84306D01*
X-4705Y-84294D01*
X-4587Y-84286D01*
X-4469Y-84282D01*
X-4351Y-84282D01*
X-4233Y-84286D01*
X-4115Y-84294D01*
X-3997Y-84306D01*
X-3880Y-84322D01*
X-3763Y-84342D01*
X-3648Y-84366D01*
X-3533Y-84394D01*
X-3419Y-84425D01*
X-3306Y-84461D01*
X-3194Y-84500D01*
X-3084Y-84543D01*
X-2976Y-84589D01*
X-2869Y-84640D01*
X-2763Y-84694D01*
X-2660Y-84751D01*
X-2559Y-84812D01*
X-2459Y-84876D01*
X-2362Y-84944D01*
X-2268Y-85014D01*
X-2175Y-85088D01*
X-2086Y-85165D01*
X-1999Y-85245D01*
X-1914Y-85328D01*
X-1833Y-85414D01*
X-1754Y-85502D01*
X-1679Y-85593D01*
X-1606Y-85687D01*
X-1537Y-85783D01*
X-1471Y-85881D01*
X-1409Y-85981D01*
X-1350Y-86083D01*
X-1294Y-86188D01*
X-1242Y-86294D01*
X-1194Y-86402D01*
X-1149Y-86511D01*
X-1108Y-86622D01*
X-1071Y-86734D01*
X-1037Y-86848D01*
X-1007Y-86962D01*
X-982Y-87077D01*
X-960Y-87194D01*
X-942Y-87311D01*
X-928Y-87428D01*
X-918Y-87546D01*
X-912Y-87664D01*
X-910Y-87782D01*
X1714Y-74493D02*
X1714Y-70556D01*
X1714Y-74493D02*
X1716Y-74602D01*
X1722Y-74711D01*
X1732Y-74820D01*
X1745Y-74929D01*
X1763Y-75037D01*
X1784Y-75144D01*
X1809Y-75250D01*
X1838Y-75356D01*
X1871Y-75460D01*
X1907Y-75563D01*
X1947Y-75665D01*
X1991Y-75765D01*
X2038Y-75864D01*
X2089Y-75960D01*
X2143Y-76055D01*
X2200Y-76148D01*
X2261Y-76239D01*
X2325Y-76328D01*
X2392Y-76414D01*
X2462Y-76498D01*
X2535Y-76580D01*
X2611Y-76658D01*
X2689Y-76734D01*
X2771Y-76807D01*
X2855Y-76877D01*
X2941Y-76944D01*
X3030Y-77008D01*
X3121Y-77069D01*
X3214Y-77126D01*
X3309Y-77180D01*
X3405Y-77231D01*
X3504Y-77278D01*
X3604Y-77322D01*
X3706Y-77362D01*
X3809Y-77398D01*
X3913Y-77431D01*
X4019Y-77460D01*
X4125Y-77485D01*
X4232Y-77506D01*
X4340Y-77524D01*
X4449Y-77537D01*
X4558Y-77547D01*
X4667Y-77553D01*
X4776Y-77555D01*
X4885Y-77553D01*
X4994Y-77547D01*
X5103Y-77537D01*
X5212Y-77524D01*
X5320Y-77506D01*
X5427Y-77485D01*
X5533Y-77460D01*
X5639Y-77431D01*
X5743Y-77398D01*
X5846Y-77362D01*
X5948Y-77322D01*
X6048Y-77278D01*
X6147Y-77231D01*
X6243Y-77180D01*
X6338Y-77126D01*
X6431Y-77069D01*
X6522Y-77008D01*
X6611Y-76944D01*
X6697Y-76877D01*
X6781Y-76807D01*
X6863Y-76734D01*
X6941Y-76658D01*
X7017Y-76580D01*
X7090Y-76498D01*
X7160Y-76414D01*
X7227Y-76328D01*
X7291Y-76239D01*
X7352Y-76148D01*
X7409Y-76055D01*
X7463Y-75960D01*
X7514Y-75864D01*
X7561Y-75765D01*
X7605Y-75665D01*
X7645Y-75563D01*
X7681Y-75460D01*
X7714Y-75356D01*
X7743Y-75250D01*
X7768Y-75144D01*
X7789Y-75037D01*
X7807Y-74929D01*
X7820Y-74820D01*
X7830Y-74711D01*
X7836Y-74602D01*
X7838Y-74493D01*
X7838Y-70556D01*
X-36Y-70556D01*
X-137Y-70558D01*
X-237Y-70564D01*
X-337Y-70573D01*
X-437Y-70587D01*
X-536Y-70604D01*
X-634Y-70625D01*
X-732Y-70650D01*
X-828Y-70678D01*
X-923Y-70711D01*
X-1017Y-70746D01*
X-1110Y-70786D01*
X-1201Y-70829D01*
X-1290Y-70875D01*
X-1377Y-70925D01*
X-1463Y-70978D01*
X-1546Y-71034D01*
X-1627Y-71093D01*
X-1706Y-71156D01*
X-1782Y-71221D01*
X-1856Y-71290D01*
X-1927Y-71361D01*
X-1996Y-71435D01*
X-2061Y-71511D01*
X-2124Y-71590D01*
X-2183Y-71671D01*
X-2239Y-71754D01*
X-2292Y-71840D01*
X-2342Y-71927D01*
X-2388Y-72016D01*
X-2431Y-72107D01*
X-2471Y-72200D01*
X-2507Y-72294D01*
X-2539Y-72389D01*
X-2567Y-72485D01*
X-2592Y-72583D01*
X-2613Y-72681D01*
X-2630Y-72780D01*
X-2644Y-72880D01*
X-2653Y-72980D01*
X-2659Y-73080D01*
X-2661Y-73181D01*
X-2661Y-76680D01*
X-2661Y-64748D02*
X-2661Y-59499D01*
X-7910Y-62998D02*
X5213Y-62998D01*
X5213Y-62999D02*
X5314Y-62997D01*
X5414Y-62991D01*
X5514Y-62982D01*
X5614Y-62968D01*
X5713Y-62951D01*
X5811Y-62930D01*
X5909Y-62905D01*
X6005Y-62877D01*
X6100Y-62844D01*
X6194Y-62809D01*
X6287Y-62769D01*
X6378Y-62726D01*
X6467Y-62680D01*
X6554Y-62630D01*
X6640Y-62577D01*
X6723Y-62521D01*
X6804Y-62462D01*
X6883Y-62399D01*
X6959Y-62334D01*
X7033Y-62265D01*
X7104Y-62194D01*
X7173Y-62120D01*
X7238Y-62044D01*
X7301Y-61965D01*
X7360Y-61884D01*
X7416Y-61801D01*
X7469Y-61715D01*
X7519Y-61628D01*
X7565Y-61539D01*
X7608Y-61448D01*
X7648Y-61355D01*
X7684Y-61261D01*
X7716Y-61166D01*
X7744Y-61070D01*
X7769Y-60972D01*
X7790Y-60874D01*
X7807Y-60775D01*
X7821Y-60675D01*
X7830Y-60575D01*
X7836Y-60475D01*
X7838Y-60374D01*
X7838Y-59499D01*
X-2661Y-54848D02*
X-2661Y-49599D01*
X-7910Y-53099D02*
X5213Y-53099D01*
X5314Y-53097D01*
X5414Y-53091D01*
X5514Y-53082D01*
X5614Y-53068D01*
X5713Y-53051D01*
X5811Y-53030D01*
X5909Y-53005D01*
X6005Y-52977D01*
X6100Y-52944D01*
X6194Y-52909D01*
X6287Y-52869D01*
X6378Y-52826D01*
X6467Y-52780D01*
X6554Y-52730D01*
X6640Y-52677D01*
X6723Y-52621D01*
X6804Y-52562D01*
X6883Y-52499D01*
X6959Y-52434D01*
X7033Y-52365D01*
X7104Y-52294D01*
X7173Y-52220D01*
X7238Y-52144D01*
X7301Y-52065D01*
X7360Y-51984D01*
X7416Y-51901D01*
X7469Y-51815D01*
X7519Y-51728D01*
X7565Y-51639D01*
X7608Y-51548D01*
X7648Y-51455D01*
X7684Y-51361D01*
X7716Y-51266D01*
X7744Y-51170D01*
X7769Y-51072D01*
X7790Y-50974D01*
X7807Y-50875D01*
X7821Y-50775D01*
X7830Y-50675D01*
X7836Y-50575D01*
X7838Y-50474D01*
X7838Y-49599D01*
X7838Y-40975D02*
X7838Y-36600D01*
X7838Y-40975D02*
X7836Y-41076D01*
X7830Y-41176D01*
X7821Y-41276D01*
X7807Y-41376D01*
X7790Y-41475D01*
X7769Y-41573D01*
X7744Y-41671D01*
X7716Y-41767D01*
X7683Y-41862D01*
X7648Y-41956D01*
X7608Y-42049D01*
X7565Y-42140D01*
X7519Y-42229D01*
X7469Y-42316D01*
X7416Y-42402D01*
X7360Y-42485D01*
X7301Y-42566D01*
X7238Y-42645D01*
X7173Y-42721D01*
X7104Y-42795D01*
X7033Y-42866D01*
X6959Y-42935D01*
X6883Y-43000D01*
X6804Y-43063D01*
X6723Y-43122D01*
X6640Y-43178D01*
X6554Y-43231D01*
X6467Y-43281D01*
X6378Y-43327D01*
X6287Y-43370D01*
X6194Y-43410D01*
X6100Y-43445D01*
X6005Y-43478D01*
X5909Y-43506D01*
X5811Y-43531D01*
X5713Y-43552D01*
X5614Y-43569D01*
X5514Y-43583D01*
X5414Y-43592D01*
X5314Y-43598D01*
X5213Y-43600D01*
X5213Y-43599D02*
X839Y-43599D01*
X839Y-43600D02*
X721Y-43598D01*
X603Y-43592D01*
X485Y-43582D01*
X368Y-43568D01*
X251Y-43550D01*
X134Y-43528D01*
X19Y-43503D01*
X-95Y-43473D01*
X-209Y-43439D01*
X-321Y-43402D01*
X-432Y-43361D01*
X-541Y-43316D01*
X-649Y-43268D01*
X-755Y-43216D01*
X-860Y-43160D01*
X-962Y-43101D01*
X-1062Y-43039D01*
X-1160Y-42973D01*
X-1256Y-42904D01*
X-1350Y-42831D01*
X-1441Y-42756D01*
X-1529Y-42677D01*
X-1615Y-42596D01*
X-1698Y-42511D01*
X-1778Y-42424D01*
X-1855Y-42335D01*
X-1929Y-42242D01*
X-1999Y-42148D01*
X-2067Y-42051D01*
X-2131Y-41951D01*
X-2192Y-41850D01*
X-2249Y-41747D01*
X-2303Y-41641D01*
X-2354Y-41534D01*
X-2400Y-41426D01*
X-2443Y-41316D01*
X-2482Y-41204D01*
X-2518Y-41091D01*
X-2549Y-40977D01*
X-2577Y-40862D01*
X-2601Y-40747D01*
X-2621Y-40630D01*
X-2637Y-40513D01*
X-2649Y-40395D01*
X-2657Y-40277D01*
X-2661Y-40159D01*
X-2661Y-40041D01*
X-2657Y-39923D01*
X-2649Y-39805D01*
X-2637Y-39687D01*
X-2621Y-39570D01*
X-2601Y-39453D01*
X-2577Y-39338D01*
X-2549Y-39223D01*
X-2518Y-39109D01*
X-2482Y-38996D01*
X-2443Y-38884D01*
X-2400Y-38774D01*
X-2354Y-38666D01*
X-2303Y-38559D01*
X-2249Y-38453D01*
X-2192Y-38350D01*
X-2131Y-38249D01*
X-2067Y-38149D01*
X-1999Y-38052D01*
X-1929Y-37958D01*
X-1855Y-37865D01*
X-1778Y-37776D01*
X-1698Y-37689D01*
X-1615Y-37604D01*
X-1529Y-37523D01*
X-1441Y-37444D01*
X-1350Y-37369D01*
X-1256Y-37296D01*
X-1160Y-37227D01*
X-1062Y-37161D01*
X-962Y-37099D01*
X-860Y-37040D01*
X-755Y-36984D01*
X-649Y-36932D01*
X-541Y-36884D01*
X-432Y-36839D01*
X-321Y-36798D01*
X-209Y-36761D01*
X-95Y-36727D01*
X19Y-36697D01*
X134Y-36672D01*
X251Y-36650D01*
X368Y-36632D01*
X485Y-36618D01*
X603Y-36608D01*
X721Y-36602D01*
X839Y-36600D01*
X2589Y-36600D01*
X2589Y-43599D01*
X7838Y-29429D02*
X-2661Y-29429D01*
X-2661Y-24180D01*
X-911Y-24180D01*
X13087Y-19632D02*
X13087Y-17882D01*
X-2661Y-12632D01*
X-2661Y-19632D02*
X7838Y-16132D01*
X7838Y2419D02*
X-7910Y2419D01*
X-911Y2419D02*
X-911Y11168D01*
X-7910Y11168D02*
X7838Y11168D01*
X4338Y18404D02*
X839Y18404D01*
X721Y18406D01*
X603Y18412D01*
X485Y18422D01*
X368Y18436D01*
X251Y18454D01*
X134Y18476D01*
X19Y18501D01*
X-95Y18531D01*
X-209Y18565D01*
X-321Y18602D01*
X-432Y18643D01*
X-541Y18688D01*
X-649Y18736D01*
X-755Y18788D01*
X-860Y18844D01*
X-962Y18903D01*
X-1062Y18965D01*
X-1160Y19031D01*
X-1256Y19100D01*
X-1350Y19173D01*
X-1441Y19248D01*
X-1529Y19327D01*
X-1615Y19408D01*
X-1698Y19493D01*
X-1778Y19580D01*
X-1855Y19669D01*
X-1929Y19762D01*
X-1999Y19856D01*
X-2067Y19953D01*
X-2131Y20053D01*
X-2192Y20154D01*
X-2249Y20257D01*
X-2303Y20363D01*
X-2354Y20470D01*
X-2400Y20578D01*
X-2443Y20688D01*
X-2482Y20800D01*
X-2518Y20913D01*
X-2549Y21027D01*
X-2577Y21142D01*
X-2601Y21257D01*
X-2621Y21374D01*
X-2637Y21491D01*
X-2649Y21609D01*
X-2657Y21727D01*
X-2661Y21845D01*
X-2661Y21963D01*
X-2657Y22081D01*
X-2649Y22199D01*
X-2637Y22317D01*
X-2621Y22434D01*
X-2601Y22551D01*
X-2577Y22666D01*
X-2549Y22781D01*
X-2518Y22895D01*
X-2482Y23008D01*
X-2443Y23120D01*
X-2400Y23230D01*
X-2354Y23338D01*
X-2303Y23445D01*
X-2249Y23551D01*
X-2192Y23654D01*
X-2131Y23755D01*
X-2067Y23855D01*
X-1999Y23952D01*
X-1929Y24046D01*
X-1855Y24139D01*
X-1778Y24228D01*
X-1698Y24315D01*
X-1615Y24400D01*
X-1529Y24481D01*
X-1441Y24560D01*
X-1350Y24635D01*
X-1256Y24708D01*
X-1160Y24777D01*
X-1062Y24843D01*
X-962Y24905D01*
X-860Y24964D01*
X-755Y25020D01*
X-649Y25072D01*
X-541Y25120D01*
X-432Y25165D01*
X-321Y25206D01*
X-209Y25243D01*
X-95Y25277D01*
X19Y25307D01*
X134Y25332D01*
X251Y25354D01*
X368Y25372D01*
X485Y25386D01*
X603Y25396D01*
X721Y25402D01*
X839Y25404D01*
X4338Y25404D01*
X4456Y25402D01*
X4574Y25396D01*
X4692Y25386D01*
X4809Y25372D01*
X4926Y25354D01*
X5043Y25332D01*
X5158Y25307D01*
X5272Y25277D01*
X5386Y25243D01*
X5498Y25206D01*
X5609Y25165D01*
X5718Y25120D01*
X5826Y25072D01*
X5932Y25020D01*
X6037Y24964D01*
X6139Y24905D01*
X6239Y24843D01*
X6337Y24777D01*
X6433Y24708D01*
X6527Y24635D01*
X6618Y24560D01*
X6706Y24481D01*
X6792Y24400D01*
X6875Y24315D01*
X6955Y24228D01*
X7032Y24139D01*
X7106Y24046D01*
X7176Y23952D01*
X7244Y23855D01*
X7308Y23755D01*
X7369Y23654D01*
X7426Y23551D01*
X7480Y23445D01*
X7531Y23338D01*
X7577Y23230D01*
X7620Y23120D01*
X7659Y23008D01*
X7695Y22895D01*
X7726Y22781D01*
X7754Y22666D01*
X7778Y22551D01*
X7798Y22434D01*
X7814Y22317D01*
X7826Y22199D01*
X7834Y22081D01*
X7838Y21963D01*
X7838Y21845D01*
X7834Y21727D01*
X7826Y21609D01*
X7814Y21491D01*
X7798Y21374D01*
X7778Y21257D01*
X7754Y21142D01*
X7726Y21027D01*
X7695Y20913D01*
X7659Y20800D01*
X7620Y20688D01*
X7577Y20578D01*
X7531Y20470D01*
X7480Y20363D01*
X7426Y20257D01*
X7369Y20154D01*
X7308Y20053D01*
X7244Y19953D01*
X7176Y19856D01*
X7106Y19762D01*
X7032Y19669D01*
X6955Y19580D01*
X6875Y19493D01*
X6792Y19408D01*
X6706Y19327D01*
X6618Y19248D01*
X6527Y19173D01*
X6433Y19100D01*
X6337Y19031D01*
X6239Y18965D01*
X6139Y18903D01*
X6037Y18844D01*
X5932Y18788D01*
X5826Y18736D01*
X5718Y18688D01*
X5609Y18643D01*
X5498Y18602D01*
X5386Y18565D01*
X5272Y18531D01*
X5158Y18501D01*
X5043Y18476D01*
X4926Y18454D01*
X4809Y18436D01*
X4692Y18422D01*
X4574Y18412D01*
X4456Y18406D01*
X4338Y18404D01*
X5213Y32131D02*
X-7910Y32131D01*
X5213Y32130D02*
X5314Y32132D01*
X5414Y32138D01*
X5514Y32147D01*
X5614Y32161D01*
X5713Y32178D01*
X5811Y32199D01*
X5909Y32224D01*
X6005Y32252D01*
X6100Y32285D01*
X6194Y32320D01*
X6287Y32360D01*
X6378Y32403D01*
X6467Y32449D01*
X6554Y32499D01*
X6640Y32552D01*
X6723Y32608D01*
X6804Y32667D01*
X6883Y32730D01*
X6959Y32795D01*
X7033Y32864D01*
X7104Y32935D01*
X7173Y33009D01*
X7238Y33085D01*
X7301Y33164D01*
X7360Y33245D01*
X7416Y33328D01*
X7469Y33414D01*
X7519Y33501D01*
X7565Y33590D01*
X7608Y33681D01*
X7648Y33774D01*
X7684Y33868D01*
X7716Y33963D01*
X7744Y34059D01*
X7769Y34157D01*
X7790Y34255D01*
X7807Y34354D01*
X7821Y34454D01*
X7830Y34554D01*
X7836Y34654D01*
X7838Y34755D01*
X7838Y47199D02*
X-7910Y47199D01*
X7838Y47199D02*
X7838Y42825D01*
X7836Y42724D01*
X7830Y42624D01*
X7821Y42524D01*
X7807Y42424D01*
X7790Y42325D01*
X7769Y42227D01*
X7744Y42129D01*
X7716Y42033D01*
X7683Y41938D01*
X7648Y41844D01*
X7608Y41751D01*
X7565Y41660D01*
X7519Y41571D01*
X7469Y41484D01*
X7416Y41398D01*
X7360Y41315D01*
X7301Y41234D01*
X7238Y41155D01*
X7173Y41079D01*
X7104Y41005D01*
X7033Y40934D01*
X6959Y40865D01*
X6883Y40800D01*
X6804Y40737D01*
X6723Y40678D01*
X6640Y40622D01*
X6554Y40569D01*
X6467Y40519D01*
X6378Y40473D01*
X6287Y40430D01*
X6194Y40390D01*
X6100Y40355D01*
X6005Y40322D01*
X5909Y40294D01*
X5811Y40269D01*
X5713Y40248D01*
X5614Y40231D01*
X5514Y40217D01*
X5414Y40208D01*
X5314Y40202D01*
X5213Y40200D01*
X-36Y40200D01*
X-137Y40202D01*
X-237Y40208D01*
X-337Y40217D01*
X-437Y40231D01*
X-536Y40248D01*
X-634Y40269D01*
X-732Y40294D01*
X-828Y40322D01*
X-923Y40355D01*
X-1017Y40390D01*
X-1110Y40430D01*
X-1201Y40473D01*
X-1290Y40519D01*
X-1377Y40569D01*
X-1463Y40622D01*
X-1546Y40678D01*
X-1627Y40737D01*
X-1706Y40800D01*
X-1782Y40865D01*
X-1856Y40934D01*
X-1927Y41005D01*
X-1996Y41079D01*
X-2061Y41155D01*
X-2124Y41234D01*
X-2183Y41315D01*
X-2239Y41398D01*
X-2292Y41484D01*
X-2342Y41571D01*
X-2388Y41660D01*
X-2431Y41751D01*
X-2471Y41844D01*
X-2507Y41938D01*
X-2539Y42033D01*
X-2567Y42129D01*
X-2592Y42227D01*
X-2613Y42325D01*
X-2630Y42424D01*
X-2644Y42524D01*
X-2653Y42624D01*
X-2659Y42724D01*
X-2661Y42825D01*
X-2661Y47199D01*
X7838Y56981D02*
X7838Y61355D01*
X7838Y56981D02*
X7836Y56880D01*
X7830Y56780D01*
X7821Y56680D01*
X7807Y56580D01*
X7790Y56481D01*
X7769Y56383D01*
X7744Y56285D01*
X7716Y56189D01*
X7683Y56094D01*
X7648Y56000D01*
X7608Y55907D01*
X7565Y55816D01*
X7519Y55727D01*
X7469Y55640D01*
X7416Y55554D01*
X7360Y55471D01*
X7301Y55390D01*
X7238Y55311D01*
X7173Y55235D01*
X7104Y55161D01*
X7033Y55090D01*
X6959Y55021D01*
X6883Y54956D01*
X6804Y54893D01*
X6723Y54834D01*
X6640Y54778D01*
X6554Y54725D01*
X6467Y54675D01*
X6378Y54629D01*
X6287Y54586D01*
X6194Y54546D01*
X6100Y54511D01*
X6005Y54478D01*
X5909Y54450D01*
X5811Y54425D01*
X5713Y54404D01*
X5614Y54387D01*
X5514Y54373D01*
X5414Y54364D01*
X5314Y54358D01*
X5213Y54356D01*
X839Y54356D01*
X721Y54358D01*
X603Y54364D01*
X485Y54374D01*
X368Y54388D01*
X251Y54406D01*
X134Y54428D01*
X19Y54453D01*
X-95Y54483D01*
X-209Y54517D01*
X-321Y54554D01*
X-432Y54595D01*
X-541Y54640D01*
X-649Y54688D01*
X-755Y54740D01*
X-860Y54796D01*
X-962Y54855D01*
X-1062Y54917D01*
X-1160Y54983D01*
X-1256Y55052D01*
X-1350Y55125D01*
X-1441Y55200D01*
X-1529Y55279D01*
X-1615Y55360D01*
X-1698Y55445D01*
X-1778Y55532D01*
X-1855Y55621D01*
X-1929Y55714D01*
X-1999Y55808D01*
X-2067Y55905D01*
X-2131Y56005D01*
X-2192Y56106D01*
X-2249Y56209D01*
X-2303Y56315D01*
X-2354Y56422D01*
X-2400Y56530D01*
X-2443Y56640D01*
X-2482Y56752D01*
X-2518Y56865D01*
X-2549Y56979D01*
X-2577Y57094D01*
X-2601Y57209D01*
X-2621Y57326D01*
X-2637Y57443D01*
X-2649Y57561D01*
X-2657Y57679D01*
X-2661Y57797D01*
X-2661Y57915D01*
X-2657Y58033D01*
X-2649Y58151D01*
X-2637Y58269D01*
X-2621Y58386D01*
X-2601Y58503D01*
X-2577Y58618D01*
X-2549Y58733D01*
X-2518Y58847D01*
X-2482Y58960D01*
X-2443Y59072D01*
X-2400Y59182D01*
X-2354Y59290D01*
X-2303Y59397D01*
X-2249Y59503D01*
X-2192Y59606D01*
X-2131Y59707D01*
X-2067Y59807D01*
X-1999Y59904D01*
X-1929Y59998D01*
X-1855Y60091D01*
X-1778Y60180D01*
X-1698Y60267D01*
X-1615Y60352D01*
X-1529Y60433D01*
X-1441Y60512D01*
X-1350Y60587D01*
X-1256Y60660D01*
X-1160Y60729D01*
X-1062Y60795D01*
X-962Y60857D01*
X-860Y60916D01*
X-755Y60972D01*
X-649Y61024D01*
X-541Y61072D01*
X-432Y61117D01*
X-321Y61158D01*
X-209Y61195D01*
X-95Y61229D01*
X19Y61259D01*
X134Y61284D01*
X251Y61306D01*
X368Y61324D01*
X485Y61338D01*
X603Y61348D01*
X721Y61354D01*
X839Y61356D01*
X839Y61355D02*
X2589Y61355D01*
X2589Y54356D01*
X7838Y68526D02*
X-2661Y68526D01*
X-2661Y73776D01*
X-911Y73776D01*
X-2661Y86661D02*
X7838Y90160D01*
X-2661Y93660D01*
X-4410Y99854D02*
X-7910Y104228D01*
X7838Y104228D01*
X7838Y99854D02*
X7838Y108603D01*
X7838Y114733D02*
X6963Y114733D01*
X6963Y115608D01*
X7838Y115608D01*
X7838Y114733D01*
X-7910Y126550D02*
X-7908Y126674D01*
X-7902Y126797D01*
X-7893Y126921D01*
X-7879Y127043D01*
X-7862Y127166D01*
X-7840Y127288D01*
X-7815Y127409D01*
X-7786Y127529D01*
X-7754Y127648D01*
X-7717Y127767D01*
X-7677Y127884D01*
X-7634Y127999D01*
X-7586Y128114D01*
X-7535Y128226D01*
X-7481Y128337D01*
X-7423Y128447D01*
X-7362Y128554D01*
X-7297Y128660D01*
X-7229Y128763D01*
X-7158Y128864D01*
X-7084Y128963D01*
X-7007Y129060D01*
X-6926Y129154D01*
X-6843Y129245D01*
X-6757Y129334D01*
X-6668Y129420D01*
X-6577Y129503D01*
X-6483Y129584D01*
X-6386Y129661D01*
X-6287Y129735D01*
X-6186Y129806D01*
X-6083Y129874D01*
X-5977Y129939D01*
X-5870Y130000D01*
X-5760Y130058D01*
X-5649Y130112D01*
X-5537Y130163D01*
X-5422Y130211D01*
X-5307Y130254D01*
X-5190Y130294D01*
X-5071Y130331D01*
X-4952Y130363D01*
X-4832Y130392D01*
X-4711Y130417D01*
X-4589Y130439D01*
X-4466Y130456D01*
X-4344Y130470D01*
X-4220Y130479D01*
X-4097Y130485D01*
X-3973Y130487D01*
X-7910Y126550D02*
X-7908Y126409D01*
X-7902Y126267D01*
X-7892Y126126D01*
X-7878Y125986D01*
X-7861Y125846D01*
X-7839Y125706D01*
X-7814Y125567D01*
X-7784Y125429D01*
X-7751Y125291D01*
X-7714Y125155D01*
X-7673Y125019D01*
X-7628Y124885D01*
X-7580Y124753D01*
X-7528Y124621D01*
X-7472Y124491D01*
X-7413Y124363D01*
X-7350Y124236D01*
X-7283Y124112D01*
X-7214Y123989D01*
X-7140Y123868D01*
X-7064Y123749D01*
X-6984Y123632D01*
X-6901Y123518D01*
X-6814Y123406D01*
X-6725Y123297D01*
X-6633Y123190D01*
X-6537Y123085D01*
X-6439Y122984D01*
X-6338Y122885D01*
X-6234Y122789D01*
X-6128Y122696D01*
X-6019Y122606D01*
X-5907Y122519D01*
X-5793Y122435D01*
X-5677Y122355D01*
X-5559Y122277D01*
X-5438Y122203D01*
X-5316Y122133D01*
X-5192Y122066D01*
X-5065Y122002D01*
X-4937Y121942D01*
X-4808Y121885D01*
X-4677Y121833D01*
X-4544Y121783D01*
X-4410Y121738D01*
X-911Y129175D02*
X-999Y129265D01*
X-1091Y129353D01*
X-1185Y129438D01*
X-1282Y129520D01*
X-1381Y129599D01*
X-1482Y129676D01*
X-1586Y129749D01*
X-1691Y129819D01*
X-1799Y129886D01*
X-1909Y129949D01*
X-2021Y130009D01*
X-2134Y130066D01*
X-2249Y130120D01*
X-2366Y130170D01*
X-2484Y130216D01*
X-2603Y130259D01*
X-2724Y130298D01*
X-2845Y130334D01*
X-2968Y130366D01*
X-3092Y130394D01*
X-3216Y130419D01*
X-3341Y130440D01*
X-3467Y130457D01*
X-3593Y130470D01*
X-3719Y130479D01*
X-3846Y130485D01*
X-3973Y130487D01*
X-911Y129174D02*
X7838Y121738D01*
X7838Y130487D01*
D10*
X259053Y196941D02*
X273531Y196941D01*
X265488Y196941D02*
X265488Y204984D01*
X259053Y204984D02*
X273531Y204984D01*
X273531Y217115D02*
X259053Y212289D01*
X259053Y221941D02*
X273531Y217115D01*
D13*
X249250Y298020D02*
X249250Y-313390D01*
X49250Y-313390D02*
X49250Y298020D01*
X249250Y298020D01*
X249250Y-313390D02*
X49250Y-313390D01*
X-249830Y-312952D02*
X-249830Y298458D01*
X-49830Y298458D02*
X-49830Y-312952D01*
X-249830Y-312952D01*
X-249830Y298458D02*
X-49830Y298458D01*
D12*
X57992Y-314756D02*
X120992Y-314756D01*
X120992Y-363756D01*
X57992Y-363756D01*
X57992Y-314756D01*
D14*
X66251Y-310007D02*
X66251Y-301625D01*
X68579Y-301625D01*
X68674Y-301627D01*
X68769Y-301633D01*
X68863Y-301642D01*
X68957Y-301656D01*
X69051Y-301673D01*
X69143Y-301694D01*
X69235Y-301719D01*
X69325Y-301748D01*
X69415Y-301780D01*
X69503Y-301816D01*
X69589Y-301856D01*
X69674Y-301898D01*
X69757Y-301945D01*
X69838Y-301995D01*
X69916Y-302048D01*
X69993Y-302104D01*
X70067Y-302163D01*
X70139Y-302225D01*
X70208Y-302290D01*
X70275Y-302358D01*
X70338Y-302428D01*
X70399Y-302502D01*
X70457Y-302577D01*
X70511Y-302655D01*
X70563Y-302735D01*
X70611Y-302817D01*
X70655Y-302900D01*
X70697Y-302986D01*
X70734Y-303073D01*
X70768Y-303162D01*
X70799Y-303252D01*
X70826Y-303343D01*
X70849Y-303435D01*
X70868Y-303528D01*
X70883Y-303622D01*
X70895Y-303716D01*
X70903Y-303811D01*
X70907Y-303906D01*
X70907Y-304000D01*
X70903Y-304095D01*
X70895Y-304190D01*
X70883Y-304284D01*
X70868Y-304378D01*
X70849Y-304471D01*
X70826Y-304563D01*
X70799Y-304654D01*
X70768Y-304744D01*
X70734Y-304833D01*
X70697Y-304920D01*
X70655Y-305006D01*
X70611Y-305089D01*
X70563Y-305171D01*
X70511Y-305251D01*
X70457Y-305329D01*
X70399Y-305404D01*
X70338Y-305478D01*
X70275Y-305548D01*
X70208Y-305616D01*
X70139Y-305681D01*
X70067Y-305743D01*
X69993Y-305802D01*
X69916Y-305858D01*
X69838Y-305911D01*
X69757Y-305961D01*
X69674Y-306008D01*
X69589Y-306050D01*
X69503Y-306090D01*
X69415Y-306126D01*
X69325Y-306158D01*
X69235Y-306187D01*
X69143Y-306212D01*
X69051Y-306233D01*
X68957Y-306250D01*
X68863Y-306264D01*
X68769Y-306273D01*
X68674Y-306279D01*
X68579Y-306281D01*
X68579Y-306282D02*
X66251Y-306282D01*
X74696Y-301625D02*
X76559Y-310007D01*
X78422Y-304419D01*
X80284Y-310007D01*
X82147Y-301625D01*
X86855Y-301625D02*
X86855Y-310007D01*
X86855Y-301625D02*
X89184Y-301625D01*
X89279Y-301627D01*
X89374Y-301633D01*
X89468Y-301642D01*
X89562Y-301656D01*
X89656Y-301673D01*
X89748Y-301694D01*
X89840Y-301719D01*
X89930Y-301748D01*
X90020Y-301780D01*
X90108Y-301816D01*
X90194Y-301856D01*
X90279Y-301898D01*
X90362Y-301945D01*
X90443Y-301995D01*
X90521Y-302048D01*
X90598Y-302104D01*
X90672Y-302163D01*
X90744Y-302225D01*
X90813Y-302290D01*
X90880Y-302358D01*
X90943Y-302428D01*
X91004Y-302502D01*
X91062Y-302577D01*
X91116Y-302655D01*
X91168Y-302735D01*
X91216Y-302817D01*
X91260Y-302900D01*
X91302Y-302986D01*
X91339Y-303073D01*
X91373Y-303162D01*
X91404Y-303252D01*
X91431Y-303343D01*
X91454Y-303435D01*
X91473Y-303528D01*
X91488Y-303622D01*
X91500Y-303716D01*
X91508Y-303811D01*
X91512Y-303906D01*
X91512Y-304000D01*
X91508Y-304095D01*
X91500Y-304190D01*
X91488Y-304284D01*
X91473Y-304378D01*
X91454Y-304471D01*
X91431Y-304563D01*
X91404Y-304654D01*
X91373Y-304744D01*
X91339Y-304833D01*
X91302Y-304920D01*
X91260Y-305006D01*
X91216Y-305089D01*
X91168Y-305171D01*
X91116Y-305251D01*
X91062Y-305329D01*
X91004Y-305404D01*
X90943Y-305478D01*
X90880Y-305548D01*
X90813Y-305616D01*
X90744Y-305681D01*
X90672Y-305743D01*
X90598Y-305802D01*
X90521Y-305858D01*
X90443Y-305911D01*
X90362Y-305961D01*
X90279Y-306008D01*
X90194Y-306050D01*
X90108Y-306090D01*
X90020Y-306126D01*
X89930Y-306158D01*
X89840Y-306187D01*
X89748Y-306212D01*
X89656Y-306233D01*
X89562Y-306250D01*
X89468Y-306264D01*
X89374Y-306273D01*
X89279Y-306279D01*
X89184Y-306281D01*
X89184Y-306282D02*
X86855Y-306282D01*
X89649Y-306282D02*
X91512Y-310007D01*
X95457Y-310938D02*
X99182Y-310938D01*
X103720Y-310007D02*
X103720Y-301625D01*
X102789Y-310007D02*
X104651Y-310007D01*
X104651Y-301625D02*
X102789Y-301625D01*
X109012Y-301625D02*
X109012Y-310007D01*
X113668Y-310007D02*
X109012Y-301625D01*
X113668Y-301625D02*
X113668Y-310007D01*
D12*
X124240Y299700D02*
X61240Y299700D01*
X61240Y348700D01*
X124240Y348700D01*
X124240Y299700D01*
D14*
X63687Y294951D02*
X63687Y286569D01*
X63687Y294951D02*
X66015Y294951D01*
X66110Y294949D01*
X66205Y294943D01*
X66299Y294934D01*
X66393Y294920D01*
X66487Y294903D01*
X66579Y294882D01*
X66671Y294857D01*
X66761Y294828D01*
X66851Y294796D01*
X66939Y294760D01*
X67025Y294720D01*
X67110Y294678D01*
X67193Y294631D01*
X67274Y294581D01*
X67352Y294528D01*
X67429Y294472D01*
X67503Y294413D01*
X67575Y294351D01*
X67644Y294286D01*
X67711Y294218D01*
X67774Y294148D01*
X67835Y294074D01*
X67893Y293999D01*
X67947Y293921D01*
X67999Y293841D01*
X68047Y293759D01*
X68091Y293676D01*
X68133Y293590D01*
X68170Y293503D01*
X68204Y293414D01*
X68235Y293324D01*
X68262Y293233D01*
X68285Y293141D01*
X68304Y293048D01*
X68319Y292954D01*
X68331Y292860D01*
X68339Y292765D01*
X68343Y292670D01*
X68343Y292576D01*
X68339Y292481D01*
X68331Y292386D01*
X68319Y292292D01*
X68304Y292198D01*
X68285Y292105D01*
X68262Y292013D01*
X68235Y291922D01*
X68204Y291832D01*
X68170Y291743D01*
X68133Y291656D01*
X68091Y291570D01*
X68047Y291487D01*
X67999Y291405D01*
X67947Y291325D01*
X67893Y291247D01*
X67835Y291172D01*
X67774Y291098D01*
X67711Y291028D01*
X67644Y290960D01*
X67575Y290895D01*
X67503Y290833D01*
X67429Y290774D01*
X67352Y290718D01*
X67274Y290665D01*
X67193Y290615D01*
X67110Y290568D01*
X67025Y290526D01*
X66939Y290486D01*
X66851Y290450D01*
X66761Y290418D01*
X66671Y290389D01*
X66579Y290364D01*
X66487Y290343D01*
X66393Y290326D01*
X66299Y290312D01*
X66205Y290303D01*
X66110Y290297D01*
X66015Y290295D01*
X66015Y290294D02*
X63687Y290294D01*
X72132Y294951D02*
X73995Y286569D01*
X75858Y292157D01*
X77720Y286569D01*
X79583Y294951D01*
X84291Y294951D02*
X84291Y286569D01*
X84291Y294951D02*
X86619Y294951D01*
X86714Y294949D01*
X86809Y294943D01*
X86903Y294934D01*
X86997Y294920D01*
X87091Y294903D01*
X87183Y294882D01*
X87275Y294857D01*
X87365Y294828D01*
X87455Y294796D01*
X87543Y294760D01*
X87629Y294720D01*
X87714Y294678D01*
X87797Y294631D01*
X87878Y294581D01*
X87956Y294528D01*
X88033Y294472D01*
X88107Y294413D01*
X88179Y294351D01*
X88248Y294286D01*
X88315Y294218D01*
X88378Y294148D01*
X88439Y294074D01*
X88497Y293999D01*
X88551Y293921D01*
X88603Y293841D01*
X88651Y293759D01*
X88695Y293676D01*
X88737Y293590D01*
X88774Y293503D01*
X88808Y293414D01*
X88839Y293324D01*
X88866Y293233D01*
X88889Y293141D01*
X88908Y293048D01*
X88923Y292954D01*
X88935Y292860D01*
X88943Y292765D01*
X88947Y292670D01*
X88947Y292576D01*
X88943Y292481D01*
X88935Y292386D01*
X88923Y292292D01*
X88908Y292198D01*
X88889Y292105D01*
X88866Y292013D01*
X88839Y291922D01*
X88808Y291832D01*
X88774Y291743D01*
X88737Y291656D01*
X88695Y291570D01*
X88651Y291487D01*
X88603Y291405D01*
X88551Y291325D01*
X88497Y291247D01*
X88439Y291172D01*
X88378Y291098D01*
X88315Y291028D01*
X88248Y290960D01*
X88179Y290895D01*
X88107Y290833D01*
X88033Y290774D01*
X87956Y290718D01*
X87878Y290665D01*
X87797Y290615D01*
X87714Y290568D01*
X87629Y290526D01*
X87543Y290486D01*
X87455Y290450D01*
X87365Y290418D01*
X87275Y290389D01*
X87183Y290364D01*
X87091Y290343D01*
X86997Y290326D01*
X86903Y290312D01*
X86809Y290303D01*
X86714Y290297D01*
X86619Y290295D01*
X86619Y290294D02*
X84291Y290294D01*
X87085Y290294D02*
X88948Y286569D01*
X92893Y285638D02*
X96618Y285638D01*
X100656Y288897D02*
X100656Y292623D01*
X100657Y292623D02*
X100659Y292718D01*
X100665Y292813D01*
X100674Y292907D01*
X100688Y293001D01*
X100705Y293095D01*
X100726Y293187D01*
X100751Y293279D01*
X100780Y293369D01*
X100812Y293459D01*
X100848Y293547D01*
X100888Y293633D01*
X100930Y293718D01*
X100977Y293801D01*
X101027Y293882D01*
X101080Y293960D01*
X101136Y294037D01*
X101195Y294111D01*
X101257Y294183D01*
X101322Y294252D01*
X101390Y294319D01*
X101460Y294382D01*
X101534Y294443D01*
X101609Y294501D01*
X101687Y294555D01*
X101767Y294607D01*
X101849Y294655D01*
X101932Y294699D01*
X102018Y294741D01*
X102105Y294778D01*
X102194Y294812D01*
X102284Y294843D01*
X102375Y294870D01*
X102467Y294893D01*
X102560Y294912D01*
X102654Y294927D01*
X102748Y294939D01*
X102843Y294947D01*
X102938Y294951D01*
X103032Y294951D01*
X103127Y294947D01*
X103222Y294939D01*
X103316Y294927D01*
X103410Y294912D01*
X103503Y294893D01*
X103595Y294870D01*
X103686Y294843D01*
X103776Y294812D01*
X103865Y294778D01*
X103952Y294741D01*
X104038Y294699D01*
X104121Y294655D01*
X104203Y294607D01*
X104283Y294555D01*
X104361Y294501D01*
X104436Y294443D01*
X104510Y294382D01*
X104580Y294319D01*
X104648Y294252D01*
X104713Y294183D01*
X104775Y294111D01*
X104834Y294037D01*
X104890Y293960D01*
X104943Y293882D01*
X104993Y293801D01*
X105040Y293718D01*
X105082Y293633D01*
X105122Y293547D01*
X105158Y293459D01*
X105190Y293369D01*
X105219Y293279D01*
X105244Y293187D01*
X105265Y293095D01*
X105282Y293001D01*
X105296Y292907D01*
X105305Y292813D01*
X105311Y292718D01*
X105313Y292623D01*
X105313Y288897D01*
X105311Y288802D01*
X105305Y288707D01*
X105296Y288613D01*
X105282Y288519D01*
X105265Y288425D01*
X105244Y288333D01*
X105219Y288241D01*
X105190Y288151D01*
X105158Y288061D01*
X105122Y287973D01*
X105082Y287887D01*
X105040Y287802D01*
X104993Y287719D01*
X104943Y287638D01*
X104890Y287560D01*
X104834Y287483D01*
X104775Y287409D01*
X104713Y287337D01*
X104648Y287268D01*
X104580Y287201D01*
X104510Y287138D01*
X104436Y287077D01*
X104361Y287019D01*
X104283Y286965D01*
X104203Y286913D01*
X104121Y286865D01*
X104038Y286821D01*
X103952Y286779D01*
X103865Y286742D01*
X103776Y286708D01*
X103686Y286677D01*
X103595Y286650D01*
X103503Y286627D01*
X103410Y286608D01*
X103316Y286593D01*
X103222Y286581D01*
X103127Y286573D01*
X103032Y286569D01*
X102938Y286569D01*
X102843Y286573D01*
X102748Y286581D01*
X102654Y286593D01*
X102560Y286608D01*
X102467Y286627D01*
X102375Y286650D01*
X102284Y286677D01*
X102194Y286708D01*
X102105Y286742D01*
X102018Y286779D01*
X101932Y286821D01*
X101849Y286865D01*
X101767Y286913D01*
X101687Y286965D01*
X101609Y287019D01*
X101534Y287077D01*
X101460Y287138D01*
X101390Y287201D01*
X101322Y287268D01*
X101257Y287337D01*
X101195Y287409D01*
X101136Y287483D01*
X101080Y287560D01*
X101027Y287638D01*
X100977Y287719D01*
X100930Y287802D01*
X100888Y287887D01*
X100848Y287973D01*
X100812Y288061D01*
X100780Y288151D01*
X100751Y288241D01*
X100726Y288333D01*
X100705Y288425D01*
X100688Y288519D01*
X100674Y288613D01*
X100665Y288707D01*
X100659Y288802D01*
X100657Y288897D01*
X110105Y288897D02*
X110105Y294951D01*
X110105Y288897D02*
X110107Y288802D01*
X110113Y288707D01*
X110122Y288613D01*
X110136Y288519D01*
X110153Y288425D01*
X110174Y288333D01*
X110199Y288241D01*
X110228Y288151D01*
X110260Y288061D01*
X110296Y287973D01*
X110336Y287887D01*
X110378Y287802D01*
X110425Y287719D01*
X110475Y287638D01*
X110528Y287560D01*
X110584Y287483D01*
X110643Y287409D01*
X110705Y287337D01*
X110770Y287268D01*
X110838Y287201D01*
X110908Y287138D01*
X110982Y287077D01*
X111057Y287019D01*
X111135Y286965D01*
X111215Y286913D01*
X111297Y286865D01*
X111380Y286821D01*
X111466Y286779D01*
X111553Y286742D01*
X111642Y286708D01*
X111732Y286677D01*
X111823Y286650D01*
X111915Y286627D01*
X112008Y286608D01*
X112102Y286593D01*
X112196Y286581D01*
X112291Y286573D01*
X112386Y286569D01*
X112480Y286569D01*
X112575Y286573D01*
X112670Y286581D01*
X112764Y286593D01*
X112858Y286608D01*
X112951Y286627D01*
X113043Y286650D01*
X113134Y286677D01*
X113224Y286708D01*
X113313Y286742D01*
X113400Y286779D01*
X113486Y286821D01*
X113569Y286865D01*
X113651Y286913D01*
X113731Y286965D01*
X113809Y287019D01*
X113884Y287077D01*
X113958Y287138D01*
X114028Y287201D01*
X114096Y287268D01*
X114161Y287337D01*
X114223Y287409D01*
X114282Y287483D01*
X114338Y287560D01*
X114391Y287638D01*
X114441Y287719D01*
X114488Y287802D01*
X114530Y287887D01*
X114570Y287973D01*
X114606Y288061D01*
X114638Y288151D01*
X114667Y288241D01*
X114692Y288333D01*
X114713Y288425D01*
X114730Y288519D01*
X114744Y288613D01*
X114753Y288707D01*
X114759Y288802D01*
X114761Y288897D01*
X114762Y288897D02*
X114762Y294951D01*
X121273Y294951D02*
X121273Y286569D01*
X118944Y294951D02*
X123601Y294951D01*
D12*
X-33520Y-314756D02*
X-96520Y-314756D01*
X-33520Y-314756D02*
X-33520Y-363756D01*
X-96520Y-363756D01*
X-96520Y-314756D01*
D14*
X-89531Y-305350D02*
X-87203Y-305350D01*
X-87203Y-305351D02*
X-87108Y-305353D01*
X-87013Y-305359D01*
X-86919Y-305368D01*
X-86825Y-305382D01*
X-86731Y-305399D01*
X-86639Y-305420D01*
X-86547Y-305445D01*
X-86457Y-305474D01*
X-86367Y-305506D01*
X-86279Y-305542D01*
X-86193Y-305582D01*
X-86108Y-305624D01*
X-86025Y-305671D01*
X-85944Y-305721D01*
X-85866Y-305774D01*
X-85789Y-305830D01*
X-85715Y-305889D01*
X-85643Y-305951D01*
X-85574Y-306016D01*
X-85507Y-306084D01*
X-85444Y-306154D01*
X-85383Y-306228D01*
X-85325Y-306303D01*
X-85271Y-306381D01*
X-85219Y-306461D01*
X-85171Y-306543D01*
X-85127Y-306626D01*
X-85085Y-306712D01*
X-85048Y-306799D01*
X-85014Y-306888D01*
X-84983Y-306978D01*
X-84956Y-307069D01*
X-84933Y-307161D01*
X-84914Y-307254D01*
X-84899Y-307348D01*
X-84887Y-307442D01*
X-84879Y-307537D01*
X-84875Y-307632D01*
X-84875Y-307726D01*
X-84879Y-307821D01*
X-84887Y-307916D01*
X-84899Y-308010D01*
X-84914Y-308104D01*
X-84933Y-308197D01*
X-84956Y-308289D01*
X-84983Y-308380D01*
X-85014Y-308470D01*
X-85048Y-308559D01*
X-85085Y-308646D01*
X-85127Y-308732D01*
X-85171Y-308815D01*
X-85219Y-308897D01*
X-85271Y-308977D01*
X-85325Y-309055D01*
X-85383Y-309130D01*
X-85444Y-309204D01*
X-85507Y-309274D01*
X-85574Y-309342D01*
X-85643Y-309407D01*
X-85715Y-309469D01*
X-85789Y-309528D01*
X-85866Y-309584D01*
X-85944Y-309637D01*
X-86025Y-309687D01*
X-86108Y-309734D01*
X-86193Y-309776D01*
X-86279Y-309816D01*
X-86367Y-309852D01*
X-86457Y-309884D01*
X-86547Y-309913D01*
X-86639Y-309938D01*
X-86731Y-309959D01*
X-86825Y-309976D01*
X-86919Y-309990D01*
X-87013Y-309999D01*
X-87108Y-310005D01*
X-87203Y-310007D01*
X-89531Y-310007D01*
X-89531Y-301625D01*
X-87203Y-301625D01*
X-87118Y-301627D01*
X-87034Y-301633D01*
X-86949Y-301642D01*
X-86866Y-301656D01*
X-86783Y-301673D01*
X-86700Y-301694D01*
X-86619Y-301719D01*
X-86539Y-301747D01*
X-86461Y-301779D01*
X-86384Y-301815D01*
X-86308Y-301854D01*
X-86235Y-301896D01*
X-86164Y-301942D01*
X-86094Y-301991D01*
X-86027Y-302043D01*
X-85963Y-302098D01*
X-85901Y-302156D01*
X-85841Y-302216D01*
X-85785Y-302280D01*
X-85731Y-302345D01*
X-85681Y-302414D01*
X-85634Y-302484D01*
X-85590Y-302557D01*
X-85549Y-302631D01*
X-85512Y-302707D01*
X-85478Y-302785D01*
X-85448Y-302864D01*
X-85421Y-302945D01*
X-85398Y-303026D01*
X-85379Y-303109D01*
X-85364Y-303192D01*
X-85352Y-303276D01*
X-85344Y-303361D01*
X-85340Y-303446D01*
X-85340Y-303530D01*
X-85344Y-303615D01*
X-85352Y-303700D01*
X-85364Y-303784D01*
X-85379Y-303867D01*
X-85398Y-303950D01*
X-85421Y-304031D01*
X-85448Y-304112D01*
X-85478Y-304191D01*
X-85512Y-304269D01*
X-85549Y-304345D01*
X-85590Y-304420D01*
X-85634Y-304492D01*
X-85681Y-304562D01*
X-85731Y-304631D01*
X-85785Y-304696D01*
X-85841Y-304760D01*
X-85901Y-304820D01*
X-85963Y-304878D01*
X-86027Y-304933D01*
X-86094Y-304985D01*
X-86164Y-305034D01*
X-86235Y-305080D01*
X-86308Y-305122D01*
X-86384Y-305161D01*
X-86461Y-305197D01*
X-86539Y-305229D01*
X-86619Y-305257D01*
X-86700Y-305282D01*
X-86783Y-305303D01*
X-86866Y-305320D01*
X-86949Y-305334D01*
X-87034Y-305343D01*
X-87118Y-305349D01*
X-87203Y-305351D01*
X-80603Y-307679D02*
X-80603Y-301625D01*
X-80603Y-307679D02*
X-80601Y-307774D01*
X-80595Y-307869D01*
X-80586Y-307963D01*
X-80572Y-308057D01*
X-80555Y-308151D01*
X-80534Y-308243D01*
X-80509Y-308335D01*
X-80480Y-308425D01*
X-80448Y-308515D01*
X-80412Y-308603D01*
X-80372Y-308689D01*
X-80330Y-308774D01*
X-80283Y-308857D01*
X-80233Y-308938D01*
X-80180Y-309016D01*
X-80124Y-309093D01*
X-80065Y-309167D01*
X-80003Y-309239D01*
X-79938Y-309308D01*
X-79870Y-309375D01*
X-79800Y-309438D01*
X-79726Y-309499D01*
X-79651Y-309557D01*
X-79573Y-309611D01*
X-79493Y-309663D01*
X-79411Y-309711D01*
X-79328Y-309755D01*
X-79242Y-309797D01*
X-79155Y-309834D01*
X-79066Y-309868D01*
X-78976Y-309899D01*
X-78885Y-309926D01*
X-78793Y-309949D01*
X-78700Y-309968D01*
X-78606Y-309983D01*
X-78512Y-309995D01*
X-78417Y-310003D01*
X-78322Y-310007D01*
X-78228Y-310007D01*
X-78133Y-310003D01*
X-78038Y-309995D01*
X-77944Y-309983D01*
X-77850Y-309968D01*
X-77757Y-309949D01*
X-77665Y-309926D01*
X-77574Y-309899D01*
X-77484Y-309868D01*
X-77395Y-309834D01*
X-77308Y-309797D01*
X-77222Y-309755D01*
X-77139Y-309711D01*
X-77057Y-309663D01*
X-76977Y-309611D01*
X-76899Y-309557D01*
X-76824Y-309499D01*
X-76750Y-309438D01*
X-76680Y-309375D01*
X-76612Y-309308D01*
X-76547Y-309239D01*
X-76485Y-309167D01*
X-76426Y-309093D01*
X-76370Y-309016D01*
X-76317Y-308938D01*
X-76267Y-308857D01*
X-76220Y-308774D01*
X-76178Y-308689D01*
X-76138Y-308603D01*
X-76102Y-308515D01*
X-76070Y-308425D01*
X-76041Y-308335D01*
X-76016Y-308243D01*
X-75995Y-308151D01*
X-75978Y-308057D01*
X-75964Y-307963D01*
X-75955Y-307869D01*
X-75949Y-307774D01*
X-75947Y-307679D01*
X-75946Y-307679D02*
X-75946Y-301625D01*
X-69435Y-301625D02*
X-69435Y-310007D01*
X-71764Y-301625D02*
X-67107Y-301625D01*
X-63229Y-303488D02*
X-60901Y-301625D01*
X-60901Y-310007D01*
X-63229Y-310007D02*
X-58573Y-310007D01*
X-54534Y-310938D02*
X-50809Y-310938D01*
X-46271Y-310007D02*
X-46271Y-301625D01*
X-47202Y-310007D02*
X-45339Y-310007D01*
X-45339Y-301625D02*
X-47202Y-301625D01*
X-40979Y-301625D02*
X-40979Y-310007D01*
X-36322Y-310007D02*
X-40979Y-301625D01*
X-36322Y-301625D02*
X-36322Y-310007D01*
D12*
X-32440Y299584D02*
X-95440Y299584D01*
X-95440Y348584D01*
X-32440Y348584D01*
X-32440Y299584D01*
D14*
X-95186Y291110D02*
X-97514Y291110D01*
X-95186Y291109D02*
X-95091Y291107D01*
X-94996Y291101D01*
X-94902Y291092D01*
X-94808Y291078D01*
X-94714Y291061D01*
X-94622Y291040D01*
X-94530Y291015D01*
X-94440Y290986D01*
X-94350Y290954D01*
X-94262Y290918D01*
X-94176Y290878D01*
X-94091Y290836D01*
X-94008Y290789D01*
X-93927Y290739D01*
X-93849Y290686D01*
X-93772Y290630D01*
X-93698Y290571D01*
X-93626Y290509D01*
X-93557Y290444D01*
X-93490Y290376D01*
X-93427Y290306D01*
X-93366Y290232D01*
X-93308Y290157D01*
X-93254Y290079D01*
X-93202Y289999D01*
X-93154Y289917D01*
X-93110Y289834D01*
X-93068Y289748D01*
X-93031Y289661D01*
X-92997Y289572D01*
X-92966Y289482D01*
X-92939Y289391D01*
X-92916Y289299D01*
X-92897Y289206D01*
X-92882Y289112D01*
X-92870Y289018D01*
X-92862Y288923D01*
X-92858Y288828D01*
X-92858Y288734D01*
X-92862Y288639D01*
X-92870Y288544D01*
X-92882Y288450D01*
X-92897Y288356D01*
X-92916Y288263D01*
X-92939Y288171D01*
X-92966Y288080D01*
X-92997Y287990D01*
X-93031Y287901D01*
X-93068Y287814D01*
X-93110Y287728D01*
X-93154Y287645D01*
X-93202Y287563D01*
X-93254Y287483D01*
X-93308Y287405D01*
X-93366Y287330D01*
X-93427Y287256D01*
X-93490Y287186D01*
X-93557Y287118D01*
X-93626Y287053D01*
X-93698Y286991D01*
X-93772Y286932D01*
X-93849Y286876D01*
X-93927Y286823D01*
X-94008Y286773D01*
X-94091Y286726D01*
X-94176Y286684D01*
X-94262Y286644D01*
X-94350Y286608D01*
X-94440Y286576D01*
X-94530Y286547D01*
X-94622Y286522D01*
X-94714Y286501D01*
X-94808Y286484D01*
X-94902Y286470D01*
X-94996Y286461D01*
X-95091Y286455D01*
X-95186Y286453D01*
X-97514Y286453D01*
X-97514Y294835D01*
X-95186Y294835D01*
X-95101Y294833D01*
X-95017Y294827D01*
X-94932Y294818D01*
X-94849Y294804D01*
X-94766Y294787D01*
X-94683Y294766D01*
X-94602Y294741D01*
X-94522Y294713D01*
X-94444Y294681D01*
X-94367Y294645D01*
X-94291Y294606D01*
X-94218Y294564D01*
X-94147Y294518D01*
X-94077Y294469D01*
X-94010Y294417D01*
X-93946Y294362D01*
X-93884Y294304D01*
X-93824Y294244D01*
X-93768Y294180D01*
X-93714Y294115D01*
X-93664Y294046D01*
X-93617Y293976D01*
X-93573Y293904D01*
X-93532Y293829D01*
X-93495Y293753D01*
X-93461Y293675D01*
X-93431Y293596D01*
X-93404Y293515D01*
X-93381Y293434D01*
X-93362Y293351D01*
X-93347Y293268D01*
X-93335Y293184D01*
X-93327Y293099D01*
X-93323Y293014D01*
X-93323Y292930D01*
X-93327Y292845D01*
X-93335Y292760D01*
X-93347Y292676D01*
X-93362Y292593D01*
X-93381Y292510D01*
X-93404Y292429D01*
X-93431Y292348D01*
X-93461Y292269D01*
X-93495Y292191D01*
X-93532Y292115D01*
X-93573Y292041D01*
X-93617Y291968D01*
X-93664Y291898D01*
X-93714Y291829D01*
X-93768Y291764D01*
X-93824Y291700D01*
X-93884Y291640D01*
X-93946Y291582D01*
X-94010Y291527D01*
X-94077Y291475D01*
X-94147Y291426D01*
X-94218Y291380D01*
X-94291Y291338D01*
X-94367Y291299D01*
X-94444Y291263D01*
X-94522Y291231D01*
X-94602Y291203D01*
X-94683Y291178D01*
X-94766Y291157D01*
X-94849Y291140D01*
X-94932Y291126D01*
X-95017Y291117D01*
X-95101Y291111D01*
X-95186Y291109D01*
X-88586Y288781D02*
X-88586Y294835D01*
X-88586Y288781D02*
X-88584Y288686D01*
X-88578Y288591D01*
X-88569Y288497D01*
X-88555Y288403D01*
X-88538Y288309D01*
X-88517Y288217D01*
X-88492Y288125D01*
X-88463Y288035D01*
X-88431Y287945D01*
X-88395Y287857D01*
X-88355Y287771D01*
X-88313Y287686D01*
X-88266Y287603D01*
X-88216Y287522D01*
X-88163Y287444D01*
X-88107Y287367D01*
X-88048Y287293D01*
X-87986Y287221D01*
X-87921Y287152D01*
X-87853Y287085D01*
X-87783Y287022D01*
X-87709Y286961D01*
X-87634Y286903D01*
X-87556Y286849D01*
X-87476Y286797D01*
X-87394Y286749D01*
X-87311Y286705D01*
X-87225Y286663D01*
X-87138Y286626D01*
X-87049Y286592D01*
X-86959Y286561D01*
X-86868Y286534D01*
X-86776Y286511D01*
X-86683Y286492D01*
X-86589Y286477D01*
X-86495Y286465D01*
X-86400Y286457D01*
X-86305Y286453D01*
X-86211Y286453D01*
X-86116Y286457D01*
X-86021Y286465D01*
X-85927Y286477D01*
X-85833Y286492D01*
X-85740Y286511D01*
X-85648Y286534D01*
X-85557Y286561D01*
X-85467Y286592D01*
X-85378Y286626D01*
X-85291Y286663D01*
X-85205Y286705D01*
X-85122Y286749D01*
X-85040Y286797D01*
X-84960Y286849D01*
X-84882Y286903D01*
X-84807Y286961D01*
X-84733Y287022D01*
X-84663Y287085D01*
X-84595Y287152D01*
X-84530Y287221D01*
X-84468Y287293D01*
X-84409Y287367D01*
X-84353Y287444D01*
X-84300Y287522D01*
X-84250Y287603D01*
X-84203Y287686D01*
X-84161Y287771D01*
X-84121Y287857D01*
X-84085Y287945D01*
X-84053Y288035D01*
X-84024Y288125D01*
X-83999Y288217D01*
X-83978Y288309D01*
X-83961Y288403D01*
X-83947Y288497D01*
X-83938Y288591D01*
X-83932Y288686D01*
X-83930Y288781D01*
X-83930Y294835D01*
X-77419Y294835D02*
X-77419Y286453D01*
X-79747Y294835D02*
X-75090Y294835D01*
X-71213Y292972D02*
X-68884Y294835D01*
X-68884Y286453D01*
X-66556Y286453D02*
X-71213Y286453D01*
X-62518Y285522D02*
X-58792Y285522D01*
X-54754Y288781D02*
X-54754Y292507D01*
X-54753Y292507D02*
X-54751Y292602D01*
X-54745Y292697D01*
X-54736Y292791D01*
X-54722Y292885D01*
X-54705Y292979D01*
X-54684Y293071D01*
X-54659Y293163D01*
X-54630Y293253D01*
X-54598Y293343D01*
X-54562Y293431D01*
X-54522Y293517D01*
X-54480Y293602D01*
X-54433Y293685D01*
X-54383Y293766D01*
X-54330Y293844D01*
X-54274Y293921D01*
X-54215Y293995D01*
X-54153Y294067D01*
X-54088Y294136D01*
X-54020Y294203D01*
X-53950Y294266D01*
X-53876Y294327D01*
X-53801Y294385D01*
X-53723Y294439D01*
X-53643Y294491D01*
X-53561Y294539D01*
X-53478Y294583D01*
X-53392Y294625D01*
X-53305Y294662D01*
X-53216Y294696D01*
X-53126Y294727D01*
X-53035Y294754D01*
X-52943Y294777D01*
X-52850Y294796D01*
X-52756Y294811D01*
X-52662Y294823D01*
X-52567Y294831D01*
X-52472Y294835D01*
X-52378Y294835D01*
X-52283Y294831D01*
X-52188Y294823D01*
X-52094Y294811D01*
X-52000Y294796D01*
X-51907Y294777D01*
X-51815Y294754D01*
X-51724Y294727D01*
X-51634Y294696D01*
X-51545Y294662D01*
X-51458Y294625D01*
X-51372Y294583D01*
X-51289Y294539D01*
X-51207Y294491D01*
X-51127Y294439D01*
X-51049Y294385D01*
X-50974Y294327D01*
X-50900Y294266D01*
X-50830Y294203D01*
X-50762Y294136D01*
X-50697Y294067D01*
X-50635Y293995D01*
X-50576Y293921D01*
X-50520Y293844D01*
X-50467Y293766D01*
X-50417Y293685D01*
X-50370Y293602D01*
X-50328Y293517D01*
X-50288Y293431D01*
X-50252Y293343D01*
X-50220Y293253D01*
X-50191Y293163D01*
X-50166Y293071D01*
X-50145Y292979D01*
X-50128Y292885D01*
X-50114Y292791D01*
X-50105Y292697D01*
X-50099Y292602D01*
X-50097Y292507D01*
X-50097Y288781D01*
X-50099Y288686D01*
X-50105Y288591D01*
X-50114Y288497D01*
X-50128Y288403D01*
X-50145Y288309D01*
X-50166Y288217D01*
X-50191Y288125D01*
X-50220Y288035D01*
X-50252Y287945D01*
X-50288Y287857D01*
X-50328Y287771D01*
X-50370Y287686D01*
X-50417Y287603D01*
X-50467Y287522D01*
X-50520Y287444D01*
X-50576Y287367D01*
X-50635Y287293D01*
X-50697Y287221D01*
X-50762Y287152D01*
X-50830Y287085D01*
X-50900Y287022D01*
X-50974Y286961D01*
X-51049Y286903D01*
X-51127Y286849D01*
X-51207Y286797D01*
X-51289Y286749D01*
X-51372Y286705D01*
X-51458Y286663D01*
X-51545Y286626D01*
X-51634Y286592D01*
X-51724Y286561D01*
X-51815Y286534D01*
X-51907Y286511D01*
X-52000Y286492D01*
X-52094Y286477D01*
X-52188Y286465D01*
X-52283Y286457D01*
X-52378Y286453D01*
X-52472Y286453D01*
X-52567Y286457D01*
X-52662Y286465D01*
X-52756Y286477D01*
X-52850Y286492D01*
X-52943Y286511D01*
X-53035Y286534D01*
X-53126Y286561D01*
X-53216Y286592D01*
X-53305Y286626D01*
X-53392Y286663D01*
X-53478Y286705D01*
X-53561Y286749D01*
X-53643Y286797D01*
X-53723Y286849D01*
X-53801Y286903D01*
X-53876Y286961D01*
X-53950Y287022D01*
X-54020Y287085D01*
X-54088Y287152D01*
X-54153Y287221D01*
X-54215Y287293D01*
X-54274Y287367D01*
X-54330Y287444D01*
X-54383Y287522D01*
X-54433Y287603D01*
X-54480Y287686D01*
X-54522Y287771D01*
X-54562Y287857D01*
X-54598Y287945D01*
X-54630Y288035D01*
X-54659Y288125D01*
X-54684Y288217D01*
X-54705Y288309D01*
X-54722Y288403D01*
X-54736Y288497D01*
X-54745Y288591D01*
X-54751Y288686D01*
X-54753Y288781D01*
X-45305Y288781D02*
X-45305Y294835D01*
X-45305Y288781D02*
X-45303Y288686D01*
X-45297Y288591D01*
X-45288Y288497D01*
X-45274Y288403D01*
X-45257Y288309D01*
X-45236Y288217D01*
X-45211Y288125D01*
X-45182Y288035D01*
X-45150Y287945D01*
X-45114Y287857D01*
X-45074Y287771D01*
X-45032Y287686D01*
X-44985Y287603D01*
X-44935Y287522D01*
X-44882Y287444D01*
X-44826Y287367D01*
X-44767Y287293D01*
X-44705Y287221D01*
X-44640Y287152D01*
X-44572Y287085D01*
X-44502Y287022D01*
X-44428Y286961D01*
X-44353Y286903D01*
X-44275Y286849D01*
X-44195Y286797D01*
X-44113Y286749D01*
X-44030Y286705D01*
X-43944Y286663D01*
X-43857Y286626D01*
X-43768Y286592D01*
X-43678Y286561D01*
X-43587Y286534D01*
X-43495Y286511D01*
X-43402Y286492D01*
X-43308Y286477D01*
X-43214Y286465D01*
X-43119Y286457D01*
X-43024Y286453D01*
X-42930Y286453D01*
X-42835Y286457D01*
X-42740Y286465D01*
X-42646Y286477D01*
X-42552Y286492D01*
X-42459Y286511D01*
X-42367Y286534D01*
X-42276Y286561D01*
X-42186Y286592D01*
X-42097Y286626D01*
X-42010Y286663D01*
X-41924Y286705D01*
X-41841Y286749D01*
X-41759Y286797D01*
X-41679Y286849D01*
X-41601Y286903D01*
X-41526Y286961D01*
X-41452Y287022D01*
X-41382Y287085D01*
X-41314Y287152D01*
X-41249Y287221D01*
X-41187Y287293D01*
X-41128Y287367D01*
X-41072Y287444D01*
X-41019Y287522D01*
X-40969Y287603D01*
X-40922Y287686D01*
X-40880Y287771D01*
X-40840Y287857D01*
X-40804Y287945D01*
X-40772Y288035D01*
X-40743Y288125D01*
X-40718Y288217D01*
X-40697Y288309D01*
X-40680Y288403D01*
X-40666Y288497D01*
X-40657Y288591D01*
X-40651Y288686D01*
X-40649Y288781D01*
X-40648Y288781D02*
X-40648Y294835D01*
X-34137Y294835D02*
X-34137Y286453D01*
X-36466Y294835D02*
X-31809Y294835D01*
D12*
X-19680Y-314756D02*
X43320Y-314756D01*
X43320Y-363756D01*
X-19680Y-363756D01*
X-19680Y-314756D01*
D14*
X-13961Y-306620D02*
X-11633Y-306620D01*
X-11633Y-306621D02*
X-11538Y-306623D01*
X-11443Y-306629D01*
X-11349Y-306638D01*
X-11255Y-306652D01*
X-11161Y-306669D01*
X-11069Y-306690D01*
X-10977Y-306715D01*
X-10887Y-306744D01*
X-10797Y-306776D01*
X-10709Y-306812D01*
X-10623Y-306852D01*
X-10538Y-306894D01*
X-10455Y-306941D01*
X-10374Y-306991D01*
X-10296Y-307044D01*
X-10219Y-307100D01*
X-10145Y-307159D01*
X-10073Y-307221D01*
X-10004Y-307286D01*
X-9937Y-307354D01*
X-9874Y-307424D01*
X-9813Y-307498D01*
X-9755Y-307573D01*
X-9701Y-307651D01*
X-9649Y-307731D01*
X-9601Y-307813D01*
X-9557Y-307896D01*
X-9515Y-307982D01*
X-9478Y-308069D01*
X-9444Y-308158D01*
X-9413Y-308248D01*
X-9386Y-308339D01*
X-9363Y-308431D01*
X-9344Y-308524D01*
X-9329Y-308618D01*
X-9317Y-308712D01*
X-9309Y-308807D01*
X-9305Y-308902D01*
X-9305Y-308996D01*
X-9309Y-309091D01*
X-9317Y-309186D01*
X-9329Y-309280D01*
X-9344Y-309374D01*
X-9363Y-309467D01*
X-9386Y-309559D01*
X-9413Y-309650D01*
X-9444Y-309740D01*
X-9478Y-309829D01*
X-9515Y-309916D01*
X-9557Y-310002D01*
X-9601Y-310085D01*
X-9649Y-310167D01*
X-9701Y-310247D01*
X-9755Y-310325D01*
X-9813Y-310400D01*
X-9874Y-310474D01*
X-9937Y-310544D01*
X-10004Y-310612D01*
X-10073Y-310677D01*
X-10145Y-310739D01*
X-10219Y-310798D01*
X-10296Y-310854D01*
X-10374Y-310907D01*
X-10455Y-310957D01*
X-10538Y-311004D01*
X-10623Y-311046D01*
X-10709Y-311086D01*
X-10797Y-311122D01*
X-10887Y-311154D01*
X-10977Y-311183D01*
X-11069Y-311208D01*
X-11161Y-311229D01*
X-11255Y-311246D01*
X-11349Y-311260D01*
X-11443Y-311269D01*
X-11538Y-311275D01*
X-11633Y-311277D01*
X-13961Y-311277D01*
X-13961Y-302895D01*
X-11633Y-302895D01*
X-11548Y-302897D01*
X-11464Y-302903D01*
X-11379Y-302912D01*
X-11296Y-302926D01*
X-11213Y-302943D01*
X-11130Y-302964D01*
X-11049Y-302989D01*
X-10969Y-303017D01*
X-10891Y-303049D01*
X-10814Y-303085D01*
X-10738Y-303124D01*
X-10665Y-303166D01*
X-10594Y-303212D01*
X-10524Y-303261D01*
X-10457Y-303313D01*
X-10393Y-303368D01*
X-10331Y-303426D01*
X-10271Y-303486D01*
X-10215Y-303550D01*
X-10161Y-303615D01*
X-10111Y-303684D01*
X-10064Y-303754D01*
X-10020Y-303827D01*
X-9979Y-303901D01*
X-9942Y-303977D01*
X-9908Y-304055D01*
X-9878Y-304134D01*
X-9851Y-304215D01*
X-9828Y-304296D01*
X-9809Y-304379D01*
X-9794Y-304462D01*
X-9782Y-304546D01*
X-9774Y-304631D01*
X-9770Y-304716D01*
X-9770Y-304800D01*
X-9774Y-304885D01*
X-9782Y-304970D01*
X-9794Y-305054D01*
X-9809Y-305137D01*
X-9828Y-305220D01*
X-9851Y-305301D01*
X-9878Y-305382D01*
X-9908Y-305461D01*
X-9942Y-305539D01*
X-9979Y-305615D01*
X-10020Y-305690D01*
X-10064Y-305762D01*
X-10111Y-305832D01*
X-10161Y-305901D01*
X-10215Y-305966D01*
X-10271Y-306030D01*
X-10331Y-306090D01*
X-10393Y-306148D01*
X-10457Y-306203D01*
X-10524Y-306255D01*
X-10594Y-306304D01*
X-10665Y-306350D01*
X-10738Y-306392D01*
X-10814Y-306431D01*
X-10891Y-306467D01*
X-10969Y-306499D01*
X-11049Y-306527D01*
X-11130Y-306552D01*
X-11213Y-306573D01*
X-11296Y-306590D01*
X-11379Y-306604D01*
X-11464Y-306613D01*
X-11548Y-306619D01*
X-11633Y-306621D01*
X-5033Y-308949D02*
X-5033Y-302895D01*
X-5033Y-308949D02*
X-5031Y-309044D01*
X-5025Y-309139D01*
X-5016Y-309233D01*
X-5002Y-309327D01*
X-4985Y-309421D01*
X-4964Y-309513D01*
X-4939Y-309605D01*
X-4910Y-309695D01*
X-4878Y-309785D01*
X-4842Y-309873D01*
X-4802Y-309959D01*
X-4760Y-310044D01*
X-4713Y-310127D01*
X-4663Y-310208D01*
X-4610Y-310286D01*
X-4554Y-310363D01*
X-4495Y-310437D01*
X-4433Y-310509D01*
X-4368Y-310578D01*
X-4300Y-310645D01*
X-4230Y-310708D01*
X-4156Y-310769D01*
X-4081Y-310827D01*
X-4003Y-310881D01*
X-3923Y-310933D01*
X-3841Y-310981D01*
X-3758Y-311025D01*
X-3672Y-311067D01*
X-3585Y-311104D01*
X-3496Y-311138D01*
X-3406Y-311169D01*
X-3315Y-311196D01*
X-3223Y-311219D01*
X-3130Y-311238D01*
X-3036Y-311253D01*
X-2942Y-311265D01*
X-2847Y-311273D01*
X-2752Y-311277D01*
X-2658Y-311277D01*
X-2563Y-311273D01*
X-2468Y-311265D01*
X-2374Y-311253D01*
X-2280Y-311238D01*
X-2187Y-311219D01*
X-2095Y-311196D01*
X-2004Y-311169D01*
X-1914Y-311138D01*
X-1825Y-311104D01*
X-1738Y-311067D01*
X-1652Y-311025D01*
X-1569Y-310981D01*
X-1487Y-310933D01*
X-1407Y-310881D01*
X-1329Y-310827D01*
X-1254Y-310769D01*
X-1180Y-310708D01*
X-1110Y-310645D01*
X-1042Y-310578D01*
X-977Y-310509D01*
X-915Y-310437D01*
X-856Y-310363D01*
X-800Y-310286D01*
X-747Y-310208D01*
X-697Y-310127D01*
X-650Y-310044D01*
X-608Y-309959D01*
X-568Y-309873D01*
X-532Y-309785D01*
X-500Y-309695D01*
X-471Y-309605D01*
X-446Y-309513D01*
X-425Y-309421D01*
X-408Y-309327D01*
X-394Y-309233D01*
X-385Y-309139D01*
X-379Y-309044D01*
X-377Y-308949D01*
X-376Y-308949D02*
X-376Y-302895D01*
X6135Y-302895D02*
X6135Y-311277D01*
X3806Y-302895D02*
X8463Y-302895D01*
X14902Y-302895D02*
X14991Y-302897D01*
X15080Y-302903D01*
X15168Y-302912D01*
X15256Y-302925D01*
X15344Y-302942D01*
X15430Y-302963D01*
X15516Y-302987D01*
X15600Y-303015D01*
X15684Y-303046D01*
X15765Y-303081D01*
X15846Y-303119D01*
X15924Y-303161D01*
X16001Y-303206D01*
X16076Y-303254D01*
X16148Y-303306D01*
X16219Y-303360D01*
X16287Y-303418D01*
X16352Y-303478D01*
X16415Y-303541D01*
X16475Y-303606D01*
X16533Y-303674D01*
X16587Y-303745D01*
X16639Y-303817D01*
X16687Y-303892D01*
X16732Y-303969D01*
X16774Y-304047D01*
X16812Y-304128D01*
X16847Y-304209D01*
X16878Y-304293D01*
X16906Y-304377D01*
X16930Y-304463D01*
X16951Y-304549D01*
X16968Y-304637D01*
X16981Y-304725D01*
X16990Y-304813D01*
X16996Y-304902D01*
X16998Y-304991D01*
X14902Y-302895D02*
X14799Y-302897D01*
X14697Y-302903D01*
X14595Y-302913D01*
X14493Y-302926D01*
X14392Y-302944D01*
X14292Y-302965D01*
X14192Y-302990D01*
X14094Y-303019D01*
X13997Y-303052D01*
X13901Y-303088D01*
X13806Y-303128D01*
X13713Y-303172D01*
X13622Y-303219D01*
X13533Y-303269D01*
X13446Y-303323D01*
X13360Y-303380D01*
X13277Y-303440D01*
X13197Y-303504D01*
X13119Y-303570D01*
X13043Y-303640D01*
X12970Y-303712D01*
X12900Y-303787D01*
X12833Y-303865D01*
X12769Y-303945D01*
X12708Y-304027D01*
X12650Y-304112D01*
X12596Y-304199D01*
X12544Y-304288D01*
X12497Y-304378D01*
X12452Y-304471D01*
X12412Y-304565D01*
X12374Y-304661D01*
X12341Y-304758D01*
X16299Y-306621D02*
X16364Y-306557D01*
X16426Y-306490D01*
X16485Y-306421D01*
X16542Y-306349D01*
X16595Y-306276D01*
X16646Y-306200D01*
X16693Y-306122D01*
X16737Y-306042D01*
X16778Y-305961D01*
X16816Y-305878D01*
X16850Y-305793D01*
X16881Y-305707D01*
X16908Y-305620D01*
X16932Y-305532D01*
X16952Y-305444D01*
X16969Y-305354D01*
X16981Y-305264D01*
X16991Y-305173D01*
X16996Y-305082D01*
X16998Y-304991D01*
X16299Y-306620D02*
X12341Y-311277D01*
X16997Y-311277D01*
X21036Y-312208D02*
X24761Y-312208D01*
X29299Y-311277D02*
X29299Y-302895D01*
X28368Y-311277D02*
X30231Y-311277D01*
X30231Y-302895D02*
X28368Y-302895D01*
X34591Y-302895D02*
X34591Y-311277D01*
X39248Y-311277D02*
X34591Y-302895D01*
X39248Y-302895D02*
X39248Y-311277D01*
D12*
X46400Y299744D02*
X-16600Y299744D01*
X-16600Y348744D01*
X46400Y348744D01*
X46400Y299744D01*
D14*
X-15076Y291270D02*
X-17404Y291270D01*
X-15076Y291269D02*
X-14981Y291267D01*
X-14886Y291261D01*
X-14792Y291252D01*
X-14698Y291238D01*
X-14604Y291221D01*
X-14512Y291200D01*
X-14420Y291175D01*
X-14330Y291146D01*
X-14240Y291114D01*
X-14152Y291078D01*
X-14066Y291038D01*
X-13981Y290996D01*
X-13898Y290949D01*
X-13817Y290899D01*
X-13739Y290846D01*
X-13662Y290790D01*
X-13588Y290731D01*
X-13516Y290669D01*
X-13447Y290604D01*
X-13380Y290536D01*
X-13317Y290466D01*
X-13256Y290392D01*
X-13198Y290317D01*
X-13144Y290239D01*
X-13092Y290159D01*
X-13044Y290077D01*
X-13000Y289994D01*
X-12958Y289908D01*
X-12921Y289821D01*
X-12887Y289732D01*
X-12856Y289642D01*
X-12829Y289551D01*
X-12806Y289459D01*
X-12787Y289366D01*
X-12772Y289272D01*
X-12760Y289178D01*
X-12752Y289083D01*
X-12748Y288988D01*
X-12748Y288894D01*
X-12752Y288799D01*
X-12760Y288704D01*
X-12772Y288610D01*
X-12787Y288516D01*
X-12806Y288423D01*
X-12829Y288331D01*
X-12856Y288240D01*
X-12887Y288150D01*
X-12921Y288061D01*
X-12958Y287974D01*
X-13000Y287888D01*
X-13044Y287805D01*
X-13092Y287723D01*
X-13144Y287643D01*
X-13198Y287565D01*
X-13256Y287490D01*
X-13317Y287416D01*
X-13380Y287346D01*
X-13447Y287278D01*
X-13516Y287213D01*
X-13588Y287151D01*
X-13662Y287092D01*
X-13739Y287036D01*
X-13817Y286983D01*
X-13898Y286933D01*
X-13981Y286886D01*
X-14066Y286844D01*
X-14152Y286804D01*
X-14240Y286768D01*
X-14330Y286736D01*
X-14420Y286707D01*
X-14512Y286682D01*
X-14604Y286661D01*
X-14698Y286644D01*
X-14792Y286630D01*
X-14886Y286621D01*
X-14981Y286615D01*
X-15076Y286613D01*
X-17404Y286613D01*
X-17404Y294995D01*
X-15076Y294995D01*
X-14991Y294993D01*
X-14907Y294987D01*
X-14822Y294978D01*
X-14739Y294964D01*
X-14656Y294947D01*
X-14573Y294926D01*
X-14492Y294901D01*
X-14412Y294873D01*
X-14334Y294841D01*
X-14257Y294805D01*
X-14181Y294766D01*
X-14108Y294724D01*
X-14037Y294678D01*
X-13967Y294629D01*
X-13900Y294577D01*
X-13836Y294522D01*
X-13774Y294464D01*
X-13714Y294404D01*
X-13658Y294340D01*
X-13604Y294275D01*
X-13554Y294206D01*
X-13507Y294136D01*
X-13463Y294064D01*
X-13422Y293989D01*
X-13385Y293913D01*
X-13351Y293835D01*
X-13321Y293756D01*
X-13294Y293675D01*
X-13271Y293594D01*
X-13252Y293511D01*
X-13237Y293428D01*
X-13225Y293344D01*
X-13217Y293259D01*
X-13213Y293174D01*
X-13213Y293090D01*
X-13217Y293005D01*
X-13225Y292920D01*
X-13237Y292836D01*
X-13252Y292753D01*
X-13271Y292670D01*
X-13294Y292589D01*
X-13321Y292508D01*
X-13351Y292429D01*
X-13385Y292351D01*
X-13422Y292275D01*
X-13463Y292201D01*
X-13507Y292128D01*
X-13554Y292058D01*
X-13604Y291989D01*
X-13658Y291924D01*
X-13714Y291860D01*
X-13774Y291800D01*
X-13836Y291742D01*
X-13900Y291687D01*
X-13967Y291635D01*
X-14037Y291586D01*
X-14108Y291540D01*
X-14181Y291498D01*
X-14257Y291459D01*
X-14334Y291423D01*
X-14412Y291391D01*
X-14492Y291363D01*
X-14573Y291338D01*
X-14656Y291317D01*
X-14739Y291300D01*
X-14822Y291286D01*
X-14907Y291277D01*
X-14991Y291271D01*
X-15076Y291269D01*
X-8476Y288941D02*
X-8476Y294995D01*
X-8476Y288941D02*
X-8474Y288846D01*
X-8468Y288751D01*
X-8459Y288657D01*
X-8445Y288563D01*
X-8428Y288469D01*
X-8407Y288377D01*
X-8382Y288285D01*
X-8353Y288195D01*
X-8321Y288105D01*
X-8285Y288017D01*
X-8245Y287931D01*
X-8203Y287846D01*
X-8156Y287763D01*
X-8106Y287682D01*
X-8053Y287604D01*
X-7997Y287527D01*
X-7938Y287453D01*
X-7876Y287381D01*
X-7811Y287312D01*
X-7743Y287245D01*
X-7673Y287182D01*
X-7599Y287121D01*
X-7524Y287063D01*
X-7446Y287009D01*
X-7366Y286957D01*
X-7284Y286909D01*
X-7201Y286865D01*
X-7115Y286823D01*
X-7028Y286786D01*
X-6939Y286752D01*
X-6849Y286721D01*
X-6758Y286694D01*
X-6666Y286671D01*
X-6573Y286652D01*
X-6479Y286637D01*
X-6385Y286625D01*
X-6290Y286617D01*
X-6195Y286613D01*
X-6101Y286613D01*
X-6006Y286617D01*
X-5911Y286625D01*
X-5817Y286637D01*
X-5723Y286652D01*
X-5630Y286671D01*
X-5538Y286694D01*
X-5447Y286721D01*
X-5357Y286752D01*
X-5268Y286786D01*
X-5181Y286823D01*
X-5095Y286865D01*
X-5012Y286909D01*
X-4930Y286957D01*
X-4850Y287009D01*
X-4772Y287063D01*
X-4697Y287121D01*
X-4623Y287182D01*
X-4553Y287245D01*
X-4485Y287312D01*
X-4420Y287381D01*
X-4358Y287453D01*
X-4299Y287527D01*
X-4243Y287604D01*
X-4190Y287682D01*
X-4140Y287763D01*
X-4093Y287846D01*
X-4051Y287931D01*
X-4011Y288017D01*
X-3975Y288105D01*
X-3943Y288195D01*
X-3914Y288285D01*
X-3889Y288377D01*
X-3868Y288469D01*
X-3851Y288563D01*
X-3837Y288657D01*
X-3828Y288751D01*
X-3822Y288846D01*
X-3820Y288941D01*
X-3820Y294995D01*
X2691Y294995D02*
X2691Y286613D01*
X363Y294995D02*
X5020Y294995D01*
X11458Y294996D02*
X11547Y294994D01*
X11636Y294988D01*
X11724Y294979D01*
X11812Y294966D01*
X11900Y294949D01*
X11986Y294928D01*
X12072Y294904D01*
X12156Y294876D01*
X12240Y294845D01*
X12321Y294810D01*
X12402Y294772D01*
X12480Y294730D01*
X12557Y294685D01*
X12632Y294637D01*
X12704Y294585D01*
X12775Y294531D01*
X12843Y294473D01*
X12908Y294413D01*
X12971Y294350D01*
X13031Y294285D01*
X13089Y294217D01*
X13143Y294146D01*
X13195Y294074D01*
X13243Y293999D01*
X13288Y293922D01*
X13330Y293844D01*
X13368Y293763D01*
X13403Y293682D01*
X13434Y293598D01*
X13462Y293514D01*
X13486Y293428D01*
X13507Y293342D01*
X13524Y293254D01*
X13537Y293166D01*
X13546Y293078D01*
X13552Y292989D01*
X13554Y292900D01*
X11458Y294995D02*
X11355Y294993D01*
X11253Y294987D01*
X11151Y294977D01*
X11049Y294964D01*
X10948Y294946D01*
X10848Y294925D01*
X10748Y294900D01*
X10650Y294871D01*
X10553Y294838D01*
X10457Y294802D01*
X10362Y294762D01*
X10269Y294718D01*
X10178Y294671D01*
X10089Y294621D01*
X10002Y294567D01*
X9916Y294510D01*
X9833Y294450D01*
X9753Y294386D01*
X9675Y294320D01*
X9599Y294250D01*
X9526Y294178D01*
X9456Y294103D01*
X9389Y294025D01*
X9325Y293945D01*
X9264Y293863D01*
X9206Y293778D01*
X9152Y293691D01*
X9100Y293602D01*
X9053Y293512D01*
X9008Y293419D01*
X8968Y293325D01*
X8930Y293229D01*
X8897Y293132D01*
X12855Y291270D02*
X12920Y291334D01*
X12982Y291401D01*
X13042Y291470D01*
X13098Y291542D01*
X13151Y291615D01*
X13202Y291691D01*
X13249Y291769D01*
X13293Y291849D01*
X13334Y291930D01*
X13372Y292013D01*
X13406Y292098D01*
X13437Y292184D01*
X13464Y292271D01*
X13488Y292359D01*
X13508Y292447D01*
X13525Y292537D01*
X13537Y292627D01*
X13547Y292718D01*
X13552Y292809D01*
X13554Y292900D01*
X12855Y291270D02*
X8897Y286613D01*
X13554Y286613D01*
X17593Y285682D02*
X21318Y285682D01*
X25356Y288941D02*
X25356Y292667D01*
X25357Y292667D02*
X25359Y292762D01*
X25365Y292857D01*
X25374Y292951D01*
X25388Y293045D01*
X25405Y293139D01*
X25426Y293231D01*
X25451Y293323D01*
X25480Y293413D01*
X25512Y293503D01*
X25548Y293591D01*
X25588Y293677D01*
X25630Y293762D01*
X25677Y293845D01*
X25727Y293926D01*
X25780Y294004D01*
X25836Y294081D01*
X25895Y294155D01*
X25957Y294227D01*
X26022Y294296D01*
X26090Y294363D01*
X26160Y294426D01*
X26234Y294487D01*
X26309Y294545D01*
X26387Y294599D01*
X26467Y294651D01*
X26549Y294699D01*
X26632Y294743D01*
X26718Y294785D01*
X26805Y294822D01*
X26894Y294856D01*
X26984Y294887D01*
X27075Y294914D01*
X27167Y294937D01*
X27260Y294956D01*
X27354Y294971D01*
X27448Y294983D01*
X27543Y294991D01*
X27638Y294995D01*
X27732Y294995D01*
X27827Y294991D01*
X27922Y294983D01*
X28016Y294971D01*
X28110Y294956D01*
X28203Y294937D01*
X28295Y294914D01*
X28386Y294887D01*
X28476Y294856D01*
X28565Y294822D01*
X28652Y294785D01*
X28738Y294743D01*
X28821Y294699D01*
X28903Y294651D01*
X28983Y294599D01*
X29061Y294545D01*
X29136Y294487D01*
X29210Y294426D01*
X29280Y294363D01*
X29348Y294296D01*
X29413Y294227D01*
X29475Y294155D01*
X29534Y294081D01*
X29590Y294004D01*
X29643Y293926D01*
X29693Y293845D01*
X29740Y293762D01*
X29782Y293677D01*
X29822Y293591D01*
X29858Y293503D01*
X29890Y293413D01*
X29919Y293323D01*
X29944Y293231D01*
X29965Y293139D01*
X29982Y293045D01*
X29996Y292951D01*
X30005Y292857D01*
X30011Y292762D01*
X30013Y292667D01*
X30013Y288941D01*
X30011Y288846D01*
X30005Y288751D01*
X29996Y288657D01*
X29982Y288563D01*
X29965Y288469D01*
X29944Y288377D01*
X29919Y288285D01*
X29890Y288195D01*
X29858Y288105D01*
X29822Y288017D01*
X29782Y287931D01*
X29740Y287846D01*
X29693Y287763D01*
X29643Y287682D01*
X29590Y287604D01*
X29534Y287527D01*
X29475Y287453D01*
X29413Y287381D01*
X29348Y287312D01*
X29280Y287245D01*
X29210Y287182D01*
X29136Y287121D01*
X29061Y287063D01*
X28983Y287009D01*
X28903Y286957D01*
X28821Y286909D01*
X28738Y286865D01*
X28652Y286823D01*
X28565Y286786D01*
X28476Y286752D01*
X28386Y286721D01*
X28295Y286694D01*
X28203Y286671D01*
X28110Y286652D01*
X28016Y286637D01*
X27922Y286625D01*
X27827Y286617D01*
X27732Y286613D01*
X27638Y286613D01*
X27543Y286617D01*
X27448Y286625D01*
X27354Y286637D01*
X27260Y286652D01*
X27167Y286671D01*
X27075Y286694D01*
X26984Y286721D01*
X26894Y286752D01*
X26805Y286786D01*
X26718Y286823D01*
X26632Y286865D01*
X26549Y286909D01*
X26467Y286957D01*
X26387Y287009D01*
X26309Y287063D01*
X26234Y287121D01*
X26160Y287182D01*
X26090Y287245D01*
X26022Y287312D01*
X25957Y287381D01*
X25895Y287453D01*
X25836Y287527D01*
X25780Y287604D01*
X25727Y287682D01*
X25677Y287763D01*
X25630Y287846D01*
X25588Y287931D01*
X25548Y288017D01*
X25512Y288105D01*
X25480Y288195D01*
X25451Y288285D01*
X25426Y288377D01*
X25405Y288469D01*
X25388Y288563D01*
X25374Y288657D01*
X25365Y288751D01*
X25359Y288846D01*
X25357Y288941D01*
X34805Y288941D02*
X34805Y294995D01*
X34805Y288941D02*
X34807Y288846D01*
X34813Y288751D01*
X34822Y288657D01*
X34836Y288563D01*
X34853Y288469D01*
X34874Y288377D01*
X34899Y288285D01*
X34928Y288195D01*
X34960Y288105D01*
X34996Y288017D01*
X35036Y287931D01*
X35078Y287846D01*
X35125Y287763D01*
X35175Y287682D01*
X35228Y287604D01*
X35284Y287527D01*
X35343Y287453D01*
X35405Y287381D01*
X35470Y287312D01*
X35538Y287245D01*
X35608Y287182D01*
X35682Y287121D01*
X35757Y287063D01*
X35835Y287009D01*
X35915Y286957D01*
X35997Y286909D01*
X36080Y286865D01*
X36166Y286823D01*
X36253Y286786D01*
X36342Y286752D01*
X36432Y286721D01*
X36523Y286694D01*
X36615Y286671D01*
X36708Y286652D01*
X36802Y286637D01*
X36896Y286625D01*
X36991Y286617D01*
X37086Y286613D01*
X37180Y286613D01*
X37275Y286617D01*
X37370Y286625D01*
X37464Y286637D01*
X37558Y286652D01*
X37651Y286671D01*
X37743Y286694D01*
X37834Y286721D01*
X37924Y286752D01*
X38013Y286786D01*
X38100Y286823D01*
X38186Y286865D01*
X38269Y286909D01*
X38351Y286957D01*
X38431Y287009D01*
X38509Y287063D01*
X38584Y287121D01*
X38658Y287182D01*
X38728Y287245D01*
X38796Y287312D01*
X38861Y287381D01*
X38923Y287453D01*
X38982Y287527D01*
X39038Y287604D01*
X39091Y287682D01*
X39141Y287763D01*
X39188Y287846D01*
X39230Y287931D01*
X39270Y288017D01*
X39306Y288105D01*
X39338Y288195D01*
X39367Y288285D01*
X39392Y288377D01*
X39413Y288469D01*
X39430Y288563D01*
X39444Y288657D01*
X39453Y288751D01*
X39459Y288846D01*
X39461Y288941D01*
X39462Y288941D02*
X39462Y294995D01*
X45973Y294995D02*
X45973Y286613D01*
X43644Y294995D02*
X48301Y294995D01*
D12*
X-199984Y299528D02*
X-282984Y299528D01*
X-282984Y348528D01*
X-199984Y348528D01*
X-199984Y299528D01*
D14*
X-273179Y294779D02*
X-273179Y286397D01*
X-273179Y294779D02*
X-270850Y294779D01*
X-270755Y294777D01*
X-270660Y294771D01*
X-270566Y294762D01*
X-270472Y294748D01*
X-270378Y294731D01*
X-270286Y294710D01*
X-270194Y294685D01*
X-270104Y294656D01*
X-270014Y294624D01*
X-269926Y294588D01*
X-269840Y294548D01*
X-269755Y294506D01*
X-269672Y294459D01*
X-269591Y294409D01*
X-269513Y294356D01*
X-269436Y294300D01*
X-269362Y294241D01*
X-269290Y294179D01*
X-269221Y294114D01*
X-269154Y294046D01*
X-269091Y293976D01*
X-269030Y293902D01*
X-268972Y293827D01*
X-268918Y293749D01*
X-268866Y293669D01*
X-268818Y293587D01*
X-268774Y293504D01*
X-268732Y293418D01*
X-268695Y293331D01*
X-268661Y293242D01*
X-268630Y293152D01*
X-268603Y293061D01*
X-268580Y292969D01*
X-268561Y292876D01*
X-268546Y292782D01*
X-268534Y292688D01*
X-268526Y292593D01*
X-268522Y292498D01*
X-268522Y292404D01*
X-268526Y292309D01*
X-268534Y292214D01*
X-268546Y292120D01*
X-268561Y292026D01*
X-268580Y291933D01*
X-268603Y291841D01*
X-268630Y291750D01*
X-268661Y291660D01*
X-268695Y291571D01*
X-268732Y291484D01*
X-268774Y291398D01*
X-268818Y291315D01*
X-268866Y291233D01*
X-268918Y291153D01*
X-268972Y291075D01*
X-269030Y291000D01*
X-269091Y290926D01*
X-269154Y290856D01*
X-269221Y290788D01*
X-269290Y290723D01*
X-269362Y290661D01*
X-269436Y290602D01*
X-269513Y290546D01*
X-269591Y290493D01*
X-269672Y290443D01*
X-269755Y290396D01*
X-269840Y290354D01*
X-269926Y290314D01*
X-270014Y290278D01*
X-270104Y290246D01*
X-270194Y290217D01*
X-270286Y290192D01*
X-270378Y290171D01*
X-270472Y290154D01*
X-270566Y290140D01*
X-270660Y290131D01*
X-270755Y290125D01*
X-270850Y290123D01*
X-270850Y290122D02*
X-273179Y290122D01*
X-264555Y288725D02*
X-264555Y292451D01*
X-264553Y292546D01*
X-264547Y292641D01*
X-264538Y292735D01*
X-264524Y292829D01*
X-264507Y292923D01*
X-264486Y293015D01*
X-264461Y293107D01*
X-264432Y293197D01*
X-264400Y293287D01*
X-264364Y293375D01*
X-264324Y293461D01*
X-264282Y293546D01*
X-264235Y293629D01*
X-264185Y293710D01*
X-264132Y293788D01*
X-264076Y293865D01*
X-264017Y293939D01*
X-263955Y294011D01*
X-263890Y294080D01*
X-263822Y294147D01*
X-263752Y294210D01*
X-263678Y294271D01*
X-263603Y294329D01*
X-263525Y294383D01*
X-263445Y294435D01*
X-263363Y294483D01*
X-263280Y294527D01*
X-263194Y294569D01*
X-263107Y294606D01*
X-263018Y294640D01*
X-262928Y294671D01*
X-262837Y294698D01*
X-262745Y294721D01*
X-262652Y294740D01*
X-262558Y294755D01*
X-262464Y294767D01*
X-262369Y294775D01*
X-262274Y294779D01*
X-262180Y294779D01*
X-262085Y294775D01*
X-261990Y294767D01*
X-261896Y294755D01*
X-261802Y294740D01*
X-261709Y294721D01*
X-261617Y294698D01*
X-261526Y294671D01*
X-261436Y294640D01*
X-261347Y294606D01*
X-261260Y294569D01*
X-261174Y294527D01*
X-261091Y294483D01*
X-261009Y294435D01*
X-260929Y294383D01*
X-260851Y294329D01*
X-260776Y294271D01*
X-260702Y294210D01*
X-260632Y294147D01*
X-260564Y294080D01*
X-260499Y294011D01*
X-260437Y293939D01*
X-260378Y293865D01*
X-260322Y293788D01*
X-260269Y293710D01*
X-260219Y293629D01*
X-260172Y293546D01*
X-260130Y293461D01*
X-260090Y293375D01*
X-260054Y293287D01*
X-260022Y293197D01*
X-259993Y293107D01*
X-259968Y293015D01*
X-259947Y292923D01*
X-259930Y292829D01*
X-259916Y292735D01*
X-259907Y292641D01*
X-259901Y292546D01*
X-259899Y292451D01*
X-259899Y288725D01*
X-259901Y288630D01*
X-259907Y288535D01*
X-259916Y288441D01*
X-259930Y288347D01*
X-259947Y288253D01*
X-259968Y288161D01*
X-259993Y288069D01*
X-260022Y287979D01*
X-260054Y287889D01*
X-260090Y287801D01*
X-260130Y287715D01*
X-260172Y287630D01*
X-260219Y287547D01*
X-260269Y287466D01*
X-260322Y287388D01*
X-260378Y287311D01*
X-260437Y287237D01*
X-260499Y287165D01*
X-260564Y287096D01*
X-260632Y287029D01*
X-260702Y286966D01*
X-260776Y286905D01*
X-260851Y286847D01*
X-260929Y286793D01*
X-261009Y286741D01*
X-261091Y286693D01*
X-261174Y286649D01*
X-261260Y286607D01*
X-261347Y286570D01*
X-261436Y286536D01*
X-261526Y286505D01*
X-261617Y286478D01*
X-261709Y286455D01*
X-261802Y286436D01*
X-261896Y286421D01*
X-261990Y286409D01*
X-262085Y286401D01*
X-262180Y286397D01*
X-262274Y286397D01*
X-262369Y286401D01*
X-262464Y286409D01*
X-262558Y286421D01*
X-262652Y286436D01*
X-262745Y286455D01*
X-262837Y286478D01*
X-262928Y286505D01*
X-263018Y286536D01*
X-263107Y286570D01*
X-263194Y286607D01*
X-263280Y286649D01*
X-263363Y286693D01*
X-263445Y286741D01*
X-263525Y286793D01*
X-263603Y286847D01*
X-263678Y286905D01*
X-263752Y286966D01*
X-263822Y287029D01*
X-263890Y287096D01*
X-263955Y287165D01*
X-264017Y287237D01*
X-264076Y287311D01*
X-264132Y287388D01*
X-264185Y287466D01*
X-264235Y287547D01*
X-264282Y287630D01*
X-264324Y287715D01*
X-264364Y287801D01*
X-264400Y287889D01*
X-264432Y287979D01*
X-264461Y288069D01*
X-264486Y288161D01*
X-264507Y288253D01*
X-264524Y288347D01*
X-264538Y288441D01*
X-264547Y288535D01*
X-264553Y288630D01*
X-264555Y288725D01*
X-253693Y286397D02*
X-253693Y294779D01*
X-256021Y294779D02*
X-251364Y294779D01*
X-247487Y292916D02*
X-245158Y294779D01*
X-245158Y286397D01*
X-242830Y286397D02*
X-247487Y286397D01*
X-238792Y285466D02*
X-235066Y285466D01*
X-231028Y288725D02*
X-231028Y292451D01*
X-231027Y292451D02*
X-231025Y292546D01*
X-231019Y292641D01*
X-231010Y292735D01*
X-230996Y292829D01*
X-230979Y292923D01*
X-230958Y293015D01*
X-230933Y293107D01*
X-230904Y293197D01*
X-230872Y293287D01*
X-230836Y293375D01*
X-230796Y293461D01*
X-230754Y293546D01*
X-230707Y293629D01*
X-230657Y293710D01*
X-230604Y293788D01*
X-230548Y293865D01*
X-230489Y293939D01*
X-230427Y294011D01*
X-230362Y294080D01*
X-230294Y294147D01*
X-230224Y294210D01*
X-230150Y294271D01*
X-230075Y294329D01*
X-229997Y294383D01*
X-229917Y294435D01*
X-229835Y294483D01*
X-229752Y294527D01*
X-229666Y294569D01*
X-229579Y294606D01*
X-229490Y294640D01*
X-229400Y294671D01*
X-229309Y294698D01*
X-229217Y294721D01*
X-229124Y294740D01*
X-229030Y294755D01*
X-228936Y294767D01*
X-228841Y294775D01*
X-228746Y294779D01*
X-228652Y294779D01*
X-228557Y294775D01*
X-228462Y294767D01*
X-228368Y294755D01*
X-228274Y294740D01*
X-228181Y294721D01*
X-228089Y294698D01*
X-227998Y294671D01*
X-227908Y294640D01*
X-227819Y294606D01*
X-227732Y294569D01*
X-227646Y294527D01*
X-227563Y294483D01*
X-227481Y294435D01*
X-227401Y294383D01*
X-227323Y294329D01*
X-227248Y294271D01*
X-227174Y294210D01*
X-227104Y294147D01*
X-227036Y294080D01*
X-226971Y294011D01*
X-226909Y293939D01*
X-226850Y293865D01*
X-226794Y293788D01*
X-226741Y293710D01*
X-226691Y293629D01*
X-226644Y293546D01*
X-226602Y293461D01*
X-226562Y293375D01*
X-226526Y293287D01*
X-226494Y293197D01*
X-226465Y293107D01*
X-226440Y293015D01*
X-226419Y292923D01*
X-226402Y292829D01*
X-226388Y292735D01*
X-226379Y292641D01*
X-226373Y292546D01*
X-226371Y292451D01*
X-226371Y288725D01*
X-226373Y288630D01*
X-226379Y288535D01*
X-226388Y288441D01*
X-226402Y288347D01*
X-226419Y288253D01*
X-226440Y288161D01*
X-226465Y288069D01*
X-226494Y287979D01*
X-226526Y287889D01*
X-226562Y287801D01*
X-226602Y287715D01*
X-226644Y287630D01*
X-226691Y287547D01*
X-226741Y287466D01*
X-226794Y287388D01*
X-226850Y287311D01*
X-226909Y287237D01*
X-226971Y287165D01*
X-227036Y287096D01*
X-227104Y287029D01*
X-227174Y286966D01*
X-227248Y286905D01*
X-227323Y286847D01*
X-227401Y286793D01*
X-227481Y286741D01*
X-227563Y286693D01*
X-227646Y286649D01*
X-227732Y286607D01*
X-227819Y286570D01*
X-227908Y286536D01*
X-227998Y286505D01*
X-228089Y286478D01*
X-228181Y286455D01*
X-228274Y286436D01*
X-228368Y286421D01*
X-228462Y286409D01*
X-228557Y286401D01*
X-228652Y286397D01*
X-228746Y286397D01*
X-228841Y286401D01*
X-228936Y286409D01*
X-229030Y286421D01*
X-229124Y286436D01*
X-229217Y286455D01*
X-229309Y286478D01*
X-229400Y286505D01*
X-229490Y286536D01*
X-229579Y286570D01*
X-229666Y286607D01*
X-229752Y286649D01*
X-229835Y286693D01*
X-229917Y286741D01*
X-229997Y286793D01*
X-230075Y286847D01*
X-230150Y286905D01*
X-230224Y286966D01*
X-230294Y287029D01*
X-230362Y287096D01*
X-230427Y287165D01*
X-230489Y287237D01*
X-230548Y287311D01*
X-230604Y287388D01*
X-230657Y287466D01*
X-230707Y287547D01*
X-230754Y287630D01*
X-230796Y287715D01*
X-230836Y287801D01*
X-230872Y287889D01*
X-230904Y287979D01*
X-230933Y288069D01*
X-230958Y288161D01*
X-230979Y288253D01*
X-230996Y288347D01*
X-231010Y288441D01*
X-231019Y288535D01*
X-231025Y288630D01*
X-231027Y288725D01*
X-221579Y288725D02*
X-221579Y294779D01*
X-221579Y288725D02*
X-221577Y288630D01*
X-221571Y288535D01*
X-221562Y288441D01*
X-221548Y288347D01*
X-221531Y288253D01*
X-221510Y288161D01*
X-221485Y288069D01*
X-221456Y287979D01*
X-221424Y287889D01*
X-221388Y287801D01*
X-221348Y287715D01*
X-221306Y287630D01*
X-221259Y287547D01*
X-221209Y287466D01*
X-221156Y287388D01*
X-221100Y287311D01*
X-221041Y287237D01*
X-220979Y287165D01*
X-220914Y287096D01*
X-220846Y287029D01*
X-220776Y286966D01*
X-220702Y286905D01*
X-220627Y286847D01*
X-220549Y286793D01*
X-220469Y286741D01*
X-220387Y286693D01*
X-220304Y286649D01*
X-220218Y286607D01*
X-220131Y286570D01*
X-220042Y286536D01*
X-219952Y286505D01*
X-219861Y286478D01*
X-219769Y286455D01*
X-219676Y286436D01*
X-219582Y286421D01*
X-219488Y286409D01*
X-219393Y286401D01*
X-219298Y286397D01*
X-219204Y286397D01*
X-219109Y286401D01*
X-219014Y286409D01*
X-218920Y286421D01*
X-218826Y286436D01*
X-218733Y286455D01*
X-218641Y286478D01*
X-218550Y286505D01*
X-218460Y286536D01*
X-218371Y286570D01*
X-218284Y286607D01*
X-218198Y286649D01*
X-218115Y286693D01*
X-218033Y286741D01*
X-217953Y286793D01*
X-217875Y286847D01*
X-217800Y286905D01*
X-217726Y286966D01*
X-217656Y287029D01*
X-217588Y287096D01*
X-217523Y287165D01*
X-217461Y287237D01*
X-217402Y287311D01*
X-217346Y287388D01*
X-217293Y287466D01*
X-217243Y287547D01*
X-217196Y287630D01*
X-217154Y287715D01*
X-217114Y287801D01*
X-217078Y287889D01*
X-217046Y287979D01*
X-217017Y288069D01*
X-216992Y288161D01*
X-216971Y288253D01*
X-216954Y288347D01*
X-216940Y288441D01*
X-216931Y288535D01*
X-216925Y288630D01*
X-216923Y288725D01*
X-216922Y288725D02*
X-216922Y294779D01*
X-210411Y294779D02*
X-210411Y286397D01*
X-212740Y294779D02*
X-208083Y294779D01*
D12*
X-199608Y-314756D02*
X-282608Y-314756D01*
X-199608Y-314756D02*
X-199608Y-363756D01*
X-282608Y-363756D01*
X-282608Y-314756D01*
D14*
X-264349Y-310007D02*
X-264349Y-301625D01*
X-262021Y-301625D01*
X-261926Y-301627D01*
X-261831Y-301633D01*
X-261737Y-301642D01*
X-261643Y-301656D01*
X-261549Y-301673D01*
X-261457Y-301694D01*
X-261365Y-301719D01*
X-261275Y-301748D01*
X-261185Y-301780D01*
X-261097Y-301816D01*
X-261011Y-301856D01*
X-260926Y-301898D01*
X-260843Y-301945D01*
X-260762Y-301995D01*
X-260684Y-302048D01*
X-260607Y-302104D01*
X-260533Y-302163D01*
X-260461Y-302225D01*
X-260392Y-302290D01*
X-260325Y-302358D01*
X-260262Y-302428D01*
X-260201Y-302502D01*
X-260143Y-302577D01*
X-260089Y-302655D01*
X-260037Y-302735D01*
X-259989Y-302817D01*
X-259945Y-302900D01*
X-259903Y-302986D01*
X-259866Y-303073D01*
X-259832Y-303162D01*
X-259801Y-303252D01*
X-259774Y-303343D01*
X-259751Y-303435D01*
X-259732Y-303528D01*
X-259717Y-303622D01*
X-259705Y-303716D01*
X-259697Y-303811D01*
X-259693Y-303906D01*
X-259693Y-304000D01*
X-259697Y-304095D01*
X-259705Y-304190D01*
X-259717Y-304284D01*
X-259732Y-304378D01*
X-259751Y-304471D01*
X-259774Y-304563D01*
X-259801Y-304654D01*
X-259832Y-304744D01*
X-259866Y-304833D01*
X-259903Y-304920D01*
X-259945Y-305006D01*
X-259989Y-305089D01*
X-260037Y-305171D01*
X-260089Y-305251D01*
X-260143Y-305329D01*
X-260201Y-305404D01*
X-260262Y-305478D01*
X-260325Y-305548D01*
X-260392Y-305616D01*
X-260461Y-305681D01*
X-260533Y-305743D01*
X-260607Y-305802D01*
X-260684Y-305858D01*
X-260762Y-305911D01*
X-260843Y-305961D01*
X-260926Y-306008D01*
X-261011Y-306050D01*
X-261097Y-306090D01*
X-261185Y-306126D01*
X-261275Y-306158D01*
X-261365Y-306187D01*
X-261457Y-306212D01*
X-261549Y-306233D01*
X-261643Y-306250D01*
X-261737Y-306264D01*
X-261831Y-306273D01*
X-261926Y-306279D01*
X-262021Y-306281D01*
X-262021Y-306282D02*
X-264349Y-306282D01*
X-255726Y-307679D02*
X-255726Y-303953D01*
X-255725Y-303953D02*
X-255723Y-303858D01*
X-255717Y-303763D01*
X-255708Y-303669D01*
X-255694Y-303575D01*
X-255677Y-303481D01*
X-255656Y-303389D01*
X-255631Y-303297D01*
X-255602Y-303207D01*
X-255570Y-303117D01*
X-255534Y-303029D01*
X-255494Y-302943D01*
X-255452Y-302858D01*
X-255405Y-302775D01*
X-255355Y-302694D01*
X-255302Y-302616D01*
X-255246Y-302539D01*
X-255187Y-302465D01*
X-255125Y-302393D01*
X-255060Y-302324D01*
X-254992Y-302257D01*
X-254922Y-302194D01*
X-254848Y-302133D01*
X-254773Y-302075D01*
X-254695Y-302021D01*
X-254615Y-301969D01*
X-254533Y-301921D01*
X-254450Y-301877D01*
X-254364Y-301835D01*
X-254277Y-301798D01*
X-254188Y-301764D01*
X-254098Y-301733D01*
X-254007Y-301706D01*
X-253915Y-301683D01*
X-253822Y-301664D01*
X-253728Y-301649D01*
X-253634Y-301637D01*
X-253539Y-301629D01*
X-253444Y-301625D01*
X-253350Y-301625D01*
X-253255Y-301629D01*
X-253160Y-301637D01*
X-253066Y-301649D01*
X-252972Y-301664D01*
X-252879Y-301683D01*
X-252787Y-301706D01*
X-252696Y-301733D01*
X-252606Y-301764D01*
X-252517Y-301798D01*
X-252430Y-301835D01*
X-252344Y-301877D01*
X-252261Y-301921D01*
X-252179Y-301969D01*
X-252099Y-302021D01*
X-252021Y-302075D01*
X-251946Y-302133D01*
X-251872Y-302194D01*
X-251802Y-302257D01*
X-251734Y-302324D01*
X-251669Y-302393D01*
X-251607Y-302465D01*
X-251548Y-302539D01*
X-251492Y-302616D01*
X-251439Y-302694D01*
X-251389Y-302775D01*
X-251342Y-302858D01*
X-251300Y-302943D01*
X-251260Y-303029D01*
X-251224Y-303117D01*
X-251192Y-303207D01*
X-251163Y-303297D01*
X-251138Y-303389D01*
X-251117Y-303481D01*
X-251100Y-303575D01*
X-251086Y-303669D01*
X-251077Y-303763D01*
X-251071Y-303858D01*
X-251069Y-303953D01*
X-251069Y-307679D01*
X-251071Y-307774D01*
X-251077Y-307869D01*
X-251086Y-307963D01*
X-251100Y-308057D01*
X-251117Y-308151D01*
X-251138Y-308243D01*
X-251163Y-308335D01*
X-251192Y-308425D01*
X-251224Y-308515D01*
X-251260Y-308603D01*
X-251300Y-308689D01*
X-251342Y-308774D01*
X-251389Y-308857D01*
X-251439Y-308938D01*
X-251492Y-309016D01*
X-251548Y-309093D01*
X-251607Y-309167D01*
X-251669Y-309239D01*
X-251734Y-309308D01*
X-251802Y-309375D01*
X-251872Y-309438D01*
X-251946Y-309499D01*
X-252021Y-309557D01*
X-252099Y-309611D01*
X-252179Y-309663D01*
X-252261Y-309711D01*
X-252344Y-309755D01*
X-252430Y-309797D01*
X-252517Y-309834D01*
X-252606Y-309868D01*
X-252696Y-309899D01*
X-252787Y-309926D01*
X-252879Y-309949D01*
X-252972Y-309968D01*
X-253066Y-309983D01*
X-253160Y-309995D01*
X-253255Y-310003D01*
X-253350Y-310007D01*
X-253444Y-310007D01*
X-253539Y-310003D01*
X-253634Y-309995D01*
X-253728Y-309983D01*
X-253822Y-309968D01*
X-253915Y-309949D01*
X-254007Y-309926D01*
X-254098Y-309899D01*
X-254188Y-309868D01*
X-254277Y-309834D01*
X-254364Y-309797D01*
X-254450Y-309755D01*
X-254533Y-309711D01*
X-254615Y-309663D01*
X-254695Y-309611D01*
X-254773Y-309557D01*
X-254848Y-309499D01*
X-254922Y-309438D01*
X-254992Y-309375D01*
X-255060Y-309308D01*
X-255125Y-309239D01*
X-255187Y-309167D01*
X-255246Y-309093D01*
X-255302Y-309016D01*
X-255355Y-308938D01*
X-255405Y-308857D01*
X-255452Y-308774D01*
X-255494Y-308689D01*
X-255534Y-308603D01*
X-255570Y-308515D01*
X-255602Y-308425D01*
X-255631Y-308335D01*
X-255656Y-308243D01*
X-255677Y-308151D01*
X-255694Y-308057D01*
X-255708Y-307963D01*
X-255717Y-307869D01*
X-255723Y-307774D01*
X-255725Y-307679D01*
X-244863Y-310007D02*
X-244863Y-301625D01*
X-247191Y-301625D02*
X-242535Y-301625D01*
X-238657Y-303488D02*
X-236329Y-301625D01*
X-236329Y-310007D01*
X-238657Y-310007D02*
X-234000Y-310007D01*
X-229962Y-310938D02*
X-226236Y-310938D01*
X-221698Y-310007D02*
X-221698Y-301625D01*
X-222630Y-310007D02*
X-220767Y-310007D01*
X-220767Y-301625D02*
X-222630Y-301625D01*
X-216407Y-301625D02*
X-216407Y-310007D01*
X-211750Y-310007D02*
X-216407Y-301625D01*
X-211750Y-301625D02*
X-211750Y-310007D01*
D12*
X-188688Y299904D02*
X-105688Y299904D01*
X-188688Y299904D02*
X-188688Y348904D01*
X-105688Y348904D01*
X-105688Y299904D01*
D14*
X-180153Y295155D02*
X-180153Y286773D01*
X-180153Y295155D02*
X-177824Y295155D01*
X-177729Y295153D01*
X-177634Y295147D01*
X-177540Y295138D01*
X-177446Y295124D01*
X-177352Y295107D01*
X-177260Y295086D01*
X-177168Y295061D01*
X-177078Y295032D01*
X-176988Y295000D01*
X-176900Y294964D01*
X-176814Y294924D01*
X-176729Y294882D01*
X-176646Y294835D01*
X-176565Y294785D01*
X-176487Y294732D01*
X-176410Y294676D01*
X-176336Y294617D01*
X-176264Y294555D01*
X-176195Y294490D01*
X-176128Y294422D01*
X-176065Y294352D01*
X-176004Y294278D01*
X-175946Y294203D01*
X-175892Y294125D01*
X-175840Y294045D01*
X-175792Y293963D01*
X-175748Y293880D01*
X-175706Y293794D01*
X-175669Y293707D01*
X-175635Y293618D01*
X-175604Y293528D01*
X-175577Y293437D01*
X-175554Y293345D01*
X-175535Y293252D01*
X-175520Y293158D01*
X-175508Y293064D01*
X-175500Y292969D01*
X-175496Y292874D01*
X-175496Y292780D01*
X-175500Y292685D01*
X-175508Y292590D01*
X-175520Y292496D01*
X-175535Y292402D01*
X-175554Y292309D01*
X-175577Y292217D01*
X-175604Y292126D01*
X-175635Y292036D01*
X-175669Y291947D01*
X-175706Y291860D01*
X-175748Y291774D01*
X-175792Y291691D01*
X-175840Y291609D01*
X-175892Y291529D01*
X-175946Y291451D01*
X-176004Y291376D01*
X-176065Y291302D01*
X-176128Y291232D01*
X-176195Y291164D01*
X-176264Y291099D01*
X-176336Y291037D01*
X-176410Y290978D01*
X-176487Y290922D01*
X-176565Y290869D01*
X-176646Y290819D01*
X-176729Y290772D01*
X-176814Y290730D01*
X-176900Y290690D01*
X-176988Y290654D01*
X-177078Y290622D01*
X-177168Y290593D01*
X-177260Y290568D01*
X-177352Y290547D01*
X-177446Y290530D01*
X-177540Y290516D01*
X-177634Y290507D01*
X-177729Y290501D01*
X-177824Y290499D01*
X-177824Y290498D02*
X-180153Y290498D01*
X-171529Y289101D02*
X-171529Y292827D01*
X-171527Y292922D01*
X-171521Y293017D01*
X-171512Y293111D01*
X-171498Y293205D01*
X-171481Y293299D01*
X-171460Y293391D01*
X-171435Y293483D01*
X-171406Y293573D01*
X-171374Y293663D01*
X-171338Y293751D01*
X-171298Y293837D01*
X-171256Y293922D01*
X-171209Y294005D01*
X-171159Y294086D01*
X-171106Y294164D01*
X-171050Y294241D01*
X-170991Y294315D01*
X-170929Y294387D01*
X-170864Y294456D01*
X-170796Y294523D01*
X-170726Y294586D01*
X-170652Y294647D01*
X-170577Y294705D01*
X-170499Y294759D01*
X-170419Y294811D01*
X-170337Y294859D01*
X-170254Y294903D01*
X-170168Y294945D01*
X-170081Y294982D01*
X-169992Y295016D01*
X-169902Y295047D01*
X-169811Y295074D01*
X-169719Y295097D01*
X-169626Y295116D01*
X-169532Y295131D01*
X-169438Y295143D01*
X-169343Y295151D01*
X-169248Y295155D01*
X-169154Y295155D01*
X-169059Y295151D01*
X-168964Y295143D01*
X-168870Y295131D01*
X-168776Y295116D01*
X-168683Y295097D01*
X-168591Y295074D01*
X-168500Y295047D01*
X-168410Y295016D01*
X-168321Y294982D01*
X-168234Y294945D01*
X-168148Y294903D01*
X-168065Y294859D01*
X-167983Y294811D01*
X-167903Y294759D01*
X-167825Y294705D01*
X-167750Y294647D01*
X-167676Y294586D01*
X-167606Y294523D01*
X-167538Y294456D01*
X-167473Y294387D01*
X-167411Y294315D01*
X-167352Y294241D01*
X-167296Y294164D01*
X-167243Y294086D01*
X-167193Y294005D01*
X-167146Y293922D01*
X-167104Y293837D01*
X-167064Y293751D01*
X-167028Y293663D01*
X-166996Y293573D01*
X-166967Y293483D01*
X-166942Y293391D01*
X-166921Y293299D01*
X-166904Y293205D01*
X-166890Y293111D01*
X-166881Y293017D01*
X-166875Y292922D01*
X-166873Y292827D01*
X-166873Y289101D01*
X-166875Y289006D01*
X-166881Y288911D01*
X-166890Y288817D01*
X-166904Y288723D01*
X-166921Y288629D01*
X-166942Y288537D01*
X-166967Y288445D01*
X-166996Y288355D01*
X-167028Y288265D01*
X-167064Y288177D01*
X-167104Y288091D01*
X-167146Y288006D01*
X-167193Y287923D01*
X-167243Y287842D01*
X-167296Y287764D01*
X-167352Y287687D01*
X-167411Y287613D01*
X-167473Y287541D01*
X-167538Y287472D01*
X-167606Y287405D01*
X-167676Y287342D01*
X-167750Y287281D01*
X-167825Y287223D01*
X-167903Y287169D01*
X-167983Y287117D01*
X-168065Y287069D01*
X-168148Y287025D01*
X-168234Y286983D01*
X-168321Y286946D01*
X-168410Y286912D01*
X-168500Y286881D01*
X-168591Y286854D01*
X-168683Y286831D01*
X-168776Y286812D01*
X-168870Y286797D01*
X-168964Y286785D01*
X-169059Y286777D01*
X-169154Y286773D01*
X-169248Y286773D01*
X-169343Y286777D01*
X-169438Y286785D01*
X-169532Y286797D01*
X-169626Y286812D01*
X-169719Y286831D01*
X-169811Y286854D01*
X-169902Y286881D01*
X-169992Y286912D01*
X-170081Y286946D01*
X-170168Y286983D01*
X-170254Y287025D01*
X-170337Y287069D01*
X-170419Y287117D01*
X-170499Y287169D01*
X-170577Y287223D01*
X-170652Y287281D01*
X-170726Y287342D01*
X-170796Y287405D01*
X-170864Y287472D01*
X-170929Y287541D01*
X-170991Y287613D01*
X-171050Y287687D01*
X-171106Y287764D01*
X-171159Y287842D01*
X-171209Y287923D01*
X-171256Y288006D01*
X-171298Y288091D01*
X-171338Y288177D01*
X-171374Y288265D01*
X-171406Y288355D01*
X-171435Y288445D01*
X-171460Y288537D01*
X-171481Y288629D01*
X-171498Y288723D01*
X-171512Y288817D01*
X-171521Y288911D01*
X-171527Y289006D01*
X-171529Y289101D01*
X-160667Y286773D02*
X-160667Y295155D01*
X-162995Y295155D02*
X-158338Y295155D01*
X-151900Y295156D02*
X-151811Y295154D01*
X-151722Y295148D01*
X-151634Y295139D01*
X-151546Y295126D01*
X-151458Y295109D01*
X-151372Y295088D01*
X-151286Y295064D01*
X-151202Y295036D01*
X-151118Y295005D01*
X-151037Y294970D01*
X-150956Y294932D01*
X-150878Y294890D01*
X-150801Y294845D01*
X-150726Y294797D01*
X-150654Y294745D01*
X-150583Y294691D01*
X-150515Y294633D01*
X-150450Y294573D01*
X-150387Y294510D01*
X-150327Y294445D01*
X-150269Y294377D01*
X-150215Y294306D01*
X-150163Y294234D01*
X-150115Y294159D01*
X-150070Y294082D01*
X-150028Y294004D01*
X-149990Y293923D01*
X-149955Y293842D01*
X-149924Y293758D01*
X-149896Y293674D01*
X-149872Y293588D01*
X-149851Y293502D01*
X-149834Y293414D01*
X-149821Y293326D01*
X-149812Y293238D01*
X-149806Y293149D01*
X-149804Y293060D01*
X-151900Y295155D02*
X-152003Y295153D01*
X-152105Y295147D01*
X-152207Y295137D01*
X-152309Y295124D01*
X-152410Y295106D01*
X-152510Y295085D01*
X-152610Y295060D01*
X-152708Y295031D01*
X-152805Y294998D01*
X-152901Y294962D01*
X-152996Y294922D01*
X-153089Y294878D01*
X-153180Y294831D01*
X-153269Y294781D01*
X-153356Y294727D01*
X-153442Y294670D01*
X-153525Y294610D01*
X-153605Y294546D01*
X-153683Y294480D01*
X-153759Y294410D01*
X-153832Y294338D01*
X-153902Y294263D01*
X-153969Y294185D01*
X-154033Y294105D01*
X-154094Y294023D01*
X-154152Y293938D01*
X-154206Y293851D01*
X-154258Y293762D01*
X-154305Y293672D01*
X-154350Y293579D01*
X-154390Y293485D01*
X-154428Y293389D01*
X-154461Y293292D01*
X-150503Y291430D02*
X-150438Y291494D01*
X-150376Y291561D01*
X-150316Y291630D01*
X-150260Y291702D01*
X-150207Y291775D01*
X-150156Y291851D01*
X-150109Y291929D01*
X-150065Y292009D01*
X-150024Y292090D01*
X-149986Y292173D01*
X-149952Y292258D01*
X-149921Y292344D01*
X-149894Y292431D01*
X-149870Y292519D01*
X-149850Y292607D01*
X-149833Y292697D01*
X-149821Y292787D01*
X-149811Y292878D01*
X-149806Y292969D01*
X-149804Y293060D01*
X-150503Y291430D02*
X-154461Y286773D01*
X-149804Y286773D01*
X-145766Y285842D02*
X-142040Y285842D01*
X-138002Y289101D02*
X-138002Y292827D01*
X-138001Y292827D02*
X-137999Y292922D01*
X-137993Y293017D01*
X-137984Y293111D01*
X-137970Y293205D01*
X-137953Y293299D01*
X-137932Y293391D01*
X-137907Y293483D01*
X-137878Y293573D01*
X-137846Y293663D01*
X-137810Y293751D01*
X-137770Y293837D01*
X-137728Y293922D01*
X-137681Y294005D01*
X-137631Y294086D01*
X-137578Y294164D01*
X-137522Y294241D01*
X-137463Y294315D01*
X-137401Y294387D01*
X-137336Y294456D01*
X-137268Y294523D01*
X-137198Y294586D01*
X-137124Y294647D01*
X-137049Y294705D01*
X-136971Y294759D01*
X-136891Y294811D01*
X-136809Y294859D01*
X-136726Y294903D01*
X-136640Y294945D01*
X-136553Y294982D01*
X-136464Y295016D01*
X-136374Y295047D01*
X-136283Y295074D01*
X-136191Y295097D01*
X-136098Y295116D01*
X-136004Y295131D01*
X-135910Y295143D01*
X-135815Y295151D01*
X-135720Y295155D01*
X-135626Y295155D01*
X-135531Y295151D01*
X-135436Y295143D01*
X-135342Y295131D01*
X-135248Y295116D01*
X-135155Y295097D01*
X-135063Y295074D01*
X-134972Y295047D01*
X-134882Y295016D01*
X-134793Y294982D01*
X-134706Y294945D01*
X-134620Y294903D01*
X-134537Y294859D01*
X-134455Y294811D01*
X-134375Y294759D01*
X-134297Y294705D01*
X-134222Y294647D01*
X-134148Y294586D01*
X-134078Y294523D01*
X-134010Y294456D01*
X-133945Y294387D01*
X-133883Y294315D01*
X-133824Y294241D01*
X-133768Y294164D01*
X-133715Y294086D01*
X-133665Y294005D01*
X-133618Y293922D01*
X-133576Y293837D01*
X-133536Y293751D01*
X-133500Y293663D01*
X-133468Y293573D01*
X-133439Y293483D01*
X-133414Y293391D01*
X-133393Y293299D01*
X-133376Y293205D01*
X-133362Y293111D01*
X-133353Y293017D01*
X-133347Y292922D01*
X-133345Y292827D01*
X-133345Y289101D01*
X-133347Y289006D01*
X-133353Y288911D01*
X-133362Y288817D01*
X-133376Y288723D01*
X-133393Y288629D01*
X-133414Y288537D01*
X-133439Y288445D01*
X-133468Y288355D01*
X-133500Y288265D01*
X-133536Y288177D01*
X-133576Y288091D01*
X-133618Y288006D01*
X-133665Y287923D01*
X-133715Y287842D01*
X-133768Y287764D01*
X-133824Y287687D01*
X-133883Y287613D01*
X-133945Y287541D01*
X-134010Y287472D01*
X-134078Y287405D01*
X-134148Y287342D01*
X-134222Y287281D01*
X-134297Y287223D01*
X-134375Y287169D01*
X-134455Y287117D01*
X-134537Y287069D01*
X-134620Y287025D01*
X-134706Y286983D01*
X-134793Y286946D01*
X-134882Y286912D01*
X-134972Y286881D01*
X-135063Y286854D01*
X-135155Y286831D01*
X-135248Y286812D01*
X-135342Y286797D01*
X-135436Y286785D01*
X-135531Y286777D01*
X-135626Y286773D01*
X-135720Y286773D01*
X-135815Y286777D01*
X-135910Y286785D01*
X-136004Y286797D01*
X-136098Y286812D01*
X-136191Y286831D01*
X-136283Y286854D01*
X-136374Y286881D01*
X-136464Y286912D01*
X-136553Y286946D01*
X-136640Y286983D01*
X-136726Y287025D01*
X-136809Y287069D01*
X-136891Y287117D01*
X-136971Y287169D01*
X-137049Y287223D01*
X-137124Y287281D01*
X-137198Y287342D01*
X-137268Y287405D01*
X-137336Y287472D01*
X-137401Y287541D01*
X-137463Y287613D01*
X-137522Y287687D01*
X-137578Y287764D01*
X-137631Y287842D01*
X-137681Y287923D01*
X-137728Y288006D01*
X-137770Y288091D01*
X-137810Y288177D01*
X-137846Y288265D01*
X-137878Y288355D01*
X-137907Y288445D01*
X-137932Y288537D01*
X-137953Y288629D01*
X-137970Y288723D01*
X-137984Y288817D01*
X-137993Y288911D01*
X-137999Y289006D01*
X-138001Y289101D01*
X-128553Y289101D02*
X-128553Y295155D01*
X-128553Y289101D02*
X-128551Y289006D01*
X-128545Y288911D01*
X-128536Y288817D01*
X-128522Y288723D01*
X-128505Y288629D01*
X-128484Y288537D01*
X-128459Y288445D01*
X-128430Y288355D01*
X-128398Y288265D01*
X-128362Y288177D01*
X-128322Y288091D01*
X-128280Y288006D01*
X-128233Y287923D01*
X-128183Y287842D01*
X-128130Y287764D01*
X-128074Y287687D01*
X-128015Y287613D01*
X-127953Y287541D01*
X-127888Y287472D01*
X-127820Y287405D01*
X-127750Y287342D01*
X-127676Y287281D01*
X-127601Y287223D01*
X-127523Y287169D01*
X-127443Y287117D01*
X-127361Y287069D01*
X-127278Y287025D01*
X-127192Y286983D01*
X-127105Y286946D01*
X-127016Y286912D01*
X-126926Y286881D01*
X-126835Y286854D01*
X-126743Y286831D01*
X-126650Y286812D01*
X-126556Y286797D01*
X-126462Y286785D01*
X-126367Y286777D01*
X-126272Y286773D01*
X-126178Y286773D01*
X-126083Y286777D01*
X-125988Y286785D01*
X-125894Y286797D01*
X-125800Y286812D01*
X-125707Y286831D01*
X-125615Y286854D01*
X-125524Y286881D01*
X-125434Y286912D01*
X-125345Y286946D01*
X-125258Y286983D01*
X-125172Y287025D01*
X-125089Y287069D01*
X-125007Y287117D01*
X-124927Y287169D01*
X-124849Y287223D01*
X-124774Y287281D01*
X-124700Y287342D01*
X-124630Y287405D01*
X-124562Y287472D01*
X-124497Y287541D01*
X-124435Y287613D01*
X-124376Y287687D01*
X-124320Y287764D01*
X-124267Y287842D01*
X-124217Y287923D01*
X-124170Y288006D01*
X-124128Y288091D01*
X-124088Y288177D01*
X-124052Y288265D01*
X-124020Y288355D01*
X-123991Y288445D01*
X-123966Y288537D01*
X-123945Y288629D01*
X-123928Y288723D01*
X-123914Y288817D01*
X-123905Y288911D01*
X-123899Y289006D01*
X-123897Y289101D01*
X-123896Y289101D02*
X-123896Y295155D01*
X-117385Y295155D02*
X-117385Y286773D01*
X-119714Y295155D02*
X-115057Y295155D01*
D12*
X-105688Y-314756D02*
X-188688Y-314756D01*
X-105688Y-314756D02*
X-105688Y-363756D01*
X-188688Y-363756D01*
X-188688Y-314756D01*
D14*
X-175509Y-310007D02*
X-175509Y-301625D01*
X-173181Y-301625D01*
X-173086Y-301627D01*
X-172991Y-301633D01*
X-172897Y-301642D01*
X-172803Y-301656D01*
X-172709Y-301673D01*
X-172617Y-301694D01*
X-172525Y-301719D01*
X-172435Y-301748D01*
X-172345Y-301780D01*
X-172257Y-301816D01*
X-172171Y-301856D01*
X-172086Y-301898D01*
X-172003Y-301945D01*
X-171922Y-301995D01*
X-171844Y-302048D01*
X-171767Y-302104D01*
X-171693Y-302163D01*
X-171621Y-302225D01*
X-171552Y-302290D01*
X-171485Y-302358D01*
X-171422Y-302428D01*
X-171361Y-302502D01*
X-171303Y-302577D01*
X-171249Y-302655D01*
X-171197Y-302735D01*
X-171149Y-302817D01*
X-171105Y-302900D01*
X-171063Y-302986D01*
X-171026Y-303073D01*
X-170992Y-303162D01*
X-170961Y-303252D01*
X-170934Y-303343D01*
X-170911Y-303435D01*
X-170892Y-303528D01*
X-170877Y-303622D01*
X-170865Y-303716D01*
X-170857Y-303811D01*
X-170853Y-303906D01*
X-170853Y-304000D01*
X-170857Y-304095D01*
X-170865Y-304190D01*
X-170877Y-304284D01*
X-170892Y-304378D01*
X-170911Y-304471D01*
X-170934Y-304563D01*
X-170961Y-304654D01*
X-170992Y-304744D01*
X-171026Y-304833D01*
X-171063Y-304920D01*
X-171105Y-305006D01*
X-171149Y-305089D01*
X-171197Y-305171D01*
X-171249Y-305251D01*
X-171303Y-305329D01*
X-171361Y-305404D01*
X-171422Y-305478D01*
X-171485Y-305548D01*
X-171552Y-305616D01*
X-171621Y-305681D01*
X-171693Y-305743D01*
X-171767Y-305802D01*
X-171844Y-305858D01*
X-171922Y-305911D01*
X-172003Y-305961D01*
X-172086Y-306008D01*
X-172171Y-306050D01*
X-172257Y-306090D01*
X-172345Y-306126D01*
X-172435Y-306158D01*
X-172525Y-306187D01*
X-172617Y-306212D01*
X-172709Y-306233D01*
X-172803Y-306250D01*
X-172897Y-306264D01*
X-172991Y-306273D01*
X-173086Y-306279D01*
X-173181Y-306281D01*
X-173181Y-306282D02*
X-175509Y-306282D01*
X-166886Y-307679D02*
X-166886Y-303953D01*
X-166885Y-303953D02*
X-166883Y-303858D01*
X-166877Y-303763D01*
X-166868Y-303669D01*
X-166854Y-303575D01*
X-166837Y-303481D01*
X-166816Y-303389D01*
X-166791Y-303297D01*
X-166762Y-303207D01*
X-166730Y-303117D01*
X-166694Y-303029D01*
X-166654Y-302943D01*
X-166612Y-302858D01*
X-166565Y-302775D01*
X-166515Y-302694D01*
X-166462Y-302616D01*
X-166406Y-302539D01*
X-166347Y-302465D01*
X-166285Y-302393D01*
X-166220Y-302324D01*
X-166152Y-302257D01*
X-166082Y-302194D01*
X-166008Y-302133D01*
X-165933Y-302075D01*
X-165855Y-302021D01*
X-165775Y-301969D01*
X-165693Y-301921D01*
X-165610Y-301877D01*
X-165524Y-301835D01*
X-165437Y-301798D01*
X-165348Y-301764D01*
X-165258Y-301733D01*
X-165167Y-301706D01*
X-165075Y-301683D01*
X-164982Y-301664D01*
X-164888Y-301649D01*
X-164794Y-301637D01*
X-164699Y-301629D01*
X-164604Y-301625D01*
X-164510Y-301625D01*
X-164415Y-301629D01*
X-164320Y-301637D01*
X-164226Y-301649D01*
X-164132Y-301664D01*
X-164039Y-301683D01*
X-163947Y-301706D01*
X-163856Y-301733D01*
X-163766Y-301764D01*
X-163677Y-301798D01*
X-163590Y-301835D01*
X-163504Y-301877D01*
X-163421Y-301921D01*
X-163339Y-301969D01*
X-163259Y-302021D01*
X-163181Y-302075D01*
X-163106Y-302133D01*
X-163032Y-302194D01*
X-162962Y-302257D01*
X-162894Y-302324D01*
X-162829Y-302393D01*
X-162767Y-302465D01*
X-162708Y-302539D01*
X-162652Y-302616D01*
X-162599Y-302694D01*
X-162549Y-302775D01*
X-162502Y-302858D01*
X-162460Y-302943D01*
X-162420Y-303029D01*
X-162384Y-303117D01*
X-162352Y-303207D01*
X-162323Y-303297D01*
X-162298Y-303389D01*
X-162277Y-303481D01*
X-162260Y-303575D01*
X-162246Y-303669D01*
X-162237Y-303763D01*
X-162231Y-303858D01*
X-162229Y-303953D01*
X-162229Y-307679D01*
X-162231Y-307774D01*
X-162237Y-307869D01*
X-162246Y-307963D01*
X-162260Y-308057D01*
X-162277Y-308151D01*
X-162298Y-308243D01*
X-162323Y-308335D01*
X-162352Y-308425D01*
X-162384Y-308515D01*
X-162420Y-308603D01*
X-162460Y-308689D01*
X-162502Y-308774D01*
X-162549Y-308857D01*
X-162599Y-308938D01*
X-162652Y-309016D01*
X-162708Y-309093D01*
X-162767Y-309167D01*
X-162829Y-309239D01*
X-162894Y-309308D01*
X-162962Y-309375D01*
X-163032Y-309438D01*
X-163106Y-309499D01*
X-163181Y-309557D01*
X-163259Y-309611D01*
X-163339Y-309663D01*
X-163421Y-309711D01*
X-163504Y-309755D01*
X-163590Y-309797D01*
X-163677Y-309834D01*
X-163766Y-309868D01*
X-163856Y-309899D01*
X-163947Y-309926D01*
X-164039Y-309949D01*
X-164132Y-309968D01*
X-164226Y-309983D01*
X-164320Y-309995D01*
X-164415Y-310003D01*
X-164510Y-310007D01*
X-164604Y-310007D01*
X-164699Y-310003D01*
X-164794Y-309995D01*
X-164888Y-309983D01*
X-164982Y-309968D01*
X-165075Y-309949D01*
X-165167Y-309926D01*
X-165258Y-309899D01*
X-165348Y-309868D01*
X-165437Y-309834D01*
X-165524Y-309797D01*
X-165610Y-309755D01*
X-165693Y-309711D01*
X-165775Y-309663D01*
X-165855Y-309611D01*
X-165933Y-309557D01*
X-166008Y-309499D01*
X-166082Y-309438D01*
X-166152Y-309375D01*
X-166220Y-309308D01*
X-166285Y-309239D01*
X-166347Y-309167D01*
X-166406Y-309093D01*
X-166462Y-309016D01*
X-166515Y-308938D01*
X-166565Y-308857D01*
X-166612Y-308774D01*
X-166654Y-308689D01*
X-166694Y-308603D01*
X-166730Y-308515D01*
X-166762Y-308425D01*
X-166791Y-308335D01*
X-166816Y-308243D01*
X-166837Y-308151D01*
X-166854Y-308057D01*
X-166868Y-307963D01*
X-166877Y-307869D01*
X-166883Y-307774D01*
X-166885Y-307679D01*
X-156023Y-310007D02*
X-156023Y-301625D01*
X-158351Y-301625D02*
X-153695Y-301625D01*
X-147256Y-301625D02*
X-147167Y-301627D01*
X-147078Y-301633D01*
X-146990Y-301642D01*
X-146902Y-301655D01*
X-146814Y-301672D01*
X-146728Y-301693D01*
X-146642Y-301717D01*
X-146558Y-301745D01*
X-146474Y-301776D01*
X-146393Y-301811D01*
X-146312Y-301849D01*
X-146234Y-301891D01*
X-146157Y-301936D01*
X-146082Y-301984D01*
X-146010Y-302036D01*
X-145939Y-302090D01*
X-145871Y-302148D01*
X-145806Y-302208D01*
X-145743Y-302271D01*
X-145683Y-302336D01*
X-145625Y-302404D01*
X-145571Y-302475D01*
X-145519Y-302547D01*
X-145471Y-302622D01*
X-145426Y-302699D01*
X-145384Y-302777D01*
X-145346Y-302858D01*
X-145311Y-302939D01*
X-145280Y-303023D01*
X-145252Y-303107D01*
X-145228Y-303193D01*
X-145207Y-303279D01*
X-145190Y-303367D01*
X-145177Y-303455D01*
X-145168Y-303543D01*
X-145162Y-303632D01*
X-145160Y-303721D01*
X-147256Y-301625D02*
X-147359Y-301627D01*
X-147461Y-301633D01*
X-147563Y-301643D01*
X-147665Y-301656D01*
X-147766Y-301674D01*
X-147866Y-301695D01*
X-147966Y-301720D01*
X-148064Y-301749D01*
X-148161Y-301782D01*
X-148257Y-301818D01*
X-148352Y-301858D01*
X-148445Y-301902D01*
X-148536Y-301949D01*
X-148625Y-301999D01*
X-148712Y-302053D01*
X-148798Y-302110D01*
X-148881Y-302170D01*
X-148961Y-302234D01*
X-149039Y-302300D01*
X-149115Y-302370D01*
X-149188Y-302442D01*
X-149258Y-302517D01*
X-149325Y-302595D01*
X-149389Y-302675D01*
X-149450Y-302757D01*
X-149508Y-302842D01*
X-149562Y-302929D01*
X-149614Y-303018D01*
X-149661Y-303108D01*
X-149706Y-303201D01*
X-149746Y-303295D01*
X-149784Y-303391D01*
X-149817Y-303488D01*
X-145859Y-305351D02*
X-145794Y-305287D01*
X-145732Y-305220D01*
X-145673Y-305151D01*
X-145616Y-305079D01*
X-145563Y-305006D01*
X-145512Y-304930D01*
X-145465Y-304852D01*
X-145421Y-304772D01*
X-145380Y-304691D01*
X-145342Y-304608D01*
X-145308Y-304523D01*
X-145277Y-304437D01*
X-145250Y-304350D01*
X-145226Y-304262D01*
X-145206Y-304174D01*
X-145189Y-304084D01*
X-145177Y-303994D01*
X-145167Y-303903D01*
X-145162Y-303812D01*
X-145160Y-303721D01*
X-145859Y-305350D02*
X-149817Y-310007D01*
X-145160Y-310007D01*
X-141122Y-310938D02*
X-137396Y-310938D01*
X-132858Y-310007D02*
X-132858Y-301625D01*
X-133790Y-310007D02*
X-131927Y-310007D01*
X-131927Y-301625D02*
X-133790Y-301625D01*
X-127567Y-301625D02*
X-127567Y-310007D01*
X-122910Y-310007D02*
X-127567Y-301625D01*
X-122910Y-301625D02*
X-122910Y-310007D01*
D15*
X205400Y337620D02*
X205400Y342700D01*
X200320Y342700D01*
X180000Y342700D02*
X180000Y337620D01*
X180000Y342700D02*
X185080Y342700D01*
X180000Y322380D02*
X180000Y317300D01*
X185080Y317300D01*
X200320Y317300D02*
X205400Y317300D01*
X205400Y322380D01*
D16*
X185048Y313702D02*
X185048Y304558D01*
X185048Y309638D02*
X190128Y309638D01*
X190128Y313702D02*
X190128Y304558D01*
X197037Y304558D02*
X193989Y313702D01*
X200085Y313702D02*
X197037Y304558D01*
D15*
X168590Y337890D02*
X168590Y342970D01*
X163510Y342970D01*
X143190Y342970D02*
X143190Y337890D01*
X143190Y342970D02*
X148270Y342970D01*
X143190Y322650D02*
X143190Y317570D01*
X148270Y317570D01*
X163510Y317570D02*
X168590Y317570D01*
X168590Y322650D01*
D16*
X150455Y308478D02*
X148931Y308478D01*
X150455Y308478D02*
X150455Y303398D01*
X147407Y303398D01*
X147318Y303400D01*
X147230Y303406D01*
X147142Y303415D01*
X147054Y303429D01*
X146967Y303446D01*
X146881Y303467D01*
X146796Y303492D01*
X146712Y303521D01*
X146629Y303553D01*
X146548Y303588D01*
X146469Y303628D01*
X146391Y303670D01*
X146315Y303716D01*
X146241Y303765D01*
X146170Y303818D01*
X146101Y303873D01*
X146034Y303932D01*
X145970Y303993D01*
X145909Y304057D01*
X145850Y304124D01*
X145795Y304193D01*
X145742Y304264D01*
X145693Y304338D01*
X145647Y304414D01*
X145605Y304492D01*
X145565Y304571D01*
X145530Y304652D01*
X145498Y304735D01*
X145469Y304819D01*
X145444Y304904D01*
X145423Y304990D01*
X145406Y305077D01*
X145392Y305165D01*
X145383Y305253D01*
X145377Y305341D01*
X145375Y305430D01*
X145375Y310510D01*
X145377Y310599D01*
X145383Y310687D01*
X145392Y310775D01*
X145406Y310863D01*
X145423Y310950D01*
X145444Y311036D01*
X145469Y311121D01*
X145498Y311205D01*
X145530Y311288D01*
X145565Y311369D01*
X145605Y311448D01*
X145647Y311526D01*
X145693Y311602D01*
X145742Y311676D01*
X145795Y311747D01*
X145850Y311816D01*
X145909Y311883D01*
X145970Y311947D01*
X146034Y312008D01*
X146101Y312067D01*
X146170Y312122D01*
X146241Y312175D01*
X146315Y312224D01*
X146391Y312270D01*
X146469Y312312D01*
X146548Y312352D01*
X146629Y312387D01*
X146712Y312419D01*
X146796Y312448D01*
X146881Y312473D01*
X146967Y312494D01*
X147054Y312511D01*
X147142Y312525D01*
X147230Y312534D01*
X147318Y312540D01*
X147407Y312542D01*
X150455Y312542D01*
X155128Y312542D02*
X155128Y303398D01*
X160208Y303398D02*
X155128Y312542D01*
X160208Y312542D02*
X160208Y303398D01*
X164882Y303398D02*
X164882Y312542D01*
X167422Y312542D01*
X167522Y312540D01*
X167621Y312534D01*
X167721Y312524D01*
X167819Y312511D01*
X167918Y312493D01*
X168015Y312472D01*
X168111Y312447D01*
X168207Y312418D01*
X168301Y312385D01*
X168394Y312349D01*
X168485Y312309D01*
X168575Y312265D01*
X168663Y312218D01*
X168749Y312168D01*
X168833Y312114D01*
X168915Y312057D01*
X168994Y311997D01*
X169072Y311933D01*
X169146Y311867D01*
X169218Y311798D01*
X169287Y311726D01*
X169353Y311652D01*
X169417Y311574D01*
X169477Y311495D01*
X169534Y311413D01*
X169588Y311329D01*
X169638Y311243D01*
X169685Y311155D01*
X169729Y311065D01*
X169769Y310974D01*
X169805Y310881D01*
X169838Y310787D01*
X169867Y310691D01*
X169892Y310595D01*
X169913Y310498D01*
X169931Y310399D01*
X169944Y310301D01*
X169954Y310201D01*
X169960Y310102D01*
X169962Y310002D01*
X169962Y305938D01*
X169960Y305838D01*
X169954Y305739D01*
X169944Y305639D01*
X169931Y305541D01*
X169913Y305442D01*
X169892Y305345D01*
X169867Y305249D01*
X169838Y305153D01*
X169805Y305059D01*
X169769Y304966D01*
X169729Y304875D01*
X169685Y304785D01*
X169638Y304697D01*
X169588Y304611D01*
X169534Y304527D01*
X169477Y304445D01*
X169417Y304366D01*
X169353Y304288D01*
X169287Y304214D01*
X169218Y304142D01*
X169146Y304073D01*
X169072Y304007D01*
X168994Y303943D01*
X168915Y303883D01*
X168833Y303826D01*
X168749Y303772D01*
X168663Y303722D01*
X168575Y303675D01*
X168485Y303631D01*
X168394Y303591D01*
X168301Y303555D01*
X168207Y303522D01*
X168111Y303493D01*
X168015Y303468D01*
X167918Y303447D01*
X167819Y303429D01*
X167721Y303416D01*
X167621Y303406D01*
X167522Y303400D01*
X167422Y303398D01*
X164882Y303398D01*
M02*
