G04 EAGLE Gerber RS-274X export*
G75*
%MOMM*%
%FSLAX34Y34*%
%LPD*%
%INSoldermask Top*%
%IPPOS*%
%AMOC8*
5,1,8,0,0,1.08239X$1,22.5*%
G01*
%ADD10P,2.859241X8X292.500000*%
%ADD11R,2.641600X2.641600*%
%ADD12C,3.101600*%
%ADD13C,2.801600*%
%ADD14R,1.422400X1.422400*%
%ADD15P,1.539592X8X112.500000*%
%ADD16P,1.539592X8X292.500000*%
%ADD17P,2.859241X8X22.500000*%


D10*
X240370Y154582D03*
D11*
X240370Y209700D03*
D12*
X240370Y282700D03*
D13*
X149250Y210720D03*
X174650Y134520D03*
X123850Y134520D03*
X174650Y-147290D03*
X123850Y-147290D03*
X149250Y-223490D03*
X2250Y210720D03*
X-23150Y134520D03*
X27650Y134520D03*
X-23150Y-147290D03*
X27650Y-147290D03*
X2250Y-223490D03*
X-149830Y-225652D03*
X-175230Y-149452D03*
X-124430Y-149452D03*
X-175230Y132358D03*
X-124430Y132358D03*
X-149830Y208558D03*
D14*
X79492Y-333756D03*
D15*
X99492Y-333756D03*
D14*
X102740Y318700D03*
D16*
X82740Y318700D03*
D14*
X-75020Y-333756D03*
D15*
X-55020Y-333756D03*
D14*
X-53940Y318584D03*
D16*
X-73940Y318584D03*
D14*
X1820Y-333756D03*
D15*
X21820Y-333756D03*
D14*
X24900Y318744D03*
D16*
X4900Y318744D03*
D14*
X-221484Y318528D03*
D16*
X-241484Y318528D03*
X-261484Y318528D03*
D14*
X-261108Y-333756D03*
D15*
X-241108Y-333756D03*
X-221108Y-333756D03*
D14*
X-127188Y318904D03*
D16*
X-147188Y318904D03*
X-167188Y318904D03*
D14*
X-167188Y-333756D03*
D15*
X-147188Y-333756D03*
X-127188Y-333756D03*
D17*
X192700Y330000D03*
X155890Y330270D03*
M02*
