G04 EAGLE Gerber RS-274X export*
G75*
%MOMM*%
%FSLAX34Y34*%
%LPD*%
%INBottom Copper*%
%IPPOS*%
%AMOC8*
5,1,8,0,0,1.08239X$1,22.5*%
G01*
%ADD10R,1.500000X1.300000*%
%ADD11R,1.300000X1.500000*%
%ADD12R,0.522000X0.600000*%
%ADD13C,1.625600*%
%ADD14R,0.350000X0.550000*%
%ADD15R,1.600000X0.700000*%
%ADD16R,4.300000X2.500000*%
%ADD17R,1.320800X1.320800*%
%ADD18P,1.429621X8X202.500000*%
%ADD19R,1.500000X0.900000*%
%ADD20R,0.900000X1.500000*%
%ADD21C,0.203200*%
%ADD22C,1.006400*%
%ADD23C,0.762000*%
%ADD24C,0.756400*%
%ADD25C,0.856400*%
%ADD26C,0.812800*%
%ADD27C,0.906400*%
%ADD28C,0.304800*%
%ADD29C,0.711200*%
%ADD30C,1.106400*%
%ADD31C,1.206400*%
%ADD32P,0.769796X8X22.500000*%

G36*
X12913Y-189674D02*
X12913Y-189674D01*
X13078Y-189664D01*
X13920Y-189549D01*
X14037Y-189519D01*
X14156Y-189497D01*
X14205Y-189475D01*
X14258Y-189462D01*
X14365Y-189406D01*
X14476Y-189358D01*
X14519Y-189326D01*
X14567Y-189301D01*
X14658Y-189222D01*
X14755Y-189150D01*
X14790Y-189109D01*
X14831Y-189074D01*
X14902Y-188976D01*
X14980Y-188884D01*
X15005Y-188836D01*
X15037Y-188793D01*
X15084Y-188681D01*
X15139Y-188574D01*
X15152Y-188522D01*
X15173Y-188472D01*
X15194Y-188353D01*
X15223Y-188236D01*
X15224Y-188182D01*
X15233Y-188129D01*
X15227Y-188008D01*
X15228Y-187887D01*
X15217Y-187834D01*
X15214Y-187781D01*
X15180Y-187665D01*
X15154Y-187547D01*
X15131Y-187498D01*
X15116Y-187446D01*
X15056Y-187341D01*
X15004Y-187232D01*
X14971Y-187190D01*
X14944Y-187143D01*
X14862Y-187054D01*
X14787Y-186960D01*
X14745Y-186926D01*
X14708Y-186886D01*
X14608Y-186819D01*
X14513Y-186744D01*
X14452Y-186712D01*
X14420Y-186690D01*
X14377Y-186674D01*
X14296Y-186632D01*
X12104Y-185724D01*
X10556Y-184177D01*
X8169Y-181790D01*
X7868Y-181488D01*
X1625Y-175246D01*
X1623Y-175244D01*
X1485Y-175106D01*
X1483Y-175105D01*
X1482Y-175103D01*
X1351Y-175000D01*
X1212Y-174889D01*
X1210Y-174888D01*
X1208Y-174887D01*
X991Y-174776D01*
X-854Y-174012D01*
X-2495Y-172371D01*
X-3383Y-170227D01*
X-3383Y-167907D01*
X-2495Y-165763D01*
X-854Y-164122D01*
X1290Y-163234D01*
X3610Y-163234D01*
X5754Y-164122D01*
X7395Y-165763D01*
X8283Y-167907D01*
X8283Y-170227D01*
X7793Y-171410D01*
X7772Y-171483D01*
X7742Y-171554D01*
X7724Y-171650D01*
X7697Y-171745D01*
X7694Y-171821D01*
X7680Y-171897D01*
X7685Y-171995D01*
X7680Y-172093D01*
X7694Y-172168D01*
X7698Y-172245D01*
X7725Y-172339D01*
X7743Y-172436D01*
X7773Y-172506D01*
X7795Y-172579D01*
X7843Y-172665D01*
X7882Y-172756D01*
X7927Y-172817D01*
X7965Y-172884D01*
X8062Y-172997D01*
X8090Y-173035D01*
X8104Y-173048D01*
X8123Y-173070D01*
X12205Y-177151D01*
X12499Y-177445D01*
X13549Y-178496D01*
X13587Y-178526D01*
X13660Y-178596D01*
X15615Y-180201D01*
X15656Y-180227D01*
X15688Y-180256D01*
X15731Y-180280D01*
X15781Y-180319D01*
X15868Y-180364D01*
X15908Y-180389D01*
X15942Y-180402D01*
X15998Y-180430D01*
X20236Y-182186D01*
X20275Y-182197D01*
X20312Y-182215D01*
X20442Y-182245D01*
X20571Y-182281D01*
X20612Y-182283D01*
X20651Y-182292D01*
X20785Y-182292D01*
X20919Y-182298D01*
X20959Y-182291D01*
X21000Y-182291D01*
X21130Y-182260D01*
X21262Y-182236D01*
X21299Y-182220D01*
X21339Y-182210D01*
X21459Y-182150D01*
X21582Y-182097D01*
X21614Y-182073D01*
X21651Y-182054D01*
X21754Y-181969D01*
X21861Y-181889D01*
X21888Y-181858D01*
X21919Y-181832D01*
X22000Y-181725D01*
X22087Y-181623D01*
X22105Y-181587D01*
X22130Y-181554D01*
X22184Y-181432D01*
X22245Y-181313D01*
X22255Y-181273D01*
X22272Y-181236D01*
X22297Y-181104D01*
X22329Y-180975D01*
X22330Y-180934D01*
X22338Y-180894D01*
X22333Y-180760D01*
X22334Y-180692D01*
X31245Y-177796D01*
X31269Y-177785D01*
X31295Y-177779D01*
X31427Y-177713D01*
X31562Y-177651D01*
X31583Y-177635D01*
X31607Y-177623D01*
X31721Y-177528D01*
X31838Y-177438D01*
X31855Y-177418D01*
X31875Y-177401D01*
X31884Y-177389D01*
X31988Y-177412D01*
X32015Y-177412D01*
X32040Y-177417D01*
X32189Y-177412D01*
X32337Y-177411D01*
X32362Y-177405D01*
X32389Y-177404D01*
X32627Y-177347D01*
X41485Y-174469D01*
X42284Y-176927D01*
X42314Y-177503D01*
X42333Y-177611D01*
X42342Y-177722D01*
X42362Y-177783D01*
X42372Y-177846D01*
X42415Y-177948D01*
X42449Y-178054D01*
X42482Y-178109D01*
X42507Y-178168D01*
X42572Y-178258D01*
X42629Y-178352D01*
X42673Y-178398D01*
X42711Y-178450D01*
X42794Y-178523D01*
X42871Y-178602D01*
X42925Y-178637D01*
X42974Y-178679D01*
X43072Y-178731D01*
X43165Y-178790D01*
X43225Y-178812D01*
X43282Y-178842D01*
X43389Y-178870D01*
X43493Y-178907D01*
X43557Y-178914D01*
X43619Y-178931D01*
X43729Y-178934D01*
X43840Y-178946D01*
X43903Y-178939D01*
X43967Y-178940D01*
X44076Y-178918D01*
X44186Y-178905D01*
X44265Y-178880D01*
X44309Y-178871D01*
X44347Y-178853D01*
X44418Y-178830D01*
X47717Y-177464D01*
X47763Y-177438D01*
X47814Y-177420D01*
X48018Y-177296D01*
X48021Y-177295D01*
X48022Y-177294D01*
X48023Y-177293D01*
X55790Y-171709D01*
X55797Y-171703D01*
X55805Y-171698D01*
X55990Y-171537D01*
X58211Y-169267D01*
X58283Y-169174D01*
X58362Y-169086D01*
X58375Y-169063D01*
X59432Y-168006D01*
X59456Y-167976D01*
X59503Y-167930D01*
X60343Y-166966D01*
X60356Y-166958D01*
X60448Y-166918D01*
X60508Y-166874D01*
X60573Y-166837D01*
X60691Y-166737D01*
X60728Y-166710D01*
X60739Y-166696D01*
X60759Y-166679D01*
X66980Y-160458D01*
X66991Y-160445D01*
X67003Y-160434D01*
X67099Y-160308D01*
X67197Y-160185D01*
X67204Y-160170D01*
X67214Y-160157D01*
X67278Y-160012D01*
X67346Y-159870D01*
X67349Y-159853D01*
X67356Y-159838D01*
X67386Y-159683D01*
X67419Y-159529D01*
X67419Y-159512D01*
X67422Y-159496D01*
X67416Y-159338D01*
X67413Y-159180D01*
X67409Y-159164D01*
X67409Y-159148D01*
X67352Y-158910D01*
X67106Y-158154D01*
X67878Y-156640D01*
X79953Y-152717D01*
X80101Y-152650D01*
X80249Y-152585D01*
X80259Y-152577D01*
X80270Y-152572D01*
X80398Y-152473D01*
X80528Y-152376D01*
X80538Y-152365D01*
X80546Y-152359D01*
X80568Y-152331D01*
X80692Y-152194D01*
X81606Y-151000D01*
X81607Y-151000D01*
X82442Y-149909D01*
X82449Y-149898D01*
X82458Y-149888D01*
X82587Y-149680D01*
X86304Y-142458D01*
X86318Y-142421D01*
X86338Y-142388D01*
X86344Y-142369D01*
X86354Y-142351D01*
X86420Y-142152D01*
X86427Y-142132D01*
X86428Y-142127D01*
X86431Y-142119D01*
X88045Y-135455D01*
X88064Y-135300D01*
X88087Y-135145D01*
X88085Y-135127D01*
X88087Y-135110D01*
X88071Y-134954D01*
X88058Y-134797D01*
X88052Y-134781D01*
X88050Y-134763D01*
X87999Y-134616D01*
X87951Y-134466D01*
X87942Y-134451D01*
X87936Y-134434D01*
X87852Y-134302D01*
X87771Y-134167D01*
X87759Y-134155D01*
X87749Y-134140D01*
X87637Y-134030D01*
X87528Y-133917D01*
X87513Y-133908D01*
X87501Y-133895D01*
X87367Y-133814D01*
X87235Y-133729D01*
X87218Y-133723D01*
X87203Y-133714D01*
X87055Y-133665D01*
X86906Y-133612D01*
X86889Y-133610D01*
X86872Y-133605D01*
X86716Y-133591D01*
X86560Y-133574D01*
X86542Y-133576D01*
X86525Y-133574D01*
X86369Y-133596D01*
X86214Y-133614D01*
X86194Y-133621D01*
X86180Y-133623D01*
X86140Y-133638D01*
X85981Y-133690D01*
X85975Y-133692D01*
X83654Y-133692D01*
X81511Y-132804D01*
X80325Y-131619D01*
X80254Y-131563D01*
X80190Y-131499D01*
X80118Y-131455D01*
X80052Y-131402D01*
X79970Y-131364D01*
X79893Y-131316D01*
X79813Y-131289D01*
X79737Y-131253D01*
X79648Y-131234D01*
X79562Y-131206D01*
X79478Y-131198D01*
X79397Y-131180D01*
X79306Y-131182D01*
X79215Y-131173D01*
X79132Y-131185D01*
X79048Y-131186D01*
X78960Y-131208D01*
X78870Y-131221D01*
X78792Y-131251D01*
X78710Y-131271D01*
X78629Y-131313D01*
X78544Y-131345D01*
X78475Y-131392D01*
X78400Y-131431D01*
X78331Y-131489D01*
X78256Y-131540D01*
X78199Y-131602D01*
X78135Y-131657D01*
X78081Y-131729D01*
X78019Y-131796D01*
X77957Y-131897D01*
X77928Y-131937D01*
X77916Y-131964D01*
X77891Y-132005D01*
X77610Y-132556D01*
X61798Y-137693D01*
X61720Y-137729D01*
X61638Y-137755D01*
X61562Y-137801D01*
X61482Y-137838D01*
X61413Y-137891D01*
X61340Y-137935D01*
X61276Y-137997D01*
X61206Y-138051D01*
X61151Y-138118D01*
X61090Y-138178D01*
X61042Y-138252D01*
X60986Y-138321D01*
X60948Y-138399D01*
X60902Y-138471D01*
X60872Y-138555D01*
X60833Y-138635D01*
X60814Y-138718D01*
X60785Y-138800D01*
X60775Y-138888D01*
X60755Y-138974D01*
X60756Y-139060D01*
X60746Y-139146D01*
X60756Y-139234D01*
X60757Y-139323D01*
X60777Y-139406D01*
X60787Y-139492D01*
X60826Y-139613D01*
X60837Y-139662D01*
X60849Y-139685D01*
X60862Y-139725D01*
X61634Y-141589D01*
X61634Y-144805D01*
X60404Y-147775D01*
X58130Y-150049D01*
X55159Y-151280D01*
X51944Y-151280D01*
X48973Y-150049D01*
X46699Y-147775D01*
X45469Y-144805D01*
X45469Y-141589D01*
X46699Y-138618D01*
X47245Y-138073D01*
X47323Y-137974D01*
X47408Y-137880D01*
X47431Y-137838D01*
X47461Y-137800D01*
X47515Y-137686D01*
X47576Y-137575D01*
X47589Y-137529D01*
X47610Y-137485D01*
X47637Y-137362D01*
X47671Y-137240D01*
X47676Y-137179D01*
X47683Y-137144D01*
X47683Y-137096D01*
X47691Y-136996D01*
X47691Y-136987D01*
X47685Y-136936D01*
X47687Y-136886D01*
X47678Y-136836D01*
X47677Y-136796D01*
X47661Y-136731D01*
X47651Y-136641D01*
X47634Y-136593D01*
X47625Y-136543D01*
X47599Y-136485D01*
X47592Y-136458D01*
X47569Y-136412D01*
X47533Y-136313D01*
X47506Y-136270D01*
X47485Y-136223D01*
X47441Y-136163D01*
X47433Y-136148D01*
X47409Y-136120D01*
X47344Y-136020D01*
X47308Y-135984D01*
X47277Y-135944D01*
X47212Y-135888D01*
X47207Y-135883D01*
X47192Y-135871D01*
X47183Y-135864D01*
X47094Y-135778D01*
X47050Y-135752D01*
X47011Y-135719D01*
X46927Y-135676D01*
X46927Y-135675D01*
X46925Y-135675D01*
X46901Y-135662D01*
X46795Y-135599D01*
X46746Y-135583D01*
X46701Y-135560D01*
X46581Y-135530D01*
X46463Y-135493D01*
X46412Y-135488D01*
X46363Y-135476D01*
X46118Y-135464D01*
X45756Y-135476D01*
X45655Y-135491D01*
X45553Y-135496D01*
X45483Y-135517D01*
X45411Y-135527D01*
X45316Y-135565D01*
X45218Y-135593D01*
X45155Y-135628D01*
X45087Y-135655D01*
X45003Y-135713D01*
X44914Y-135763D01*
X44840Y-135826D01*
X44801Y-135854D01*
X44776Y-135881D01*
X44728Y-135922D01*
X44427Y-136222D01*
X41640Y-137377D01*
X38624Y-137377D01*
X35837Y-136222D01*
X33704Y-134089D01*
X32549Y-131302D01*
X32549Y-128286D01*
X33650Y-125628D01*
X33669Y-125564D01*
X33696Y-125503D01*
X33716Y-125396D01*
X33746Y-125293D01*
X33749Y-125226D01*
X33762Y-125160D01*
X33758Y-125052D01*
X33763Y-124945D01*
X33751Y-124879D01*
X33748Y-124812D01*
X33707Y-124640D01*
X33700Y-124602D01*
X33696Y-124591D01*
X33692Y-124574D01*
X31416Y-117570D01*
X31405Y-117547D01*
X31399Y-117521D01*
X31334Y-117391D01*
X31324Y-117365D01*
X31319Y-117358D01*
X31271Y-117254D01*
X31255Y-117233D01*
X31243Y-117209D01*
X31148Y-117095D01*
X31058Y-116978D01*
X31038Y-116961D01*
X31021Y-116941D01*
X30903Y-116851D01*
X30788Y-116758D01*
X30764Y-116746D01*
X30743Y-116730D01*
X30608Y-116670D01*
X30474Y-116605D01*
X30449Y-116599D01*
X30425Y-116588D01*
X30280Y-116560D01*
X30135Y-116527D01*
X30109Y-116527D01*
X30083Y-116522D01*
X29935Y-116528D01*
X29786Y-116529D01*
X29761Y-116535D01*
X29735Y-116536D01*
X29497Y-116593D01*
X28046Y-117064D01*
X28046Y-117062D01*
X29496Y-116591D01*
X29520Y-116580D01*
X29545Y-116574D01*
X29678Y-116508D01*
X29813Y-116446D01*
X29834Y-116430D01*
X29857Y-116418D01*
X29971Y-116324D01*
X30089Y-116233D01*
X30105Y-116213D01*
X30125Y-116196D01*
X30215Y-116078D01*
X30309Y-115963D01*
X30320Y-115939D01*
X30336Y-115918D01*
X30396Y-115783D01*
X30462Y-115649D01*
X30468Y-115624D01*
X30478Y-115600D01*
X30506Y-115454D01*
X30539Y-115310D01*
X30539Y-115283D01*
X30544Y-115258D01*
X30538Y-115109D01*
X30538Y-114961D01*
X30532Y-114936D01*
X30531Y-114909D01*
X30474Y-114672D01*
X27842Y-106572D01*
X31444Y-105401D01*
X32112Y-105366D01*
X32767Y-105505D01*
X33378Y-105817D01*
X33394Y-105833D01*
X33499Y-105898D01*
X33600Y-105970D01*
X33648Y-105989D01*
X33691Y-106016D01*
X33808Y-106055D01*
X33923Y-106102D01*
X33973Y-106110D01*
X34022Y-106126D01*
X34145Y-106138D01*
X34267Y-106157D01*
X34318Y-106154D01*
X34369Y-106159D01*
X34491Y-106142D01*
X34614Y-106133D01*
X34663Y-106118D01*
X34714Y-106111D01*
X34829Y-106067D01*
X34948Y-106031D01*
X34992Y-106005D01*
X35039Y-105987D01*
X35142Y-105917D01*
X35249Y-105855D01*
X35286Y-105820D01*
X35328Y-105791D01*
X35412Y-105700D01*
X35502Y-105616D01*
X35530Y-105573D01*
X35565Y-105535D01*
X35693Y-105327D01*
X36176Y-104379D01*
X50155Y-99837D01*
X51669Y-100608D01*
X56829Y-116490D01*
X56058Y-118004D01*
X53215Y-118927D01*
X53078Y-118990D01*
X52938Y-119049D01*
X52919Y-119063D01*
X52898Y-119072D01*
X52779Y-119164D01*
X52656Y-119253D01*
X52641Y-119271D01*
X52622Y-119285D01*
X52527Y-119402D01*
X52428Y-119517D01*
X52417Y-119537D01*
X52402Y-119556D01*
X52336Y-119691D01*
X52265Y-119825D01*
X52259Y-119848D01*
X52249Y-119869D01*
X52215Y-120016D01*
X52177Y-120162D01*
X52176Y-120190D01*
X52171Y-120209D01*
X52172Y-120256D01*
X52163Y-120406D01*
X52194Y-121998D01*
X52199Y-122033D01*
X52197Y-122069D01*
X52222Y-122206D01*
X52241Y-122343D01*
X52254Y-122377D01*
X52260Y-122412D01*
X52316Y-122539D01*
X52365Y-122669D01*
X52385Y-122698D01*
X52399Y-122731D01*
X52482Y-122843D01*
X52560Y-122958D01*
X52586Y-122982D01*
X52607Y-123011D01*
X52713Y-123100D01*
X52815Y-123195D01*
X52846Y-123213D01*
X52873Y-123236D01*
X52997Y-123299D01*
X53118Y-123368D01*
X53152Y-123378D01*
X53184Y-123394D01*
X53319Y-123428D01*
X53452Y-123467D01*
X53488Y-123470D01*
X53522Y-123478D01*
X53766Y-123490D01*
X54259Y-123474D01*
X63930Y-123162D01*
X64021Y-123148D01*
X64113Y-123145D01*
X64225Y-123118D01*
X64274Y-123111D01*
X64303Y-123100D01*
X64351Y-123088D01*
X73562Y-120095D01*
X74626Y-120637D01*
X74729Y-120676D01*
X74828Y-120723D01*
X74891Y-120737D01*
X74952Y-120759D01*
X75061Y-120773D01*
X75169Y-120796D01*
X75234Y-120795D01*
X75298Y-120803D01*
X75407Y-120792D01*
X75517Y-120790D01*
X75580Y-120774D01*
X75645Y-120768D01*
X75748Y-120732D01*
X75855Y-120705D01*
X75913Y-120676D01*
X75974Y-120655D01*
X76067Y-120596D01*
X76165Y-120546D01*
X76214Y-120504D01*
X76269Y-120469D01*
X76347Y-120391D01*
X76430Y-120320D01*
X76469Y-120268D01*
X76515Y-120222D01*
X76572Y-120128D01*
X76638Y-120040D01*
X76663Y-119980D01*
X76697Y-119925D01*
X76732Y-119820D01*
X76776Y-119720D01*
X76787Y-119656D01*
X76808Y-119594D01*
X76818Y-119485D01*
X76837Y-119377D01*
X76834Y-119312D01*
X76840Y-119247D01*
X76825Y-119138D01*
X76819Y-119028D01*
X76801Y-118966D01*
X76793Y-118902D01*
X76753Y-118799D01*
X76723Y-118694D01*
X76691Y-118637D01*
X76668Y-118577D01*
X76606Y-118485D01*
X76553Y-118389D01*
X76498Y-118325D01*
X76473Y-118288D01*
X76442Y-118260D01*
X76394Y-118203D01*
X58135Y-99944D01*
X57883Y-99692D01*
X56790Y-98599D01*
X56762Y-98576D01*
X56718Y-98531D01*
X53055Y-95319D01*
X53033Y-95304D01*
X53014Y-95284D01*
X52813Y-95145D01*
X44394Y-90285D01*
X44323Y-90254D01*
X44257Y-90215D01*
X44117Y-90165D01*
X44074Y-90146D01*
X44055Y-90143D01*
X44026Y-90133D01*
X35079Y-87735D01*
X34979Y-87720D01*
X34881Y-87696D01*
X34807Y-87695D01*
X34734Y-87684D01*
X34633Y-87692D01*
X34532Y-87691D01*
X34460Y-87707D01*
X34387Y-87713D01*
X34291Y-87744D01*
X34192Y-87765D01*
X34125Y-87797D01*
X34055Y-87820D01*
X33968Y-87872D01*
X33877Y-87915D01*
X33819Y-87961D01*
X33756Y-87999D01*
X33684Y-88069D01*
X33605Y-88132D01*
X33559Y-88190D01*
X33506Y-88242D01*
X33451Y-88327D01*
X33389Y-88406D01*
X33373Y-88436D01*
X31701Y-90108D01*
X29557Y-90996D01*
X27237Y-90996D01*
X25093Y-90108D01*
X23452Y-88468D01*
X22564Y-86324D01*
X22564Y-84003D01*
X23194Y-82483D01*
X23208Y-82434D01*
X23230Y-82388D01*
X23256Y-82267D01*
X23290Y-82148D01*
X23292Y-82097D01*
X23303Y-82047D01*
X23301Y-81923D01*
X23307Y-81800D01*
X23298Y-81750D01*
X23297Y-81699D01*
X23267Y-81579D01*
X23244Y-81457D01*
X23224Y-81410D01*
X23212Y-81361D01*
X23155Y-81251D01*
X23105Y-81137D01*
X23075Y-81096D01*
X23052Y-81051D01*
X22971Y-80957D01*
X22898Y-80857D01*
X22859Y-80825D01*
X22826Y-80786D01*
X22726Y-80712D01*
X22632Y-80632D01*
X22586Y-80609D01*
X22545Y-80579D01*
X22431Y-80530D01*
X22321Y-80474D01*
X22272Y-80461D01*
X22225Y-80441D01*
X22103Y-80419D01*
X21983Y-80389D01*
X21932Y-80389D01*
X21882Y-80380D01*
X21638Y-80384D01*
X21635Y-80384D01*
X19586Y-80586D01*
X19486Y-80608D01*
X19385Y-80620D01*
X19292Y-80650D01*
X19245Y-80660D01*
X19212Y-80675D01*
X19152Y-80695D01*
X14551Y-82601D01*
X14461Y-82650D01*
X14368Y-82691D01*
X14288Y-82747D01*
X14246Y-82770D01*
X14219Y-82795D01*
X14167Y-82831D01*
X13477Y-83397D01*
X13476Y-83398D01*
X12233Y-84418D01*
X12231Y-84420D01*
X12229Y-84421D01*
X12212Y-84438D01*
X12198Y-84447D01*
X12168Y-84481D01*
X12054Y-84591D01*
X10544Y-86314D01*
X10528Y-86336D01*
X10508Y-86355D01*
X10370Y-86556D01*
X8084Y-90516D01*
X8053Y-90586D01*
X8014Y-90653D01*
X7964Y-90792D01*
X7945Y-90835D01*
X7942Y-90855D01*
X7932Y-90883D01*
X6748Y-95299D01*
X6744Y-95326D01*
X6735Y-95352D01*
X6700Y-95594D01*
X6550Y-97879D01*
X6552Y-97916D01*
X6547Y-97979D01*
X6547Y-98251D01*
X6561Y-98376D01*
X6568Y-98503D01*
X6581Y-98549D01*
X6586Y-98597D01*
X6629Y-98716D01*
X6664Y-98838D01*
X6688Y-98880D01*
X6704Y-98925D01*
X6772Y-99031D01*
X6834Y-99142D01*
X6874Y-99188D01*
X6893Y-99218D01*
X6928Y-99251D01*
X6954Y-99283D01*
X6960Y-99290D01*
X6965Y-99295D01*
X6993Y-99328D01*
X8425Y-100760D01*
X9313Y-102904D01*
X9313Y-105224D01*
X8425Y-107368D01*
X6784Y-109009D01*
X4640Y-109897D01*
X2320Y-109897D01*
X176Y-109009D01*
X-1465Y-107368D01*
X-2353Y-105224D01*
X-2353Y-102904D01*
X-1465Y-100760D01*
X-33Y-99328D01*
X34Y-99243D01*
X66Y-99210D01*
X74Y-99198D01*
X130Y-99135D01*
X154Y-99093D01*
X184Y-99055D01*
X238Y-98941D01*
X299Y-98830D01*
X312Y-98784D01*
X332Y-98740D01*
X359Y-98616D01*
X393Y-98495D01*
X398Y-98434D01*
X406Y-98399D01*
X405Y-98351D01*
X413Y-98251D01*
X413Y-94665D01*
X2128Y-88264D01*
X5442Y-82525D01*
X9129Y-78838D01*
X9130Y-78837D01*
X10657Y-77309D01*
X18163Y-74200D01*
X32510Y-74200D01*
X45498Y-77680D01*
X57142Y-84403D01*
X61135Y-88396D01*
X61213Y-88458D01*
X61286Y-88528D01*
X61350Y-88566D01*
X61408Y-88612D01*
X61499Y-88655D01*
X61585Y-88707D01*
X61656Y-88729D01*
X61723Y-88761D01*
X61821Y-88782D01*
X61917Y-88813D01*
X61991Y-88819D01*
X62064Y-88834D01*
X62164Y-88833D01*
X62264Y-88841D01*
X62338Y-88830D01*
X62412Y-88828D01*
X62509Y-88804D01*
X62609Y-88789D01*
X62678Y-88762D01*
X62750Y-88743D01*
X62839Y-88697D01*
X62933Y-88660D01*
X62994Y-88618D01*
X63060Y-88584D01*
X63136Y-88519D01*
X63219Y-88461D01*
X63269Y-88406D01*
X63325Y-88358D01*
X63385Y-88277D01*
X63452Y-88203D01*
X63488Y-88138D01*
X63533Y-88078D01*
X63572Y-87986D01*
X63621Y-87898D01*
X63641Y-87826D01*
X63671Y-87758D01*
X63688Y-87659D01*
X63716Y-87562D01*
X63724Y-87462D01*
X63732Y-87415D01*
X63730Y-87379D01*
X63735Y-87318D01*
X63735Y-81335D01*
X69073Y-75997D01*
X69090Y-75977D01*
X69110Y-75960D01*
X69198Y-75840D01*
X69290Y-75724D01*
X69301Y-75700D01*
X69317Y-75679D01*
X69375Y-75543D01*
X69439Y-75409D01*
X69444Y-75383D01*
X69455Y-75359D01*
X69481Y-75213D01*
X69512Y-75068D01*
X69512Y-75042D01*
X69516Y-75016D01*
X69509Y-74868D01*
X69506Y-74720D01*
X69500Y-74694D01*
X69498Y-74668D01*
X69457Y-74526D01*
X69421Y-74382D01*
X69409Y-74359D01*
X69402Y-74333D01*
X69329Y-74204D01*
X69262Y-74072D01*
X69245Y-74052D01*
X69232Y-74029D01*
X69073Y-73843D01*
X63735Y-68505D01*
X63735Y-61335D01*
X65462Y-59609D01*
X65478Y-59588D01*
X65498Y-59571D01*
X65586Y-59452D01*
X65678Y-59336D01*
X65690Y-59312D01*
X65705Y-59291D01*
X65764Y-59154D01*
X65827Y-59020D01*
X65833Y-58995D01*
X65843Y-58971D01*
X65870Y-58825D01*
X65901Y-58680D01*
X65900Y-58654D01*
X65905Y-58628D01*
X65897Y-58479D01*
X65895Y-58331D01*
X65888Y-58306D01*
X65887Y-58280D01*
X65846Y-58137D01*
X65810Y-57993D01*
X65798Y-57970D01*
X65790Y-57945D01*
X65718Y-57815D01*
X65650Y-57684D01*
X65633Y-57664D01*
X65620Y-57641D01*
X65462Y-57454D01*
X60709Y-52702D01*
X60676Y-52676D01*
X60621Y-52621D01*
X58087Y-50456D01*
X58040Y-50424D01*
X57998Y-50386D01*
X57814Y-50272D01*
X57798Y-50262D01*
X57794Y-50260D01*
X57790Y-50257D01*
X51869Y-47241D01*
X51760Y-47200D01*
X51654Y-47151D01*
X51581Y-47134D01*
X51543Y-47119D01*
X51499Y-47114D01*
X51416Y-47094D01*
X44853Y-46054D01*
X44737Y-46049D01*
X44621Y-46035D01*
X44546Y-46041D01*
X44505Y-46039D01*
X44462Y-46048D01*
X44377Y-46054D01*
X37814Y-47094D01*
X37702Y-47125D01*
X37587Y-47148D01*
X37518Y-47176D01*
X37478Y-47187D01*
X37439Y-47209D01*
X37361Y-47241D01*
X33017Y-49454D01*
X33003Y-49463D01*
X32988Y-49470D01*
X32859Y-49559D01*
X32727Y-49647D01*
X32715Y-49659D01*
X32702Y-49668D01*
X32596Y-49785D01*
X32488Y-49901D01*
X32479Y-49915D01*
X32468Y-49927D01*
X32392Y-50066D01*
X32313Y-50202D01*
X32308Y-50218D01*
X32300Y-50232D01*
X32257Y-50385D01*
X32211Y-50535D01*
X32209Y-50552D01*
X32205Y-50568D01*
X32185Y-50811D01*
X32185Y-51694D01*
X31297Y-53837D01*
X29657Y-55478D01*
X27513Y-56366D01*
X25192Y-56366D01*
X23049Y-55478D01*
X21408Y-53837D01*
X20520Y-51694D01*
X20520Y-49373D01*
X21408Y-47229D01*
X22952Y-45685D01*
X22969Y-45664D01*
X22989Y-45647D01*
X23077Y-45528D01*
X23169Y-45412D01*
X23180Y-45388D01*
X23196Y-45367D01*
X23254Y-45231D01*
X23318Y-45097D01*
X23323Y-45071D01*
X23334Y-45047D01*
X23360Y-44901D01*
X23391Y-44756D01*
X23391Y-44730D01*
X23395Y-44704D01*
X23388Y-44555D01*
X23385Y-44408D01*
X23379Y-44382D01*
X23377Y-44356D01*
X23336Y-44213D01*
X23300Y-44070D01*
X23288Y-44046D01*
X23281Y-44021D01*
X23208Y-43891D01*
X23141Y-43760D01*
X23124Y-43740D01*
X23111Y-43717D01*
X22952Y-43531D01*
X22577Y-43156D01*
X21724Y-41095D01*
X21724Y-38864D01*
X21960Y-38295D01*
X22001Y-38150D01*
X22047Y-38007D01*
X22049Y-37983D01*
X22055Y-37959D01*
X22063Y-37809D01*
X22075Y-37659D01*
X22071Y-37635D01*
X22072Y-37611D01*
X22045Y-37464D01*
X22023Y-37315D01*
X22014Y-37292D01*
X22010Y-37268D01*
X21950Y-37131D01*
X21894Y-36991D01*
X21881Y-36971D01*
X21871Y-36949D01*
X21781Y-36828D01*
X21695Y-36705D01*
X21677Y-36689D01*
X21663Y-36669D01*
X21548Y-36572D01*
X21437Y-36471D01*
X21415Y-36460D01*
X21397Y-36444D01*
X21263Y-36375D01*
X21132Y-36303D01*
X21108Y-36296D01*
X21087Y-36285D01*
X20941Y-36249D01*
X20796Y-36208D01*
X20767Y-36206D01*
X20749Y-36201D01*
X20702Y-36200D01*
X20552Y-36188D01*
X-18542Y-36188D01*
X-18568Y-36191D01*
X-18594Y-36189D01*
X-18741Y-36211D01*
X-18888Y-36228D01*
X-18913Y-36237D01*
X-18939Y-36241D01*
X-19077Y-36296D01*
X-19216Y-36346D01*
X-19238Y-36360D01*
X-19263Y-36370D01*
X-19384Y-36454D01*
X-19509Y-36535D01*
X-19527Y-36554D01*
X-19549Y-36569D01*
X-19648Y-36678D01*
X-19751Y-36785D01*
X-19765Y-36808D01*
X-19782Y-36827D01*
X-19854Y-36957D01*
X-19930Y-37084D01*
X-19938Y-37109D01*
X-19951Y-37132D01*
X-19991Y-37275D01*
X-20036Y-37416D01*
X-20038Y-37443D01*
X-20046Y-37468D01*
X-20065Y-37712D01*
X-20065Y-42542D01*
X-20958Y-43435D01*
X-106042Y-43435D01*
X-106935Y-42542D01*
X-106935Y46352D01*
X-106042Y47245D01*
X-27312Y47245D01*
X-27237Y47253D01*
X-27160Y47252D01*
X-27064Y47273D01*
X-26966Y47285D01*
X-26894Y47310D01*
X-26820Y47327D01*
X-26731Y47369D01*
X-26638Y47402D01*
X-26574Y47444D01*
X-26505Y47476D01*
X-26428Y47538D01*
X-26345Y47591D01*
X-26292Y47646D01*
X-26232Y47694D01*
X-26171Y47771D01*
X-26103Y47842D01*
X-26064Y47907D01*
X-26017Y47967D01*
X-25948Y48101D01*
X-25924Y48141D01*
X-25918Y48159D01*
X-25905Y48185D01*
X-25164Y49974D01*
X-25080Y50058D01*
X-25074Y50065D01*
X-25066Y50072D01*
X-24966Y50202D01*
X-24863Y50331D01*
X-24859Y50340D01*
X-24853Y50348D01*
X-24784Y50498D01*
X-24714Y50646D01*
X-24712Y50656D01*
X-24708Y50665D01*
X-24675Y50827D01*
X-24641Y50987D01*
X-24641Y50996D01*
X-24639Y51006D01*
X-24644Y51170D01*
X-24647Y51335D01*
X-24649Y51345D01*
X-24650Y51355D01*
X-24692Y51512D01*
X-24732Y51673D01*
X-24737Y51682D01*
X-24739Y51691D01*
X-24816Y51837D01*
X-24892Y51983D01*
X-24892Y51984D01*
X-43958Y92870D01*
X-43377Y94467D01*
X-19180Y105750D01*
X-17583Y105169D01*
X-9329Y87468D01*
X-9294Y87410D01*
X-9266Y87348D01*
X-9203Y87262D01*
X-9147Y87171D01*
X-9099Y87123D01*
X-9058Y87068D01*
X-8977Y87000D01*
X-8902Y86924D01*
X-8844Y86887D01*
X-8792Y86844D01*
X-8697Y86795D01*
X-8607Y86738D01*
X-8542Y86716D01*
X-8482Y86685D01*
X-8378Y86659D01*
X-8277Y86625D01*
X-8209Y86618D01*
X-8143Y86601D01*
X-7970Y86593D01*
X-7930Y86589D01*
X-7918Y86590D01*
X-7899Y86590D01*
X54899Y88635D01*
X54902Y88636D01*
X54906Y88636D01*
X56120Y88681D01*
X57254Y88254D01*
X57256Y88253D01*
X57260Y88251D01*
X58400Y87828D01*
X59274Y87009D01*
X59301Y86988D01*
X59344Y86947D01*
X61135Y85465D01*
X61141Y85461D01*
X61146Y85455D01*
X61348Y85317D01*
X61420Y85275D01*
X61533Y85227D01*
X61643Y85171D01*
X61693Y85158D01*
X61740Y85138D01*
X61862Y85116D01*
X61981Y85086D01*
X62033Y85086D01*
X62084Y85076D01*
X62206Y85083D01*
X62329Y85081D01*
X62380Y85092D01*
X62432Y85095D01*
X62550Y85129D01*
X62670Y85155D01*
X62717Y85177D01*
X62766Y85192D01*
X62874Y85252D01*
X62985Y85304D01*
X63025Y85337D01*
X63070Y85362D01*
X63161Y85445D01*
X63257Y85522D01*
X63289Y85562D01*
X63328Y85597D01*
X63397Y85698D01*
X63474Y85795D01*
X63496Y85842D01*
X63525Y85884D01*
X63570Y85999D01*
X63622Y86110D01*
X63633Y86161D01*
X63651Y86209D01*
X63669Y86331D01*
X63695Y86451D01*
X63694Y86503D01*
X63701Y86554D01*
X63690Y86677D01*
X63688Y86800D01*
X63675Y86850D01*
X63671Y86901D01*
X63633Y87018D01*
X63602Y87137D01*
X63574Y87197D01*
X63563Y87233D01*
X63538Y87273D01*
X63497Y87358D01*
X63418Y87495D01*
X63245Y88141D01*
X63245Y93049D01*
X71882Y93049D01*
X71908Y93052D01*
X71934Y93050D01*
X72081Y93072D01*
X72228Y93089D01*
X72253Y93097D01*
X72279Y93101D01*
X72386Y93144D01*
X72462Y93123D01*
X72603Y93078D01*
X72629Y93075D01*
X72654Y93068D01*
X72898Y93049D01*
X81535Y93049D01*
X81535Y88141D01*
X81362Y87495D01*
X81027Y86916D01*
X80554Y86443D01*
X79975Y86108D01*
X79329Y85935D01*
X77452Y85935D01*
X77352Y85924D01*
X77252Y85922D01*
X77179Y85904D01*
X77106Y85895D01*
X77011Y85862D01*
X76914Y85837D01*
X76847Y85803D01*
X76777Y85778D01*
X76693Y85723D01*
X76604Y85677D01*
X76547Y85629D01*
X76485Y85589D01*
X76415Y85517D01*
X76338Y85452D01*
X76294Y85392D01*
X76242Y85338D01*
X76191Y85252D01*
X76131Y85171D01*
X76102Y85103D01*
X76064Y85039D01*
X76033Y84943D01*
X75993Y84851D01*
X75980Y84778D01*
X75957Y84707D01*
X75949Y84607D01*
X75932Y84508D01*
X75935Y84434D01*
X75929Y84360D01*
X75944Y84260D01*
X75950Y84160D01*
X75970Y84089D01*
X75981Y84015D01*
X76018Y83922D01*
X76046Y83825D01*
X76082Y83760D01*
X76110Y83691D01*
X76167Y83609D01*
X76216Y83521D01*
X76281Y83445D01*
X76309Y83405D01*
X76335Y83381D01*
X76375Y83335D01*
X81045Y78665D01*
X81045Y71495D01*
X75707Y66157D01*
X75690Y66137D01*
X75670Y66120D01*
X75582Y66000D01*
X75490Y65884D01*
X75479Y65860D01*
X75463Y65839D01*
X75405Y65703D01*
X75341Y65569D01*
X75336Y65543D01*
X75325Y65519D01*
X75299Y65373D01*
X75268Y65228D01*
X75268Y65202D01*
X75264Y65176D01*
X75271Y65028D01*
X75274Y64880D01*
X75280Y64854D01*
X75282Y64828D01*
X75323Y64686D01*
X75359Y64542D01*
X75371Y64519D01*
X75378Y64493D01*
X75450Y64364D01*
X75518Y64232D01*
X75535Y64212D01*
X75548Y64189D01*
X75707Y64003D01*
X81045Y58665D01*
X81045Y51495D01*
X75707Y46157D01*
X75690Y46137D01*
X75670Y46120D01*
X75582Y46000D01*
X75490Y45884D01*
X75479Y45860D01*
X75463Y45839D01*
X75405Y45703D01*
X75341Y45569D01*
X75336Y45543D01*
X75325Y45519D01*
X75299Y45373D01*
X75268Y45228D01*
X75268Y45202D01*
X75264Y45176D01*
X75271Y45028D01*
X75274Y44880D01*
X75280Y44854D01*
X75282Y44828D01*
X75323Y44686D01*
X75359Y44542D01*
X75371Y44519D01*
X75378Y44493D01*
X75450Y44364D01*
X75518Y44232D01*
X75535Y44212D01*
X75548Y44189D01*
X75707Y44003D01*
X81045Y38665D01*
X81045Y30880D01*
X81062Y30730D01*
X81075Y30579D01*
X81082Y30557D01*
X81085Y30534D01*
X81136Y30392D01*
X81182Y30248D01*
X81196Y30223D01*
X81202Y30206D01*
X81227Y30167D01*
X81301Y30034D01*
X89456Y17830D01*
X95727Y2691D01*
X98924Y-13381D01*
X98924Y-85695D01*
X98932Y-85771D01*
X98931Y-85847D01*
X98952Y-85944D01*
X98964Y-86041D01*
X98989Y-86113D01*
X99006Y-86188D01*
X99048Y-86277D01*
X99081Y-86369D01*
X99123Y-86434D01*
X99155Y-86503D01*
X99217Y-86579D01*
X99270Y-86662D01*
X99325Y-86715D01*
X99373Y-86775D01*
X99450Y-86836D01*
X99521Y-86904D01*
X99586Y-86944D01*
X99646Y-86991D01*
X99780Y-87059D01*
X99820Y-87083D01*
X99838Y-87089D01*
X99864Y-87102D01*
X100262Y-87267D01*
X100407Y-87309D01*
X100550Y-87354D01*
X100574Y-87356D01*
X100598Y-87363D01*
X100748Y-87370D01*
X100898Y-87382D01*
X100922Y-87379D01*
X100946Y-87380D01*
X101093Y-87353D01*
X101242Y-87331D01*
X101265Y-87322D01*
X101288Y-87317D01*
X101426Y-87258D01*
X101566Y-87202D01*
X101586Y-87188D01*
X101608Y-87179D01*
X101729Y-87089D01*
X101852Y-87003D01*
X101868Y-86985D01*
X101888Y-86971D01*
X101985Y-86856D01*
X102086Y-86744D01*
X102097Y-86723D01*
X102113Y-86705D01*
X102182Y-86571D01*
X102254Y-86439D01*
X102261Y-86416D01*
X102272Y-86395D01*
X102308Y-86248D01*
X102349Y-86104D01*
X102351Y-86075D01*
X102356Y-86056D01*
X102357Y-86009D01*
X102369Y-85860D01*
X102369Y-84045D01*
X102508Y-83346D01*
X102811Y-81823D01*
X103114Y-80300D01*
X103417Y-78777D01*
X103417Y-78776D01*
X103720Y-77254D01*
X103720Y-77253D01*
X104023Y-75730D01*
X104629Y-72684D01*
X104629Y-72683D01*
X104740Y-72126D01*
X109390Y-60898D01*
X116142Y-50793D01*
X136503Y-30432D01*
X136582Y-30333D01*
X136666Y-30239D01*
X136690Y-30197D01*
X136720Y-30159D01*
X136774Y-30045D01*
X136835Y-29934D01*
X136848Y-29888D01*
X136869Y-29844D01*
X136895Y-29721D01*
X136930Y-29599D01*
X136935Y-29538D01*
X136942Y-29503D01*
X136941Y-29455D01*
X136949Y-29355D01*
X136949Y-16151D01*
X138151Y-14949D01*
X148849Y-14949D01*
X150051Y-16151D01*
X150051Y-32849D01*
X148849Y-34051D01*
X142189Y-34051D01*
X142064Y-34065D01*
X141938Y-34072D01*
X141891Y-34085D01*
X141843Y-34091D01*
X141724Y-34133D01*
X141603Y-34168D01*
X141561Y-34192D01*
X141515Y-34208D01*
X141409Y-34277D01*
X141299Y-34338D01*
X141252Y-34378D01*
X141222Y-34397D01*
X141189Y-34432D01*
X141112Y-34497D01*
X126120Y-49489D01*
X125868Y-49741D01*
X124776Y-50833D01*
X124758Y-50856D01*
X124724Y-50887D01*
X121163Y-54817D01*
X121145Y-54842D01*
X121025Y-54993D01*
X115140Y-63802D01*
X115127Y-63826D01*
X115110Y-63847D01*
X114999Y-64065D01*
X110945Y-73852D01*
X110937Y-73879D01*
X110925Y-73903D01*
X110858Y-74138D01*
X110659Y-75139D01*
X110659Y-75140D01*
X110356Y-76663D01*
X110053Y-78186D01*
X109750Y-79709D01*
X109750Y-79710D01*
X109447Y-81232D01*
X109447Y-81233D01*
X109144Y-82756D01*
X108841Y-84279D01*
X108792Y-84528D01*
X108789Y-84559D01*
X108764Y-84750D01*
X108593Y-88235D01*
X108604Y-88398D01*
X108612Y-88562D01*
X108615Y-88572D01*
X108616Y-88583D01*
X108664Y-88740D01*
X108675Y-88779D01*
X108675Y-95685D01*
X106949Y-99851D01*
X106699Y-100101D01*
X104907Y-101893D01*
X104828Y-101992D01*
X104744Y-102086D01*
X104720Y-102128D01*
X104690Y-102166D01*
X104636Y-102280D01*
X104575Y-102391D01*
X104562Y-102438D01*
X104542Y-102481D01*
X104515Y-102605D01*
X104481Y-102727D01*
X104476Y-102787D01*
X104468Y-102822D01*
X104469Y-102870D01*
X104461Y-102970D01*
X104461Y-104995D01*
X103573Y-107139D01*
X101932Y-108780D01*
X99788Y-109668D01*
X97468Y-109668D01*
X96867Y-109419D01*
X96722Y-109378D01*
X96579Y-109332D01*
X96555Y-109330D01*
X96532Y-109323D01*
X96381Y-109316D01*
X96232Y-109304D01*
X96208Y-109307D01*
X96184Y-109306D01*
X96036Y-109333D01*
X95887Y-109356D01*
X95865Y-109365D01*
X95841Y-109369D01*
X95703Y-109429D01*
X95563Y-109484D01*
X95543Y-109498D01*
X95521Y-109508D01*
X95400Y-109598D01*
X95277Y-109683D01*
X95261Y-109701D01*
X95241Y-109716D01*
X95144Y-109831D01*
X95044Y-109942D01*
X95032Y-109963D01*
X95016Y-109982D01*
X94948Y-110115D01*
X94875Y-110247D01*
X94869Y-110270D01*
X94858Y-110292D01*
X94821Y-110437D01*
X94780Y-110582D01*
X94778Y-110612D01*
X94773Y-110630D01*
X94773Y-110677D01*
X94761Y-110826D01*
X94761Y-134809D01*
X92404Y-144537D01*
X87824Y-153436D01*
X86811Y-154607D01*
X86735Y-154719D01*
X86653Y-154827D01*
X86637Y-154863D01*
X86615Y-154895D01*
X86566Y-155021D01*
X86511Y-155146D01*
X86503Y-155184D01*
X86489Y-155220D01*
X86470Y-155354D01*
X86445Y-155488D01*
X86446Y-155527D01*
X86441Y-155565D01*
X86453Y-155701D01*
X86458Y-155836D01*
X86469Y-155883D01*
X86472Y-155912D01*
X86488Y-155960D01*
X86515Y-156074D01*
X88579Y-162427D01*
X87808Y-163941D01*
X71926Y-169101D01*
X70304Y-168274D01*
X70262Y-168226D01*
X70178Y-168116D01*
X70150Y-168093D01*
X70127Y-168066D01*
X70015Y-167984D01*
X69907Y-167896D01*
X69875Y-167880D01*
X69846Y-167859D01*
X69719Y-167804D01*
X69594Y-167743D01*
X69559Y-167735D01*
X69526Y-167721D01*
X69390Y-167696D01*
X69255Y-167665D01*
X69219Y-167665D01*
X69183Y-167659D01*
X69045Y-167666D01*
X68906Y-167667D01*
X68871Y-167675D01*
X68835Y-167677D01*
X68702Y-167715D01*
X68567Y-167747D01*
X68535Y-167764D01*
X68500Y-167773D01*
X68379Y-167841D01*
X68255Y-167903D01*
X68228Y-167926D01*
X68196Y-167944D01*
X68010Y-168102D01*
X63992Y-172120D01*
X63968Y-172150D01*
X63921Y-172196D01*
X60278Y-176377D01*
X58797Y-177441D01*
X58736Y-177497D01*
X58669Y-177545D01*
X58607Y-177614D01*
X58539Y-177676D01*
X58493Y-177744D01*
X58438Y-177806D01*
X58394Y-177887D01*
X58342Y-177963D01*
X58311Y-178040D01*
X58272Y-178112D01*
X58248Y-178201D01*
X58214Y-178287D01*
X58202Y-178369D01*
X58181Y-178449D01*
X58177Y-178541D01*
X58164Y-178632D01*
X58171Y-178714D01*
X58168Y-178797D01*
X58185Y-178887D01*
X58193Y-178979D01*
X58219Y-179058D01*
X58235Y-179139D01*
X58272Y-179223D01*
X58301Y-179311D01*
X58344Y-179382D01*
X58377Y-179457D01*
X58433Y-179530D01*
X58481Y-179609D01*
X58539Y-179668D01*
X58589Y-179734D01*
X58660Y-179793D01*
X58724Y-179859D01*
X58794Y-179903D01*
X58857Y-179956D01*
X58940Y-179997D01*
X59018Y-180047D01*
X59096Y-180074D01*
X59170Y-180111D01*
X59259Y-180132D01*
X59346Y-180163D01*
X59428Y-180172D01*
X59509Y-180191D01*
X59601Y-180191D01*
X59693Y-180201D01*
X59775Y-180191D01*
X59857Y-180192D01*
X59989Y-180166D01*
X60039Y-180160D01*
X60061Y-180152D01*
X60097Y-180145D01*
X63568Y-179172D01*
X63607Y-179156D01*
X63764Y-179103D01*
X87373Y-168848D01*
X87410Y-168826D01*
X87557Y-168752D01*
X109551Y-155378D01*
X109585Y-155351D01*
X109720Y-155258D01*
X129687Y-139014D01*
X129717Y-138983D01*
X129839Y-138872D01*
X134712Y-133655D01*
X134741Y-133615D01*
X134777Y-133580D01*
X134845Y-133475D01*
X134919Y-133375D01*
X134938Y-133329D01*
X134965Y-133287D01*
X135007Y-133169D01*
X135057Y-133055D01*
X135066Y-133006D01*
X135082Y-132959D01*
X135096Y-132834D01*
X135119Y-132712D01*
X135116Y-132662D01*
X135122Y-132612D01*
X135107Y-132488D01*
X135101Y-132364D01*
X135087Y-132316D01*
X135081Y-132266D01*
X135039Y-132149D01*
X135004Y-132029D01*
X134980Y-131985D01*
X134963Y-131938D01*
X134895Y-131833D01*
X134834Y-131724D01*
X134801Y-131688D01*
X134774Y-131646D01*
X134683Y-131559D01*
X134599Y-131467D01*
X134558Y-131439D01*
X134522Y-131404D01*
X134415Y-131340D01*
X134312Y-131269D01*
X134266Y-131251D01*
X134223Y-131226D01*
X133993Y-131144D01*
X127402Y-129378D01*
X121437Y-125934D01*
X116566Y-121063D01*
X113122Y-115098D01*
X111339Y-108444D01*
X111339Y-101556D01*
X113122Y-94902D01*
X116566Y-88937D01*
X121437Y-84066D01*
X127402Y-80622D01*
X134056Y-78839D01*
X140944Y-78839D01*
X147598Y-80622D01*
X153563Y-84066D01*
X158434Y-88937D01*
X161845Y-94845D01*
X161910Y-94934D01*
X161969Y-95027D01*
X162014Y-95073D01*
X162052Y-95125D01*
X162137Y-95196D01*
X162214Y-95274D01*
X162269Y-95309D01*
X162318Y-95350D01*
X162416Y-95401D01*
X162510Y-95459D01*
X162571Y-95480D01*
X162628Y-95509D01*
X162735Y-95536D01*
X162840Y-95572D01*
X162904Y-95578D01*
X162966Y-95594D01*
X163077Y-95595D01*
X163187Y-95606D01*
X163251Y-95598D01*
X163315Y-95599D01*
X163423Y-95576D01*
X163532Y-95561D01*
X163593Y-95539D01*
X163656Y-95525D01*
X163755Y-95478D01*
X163858Y-95439D01*
X163912Y-95403D01*
X163970Y-95376D01*
X164057Y-95307D01*
X164148Y-95246D01*
X164193Y-95199D01*
X164243Y-95159D01*
X164311Y-95072D01*
X164387Y-94992D01*
X164432Y-94920D01*
X164459Y-94885D01*
X164477Y-94848D01*
X164516Y-94784D01*
X174334Y-75837D01*
X174349Y-75797D01*
X174417Y-75647D01*
X183037Y-51392D01*
X183046Y-51350D01*
X183093Y-51192D01*
X188330Y-25990D01*
X188334Y-25948D01*
X188358Y-25784D01*
X190115Y-104D01*
X190113Y-61D01*
X190115Y104D01*
X188358Y25784D01*
X188350Y25826D01*
X188330Y25990D01*
X183093Y51192D01*
X183079Y51233D01*
X183037Y51392D01*
X174417Y75647D01*
X174398Y75685D01*
X174334Y75837D01*
X162492Y98692D01*
X162468Y98727D01*
X162384Y98869D01*
X157283Y106095D01*
X157263Y106118D01*
X157247Y106145D01*
X157147Y106248D01*
X157051Y106355D01*
X157026Y106372D01*
X157004Y106395D01*
X156883Y106473D01*
X156766Y106555D01*
X156737Y106567D01*
X156711Y106583D01*
X156576Y106631D01*
X156443Y106685D01*
X156412Y106690D01*
X156383Y106700D01*
X156240Y106716D01*
X156098Y106738D01*
X156067Y106736D01*
X156036Y106740D01*
X155894Y106723D01*
X155751Y106712D01*
X155721Y106703D01*
X155690Y106699D01*
X155555Y106651D01*
X155418Y106607D01*
X155392Y106592D01*
X155362Y106581D01*
X155242Y106503D01*
X155118Y106430D01*
X155096Y106408D01*
X155070Y106391D01*
X154970Y106288D01*
X154867Y106189D01*
X154850Y106163D01*
X154828Y106140D01*
X154754Y106017D01*
X154676Y105897D01*
X154666Y105868D01*
X154650Y105841D01*
X154568Y105611D01*
X154378Y104902D01*
X150934Y98937D01*
X146063Y94066D01*
X140098Y90622D01*
X133444Y88839D01*
X126556Y88839D01*
X119902Y90622D01*
X113937Y94066D01*
X109066Y98937D01*
X105622Y104902D01*
X103839Y111556D01*
X103839Y118444D01*
X105622Y125098D01*
X109066Y131063D01*
X113937Y135934D01*
X119902Y139378D01*
X124047Y140488D01*
X124189Y140545D01*
X124334Y140597D01*
X124351Y140609D01*
X124371Y140617D01*
X124497Y140704D01*
X124625Y140788D01*
X124640Y140803D01*
X124657Y140815D01*
X124760Y140929D01*
X124866Y141039D01*
X124877Y141058D01*
X124891Y141073D01*
X124966Y141207D01*
X125044Y141339D01*
X125050Y141360D01*
X125060Y141378D01*
X125102Y141526D01*
X125148Y141672D01*
X125150Y141693D01*
X125156Y141713D01*
X125163Y141866D01*
X125175Y142019D01*
X125171Y142040D01*
X125172Y142061D01*
X125145Y142212D01*
X125121Y142364D01*
X125113Y142383D01*
X125109Y142404D01*
X125048Y142545D01*
X124991Y142687D01*
X124979Y142704D01*
X124970Y142724D01*
X124879Y142847D01*
X124791Y142972D01*
X124772Y142990D01*
X124762Y143003D01*
X124728Y143032D01*
X124614Y143141D01*
X109720Y155258D01*
X109684Y155281D01*
X109550Y155378D01*
X87557Y168752D01*
X87518Y168770D01*
X87373Y168848D01*
X63763Y179103D01*
X63722Y179115D01*
X63568Y179172D01*
X38782Y186117D01*
X38739Y186124D01*
X38578Y186159D01*
X13078Y189664D01*
X13035Y189665D01*
X12870Y189679D01*
X-12870Y189679D01*
X-12913Y189674D01*
X-13078Y189664D01*
X-38578Y186159D01*
X-38620Y186149D01*
X-38782Y186117D01*
X-51275Y182617D01*
X-51276Y182616D01*
X-51451Y182545D01*
X-51597Y182485D01*
X-51598Y182485D01*
X-51598Y182484D01*
X-51743Y182382D01*
X-51882Y182283D01*
X-52002Y182147D01*
X-52113Y182022D01*
X-52113Y182021D01*
X-52189Y181880D01*
X-52278Y181716D01*
X-52278Y181715D01*
X-52279Y181715D01*
X-52338Y181497D01*
X-52370Y181379D01*
X-52370Y181378D01*
X-52376Y181192D01*
X-52382Y181031D01*
X-52382Y181030D01*
X-52350Y180866D01*
X-52316Y180689D01*
X-52315Y180688D01*
X-52236Y180511D01*
X-52173Y180371D01*
X-52172Y180371D01*
X-52172Y180370D01*
X-52031Y180171D01*
X-51999Y180133D01*
X-44059Y163106D01*
X-56309Y157394D01*
X-56332Y157380D01*
X-56356Y157371D01*
X-56480Y157289D01*
X-56606Y157211D01*
X-56625Y157193D01*
X-56647Y157178D01*
X-56749Y157070D01*
X-56854Y156966D01*
X-56868Y156944D01*
X-56886Y156925D01*
X-56961Y156796D01*
X-57039Y156671D01*
X-57048Y156646D01*
X-57061Y156623D01*
X-57105Y156482D01*
X-57153Y156341D01*
X-57156Y156315D01*
X-57163Y156290D01*
X-57173Y156142D01*
X-57189Y155995D01*
X-57185Y155969D01*
X-57187Y155942D01*
X-57163Y155796D01*
X-57145Y155649D01*
X-57135Y155624D01*
X-57131Y155598D01*
X-57046Y155369D01*
X-56402Y153987D01*
X-56403Y153987D01*
X-57047Y155369D01*
X-57061Y155391D01*
X-57070Y155415D01*
X-57152Y155539D01*
X-57230Y155665D01*
X-57248Y155684D01*
X-57263Y155706D01*
X-57371Y155808D01*
X-57475Y155913D01*
X-57497Y155927D01*
X-57516Y155945D01*
X-57644Y156020D01*
X-57770Y156099D01*
X-57795Y156107D01*
X-57818Y156120D01*
X-57959Y156164D01*
X-58100Y156212D01*
X-58126Y156215D01*
X-58151Y156223D01*
X-58299Y156233D01*
X-58446Y156248D01*
X-58472Y156245D01*
X-58499Y156246D01*
X-58645Y156223D01*
X-58792Y156204D01*
X-58817Y156195D01*
X-58843Y156191D01*
X-59072Y156105D01*
X-71322Y150393D01*
X-79262Y167420D01*
X-79378Y168079D01*
X-79320Y168745D01*
X-79089Y169380D01*
X-79046Y169459D01*
X-78988Y169546D01*
X-78963Y169611D01*
X-78930Y169673D01*
X-78902Y169774D01*
X-78866Y169873D01*
X-78857Y169942D01*
X-78838Y170009D01*
X-78834Y170114D01*
X-78821Y170218D01*
X-78828Y170288D01*
X-78825Y170357D01*
X-78845Y170461D01*
X-78856Y170565D01*
X-78878Y170631D01*
X-78891Y170700D01*
X-78934Y170795D01*
X-78968Y170895D01*
X-79005Y170954D01*
X-79034Y171018D01*
X-79097Y171101D01*
X-79153Y171190D01*
X-79203Y171239D01*
X-79245Y171295D01*
X-79326Y171362D01*
X-79400Y171436D01*
X-79460Y171473D01*
X-79513Y171517D01*
X-79607Y171564D01*
X-79697Y171619D01*
X-79763Y171641D01*
X-79825Y171673D01*
X-79927Y171697D01*
X-80027Y171730D01*
X-80097Y171737D01*
X-80164Y171753D01*
X-80269Y171753D01*
X-80374Y171763D01*
X-80443Y171754D01*
X-80513Y171754D01*
X-80615Y171731D01*
X-80719Y171717D01*
X-80807Y171686D01*
X-80853Y171676D01*
X-80887Y171659D01*
X-80951Y171637D01*
X-87373Y168848D01*
X-87410Y168826D01*
X-87557Y168752D01*
X-109550Y155378D01*
X-109585Y155351D01*
X-109720Y155258D01*
X-129687Y139014D01*
X-129702Y138998D01*
X-129704Y138997D01*
X-129722Y138979D01*
X-129839Y138872D01*
X-147409Y120060D01*
X-147434Y120025D01*
X-147540Y119898D01*
X-162384Y98869D01*
X-162404Y98832D01*
X-162492Y98692D01*
X-174334Y75837D01*
X-174349Y75797D01*
X-174417Y75647D01*
X-183037Y51392D01*
X-183046Y51350D01*
X-183093Y51192D01*
X-187029Y32249D01*
X-187034Y32192D01*
X-187048Y32137D01*
X-187050Y32019D01*
X-187061Y31902D01*
X-187053Y31846D01*
X-187054Y31788D01*
X-187029Y31673D01*
X-187012Y31557D01*
X-186992Y31504D01*
X-186980Y31448D01*
X-186929Y31342D01*
X-186887Y31232D01*
X-186855Y31185D01*
X-186830Y31133D01*
X-186757Y31041D01*
X-186691Y30944D01*
X-186649Y30905D01*
X-186613Y30860D01*
X-186521Y30787D01*
X-186434Y30708D01*
X-186384Y30680D01*
X-186340Y30644D01*
X-186233Y30594D01*
X-186131Y30536D01*
X-186076Y30520D01*
X-186024Y30496D01*
X-185909Y30471D01*
X-185796Y30438D01*
X-185739Y30435D01*
X-185683Y30423D01*
X-185566Y30425D01*
X-185448Y30419D01*
X-185392Y30429D01*
X-185335Y30430D01*
X-185221Y30458D01*
X-185105Y30479D01*
X-185053Y30501D01*
X-184997Y30515D01*
X-184802Y30608D01*
X-184785Y30615D01*
X-184781Y30618D01*
X-184776Y30620D01*
X-182598Y31878D01*
X-175944Y33661D01*
X-169056Y33661D01*
X-162402Y31878D01*
X-156437Y28434D01*
X-151566Y23563D01*
X-148122Y17598D01*
X-146339Y10944D01*
X-146339Y4056D01*
X-148122Y-2598D01*
X-151566Y-8563D01*
X-156437Y-13434D01*
X-162402Y-16878D01*
X-169056Y-18661D01*
X-175944Y-18661D01*
X-182598Y-16878D01*
X-186753Y-14479D01*
X-186870Y-14428D01*
X-186983Y-14370D01*
X-187029Y-14359D01*
X-187073Y-14340D01*
X-187198Y-14318D01*
X-187322Y-14287D01*
X-187369Y-14287D01*
X-187415Y-14278D01*
X-187543Y-14284D01*
X-187670Y-14283D01*
X-187716Y-14293D01*
X-187764Y-14295D01*
X-187886Y-14331D01*
X-188011Y-14358D01*
X-188053Y-14378D01*
X-188099Y-14391D01*
X-188210Y-14453D01*
X-188325Y-14508D01*
X-188362Y-14538D01*
X-188403Y-14561D01*
X-188498Y-14647D01*
X-188597Y-14726D01*
X-188626Y-14764D01*
X-188661Y-14795D01*
X-188733Y-14900D01*
X-188812Y-15001D01*
X-188832Y-15043D01*
X-188859Y-15082D01*
X-188906Y-15201D01*
X-188959Y-15316D01*
X-188969Y-15363D01*
X-188986Y-15406D01*
X-189005Y-15532D01*
X-189031Y-15657D01*
X-189032Y-15717D01*
X-189037Y-15751D01*
X-189033Y-15800D01*
X-189034Y-15902D01*
X-188358Y-25784D01*
X-188350Y-25826D01*
X-188330Y-25990D01*
X-183093Y-51192D01*
X-183079Y-51233D01*
X-183037Y-51392D01*
X-174417Y-75647D01*
X-174398Y-75685D01*
X-174334Y-75837D01*
X-162492Y-98692D01*
X-162468Y-98727D01*
X-162384Y-98869D01*
X-147540Y-119898D01*
X-147511Y-119931D01*
X-147409Y-120060D01*
X-129839Y-138872D01*
X-129807Y-138899D01*
X-129687Y-139014D01*
X-109720Y-155258D01*
X-109684Y-155281D01*
X-109550Y-155378D01*
X-87557Y-168752D01*
X-87518Y-168770D01*
X-87373Y-168848D01*
X-63763Y-179103D01*
X-63722Y-179115D01*
X-63568Y-179172D01*
X-38782Y-186117D01*
X-38739Y-186124D01*
X-38578Y-186159D01*
X-13078Y-189664D01*
X-13035Y-189665D01*
X-12870Y-189679D01*
X12870Y-189679D01*
X12913Y-189674D01*
G37*
%LPC*%
G36*
X6620Y-128741D02*
X6620Y-128741D01*
X3833Y-127586D01*
X2314Y-126068D01*
X2215Y-125989D01*
X2121Y-125905D01*
X2079Y-125881D01*
X2041Y-125851D01*
X1927Y-125797D01*
X1816Y-125736D01*
X1770Y-125723D01*
X1726Y-125702D01*
X1603Y-125676D01*
X1481Y-125641D01*
X1420Y-125636D01*
X1385Y-125629D01*
X1337Y-125630D01*
X1237Y-125622D01*
X-69869Y-125622D01*
X-81287Y-123351D01*
X-92042Y-118896D01*
X-98282Y-114726D01*
X-98377Y-114678D01*
X-98466Y-114621D01*
X-98531Y-114599D01*
X-98592Y-114567D01*
X-98695Y-114541D01*
X-98796Y-114507D01*
X-98864Y-114499D01*
X-98930Y-114483D01*
X-99037Y-114481D01*
X-99142Y-114470D01*
X-99210Y-114478D01*
X-99279Y-114477D01*
X-99383Y-114500D01*
X-99488Y-114513D01*
X-99552Y-114537D01*
X-99619Y-114551D01*
X-99716Y-114597D01*
X-99815Y-114633D01*
X-99892Y-114680D01*
X-99934Y-114700D01*
X-99965Y-114725D01*
X-100024Y-114761D01*
X-100408Y-115039D01*
X-102085Y-114774D01*
X-111901Y-101264D01*
X-111635Y-99586D01*
X-111372Y-99395D01*
X-111352Y-99376D01*
X-111327Y-99361D01*
X-111223Y-99258D01*
X-111116Y-99159D01*
X-111100Y-99136D01*
X-111080Y-99116D01*
X-111002Y-98993D01*
X-110919Y-98872D01*
X-110909Y-98845D01*
X-110894Y-98821D01*
X-110846Y-98683D01*
X-110794Y-98547D01*
X-110790Y-98519D01*
X-110780Y-98492D01*
X-110765Y-98346D01*
X-110745Y-98201D01*
X-110747Y-98173D01*
X-110745Y-98145D01*
X-110763Y-98000D01*
X-110776Y-97854D01*
X-110785Y-97827D01*
X-110788Y-97799D01*
X-110866Y-97567D01*
X-113769Y-90734D01*
X-113800Y-90662D01*
X-113824Y-90618D01*
X-113879Y-90502D01*
X-114242Y-89866D01*
X-114260Y-89725D01*
X-114281Y-89640D01*
X-114292Y-89553D01*
X-114331Y-89435D01*
X-114343Y-89387D01*
X-114355Y-89362D01*
X-114369Y-89321D01*
X-117044Y-83025D01*
X-117103Y-82921D01*
X-117155Y-82813D01*
X-117189Y-82770D01*
X-117216Y-82722D01*
X-117297Y-82634D01*
X-117372Y-82540D01*
X-117415Y-82506D01*
X-117453Y-82466D01*
X-117552Y-82399D01*
X-117646Y-82325D01*
X-117708Y-82292D01*
X-117741Y-82270D01*
X-117784Y-82254D01*
X-117863Y-82213D01*
X-118087Y-82120D01*
X-120220Y-79987D01*
X-121375Y-77200D01*
X-121375Y-74184D01*
X-120788Y-72768D01*
X-120759Y-72667D01*
X-120721Y-72569D01*
X-120712Y-72500D01*
X-120693Y-72433D01*
X-120687Y-72327D01*
X-120673Y-72223D01*
X-120679Y-72154D01*
X-120676Y-72085D01*
X-120695Y-71981D01*
X-120704Y-71876D01*
X-120726Y-71810D01*
X-120738Y-71742D01*
X-120780Y-71645D01*
X-120813Y-71545D01*
X-120849Y-71486D01*
X-120877Y-71422D01*
X-120940Y-71338D01*
X-120995Y-71248D01*
X-121043Y-71198D01*
X-121085Y-71142D01*
X-121165Y-71074D01*
X-121239Y-70999D01*
X-121298Y-70962D01*
X-121351Y-70917D01*
X-121445Y-70869D01*
X-121534Y-70813D01*
X-121599Y-70790D01*
X-121661Y-70758D01*
X-121763Y-70733D01*
X-121863Y-70698D01*
X-121932Y-70691D01*
X-121999Y-70674D01*
X-122105Y-70673D01*
X-122209Y-70662D01*
X-122278Y-70670D01*
X-122348Y-70669D01*
X-122451Y-70692D01*
X-122555Y-70705D01*
X-122621Y-70729D01*
X-122688Y-70744D01*
X-122783Y-70789D01*
X-122882Y-70825D01*
X-122961Y-70873D01*
X-123003Y-70893D01*
X-123033Y-70917D01*
X-123091Y-70953D01*
X-129209Y-75398D01*
X-130887Y-75132D01*
X-140702Y-61622D01*
X-140437Y-59944D01*
X-134264Y-55460D01*
X-134207Y-55408D01*
X-134144Y-55363D01*
X-134080Y-55290D01*
X-134008Y-55224D01*
X-133964Y-55160D01*
X-133913Y-55103D01*
X-133866Y-55017D01*
X-133811Y-54936D01*
X-133783Y-54864D01*
X-133747Y-54796D01*
X-133721Y-54702D01*
X-133685Y-54611D01*
X-133675Y-54535D01*
X-133654Y-54460D01*
X-133643Y-54313D01*
X-133637Y-54266D01*
X-133639Y-54247D01*
X-133636Y-54216D01*
X-133667Y-50083D01*
X-133671Y-50050D01*
X-133670Y-49995D01*
X-135540Y-21305D01*
X-135548Y-21264D01*
X-135552Y-21188D01*
X-139626Y7273D01*
X-139636Y7313D01*
X-139647Y7388D01*
X-145898Y35451D01*
X-145909Y35483D01*
X-145920Y35536D01*
X-149851Y49366D01*
X-149856Y49377D01*
X-149860Y49394D01*
X-156759Y71997D01*
X-156796Y72084D01*
X-156825Y72174D01*
X-156866Y72243D01*
X-156898Y72316D01*
X-156954Y72392D01*
X-157003Y72474D01*
X-157058Y72532D01*
X-157106Y72596D01*
X-157178Y72657D01*
X-157244Y72725D01*
X-157311Y72769D01*
X-157372Y72821D01*
X-157457Y72864D01*
X-157536Y72915D01*
X-157611Y72943D01*
X-157683Y72979D01*
X-157775Y73002D01*
X-157864Y73034D01*
X-157943Y73044D01*
X-158021Y73063D01*
X-158116Y73064D01*
X-158210Y73075D01*
X-158320Y73067D01*
X-158369Y73067D01*
X-158401Y73061D01*
X-158454Y73056D01*
X-158479Y73053D01*
X-167134Y79341D01*
X-167400Y81019D01*
X-157585Y94529D01*
X-155907Y94795D01*
X-147251Y88506D01*
X-146985Y86828D01*
X-152093Y79797D01*
X-152122Y79747D01*
X-152158Y79701D01*
X-152207Y79596D01*
X-152264Y79494D01*
X-152281Y79438D01*
X-152305Y79386D01*
X-152329Y79272D01*
X-152362Y79159D01*
X-152365Y79101D01*
X-152377Y79045D01*
X-152375Y78928D01*
X-152381Y78811D01*
X-152371Y78754D01*
X-152370Y78696D01*
X-152324Y78488D01*
X-152321Y78468D01*
X-152319Y78464D01*
X-152318Y78457D01*
X-144549Y53004D01*
X-144548Y53003D01*
X-144208Y51887D01*
X-143439Y49367D01*
X-139708Y37144D01*
X-133323Y8483D01*
X-129163Y-20583D01*
X-127253Y-49883D01*
X-127341Y-57210D01*
X-127339Y-57226D01*
X-127341Y-57242D01*
X-127321Y-57399D01*
X-127305Y-57557D01*
X-127300Y-57572D01*
X-127298Y-57588D01*
X-127243Y-57737D01*
X-127191Y-57886D01*
X-127183Y-57900D01*
X-127177Y-57915D01*
X-127050Y-58124D01*
X-120288Y-67431D01*
X-120327Y-67681D01*
X-120331Y-67777D01*
X-120345Y-67871D01*
X-120339Y-67950D01*
X-120342Y-68029D01*
X-120324Y-68123D01*
X-120316Y-68219D01*
X-120292Y-68294D01*
X-120277Y-68372D01*
X-120239Y-68459D01*
X-120209Y-68550D01*
X-120169Y-68618D01*
X-120137Y-68691D01*
X-120079Y-68767D01*
X-120030Y-68849D01*
X-119975Y-68906D01*
X-119927Y-68969D01*
X-119853Y-69030D01*
X-119787Y-69099D01*
X-119720Y-69142D01*
X-119659Y-69193D01*
X-119574Y-69236D01*
X-119494Y-69287D01*
X-119419Y-69314D01*
X-119348Y-69349D01*
X-119255Y-69372D01*
X-119165Y-69404D01*
X-119086Y-69413D01*
X-119009Y-69431D01*
X-118914Y-69432D01*
X-118819Y-69443D01*
X-118740Y-69434D01*
X-118661Y-69434D01*
X-118568Y-69413D01*
X-118473Y-69402D01*
X-118369Y-69369D01*
X-118321Y-69358D01*
X-118291Y-69344D01*
X-118240Y-69327D01*
X-115300Y-68109D01*
X-114244Y-68109D01*
X-114090Y-68091D01*
X-113936Y-68078D01*
X-113917Y-68072D01*
X-113898Y-68069D01*
X-113752Y-68017D01*
X-113605Y-67968D01*
X-113588Y-67958D01*
X-113570Y-67952D01*
X-113439Y-67868D01*
X-113307Y-67787D01*
X-113293Y-67773D01*
X-113277Y-67763D01*
X-113169Y-67651D01*
X-113059Y-67543D01*
X-113048Y-67526D01*
X-113035Y-67512D01*
X-112955Y-67379D01*
X-112872Y-67248D01*
X-112866Y-67230D01*
X-112856Y-67213D01*
X-112809Y-67066D01*
X-112758Y-66919D01*
X-112756Y-66900D01*
X-112750Y-66881D01*
X-112737Y-66727D01*
X-112721Y-66572D01*
X-112723Y-66553D01*
X-112722Y-66534D01*
X-112745Y-66381D01*
X-112764Y-66226D01*
X-112771Y-66208D01*
X-112774Y-66189D01*
X-112831Y-66045D01*
X-112884Y-65899D01*
X-112897Y-65880D01*
X-112902Y-65865D01*
X-112927Y-65830D01*
X-113012Y-65691D01*
X-114806Y-63221D01*
X-115046Y-62596D01*
X-115116Y-61931D01*
X-115011Y-61270D01*
X-114739Y-60659D01*
X-114318Y-60139D01*
X-110445Y-57325D01*
X-106027Y-63406D01*
X-106009Y-63426D01*
X-105996Y-63448D01*
X-105892Y-63554D01*
X-105791Y-63663D01*
X-105770Y-63678D01*
X-105751Y-63697D01*
X-105626Y-63776D01*
X-105503Y-63859D01*
X-105479Y-63869D01*
X-105457Y-63883D01*
X-105317Y-63932D01*
X-105178Y-63985D01*
X-105152Y-63989D01*
X-105128Y-63997D01*
X-104980Y-64013D01*
X-104833Y-64034D01*
X-104807Y-64031D01*
X-104781Y-64034D01*
X-104633Y-64016D01*
X-104486Y-64003D01*
X-104461Y-63995D01*
X-104435Y-63991D01*
X-104295Y-63940D01*
X-104155Y-63894D01*
X-104133Y-63880D01*
X-104108Y-63871D01*
X-103899Y-63743D01*
X-102666Y-62847D01*
X-101770Y-64081D01*
X-101752Y-64100D01*
X-101738Y-64122D01*
X-101634Y-64228D01*
X-101534Y-64337D01*
X-101512Y-64352D01*
X-101494Y-64371D01*
X-101368Y-64450D01*
X-101246Y-64534D01*
X-101221Y-64543D01*
X-101199Y-64557D01*
X-101059Y-64606D01*
X-100921Y-64660D01*
X-100895Y-64663D01*
X-100870Y-64672D01*
X-100722Y-64687D01*
X-100576Y-64708D01*
X-100550Y-64706D01*
X-100524Y-64709D01*
X-100376Y-64690D01*
X-100229Y-64677D01*
X-100204Y-64669D01*
X-100178Y-64666D01*
X-100038Y-64614D01*
X-99898Y-64568D01*
X-99875Y-64554D01*
X-99851Y-64545D01*
X-99642Y-64418D01*
X-92752Y-59412D01*
X-90526Y-62476D01*
X-90286Y-63100D01*
X-90216Y-63766D01*
X-90323Y-64443D01*
X-90334Y-64464D01*
X-90363Y-64584D01*
X-90400Y-64702D01*
X-90404Y-64753D01*
X-90416Y-64803D01*
X-90417Y-64926D01*
X-90426Y-65049D01*
X-90418Y-65100D01*
X-90418Y-65151D01*
X-90391Y-65272D01*
X-90372Y-65394D01*
X-90353Y-65441D01*
X-90342Y-65491D01*
X-90288Y-65602D01*
X-90242Y-65717D01*
X-90213Y-65759D01*
X-90190Y-65805D01*
X-90113Y-65901D01*
X-90041Y-66002D01*
X-90003Y-66036D01*
X-89971Y-66076D01*
X-89873Y-66152D01*
X-89781Y-66234D01*
X-89737Y-66259D01*
X-89696Y-66290D01*
X-89584Y-66342D01*
X-89475Y-66401D01*
X-89426Y-66415D01*
X-89380Y-66436D01*
X-89142Y-66494D01*
X-88091Y-66660D01*
X-79451Y-78552D01*
X-79717Y-80230D01*
X-93227Y-90045D01*
X-94905Y-89779D01*
X-95574Y-88859D01*
X-95653Y-88772D01*
X-95726Y-88680D01*
X-95770Y-88644D01*
X-95809Y-88602D01*
X-95906Y-88536D01*
X-95998Y-88463D01*
X-96050Y-88438D01*
X-96097Y-88406D01*
X-96207Y-88363D01*
X-96313Y-88313D01*
X-96369Y-88301D01*
X-96422Y-88280D01*
X-96539Y-88264D01*
X-96653Y-88239D01*
X-96711Y-88239D01*
X-96767Y-88231D01*
X-96884Y-88242D01*
X-97002Y-88243D01*
X-97057Y-88257D01*
X-97115Y-88262D01*
X-97226Y-88299D01*
X-97340Y-88328D01*
X-97406Y-88359D01*
X-97445Y-88372D01*
X-97484Y-88395D01*
X-97561Y-88431D01*
X-99966Y-89805D01*
X-100056Y-89871D01*
X-100151Y-89929D01*
X-100196Y-89974D01*
X-100247Y-90011D01*
X-100320Y-90096D01*
X-100399Y-90174D01*
X-100433Y-90228D01*
X-100474Y-90276D01*
X-100525Y-90375D01*
X-100585Y-90469D01*
X-100605Y-90529D01*
X-100635Y-90585D01*
X-100662Y-90693D01*
X-100698Y-90799D01*
X-100705Y-90862D01*
X-100721Y-90923D01*
X-100723Y-91034D01*
X-100734Y-91145D01*
X-100726Y-91208D01*
X-100728Y-91271D01*
X-100704Y-91381D01*
X-100690Y-91491D01*
X-100664Y-91569D01*
X-100655Y-91612D01*
X-100637Y-91650D01*
X-100613Y-91723D01*
X-97829Y-98277D01*
X-97804Y-98320D01*
X-97787Y-98368D01*
X-97659Y-98576D01*
X-94878Y-102404D01*
X-94855Y-102430D01*
X-94836Y-102459D01*
X-94669Y-102637D01*
X-94161Y-103098D01*
X-94135Y-103116D01*
X-93984Y-103235D01*
X-86510Y-108229D01*
X-86486Y-108242D01*
X-86465Y-108259D01*
X-86247Y-108370D01*
X-77942Y-111810D01*
X-77916Y-111817D01*
X-77892Y-111830D01*
X-77656Y-111897D01*
X-68840Y-113650D01*
X-68809Y-113653D01*
X-68618Y-113678D01*
X-64123Y-113898D01*
X-64095Y-113897D01*
X-64048Y-113900D01*
X5532Y-113900D01*
X5534Y-113900D01*
X5536Y-113900D01*
X5712Y-113880D01*
X5878Y-113860D01*
X5880Y-113860D01*
X5882Y-113859D01*
X6115Y-113784D01*
X6620Y-113575D01*
X9636Y-113575D01*
X12423Y-114730D01*
X14556Y-116863D01*
X15711Y-119650D01*
X15711Y-122666D01*
X14556Y-125453D01*
X12423Y-127586D01*
X9636Y-128741D01*
X6620Y-128741D01*
G37*
%LPD*%
G36*
X-6961Y-11711D02*
X-6961Y-11711D01*
X-6915Y-11713D01*
X-6788Y-11691D01*
X-6660Y-11676D01*
X-6617Y-11661D01*
X-6572Y-11653D01*
X-6453Y-11602D01*
X-6332Y-11559D01*
X-6293Y-11534D01*
X-6251Y-11516D01*
X-6147Y-11440D01*
X-6039Y-11370D01*
X-6007Y-11337D01*
X-5970Y-11310D01*
X-5886Y-11212D01*
X-5797Y-11119D01*
X-5773Y-11080D01*
X-5744Y-11045D01*
X-5684Y-10931D01*
X-5618Y-10820D01*
X-5604Y-10777D01*
X-5583Y-10736D01*
X-5551Y-10611D01*
X-5511Y-10488D01*
X-5508Y-10443D01*
X-5497Y-10399D01*
X-5494Y-10269D01*
X-5483Y-10141D01*
X-5490Y-10096D01*
X-5489Y-10050D01*
X-5516Y-9924D01*
X-5535Y-9796D01*
X-5552Y-9754D01*
X-5561Y-9709D01*
X-5616Y-9592D01*
X-5664Y-9472D01*
X-5690Y-9435D01*
X-5709Y-9393D01*
X-5789Y-9292D01*
X-5863Y-9186D01*
X-5897Y-9156D01*
X-5925Y-9120D01*
X-6110Y-8960D01*
X-7024Y-8297D01*
X-8212Y-7109D01*
X-9199Y-5751D01*
X-9961Y-4254D01*
X-10480Y-2658D01*
X-1050Y-2658D01*
X-1024Y-2655D01*
X-998Y-2657D01*
X-851Y-2635D01*
X-704Y-2618D01*
X-679Y-2610D01*
X-653Y-2606D01*
X-516Y-2551D01*
X-376Y-2501D01*
X-354Y-2487D01*
X-329Y-2477D01*
X-208Y-2392D01*
X-83Y-2312D01*
X-71Y-2299D01*
X-24Y-2344D01*
X-1Y-2358D01*
X18Y-2375D01*
X148Y-2447D01*
X275Y-2523D01*
X300Y-2531D01*
X323Y-2544D01*
X466Y-2584D01*
X607Y-2629D01*
X633Y-2631D01*
X658Y-2639D01*
X902Y-2658D01*
X10367Y-2658D01*
X10368Y-2666D01*
X10366Y-2695D01*
X10393Y-2838D01*
X10415Y-2982D01*
X10426Y-3009D01*
X10431Y-3037D01*
X10490Y-3171D01*
X10544Y-3306D01*
X10560Y-3330D01*
X10572Y-3356D01*
X10660Y-3473D01*
X10743Y-3592D01*
X10764Y-3611D01*
X10782Y-3635D01*
X10894Y-3728D01*
X11001Y-3825D01*
X11027Y-3839D01*
X11049Y-3858D01*
X11179Y-3923D01*
X11307Y-3994D01*
X11334Y-4002D01*
X11360Y-4015D01*
X11502Y-4049D01*
X11642Y-4089D01*
X11677Y-4091D01*
X11699Y-4097D01*
X11748Y-4097D01*
X11886Y-4108D01*
X14482Y-4108D01*
X14508Y-4105D01*
X14534Y-4107D01*
X14681Y-4085D01*
X14828Y-4068D01*
X14853Y-4060D01*
X14879Y-4056D01*
X15017Y-4001D01*
X15156Y-3951D01*
X15178Y-3937D01*
X15203Y-3927D01*
X15324Y-3842D01*
X15449Y-3762D01*
X15467Y-3743D01*
X15489Y-3728D01*
X15588Y-3618D01*
X15691Y-3511D01*
X15705Y-3489D01*
X15722Y-3469D01*
X15794Y-3339D01*
X15870Y-3212D01*
X15878Y-3187D01*
X15891Y-3164D01*
X15931Y-3021D01*
X15976Y-2880D01*
X15978Y-2854D01*
X15986Y-2829D01*
X16005Y-2585D01*
X16005Y2267D01*
X16003Y2287D01*
X16004Y2303D01*
X16004Y2309D01*
X16004Y2319D01*
X15982Y2466D01*
X15965Y2613D01*
X15957Y2638D01*
X15953Y2664D01*
X15898Y2802D01*
X15848Y2941D01*
X15834Y2963D01*
X15824Y2988D01*
X15739Y3109D01*
X15659Y3234D01*
X15640Y3252D01*
X15625Y3274D01*
X15515Y3373D01*
X15408Y3476D01*
X15386Y3490D01*
X15366Y3507D01*
X15236Y3579D01*
X15109Y3655D01*
X15084Y3663D01*
X15061Y3676D01*
X14918Y3716D01*
X14777Y3761D01*
X14751Y3763D01*
X14726Y3771D01*
X14482Y3790D01*
X11886Y3790D01*
X11741Y3774D01*
X11596Y3762D01*
X11568Y3754D01*
X11539Y3750D01*
X11403Y3701D01*
X11264Y3657D01*
X11239Y3643D01*
X11211Y3633D01*
X11089Y3554D01*
X10964Y3480D01*
X10943Y3460D01*
X10919Y3444D01*
X10817Y3339D01*
X10712Y3238D01*
X10697Y3214D01*
X10676Y3193D01*
X10602Y3068D01*
X10522Y2946D01*
X10512Y2919D01*
X10498Y2894D01*
X10453Y2755D01*
X10404Y2619D01*
X10400Y2590D01*
X10391Y2562D01*
X10380Y2417D01*
X10371Y2340D01*
X2425Y2340D01*
X2425Y10247D01*
X4021Y9728D01*
X5570Y8939D01*
X5604Y8926D01*
X5635Y8908D01*
X5767Y8866D01*
X5897Y8817D01*
X5933Y8813D01*
X5967Y8802D01*
X6105Y8791D01*
X6243Y8773D01*
X6278Y8777D01*
X6314Y8774D01*
X6451Y8794D01*
X6589Y8808D01*
X6623Y8820D01*
X6659Y8825D01*
X6788Y8877D01*
X6919Y8922D01*
X6949Y8941D01*
X6983Y8954D01*
X7097Y9033D01*
X7214Y9107D01*
X7240Y9133D01*
X7269Y9153D01*
X7362Y9256D01*
X7459Y9355D01*
X7478Y9385D01*
X7502Y9412D01*
X7569Y9533D01*
X7642Y9651D01*
X7654Y9685D01*
X7671Y9717D01*
X7709Y9850D01*
X7753Y9982D01*
X7756Y10018D01*
X7766Y10052D01*
X7785Y10296D01*
X7785Y12690D01*
X8987Y13892D01*
X9464Y13892D01*
X9540Y13900D01*
X9617Y13899D01*
X9713Y13920D01*
X9811Y13932D01*
X9882Y13957D01*
X9957Y13974D01*
X10046Y14016D01*
X10139Y14049D01*
X10203Y14091D01*
X10272Y14123D01*
X10349Y14185D01*
X10432Y14238D01*
X10485Y14293D01*
X10544Y14341D01*
X10605Y14418D01*
X10674Y14489D01*
X10713Y14554D01*
X10760Y14614D01*
X10828Y14747D01*
X10853Y14788D01*
X10858Y14806D01*
X10872Y14832D01*
X11207Y15642D01*
X13030Y17465D01*
X13093Y17543D01*
X13162Y17616D01*
X13201Y17680D01*
X13247Y17738D01*
X13290Y17829D01*
X13341Y17915D01*
X13364Y17986D01*
X13396Y18053D01*
X13417Y18151D01*
X13448Y18247D01*
X13454Y18321D01*
X13469Y18394D01*
X13467Y18494D01*
X13476Y18594D01*
X13464Y18668D01*
X13463Y18742D01*
X13439Y18839D01*
X13424Y18939D01*
X13396Y19008D01*
X13378Y19080D01*
X13332Y19170D01*
X13295Y19263D01*
X13253Y19324D01*
X13219Y19390D01*
X13153Y19467D01*
X13096Y19549D01*
X13041Y19599D01*
X12993Y19655D01*
X12912Y19715D01*
X12837Y19782D01*
X12772Y19818D01*
X12712Y19863D01*
X12620Y19902D01*
X12532Y19951D01*
X12461Y19971D01*
X12392Y20001D01*
X12294Y20018D01*
X12197Y20046D01*
X12097Y20054D01*
X12049Y20062D01*
X12014Y20060D01*
X11953Y20065D01*
X9109Y20065D01*
X8356Y20818D01*
X8316Y20849D01*
X8282Y20887D01*
X8180Y20957D01*
X8083Y21034D01*
X8037Y21056D01*
X7995Y21085D01*
X7880Y21130D01*
X7768Y21183D01*
X7718Y21194D01*
X7671Y21213D01*
X7548Y21230D01*
X7427Y21256D01*
X7377Y21256D01*
X7326Y21263D01*
X7202Y21253D01*
X7079Y21251D01*
X7030Y21238D01*
X6979Y21234D01*
X6861Y21196D01*
X6741Y21166D01*
X6696Y21142D01*
X6647Y21126D01*
X6541Y21063D01*
X6431Y21006D01*
X6392Y20973D01*
X6349Y20946D01*
X6260Y20860D01*
X6166Y20780D01*
X6135Y20739D01*
X6099Y20703D01*
X6011Y20575D01*
X5518Y20083D01*
X4939Y19748D01*
X4293Y19575D01*
X505Y19575D01*
X505Y28092D01*
X502Y28118D01*
X504Y28144D01*
X482Y28291D01*
X465Y28438D01*
X457Y28463D01*
X453Y28489D01*
X398Y28627D01*
X348Y28766D01*
X334Y28788D01*
X324Y28813D01*
X239Y28934D01*
X159Y29059D01*
X140Y29077D01*
X125Y29099D01*
X15Y29198D01*
X-92Y29301D01*
X-114Y29315D01*
X-134Y29332D01*
X-264Y29404D01*
X-391Y29480D01*
X-416Y29488D01*
X-439Y29501D01*
X-582Y29541D01*
X-723Y29586D01*
X-749Y29588D01*
X-774Y29596D01*
X-1018Y29615D01*
X-2543Y29615D01*
X-2543Y29617D01*
X-1018Y29617D01*
X-992Y29620D01*
X-966Y29618D01*
X-819Y29640D01*
X-672Y29657D01*
X-647Y29666D01*
X-621Y29669D01*
X-483Y29724D01*
X-344Y29774D01*
X-322Y29788D01*
X-297Y29798D01*
X-176Y29883D01*
X-51Y29963D01*
X-33Y29982D01*
X-11Y29997D01*
X88Y30107D01*
X191Y30214D01*
X205Y30236D01*
X222Y30256D01*
X294Y30386D01*
X370Y30513D01*
X378Y30538D01*
X391Y30561D01*
X431Y30704D01*
X476Y30845D01*
X478Y30871D01*
X486Y30896D01*
X505Y31140D01*
X505Y39657D01*
X4293Y39657D01*
X4939Y39484D01*
X5518Y39149D01*
X6003Y38664D01*
X6014Y38644D01*
X6094Y38549D01*
X6168Y38450D01*
X6207Y38417D01*
X6240Y38378D01*
X6339Y38305D01*
X6433Y38225D01*
X6479Y38201D01*
X6520Y38171D01*
X6633Y38122D01*
X6744Y38066D01*
X6793Y38053D01*
X6840Y38033D01*
X6962Y38011D01*
X7082Y37981D01*
X7133Y37980D01*
X7183Y37971D01*
X7307Y37978D01*
X7430Y37976D01*
X7480Y37987D01*
X7531Y37989D01*
X7650Y38023D01*
X7771Y38050D01*
X7817Y38072D01*
X7866Y38086D01*
X7974Y38146D01*
X8086Y38199D01*
X8125Y38231D01*
X8170Y38256D01*
X8356Y38414D01*
X9109Y39167D01*
X11871Y39167D01*
X11897Y39170D01*
X11923Y39168D01*
X12070Y39190D01*
X12217Y39207D01*
X12242Y39215D01*
X12268Y39219D01*
X12406Y39274D01*
X12545Y39324D01*
X12567Y39338D01*
X12592Y39348D01*
X12713Y39433D01*
X12838Y39513D01*
X12856Y39532D01*
X12878Y39547D01*
X12977Y39657D01*
X13080Y39764D01*
X13094Y39786D01*
X13111Y39806D01*
X13183Y39935D01*
X13259Y40063D01*
X13267Y40088D01*
X13280Y40111D01*
X13320Y40254D01*
X13365Y40395D01*
X13367Y40421D01*
X13375Y40446D01*
X13394Y40690D01*
X13394Y49982D01*
X13391Y50008D01*
X13393Y50034D01*
X13371Y50180D01*
X13354Y50328D01*
X13346Y50353D01*
X13342Y50379D01*
X13287Y50517D01*
X13237Y50656D01*
X13223Y50678D01*
X13213Y50703D01*
X13128Y50824D01*
X13048Y50949D01*
X13029Y50967D01*
X13014Y50989D01*
X12904Y51088D01*
X12797Y51191D01*
X12775Y51205D01*
X12755Y51222D01*
X12625Y51294D01*
X12498Y51370D01*
X12473Y51378D01*
X12450Y51391D01*
X12307Y51431D01*
X12166Y51476D01*
X12140Y51478D01*
X12115Y51486D01*
X11871Y51505D01*
X-8189Y51505D01*
X-8237Y51500D01*
X-8338Y51498D01*
X-10553Y51280D01*
X-10652Y51258D01*
X-10754Y51246D01*
X-10847Y51216D01*
X-10893Y51206D01*
X-10926Y51191D01*
X-10986Y51171D01*
X-15078Y49476D01*
X-15080Y49475D01*
X-15082Y49475D01*
X-15230Y49392D01*
X-15383Y49307D01*
X-15384Y49306D01*
X-15386Y49305D01*
X-15572Y49146D01*
X-18704Y46014D01*
X-18705Y46013D01*
X-18707Y46011D01*
X-18819Y45869D01*
X-18921Y45741D01*
X-18922Y45740D01*
X-18923Y45738D01*
X-19030Y45529D01*
X-19034Y45520D01*
X-19949Y43311D01*
X-19950Y43309D01*
X-19951Y43307D01*
X-19997Y43146D01*
X-20045Y42976D01*
X-20045Y42974D01*
X-20046Y42972D01*
X-20065Y42728D01*
X-20065Y-7653D01*
X-20062Y-7679D01*
X-20064Y-7705D01*
X-20042Y-7852D01*
X-20025Y-7999D01*
X-20017Y-8024D01*
X-20013Y-8050D01*
X-19958Y-8187D01*
X-19908Y-8327D01*
X-19894Y-8349D01*
X-19884Y-8374D01*
X-19799Y-8495D01*
X-19719Y-8620D01*
X-19700Y-8638D01*
X-19685Y-8660D01*
X-19575Y-8759D01*
X-19468Y-8862D01*
X-19446Y-8876D01*
X-19426Y-8893D01*
X-19296Y-8965D01*
X-19169Y-9041D01*
X-19144Y-9049D01*
X-19121Y-9062D01*
X-18978Y-9102D01*
X-18837Y-9147D01*
X-18811Y-9149D01*
X-18786Y-9156D01*
X-18542Y-9176D01*
X-17706Y-9176D01*
X-15645Y-10030D01*
X-14405Y-11270D01*
X-14306Y-11348D01*
X-14212Y-11433D01*
X-14170Y-11457D01*
X-14132Y-11487D01*
X-14018Y-11541D01*
X-13907Y-11602D01*
X-13861Y-11615D01*
X-13817Y-11635D01*
X-13694Y-11662D01*
X-13572Y-11696D01*
X-13511Y-11701D01*
X-13476Y-11709D01*
X-13428Y-11708D01*
X-13328Y-11716D01*
X-7006Y-11716D01*
X-6961Y-11711D01*
G37*
%LPC*%
G36*
X-114147Y60620D02*
X-114147Y60620D01*
X-114153Y60624D01*
X-114158Y60628D01*
X-114304Y60709D01*
X-114450Y60792D01*
X-114457Y60794D01*
X-114463Y60797D01*
X-114624Y60842D01*
X-114785Y60889D01*
X-114792Y60890D01*
X-114798Y60892D01*
X-115042Y60911D01*
X-122103Y60911D01*
X-122228Y60897D01*
X-122355Y60890D01*
X-122401Y60877D01*
X-122449Y60871D01*
X-122568Y60829D01*
X-122689Y60794D01*
X-122732Y60770D01*
X-122777Y60754D01*
X-122884Y60685D01*
X-122994Y60624D01*
X-123040Y60584D01*
X-123070Y60565D01*
X-123104Y60530D01*
X-123180Y60465D01*
X-123331Y60315D01*
X-123331Y60314D01*
X-124088Y59557D01*
X-125319Y59048D01*
X-125319Y59047D01*
X-126438Y58584D01*
X-126544Y58525D01*
X-126654Y58474D01*
X-126696Y58441D01*
X-126742Y58415D01*
X-126832Y58333D01*
X-126928Y58258D01*
X-126972Y58207D01*
X-127001Y58181D01*
X-127027Y58143D01*
X-127087Y58072D01*
X-130103Y53921D01*
X-131781Y53656D01*
X-140436Y59944D01*
X-140702Y61622D01*
X-130887Y75132D01*
X-129209Y75398D01*
X-125804Y72924D01*
X-125798Y72920D01*
X-125793Y72916D01*
X-125646Y72835D01*
X-125500Y72752D01*
X-125494Y72750D01*
X-125488Y72747D01*
X-125327Y72702D01*
X-125166Y72655D01*
X-125159Y72654D01*
X-125152Y72652D01*
X-124908Y72633D01*
X-114896Y72633D01*
X-114816Y72642D01*
X-114735Y72641D01*
X-114643Y72662D01*
X-114550Y72673D01*
X-114474Y72700D01*
X-114395Y72717D01*
X-114311Y72758D01*
X-114222Y72790D01*
X-114154Y72834D01*
X-114081Y72869D01*
X-114008Y72928D01*
X-113929Y72979D01*
X-113873Y73037D01*
X-113810Y73088D01*
X-113752Y73162D01*
X-113687Y73230D01*
X-113645Y73299D01*
X-113596Y73363D01*
X-113556Y73448D01*
X-113508Y73529D01*
X-113483Y73606D01*
X-113449Y73679D01*
X-113430Y73771D01*
X-113402Y73861D01*
X-113395Y73941D01*
X-113379Y74020D01*
X-113378Y74159D01*
X-113374Y74208D01*
X-113377Y74230D01*
X-113377Y74265D01*
X-113665Y78285D01*
X-113678Y78356D01*
X-113682Y78428D01*
X-113710Y78527D01*
X-113729Y78628D01*
X-113759Y78694D01*
X-113779Y78763D01*
X-113829Y78853D01*
X-113870Y78947D01*
X-113913Y79004D01*
X-113949Y79067D01*
X-114053Y79190D01*
X-114080Y79225D01*
X-114092Y79235D01*
X-114107Y79254D01*
X-114632Y79779D01*
X-115787Y82566D01*
X-115787Y85582D01*
X-114632Y88369D01*
X-112499Y90502D01*
X-109712Y91657D01*
X-106696Y91657D01*
X-104688Y90825D01*
X-104524Y90778D01*
X-104362Y90731D01*
X-104358Y90731D01*
X-104353Y90729D01*
X-104185Y90721D01*
X-104118Y90718D01*
X-104081Y90674D01*
X-101776Y88369D01*
X-100914Y86288D01*
X-100867Y86204D01*
X-100830Y86117D01*
X-100783Y86053D01*
X-100744Y85983D01*
X-100680Y85913D01*
X-100623Y85836D01*
X-100563Y85784D01*
X-100510Y85725D01*
X-100431Y85671D01*
X-100359Y85609D01*
X-100289Y85572D01*
X-100223Y85527D01*
X-100135Y85492D01*
X-100050Y85448D01*
X-99973Y85428D01*
X-99899Y85399D01*
X-99805Y85385D01*
X-99712Y85362D01*
X-99633Y85360D01*
X-99554Y85348D01*
X-99459Y85356D01*
X-99364Y85354D01*
X-99286Y85371D01*
X-99207Y85377D01*
X-99116Y85407D01*
X-99023Y85427D01*
X-98951Y85460D01*
X-98875Y85484D01*
X-98794Y85534D01*
X-98707Y85574D01*
X-98645Y85623D01*
X-98577Y85664D01*
X-98508Y85731D01*
X-98433Y85790D01*
X-98362Y85873D01*
X-98327Y85907D01*
X-98309Y85934D01*
X-98274Y85976D01*
X-95604Y89651D01*
X-95084Y90072D01*
X-94473Y90344D01*
X-93812Y90448D01*
X-93147Y90378D01*
X-92522Y90139D01*
X-88649Y87325D01*
X-93067Y81244D01*
X-93080Y81221D01*
X-93097Y81201D01*
X-93166Y81070D01*
X-93239Y80940D01*
X-93246Y80915D01*
X-93258Y80892D01*
X-93295Y80749D01*
X-93336Y80606D01*
X-93338Y80579D01*
X-93344Y80554D01*
X-93347Y80406D01*
X-93356Y80258D01*
X-93351Y80232D01*
X-93352Y80206D01*
X-93321Y80061D01*
X-93295Y79914D01*
X-93285Y79890D01*
X-93279Y79865D01*
X-93216Y79730D01*
X-93158Y79594D01*
X-93143Y79573D01*
X-93132Y79549D01*
X-93040Y79432D01*
X-92952Y79313D01*
X-92932Y79296D01*
X-92916Y79275D01*
X-92730Y79116D01*
X-91497Y78220D01*
X-92393Y76986D01*
X-92406Y76963D01*
X-92423Y76944D01*
X-92491Y76812D01*
X-92564Y76683D01*
X-92572Y76657D01*
X-92584Y76634D01*
X-92620Y76491D01*
X-92662Y76348D01*
X-92664Y76322D01*
X-92670Y76297D01*
X-92673Y76149D01*
X-92681Y76000D01*
X-92677Y75974D01*
X-92677Y75948D01*
X-92647Y75803D01*
X-92621Y75657D01*
X-92611Y75633D01*
X-92605Y75607D01*
X-92542Y75473D01*
X-92484Y75336D01*
X-92469Y75315D01*
X-92457Y75292D01*
X-92366Y75175D01*
X-92278Y75055D01*
X-92258Y75038D01*
X-92242Y75018D01*
X-92056Y74859D01*
X-85110Y69812D01*
X-85129Y69746D01*
X-85176Y69599D01*
X-85178Y69580D01*
X-85183Y69561D01*
X-85192Y69406D01*
X-85204Y69252D01*
X-85201Y69233D01*
X-85202Y69213D01*
X-85175Y69061D01*
X-85152Y68907D01*
X-85145Y68889D01*
X-85142Y68870D01*
X-85081Y68728D01*
X-85024Y68583D01*
X-85013Y68567D01*
X-85005Y68550D01*
X-84913Y68424D01*
X-84825Y68297D01*
X-84811Y68284D01*
X-84799Y68269D01*
X-84681Y68167D01*
X-84566Y68064D01*
X-84549Y68054D01*
X-84534Y68042D01*
X-84397Y67970D01*
X-84261Y67895D01*
X-84242Y67890D01*
X-84225Y67881D01*
X-84075Y67843D01*
X-83926Y67800D01*
X-83902Y67798D01*
X-83888Y67795D01*
X-83844Y67794D01*
X-83682Y67781D01*
X-82312Y67781D01*
X-79525Y66626D01*
X-77392Y64493D01*
X-76237Y61706D01*
X-76237Y58690D01*
X-77392Y55903D01*
X-79525Y53770D01*
X-82312Y52615D01*
X-85328Y52615D01*
X-88115Y53770D01*
X-89051Y54706D01*
X-89067Y54718D01*
X-89080Y54734D01*
X-89203Y54826D01*
X-89324Y54922D01*
X-89342Y54931D01*
X-89359Y54943D01*
X-89500Y55005D01*
X-89639Y55071D01*
X-89659Y55075D01*
X-89677Y55084D01*
X-89916Y55137D01*
X-94950Y55845D01*
X-94953Y55845D01*
X-94956Y55846D01*
X-95126Y55849D01*
X-95298Y55854D01*
X-95302Y55853D01*
X-95305Y55853D01*
X-95468Y55818D01*
X-95640Y55783D01*
X-95643Y55782D01*
X-95646Y55781D01*
X-95799Y55709D01*
X-95956Y55636D01*
X-95959Y55634D01*
X-95961Y55633D01*
X-96095Y55528D01*
X-96231Y55422D01*
X-96233Y55419D01*
X-96235Y55417D01*
X-96394Y55232D01*
X-99259Y51289D01*
X-100937Y51023D01*
X-114147Y60620D01*
G37*
%LPD*%
%LPC*%
G36*
X13613Y-152086D02*
X13613Y-152086D01*
X12879Y-149828D01*
X12843Y-149749D01*
X12816Y-149666D01*
X12771Y-149591D01*
X12734Y-149511D01*
X12681Y-149442D01*
X12636Y-149368D01*
X12575Y-149305D01*
X12521Y-149236D01*
X12454Y-149181D01*
X12393Y-149118D01*
X12319Y-149071D01*
X12251Y-149016D01*
X12173Y-148977D01*
X12099Y-148930D01*
X12017Y-148901D01*
X11938Y-148863D01*
X11853Y-148843D01*
X11771Y-148814D01*
X11684Y-148804D01*
X11598Y-148785D01*
X11511Y-148785D01*
X11425Y-148776D01*
X11299Y-148786D01*
X11250Y-148787D01*
X11224Y-148793D01*
X11181Y-148796D01*
X6424Y-149587D01*
X-24211Y-150824D01*
X-54762Y-148248D01*
X-84758Y-141901D01*
X-97987Y-137325D01*
X-119658Y-129831D01*
X-119742Y-129812D01*
X-119823Y-129784D01*
X-119911Y-129774D01*
X-119998Y-129755D01*
X-120084Y-129756D01*
X-120169Y-129747D01*
X-120258Y-129758D01*
X-120347Y-129759D01*
X-120430Y-129779D01*
X-120515Y-129790D01*
X-120599Y-129821D01*
X-120685Y-129842D01*
X-120762Y-129881D01*
X-120842Y-129910D01*
X-120951Y-129977D01*
X-120996Y-130000D01*
X-121016Y-130016D01*
X-121051Y-130038D01*
X-127105Y-134436D01*
X-128783Y-134171D01*
X-138598Y-120661D01*
X-138333Y-118983D01*
X-129677Y-112694D01*
X-127999Y-112960D01*
X-121007Y-122584D01*
X-120893Y-122708D01*
X-120783Y-122831D01*
X-120776Y-122835D01*
X-120771Y-122841D01*
X-120633Y-122935D01*
X-120497Y-123030D01*
X-120488Y-123033D01*
X-120483Y-123037D01*
X-120459Y-123046D01*
X-120273Y-123128D01*
X-97240Y-131094D01*
X-97222Y-131098D01*
X-97195Y-131109D01*
X-83035Y-135518D01*
X-82989Y-135527D01*
X-82898Y-135554D01*
X-53892Y-141692D01*
X-53843Y-141696D01*
X-53704Y-141719D01*
X-24161Y-144210D01*
X-24112Y-144208D01*
X-23971Y-144214D01*
X5653Y-143018D01*
X5699Y-143011D01*
X5794Y-143006D01*
X9248Y-142541D01*
X9335Y-142520D01*
X9424Y-142507D01*
X9504Y-142477D01*
X9586Y-142456D01*
X9666Y-142415D01*
X9749Y-142383D01*
X9820Y-142335D01*
X9896Y-142296D01*
X9964Y-142237D01*
X10038Y-142187D01*
X10096Y-142125D01*
X10161Y-142069D01*
X10214Y-141997D01*
X10275Y-141932D01*
X10338Y-141829D01*
X10367Y-141789D01*
X10379Y-141763D01*
X10403Y-141723D01*
X11078Y-140397D01*
X26960Y-135237D01*
X28474Y-136009D01*
X31780Y-146184D01*
X31008Y-147697D01*
X15127Y-152858D01*
X13613Y-152086D01*
G37*
%LPD*%
%LPC*%
G36*
X-103024Y93306D02*
X-103024Y93306D01*
X-103028Y93309D01*
X-103031Y93312D01*
X-103045Y93324D01*
X-103210Y93465D01*
X-111635Y99586D01*
X-111901Y101264D01*
X-102085Y114774D01*
X-100408Y115039D01*
X-95039Y111139D01*
X-95025Y111131D01*
X-95013Y111120D01*
X-94873Y111046D01*
X-94736Y110968D01*
X-94720Y110963D01*
X-94705Y110956D01*
X-94553Y110915D01*
X-94401Y110870D01*
X-94385Y110869D01*
X-94369Y110865D01*
X-94212Y110860D01*
X-94053Y110851D01*
X-94037Y110854D01*
X-94020Y110853D01*
X-93779Y110893D01*
X-83882Y113336D01*
X-83840Y113351D01*
X-83757Y113372D01*
X-56941Y122481D01*
X-56896Y122502D01*
X-56781Y122546D01*
X-31174Y134643D01*
X-31131Y134670D01*
X-31022Y134726D01*
X-6956Y149657D01*
X-6921Y149684D01*
X-6849Y149730D01*
X4507Y158198D01*
X4520Y158209D01*
X4542Y158224D01*
X5291Y158817D01*
X6033Y159404D01*
X20414Y170779D01*
X20449Y170814D01*
X20490Y170843D01*
X20573Y170937D01*
X20661Y171025D01*
X20687Y171067D01*
X20720Y171105D01*
X20779Y171215D01*
X20845Y171320D01*
X20861Y171368D01*
X20885Y171412D01*
X20917Y171532D01*
X20958Y171650D01*
X20963Y171700D01*
X20976Y171749D01*
X20980Y171873D01*
X20992Y171997D01*
X20985Y172047D01*
X20987Y172097D01*
X20963Y172219D01*
X20947Y172343D01*
X20929Y172390D01*
X20919Y172439D01*
X20826Y172665D01*
X20505Y173296D01*
X23811Y183471D01*
X25324Y184243D01*
X41206Y179082D01*
X41977Y177569D01*
X38671Y167393D01*
X37157Y166622D01*
X29348Y169159D01*
X29248Y169180D01*
X29149Y169210D01*
X29077Y169214D01*
X29007Y169229D01*
X28904Y169225D01*
X28802Y169232D01*
X28730Y169220D01*
X28658Y169218D01*
X28559Y169192D01*
X28458Y169175D01*
X28391Y169147D01*
X28321Y169129D01*
X28231Y169081D01*
X28136Y169041D01*
X28056Y168988D01*
X28014Y168965D01*
X27986Y168941D01*
X27933Y168905D01*
X6856Y152235D01*
X6856Y152234D01*
X-3120Y144344D01*
X-27966Y128929D01*
X-54404Y116439D01*
X-82090Y107035D01*
X-92708Y104733D01*
X-92787Y104706D01*
X-92869Y104688D01*
X-92951Y104650D01*
X-93038Y104620D01*
X-93109Y104576D01*
X-93185Y104541D01*
X-93256Y104484D01*
X-93334Y104436D01*
X-93393Y104377D01*
X-93458Y104325D01*
X-93545Y104224D01*
X-93580Y104189D01*
X-93593Y104169D01*
X-93618Y104139D01*
X-101302Y93563D01*
X-103013Y93292D01*
X-103024Y93306D01*
G37*
%LPD*%
%LPC*%
G36*
X171151Y14949D02*
X171151Y14949D01*
X169949Y16151D01*
X169949Y25884D01*
X169933Y26025D01*
X169923Y26167D01*
X169913Y26198D01*
X169909Y26230D01*
X169861Y26364D01*
X169819Y26500D01*
X169803Y26528D01*
X169792Y26558D01*
X169715Y26678D01*
X169643Y26800D01*
X169616Y26830D01*
X169603Y26851D01*
X169567Y26886D01*
X169480Y26983D01*
X72057Y120424D01*
X72021Y120452D01*
X71989Y120486D01*
X71882Y120557D01*
X71780Y120635D01*
X71738Y120654D01*
X71699Y120680D01*
X71474Y120774D01*
X59254Y124744D01*
X59180Y124759D01*
X59108Y124784D01*
X59010Y124794D01*
X58913Y124813D01*
X58837Y124811D01*
X58761Y124819D01*
X58663Y124806D01*
X58564Y124803D01*
X58491Y124783D01*
X58416Y124774D01*
X58323Y124739D01*
X58227Y124714D01*
X58161Y124678D01*
X58089Y124651D01*
X58007Y124597D01*
X57920Y124550D01*
X57862Y124500D01*
X57799Y124458D01*
X57732Y124386D01*
X57657Y124321D01*
X57613Y124259D01*
X57561Y124204D01*
X57511Y124118D01*
X57453Y124038D01*
X57424Y123968D01*
X57386Y123902D01*
X57358Y123808D01*
X57319Y123716D01*
X57307Y123641D01*
X57285Y123569D01*
X57278Y123470D01*
X57262Y123372D01*
X57267Y123297D01*
X57262Y123221D01*
X57281Y123072D01*
X57284Y123025D01*
X57290Y123007D01*
X57293Y122979D01*
X57425Y122359D01*
X57390Y121691D01*
X55911Y117138D01*
X50211Y118990D01*
X52372Y125641D01*
X55000Y124787D01*
X55099Y124767D01*
X55195Y124738D01*
X55269Y124733D01*
X55342Y124718D01*
X55443Y124721D01*
X55543Y124714D01*
X55616Y124726D01*
X55690Y124728D01*
X55787Y124754D01*
X55887Y124770D01*
X55955Y124798D01*
X56027Y124817D01*
X56116Y124865D01*
X56209Y124903D01*
X56269Y124946D01*
X56335Y124981D01*
X56411Y125047D01*
X56492Y125105D01*
X56542Y125161D01*
X56598Y125210D01*
X56656Y125292D01*
X56723Y125367D01*
X56758Y125433D01*
X56801Y125493D01*
X56840Y125586D01*
X56887Y125674D01*
X56907Y125746D01*
X56935Y125815D01*
X56952Y125914D01*
X56978Y126011D01*
X56980Y126085D01*
X56992Y126159D01*
X56986Y126259D01*
X56989Y126359D01*
X56975Y126432D01*
X56970Y126506D01*
X56941Y126603D01*
X56922Y126701D01*
X56902Y126749D01*
X60215Y136945D01*
X61729Y137716D01*
X77610Y132556D01*
X78381Y131042D01*
X76649Y125711D01*
X76643Y125679D01*
X76631Y125649D01*
X76608Y125509D01*
X76580Y125369D01*
X76581Y125336D01*
X76576Y125304D01*
X76586Y125163D01*
X76591Y125021D01*
X76599Y124989D01*
X76601Y124957D01*
X76644Y124821D01*
X76680Y124684D01*
X76695Y124655D01*
X76705Y124624D01*
X76777Y124502D01*
X76843Y124376D01*
X76865Y124351D01*
X76881Y124324D01*
X77044Y124141D01*
X170531Y34475D01*
X170619Y34408D01*
X170701Y34334D01*
X170757Y34303D01*
X170808Y34264D01*
X170909Y34219D01*
X171006Y34165D01*
X171068Y34148D01*
X171126Y34121D01*
X171235Y34100D01*
X171341Y34070D01*
X171425Y34064D01*
X171468Y34055D01*
X171510Y34057D01*
X171585Y34051D01*
X181849Y34051D01*
X183051Y32849D01*
X183051Y16151D01*
X181849Y14949D01*
X171151Y14949D01*
G37*
%LPD*%
G36*
X63220Y58669D02*
X63220Y58669D01*
X63346Y58676D01*
X63392Y58689D01*
X63440Y58695D01*
X63559Y58737D01*
X63681Y58772D01*
X63723Y58796D01*
X63768Y58812D01*
X63875Y58881D01*
X63985Y58942D01*
X64031Y58982D01*
X64061Y59001D01*
X64095Y59036D01*
X64171Y59101D01*
X69073Y64003D01*
X69090Y64023D01*
X69110Y64040D01*
X69198Y64160D01*
X69290Y64276D01*
X69301Y64300D01*
X69317Y64321D01*
X69375Y64457D01*
X69439Y64591D01*
X69444Y64617D01*
X69455Y64641D01*
X69481Y64787D01*
X69512Y64932D01*
X69512Y64958D01*
X69516Y64984D01*
X69509Y65132D01*
X69506Y65280D01*
X69500Y65306D01*
X69498Y65332D01*
X69458Y65473D01*
X69421Y65618D01*
X69409Y65642D01*
X69402Y65667D01*
X69330Y65796D01*
X69262Y65928D01*
X69245Y65948D01*
X69232Y65971D01*
X69073Y66157D01*
X65362Y69868D01*
X65301Y69917D01*
X65247Y69972D01*
X65165Y70025D01*
X65089Y70085D01*
X65019Y70118D01*
X64953Y70160D01*
X64818Y70213D01*
X64774Y70234D01*
X64754Y70238D01*
X64725Y70249D01*
X60603Y71493D01*
X53821Y75383D01*
X53260Y75904D01*
X53161Y75977D01*
X53067Y76057D01*
X53021Y76080D01*
X52979Y76111D01*
X52866Y76159D01*
X52756Y76215D01*
X52706Y76228D01*
X52659Y76248D01*
X52537Y76269D01*
X52418Y76299D01*
X52353Y76302D01*
X52315Y76309D01*
X52268Y76306D01*
X52174Y76311D01*
X-978Y74579D01*
X-1134Y74556D01*
X-1292Y74536D01*
X-1307Y74530D01*
X-1323Y74528D01*
X-1470Y74470D01*
X-1619Y74414D01*
X-1632Y74406D01*
X-1647Y74400D01*
X-1778Y74309D01*
X-1909Y74222D01*
X-1920Y74210D01*
X-1933Y74201D01*
X-2040Y74084D01*
X-2149Y73968D01*
X-2157Y73955D01*
X-2167Y73943D01*
X-2244Y73804D01*
X-2324Y73667D01*
X-2328Y73652D01*
X-2336Y73638D01*
X-2380Y73485D01*
X-2426Y73334D01*
X-2427Y73318D01*
X-2431Y73303D01*
X-2439Y73145D01*
X-2450Y72986D01*
X-2447Y72971D01*
X-2448Y72955D01*
X-2420Y72800D01*
X-2394Y72642D01*
X-2387Y72625D01*
X-2385Y72612D01*
X-2369Y72576D01*
X-2309Y72413D01*
X1307Y64658D01*
X726Y63062D01*
X-2497Y61559D01*
X-2512Y61550D01*
X-2528Y61544D01*
X-2660Y61459D01*
X-2794Y61376D01*
X-2806Y61364D01*
X-2821Y61355D01*
X-2930Y61241D01*
X-3042Y61131D01*
X-3051Y61117D01*
X-3063Y61104D01*
X-3144Y60969D01*
X-3227Y60836D01*
X-3233Y60820D01*
X-3242Y60805D01*
X-3290Y60656D01*
X-3341Y60506D01*
X-3343Y60489D01*
X-3348Y60473D01*
X-3361Y60316D01*
X-3377Y60160D01*
X-3375Y60143D01*
X-3376Y60126D01*
X-3353Y59970D01*
X-3333Y59814D01*
X-3327Y59798D01*
X-3324Y59781D01*
X-3266Y59635D01*
X-3211Y59487D01*
X-3202Y59473D01*
X-3196Y59457D01*
X-3106Y59328D01*
X-3019Y59197D01*
X-3006Y59185D01*
X-2997Y59171D01*
X-2880Y59066D01*
X-2765Y58958D01*
X-2750Y58949D01*
X-2738Y58938D01*
X-2600Y58861D01*
X-2464Y58782D01*
X-2448Y58777D01*
X-2433Y58769D01*
X-2281Y58726D01*
X-2131Y58680D01*
X-2114Y58679D01*
X-2097Y58674D01*
X-1854Y58655D01*
X63094Y58655D01*
X63220Y58669D01*
G37*
%LPC*%
G36*
X36768Y109596D02*
X36768Y109596D01*
X36207Y109960D01*
X35760Y110457D01*
X35448Y111069D01*
X35444Y111091D01*
X35397Y111206D01*
X35358Y111323D01*
X35331Y111366D01*
X35312Y111414D01*
X35240Y111514D01*
X35175Y111619D01*
X35139Y111656D01*
X35109Y111697D01*
X35016Y111779D01*
X34929Y111867D01*
X34886Y111894D01*
X34847Y111927D01*
X34738Y111986D01*
X34634Y112051D01*
X34585Y112068D01*
X34540Y112092D01*
X34421Y112124D01*
X34304Y112164D01*
X34253Y112169D01*
X34204Y112183D01*
X34080Y112187D01*
X33957Y112199D01*
X33906Y112193D01*
X33855Y112194D01*
X33734Y112170D01*
X33612Y112154D01*
X33564Y112136D01*
X33513Y112126D01*
X33287Y112033D01*
X33285Y112032D01*
X32339Y111550D01*
X18360Y116092D01*
X17589Y117606D01*
X20446Y126401D01*
X20453Y126434D01*
X20465Y126465D01*
X20487Y126604D01*
X20515Y126742D01*
X20514Y126776D01*
X20519Y126809D01*
X20509Y126950D01*
X20505Y127091D01*
X20496Y127123D01*
X20494Y127157D01*
X20429Y127393D01*
X19478Y130003D01*
X19412Y130135D01*
X19350Y130270D01*
X19331Y130296D01*
X19322Y130314D01*
X19312Y130326D01*
X19279Y130400D01*
X19232Y130521D01*
X19202Y130569D01*
X19188Y130599D01*
X19158Y130638D01*
X19146Y130657D01*
X18943Y131450D01*
X18926Y131495D01*
X18898Y131593D01*
X18604Y132401D01*
X18601Y132480D01*
X18594Y132511D01*
X18593Y132531D01*
X18578Y132577D01*
X18545Y132718D01*
X16888Y137848D01*
X16857Y137914D01*
X16836Y137984D01*
X16785Y138072D01*
X16743Y138165D01*
X16699Y138222D01*
X16662Y138286D01*
X16593Y138360D01*
X16530Y138441D01*
X16474Y138487D01*
X16424Y138540D01*
X16339Y138597D01*
X16261Y138661D01*
X16195Y138693D01*
X16135Y138734D01*
X15988Y138795D01*
X15948Y138815D01*
X15932Y138818D01*
X15909Y138828D01*
X11078Y140397D01*
X10307Y141911D01*
X13613Y152086D01*
X15127Y152858D01*
X31008Y147697D01*
X31780Y146184D01*
X30855Y143338D01*
X30834Y143233D01*
X30803Y143131D01*
X30799Y143063D01*
X30786Y142996D01*
X30789Y142889D01*
X30783Y142783D01*
X30794Y142716D01*
X30796Y142648D01*
X30824Y142545D01*
X30842Y142439D01*
X30868Y142377D01*
X30886Y142311D01*
X30936Y142217D01*
X30977Y142118D01*
X31017Y142063D01*
X31049Y142003D01*
X31120Y141923D01*
X31182Y141836D01*
X31234Y141792D01*
X31278Y141741D01*
X31365Y141678D01*
X31446Y141608D01*
X31506Y141577D01*
X31561Y141537D01*
X31660Y141496D01*
X31755Y141446D01*
X31820Y141429D01*
X31883Y141403D01*
X31988Y141386D01*
X32092Y141359D01*
X32160Y141357D01*
X32227Y141346D01*
X32333Y141353D01*
X32440Y141350D01*
X32529Y141365D01*
X32574Y141368D01*
X32612Y141380D01*
X32681Y141391D01*
X40050Y143277D01*
X40154Y143316D01*
X40260Y143347D01*
X40316Y143378D01*
X40376Y143401D01*
X40467Y143463D01*
X40564Y143517D01*
X40628Y143572D01*
X40665Y143597D01*
X40693Y143627D01*
X40750Y143676D01*
X42441Y145366D01*
X45228Y146521D01*
X48244Y146521D01*
X51031Y145366D01*
X53164Y143233D01*
X54319Y140446D01*
X54319Y137430D01*
X53164Y134643D01*
X51031Y132510D01*
X48244Y131355D01*
X45228Y131355D01*
X43984Y131870D01*
X43967Y131875D01*
X43951Y131884D01*
X43799Y131923D01*
X43649Y131966D01*
X43631Y131967D01*
X43613Y131971D01*
X43457Y131975D01*
X43301Y131983D01*
X43283Y131980D01*
X43265Y131980D01*
X43024Y131939D01*
X42163Y131718D01*
X42052Y131676D01*
X41938Y131642D01*
X41890Y131614D01*
X41837Y131594D01*
X41739Y131527D01*
X41636Y131468D01*
X41595Y131430D01*
X41548Y131399D01*
X41468Y131312D01*
X41381Y131231D01*
X41350Y131184D01*
X41312Y131143D01*
X41253Y131040D01*
X41187Y130942D01*
X41167Y130889D01*
X41139Y130840D01*
X41105Y130726D01*
X41063Y130616D01*
X41056Y130560D01*
X41040Y130506D01*
X41033Y130387D01*
X41017Y130270D01*
X41023Y130214D01*
X41019Y130158D01*
X41040Y130041D01*
X41051Y129923D01*
X41069Y129870D01*
X41078Y129815D01*
X41125Y129705D01*
X41163Y129593D01*
X41192Y129545D01*
X41214Y129494D01*
X41284Y129398D01*
X41346Y129297D01*
X41386Y129257D01*
X41419Y129212D01*
X41509Y129134D01*
X41592Y129050D01*
X41640Y129021D01*
X41683Y128984D01*
X41788Y128929D01*
X41888Y128866D01*
X41941Y128848D01*
X41991Y128822D01*
X42106Y128792D01*
X42218Y128754D01*
X42290Y128744D01*
X42328Y128734D01*
X42374Y128733D01*
X42461Y128721D01*
X42974Y128695D01*
X46576Y127524D01*
X43944Y119424D01*
X43939Y119399D01*
X43929Y119375D01*
X43904Y119228D01*
X43875Y119083D01*
X43876Y119057D01*
X43871Y119031D01*
X43881Y118882D01*
X43885Y118734D01*
X43892Y118709D01*
X43894Y118683D01*
X43937Y118541D01*
X43975Y118398D01*
X43987Y118374D01*
X43994Y118349D01*
X44068Y118221D01*
X44138Y118090D01*
X44155Y118070D01*
X44168Y118047D01*
X44269Y117939D01*
X44367Y117827D01*
X44389Y117812D01*
X44406Y117793D01*
X44529Y117711D01*
X44650Y117624D01*
X44674Y117614D01*
X44696Y117599D01*
X44922Y117505D01*
X46372Y117034D01*
X46372Y117032D01*
X44921Y117503D01*
X44896Y117509D01*
X44872Y117519D01*
X44725Y117543D01*
X44580Y117573D01*
X44554Y117572D01*
X44528Y117576D01*
X44380Y117567D01*
X44232Y117562D01*
X44206Y117555D01*
X44180Y117554D01*
X44038Y117511D01*
X43895Y117473D01*
X43872Y117461D01*
X43846Y117453D01*
X43717Y117379D01*
X43587Y117309D01*
X43567Y117292D01*
X43544Y117279D01*
X43436Y117178D01*
X43324Y117080D01*
X43309Y117059D01*
X43290Y117041D01*
X43207Y116918D01*
X43121Y116797D01*
X43111Y116773D01*
X43096Y116751D01*
X43002Y116525D01*
X40370Y108426D01*
X36768Y109596D01*
G37*
%LPD*%
%LPC*%
G36*
X119999Y-9501D02*
X119999Y-9501D01*
X119999Y-7976D01*
X119996Y-7950D01*
X119998Y-7924D01*
X119976Y-7777D01*
X119959Y-7630D01*
X119950Y-7605D01*
X119947Y-7579D01*
X119892Y-7441D01*
X119842Y-7302D01*
X119828Y-7280D01*
X119818Y-7255D01*
X119733Y-7134D01*
X119653Y-7009D01*
X119634Y-6991D01*
X119619Y-6969D01*
X119509Y-6870D01*
X119402Y-6767D01*
X119380Y-6753D01*
X119360Y-6736D01*
X119230Y-6664D01*
X119103Y-6588D01*
X119078Y-6580D01*
X119055Y-6567D01*
X118912Y-6527D01*
X118771Y-6482D01*
X118745Y-6480D01*
X118720Y-6472D01*
X118476Y-6453D01*
X109959Y-6453D01*
X109959Y-2665D01*
X110132Y-2019D01*
X110467Y-1440D01*
X110952Y-955D01*
X110972Y-944D01*
X111067Y-864D01*
X111166Y-790D01*
X111199Y-751D01*
X111238Y-718D01*
X111311Y-619D01*
X111391Y-525D01*
X111415Y-479D01*
X111445Y-438D01*
X111494Y-325D01*
X111550Y-215D01*
X111563Y-165D01*
X111583Y-118D01*
X111605Y4D01*
X111635Y124D01*
X111636Y175D01*
X111645Y225D01*
X111638Y348D01*
X111640Y472D01*
X111629Y522D01*
X111627Y573D01*
X111593Y692D01*
X111566Y813D01*
X111544Y859D01*
X111530Y908D01*
X111470Y1016D01*
X111417Y1128D01*
X111385Y1167D01*
X111360Y1212D01*
X111202Y1398D01*
X110449Y2151D01*
X110449Y16849D01*
X111651Y18051D01*
X121903Y18051D01*
X122046Y18067D01*
X122190Y18078D01*
X122219Y18087D01*
X122249Y18091D01*
X122385Y18139D01*
X122523Y18183D01*
X122555Y18200D01*
X122577Y18208D01*
X122619Y18235D01*
X122737Y18300D01*
X128765Y22249D01*
X128884Y22348D01*
X129000Y22439D01*
X129827Y22950D01*
X129857Y22973D01*
X129913Y23007D01*
X130701Y23571D01*
X130790Y23599D01*
X130821Y23616D01*
X130843Y23623D01*
X130884Y23650D01*
X130917Y23668D01*
X130985Y23687D01*
X131005Y23698D01*
X131019Y23702D01*
X131055Y23723D01*
X131084Y23734D01*
X131118Y23756D01*
X131202Y23799D01*
X136226Y26898D01*
X136327Y26978D01*
X136433Y27052D01*
X136464Y27086D01*
X136500Y27114D01*
X136580Y27215D01*
X136666Y27310D01*
X136689Y27351D01*
X136717Y27386D01*
X136773Y27503D01*
X136835Y27615D01*
X136847Y27660D01*
X136867Y27701D01*
X136895Y27827D01*
X136930Y27951D01*
X136934Y28008D01*
X136942Y28041D01*
X136941Y28090D01*
X136949Y28195D01*
X136949Y32849D01*
X138151Y34051D01*
X148849Y34051D01*
X150051Y32849D01*
X150051Y16151D01*
X148849Y14949D01*
X147677Y14949D01*
X147528Y14932D01*
X147378Y14920D01*
X147355Y14912D01*
X147331Y14909D01*
X147190Y14859D01*
X147047Y14813D01*
X147026Y14800D01*
X147003Y14792D01*
X146877Y14710D01*
X146748Y14633D01*
X146731Y14616D01*
X146710Y14603D01*
X146605Y14494D01*
X146498Y14390D01*
X146485Y14370D01*
X146468Y14352D01*
X146391Y14223D01*
X146310Y14097D01*
X146302Y14074D01*
X146289Y14053D01*
X146244Y13910D01*
X146193Y13768D01*
X146190Y13744D01*
X146183Y13721D01*
X146171Y13572D01*
X146154Y13422D01*
X146157Y13398D01*
X146155Y13374D01*
X146177Y13225D01*
X146195Y13076D01*
X146204Y13048D01*
X146207Y13029D01*
X146224Y12985D01*
X146270Y12843D01*
X147283Y10398D01*
X147283Y7382D01*
X146128Y4595D01*
X143995Y2462D01*
X141208Y1307D01*
X138192Y1307D01*
X135405Y2462D01*
X133272Y4595D01*
X132481Y6503D01*
X132457Y6547D01*
X132440Y6594D01*
X132372Y6699D01*
X132312Y6808D01*
X132278Y6845D01*
X132251Y6887D01*
X132161Y6974D01*
X132078Y7066D01*
X132036Y7094D01*
X132000Y7129D01*
X131893Y7193D01*
X131791Y7264D01*
X131744Y7282D01*
X131701Y7308D01*
X131583Y7346D01*
X131467Y7392D01*
X131417Y7399D01*
X131369Y7414D01*
X131245Y7424D01*
X131122Y7443D01*
X131072Y7438D01*
X131022Y7442D01*
X130899Y7424D01*
X130775Y7414D01*
X130727Y7398D01*
X130677Y7391D01*
X130562Y7345D01*
X130443Y7307D01*
X130400Y7281D01*
X130353Y7262D01*
X130251Y7191D01*
X130145Y7127D01*
X130108Y7092D01*
X130067Y7063D01*
X129984Y6971D01*
X129895Y6884D01*
X129867Y6842D01*
X129834Y6804D01*
X129774Y6695D01*
X129706Y6591D01*
X129689Y6543D01*
X129665Y6499D01*
X129631Y6379D01*
X129590Y6262D01*
X129584Y6212D01*
X129570Y6164D01*
X129551Y5920D01*
X129551Y2151D01*
X128798Y1398D01*
X128767Y1358D01*
X128729Y1324D01*
X128659Y1222D01*
X128582Y1125D01*
X128560Y1079D01*
X128531Y1037D01*
X128486Y922D01*
X128433Y810D01*
X128422Y760D01*
X128403Y713D01*
X128386Y590D01*
X128360Y469D01*
X128360Y419D01*
X128353Y368D01*
X128363Y244D01*
X128365Y121D01*
X128378Y72D01*
X128382Y21D01*
X128420Y-97D01*
X128450Y-217D01*
X128474Y-262D01*
X128490Y-311D01*
X128553Y-417D01*
X128610Y-527D01*
X128643Y-566D01*
X128670Y-609D01*
X128756Y-698D01*
X128836Y-792D01*
X128877Y-823D01*
X128913Y-859D01*
X129040Y-947D01*
X129533Y-1440D01*
X129868Y-2019D01*
X130041Y-2665D01*
X130041Y-6453D01*
X121524Y-6453D01*
X121498Y-6456D01*
X121472Y-6454D01*
X121325Y-6476D01*
X121178Y-6493D01*
X121153Y-6501D01*
X121127Y-6505D01*
X120989Y-6560D01*
X120850Y-6610D01*
X120828Y-6624D01*
X120803Y-6634D01*
X120682Y-6719D01*
X120557Y-6799D01*
X120539Y-6818D01*
X120517Y-6833D01*
X120418Y-6943D01*
X120315Y-7050D01*
X120301Y-7072D01*
X120284Y-7092D01*
X120212Y-7222D01*
X120136Y-7349D01*
X120128Y-7374D01*
X120115Y-7397D01*
X120075Y-7540D01*
X120030Y-7681D01*
X120028Y-7707D01*
X120020Y-7732D01*
X120001Y-7976D01*
X120001Y-9501D01*
X119999Y-9501D01*
G37*
%LPD*%
G36*
X29346Y22902D02*
X29346Y22902D01*
X29370Y22901D01*
X29518Y22927D01*
X29667Y22950D01*
X29689Y22959D01*
X29713Y22963D01*
X29851Y23023D01*
X29991Y23079D01*
X30011Y23092D01*
X30033Y23102D01*
X30153Y23192D01*
X30277Y23277D01*
X30293Y23295D01*
X30313Y23310D01*
X30410Y23425D01*
X30510Y23536D01*
X30522Y23557D01*
X30538Y23576D01*
X30606Y23710D01*
X30679Y23841D01*
X30685Y23865D01*
X30696Y23886D01*
X30733Y24032D01*
X30774Y24177D01*
X30776Y24206D01*
X30781Y24224D01*
X30781Y24271D01*
X30793Y24420D01*
X30793Y29143D01*
X31546Y29896D01*
X31577Y29936D01*
X31615Y29970D01*
X31685Y30072D01*
X31762Y30169D01*
X31784Y30215D01*
X31813Y30257D01*
X31858Y30372D01*
X31911Y30484D01*
X31922Y30534D01*
X31941Y30581D01*
X31958Y30704D01*
X31984Y30825D01*
X31984Y30875D01*
X31991Y30926D01*
X31981Y31050D01*
X31979Y31173D01*
X31966Y31222D01*
X31962Y31273D01*
X31924Y31391D01*
X31894Y31511D01*
X31870Y31556D01*
X31854Y31605D01*
X31791Y31711D01*
X31734Y31821D01*
X31701Y31860D01*
X31674Y31903D01*
X31588Y31992D01*
X31508Y32086D01*
X31467Y32117D01*
X31431Y32153D01*
X31303Y32241D01*
X30811Y32734D01*
X30476Y33313D01*
X30303Y33959D01*
X30303Y37747D01*
X38820Y37747D01*
X38846Y37750D01*
X38872Y37748D01*
X39019Y37770D01*
X39166Y37787D01*
X39191Y37795D01*
X39217Y37799D01*
X39355Y37854D01*
X39494Y37904D01*
X39516Y37918D01*
X39541Y37928D01*
X39662Y38013D01*
X39787Y38093D01*
X39805Y38112D01*
X39827Y38127D01*
X39926Y38237D01*
X40029Y38344D01*
X40043Y38366D01*
X40060Y38386D01*
X40132Y38516D01*
X40208Y38643D01*
X40216Y38668D01*
X40229Y38691D01*
X40269Y38834D01*
X40314Y38975D01*
X40316Y39001D01*
X40324Y39026D01*
X40343Y39270D01*
X40343Y42318D01*
X40340Y42344D01*
X40342Y42370D01*
X40320Y42517D01*
X40303Y42664D01*
X40294Y42689D01*
X40291Y42715D01*
X40236Y42853D01*
X40186Y42992D01*
X40172Y43014D01*
X40162Y43039D01*
X40077Y43160D01*
X39997Y43285D01*
X39978Y43303D01*
X39963Y43325D01*
X39853Y43424D01*
X39746Y43527D01*
X39724Y43541D01*
X39704Y43558D01*
X39574Y43630D01*
X39447Y43706D01*
X39422Y43714D01*
X39399Y43727D01*
X39256Y43767D01*
X39115Y43812D01*
X39089Y43814D01*
X39064Y43822D01*
X38820Y43841D01*
X30303Y43841D01*
X30303Y47629D01*
X30476Y48275D01*
X30811Y48854D01*
X30862Y48905D01*
X30924Y48983D01*
X30994Y49056D01*
X31032Y49120D01*
X31078Y49178D01*
X31121Y49269D01*
X31173Y49355D01*
X31196Y49426D01*
X31227Y49493D01*
X31248Y49591D01*
X31279Y49687D01*
X31285Y49761D01*
X31301Y49834D01*
X31299Y49934D01*
X31307Y50034D01*
X31296Y50108D01*
X31295Y50182D01*
X31270Y50279D01*
X31255Y50379D01*
X31228Y50448D01*
X31210Y50520D01*
X31164Y50609D01*
X31127Y50703D01*
X31084Y50764D01*
X31050Y50830D01*
X30985Y50906D01*
X30928Y50989D01*
X30873Y51039D01*
X30824Y51095D01*
X30743Y51155D01*
X30669Y51222D01*
X30604Y51258D01*
X30544Y51302D01*
X30452Y51342D01*
X30364Y51391D01*
X30292Y51411D01*
X30224Y51441D01*
X30125Y51458D01*
X30028Y51486D01*
X29928Y51494D01*
X29881Y51502D01*
X29845Y51500D01*
X29785Y51505D01*
X21051Y51505D01*
X21025Y51502D01*
X20999Y51504D01*
X20852Y51482D01*
X20705Y51465D01*
X20680Y51457D01*
X20654Y51453D01*
X20516Y51398D01*
X20377Y51348D01*
X20355Y51334D01*
X20330Y51324D01*
X20209Y51239D01*
X20084Y51159D01*
X20066Y51140D01*
X20044Y51125D01*
X19945Y51015D01*
X19842Y50908D01*
X19828Y50886D01*
X19811Y50866D01*
X19739Y50736D01*
X19663Y50609D01*
X19655Y50584D01*
X19642Y50561D01*
X19602Y50418D01*
X19557Y50277D01*
X19555Y50251D01*
X19547Y50226D01*
X19528Y49982D01*
X19528Y40690D01*
X19531Y40664D01*
X19529Y40638D01*
X19551Y40491D01*
X19568Y40344D01*
X19576Y40319D01*
X19580Y40293D01*
X19635Y40155D01*
X19685Y40016D01*
X19699Y39994D01*
X19709Y39969D01*
X19794Y39848D01*
X19874Y39723D01*
X19893Y39705D01*
X19908Y39683D01*
X20018Y39584D01*
X20125Y39481D01*
X20147Y39467D01*
X20167Y39450D01*
X20297Y39378D01*
X20424Y39302D01*
X20449Y39294D01*
X20472Y39281D01*
X20615Y39241D01*
X20756Y39196D01*
X20782Y39194D01*
X20807Y39186D01*
X21051Y39167D01*
X23807Y39167D01*
X25009Y37965D01*
X25009Y24910D01*
X25012Y24884D01*
X25010Y24858D01*
X25032Y24711D01*
X25049Y24564D01*
X25057Y24539D01*
X25061Y24513D01*
X25116Y24375D01*
X25166Y24236D01*
X25180Y24214D01*
X25190Y24189D01*
X25275Y24068D01*
X25355Y23943D01*
X25374Y23925D01*
X25389Y23903D01*
X25499Y23804D01*
X25606Y23701D01*
X25628Y23687D01*
X25648Y23670D01*
X25778Y23598D01*
X25905Y23522D01*
X25930Y23514D01*
X25953Y23501D01*
X26096Y23461D01*
X26237Y23416D01*
X26263Y23414D01*
X26288Y23406D01*
X26532Y23387D01*
X27785Y23387D01*
X28687Y23013D01*
X28832Y22972D01*
X28975Y22926D01*
X28999Y22924D01*
X29022Y22917D01*
X29173Y22910D01*
X29322Y22898D01*
X29346Y22902D01*
G37*
%LPC*%
G36*
X-59200Y126718D02*
X-59200Y126718D01*
X-59829Y126946D01*
X-60377Y127330D01*
X-60807Y127842D01*
X-68746Y144870D01*
X-57877Y149938D01*
X-49004Y130912D01*
X-57875Y126775D01*
X-58533Y126659D01*
X-59200Y126718D01*
G37*
%LPD*%
%LPC*%
G36*
X-52353Y152514D02*
X-52353Y152514D01*
X-41483Y157583D01*
X-33543Y140555D01*
X-33427Y139897D01*
X-33486Y139230D01*
X-33714Y138602D01*
X-34098Y138054D01*
X-34611Y137624D01*
X-43481Y133487D01*
X-52353Y152514D01*
G37*
%LPD*%
G36*
X51454Y37761D02*
X51454Y37761D01*
X51581Y37768D01*
X51627Y37781D01*
X51675Y37787D01*
X51794Y37829D01*
X51915Y37864D01*
X51958Y37888D01*
X52003Y37904D01*
X52110Y37973D01*
X52220Y38034D01*
X52266Y38074D01*
X52296Y38093D01*
X52330Y38128D01*
X52406Y38193D01*
X63118Y48905D01*
X63180Y48983D01*
X63250Y49056D01*
X63288Y49120D01*
X63335Y49178D01*
X63377Y49269D01*
X63429Y49355D01*
X63452Y49426D01*
X63483Y49493D01*
X63505Y49591D01*
X63535Y49687D01*
X63541Y49761D01*
X63557Y49834D01*
X63555Y49934D01*
X63563Y50034D01*
X63552Y50108D01*
X63551Y50182D01*
X63526Y50279D01*
X63511Y50379D01*
X63484Y50448D01*
X63466Y50520D01*
X63420Y50610D01*
X63383Y50703D01*
X63340Y50764D01*
X63306Y50830D01*
X63241Y50907D01*
X63184Y50989D01*
X63129Y51039D01*
X63080Y51095D01*
X63000Y51155D01*
X62925Y51222D01*
X62860Y51258D01*
X62800Y51303D01*
X62708Y51342D01*
X62620Y51391D01*
X62548Y51411D01*
X62480Y51441D01*
X62381Y51458D01*
X62285Y51486D01*
X62185Y51494D01*
X62137Y51502D01*
X62101Y51500D01*
X62041Y51505D01*
X50903Y51505D01*
X50804Y51494D01*
X50703Y51492D01*
X50631Y51474D01*
X50557Y51465D01*
X50462Y51431D01*
X50365Y51407D01*
X50299Y51373D01*
X50229Y51348D01*
X50145Y51293D01*
X50055Y51247D01*
X49999Y51199D01*
X49936Y51159D01*
X49866Y51087D01*
X49790Y51021D01*
X49746Y50962D01*
X49694Y50908D01*
X49642Y50822D01*
X49583Y50741D01*
X49553Y50673D01*
X49515Y50609D01*
X49485Y50513D01*
X49445Y50421D01*
X49432Y50348D01*
X49409Y50277D01*
X49401Y50177D01*
X49383Y50078D01*
X49387Y50004D01*
X49381Y49930D01*
X49396Y49831D01*
X49401Y49730D01*
X49422Y49659D01*
X49433Y49585D01*
X49470Y49492D01*
X49498Y49395D01*
X49534Y49330D01*
X49561Y49261D01*
X49619Y49179D01*
X49668Y49091D01*
X49733Y49015D01*
X49760Y48975D01*
X49787Y48951D01*
X49826Y48905D01*
X49877Y48854D01*
X50212Y48275D01*
X50385Y47629D01*
X50385Y43841D01*
X41868Y43841D01*
X41842Y43838D01*
X41816Y43840D01*
X41669Y43818D01*
X41522Y43801D01*
X41497Y43792D01*
X41471Y43789D01*
X41333Y43734D01*
X41194Y43684D01*
X41172Y43670D01*
X41147Y43660D01*
X41026Y43575D01*
X40901Y43495D01*
X40883Y43476D01*
X40861Y43461D01*
X40762Y43351D01*
X40659Y43244D01*
X40645Y43222D01*
X40628Y43202D01*
X40556Y43072D01*
X40480Y42945D01*
X40472Y42920D01*
X40459Y42897D01*
X40419Y42754D01*
X40374Y42613D01*
X40372Y42587D01*
X40364Y42562D01*
X40345Y42318D01*
X40345Y39270D01*
X40348Y39244D01*
X40346Y39218D01*
X40368Y39071D01*
X40385Y38924D01*
X40394Y38899D01*
X40397Y38873D01*
X40452Y38735D01*
X40502Y38596D01*
X40516Y38574D01*
X40526Y38549D01*
X40611Y38428D01*
X40691Y38303D01*
X40710Y38285D01*
X40725Y38263D01*
X40835Y38164D01*
X40942Y38061D01*
X40964Y38047D01*
X40984Y38030D01*
X41114Y37958D01*
X41241Y37882D01*
X41266Y37874D01*
X41289Y37861D01*
X41432Y37821D01*
X41573Y37776D01*
X41599Y37774D01*
X41624Y37766D01*
X41868Y37747D01*
X51329Y37747D01*
X51454Y37761D01*
G37*
%LPC*%
G36*
X74421Y97111D02*
X74421Y97111D01*
X74421Y104225D01*
X79329Y104225D01*
X79975Y104052D01*
X80554Y103717D01*
X81027Y103244D01*
X81362Y102665D01*
X81535Y102019D01*
X81535Y97111D01*
X74421Y97111D01*
G37*
%LPD*%
%LPC*%
G36*
X63245Y97111D02*
X63245Y97111D01*
X63245Y102019D01*
X63418Y102665D01*
X63753Y103244D01*
X64226Y103717D01*
X64805Y104052D01*
X65451Y104225D01*
X70359Y104225D01*
X70359Y97111D01*
X63245Y97111D01*
G37*
%LPD*%
%LPC*%
G36*
X-10480Y2340D02*
X-10480Y2340D01*
X-9961Y3936D01*
X-9199Y5433D01*
X-8212Y6791D01*
X-7024Y7979D01*
X-5666Y8966D01*
X-4169Y9728D01*
X-2573Y10247D01*
X-2573Y2340D01*
X-10480Y2340D01*
G37*
%LPD*%
%LPC*%
G36*
X-11583Y32663D02*
X-11583Y32663D01*
X-11583Y37451D01*
X-11410Y38097D01*
X-11075Y38676D01*
X-10602Y39149D01*
X-10023Y39484D01*
X-9377Y39657D01*
X-5589Y39657D01*
X-5589Y32663D01*
X-11583Y32663D01*
G37*
%LPD*%
%LPC*%
G36*
X123047Y-18541D02*
X123047Y-18541D01*
X123047Y-12547D01*
X130041Y-12547D01*
X130041Y-16335D01*
X129868Y-16981D01*
X129533Y-17560D01*
X129060Y-18033D01*
X128481Y-18368D01*
X127835Y-18541D01*
X123047Y-18541D01*
G37*
%LPD*%
%LPC*%
G36*
X-9377Y19575D02*
X-9377Y19575D01*
X-10023Y19748D01*
X-10602Y20083D01*
X-11075Y20556D01*
X-11410Y21135D01*
X-11583Y21781D01*
X-11583Y26569D01*
X-5589Y26569D01*
X-5589Y19575D01*
X-9377Y19575D01*
G37*
%LPD*%
%LPC*%
G36*
X112165Y-18541D02*
X112165Y-18541D01*
X111519Y-18368D01*
X110940Y-18033D01*
X110467Y-17560D01*
X110132Y-16981D01*
X109959Y-16335D01*
X109959Y-12547D01*
X116953Y-12547D01*
X116953Y-18541D01*
X112165Y-18541D01*
G37*
%LPD*%
%LPC*%
G36*
X23327Y-128620D02*
X23327Y-128620D01*
X22731Y-128316D01*
X22234Y-127869D01*
X21870Y-127307D01*
X20390Y-122754D01*
X26091Y-120902D01*
X28252Y-127554D01*
X24650Y-128724D01*
X23982Y-128759D01*
X23327Y-128620D01*
G37*
%LPD*%
%LPC*%
G36*
X49768Y105372D02*
X49768Y105372D01*
X46166Y106542D01*
X48327Y113194D01*
X54028Y111342D01*
X52548Y106789D01*
X52184Y106227D01*
X51687Y105780D01*
X51091Y105476D01*
X50436Y105337D01*
X49768Y105372D01*
G37*
%LPD*%
%LPC*%
G36*
X-87242Y78894D02*
X-87242Y78894D01*
X-83719Y83743D01*
X-79846Y80929D01*
X-79425Y80409D01*
X-79153Y79798D01*
X-79048Y79137D01*
X-79118Y78472D01*
X-79358Y77847D01*
X-81584Y74783D01*
X-87242Y78894D01*
G37*
%LPD*%
%LPC*%
G36*
X17028Y-112405D02*
X17028Y-112405D01*
X16993Y-111737D01*
X17132Y-111083D01*
X17436Y-110487D01*
X17883Y-109990D01*
X18444Y-109625D01*
X22046Y-108455D01*
X24207Y-115106D01*
X18507Y-116958D01*
X17028Y-112405D01*
G37*
%LPD*%
%LPC*%
G36*
X-105515Y-53743D02*
X-105515Y-53743D01*
X-101642Y-50929D01*
X-101017Y-50689D01*
X-100352Y-50620D01*
X-99691Y-50724D01*
X-99080Y-50996D01*
X-98560Y-51417D01*
X-96334Y-54481D01*
X-101992Y-58592D01*
X-105515Y-53743D01*
G37*
%LPD*%
%LPC*%
G36*
X68988Y165532D02*
X68988Y165532D01*
X69787Y167991D01*
X70152Y168552D01*
X70649Y169000D01*
X71245Y169304D01*
X71899Y169443D01*
X72567Y169408D01*
X77879Y167682D01*
X76399Y163125D01*
X68988Y165532D01*
G37*
%LPD*%
%LPC*%
G36*
X178749Y-34541D02*
X178749Y-34541D01*
X178749Y-26749D01*
X183541Y-26749D01*
X183541Y-32335D01*
X183368Y-32981D01*
X183033Y-33560D01*
X182560Y-34033D01*
X181981Y-34368D01*
X181335Y-34541D01*
X178749Y-34541D01*
G37*
%LPD*%
%LPC*%
G36*
X-132765Y129523D02*
X-132765Y129523D01*
X-129482Y134042D01*
X-128962Y134463D01*
X-128351Y134735D01*
X-127690Y134840D01*
X-127025Y134770D01*
X-126400Y134530D01*
X-124309Y133011D01*
X-128889Y126707D01*
X-132765Y129523D01*
G37*
%LPD*%
%LPC*%
G36*
X-157153Y-95093D02*
X-157153Y-95093D01*
X-157764Y-94821D01*
X-158284Y-94400D01*
X-161566Y-89882D01*
X-157690Y-87065D01*
X-153110Y-93369D01*
X-155202Y-94888D01*
X-155826Y-95128D01*
X-156492Y-95198D01*
X-157153Y-95093D01*
G37*
%LPD*%
%LPC*%
G36*
X-138204Y118284D02*
X-138204Y118284D01*
X-138625Y118804D01*
X-138897Y119415D01*
X-139002Y120076D01*
X-138932Y120741D01*
X-138692Y121366D01*
X-135409Y125884D01*
X-131533Y123068D01*
X-136113Y116764D01*
X-138204Y118284D01*
G37*
%LPD*%
%LPC*%
G36*
X-167494Y-81724D02*
X-167494Y-81724D01*
X-167733Y-81099D01*
X-167803Y-80434D01*
X-167699Y-79773D01*
X-167426Y-79162D01*
X-167006Y-78642D01*
X-164914Y-77122D01*
X-160334Y-83426D01*
X-164211Y-86242D01*
X-167494Y-81724D01*
G37*
%LPD*%
%LPC*%
G36*
X80677Y161735D02*
X80677Y161735D01*
X82158Y166292D01*
X87469Y164566D01*
X88031Y164201D01*
X88478Y163704D01*
X88782Y163108D01*
X88921Y162454D01*
X88886Y161786D01*
X88087Y159327D01*
X80677Y161735D01*
G37*
%LPD*%
%LPC*%
G36*
X31204Y-168041D02*
X31204Y-168041D01*
X36516Y-166315D01*
X37184Y-166280D01*
X37839Y-166419D01*
X38435Y-166723D01*
X38932Y-167171D01*
X39296Y-167732D01*
X40095Y-170190D01*
X32685Y-172598D01*
X31204Y-168041D01*
G37*
%LPD*%
%LPC*%
G36*
X83118Y151173D02*
X83118Y151173D01*
X77806Y152899D01*
X79287Y157456D01*
X86697Y155049D01*
X85898Y152590D01*
X85534Y152029D01*
X85037Y151581D01*
X84440Y151277D01*
X83786Y151138D01*
X83118Y151173D01*
G37*
%LPD*%
%LPC*%
G36*
X178749Y-22251D02*
X178749Y-22251D01*
X178749Y-14459D01*
X181335Y-14459D01*
X181981Y-14632D01*
X182560Y-14967D01*
X183033Y-15440D01*
X183368Y-16019D01*
X183541Y-16665D01*
X183541Y-22251D01*
X178749Y-22251D01*
G37*
%LPD*%
%LPC*%
G36*
X171665Y-34541D02*
X171665Y-34541D01*
X171019Y-34368D01*
X170440Y-34033D01*
X169967Y-33560D01*
X169632Y-32981D01*
X169459Y-32335D01*
X169459Y-26749D01*
X174251Y-26749D01*
X174251Y-34541D01*
X171665Y-34541D01*
G37*
%LPD*%
%LPC*%
G36*
X-154051Y-84421D02*
X-154051Y-84421D01*
X-150174Y-81605D01*
X-146892Y-86123D01*
X-146652Y-86748D01*
X-146582Y-87413D01*
X-146686Y-88074D01*
X-146959Y-88685D01*
X-147379Y-89205D01*
X-149471Y-90725D01*
X-154051Y-84421D01*
G37*
%LPD*%
%LPC*%
G36*
X-125249Y124063D02*
X-125249Y124063D01*
X-120670Y130366D01*
X-118578Y128847D01*
X-118157Y128327D01*
X-117885Y127716D01*
X-117780Y127055D01*
X-117850Y126390D01*
X-118090Y125765D01*
X-121373Y121247D01*
X-125249Y124063D01*
G37*
%LPD*%
%LPC*%
G36*
X68216Y156015D02*
X68216Y156015D01*
X67655Y156380D01*
X67207Y156877D01*
X66904Y157473D01*
X66764Y158127D01*
X66799Y158795D01*
X67598Y161254D01*
X75008Y158846D01*
X73528Y154289D01*
X68216Y156015D01*
G37*
%LPD*%
%LPC*%
G36*
X20198Y-173937D02*
X20198Y-173937D01*
X20163Y-173269D01*
X20302Y-172615D01*
X20605Y-172019D01*
X21053Y-171522D01*
X21614Y-171157D01*
X26926Y-169431D01*
X28407Y-173988D01*
X20997Y-176396D01*
X20198Y-173937D01*
G37*
%LPD*%
%LPC*%
G36*
X-161275Y-74478D02*
X-161275Y-74478D01*
X-159183Y-72959D01*
X-158559Y-72719D01*
X-157893Y-72649D01*
X-157233Y-72754D01*
X-156621Y-73026D01*
X-156102Y-73447D01*
X-152819Y-77965D01*
X-156695Y-80782D01*
X-161275Y-74478D01*
G37*
%LPD*%
%LPC*%
G36*
X-129757Y112361D02*
X-129757Y112361D01*
X-130382Y112601D01*
X-132473Y114120D01*
X-127893Y120424D01*
X-124017Y117607D01*
X-127300Y113089D01*
X-127820Y112668D01*
X-128431Y112396D01*
X-129092Y112291D01*
X-129757Y112361D01*
G37*
%LPD*%
%LPC*%
G36*
X169459Y-22251D02*
X169459Y-22251D01*
X169459Y-16665D01*
X169632Y-16019D01*
X169967Y-15440D01*
X170440Y-14967D01*
X171019Y-14632D01*
X171665Y-14459D01*
X174251Y-14459D01*
X174251Y-22251D01*
X169459Y-22251D01*
G37*
%LPD*%
D10*
X40471Y352D03*
X40471Y-18648D03*
X40344Y21794D03*
X40344Y40794D03*
D11*
X16458Y29616D03*
X-2542Y29616D03*
D12*
X12446Y-9159D03*
X20666Y-9159D03*
X20666Y-159D03*
X20666Y8841D03*
X12446Y8841D03*
D13*
X-74Y-159D03*
D14*
X-57230Y9250D03*
X-67230Y9250D03*
X-67230Y-9250D03*
X-57230Y-9250D03*
D15*
X-62230Y0D03*
D10*
X-37338Y-8484D03*
X-37338Y10516D03*
D16*
G36*
X-23567Y53996D02*
X-41740Y92966D01*
X-19083Y103532D01*
X-910Y64562D01*
X-23567Y53996D01*
G37*
G36*
X-58645Y129220D02*
X-76818Y168190D01*
X-54161Y178756D01*
X-35988Y139786D01*
X-58645Y129220D01*
G37*
D17*
X72390Y95080D03*
D18*
X72390Y75080D03*
X72390Y55080D03*
X72390Y35080D03*
X72390Y15080D03*
X72390Y-4920D03*
X72390Y-24920D03*
X72390Y-44920D03*
X72390Y-64920D03*
X72390Y-84920D03*
D19*
G36*
X-102461Y-95456D02*
X-93646Y-107590D01*
X-100927Y-112880D01*
X-109742Y-100746D01*
X-102461Y-95456D01*
G37*
G36*
X-129158Y-114853D02*
X-120343Y-126987D01*
X-127624Y-132277D01*
X-136439Y-120143D01*
X-129158Y-114853D01*
G37*
G36*
X-131262Y-55815D02*
X-122447Y-67949D01*
X-129728Y-73239D01*
X-138543Y-61105D01*
X-131262Y-55815D01*
G37*
G36*
X-157960Y-75212D02*
X-149145Y-87346D01*
X-156426Y-92636D01*
X-165241Y-80502D01*
X-157960Y-75212D01*
G37*
G36*
X59122Y-126944D02*
X73387Y-122309D01*
X76168Y-130868D01*
X61903Y-135503D01*
X59122Y-126944D01*
G37*
G36*
X69320Y-158329D02*
X83585Y-153694D01*
X86366Y-162253D01*
X72101Y-166888D01*
X69320Y-158329D01*
G37*
G36*
X12520Y-142085D02*
X26785Y-137450D01*
X29566Y-146009D01*
X15301Y-150644D01*
X12520Y-142085D01*
G37*
G36*
X22718Y-173470D02*
X36983Y-168835D01*
X39764Y-177394D01*
X25499Y-182029D01*
X22718Y-173470D01*
G37*
D20*
X143500Y24500D03*
X176500Y24500D03*
X143500Y-24500D03*
X176500Y-24500D03*
D19*
G36*
X26785Y137450D02*
X12520Y142085D01*
X15301Y150644D01*
X29566Y146009D01*
X26785Y137450D01*
G37*
G36*
X36983Y168835D02*
X22718Y173470D01*
X25499Y182029D01*
X39764Y177394D01*
X36983Y168835D01*
G37*
G36*
X73387Y122309D02*
X59122Y126944D01*
X61903Y135503D01*
X76168Y130868D01*
X73387Y122309D01*
G37*
G36*
X83585Y153694D02*
X69320Y158329D01*
X72101Y166888D01*
X86366Y162253D01*
X83585Y153694D01*
G37*
G36*
X-122447Y67949D02*
X-131262Y55815D01*
X-138543Y61105D01*
X-129728Y73239D01*
X-122447Y67949D01*
G37*
G36*
X-149145Y87346D02*
X-157960Y75212D01*
X-165241Y80502D01*
X-156426Y92636D01*
X-149145Y87346D01*
G37*
G36*
X-93646Y107590D02*
X-102461Y95456D01*
X-109742Y100746D01*
X-100927Y112880D01*
X-93646Y107590D01*
G37*
G36*
X-120343Y126987D02*
X-129158Y114853D01*
X-136439Y120143D01*
X-127624Y132277D01*
X-120343Y126987D01*
G37*
D10*
X120000Y9500D03*
X120000Y-9500D03*
D11*
G36*
X32165Y113764D02*
X19802Y117781D01*
X24437Y132046D01*
X36800Y128029D01*
X32165Y113764D01*
G37*
G36*
X50235Y107892D02*
X37872Y111909D01*
X42507Y126174D01*
X54870Y122157D01*
X50235Y107892D01*
G37*
G36*
X-92778Y63698D02*
X-100419Y53182D01*
X-112554Y61998D01*
X-104913Y72514D01*
X-92778Y63698D01*
G37*
G36*
X-81610Y79070D02*
X-89251Y68554D01*
X-101386Y77370D01*
X-93745Y87886D01*
X-81610Y79070D01*
G37*
G36*
X-89251Y-68554D02*
X-81610Y-79070D01*
X-93745Y-87886D01*
X-101386Y-77370D01*
X-89251Y-68554D01*
G37*
G36*
X-100419Y-53182D02*
X-92778Y-63698D01*
X-104913Y-72514D01*
X-112554Y-61998D01*
X-100419Y-53182D01*
G37*
G36*
X37618Y-106067D02*
X49981Y-102050D01*
X54616Y-116315D01*
X42253Y-120332D01*
X37618Y-106067D01*
G37*
G36*
X19548Y-111939D02*
X31911Y-107922D01*
X36546Y-122187D01*
X24183Y-126204D01*
X19548Y-111939D01*
G37*
D21*
X-37338Y10516D02*
X-57120Y9360D01*
X-57230Y9250D01*
X-57230Y1350D01*
X-55880Y0D01*
X-62230Y0D01*
D22*
X15240Y-163830D03*
X30480Y-160020D03*
X44450Y-156210D03*
X-120650Y55880D03*
X-111760Y49530D03*
X-121920Y44450D03*
X64770Y115570D03*
X116078Y69850D03*
X123190Y59436D03*
X158750Y-15240D03*
X158750Y-27940D03*
X156896Y-40386D03*
X8585Y68580D03*
X35738Y70282D03*
X21285Y69164D03*
X-71120Y54610D03*
X-71120Y66040D03*
X-71120Y78740D03*
D23*
X-37338Y54356D02*
X-37338Y10516D01*
D24*
X23495Y43180D03*
D22*
X7620Y45720D03*
D25*
X-29870Y-48692D03*
D26*
X-2540Y105410D02*
X-4253Y107036D01*
X72390Y107950D02*
X72390Y95080D01*
D22*
X-2540Y104140D03*
X-2540Y116840D03*
X-2794Y129286D03*
D26*
X-2542Y29616D02*
X-2540Y5588D01*
X-74Y-159D01*
D22*
X69418Y-141326D03*
X80340Y-138049D03*
X110211Y-43104D03*
X109931Y-29743D03*
X123038Y-29464D03*
D27*
X-37414Y41199D03*
X22780Y-100349D03*
D21*
X32146Y13596D02*
X40344Y21794D01*
X32147Y13596D02*
X31861Y13318D01*
X31569Y13047D01*
X31271Y12783D01*
X30966Y12526D01*
X30655Y12277D01*
X30338Y12036D01*
X30015Y11803D01*
X29686Y11577D01*
X29352Y11360D01*
X29013Y11151D01*
X28669Y10950D01*
X28320Y10758D01*
X27966Y10575D01*
X27608Y10400D01*
X27245Y10234D01*
X26879Y10077D01*
X26509Y9929D01*
X26136Y9790D01*
X25759Y9660D01*
X25379Y9540D01*
X24996Y9429D01*
X24611Y9328D01*
X24223Y9235D01*
X23833Y9153D01*
X23442Y9080D01*
X23048Y9017D01*
X22653Y8963D01*
X22257Y8919D01*
X21860Y8885D01*
X21463Y8861D01*
X21064Y8846D01*
X20666Y8841D01*
X40344Y21794D02*
X72390Y53840D01*
X72390Y55080D01*
X16461Y29619D02*
X16458Y29616D01*
X16461Y29619D02*
X16461Y55080D01*
X-37338Y-8484D02*
X-39636Y-9250D01*
X-57230Y-9250D01*
D28*
X-37338Y-8483D02*
X-37018Y-8466D01*
X-36699Y-8441D01*
X-36380Y-8408D01*
X-36062Y-8368D01*
X-35745Y-8320D01*
X-35429Y-8264D01*
X-35115Y-8201D01*
X-34802Y-8130D01*
X-34491Y-8051D01*
X-34182Y-7965D01*
X-33876Y-7872D01*
X-33571Y-7771D01*
X-33270Y-7663D01*
X-32970Y-7548D01*
X-32674Y-7425D01*
X-32381Y-7295D01*
X-32091Y-7159D01*
X-31804Y-7015D01*
X-31521Y-6864D01*
X-31242Y-6707D01*
X-30967Y-6543D01*
X-30695Y-6372D01*
X-30428Y-6195D01*
X-30165Y-6011D01*
X-29907Y-5821D01*
X-29653Y-5625D01*
X-29404Y-5423D01*
X-29161Y-5215D01*
X-28922Y-5001D01*
X-28688Y-4781D01*
X-28460Y-4556D01*
X-28237Y-4325D01*
X-28020Y-4089D01*
X-27809Y-3848D01*
X-27604Y-3602D01*
X-27404Y-3351D01*
X-27211Y-3095D01*
X-27024Y-2835D01*
X-26844Y-2570D01*
X-26669Y-2301D01*
X-26502Y-2027D01*
X-26341Y-1750D01*
X-26187Y-1469D01*
X-26039Y-1184D01*
X-25899Y-896D01*
X-25765Y-605D01*
X-25639Y-310D01*
X-25520Y-12D01*
X-25408Y288D01*
X-25303Y591D01*
X-25206Y896D01*
X-25116Y1204D01*
X-25033Y1514D01*
X-24958Y1826D01*
X-24891Y2139D01*
X-24831Y2454D01*
X-24779Y2770D01*
X-24734Y3088D01*
X-24697Y3406D01*
X-24668Y3726D01*
X-24647Y4046D01*
X-24633Y4366D01*
X-24627Y4686D01*
X-24629Y5007D01*
X-24639Y5328D01*
X-24638Y5327D02*
X-24638Y38631D01*
X-24633Y39028D01*
X-24619Y39426D01*
X-24595Y39822D01*
X-24561Y40219D01*
X-24518Y40614D01*
X-24465Y41008D01*
X-24403Y41400D01*
X-24332Y41791D01*
X-24250Y42180D01*
X-24160Y42568D01*
X-24060Y42952D01*
X-23951Y43335D01*
X-23833Y43714D01*
X-23706Y44091D01*
X-23569Y44464D01*
X-23424Y44834D01*
X-23269Y45200D01*
X-23106Y45563D01*
X-22934Y45921D01*
X-22754Y46275D01*
X-22565Y46625D01*
X-22368Y46970D01*
X-22162Y47310D01*
X-21948Y47645D01*
X-21726Y47975D01*
X-21497Y48299D01*
X-21259Y48618D01*
X-21014Y48931D01*
X-20761Y49238D01*
X-20501Y49539D01*
X-20234Y49833D01*
X-19960Y50121D01*
X-19679Y50402D01*
X-19391Y50676D01*
X-19097Y50943D01*
X-18796Y51203D01*
X-18489Y51456D01*
X-18176Y51701D01*
X-17857Y51939D01*
X-17533Y52168D01*
X-17203Y52390D01*
X-16868Y52604D01*
X-16528Y52810D01*
X-16183Y53007D01*
X-15833Y53196D01*
X-15479Y53376D01*
X-15121Y53548D01*
X-14758Y53711D01*
X-14392Y53866D01*
X-14022Y54011D01*
X-13649Y54148D01*
X-13272Y54275D01*
X-12893Y54393D01*
X-12510Y54502D01*
X-12126Y54602D01*
X-11738Y54692D01*
X-11349Y54774D01*
X-10958Y54845D01*
X-10566Y54907D01*
X-10172Y54960D01*
X-9777Y55003D01*
X-9380Y55037D01*
X-8984Y55061D01*
X-8586Y55075D01*
X-8189Y55080D01*
X16461Y55080D01*
X72390Y55080D01*
D21*
X-67230Y-9250D02*
X-67230Y-11155D01*
X-60656Y-17730D01*
X63354Y-28651D02*
X63657Y-28647D01*
X63960Y-28637D01*
X64263Y-28619D01*
X64565Y-28593D01*
X64866Y-28561D01*
X65167Y-28521D01*
X65467Y-28475D01*
X65765Y-28421D01*
X66062Y-28360D01*
X66357Y-28292D01*
X66651Y-28217D01*
X66943Y-28135D01*
X67233Y-28046D01*
X67521Y-27950D01*
X67806Y-27848D01*
X68089Y-27738D01*
X68369Y-27622D01*
X68646Y-27500D01*
X68920Y-27371D01*
X69191Y-27235D01*
X69459Y-27093D01*
X69724Y-26944D01*
X69984Y-26790D01*
X70241Y-26629D01*
X70494Y-26462D01*
X70743Y-26289D01*
X70988Y-26110D01*
X71229Y-25926D01*
X71465Y-25735D01*
X71696Y-25539D01*
X71923Y-25338D01*
X72145Y-25132D01*
X72362Y-24920D01*
X63354Y-28651D02*
X-43231Y-28651D01*
X-45466Y-26416D01*
X72362Y-24920D02*
X72390Y-24920D01*
D29*
X-45466Y-26416D03*
X-60656Y-17730D03*
D21*
X-45680Y-26416D02*
X-45466Y-26416D01*
X-45680Y-26416D02*
X-46462Y-27198D01*
X-54528Y-23857D01*
X-54529Y-23857D02*
X-54784Y-23748D01*
X-55037Y-23632D01*
X-55286Y-23510D01*
X-55533Y-23382D01*
X-55777Y-23248D01*
X-56017Y-23108D01*
X-56253Y-22962D01*
X-56486Y-22811D01*
X-56715Y-22654D01*
X-56941Y-22491D01*
X-57162Y-22323D01*
X-57379Y-22149D01*
X-57591Y-21970D01*
X-57799Y-21786D01*
X-58003Y-21597D01*
X-58202Y-21403D01*
X-58396Y-21204D01*
X-58585Y-21000D01*
X-58769Y-20792D01*
X-58948Y-20580D01*
X-59122Y-20363D01*
X-59290Y-20142D01*
X-59453Y-19916D01*
X-59610Y-19687D01*
X-59761Y-19454D01*
X-59907Y-19218D01*
X-60047Y-18978D01*
X-60181Y-18734D01*
X-60309Y-18487D01*
X-60431Y-18238D01*
X-60547Y-17985D01*
X-60656Y-17730D01*
D24*
X-65515Y23288D03*
D21*
X-65477Y11003D02*
X-67230Y9250D01*
X-65477Y11003D02*
X-65515Y23288D01*
X-67230Y9250D02*
X-67839Y9250D01*
X-68076Y9247D01*
X-68314Y9239D01*
X-68550Y9224D01*
X-68787Y9204D01*
X-69023Y9178D01*
X-69258Y9147D01*
X-69493Y9110D01*
X-69726Y9067D01*
X-69958Y9019D01*
X-70190Y8965D01*
X-70419Y8905D01*
X-70648Y8840D01*
X-70874Y8769D01*
X-71099Y8693D01*
X-71322Y8612D01*
X-71543Y8525D01*
X-71762Y8433D01*
X-71978Y8335D01*
X-72192Y8233D01*
X-72404Y8125D01*
X-72612Y8012D01*
X-72818Y7894D01*
X-73021Y7771D01*
X-73222Y7644D01*
X-73419Y7511D01*
X-73612Y7374D01*
X-73803Y7232D01*
X-73989Y7086D01*
X-74173Y6935D01*
X-74352Y6780D01*
X-74528Y6620D01*
X-74700Y6457D01*
X-74868Y6289D01*
X-75031Y6117D01*
X-75191Y5941D01*
X-75346Y5762D01*
X-75497Y5578D01*
X-75643Y5392D01*
X-75785Y5201D01*
X-75922Y5008D01*
X-76055Y4811D01*
X-76182Y4610D01*
X-76305Y4407D01*
X-76423Y4201D01*
X-76536Y3993D01*
X-76644Y3781D01*
X-76746Y3567D01*
X-76844Y3351D01*
X-76936Y3132D01*
X-77023Y2911D01*
X-77104Y2688D01*
X-77180Y2463D01*
X-77251Y2237D01*
X-77316Y2008D01*
X-77376Y1779D01*
X-77430Y1547D01*
X-77478Y1315D01*
X-77521Y1082D01*
X-77558Y847D01*
X-77589Y612D01*
X-77615Y376D01*
X-77635Y139D01*
X-77650Y-97D01*
X-77658Y-335D01*
X-77661Y-572D01*
X-77651Y-1359D01*
X-77623Y-2145D01*
X-77575Y-2930D01*
X-77509Y-3714D01*
X-77424Y-4495D01*
X-77319Y-5275D01*
X-77196Y-6052D01*
X-77055Y-6826D01*
X-76894Y-7596D01*
X-76715Y-8362D01*
X-76518Y-9123D01*
X-76302Y-9880D01*
X-76068Y-10631D01*
X-75816Y-11376D01*
X-75546Y-12114D01*
X-75258Y-12846D01*
X-74953Y-13571D01*
X-74630Y-14289D01*
X-74290Y-14998D01*
X-73933Y-15699D01*
X-73559Y-16391D01*
X-73168Y-17074D01*
X-72761Y-17747D01*
X-72338Y-18410D01*
X-71899Y-19063D01*
X-71445Y-19704D01*
X-70975Y-20335D01*
X-70489Y-20954D01*
X-69989Y-21562D01*
X-69475Y-22157D01*
X-68946Y-22739D01*
X-68404Y-23309D01*
X-67848Y-23865D01*
X-67278Y-24407D01*
X-66696Y-24936D01*
X-66101Y-25450D01*
X-65493Y-25950D01*
X-64874Y-26436D01*
X-64243Y-26906D01*
X-63602Y-27360D01*
X-62949Y-27799D01*
X-62286Y-28222D01*
X-61613Y-28629D01*
X-60930Y-29020D01*
X-60238Y-29394D01*
X-59537Y-29751D01*
X-58828Y-30091D01*
X-58110Y-30414D01*
X-57385Y-30719D01*
X-56653Y-31007D01*
X-55915Y-31277D01*
X-55170Y-31529D01*
X-54419Y-31763D01*
X-53662Y-31979D01*
X-52901Y-32176D01*
X-52135Y-32355D01*
X-51365Y-32516D01*
X-50591Y-32657D01*
X-49814Y-32780D01*
X-49034Y-32885D01*
X-48253Y-32970D01*
X-47469Y-33036D01*
X-46684Y-33084D01*
X-45898Y-33112D01*
X-45111Y-33122D01*
X75822Y-34799D02*
X76015Y-34797D01*
X76208Y-34790D01*
X76401Y-34778D01*
X76594Y-34762D01*
X76786Y-34741D01*
X76978Y-34715D01*
X77169Y-34685D01*
X77359Y-34650D01*
X77548Y-34611D01*
X77736Y-34567D01*
X77923Y-34518D01*
X78109Y-34465D01*
X78294Y-34408D01*
X78477Y-34346D01*
X78658Y-34279D01*
X78838Y-34208D01*
X79017Y-34133D01*
X79193Y-34054D01*
X79367Y-33971D01*
X79539Y-33883D01*
X79709Y-33791D01*
X79877Y-33695D01*
X80043Y-33595D01*
X80206Y-33491D01*
X80366Y-33383D01*
X80524Y-33271D01*
X80679Y-33156D01*
X80831Y-33037D01*
X80980Y-32914D01*
X81126Y-32787D01*
X81269Y-32657D01*
X81409Y-32524D01*
X81546Y-32387D01*
X81679Y-32247D01*
X81809Y-32104D01*
X81936Y-31958D01*
X82059Y-31809D01*
X82178Y-31657D01*
X82293Y-31502D01*
X82405Y-31344D01*
X82513Y-31184D01*
X82617Y-31021D01*
X82717Y-30855D01*
X82813Y-30687D01*
X82905Y-30517D01*
X82993Y-30345D01*
X83076Y-30171D01*
X83155Y-29995D01*
X83230Y-29816D01*
X83301Y-29636D01*
X83368Y-29455D01*
X83430Y-29272D01*
X83487Y-29087D01*
X83540Y-28901D01*
X83589Y-28714D01*
X83633Y-28526D01*
X83672Y-28337D01*
X83707Y-28147D01*
X83737Y-27956D01*
X83763Y-27764D01*
X83784Y-27572D01*
X83800Y-27379D01*
X83812Y-27186D01*
X83819Y-26993D01*
X83821Y-26800D01*
X83820Y-26800D02*
X83820Y-26769D01*
X83811Y-26034D01*
X83785Y-25299D01*
X83741Y-24565D01*
X83680Y-23832D01*
X83601Y-23101D01*
X83505Y-22372D01*
X83392Y-21645D01*
X83262Y-20921D01*
X83114Y-20201D01*
X82949Y-19484D01*
X82767Y-18772D01*
X82568Y-18064D01*
X82353Y-17361D01*
X82121Y-16663D01*
X81872Y-15971D01*
X81607Y-15285D01*
X81325Y-14606D01*
X81028Y-13933D01*
X80714Y-13268D01*
X80385Y-12610D01*
X80040Y-11961D01*
X79680Y-11319D01*
X79305Y-10687D01*
X78915Y-10064D01*
X78510Y-9450D01*
X78091Y-8846D01*
X77657Y-8252D01*
X77209Y-7669D01*
X76748Y-7096D01*
X76273Y-6534D01*
X75785Y-5984D01*
X75284Y-5446D01*
X74770Y-4920D01*
X72390Y-4920D01*
X63500Y-33122D02*
X-45111Y-33122D01*
X63500Y-33121D02*
X63590Y-33123D01*
X63680Y-33128D01*
X63769Y-33138D01*
X63858Y-33151D01*
X63947Y-33167D01*
X64034Y-33188D01*
X64121Y-33212D01*
X64207Y-33239D01*
X64291Y-33270D01*
X64374Y-33304D01*
X64456Y-33342D01*
X64536Y-33383D01*
X64614Y-33428D01*
X64691Y-33475D01*
X64765Y-33526D01*
X64837Y-33580D01*
X64907Y-33637D01*
X64974Y-33696D01*
X65039Y-33759D01*
X65122Y-33840D01*
X65208Y-33918D01*
X65297Y-33993D01*
X65388Y-34065D01*
X65481Y-34134D01*
X65576Y-34200D01*
X65674Y-34263D01*
X65773Y-34323D01*
X65875Y-34379D01*
X65978Y-34432D01*
X66083Y-34482D01*
X66190Y-34528D01*
X66298Y-34571D01*
X66407Y-34610D01*
X66517Y-34645D01*
X66629Y-34677D01*
X66742Y-34705D01*
X66855Y-34730D01*
X66969Y-34751D01*
X67084Y-34768D01*
X67199Y-34781D01*
X67315Y-34790D01*
X67431Y-34796D01*
X67547Y-34798D01*
X75822Y-34798D01*
D29*
X-55626Y31936D03*
D21*
X-54356Y30666D01*
X-54356Y17729D01*
D29*
X-54356Y17729D03*
D21*
X12446Y8841D02*
X12449Y9057D01*
X12456Y9273D01*
X12469Y9488D01*
X12488Y9704D01*
X12511Y9918D01*
X12540Y10133D01*
X12574Y10346D01*
X12613Y10558D01*
X12657Y10770D01*
X12706Y10980D01*
X12760Y11189D01*
X12819Y11397D01*
X12884Y11603D01*
X12953Y11808D01*
X13027Y12011D01*
X13106Y12212D01*
X13190Y12411D01*
X13278Y12608D01*
X13372Y12803D01*
X13470Y12995D01*
X13573Y13185D01*
X13680Y13373D01*
X13792Y13558D01*
X13908Y13740D01*
X14028Y13919D01*
X14153Y14095D01*
X14282Y14268D01*
X14415Y14438D01*
X14553Y14605D01*
X14694Y14769D01*
X14839Y14929D01*
X14988Y15085D01*
X15141Y15238D01*
X15297Y15387D01*
X15457Y15532D01*
X15621Y15673D01*
X15788Y15811D01*
X15958Y15944D01*
X16131Y16073D01*
X16307Y16198D01*
X16486Y16318D01*
X16668Y16434D01*
X16853Y16546D01*
X17041Y16653D01*
X17231Y16756D01*
X17423Y16854D01*
X17618Y16948D01*
X17815Y17036D01*
X18014Y17120D01*
X18215Y17199D01*
X18418Y17273D01*
X18623Y17342D01*
X18829Y17407D01*
X19037Y17466D01*
X19246Y17520D01*
X19456Y17569D01*
X19668Y17613D01*
X19880Y17652D01*
X20093Y17686D01*
X20308Y17715D01*
X20522Y17738D01*
X20738Y17757D01*
X20953Y17770D01*
X21169Y17777D01*
X21385Y17780D01*
X26670Y17780D01*
D29*
X26670Y17780D03*
X27330Y-39980D03*
D21*
X69888Y-44920D02*
X72390Y-44920D01*
X69889Y-44919D02*
X69443Y-44485D01*
X68988Y-44060D01*
X68523Y-43647D01*
X68048Y-43246D01*
X67563Y-42855D01*
X67069Y-42476D01*
X66567Y-42109D01*
X66056Y-41754D01*
X65536Y-41412D01*
X65009Y-41082D01*
X64474Y-40764D01*
X63931Y-40459D01*
X63381Y-40168D01*
X62825Y-39889D01*
X62262Y-39624D01*
X61693Y-39372D01*
X61118Y-39134D01*
X60537Y-38910D01*
X59952Y-38699D01*
X59361Y-38503D01*
X58766Y-38320D01*
X58167Y-38152D01*
X57564Y-37998D01*
X56958Y-37859D01*
X56348Y-37734D01*
X55736Y-37623D01*
X55121Y-37527D01*
X54504Y-37446D01*
X53885Y-37379D01*
X53265Y-37328D01*
X52644Y-37291D01*
X52022Y-37268D01*
X51400Y-37261D01*
X51400Y-37262D02*
X27356Y-37262D01*
X27330Y-37287D01*
X27330Y-39980D01*
D26*
X72390Y75080D02*
X71708Y75133D01*
X71026Y75203D01*
X70347Y75289D01*
X69669Y75392D01*
X68995Y75512D01*
X68324Y75648D01*
X67656Y75800D01*
X66992Y75968D01*
X66332Y76153D01*
X65677Y76353D01*
X65027Y76570D01*
X64383Y76802D01*
X63745Y77050D01*
X63112Y77313D01*
X62487Y77592D01*
X61868Y77886D01*
X61257Y78195D01*
X60653Y78519D01*
X60057Y78857D01*
X59470Y79210D01*
X58892Y79577D01*
X58323Y79958D01*
X57763Y80353D01*
X57213Y80761D01*
X56673Y81183D01*
X56144Y81617D01*
X55625Y82065D01*
X55117Y82525D01*
X55117Y82524D02*
X-20013Y80077D01*
X-21325Y78764D01*
D30*
X-108204Y84074D03*
X-83820Y60198D03*
X139700Y8890D03*
X40132Y-129794D03*
X8128Y-121158D03*
X-113792Y-75692D03*
D23*
X-108575Y-87972D01*
X-101694Y-104168D01*
X-108575Y-87972D02*
X-91498Y-78220D01*
X52980Y-129379D02*
X67645Y-128906D01*
X52980Y-129379D02*
X46484Y-129589D01*
X40132Y-129794D01*
X46484Y-129589D02*
X46117Y-111191D01*
X133118Y18094D02*
X143500Y24500D01*
X133118Y18094D02*
X120000Y9500D01*
X133118Y18094D02*
X139700Y8890D01*
X24530Y133256D02*
X21043Y144047D01*
D30*
X46736Y138938D03*
D23*
X24530Y133256D02*
X28301Y122905D01*
X31806Y135118D02*
X46736Y138938D01*
X31806Y135118D02*
X24530Y133256D01*
X-127407Y64526D02*
X-130495Y64527D01*
X-127407Y64526D02*
X-125162Y66772D01*
X-106964Y66772D02*
X-106934Y66802D01*
X-106964Y66772D02*
X-125162Y66772D01*
X-106934Y66802D02*
X-102666Y62848D01*
X-83820Y60198D01*
X-106964Y66772D02*
X-108204Y84074D01*
X28301Y122905D02*
X31806Y135118D01*
X6731Y-119761D02*
X8128Y-121158D01*
X6731Y-119761D02*
X-64048Y-119761D01*
X-65355Y-119745D01*
X-66660Y-119697D01*
X-67964Y-119617D01*
X-69266Y-119505D01*
X-70565Y-119361D01*
X-71860Y-119185D01*
X-73150Y-118977D01*
X-74434Y-118738D01*
X-75713Y-118467D01*
X-76984Y-118166D01*
X-78247Y-117833D01*
X-79502Y-117469D01*
X-80748Y-117074D01*
X-81983Y-116649D01*
X-83208Y-116194D01*
X-84421Y-115709D01*
X-85622Y-115194D01*
X-86810Y-114650D01*
X-87985Y-114077D01*
X-89144Y-113475D01*
X-90289Y-112845D01*
X-91418Y-112187D01*
X-92530Y-111502D01*
X-93626Y-110789D01*
X-94703Y-110050D01*
X-95762Y-109284D01*
X-96802Y-108493D01*
X-97822Y-107677D01*
X-98822Y-106836D01*
X-99801Y-105970D01*
X-100758Y-105081D01*
X-101693Y-104168D01*
D31*
X53551Y-143197D03*
D23*
X53551Y-129951D01*
X52980Y-129379D01*
D21*
X78191Y-159887D02*
X77843Y-160291D01*
X78191Y-159887D02*
X76583Y-161747D01*
X78191Y-159887D02*
X82231Y-155215D01*
X82827Y-154509D01*
X83405Y-153790D01*
X83967Y-153057D01*
X84510Y-152311D01*
X85036Y-151552D01*
X85544Y-150781D01*
X86033Y-149998D01*
X86504Y-149203D01*
X86955Y-148398D01*
X87387Y-147582D01*
X87800Y-146756D01*
X88193Y-145921D01*
X88566Y-145076D01*
X88919Y-144223D01*
X89251Y-143362D01*
X89563Y-142493D01*
X89855Y-141617D01*
X90125Y-140734D01*
X90374Y-139845D01*
X90602Y-138950D01*
X90809Y-138050D01*
X90994Y-137146D01*
X91158Y-136237D01*
X91300Y-135325D01*
X91420Y-134410D01*
X91519Y-133492D01*
X91595Y-132572D01*
X91650Y-131650D01*
X91683Y-130727D01*
X91694Y-129804D01*
X91694Y-129805D02*
X91694Y-21003D01*
X91683Y-20039D01*
X91648Y-19076D01*
X91591Y-18113D01*
X91511Y-17153D01*
X91408Y-16194D01*
X91282Y-15238D01*
X91133Y-14286D01*
X90962Y-13337D01*
X90768Y-12393D01*
X90552Y-11453D01*
X90314Y-10519D01*
X90053Y-9591D01*
X89771Y-8669D01*
X89466Y-7754D01*
X89140Y-6847D01*
X88792Y-5948D01*
X88423Y-5057D01*
X88033Y-4176D01*
X87623Y-3304D01*
X87191Y-2442D01*
X86739Y-1590D01*
X86267Y-750D01*
X85775Y80D01*
X85264Y897D01*
X84733Y1701D01*
X84183Y2493D01*
X83615Y3272D01*
X83028Y4037D01*
X82423Y4787D01*
X81800Y5523D01*
X81160Y6244D01*
X80503Y6950D01*
X79830Y7640D01*
X72390Y15080D01*
D24*
X2450Y-169067D03*
D21*
X70028Y-161747D02*
X76583Y-161747D01*
X61712Y-170063D02*
X60966Y-170899D01*
X60199Y-171716D01*
X59413Y-172515D01*
X58608Y-173294D01*
X57784Y-174054D01*
X56942Y-174793D01*
X56082Y-175512D01*
X55205Y-176209D01*
X54311Y-176885D01*
X53402Y-177539D01*
X52476Y-178171D01*
X51536Y-178781D01*
X50580Y-179367D01*
X49611Y-179930D01*
X48629Y-180469D01*
X47634Y-180984D01*
X46627Y-181475D01*
X45608Y-181941D01*
X44577Y-182383D01*
X43537Y-182799D01*
X42487Y-183190D01*
X41427Y-183555D01*
X40359Y-183894D01*
X39283Y-184208D01*
X38200Y-184495D01*
X37110Y-184756D01*
X36015Y-184990D01*
X34913Y-185198D01*
X33807Y-185378D01*
X32697Y-185532D01*
X31584Y-185659D01*
X30468Y-185759D01*
X29350Y-185832D01*
X28230Y-185877D01*
X27109Y-185896D01*
X25989Y-185887D01*
X24869Y-185851D01*
X23750Y-185787D01*
X61712Y-170063D02*
X70028Y-161747D01*
X2450Y-169067D02*
X2450Y-171733D01*
X11380Y-180664D01*
X11381Y-180664D02*
X11688Y-180964D01*
X12002Y-181256D01*
X12324Y-181541D01*
X12653Y-181817D01*
X12988Y-182086D01*
X13329Y-182346D01*
X13677Y-182597D01*
X14031Y-182840D01*
X14391Y-183074D01*
X14757Y-183299D01*
X15128Y-183515D01*
X15504Y-183722D01*
X15885Y-183920D01*
X16271Y-184108D01*
X16661Y-184287D01*
X17056Y-184456D01*
X17454Y-184616D01*
X17857Y-184765D01*
X18263Y-184905D01*
X18672Y-185035D01*
X19084Y-185154D01*
X19500Y-185264D01*
X19917Y-185363D01*
X20337Y-185452D01*
X20759Y-185530D01*
X21183Y-185599D01*
X21609Y-185656D01*
X22035Y-185704D01*
X22463Y-185741D01*
X22892Y-185767D01*
X23321Y-185783D01*
X23750Y-185788D01*
D24*
X57785Y-10795D03*
D21*
X56622Y-11958D01*
X56233Y-12338D01*
X55835Y-12708D01*
X55429Y-13069D01*
X55014Y-13420D01*
X54590Y-13761D01*
X54159Y-14092D01*
X53720Y-14413D01*
X53274Y-14723D01*
X52820Y-15022D01*
X52359Y-15311D01*
X51892Y-15588D01*
X51418Y-15854D01*
X50937Y-16109D01*
X50451Y-16352D01*
X49959Y-16584D01*
X49462Y-16804D01*
X48960Y-17012D01*
X48453Y-17208D01*
X47942Y-17392D01*
X47426Y-17563D01*
X46906Y-17723D01*
X46383Y-17870D01*
X45856Y-18004D01*
X45326Y-18126D01*
X44794Y-18235D01*
X44259Y-18332D01*
X43722Y-18416D01*
X43183Y-18486D01*
X42642Y-18545D01*
X42100Y-18590D01*
X41558Y-18622D01*
X41015Y-18642D01*
X40471Y-18648D01*
X39960Y-159D02*
X20666Y-159D01*
X39960Y-159D02*
X40471Y352D01*
X20666Y-9159D02*
X20666Y-16774D01*
D32*
X19634Y-17831D03*
D24*
X26353Y-50533D03*
D21*
X72390Y-60046D02*
X72390Y-64920D01*
X62877Y-50534D02*
X62431Y-50098D01*
X61974Y-49673D01*
X61507Y-49259D01*
X61030Y-48856D01*
X60543Y-48465D01*
X60047Y-48086D01*
X59542Y-47720D01*
X59029Y-47365D01*
X58506Y-47023D01*
X57976Y-46694D01*
X57438Y-46377D01*
X56893Y-46074D01*
X56340Y-45784D01*
X55781Y-45507D01*
X55215Y-45244D01*
X54643Y-44995D01*
X54064Y-44760D01*
X53481Y-44538D01*
X52892Y-44331D01*
X52299Y-44138D01*
X51701Y-43960D01*
X51098Y-43796D01*
X50492Y-43647D01*
X49883Y-43512D01*
X49270Y-43392D01*
X48655Y-43287D01*
X48038Y-43197D01*
X47418Y-43122D01*
X46797Y-43061D01*
X46174Y-43016D01*
X45551Y-42986D01*
X44927Y-42971D01*
X44303Y-42971D01*
X43679Y-42986D01*
X43056Y-43016D01*
X42433Y-43061D01*
X41812Y-43122D01*
X41192Y-43197D01*
X40575Y-43287D01*
X39960Y-43392D01*
X39347Y-43512D01*
X38738Y-43647D01*
X38132Y-43796D01*
X37529Y-43960D01*
X36931Y-44138D01*
X36338Y-44331D01*
X35749Y-44538D01*
X35166Y-44760D01*
X34587Y-44995D01*
X34015Y-45244D01*
X33449Y-45507D01*
X32890Y-45784D01*
X32337Y-46074D01*
X31792Y-46377D01*
X31254Y-46694D01*
X30724Y-47023D01*
X30201Y-47365D01*
X29688Y-47720D01*
X29183Y-48086D01*
X28687Y-48465D01*
X28200Y-48856D01*
X27723Y-49259D01*
X27256Y-49673D01*
X26799Y-50098D01*
X26353Y-50534D01*
X62878Y-50533D02*
X72390Y-60046D01*
X19634Y-17831D02*
X19634Y-17805D01*
X20666Y-16774D01*
X12446Y-9159D02*
X6822Y-14783D01*
X-18821Y-14783D01*
D29*
X-18821Y-14783D03*
D24*
X84815Y-127860D03*
D21*
X84814Y-127860D02*
X84810Y-127540D01*
X84799Y-127220D01*
X84780Y-126900D01*
X84753Y-126581D01*
X84719Y-126263D01*
X84677Y-125945D01*
X84628Y-125629D01*
X84571Y-125314D01*
X84507Y-125000D01*
X84435Y-124688D01*
X84356Y-124378D01*
X84269Y-124070D01*
X84175Y-123763D01*
X84074Y-123460D01*
X83966Y-123158D01*
X83850Y-122860D01*
X83728Y-122564D01*
X83598Y-122271D01*
X83462Y-121981D01*
X83318Y-121695D01*
X83168Y-121412D01*
X83011Y-121133D01*
X82848Y-120858D01*
X82678Y-120586D01*
X82502Y-120319D01*
X82319Y-120056D01*
X82130Y-119797D01*
X81936Y-119543D01*
X81735Y-119294D01*
X81528Y-119049D01*
X81315Y-118810D01*
X81097Y-118576D01*
X80873Y-118347D01*
X80874Y-118346D02*
X58959Y-96431D01*
X58959Y-96430D02*
X58224Y-95713D01*
X57472Y-95015D01*
X56703Y-94335D01*
X55917Y-93674D01*
X55116Y-93032D01*
X54299Y-92411D01*
X53466Y-91809D01*
X52620Y-91228D01*
X51759Y-90669D01*
X50885Y-90130D01*
X49998Y-89613D01*
X49099Y-89118D01*
X48188Y-88645D01*
X47265Y-88195D01*
X46332Y-87768D01*
X45388Y-87363D01*
X44435Y-86982D01*
X43473Y-86624D01*
X42502Y-86290D01*
X41523Y-85980D01*
X40537Y-85694D01*
X39545Y-85433D01*
X38546Y-85195D01*
X37541Y-84983D01*
X36532Y-84795D01*
X35519Y-84632D01*
X34501Y-84494D01*
X33481Y-84380D01*
X32458Y-84292D01*
X31433Y-84229D01*
X30408Y-84192D01*
X29381Y-84179D01*
X28397Y-85164D01*
D24*
X28397Y-85164D03*
D21*
X-98243Y-133992D02*
X-128391Y-123565D01*
X-98243Y-133992D02*
X-92778Y-135810D01*
X-87271Y-137498D01*
X-81726Y-139055D01*
X-76146Y-140480D01*
X-70533Y-141772D01*
X-64891Y-142931D01*
X-59223Y-143956D01*
X-53533Y-144846D01*
X-47823Y-145602D01*
X-42097Y-146221D01*
X-36358Y-146705D01*
X-30609Y-147053D01*
X-24853Y-147264D01*
X-19094Y-147339D01*
X-13335Y-147277D01*
X-7578Y-147079D01*
X-1829Y-146744D01*
X3912Y-146274D01*
X9639Y-145667D01*
X15351Y-144925D01*
X21043Y-144047D01*
X6445Y155819D02*
X31241Y175432D01*
X6445Y155819D02*
X1635Y152107D01*
X-3263Y148512D01*
X-8245Y145036D01*
X-13309Y141679D01*
X-18452Y138446D01*
X-23672Y135336D01*
X-28964Y132353D01*
X-34326Y129497D01*
X-39756Y126771D01*
X-45249Y124176D01*
X-50803Y121713D01*
X-56414Y119384D01*
X-62080Y117190D01*
X-67796Y115133D01*
X-73561Y113214D01*
X-79369Y111433D01*
X-85219Y109792D01*
X-91106Y108292D01*
X-97028Y106934D01*
X-101694Y104168D01*
X67645Y128906D02*
X176500Y24500D01*
X-146927Y50290D02*
X-157193Y83924D01*
X-146927Y50290D02*
X-144414Y41693D01*
X-142105Y33038D01*
X-140002Y24331D01*
X-138106Y15577D01*
X-136419Y6780D01*
X-134940Y-2054D01*
X-133671Y-10921D01*
X-132612Y-19815D01*
X-131765Y-28732D01*
X-131129Y-37667D01*
X-130706Y-46614D01*
X-130494Y-55569D01*
X-130495Y-64526D01*
X143500Y-27772D02*
X143500Y-24500D01*
X143500Y-27772D02*
X122608Y-48665D01*
X121633Y-49663D01*
X120682Y-50685D01*
X119756Y-51728D01*
X118855Y-52793D01*
X117979Y-53880D01*
X117130Y-54987D01*
X116307Y-56114D01*
X115511Y-57260D01*
X114743Y-58425D01*
X114003Y-59607D01*
X113291Y-60807D01*
X112608Y-62024D01*
X111953Y-63257D01*
X111329Y-64504D01*
X110734Y-65767D01*
X110170Y-67043D01*
X109636Y-68332D01*
X109133Y-69633D01*
X108661Y-70946D01*
X108220Y-72270D01*
X107811Y-73604D01*
X107434Y-74948D01*
X107089Y-76300D01*
X106776Y-77660D01*
X106496Y-79026D01*
X106248Y-80400D01*
X106033Y-81778D01*
X105851Y-83162D01*
X105701Y-84549D01*
X105585Y-85939D01*
X105502Y-87332D01*
X105453Y-88727D01*
X105436Y-90122D01*
D24*
X98628Y-103835D03*
D21*
X105608Y-93430D02*
X105608Y-90295D01*
X105608Y-93430D02*
X105606Y-93627D01*
X105599Y-93823D01*
X105587Y-94020D01*
X105571Y-94216D01*
X105550Y-94412D01*
X105524Y-94607D01*
X105494Y-94801D01*
X105459Y-94995D01*
X105419Y-95188D01*
X105375Y-95379D01*
X105326Y-95570D01*
X105273Y-95760D01*
X105215Y-95948D01*
X105153Y-96135D01*
X105087Y-96320D01*
X105016Y-96503D01*
X104940Y-96685D01*
X104861Y-96865D01*
X104777Y-97043D01*
X104689Y-97219D01*
X104597Y-97393D01*
X104500Y-97564D01*
X104400Y-97734D01*
X104295Y-97901D01*
X104187Y-98065D01*
X104075Y-98226D01*
X103959Y-98385D01*
X103839Y-98542D01*
X103715Y-98695D01*
X103588Y-98845D01*
X103458Y-98992D01*
X103324Y-99136D01*
X103186Y-99277D01*
X98628Y-103835D01*
X105608Y-90295D02*
X105435Y-90122D01*
X95857Y-21574D02*
X95834Y-19667D01*
X95766Y-17762D01*
X95653Y-15858D01*
X95494Y-13958D01*
X95290Y-12062D01*
X95041Y-10172D01*
X94748Y-8288D01*
X94409Y-6411D01*
X94026Y-4543D01*
X93599Y-2685D01*
X93127Y-837D01*
X92612Y999D01*
X92053Y2822D01*
X91450Y4631D01*
X90805Y6425D01*
X90118Y8204D01*
X89388Y9966D01*
X88617Y11709D01*
X87804Y13434D01*
X86950Y15140D01*
X86057Y16824D01*
X85123Y18487D01*
X84150Y20126D01*
X83138Y21743D01*
X82088Y23334D01*
X81001Y24901D01*
X79876Y26441D01*
X78715Y27954D01*
X77519Y29438D01*
X76287Y30894D01*
X75022Y32320D01*
X73722Y33716D01*
X72390Y35080D01*
D24*
X98651Y-92913D03*
X83922Y-95682D03*
D21*
X70245Y-95682D02*
X69891Y-95678D01*
X69537Y-95665D01*
X69184Y-95644D01*
X68831Y-95615D01*
X68479Y-95577D01*
X68128Y-95531D01*
X67778Y-95476D01*
X67430Y-95413D01*
X67083Y-95342D01*
X66738Y-95263D01*
X66395Y-95175D01*
X66055Y-95080D01*
X65716Y-94976D01*
X65380Y-94864D01*
X65047Y-94744D01*
X64717Y-94617D01*
X64390Y-94481D01*
X64066Y-94338D01*
X63746Y-94187D01*
X63429Y-94029D01*
X63117Y-93863D01*
X62808Y-93689D01*
X62504Y-93509D01*
X62204Y-93321D01*
X61908Y-93126D01*
X61617Y-92924D01*
X61331Y-92715D01*
X61051Y-92500D01*
X60775Y-92278D01*
X60505Y-92049D01*
X60240Y-91814D01*
X59981Y-91573D01*
X59727Y-91326D01*
X70245Y-95682D02*
X83922Y-95682D01*
X25788Y-77267D02*
X22226Y-77267D01*
X25788Y-77267D02*
X26930Y-77281D01*
X28072Y-77321D01*
X29212Y-77389D01*
X30351Y-77484D01*
X31486Y-77606D01*
X32619Y-77756D01*
X33748Y-77932D01*
X34872Y-78134D01*
X35991Y-78364D01*
X37104Y-78620D01*
X38211Y-78902D01*
X39311Y-79211D01*
X40403Y-79546D01*
X41487Y-79907D01*
X42562Y-80293D01*
X43627Y-80705D01*
X44682Y-81142D01*
X45727Y-81604D01*
X46760Y-82091D01*
X47782Y-82603D01*
X48791Y-83138D01*
X49787Y-83698D01*
X50769Y-84280D01*
X51738Y-84887D01*
X52691Y-85516D01*
X53630Y-86167D01*
X54552Y-86841D01*
X55458Y-87536D01*
X56348Y-88253D01*
X57220Y-88991D01*
X58074Y-89749D01*
X58910Y-90527D01*
X59728Y-91325D01*
X3480Y-97979D02*
X3480Y-104064D01*
X3480Y-97979D02*
X3486Y-97453D01*
X3505Y-96927D01*
X3536Y-96402D01*
X3580Y-95878D01*
X3636Y-95355D01*
X3705Y-94833D01*
X3786Y-94314D01*
X3879Y-93796D01*
X3985Y-93281D01*
X4103Y-92768D01*
X4233Y-92258D01*
X4375Y-91752D01*
X4530Y-91249D01*
X4696Y-90750D01*
X4874Y-90255D01*
X5063Y-89764D01*
X5265Y-89278D01*
X5477Y-88797D01*
X5702Y-88321D01*
X5937Y-87851D01*
X6184Y-87386D01*
X6441Y-86928D01*
X6710Y-86475D01*
X6989Y-86029D01*
X7278Y-85590D01*
X7578Y-85158D01*
X7889Y-84733D01*
X8209Y-84316D01*
X8539Y-83906D01*
X8879Y-83505D01*
X9228Y-83111D01*
X9586Y-82726D01*
X9954Y-82350D01*
X10259Y-82053D01*
X10571Y-81763D01*
X10890Y-81481D01*
X11216Y-81206D01*
X11549Y-80940D01*
X11888Y-80682D01*
X12233Y-80433D01*
X12584Y-80192D01*
X12941Y-79960D01*
X13304Y-79736D01*
X13672Y-79522D01*
X14045Y-79316D01*
X14423Y-79120D01*
X14806Y-78933D01*
X15193Y-78756D01*
X15585Y-78588D01*
X15980Y-78430D01*
X16379Y-78282D01*
X16782Y-78143D01*
X17188Y-78014D01*
X17597Y-77896D01*
X18009Y-77787D01*
X18423Y-77689D01*
X18840Y-77600D01*
X19259Y-77523D01*
X19679Y-77455D01*
X20102Y-77398D01*
X20525Y-77351D01*
X20949Y-77314D01*
X21374Y-77288D01*
X21800Y-77272D01*
X22226Y-77267D01*
D24*
X3480Y-104064D03*
D21*
X95857Y-86168D02*
X95857Y-21574D01*
X95857Y-86168D02*
X95860Y-86395D01*
X95868Y-86622D01*
X95881Y-86849D01*
X95900Y-87075D01*
X95924Y-87300D01*
X95954Y-87526D01*
X95989Y-87750D01*
X96029Y-87973D01*
X96075Y-88196D01*
X96126Y-88417D01*
X96182Y-88637D01*
X96243Y-88855D01*
X96310Y-89072D01*
X96382Y-89288D01*
X96458Y-89502D01*
X96540Y-89713D01*
X96627Y-89923D01*
X96719Y-90131D01*
X96816Y-90336D01*
X96917Y-90539D01*
X97024Y-90740D01*
X97135Y-90938D01*
X97251Y-91133D01*
X97371Y-91325D01*
X97496Y-91515D01*
X97626Y-91701D01*
X97760Y-91885D01*
X97898Y-92065D01*
X98040Y-92241D01*
X98187Y-92415D01*
X98338Y-92585D01*
X98492Y-92751D01*
X98651Y-92913D01*
M02*
