G04 EAGLE Gerber RS-274X export*
G75*
%MOMM*%
%FSLAX34Y34*%
%LPD*%
%IN*%
%IPPOS*%
%AMOC8*
5,1,8,0,0,1.08239X$1,22.5*%
G01*
%ADD10C,0.254000*%


D10*
X200660Y-2463D02*
X200660Y2463D01*
X200539Y7386D01*
X200297Y12306D01*
X199935Y17217D01*
X199452Y22119D01*
X198850Y27007D01*
X198127Y31879D01*
X197285Y36732D01*
X196324Y41562D01*
X195245Y46368D01*
X194048Y51145D01*
X192735Y55892D01*
X191305Y60605D01*
X189760Y65282D01*
X188101Y69919D01*
X186328Y74514D01*
X184443Y79064D01*
X182447Y83567D01*
X180342Y88019D01*
X178127Y92419D01*
X175805Y96762D01*
X173378Y101048D01*
X170846Y105272D01*
X168211Y109433D01*
X165475Y113528D01*
X162639Y117555D01*
X159705Y121511D01*
X156675Y125394D01*
X153550Y129201D01*
X150333Y132930D01*
X147025Y136580D01*
X143629Y140147D01*
X140147Y143629D01*
X136580Y147025D01*
X132930Y150333D01*
X129201Y153550D01*
X125394Y156675D01*
X121511Y159705D01*
X117555Y162639D01*
X113528Y165475D01*
X109433Y168211D01*
X105272Y170846D01*
X101048Y173378D01*
X96762Y175805D01*
X92419Y178127D01*
X88019Y180342D01*
X83567Y182447D01*
X79064Y184443D01*
X74514Y186328D01*
X69919Y188101D01*
X65282Y189760D01*
X60605Y191305D01*
X55892Y192735D01*
X51145Y194048D01*
X46368Y195245D01*
X41562Y196324D01*
X36732Y197285D01*
X31879Y198127D01*
X27007Y198850D01*
X22119Y199452D01*
X17217Y199935D01*
X12306Y200297D01*
X7386Y200539D01*
X2463Y200660D01*
X-2463Y200660D01*
X-7386Y200539D01*
X-12306Y200297D01*
X-17217Y199935D01*
X-22119Y199452D01*
X-27007Y198850D01*
X-31879Y198127D01*
X-36732Y197285D01*
X-41562Y196324D01*
X-46368Y195245D01*
X-51145Y194048D01*
X-55892Y192735D01*
X-60605Y191305D01*
X-65282Y189760D01*
X-69919Y188101D01*
X-74514Y186328D01*
X-79064Y184443D01*
X-83567Y182447D01*
X-88019Y180342D01*
X-92419Y178127D01*
X-96762Y175805D01*
X-101048Y173378D01*
X-105272Y170846D01*
X-109433Y168211D01*
X-113528Y165475D01*
X-117555Y162639D01*
X-121511Y159705D01*
X-125394Y156675D01*
X-129201Y153550D01*
X-132930Y150333D01*
X-136580Y147025D01*
X-140147Y143629D01*
X-143629Y140147D01*
X-147025Y136580D01*
X-150333Y132930D01*
X-153550Y129201D01*
X-156675Y125394D01*
X-159705Y121511D01*
X-162639Y117555D01*
X-165475Y113528D01*
X-168211Y109433D01*
X-170846Y105272D01*
X-173378Y101048D01*
X-175805Y96762D01*
X-178127Y92419D01*
X-180342Y88019D01*
X-182447Y83567D01*
X-184443Y79064D01*
X-186328Y74514D01*
X-188101Y69919D01*
X-189760Y65282D01*
X-191305Y60605D01*
X-192735Y55892D01*
X-194048Y51145D01*
X-195245Y46368D01*
X-196324Y41562D01*
X-197285Y36732D01*
X-198127Y31879D01*
X-198850Y27007D01*
X-199452Y22119D01*
X-199935Y17217D01*
X-200297Y12306D01*
X-200539Y7386D01*
X-200660Y2463D01*
X-200660Y-2463D01*
X-200539Y-7386D01*
X-200297Y-12306D01*
X-199935Y-17217D01*
X-199452Y-22119D01*
X-198850Y-27007D01*
X-198127Y-31879D01*
X-197285Y-36732D01*
X-196324Y-41562D01*
X-195245Y-46368D01*
X-194048Y-51145D01*
X-192735Y-55892D01*
X-191305Y-60605D01*
X-189760Y-65282D01*
X-188101Y-69919D01*
X-186328Y-74514D01*
X-184443Y-79064D01*
X-182447Y-83567D01*
X-180342Y-88019D01*
X-178127Y-92419D01*
X-175805Y-96762D01*
X-173378Y-101048D01*
X-170846Y-105272D01*
X-168211Y-109433D01*
X-165475Y-113528D01*
X-162639Y-117555D01*
X-159705Y-121511D01*
X-156675Y-125394D01*
X-153550Y-129201D01*
X-150333Y-132930D01*
X-147025Y-136580D01*
X-143629Y-140147D01*
X-140147Y-143629D01*
X-136580Y-147025D01*
X-132930Y-150333D01*
X-129201Y-153550D01*
X-125394Y-156675D01*
X-121511Y-159705D01*
X-117555Y-162639D01*
X-113528Y-165475D01*
X-109433Y-168211D01*
X-105272Y-170846D01*
X-101048Y-173378D01*
X-96762Y-175805D01*
X-92419Y-178127D01*
X-88019Y-180342D01*
X-83567Y-182447D01*
X-79064Y-184443D01*
X-74514Y-186328D01*
X-69919Y-188101D01*
X-65282Y-189760D01*
X-60605Y-191305D01*
X-55892Y-192735D01*
X-51145Y-194048D01*
X-46368Y-195245D01*
X-41562Y-196324D01*
X-36732Y-197285D01*
X-31879Y-198127D01*
X-27007Y-198850D01*
X-22119Y-199452D01*
X-17217Y-199935D01*
X-12306Y-200297D01*
X-7386Y-200539D01*
X-2463Y-200660D01*
X2463Y-200660D01*
X7386Y-200539D01*
X12306Y-200297D01*
X17217Y-199935D01*
X22119Y-199452D01*
X27007Y-198850D01*
X31879Y-198127D01*
X36732Y-197285D01*
X41562Y-196324D01*
X46368Y-195245D01*
X51145Y-194048D01*
X55892Y-192735D01*
X60605Y-191305D01*
X65282Y-189760D01*
X69919Y-188101D01*
X74514Y-186328D01*
X79064Y-184443D01*
X83567Y-182447D01*
X88019Y-180342D01*
X92419Y-178127D01*
X96762Y-175805D01*
X101048Y-173378D01*
X105272Y-170846D01*
X109433Y-168211D01*
X113528Y-165475D01*
X117555Y-162639D01*
X121511Y-159705D01*
X125394Y-156675D01*
X129201Y-153550D01*
X132930Y-150333D01*
X136580Y-147025D01*
X140147Y-143629D01*
X143629Y-140147D01*
X147025Y-136580D01*
X150333Y-132930D01*
X153550Y-129201D01*
X156675Y-125394D01*
X159705Y-121511D01*
X162639Y-117555D01*
X165475Y-113528D01*
X168211Y-109433D01*
X170846Y-105272D01*
X173378Y-101048D01*
X175805Y-96762D01*
X178127Y-92419D01*
X180342Y-88019D01*
X182447Y-83567D01*
X184443Y-79064D01*
X186328Y-74514D01*
X188101Y-69919D01*
X189760Y-65282D01*
X191305Y-60605D01*
X192735Y-55892D01*
X194048Y-51145D01*
X195245Y-46368D01*
X196324Y-41562D01*
X197285Y-36732D01*
X198127Y-31879D01*
X198850Y-27007D01*
X199452Y-22119D01*
X199935Y-17217D01*
X200297Y-12306D01*
X200539Y-7386D01*
X200660Y-2463D01*
X153500Y-105524D02*
X153432Y-106569D01*
X153295Y-107608D01*
X153090Y-108635D01*
X152819Y-109647D01*
X152483Y-110639D01*
X152082Y-111607D01*
X151618Y-112546D01*
X151095Y-113454D01*
X150513Y-114325D01*
X149875Y-115156D01*
X149184Y-115943D01*
X148443Y-116684D01*
X147656Y-117375D01*
X146825Y-118013D01*
X145954Y-118595D01*
X145046Y-119118D01*
X144107Y-119582D01*
X143139Y-119983D01*
X142147Y-120319D01*
X141135Y-120590D01*
X140108Y-120795D01*
X139069Y-120932D01*
X138024Y-121000D01*
X136976Y-121000D01*
X135931Y-120932D01*
X134892Y-120795D01*
X133865Y-120590D01*
X132853Y-120319D01*
X131861Y-119983D01*
X130893Y-119582D01*
X129954Y-119118D01*
X129046Y-118595D01*
X128175Y-118013D01*
X127344Y-117375D01*
X126557Y-116684D01*
X125816Y-115943D01*
X125125Y-115156D01*
X124488Y-114325D01*
X123906Y-113454D01*
X123382Y-112546D01*
X122918Y-111607D01*
X122517Y-110639D01*
X122181Y-109647D01*
X121910Y-108635D01*
X121705Y-107608D01*
X121569Y-106569D01*
X121500Y-105524D01*
X121500Y-104476D01*
X121569Y-103431D01*
X121705Y-102392D01*
X121910Y-101365D01*
X122181Y-100353D01*
X122517Y-99361D01*
X122918Y-98393D01*
X123382Y-97454D01*
X123906Y-96546D01*
X124488Y-95675D01*
X125125Y-94844D01*
X125816Y-94057D01*
X126557Y-93316D01*
X127344Y-92625D01*
X128175Y-91988D01*
X129046Y-91406D01*
X129954Y-90882D01*
X130893Y-90418D01*
X131861Y-90017D01*
X132853Y-89681D01*
X133865Y-89410D01*
X134892Y-89205D01*
X135931Y-89069D01*
X136976Y-89000D01*
X138024Y-89000D01*
X139069Y-89069D01*
X140108Y-89205D01*
X141135Y-89410D01*
X142147Y-89681D01*
X143139Y-90017D01*
X144107Y-90418D01*
X145046Y-90882D01*
X145954Y-91406D01*
X146825Y-91988D01*
X147656Y-92625D01*
X148443Y-93316D01*
X149184Y-94057D01*
X149875Y-94844D01*
X150513Y-95675D01*
X151095Y-96546D01*
X151618Y-97454D01*
X152082Y-98393D01*
X152483Y-99361D01*
X152819Y-100353D01*
X153090Y-101365D01*
X153295Y-102392D01*
X153432Y-103431D01*
X153500Y-104476D01*
X153500Y-105524D01*
X-156500Y6976D02*
X-156569Y5931D01*
X-156705Y4892D01*
X-156910Y3865D01*
X-157181Y2853D01*
X-157517Y1861D01*
X-157918Y893D01*
X-158382Y-46D01*
X-158906Y-954D01*
X-159488Y-1825D01*
X-160125Y-2656D01*
X-160816Y-3443D01*
X-161557Y-4184D01*
X-162344Y-4875D01*
X-163175Y-5513D01*
X-164046Y-6095D01*
X-164954Y-6618D01*
X-165893Y-7082D01*
X-166861Y-7483D01*
X-167853Y-7819D01*
X-168865Y-8090D01*
X-169892Y-8295D01*
X-170931Y-8432D01*
X-171976Y-8500D01*
X-173024Y-8500D01*
X-174069Y-8432D01*
X-175108Y-8295D01*
X-176135Y-8090D01*
X-177147Y-7819D01*
X-178139Y-7483D01*
X-179107Y-7082D01*
X-180046Y-6618D01*
X-180954Y-6095D01*
X-181825Y-5513D01*
X-182656Y-4875D01*
X-183443Y-4184D01*
X-184184Y-3443D01*
X-184875Y-2656D01*
X-185513Y-1825D01*
X-186095Y-954D01*
X-186618Y-46D01*
X-187082Y893D01*
X-187483Y1861D01*
X-187819Y2853D01*
X-188090Y3865D01*
X-188295Y4892D01*
X-188432Y5931D01*
X-188500Y6976D01*
X-188500Y8024D01*
X-188432Y9069D01*
X-188295Y10108D01*
X-188090Y11135D01*
X-187819Y12147D01*
X-187483Y13139D01*
X-187082Y14107D01*
X-186618Y15046D01*
X-186095Y15954D01*
X-185513Y16825D01*
X-184875Y17656D01*
X-184184Y18443D01*
X-183443Y19184D01*
X-182656Y19875D01*
X-181825Y20513D01*
X-180954Y21095D01*
X-180046Y21618D01*
X-179107Y22082D01*
X-178139Y22483D01*
X-177147Y22819D01*
X-176135Y23090D01*
X-175108Y23295D01*
X-174069Y23432D01*
X-173024Y23500D01*
X-171976Y23500D01*
X-170931Y23432D01*
X-169892Y23295D01*
X-168865Y23090D01*
X-167853Y22819D01*
X-166861Y22483D01*
X-165893Y22082D01*
X-164954Y21618D01*
X-164046Y21095D01*
X-163175Y20513D01*
X-162344Y19875D01*
X-161557Y19184D01*
X-160816Y18443D01*
X-160125Y17656D01*
X-159488Y16825D01*
X-158906Y15954D01*
X-158382Y15046D01*
X-157918Y14107D01*
X-157517Y13139D01*
X-157181Y12147D01*
X-156910Y11135D01*
X-156705Y10108D01*
X-156569Y9069D01*
X-156500Y8024D01*
X-156500Y6976D01*
X146000Y114476D02*
X145932Y113431D01*
X145795Y112392D01*
X145590Y111365D01*
X145319Y110353D01*
X144983Y109361D01*
X144582Y108393D01*
X144118Y107454D01*
X143595Y106546D01*
X143013Y105675D01*
X142375Y104844D01*
X141684Y104057D01*
X140943Y103316D01*
X140156Y102625D01*
X139325Y101988D01*
X138454Y101406D01*
X137546Y100882D01*
X136607Y100418D01*
X135639Y100017D01*
X134647Y99681D01*
X133635Y99410D01*
X132608Y99205D01*
X131569Y99069D01*
X130524Y99000D01*
X129476Y99000D01*
X128431Y99069D01*
X127392Y99205D01*
X126365Y99410D01*
X125353Y99681D01*
X124361Y100017D01*
X123393Y100418D01*
X122454Y100882D01*
X121546Y101406D01*
X120675Y101988D01*
X119844Y102625D01*
X119057Y103316D01*
X118316Y104057D01*
X117625Y104844D01*
X116988Y105675D01*
X116406Y106546D01*
X115882Y107454D01*
X115418Y108393D01*
X115017Y109361D01*
X114681Y110353D01*
X114410Y111365D01*
X114205Y112392D01*
X114069Y113431D01*
X114000Y114476D01*
X114000Y115524D01*
X114069Y116569D01*
X114205Y117608D01*
X114410Y118635D01*
X114681Y119647D01*
X115017Y120639D01*
X115418Y121607D01*
X115882Y122546D01*
X116406Y123454D01*
X116988Y124325D01*
X117625Y125156D01*
X118316Y125943D01*
X119057Y126684D01*
X119844Y127375D01*
X120675Y128013D01*
X121546Y128595D01*
X122454Y129118D01*
X123393Y129582D01*
X124361Y129983D01*
X125353Y130319D01*
X126365Y130590D01*
X127392Y130795D01*
X128431Y130932D01*
X129476Y131000D01*
X130524Y131000D01*
X131569Y130932D01*
X132608Y130795D01*
X133635Y130590D01*
X134647Y130319D01*
X135639Y129983D01*
X136607Y129582D01*
X137546Y129118D01*
X138454Y128595D01*
X139325Y128013D01*
X140156Y127375D01*
X140943Y126684D01*
X141684Y125943D01*
X142375Y125156D01*
X143013Y124325D01*
X143595Y123454D01*
X144118Y122546D01*
X144582Y121607D01*
X144983Y120639D01*
X145319Y119647D01*
X145590Y118635D01*
X145795Y117608D01*
X145932Y116569D01*
X146000Y115524D01*
X146000Y114476D01*
M02*
