G04 EAGLE Gerber RS-274X export*
G75*
%MOMM*%
%FSLAX34Y34*%
%LPD*%
%INSolderpaste Top*%
%IPPOS*%
%AMOC8*
5,1,8,0,0,1.08239X$1,22.5*%
G01*
%ADD10R,1.500000X0.900000*%
%ADD11R,0.900000X1.500000*%
%ADD12R,1.500000X1.300000*%
%ADD13R,1.300000X1.500000*%
%ADD14R,1.600000X0.700000*%
%ADD15R,0.550000X0.300000*%


D10*
G36*
X-129158Y-114853D02*
X-120343Y-126987D01*
X-127624Y-132277D01*
X-136439Y-120143D01*
X-129158Y-114853D01*
G37*
G36*
X-102460Y-95456D02*
X-93645Y-107590D01*
X-100926Y-112880D01*
X-109741Y-100746D01*
X-102460Y-95456D01*
G37*
G36*
X-157960Y-75212D02*
X-149145Y-87346D01*
X-156426Y-92636D01*
X-165241Y-80502D01*
X-157960Y-75212D01*
G37*
G36*
X-131262Y-55815D02*
X-122447Y-67949D01*
X-129728Y-73239D01*
X-138543Y-61105D01*
X-131262Y-55815D01*
G37*
G36*
X69320Y-158329D02*
X83585Y-153694D01*
X86366Y-162253D01*
X72101Y-166888D01*
X69320Y-158329D01*
G37*
G36*
X59122Y-126944D02*
X73387Y-122309D01*
X76168Y-130868D01*
X61903Y-135503D01*
X59122Y-126944D01*
G37*
G36*
X22718Y-173470D02*
X36983Y-168835D01*
X39764Y-177394D01*
X25499Y-182029D01*
X22718Y-173470D01*
G37*
G36*
X12520Y-142085D02*
X26785Y-137450D01*
X29566Y-146009D01*
X15301Y-150644D01*
X12520Y-142085D01*
G37*
D11*
X176500Y24500D03*
X143500Y24500D03*
X176500Y-24500D03*
X143500Y-24500D03*
D10*
G36*
X36983Y168835D02*
X22718Y173470D01*
X25499Y182029D01*
X39764Y177394D01*
X36983Y168835D01*
G37*
G36*
X26785Y137450D02*
X12520Y142085D01*
X15301Y150644D01*
X29566Y146009D01*
X26785Y137450D01*
G37*
G36*
X83585Y153694D02*
X69320Y158329D01*
X72101Y166888D01*
X86366Y162253D01*
X83585Y153694D01*
G37*
G36*
X73387Y122309D02*
X59122Y126944D01*
X61903Y135503D01*
X76168Y130868D01*
X73387Y122309D01*
G37*
G36*
X-149145Y87346D02*
X-157960Y75212D01*
X-165241Y80502D01*
X-156426Y92636D01*
X-149145Y87346D01*
G37*
G36*
X-122447Y67949D02*
X-131262Y55815D01*
X-138543Y61105D01*
X-129728Y73239D01*
X-122447Y67949D01*
G37*
G36*
X-120343Y126987D02*
X-129158Y114853D01*
X-136439Y120143D01*
X-127624Y132277D01*
X-120343Y126987D01*
G37*
G36*
X-93645Y107590D02*
X-102460Y95456D01*
X-109741Y100746D01*
X-100926Y112880D01*
X-93645Y107590D01*
G37*
D12*
X118760Y8230D03*
X118760Y-10770D03*
D13*
G36*
X42253Y120332D02*
X54616Y116315D01*
X49981Y102050D01*
X37618Y106067D01*
X42253Y120332D01*
G37*
G36*
X24183Y126204D02*
X36546Y122187D01*
X31911Y107922D01*
X19548Y111939D01*
X24183Y126204D01*
G37*
G36*
X-101386Y77370D02*
X-93745Y87886D01*
X-81610Y79070D01*
X-89251Y68554D01*
X-101386Y77370D01*
G37*
G36*
X-112554Y61998D02*
X-104913Y72514D01*
X-92778Y63698D01*
X-100419Y53182D01*
X-112554Y61998D01*
G37*
G36*
X-104913Y-72514D02*
X-112554Y-61998D01*
X-100419Y-53182D01*
X-92778Y-63698D01*
X-104913Y-72514D01*
G37*
G36*
X-93745Y-87886D02*
X-101386Y-77370D01*
X-89251Y-68554D01*
X-81610Y-79070D01*
X-93745Y-87886D01*
G37*
G36*
X36546Y-122187D02*
X24183Y-126204D01*
X19548Y-111939D01*
X31911Y-107922D01*
X36546Y-122187D01*
G37*
G36*
X54616Y-116315D02*
X42253Y-120332D01*
X37618Y-106067D01*
X49981Y-102050D01*
X54616Y-116315D01*
G37*
D14*
X-35255Y-16688D03*
X-35255Y-3988D03*
X-35255Y8712D03*
X-35255Y21412D03*
D13*
X33570Y55475D03*
X52570Y55475D03*
X-11078Y-28087D03*
X7922Y-28087D03*
D12*
X-8312Y16554D03*
X-8312Y35554D03*
X92519Y-11766D03*
X92519Y7234D03*
D13*
X54976Y-24620D03*
X35976Y-24620D03*
D15*
X-57290Y-6500D03*
X-57290Y0D03*
X-57290Y6500D03*
X-74790Y-6500D03*
X-74790Y0D03*
X-74790Y6500D03*
M02*
