G04 EAGLE Gerber RS-274X export*
G75*
%MOMM*%
%FSLAX34Y34*%
%LPD*%
%INTop Copper*%
%IPPOS*%
%AMOC8*
5,1,8,0,0,1.08239X$1,22.5*%
G01*
%ADD10P,2.749271X8X292.500000*%
%ADD11R,2.540000X2.540000*%
%ADD12C,2.700000*%
%ADD13R,2.100000X2.100000*%
%ADD14C,2.540000*%
%ADD15C,6.350000*%


D10*
X228600Y802132D03*
D11*
X228600Y857250D03*
D12*
X355600Y760800D03*
X381000Y684600D03*
X330200Y684600D03*
X381000Y129600D03*
X330200Y129600D03*
X355600Y53400D03*
X228600Y760800D03*
X203200Y684600D03*
X254000Y684600D03*
X203200Y129600D03*
X254000Y129600D03*
X228600Y53400D03*
X101600Y52000D03*
X76200Y128200D03*
X127000Y128200D03*
X76200Y683200D03*
X127000Y683200D03*
X101600Y759400D03*
D13*
X127000Y899600D03*
X127000Y954600D03*
X330200Y899600D03*
X330200Y954600D03*
D14*
X355600Y127000D02*
X355600Y53400D01*
X355600Y129600D02*
X381000Y129600D01*
X355600Y129600D02*
X330200Y129600D01*
X228600Y685800D02*
X228600Y760800D01*
X228600Y685800D02*
X227400Y684600D01*
X203200Y684600D01*
X229800Y684600D02*
X254000Y684600D01*
X229800Y684600D02*
X228600Y685800D01*
X332800Y127000D02*
X381000Y127000D01*
X332800Y127000D02*
X330200Y129600D01*
D15*
X355600Y129600D02*
X355600Y375098D01*
X355476Y385514D01*
X355104Y395925D01*
X354485Y406323D01*
X353618Y416704D01*
X352505Y427062D01*
X351145Y437389D01*
X349540Y447682D01*
X347690Y457934D01*
X345597Y468138D01*
X343262Y478290D01*
X340686Y488384D01*
X337870Y498413D01*
X334816Y508372D01*
X331527Y518256D01*
X328003Y528059D01*
X324247Y537775D01*
X320260Y547399D01*
X316046Y556926D01*
X311606Y566349D01*
X306943Y575665D01*
X302060Y584866D01*
X296959Y593949D01*
X291644Y602908D01*
X286116Y611738D01*
X280381Y620433D01*
X274440Y628990D01*
X268297Y637403D01*
X261955Y645667D01*
X255419Y653779D01*
X248691Y661732D01*
X241776Y669523D01*
X234678Y677147D01*
X227400Y684600D01*
D14*
X101600Y88900D02*
X101600Y52000D01*
X101600Y88900D02*
X101600Y127000D01*
X100400Y128200D01*
X76200Y128200D01*
X100400Y128200D02*
X127000Y128200D01*
X228600Y88900D02*
X228600Y53400D01*
X228600Y88900D02*
X228600Y127000D01*
X226000Y129600D01*
X203200Y129600D01*
X226000Y129600D02*
X254000Y129600D01*
X201800Y128200D02*
X127000Y128200D01*
X201800Y128200D02*
X203200Y129600D01*
X227200Y52000D02*
X101600Y52000D01*
X227200Y52000D02*
X228600Y53400D01*
X228600Y88900D02*
X101600Y88900D01*
X101600Y685800D02*
X101600Y759400D01*
X101600Y685800D02*
X99000Y683200D01*
X76200Y683200D01*
X104200Y683200D02*
X127000Y683200D01*
X104200Y683200D02*
X101600Y685800D01*
X101600Y759400D02*
X127000Y784800D01*
X127000Y800100D01*
X127000Y899600D01*
X226568Y800100D02*
X228600Y802132D01*
X226568Y800100D02*
X127000Y800100D01*
X330200Y850900D02*
X330200Y899600D01*
X330200Y850900D02*
X279400Y800100D01*
X226568Y800100D01*
X355600Y760800D02*
X355600Y685800D01*
X354400Y684600D01*
X330200Y684600D01*
X379800Y685800D02*
X381000Y684600D01*
X379800Y685800D02*
X355600Y685800D01*
M02*
