G04 EAGLE Gerber RS-274X export*
G75*
%MOMM*%
%FSLAX34Y34*%
%LPD*%
%INBottom Copper*%
%IPPOS*%
%AMOC8*
5,1,8,0,0,1.08239X$1,22.5*%
G01*
%ADD10P,2.749271X8X292.500000*%
%ADD11R,2.540000X2.540000*%
%ADD12C,2.700000*%
%ADD13R,2.100000X2.100000*%
%ADD14C,2.540000*%
%ADD15C,6.350000*%


D10*
X228600Y802132D03*
D11*
X228600Y857250D03*
D12*
X355600Y760800D03*
X381000Y684600D03*
X330200Y684600D03*
X381000Y129600D03*
X330200Y129600D03*
X355600Y53400D03*
X228600Y760800D03*
X203200Y684600D03*
X254000Y684600D03*
X203200Y129600D03*
X254000Y129600D03*
X228600Y53400D03*
X101600Y52000D03*
X76200Y128200D03*
X127000Y128200D03*
X76200Y683200D03*
X127000Y683200D03*
X101600Y759400D03*
D13*
X127000Y899600D03*
X127000Y954600D03*
X330200Y899600D03*
X330200Y954600D03*
D14*
X228600Y760800D02*
X228600Y685800D01*
X227400Y684600D01*
X203200Y684600D01*
X229800Y684600D02*
X254000Y684600D01*
X229800Y684600D02*
X228600Y685800D01*
X330200Y129600D02*
X355600Y129600D01*
X381000Y129600D01*
X355600Y129600D02*
X355600Y53400D01*
D15*
X355600Y129600D02*
X355600Y380892D01*
X355478Y391113D01*
X355114Y401329D01*
X354506Y411533D01*
X353655Y421719D01*
X352562Y431883D01*
X351228Y442017D01*
X349653Y452117D01*
X347838Y462177D01*
X345784Y472190D01*
X343493Y482152D01*
X340965Y492057D01*
X338202Y501898D01*
X335206Y511671D01*
X331977Y521370D01*
X328519Y530990D01*
X324833Y540524D01*
X320922Y549968D01*
X316786Y559316D01*
X312429Y568563D01*
X307854Y577704D01*
X303062Y586733D01*
X298057Y595646D01*
X292841Y604437D01*
X287417Y613102D01*
X281789Y621635D01*
X275959Y630031D01*
X269931Y638287D01*
X263708Y646396D01*
X257294Y654356D01*
X250692Y662160D01*
X243907Y669805D01*
X236942Y677286D01*
X229800Y684600D01*
D14*
X228600Y129600D02*
X254000Y129600D01*
X228600Y129600D02*
X203200Y129600D01*
X228600Y88900D02*
X228600Y53400D01*
X228600Y88900D02*
X228600Y129600D01*
X101600Y128200D02*
X76200Y128200D01*
X101600Y128200D02*
X138500Y128200D01*
X139700Y127000D01*
X200600Y127000D01*
X203200Y129600D01*
X227400Y52000D02*
X101600Y52000D01*
X227400Y52000D02*
X228600Y50800D01*
X101600Y52000D02*
X101600Y88900D01*
X101600Y128200D01*
X101600Y88900D02*
X228600Y88900D01*
X101600Y685800D02*
X101600Y759400D01*
X101600Y685800D02*
X99000Y683200D01*
X76200Y683200D01*
X104200Y683200D02*
X127000Y683200D01*
X104200Y683200D02*
X101600Y685800D01*
X127000Y800100D02*
X127000Y899600D01*
X127000Y800100D02*
X127000Y784800D01*
X101600Y759400D01*
X226568Y800100D02*
X228600Y802132D01*
X226568Y800100D02*
X127000Y800100D01*
X136140Y945460D02*
X127000Y954600D01*
X136140Y945460D02*
X136140Y934318D01*
X213208Y857250D01*
X228600Y857250D01*
X321060Y945460D02*
X330200Y954600D01*
X321060Y945460D02*
X321060Y934318D01*
X252171Y865429D01*
X243992Y857250D01*
X228600Y857250D01*
X252171Y864229D02*
X355600Y760800D01*
X252171Y864229D02*
X252171Y865429D01*
X355600Y760800D02*
X355600Y685800D01*
X330200Y685800D01*
X355600Y685800D02*
X356800Y684600D01*
X381000Y684600D01*
M02*
