G04 EAGLE Gerber RS-274X export*
G75*
%MOMM*%
%FSLAX34Y34*%
%LPD*%
%INSilkscreen Bottom*%
%IPPOS*%
%AMOC8*
5,1,8,0,0,1.08239X$1,22.5*%
G01*
%ADD10C,2.667000*%
%ADD11C,0.203200*%
%ADD12C,0.127000*%


D10*
X278977Y592808D02*
X178223Y592808D01*
X228600Y542431D02*
X228600Y643184D01*
X278977Y224508D02*
X178223Y224508D01*
D11*
X393888Y906526D02*
X393888Y922274D01*
X393888Y915275D02*
X385139Y915275D01*
X385139Y922274D02*
X385139Y906526D01*
X373361Y906526D02*
X378611Y922274D01*
X368112Y922274D02*
X373361Y906526D01*
X89088Y906526D02*
X89088Y922274D01*
X89088Y915275D02*
X80339Y915275D01*
X80339Y922274D02*
X80339Y906526D01*
X68561Y906526D02*
X73811Y922274D01*
X63312Y922274D02*
X68561Y906526D01*
X279588Y846074D02*
X279588Y830326D01*
X279588Y839075D02*
X270839Y839075D01*
X270839Y846074D02*
X270839Y830326D01*
X259061Y830326D02*
X264311Y846074D01*
X253812Y846074D02*
X259061Y830326D01*
X84774Y891145D02*
X82149Y891145D01*
X82149Y882396D01*
X87398Y882396D01*
X87515Y882398D01*
X87632Y882404D01*
X87748Y882414D01*
X87865Y882427D01*
X87980Y882445D01*
X88095Y882466D01*
X88209Y882491D01*
X88323Y882520D01*
X88435Y882553D01*
X88546Y882590D01*
X88656Y882630D01*
X88764Y882674D01*
X88871Y882721D01*
X88977Y882772D01*
X89080Y882827D01*
X89182Y882885D01*
X89281Y882946D01*
X89379Y883010D01*
X89474Y883078D01*
X89567Y883149D01*
X89658Y883223D01*
X89746Y883300D01*
X89831Y883380D01*
X89914Y883463D01*
X89994Y883548D01*
X90071Y883636D01*
X90145Y883727D01*
X90216Y883820D01*
X90284Y883915D01*
X90348Y884013D01*
X90409Y884112D01*
X90467Y884214D01*
X90522Y884317D01*
X90573Y884423D01*
X90620Y884530D01*
X90664Y884638D01*
X90704Y884748D01*
X90741Y884859D01*
X90774Y884971D01*
X90803Y885085D01*
X90828Y885199D01*
X90849Y885314D01*
X90867Y885430D01*
X90880Y885546D01*
X90890Y885662D01*
X90896Y885779D01*
X90898Y885896D01*
X90898Y894644D01*
X90896Y894761D01*
X90890Y894878D01*
X90880Y894994D01*
X90867Y895110D01*
X90849Y895226D01*
X90828Y895341D01*
X90803Y895455D01*
X90774Y895569D01*
X90741Y895681D01*
X90704Y895792D01*
X90664Y895902D01*
X90620Y896010D01*
X90573Y896117D01*
X90522Y896223D01*
X90467Y896326D01*
X90409Y896428D01*
X90348Y896527D01*
X90284Y896625D01*
X90216Y896720D01*
X90145Y896813D01*
X90071Y896904D01*
X89994Y896992D01*
X89914Y897077D01*
X89831Y897160D01*
X89746Y897240D01*
X89658Y897317D01*
X89567Y897391D01*
X89474Y897462D01*
X89379Y897530D01*
X89281Y897594D01*
X89182Y897655D01*
X89080Y897713D01*
X88977Y897768D01*
X88871Y897819D01*
X88764Y897866D01*
X88656Y897910D01*
X88546Y897950D01*
X88435Y897987D01*
X88323Y898020D01*
X88209Y898049D01*
X88095Y898074D01*
X87980Y898095D01*
X87865Y898113D01*
X87748Y898126D01*
X87632Y898136D01*
X87515Y898142D01*
X87398Y898144D01*
X82149Y898144D01*
X74224Y898144D02*
X74224Y882396D01*
X65476Y882396D02*
X74224Y898144D01*
X65476Y898144D02*
X65476Y882396D01*
X57551Y882396D02*
X57551Y898144D01*
X53177Y898144D01*
X53047Y898142D01*
X52918Y898136D01*
X52789Y898127D01*
X52660Y898113D01*
X52531Y898096D01*
X52403Y898075D01*
X52276Y898050D01*
X52150Y898022D01*
X52024Y897989D01*
X51900Y897953D01*
X51776Y897914D01*
X51654Y897870D01*
X51533Y897823D01*
X51414Y897773D01*
X51296Y897719D01*
X51180Y897661D01*
X51065Y897600D01*
X50953Y897536D01*
X50842Y897469D01*
X50733Y897398D01*
X50627Y897324D01*
X50523Y897247D01*
X50421Y897167D01*
X50322Y897083D01*
X50225Y896997D01*
X50130Y896908D01*
X50039Y896817D01*
X49950Y896722D01*
X49864Y896625D01*
X49780Y896526D01*
X49700Y896424D01*
X49623Y896320D01*
X49549Y896214D01*
X49478Y896105D01*
X49411Y895994D01*
X49347Y895882D01*
X49286Y895767D01*
X49228Y895651D01*
X49174Y895533D01*
X49124Y895414D01*
X49077Y895293D01*
X49033Y895171D01*
X48994Y895047D01*
X48958Y894923D01*
X48925Y894797D01*
X48897Y894671D01*
X48872Y894544D01*
X48851Y894416D01*
X48834Y894287D01*
X48820Y894158D01*
X48811Y894029D01*
X48805Y893900D01*
X48803Y893770D01*
X48802Y893770D02*
X48802Y886770D01*
X48803Y886770D02*
X48805Y886640D01*
X48811Y886511D01*
X48820Y886382D01*
X48834Y886253D01*
X48851Y886124D01*
X48872Y885996D01*
X48897Y885869D01*
X48925Y885743D01*
X48958Y885617D01*
X48994Y885493D01*
X49033Y885369D01*
X49077Y885247D01*
X49124Y885126D01*
X49174Y885007D01*
X49228Y884889D01*
X49286Y884773D01*
X49347Y884658D01*
X49411Y884546D01*
X49478Y884435D01*
X49549Y884326D01*
X49623Y884220D01*
X49700Y884116D01*
X49780Y884014D01*
X49864Y883915D01*
X49950Y883818D01*
X50039Y883723D01*
X50130Y883632D01*
X50225Y883543D01*
X50322Y883457D01*
X50421Y883373D01*
X50523Y883293D01*
X50627Y883216D01*
X50733Y883142D01*
X50842Y883071D01*
X50953Y883004D01*
X51065Y882940D01*
X51180Y882879D01*
X51296Y882821D01*
X51414Y882767D01*
X51533Y882717D01*
X51654Y882670D01*
X51776Y882626D01*
X51900Y882587D01*
X52024Y882551D01*
X52150Y882518D01*
X52276Y882490D01*
X52403Y882465D01*
X52531Y882444D01*
X52660Y882427D01*
X52789Y882413D01*
X52918Y882404D01*
X53047Y882398D01*
X53177Y882396D01*
X57551Y882396D01*
X405999Y889875D02*
X408624Y889875D01*
X405999Y889875D02*
X405999Y881126D01*
X411248Y881126D01*
X411365Y881128D01*
X411482Y881134D01*
X411598Y881144D01*
X411715Y881157D01*
X411830Y881175D01*
X411945Y881196D01*
X412059Y881221D01*
X412173Y881250D01*
X412285Y881283D01*
X412396Y881320D01*
X412506Y881360D01*
X412614Y881404D01*
X412721Y881451D01*
X412827Y881502D01*
X412930Y881557D01*
X413032Y881615D01*
X413131Y881676D01*
X413229Y881740D01*
X413324Y881808D01*
X413417Y881879D01*
X413508Y881953D01*
X413596Y882030D01*
X413681Y882110D01*
X413764Y882193D01*
X413844Y882278D01*
X413921Y882366D01*
X413995Y882457D01*
X414066Y882550D01*
X414134Y882645D01*
X414198Y882743D01*
X414259Y882842D01*
X414317Y882944D01*
X414372Y883047D01*
X414423Y883153D01*
X414470Y883260D01*
X414514Y883368D01*
X414554Y883478D01*
X414591Y883589D01*
X414624Y883701D01*
X414653Y883815D01*
X414678Y883929D01*
X414699Y884044D01*
X414717Y884160D01*
X414730Y884276D01*
X414740Y884392D01*
X414746Y884509D01*
X414748Y884626D01*
X414748Y893374D01*
X414746Y893491D01*
X414740Y893608D01*
X414730Y893724D01*
X414717Y893840D01*
X414699Y893956D01*
X414678Y894071D01*
X414653Y894185D01*
X414624Y894299D01*
X414591Y894411D01*
X414554Y894522D01*
X414514Y894632D01*
X414470Y894740D01*
X414423Y894847D01*
X414372Y894953D01*
X414317Y895056D01*
X414259Y895158D01*
X414198Y895257D01*
X414134Y895355D01*
X414066Y895450D01*
X413995Y895543D01*
X413921Y895634D01*
X413844Y895722D01*
X413764Y895807D01*
X413681Y895890D01*
X413596Y895970D01*
X413508Y896047D01*
X413417Y896121D01*
X413324Y896192D01*
X413229Y896260D01*
X413131Y896324D01*
X413032Y896385D01*
X412930Y896443D01*
X412827Y896498D01*
X412721Y896549D01*
X412614Y896596D01*
X412506Y896640D01*
X412396Y896680D01*
X412285Y896717D01*
X412173Y896750D01*
X412059Y896779D01*
X411945Y896804D01*
X411830Y896825D01*
X411715Y896843D01*
X411598Y896856D01*
X411482Y896866D01*
X411365Y896872D01*
X411248Y896874D01*
X405999Y896874D01*
X398074Y896874D02*
X398074Y881126D01*
X389326Y881126D02*
X398074Y896874D01*
X389326Y896874D02*
X389326Y881126D01*
X381401Y881126D02*
X381401Y896874D01*
X377027Y896874D01*
X376897Y896872D01*
X376768Y896866D01*
X376639Y896857D01*
X376510Y896843D01*
X376381Y896826D01*
X376253Y896805D01*
X376126Y896780D01*
X376000Y896752D01*
X375874Y896719D01*
X375750Y896683D01*
X375626Y896644D01*
X375504Y896600D01*
X375383Y896553D01*
X375264Y896503D01*
X375146Y896449D01*
X375030Y896391D01*
X374915Y896330D01*
X374803Y896266D01*
X374692Y896199D01*
X374583Y896128D01*
X374477Y896054D01*
X374373Y895977D01*
X374271Y895897D01*
X374172Y895813D01*
X374075Y895727D01*
X373980Y895638D01*
X373889Y895547D01*
X373800Y895452D01*
X373714Y895355D01*
X373630Y895256D01*
X373550Y895154D01*
X373473Y895050D01*
X373399Y894944D01*
X373328Y894835D01*
X373261Y894724D01*
X373197Y894612D01*
X373136Y894497D01*
X373078Y894381D01*
X373024Y894263D01*
X372974Y894144D01*
X372927Y894023D01*
X372883Y893901D01*
X372844Y893777D01*
X372808Y893653D01*
X372775Y893527D01*
X372747Y893401D01*
X372722Y893274D01*
X372701Y893146D01*
X372684Y893017D01*
X372670Y892888D01*
X372661Y892759D01*
X372655Y892630D01*
X372653Y892500D01*
X372652Y892500D02*
X372652Y885500D01*
X372653Y885500D02*
X372655Y885370D01*
X372661Y885241D01*
X372670Y885112D01*
X372684Y884983D01*
X372701Y884854D01*
X372722Y884726D01*
X372747Y884599D01*
X372775Y884473D01*
X372808Y884347D01*
X372844Y884223D01*
X372883Y884099D01*
X372927Y883977D01*
X372974Y883856D01*
X373024Y883737D01*
X373078Y883619D01*
X373136Y883503D01*
X373197Y883388D01*
X373261Y883276D01*
X373328Y883165D01*
X373399Y883056D01*
X373473Y882950D01*
X373550Y882846D01*
X373630Y882744D01*
X373714Y882645D01*
X373800Y882548D01*
X373889Y882453D01*
X373980Y882362D01*
X374075Y882273D01*
X374172Y882187D01*
X374271Y882103D01*
X374373Y882023D01*
X374477Y881946D01*
X374583Y881872D01*
X374692Y881801D01*
X374803Y881734D01*
X374915Y881670D01*
X375030Y881609D01*
X375146Y881551D01*
X375264Y881497D01*
X375383Y881447D01*
X375504Y881400D01*
X375626Y881356D01*
X375750Y881317D01*
X375874Y881281D01*
X376000Y881248D01*
X376126Y881220D01*
X376253Y881195D01*
X376381Y881174D01*
X376510Y881157D01*
X376639Y881143D01*
X376768Y881134D01*
X376897Y881128D01*
X377027Y881126D01*
X381401Y881126D01*
X287974Y802245D02*
X285349Y802245D01*
X285349Y793496D01*
X290598Y793496D01*
X290715Y793498D01*
X290832Y793504D01*
X290948Y793514D01*
X291065Y793527D01*
X291180Y793545D01*
X291295Y793566D01*
X291409Y793591D01*
X291523Y793620D01*
X291635Y793653D01*
X291746Y793690D01*
X291856Y793730D01*
X291964Y793774D01*
X292071Y793821D01*
X292177Y793872D01*
X292280Y793927D01*
X292382Y793985D01*
X292481Y794046D01*
X292579Y794110D01*
X292674Y794178D01*
X292767Y794249D01*
X292858Y794323D01*
X292946Y794400D01*
X293031Y794480D01*
X293114Y794563D01*
X293194Y794648D01*
X293271Y794736D01*
X293345Y794827D01*
X293416Y794920D01*
X293484Y795015D01*
X293548Y795113D01*
X293609Y795212D01*
X293667Y795314D01*
X293722Y795417D01*
X293773Y795523D01*
X293820Y795630D01*
X293864Y795738D01*
X293904Y795848D01*
X293941Y795959D01*
X293974Y796071D01*
X294003Y796185D01*
X294028Y796299D01*
X294049Y796414D01*
X294067Y796530D01*
X294080Y796646D01*
X294090Y796762D01*
X294096Y796879D01*
X294098Y796996D01*
X294098Y805744D01*
X294096Y805861D01*
X294090Y805978D01*
X294080Y806094D01*
X294067Y806210D01*
X294049Y806326D01*
X294028Y806441D01*
X294003Y806555D01*
X293974Y806669D01*
X293941Y806781D01*
X293904Y806892D01*
X293864Y807002D01*
X293820Y807110D01*
X293773Y807217D01*
X293722Y807323D01*
X293667Y807426D01*
X293609Y807528D01*
X293548Y807627D01*
X293484Y807725D01*
X293416Y807820D01*
X293345Y807913D01*
X293271Y808004D01*
X293194Y808092D01*
X293114Y808177D01*
X293031Y808260D01*
X292946Y808340D01*
X292858Y808417D01*
X292767Y808491D01*
X292674Y808562D01*
X292579Y808630D01*
X292481Y808694D01*
X292382Y808755D01*
X292280Y808813D01*
X292177Y808868D01*
X292071Y808919D01*
X291964Y808966D01*
X291856Y809010D01*
X291746Y809050D01*
X291635Y809087D01*
X291523Y809120D01*
X291409Y809149D01*
X291295Y809174D01*
X291180Y809195D01*
X291065Y809213D01*
X290948Y809226D01*
X290832Y809236D01*
X290715Y809242D01*
X290598Y809244D01*
X285349Y809244D01*
X277424Y809244D02*
X277424Y793496D01*
X268676Y793496D02*
X277424Y809244D01*
X268676Y809244D02*
X268676Y793496D01*
X260751Y793496D02*
X260751Y809244D01*
X256377Y809244D01*
X256247Y809242D01*
X256118Y809236D01*
X255989Y809227D01*
X255860Y809213D01*
X255731Y809196D01*
X255603Y809175D01*
X255476Y809150D01*
X255350Y809122D01*
X255224Y809089D01*
X255100Y809053D01*
X254976Y809014D01*
X254854Y808970D01*
X254733Y808923D01*
X254614Y808873D01*
X254496Y808819D01*
X254380Y808761D01*
X254265Y808700D01*
X254153Y808636D01*
X254042Y808569D01*
X253933Y808498D01*
X253827Y808424D01*
X253723Y808347D01*
X253621Y808267D01*
X253522Y808183D01*
X253425Y808097D01*
X253330Y808008D01*
X253239Y807917D01*
X253150Y807822D01*
X253064Y807725D01*
X252980Y807626D01*
X252900Y807524D01*
X252823Y807420D01*
X252749Y807314D01*
X252678Y807205D01*
X252611Y807094D01*
X252547Y806982D01*
X252486Y806867D01*
X252428Y806751D01*
X252374Y806633D01*
X252324Y806514D01*
X252277Y806393D01*
X252233Y806271D01*
X252194Y806147D01*
X252158Y806023D01*
X252125Y805897D01*
X252097Y805771D01*
X252072Y805644D01*
X252051Y805516D01*
X252034Y805387D01*
X252020Y805258D01*
X252011Y805129D01*
X252005Y805000D01*
X252003Y804870D01*
X252002Y804870D02*
X252002Y797870D01*
X252003Y797870D02*
X252005Y797740D01*
X252011Y797611D01*
X252020Y797482D01*
X252034Y797353D01*
X252051Y797224D01*
X252072Y797096D01*
X252097Y796969D01*
X252125Y796843D01*
X252158Y796717D01*
X252194Y796593D01*
X252233Y796469D01*
X252277Y796347D01*
X252324Y796226D01*
X252374Y796107D01*
X252428Y795989D01*
X252486Y795873D01*
X252547Y795758D01*
X252611Y795646D01*
X252678Y795535D01*
X252749Y795426D01*
X252823Y795320D01*
X252900Y795216D01*
X252980Y795114D01*
X253064Y795015D01*
X253150Y794918D01*
X253239Y794823D01*
X253330Y794732D01*
X253425Y794643D01*
X253522Y794557D01*
X253621Y794473D01*
X253723Y794393D01*
X253827Y794316D01*
X253933Y794242D01*
X254042Y794171D01*
X254153Y794104D01*
X254265Y794040D01*
X254380Y793979D01*
X254496Y793921D01*
X254614Y793867D01*
X254733Y793817D01*
X254854Y793770D01*
X254976Y793726D01*
X255100Y793687D01*
X255224Y793651D01*
X255350Y793618D01*
X255476Y793590D01*
X255603Y793565D01*
X255731Y793544D01*
X255860Y793527D01*
X255989Y793513D01*
X256118Y793504D01*
X256247Y793498D01*
X256377Y793496D01*
X260751Y793496D01*
D12*
X128600Y860800D02*
X128600Y-49200D01*
X328600Y-49200D02*
X328600Y860800D01*
X128600Y860800D01*
X128600Y-49200D02*
X328600Y-49200D01*
M02*
