G04 EAGLE Gerber RS-274X export*
G75*
%MOMM*%
%FSLAX34Y34*%
%LPD*%
%INSilkscreen Top*%
%IPPOS*%
%AMOC8*
5,1,8,0,0,1.08239X$1,22.5*%
G01*
%ADD10C,0.152400*%
%ADD11C,2.667000*%
%ADD12C,0.203200*%
%ADD13R,2.500000X1.500000*%
%ADD14C,0.127000*%
%ADD15C,0.254000*%


D10*
X64262Y915162D02*
X64262Y931418D01*
X64262Y924193D02*
X73293Y924193D01*
X73293Y931418D02*
X73293Y915162D01*
X84930Y915162D02*
X79511Y931418D01*
X90349Y931418D02*
X84930Y915162D01*
X369062Y915162D02*
X369062Y931418D01*
X369062Y924193D02*
X378093Y924193D01*
X378093Y931418D02*
X378093Y915162D01*
X389730Y915162D02*
X384311Y931418D01*
X395149Y931418D02*
X389730Y915162D01*
X259842Y852678D02*
X259842Y836422D01*
X259842Y845453D02*
X268873Y845453D01*
X268873Y852678D02*
X268873Y836422D01*
X280510Y836422D02*
X275091Y852678D01*
X285929Y852678D02*
X280510Y836422D01*
X52973Y898793D02*
X50264Y898793D01*
X52973Y898793D02*
X52973Y889762D01*
X47554Y889762D01*
X47436Y889764D01*
X47318Y889770D01*
X47200Y889779D01*
X47083Y889793D01*
X46966Y889810D01*
X46849Y889831D01*
X46734Y889856D01*
X46619Y889885D01*
X46505Y889918D01*
X46393Y889954D01*
X46282Y889994D01*
X46172Y890037D01*
X46063Y890084D01*
X45956Y890134D01*
X45851Y890189D01*
X45748Y890246D01*
X45647Y890307D01*
X45547Y890371D01*
X45450Y890438D01*
X45355Y890508D01*
X45263Y890582D01*
X45172Y890658D01*
X45085Y890738D01*
X45000Y890820D01*
X44918Y890905D01*
X44838Y890992D01*
X44762Y891083D01*
X44688Y891175D01*
X44618Y891270D01*
X44551Y891367D01*
X44487Y891467D01*
X44426Y891568D01*
X44369Y891671D01*
X44314Y891776D01*
X44264Y891883D01*
X44217Y891992D01*
X44174Y892102D01*
X44134Y892213D01*
X44098Y892325D01*
X44065Y892439D01*
X44036Y892554D01*
X44011Y892669D01*
X43990Y892786D01*
X43973Y892903D01*
X43959Y893020D01*
X43950Y893138D01*
X43944Y893256D01*
X43942Y893374D01*
X43942Y902406D01*
X43944Y902524D01*
X43950Y902642D01*
X43959Y902760D01*
X43973Y902877D01*
X43990Y902994D01*
X44011Y903111D01*
X44036Y903226D01*
X44065Y903341D01*
X44098Y903455D01*
X44134Y903567D01*
X44174Y903678D01*
X44217Y903788D01*
X44264Y903897D01*
X44314Y904004D01*
X44368Y904109D01*
X44426Y904212D01*
X44487Y904313D01*
X44551Y904413D01*
X44618Y904510D01*
X44688Y904605D01*
X44762Y904697D01*
X44838Y904788D01*
X44918Y904875D01*
X45000Y904960D01*
X45085Y905042D01*
X45172Y905122D01*
X45263Y905198D01*
X45355Y905272D01*
X45450Y905342D01*
X45547Y905409D01*
X45647Y905473D01*
X45748Y905534D01*
X45851Y905591D01*
X45956Y905645D01*
X46063Y905696D01*
X46172Y905743D01*
X46282Y905786D01*
X46393Y905826D01*
X46505Y905862D01*
X46619Y905895D01*
X46734Y905924D01*
X46849Y905949D01*
X46966Y905970D01*
X47083Y905987D01*
X47200Y906001D01*
X47318Y906010D01*
X47436Y906016D01*
X47554Y906018D01*
X52973Y906018D01*
X60615Y906018D02*
X60615Y889762D01*
X69646Y889762D02*
X60615Y906018D01*
X69646Y906018D02*
X69646Y889762D01*
X77289Y889762D02*
X77289Y906018D01*
X81804Y906018D01*
X81935Y906016D01*
X82067Y906010D01*
X82198Y906001D01*
X82328Y905987D01*
X82459Y905970D01*
X82588Y905949D01*
X82717Y905925D01*
X82845Y905896D01*
X82973Y905864D01*
X83099Y905828D01*
X83224Y905789D01*
X83349Y905746D01*
X83471Y905699D01*
X83593Y905649D01*
X83713Y905595D01*
X83831Y905538D01*
X83947Y905477D01*
X84062Y905413D01*
X84175Y905346D01*
X84286Y905275D01*
X84394Y905201D01*
X84501Y905124D01*
X84605Y905044D01*
X84707Y904961D01*
X84806Y904876D01*
X84903Y904787D01*
X84997Y904695D01*
X85089Y904601D01*
X85178Y904504D01*
X85263Y904405D01*
X85346Y904303D01*
X85426Y904199D01*
X85503Y904092D01*
X85577Y903984D01*
X85648Y903873D01*
X85715Y903760D01*
X85779Y903645D01*
X85840Y903529D01*
X85897Y903411D01*
X85951Y903291D01*
X86001Y903169D01*
X86048Y903047D01*
X86091Y902922D01*
X86130Y902797D01*
X86166Y902671D01*
X86198Y902543D01*
X86227Y902415D01*
X86251Y902286D01*
X86272Y902157D01*
X86289Y902026D01*
X86303Y901896D01*
X86312Y901765D01*
X86318Y901633D01*
X86320Y901502D01*
X86320Y894278D01*
X86318Y894147D01*
X86312Y894015D01*
X86303Y893884D01*
X86289Y893754D01*
X86272Y893623D01*
X86251Y893494D01*
X86227Y893365D01*
X86198Y893237D01*
X86166Y893109D01*
X86130Y892983D01*
X86091Y892858D01*
X86048Y892733D01*
X86001Y892611D01*
X85951Y892489D01*
X85897Y892369D01*
X85840Y892251D01*
X85779Y892135D01*
X85715Y892020D01*
X85648Y891907D01*
X85577Y891796D01*
X85503Y891688D01*
X85426Y891581D01*
X85346Y891477D01*
X85263Y891375D01*
X85178Y891276D01*
X85089Y891179D01*
X84997Y891085D01*
X84903Y890993D01*
X84806Y890904D01*
X84707Y890819D01*
X84605Y890736D01*
X84501Y890656D01*
X84394Y890579D01*
X84286Y890505D01*
X84175Y890434D01*
X84062Y890367D01*
X83947Y890303D01*
X83831Y890242D01*
X83713Y890185D01*
X83593Y890131D01*
X83471Y890081D01*
X83349Y890034D01*
X83224Y889991D01*
X83099Y889952D01*
X82973Y889916D01*
X82845Y889884D01*
X82717Y889855D01*
X82588Y889831D01*
X82458Y889810D01*
X82328Y889793D01*
X82198Y889779D01*
X82067Y889770D01*
X81935Y889764D01*
X81804Y889762D01*
X77289Y889762D01*
X375384Y898793D02*
X378093Y898793D01*
X378093Y889762D01*
X372674Y889762D01*
X372556Y889764D01*
X372438Y889770D01*
X372320Y889779D01*
X372203Y889793D01*
X372086Y889810D01*
X371969Y889831D01*
X371854Y889856D01*
X371739Y889885D01*
X371625Y889918D01*
X371513Y889954D01*
X371402Y889994D01*
X371292Y890037D01*
X371183Y890084D01*
X371076Y890134D01*
X370971Y890189D01*
X370868Y890246D01*
X370767Y890307D01*
X370667Y890371D01*
X370570Y890438D01*
X370475Y890508D01*
X370383Y890582D01*
X370292Y890658D01*
X370205Y890738D01*
X370120Y890820D01*
X370038Y890905D01*
X369958Y890992D01*
X369882Y891083D01*
X369808Y891175D01*
X369738Y891270D01*
X369671Y891367D01*
X369607Y891467D01*
X369546Y891568D01*
X369489Y891671D01*
X369434Y891776D01*
X369384Y891883D01*
X369337Y891992D01*
X369294Y892102D01*
X369254Y892213D01*
X369218Y892325D01*
X369185Y892439D01*
X369156Y892554D01*
X369131Y892669D01*
X369110Y892786D01*
X369093Y892903D01*
X369079Y893020D01*
X369070Y893138D01*
X369064Y893256D01*
X369062Y893374D01*
X369062Y902406D01*
X369064Y902524D01*
X369070Y902642D01*
X369079Y902760D01*
X369093Y902877D01*
X369110Y902994D01*
X369131Y903111D01*
X369156Y903226D01*
X369185Y903341D01*
X369218Y903455D01*
X369254Y903567D01*
X369294Y903678D01*
X369337Y903788D01*
X369384Y903897D01*
X369434Y904004D01*
X369488Y904109D01*
X369546Y904212D01*
X369607Y904313D01*
X369671Y904413D01*
X369738Y904510D01*
X369808Y904605D01*
X369882Y904697D01*
X369958Y904788D01*
X370038Y904875D01*
X370120Y904960D01*
X370205Y905042D01*
X370292Y905122D01*
X370383Y905198D01*
X370475Y905272D01*
X370570Y905342D01*
X370667Y905409D01*
X370767Y905473D01*
X370868Y905534D01*
X370971Y905591D01*
X371076Y905645D01*
X371183Y905696D01*
X371292Y905743D01*
X371402Y905786D01*
X371513Y905826D01*
X371625Y905862D01*
X371739Y905895D01*
X371854Y905924D01*
X371969Y905949D01*
X372086Y905970D01*
X372203Y905987D01*
X372320Y906001D01*
X372438Y906010D01*
X372556Y906016D01*
X372674Y906018D01*
X378093Y906018D01*
X385735Y906018D02*
X385735Y889762D01*
X394766Y889762D02*
X385735Y906018D01*
X394766Y906018D02*
X394766Y889762D01*
X402409Y889762D02*
X402409Y906018D01*
X406924Y906018D01*
X407055Y906016D01*
X407187Y906010D01*
X407318Y906001D01*
X407448Y905987D01*
X407579Y905970D01*
X407708Y905949D01*
X407837Y905925D01*
X407965Y905896D01*
X408093Y905864D01*
X408219Y905828D01*
X408344Y905789D01*
X408469Y905746D01*
X408591Y905699D01*
X408713Y905649D01*
X408833Y905595D01*
X408951Y905538D01*
X409067Y905477D01*
X409182Y905413D01*
X409295Y905346D01*
X409406Y905275D01*
X409514Y905201D01*
X409621Y905124D01*
X409725Y905044D01*
X409827Y904961D01*
X409926Y904876D01*
X410023Y904787D01*
X410117Y904695D01*
X410209Y904601D01*
X410298Y904504D01*
X410383Y904405D01*
X410466Y904303D01*
X410546Y904199D01*
X410623Y904092D01*
X410697Y903984D01*
X410768Y903873D01*
X410835Y903760D01*
X410899Y903645D01*
X410960Y903529D01*
X411017Y903411D01*
X411071Y903291D01*
X411121Y903169D01*
X411168Y903047D01*
X411211Y902922D01*
X411250Y902797D01*
X411286Y902671D01*
X411318Y902543D01*
X411347Y902415D01*
X411371Y902286D01*
X411392Y902157D01*
X411409Y902026D01*
X411423Y901896D01*
X411432Y901765D01*
X411438Y901633D01*
X411440Y901502D01*
X411440Y894278D01*
X411438Y894147D01*
X411432Y894015D01*
X411423Y893884D01*
X411409Y893754D01*
X411392Y893623D01*
X411371Y893494D01*
X411347Y893365D01*
X411318Y893237D01*
X411286Y893109D01*
X411250Y892983D01*
X411211Y892858D01*
X411168Y892733D01*
X411121Y892611D01*
X411071Y892489D01*
X411017Y892369D01*
X410960Y892251D01*
X410899Y892135D01*
X410835Y892020D01*
X410768Y891907D01*
X410697Y891796D01*
X410623Y891688D01*
X410546Y891581D01*
X410466Y891477D01*
X410383Y891375D01*
X410298Y891276D01*
X410209Y891179D01*
X410117Y891085D01*
X410023Y890993D01*
X409926Y890904D01*
X409827Y890819D01*
X409725Y890736D01*
X409621Y890656D01*
X409514Y890579D01*
X409406Y890505D01*
X409295Y890434D01*
X409182Y890367D01*
X409067Y890303D01*
X408951Y890242D01*
X408833Y890185D01*
X408713Y890131D01*
X408591Y890081D01*
X408469Y890034D01*
X408344Y889991D01*
X408219Y889952D01*
X408093Y889916D01*
X407965Y889884D01*
X407837Y889855D01*
X407708Y889831D01*
X407578Y889810D01*
X407448Y889793D01*
X407318Y889779D01*
X407187Y889770D01*
X407055Y889764D01*
X406924Y889762D01*
X402409Y889762D01*
X256173Y803543D02*
X253464Y803543D01*
X256173Y803543D02*
X256173Y794512D01*
X250754Y794512D01*
X250636Y794514D01*
X250518Y794520D01*
X250400Y794529D01*
X250283Y794543D01*
X250166Y794560D01*
X250049Y794581D01*
X249934Y794606D01*
X249819Y794635D01*
X249705Y794668D01*
X249593Y794704D01*
X249482Y794744D01*
X249372Y794787D01*
X249263Y794834D01*
X249156Y794884D01*
X249051Y794939D01*
X248948Y794996D01*
X248847Y795057D01*
X248747Y795121D01*
X248650Y795188D01*
X248555Y795258D01*
X248463Y795332D01*
X248372Y795408D01*
X248285Y795488D01*
X248200Y795570D01*
X248118Y795655D01*
X248038Y795742D01*
X247962Y795833D01*
X247888Y795925D01*
X247818Y796020D01*
X247751Y796117D01*
X247687Y796217D01*
X247626Y796318D01*
X247569Y796421D01*
X247514Y796526D01*
X247464Y796633D01*
X247417Y796742D01*
X247374Y796852D01*
X247334Y796963D01*
X247298Y797075D01*
X247265Y797189D01*
X247236Y797304D01*
X247211Y797419D01*
X247190Y797536D01*
X247173Y797653D01*
X247159Y797770D01*
X247150Y797888D01*
X247144Y798006D01*
X247142Y798124D01*
X247142Y807156D01*
X247144Y807274D01*
X247150Y807392D01*
X247159Y807510D01*
X247173Y807627D01*
X247190Y807744D01*
X247211Y807861D01*
X247236Y807976D01*
X247265Y808091D01*
X247298Y808205D01*
X247334Y808317D01*
X247374Y808428D01*
X247417Y808538D01*
X247464Y808647D01*
X247514Y808754D01*
X247568Y808859D01*
X247626Y808962D01*
X247687Y809063D01*
X247751Y809163D01*
X247818Y809260D01*
X247888Y809355D01*
X247962Y809447D01*
X248038Y809538D01*
X248118Y809625D01*
X248200Y809710D01*
X248285Y809792D01*
X248372Y809872D01*
X248463Y809948D01*
X248555Y810022D01*
X248650Y810092D01*
X248747Y810159D01*
X248847Y810223D01*
X248948Y810284D01*
X249051Y810341D01*
X249156Y810395D01*
X249263Y810446D01*
X249372Y810493D01*
X249482Y810536D01*
X249593Y810576D01*
X249705Y810612D01*
X249819Y810645D01*
X249934Y810674D01*
X250049Y810699D01*
X250166Y810720D01*
X250283Y810737D01*
X250400Y810751D01*
X250518Y810760D01*
X250636Y810766D01*
X250754Y810768D01*
X256173Y810768D01*
X263815Y810768D02*
X263815Y794512D01*
X272846Y794512D02*
X263815Y810768D01*
X272846Y810768D02*
X272846Y794512D01*
X280489Y794512D02*
X280489Y810768D01*
X285004Y810768D01*
X285135Y810766D01*
X285267Y810760D01*
X285398Y810751D01*
X285528Y810737D01*
X285659Y810720D01*
X285788Y810699D01*
X285917Y810675D01*
X286045Y810646D01*
X286173Y810614D01*
X286299Y810578D01*
X286424Y810539D01*
X286549Y810496D01*
X286671Y810449D01*
X286793Y810399D01*
X286913Y810345D01*
X287031Y810288D01*
X287147Y810227D01*
X287262Y810163D01*
X287375Y810096D01*
X287486Y810025D01*
X287594Y809951D01*
X287701Y809874D01*
X287805Y809794D01*
X287907Y809711D01*
X288006Y809626D01*
X288103Y809537D01*
X288197Y809445D01*
X288289Y809351D01*
X288378Y809254D01*
X288463Y809155D01*
X288546Y809053D01*
X288626Y808949D01*
X288703Y808842D01*
X288777Y808734D01*
X288848Y808623D01*
X288915Y808510D01*
X288979Y808395D01*
X289040Y808279D01*
X289097Y808161D01*
X289151Y808041D01*
X289201Y807919D01*
X289248Y807797D01*
X289291Y807672D01*
X289330Y807547D01*
X289366Y807421D01*
X289398Y807293D01*
X289427Y807165D01*
X289451Y807036D01*
X289472Y806907D01*
X289489Y806776D01*
X289503Y806646D01*
X289512Y806515D01*
X289518Y806383D01*
X289520Y806252D01*
X289520Y799028D01*
X289518Y798897D01*
X289512Y798765D01*
X289503Y798634D01*
X289489Y798504D01*
X289472Y798373D01*
X289451Y798244D01*
X289427Y798115D01*
X289398Y797987D01*
X289366Y797859D01*
X289330Y797733D01*
X289291Y797608D01*
X289248Y797483D01*
X289201Y797361D01*
X289151Y797239D01*
X289097Y797119D01*
X289040Y797001D01*
X288979Y796885D01*
X288915Y796770D01*
X288848Y796657D01*
X288777Y796546D01*
X288703Y796438D01*
X288626Y796331D01*
X288546Y796227D01*
X288463Y796125D01*
X288378Y796026D01*
X288289Y795929D01*
X288197Y795835D01*
X288103Y795743D01*
X288006Y795654D01*
X287907Y795569D01*
X287805Y795486D01*
X287701Y795406D01*
X287594Y795329D01*
X287486Y795255D01*
X287375Y795184D01*
X287262Y795117D01*
X287147Y795053D01*
X287031Y794992D01*
X286913Y794935D01*
X286793Y794881D01*
X286671Y794831D01*
X286549Y794784D01*
X286424Y794741D01*
X286299Y794702D01*
X286173Y794666D01*
X286045Y794634D01*
X285917Y794605D01*
X285788Y794581D01*
X285658Y794560D01*
X285528Y794543D01*
X285398Y794529D01*
X285267Y794520D01*
X285135Y794514D01*
X285004Y794512D01*
X280489Y794512D01*
D11*
X151977Y224508D02*
X51223Y224508D01*
X101600Y174131D02*
X101600Y274884D01*
X305223Y592808D02*
X405977Y592808D01*
X355600Y542431D02*
X355600Y643184D01*
X151977Y592808D02*
X51223Y592808D01*
X305223Y224508D02*
X405977Y224508D01*
D12*
X256690Y867691D02*
X245690Y867691D01*
X256690Y867691D02*
X256690Y995691D01*
X200510Y995691D01*
X200510Y869691D01*
X211510Y869691D01*
D13*
X228600Y987191D03*
D14*
X455600Y860800D02*
X455600Y-49200D01*
X255600Y-49200D02*
X255600Y860800D01*
X455600Y860800D01*
X455600Y-49200D02*
X255600Y-49200D01*
X1600Y-48000D02*
X1600Y862000D01*
X201600Y862000D02*
X201600Y-48000D01*
X1600Y-48000D01*
X1600Y862000D02*
X201600Y862000D01*
D15*
X153000Y972100D02*
X101000Y972100D01*
X153000Y972100D02*
X153000Y905100D01*
X153000Y894100D02*
X153000Y878100D01*
X101000Y878100D01*
X101000Y972100D01*
X94000Y959100D02*
X93776Y959438D01*
X93544Y959771D01*
X93305Y960099D01*
X93057Y960420D01*
X92802Y960735D01*
X92539Y961044D01*
X92268Y961346D01*
X91990Y961642D01*
X91705Y961931D01*
X91414Y962213D01*
X91115Y962487D01*
X90810Y962755D01*
X90498Y963014D01*
X90180Y963266D01*
X89856Y963511D01*
X89526Y963747D01*
X89191Y963975D01*
X88850Y964195D01*
X88504Y964406D01*
X88153Y964609D01*
X87796Y964804D01*
X87436Y964990D01*
X87071Y965166D01*
X86701Y965334D01*
X86328Y965493D01*
X85951Y965643D01*
X85570Y965783D01*
X85186Y965914D01*
X84799Y966036D01*
X84409Y966148D01*
X84017Y966251D01*
X83622Y966344D01*
X83225Y966428D01*
X82826Y966501D01*
X82426Y966565D01*
X82024Y966620D01*
X81620Y966664D01*
X81216Y966699D01*
X80811Y966723D01*
X80406Y966738D01*
X80000Y966743D01*
X79594Y966738D01*
X79189Y966723D01*
X78784Y966699D01*
X78380Y966664D01*
X77976Y966620D01*
X77574Y966565D01*
X77174Y966501D01*
X76775Y966428D01*
X76378Y966344D01*
X75983Y966251D01*
X75591Y966148D01*
X75201Y966036D01*
X74814Y965914D01*
X74430Y965783D01*
X74049Y965643D01*
X73672Y965493D01*
X73299Y965334D01*
X72929Y965166D01*
X72564Y964990D01*
X72204Y964804D01*
X71847Y964609D01*
X71496Y964406D01*
X71150Y964195D01*
X70809Y963975D01*
X70474Y963747D01*
X70144Y963511D01*
X69820Y963266D01*
X69502Y963014D01*
X69190Y962755D01*
X68885Y962487D01*
X68586Y962213D01*
X68295Y961931D01*
X68010Y961642D01*
X67732Y961346D01*
X67461Y961044D01*
X67198Y960735D01*
X66943Y960420D01*
X66695Y960099D01*
X66456Y959771D01*
X66224Y959438D01*
X66000Y959100D01*
X66000Y941100D02*
X66224Y940762D01*
X66456Y940429D01*
X66695Y940101D01*
X66943Y939780D01*
X67198Y939465D01*
X67461Y939156D01*
X67732Y938854D01*
X68010Y938558D01*
X68295Y938269D01*
X68586Y937987D01*
X68885Y937713D01*
X69190Y937445D01*
X69502Y937186D01*
X69820Y936934D01*
X70144Y936689D01*
X70474Y936453D01*
X70809Y936225D01*
X71150Y936005D01*
X71496Y935794D01*
X71847Y935591D01*
X72204Y935396D01*
X72564Y935210D01*
X72929Y935034D01*
X73299Y934866D01*
X73672Y934707D01*
X74049Y934557D01*
X74430Y934417D01*
X74814Y934286D01*
X75201Y934164D01*
X75591Y934052D01*
X75983Y933949D01*
X76378Y933856D01*
X76775Y933772D01*
X77174Y933699D01*
X77574Y933635D01*
X77976Y933580D01*
X78380Y933536D01*
X78784Y933501D01*
X79189Y933477D01*
X79594Y933462D01*
X80000Y933457D01*
X80406Y933462D01*
X80811Y933477D01*
X81216Y933501D01*
X81620Y933536D01*
X82024Y933580D01*
X82426Y933635D01*
X82826Y933699D01*
X83225Y933772D01*
X83622Y933856D01*
X84017Y933949D01*
X84409Y934052D01*
X84799Y934164D01*
X85186Y934286D01*
X85570Y934417D01*
X85951Y934557D01*
X86328Y934707D01*
X86701Y934866D01*
X87071Y935034D01*
X87436Y935210D01*
X87796Y935396D01*
X88153Y935591D01*
X88504Y935794D01*
X88850Y936005D01*
X89191Y936225D01*
X89526Y936453D01*
X89856Y936689D01*
X90180Y936934D01*
X90498Y937186D01*
X90810Y937445D01*
X91115Y937713D01*
X91414Y937987D01*
X91705Y938269D01*
X91990Y938558D01*
X92268Y938854D01*
X92539Y939156D01*
X92802Y939465D01*
X93057Y939780D01*
X93305Y940101D01*
X93544Y940429D01*
X93776Y940762D01*
X94000Y941100D01*
X66000Y941100D02*
X66000Y959100D01*
X93000Y960100D02*
X100000Y960100D01*
X100000Y940100D02*
X93000Y940100D01*
X160000Y941100D02*
X160224Y940762D01*
X160456Y940429D01*
X160695Y940101D01*
X160943Y939780D01*
X161198Y939465D01*
X161461Y939156D01*
X161732Y938854D01*
X162010Y938558D01*
X162295Y938269D01*
X162586Y937987D01*
X162885Y937713D01*
X163190Y937445D01*
X163502Y937186D01*
X163820Y936934D01*
X164144Y936689D01*
X164474Y936453D01*
X164809Y936225D01*
X165150Y936005D01*
X165496Y935794D01*
X165847Y935591D01*
X166204Y935396D01*
X166564Y935210D01*
X166929Y935034D01*
X167299Y934866D01*
X167672Y934707D01*
X168049Y934557D01*
X168430Y934417D01*
X168814Y934286D01*
X169201Y934164D01*
X169591Y934052D01*
X169983Y933949D01*
X170378Y933856D01*
X170775Y933772D01*
X171174Y933699D01*
X171574Y933635D01*
X171976Y933580D01*
X172380Y933536D01*
X172784Y933501D01*
X173189Y933477D01*
X173594Y933462D01*
X174000Y933457D01*
X174406Y933462D01*
X174811Y933477D01*
X175216Y933501D01*
X175620Y933536D01*
X176024Y933580D01*
X176426Y933635D01*
X176826Y933699D01*
X177225Y933772D01*
X177622Y933856D01*
X178017Y933949D01*
X178409Y934052D01*
X178799Y934164D01*
X179186Y934286D01*
X179570Y934417D01*
X179951Y934557D01*
X180328Y934707D01*
X180701Y934866D01*
X181071Y935034D01*
X181436Y935210D01*
X181796Y935396D01*
X182153Y935591D01*
X182504Y935794D01*
X182850Y936005D01*
X183191Y936225D01*
X183526Y936453D01*
X183856Y936689D01*
X184180Y936934D01*
X184498Y937186D01*
X184810Y937445D01*
X185115Y937713D01*
X185414Y937987D01*
X185705Y938269D01*
X185990Y938558D01*
X186268Y938854D01*
X186539Y939156D01*
X186802Y939465D01*
X187057Y939780D01*
X187305Y940101D01*
X187544Y940429D01*
X187776Y940762D01*
X188000Y941100D01*
X188000Y959100D02*
X187776Y959438D01*
X187544Y959771D01*
X187305Y960099D01*
X187057Y960420D01*
X186802Y960735D01*
X186539Y961044D01*
X186268Y961346D01*
X185990Y961642D01*
X185705Y961931D01*
X185414Y962213D01*
X185115Y962487D01*
X184810Y962755D01*
X184498Y963014D01*
X184180Y963266D01*
X183856Y963511D01*
X183526Y963747D01*
X183191Y963975D01*
X182850Y964195D01*
X182504Y964406D01*
X182153Y964609D01*
X181796Y964804D01*
X181436Y964990D01*
X181071Y965166D01*
X180701Y965334D01*
X180328Y965493D01*
X179951Y965643D01*
X179570Y965783D01*
X179186Y965914D01*
X178799Y966036D01*
X178409Y966148D01*
X178017Y966251D01*
X177622Y966344D01*
X177225Y966428D01*
X176826Y966501D01*
X176426Y966565D01*
X176024Y966620D01*
X175620Y966664D01*
X175216Y966699D01*
X174811Y966723D01*
X174406Y966738D01*
X174000Y966743D01*
X173594Y966738D01*
X173189Y966723D01*
X172784Y966699D01*
X172380Y966664D01*
X171976Y966620D01*
X171574Y966565D01*
X171174Y966501D01*
X170775Y966428D01*
X170378Y966344D01*
X169983Y966251D01*
X169591Y966148D01*
X169201Y966036D01*
X168814Y965914D01*
X168430Y965783D01*
X168049Y965643D01*
X167672Y965493D01*
X167299Y965334D01*
X166929Y965166D01*
X166564Y964990D01*
X166204Y964804D01*
X165847Y964609D01*
X165496Y964406D01*
X165150Y964195D01*
X164809Y963975D01*
X164474Y963747D01*
X164144Y963511D01*
X163820Y963266D01*
X163502Y963014D01*
X163190Y962755D01*
X162885Y962487D01*
X162586Y962213D01*
X162295Y961931D01*
X162010Y961642D01*
X161732Y961346D01*
X161461Y961044D01*
X161198Y960735D01*
X160943Y960420D01*
X160695Y960099D01*
X160456Y959771D01*
X160224Y959438D01*
X160000Y959100D01*
X188000Y959100D02*
X188000Y941100D01*
X161000Y940100D02*
X154000Y940100D01*
X154000Y960100D02*
X161000Y960100D01*
X153000Y905100D02*
X153148Y905098D01*
X153295Y905092D01*
X153443Y905082D01*
X153590Y905068D01*
X153736Y905051D01*
X153882Y905029D01*
X154028Y905003D01*
X154172Y904974D01*
X154316Y904940D01*
X154459Y904903D01*
X154601Y904862D01*
X154742Y904817D01*
X154881Y904768D01*
X155019Y904716D01*
X155156Y904660D01*
X155291Y904600D01*
X155424Y904537D01*
X155556Y904470D01*
X155686Y904400D01*
X155814Y904326D01*
X155940Y904249D01*
X156063Y904168D01*
X156185Y904084D01*
X156304Y903997D01*
X156421Y903907D01*
X156535Y903813D01*
X156647Y903717D01*
X156756Y903617D01*
X156863Y903515D01*
X156967Y903410D01*
X157067Y903302D01*
X157165Y903192D01*
X157260Y903078D01*
X157352Y902963D01*
X157441Y902845D01*
X157526Y902724D01*
X157609Y902602D01*
X157688Y902477D01*
X157763Y902350D01*
X157835Y902221D01*
X157904Y902090D01*
X157969Y901958D01*
X158030Y901824D01*
X158088Y901688D01*
X158143Y901550D01*
X158193Y901412D01*
X158240Y901271D01*
X158283Y901130D01*
X158322Y900988D01*
X158357Y900844D01*
X158389Y900700D01*
X158416Y900555D01*
X158440Y900409D01*
X158460Y900263D01*
X158476Y900116D01*
X158488Y899969D01*
X158496Y899821D01*
X158500Y899674D01*
X158500Y899526D01*
X158496Y899379D01*
X158488Y899231D01*
X158476Y899084D01*
X158460Y898937D01*
X158440Y898791D01*
X158416Y898645D01*
X158389Y898500D01*
X158357Y898356D01*
X158322Y898212D01*
X158283Y898070D01*
X158240Y897929D01*
X158193Y897788D01*
X158143Y897650D01*
X158088Y897512D01*
X158030Y897376D01*
X157969Y897242D01*
X157904Y897110D01*
X157835Y896979D01*
X157763Y896850D01*
X157688Y896723D01*
X157609Y896598D01*
X157526Y896476D01*
X157441Y896355D01*
X157352Y896237D01*
X157260Y896122D01*
X157165Y896008D01*
X157067Y895898D01*
X156967Y895790D01*
X156863Y895685D01*
X156756Y895583D01*
X156647Y895483D01*
X156535Y895387D01*
X156421Y895293D01*
X156304Y895203D01*
X156185Y895116D01*
X156063Y895032D01*
X155940Y894951D01*
X155814Y894874D01*
X155686Y894800D01*
X155556Y894730D01*
X155424Y894663D01*
X155291Y894600D01*
X155156Y894540D01*
X155019Y894484D01*
X154881Y894432D01*
X154742Y894383D01*
X154601Y894338D01*
X154459Y894297D01*
X154316Y894260D01*
X154172Y894226D01*
X154028Y894197D01*
X153882Y894171D01*
X153736Y894149D01*
X153590Y894132D01*
X153443Y894118D01*
X153295Y894108D01*
X153148Y894102D01*
X153000Y894100D01*
X304200Y972100D02*
X356200Y972100D01*
X356200Y905100D01*
X356200Y894100D02*
X356200Y878100D01*
X304200Y878100D01*
X304200Y972100D01*
X297200Y959100D02*
X296976Y959438D01*
X296744Y959771D01*
X296505Y960099D01*
X296257Y960420D01*
X296002Y960735D01*
X295739Y961044D01*
X295468Y961346D01*
X295190Y961642D01*
X294905Y961931D01*
X294614Y962213D01*
X294315Y962487D01*
X294010Y962755D01*
X293698Y963014D01*
X293380Y963266D01*
X293056Y963511D01*
X292726Y963747D01*
X292391Y963975D01*
X292050Y964195D01*
X291704Y964406D01*
X291353Y964609D01*
X290996Y964804D01*
X290636Y964990D01*
X290271Y965166D01*
X289901Y965334D01*
X289528Y965493D01*
X289151Y965643D01*
X288770Y965783D01*
X288386Y965914D01*
X287999Y966036D01*
X287609Y966148D01*
X287217Y966251D01*
X286822Y966344D01*
X286425Y966428D01*
X286026Y966501D01*
X285626Y966565D01*
X285224Y966620D01*
X284820Y966664D01*
X284416Y966699D01*
X284011Y966723D01*
X283606Y966738D01*
X283200Y966743D01*
X282794Y966738D01*
X282389Y966723D01*
X281984Y966699D01*
X281580Y966664D01*
X281176Y966620D01*
X280774Y966565D01*
X280374Y966501D01*
X279975Y966428D01*
X279578Y966344D01*
X279183Y966251D01*
X278791Y966148D01*
X278401Y966036D01*
X278014Y965914D01*
X277630Y965783D01*
X277249Y965643D01*
X276872Y965493D01*
X276499Y965334D01*
X276129Y965166D01*
X275764Y964990D01*
X275404Y964804D01*
X275047Y964609D01*
X274696Y964406D01*
X274350Y964195D01*
X274009Y963975D01*
X273674Y963747D01*
X273344Y963511D01*
X273020Y963266D01*
X272702Y963014D01*
X272390Y962755D01*
X272085Y962487D01*
X271786Y962213D01*
X271495Y961931D01*
X271210Y961642D01*
X270932Y961346D01*
X270661Y961044D01*
X270398Y960735D01*
X270143Y960420D01*
X269895Y960099D01*
X269656Y959771D01*
X269424Y959438D01*
X269200Y959100D01*
X269200Y941100D02*
X269424Y940762D01*
X269656Y940429D01*
X269895Y940101D01*
X270143Y939780D01*
X270398Y939465D01*
X270661Y939156D01*
X270932Y938854D01*
X271210Y938558D01*
X271495Y938269D01*
X271786Y937987D01*
X272085Y937713D01*
X272390Y937445D01*
X272702Y937186D01*
X273020Y936934D01*
X273344Y936689D01*
X273674Y936453D01*
X274009Y936225D01*
X274350Y936005D01*
X274696Y935794D01*
X275047Y935591D01*
X275404Y935396D01*
X275764Y935210D01*
X276129Y935034D01*
X276499Y934866D01*
X276872Y934707D01*
X277249Y934557D01*
X277630Y934417D01*
X278014Y934286D01*
X278401Y934164D01*
X278791Y934052D01*
X279183Y933949D01*
X279578Y933856D01*
X279975Y933772D01*
X280374Y933699D01*
X280774Y933635D01*
X281176Y933580D01*
X281580Y933536D01*
X281984Y933501D01*
X282389Y933477D01*
X282794Y933462D01*
X283200Y933457D01*
X283606Y933462D01*
X284011Y933477D01*
X284416Y933501D01*
X284820Y933536D01*
X285224Y933580D01*
X285626Y933635D01*
X286026Y933699D01*
X286425Y933772D01*
X286822Y933856D01*
X287217Y933949D01*
X287609Y934052D01*
X287999Y934164D01*
X288386Y934286D01*
X288770Y934417D01*
X289151Y934557D01*
X289528Y934707D01*
X289901Y934866D01*
X290271Y935034D01*
X290636Y935210D01*
X290996Y935396D01*
X291353Y935591D01*
X291704Y935794D01*
X292050Y936005D01*
X292391Y936225D01*
X292726Y936453D01*
X293056Y936689D01*
X293380Y936934D01*
X293698Y937186D01*
X294010Y937445D01*
X294315Y937713D01*
X294614Y937987D01*
X294905Y938269D01*
X295190Y938558D01*
X295468Y938854D01*
X295739Y939156D01*
X296002Y939465D01*
X296257Y939780D01*
X296505Y940101D01*
X296744Y940429D01*
X296976Y940762D01*
X297200Y941100D01*
X269200Y941100D02*
X269200Y959100D01*
X296200Y960100D02*
X303200Y960100D01*
X303200Y940100D02*
X296200Y940100D01*
X363200Y941100D02*
X363424Y940762D01*
X363656Y940429D01*
X363895Y940101D01*
X364143Y939780D01*
X364398Y939465D01*
X364661Y939156D01*
X364932Y938854D01*
X365210Y938558D01*
X365495Y938269D01*
X365786Y937987D01*
X366085Y937713D01*
X366390Y937445D01*
X366702Y937186D01*
X367020Y936934D01*
X367344Y936689D01*
X367674Y936453D01*
X368009Y936225D01*
X368350Y936005D01*
X368696Y935794D01*
X369047Y935591D01*
X369404Y935396D01*
X369764Y935210D01*
X370129Y935034D01*
X370499Y934866D01*
X370872Y934707D01*
X371249Y934557D01*
X371630Y934417D01*
X372014Y934286D01*
X372401Y934164D01*
X372791Y934052D01*
X373183Y933949D01*
X373578Y933856D01*
X373975Y933772D01*
X374374Y933699D01*
X374774Y933635D01*
X375176Y933580D01*
X375580Y933536D01*
X375984Y933501D01*
X376389Y933477D01*
X376794Y933462D01*
X377200Y933457D01*
X377606Y933462D01*
X378011Y933477D01*
X378416Y933501D01*
X378820Y933536D01*
X379224Y933580D01*
X379626Y933635D01*
X380026Y933699D01*
X380425Y933772D01*
X380822Y933856D01*
X381217Y933949D01*
X381609Y934052D01*
X381999Y934164D01*
X382386Y934286D01*
X382770Y934417D01*
X383151Y934557D01*
X383528Y934707D01*
X383901Y934866D01*
X384271Y935034D01*
X384636Y935210D01*
X384996Y935396D01*
X385353Y935591D01*
X385704Y935794D01*
X386050Y936005D01*
X386391Y936225D01*
X386726Y936453D01*
X387056Y936689D01*
X387380Y936934D01*
X387698Y937186D01*
X388010Y937445D01*
X388315Y937713D01*
X388614Y937987D01*
X388905Y938269D01*
X389190Y938558D01*
X389468Y938854D01*
X389739Y939156D01*
X390002Y939465D01*
X390257Y939780D01*
X390505Y940101D01*
X390744Y940429D01*
X390976Y940762D01*
X391200Y941100D01*
X391200Y959100D02*
X390976Y959438D01*
X390744Y959771D01*
X390505Y960099D01*
X390257Y960420D01*
X390002Y960735D01*
X389739Y961044D01*
X389468Y961346D01*
X389190Y961642D01*
X388905Y961931D01*
X388614Y962213D01*
X388315Y962487D01*
X388010Y962755D01*
X387698Y963014D01*
X387380Y963266D01*
X387056Y963511D01*
X386726Y963747D01*
X386391Y963975D01*
X386050Y964195D01*
X385704Y964406D01*
X385353Y964609D01*
X384996Y964804D01*
X384636Y964990D01*
X384271Y965166D01*
X383901Y965334D01*
X383528Y965493D01*
X383151Y965643D01*
X382770Y965783D01*
X382386Y965914D01*
X381999Y966036D01*
X381609Y966148D01*
X381217Y966251D01*
X380822Y966344D01*
X380425Y966428D01*
X380026Y966501D01*
X379626Y966565D01*
X379224Y966620D01*
X378820Y966664D01*
X378416Y966699D01*
X378011Y966723D01*
X377606Y966738D01*
X377200Y966743D01*
X376794Y966738D01*
X376389Y966723D01*
X375984Y966699D01*
X375580Y966664D01*
X375176Y966620D01*
X374774Y966565D01*
X374374Y966501D01*
X373975Y966428D01*
X373578Y966344D01*
X373183Y966251D01*
X372791Y966148D01*
X372401Y966036D01*
X372014Y965914D01*
X371630Y965783D01*
X371249Y965643D01*
X370872Y965493D01*
X370499Y965334D01*
X370129Y965166D01*
X369764Y964990D01*
X369404Y964804D01*
X369047Y964609D01*
X368696Y964406D01*
X368350Y964195D01*
X368009Y963975D01*
X367674Y963747D01*
X367344Y963511D01*
X367020Y963266D01*
X366702Y963014D01*
X366390Y962755D01*
X366085Y962487D01*
X365786Y962213D01*
X365495Y961931D01*
X365210Y961642D01*
X364932Y961346D01*
X364661Y961044D01*
X364398Y960735D01*
X364143Y960420D01*
X363895Y960099D01*
X363656Y959771D01*
X363424Y959438D01*
X363200Y959100D01*
X391200Y959100D02*
X391200Y941100D01*
X364200Y940100D02*
X357200Y940100D01*
X357200Y960100D02*
X364200Y960100D01*
X356200Y905100D02*
X356348Y905098D01*
X356495Y905092D01*
X356643Y905082D01*
X356790Y905068D01*
X356936Y905051D01*
X357082Y905029D01*
X357228Y905003D01*
X357372Y904974D01*
X357516Y904940D01*
X357659Y904903D01*
X357801Y904862D01*
X357942Y904817D01*
X358081Y904768D01*
X358219Y904716D01*
X358356Y904660D01*
X358491Y904600D01*
X358624Y904537D01*
X358756Y904470D01*
X358886Y904400D01*
X359014Y904326D01*
X359140Y904249D01*
X359263Y904168D01*
X359385Y904084D01*
X359504Y903997D01*
X359621Y903907D01*
X359735Y903813D01*
X359847Y903717D01*
X359956Y903617D01*
X360063Y903515D01*
X360167Y903410D01*
X360267Y903302D01*
X360365Y903192D01*
X360460Y903078D01*
X360552Y902963D01*
X360641Y902845D01*
X360726Y902724D01*
X360809Y902602D01*
X360888Y902477D01*
X360963Y902350D01*
X361035Y902221D01*
X361104Y902090D01*
X361169Y901958D01*
X361230Y901824D01*
X361288Y901688D01*
X361343Y901550D01*
X361393Y901412D01*
X361440Y901271D01*
X361483Y901130D01*
X361522Y900988D01*
X361557Y900844D01*
X361589Y900700D01*
X361616Y900555D01*
X361640Y900409D01*
X361660Y900263D01*
X361676Y900116D01*
X361688Y899969D01*
X361696Y899821D01*
X361700Y899674D01*
X361700Y899526D01*
X361696Y899379D01*
X361688Y899231D01*
X361676Y899084D01*
X361660Y898937D01*
X361640Y898791D01*
X361616Y898645D01*
X361589Y898500D01*
X361557Y898356D01*
X361522Y898212D01*
X361483Y898070D01*
X361440Y897929D01*
X361393Y897788D01*
X361343Y897650D01*
X361288Y897512D01*
X361230Y897376D01*
X361169Y897242D01*
X361104Y897110D01*
X361035Y896979D01*
X360963Y896850D01*
X360888Y896723D01*
X360809Y896598D01*
X360726Y896476D01*
X360641Y896355D01*
X360552Y896237D01*
X360460Y896122D01*
X360365Y896008D01*
X360267Y895898D01*
X360167Y895790D01*
X360063Y895685D01*
X359956Y895583D01*
X359847Y895483D01*
X359735Y895387D01*
X359621Y895293D01*
X359504Y895203D01*
X359385Y895116D01*
X359263Y895032D01*
X359140Y894951D01*
X359014Y894874D01*
X358886Y894800D01*
X358756Y894730D01*
X358624Y894663D01*
X358491Y894600D01*
X358356Y894540D01*
X358219Y894484D01*
X358081Y894432D01*
X357942Y894383D01*
X357801Y894338D01*
X357659Y894297D01*
X357516Y894260D01*
X357372Y894226D01*
X357228Y894197D01*
X357082Y894171D01*
X356936Y894149D01*
X356790Y894132D01*
X356643Y894118D01*
X356495Y894108D01*
X356348Y894102D01*
X356200Y894100D01*
M02*
